M48
; DRILL file {KiCad (6.0.7)} date Fri Mar 17 11:03:46 2023
; FORMAT={-:-/ absolute / metric / decimal}
; #@! TF.CreationDate,2023-03-17T11:03:46-04:00
; #@! TF.GenerationSoftware,Kicad,Pcbnew,(6.0.7)
; #@! TF.FileFunction,MixedPlating,1,2
FMAT,2
METRIC
; #@! TA.AperFunction,Plated,PTH,ViaDrill
T1C0.400
; #@! TA.AperFunction,Plated,PTH,ComponentDrill
T2C0.800
; #@! TA.AperFunction,Plated,PTH,ComponentDrill
T3C0.890
; #@! TA.AperFunction,Plated,PTH,ComponentDrill
T4C0.900
; #@! TA.AperFunction,Plated,PTH,ComponentDrill
T5C1.000
; #@! TA.AperFunction,Plated,PTH,ComponentDrill
T6C1.100
; #@! TA.AperFunction,Plated,PTH,ComponentDrill
T7C2.010
; #@! TA.AperFunction,Plated,PTH,ComponentDrill
T8C2.062
; #@! TA.AperFunction,Plated,PTH,ComponentDrill
T9C2.300
; #@! TA.AperFunction,NonPlated,NPTH,ComponentDrill
T10C1.600
; #@! TA.AperFunction,NonPlated,NPTH,ComponentDrill
T11C3.200
%
G90
G05
T1
X61.658Y-45.021
X73.269Y-41.666
T2
X48.422Y-44.968
X48.422Y-47.508
X48.422Y-50.048
X48.422Y-52.588
X48.666Y-61.077
X48.666Y-63.577
X56.042Y-44.968
X56.042Y-47.508
X56.042Y-50.048
X56.042Y-52.588
X71.882Y-60.96
X71.882Y-63.5
X71.882Y-66.04
X71.882Y-68.58
X72.136Y-24.701
X72.136Y-32.322
X75.428Y-54.6
X76.327Y-24.701
X76.327Y-32.322
X77.928Y-54.6
X79.311Y-30.29
X79.502Y-60.96
X79.502Y-63.5
X79.502Y-66.04
X79.502Y-68.58
X84.318Y-58.664
X85.334Y-73.396
X86.818Y-58.664
X86.931Y-30.29
X87.834Y-73.396
X90.106Y-24.701
X90.106Y-32.322
X112.435Y-48.602
X112.435Y-51.102
T3
X47.676Y-36.45
X50.216Y-36.45
T4
X115.265Y-36.525
X115.265Y-39.065
T5
X26.695Y-68.326
X26.741Y-35.306
X29.235Y-68.326
X29.281Y-35.306
X31.775Y-68.326
X31.821Y-35.306
X34.315Y-68.326
X34.361Y-35.306
X34.544Y-27.49
X34.544Y-30.03
X42.1Y-61.727
X42.1Y-64.267
X42.222Y-41.084
X44.762Y-41.084
X47.055Y-77.647
X49.555Y-77.647
X52.055Y-77.647
X60.008Y-53.34
X60.008Y-55.88
X63.817Y-72.962
X66.358Y-72.962
X79.243Y-79.248
X81.783Y-79.248
T6
X101.005Y-42.134
X102.783Y-48.738
X102.783Y-51.279
X102.783Y-53.819
X111.165Y-42.134
T7
X45.136Y-31.37
X55.296Y-31.37
T8
X97.472Y-71.947
X102.172Y-73.747
X102.172Y-80.647
T9
X44.555Y-74.347
X54.555Y-74.347
T10
X99.672Y-74.047
X99.672Y-78.747
T11
X25.273Y-26.67
X25.273Y-79.248
X115.824Y-79.248
X115.887Y-26.67
T5
X98.845Y-35.054G85X98.845Y-33.054
G05
X102.545Y-31.054G85X104.545Y-31.054
G05
X102.295Y-37.054G85X104.795Y-37.054
G05
T0
M30
