%TF.GenerationSoftware,KiCad,Pcbnew,(6.0.7)*%
%TF.CreationDate,2023-03-17T11:03:48-04:00*%
%TF.ProjectId,DCV v2,44435620-7632-42e6-9b69-6361645f7063,rev?*%
%TF.SameCoordinates,Original*%
%TF.FileFunction,Soldermask,Top*%
%TF.FilePolarity,Negative*%
%FSLAX46Y46*%
G04 Gerber Fmt 4.6, Leading zero omitted, Abs format (unit mm)*
G04 Created by KiCad (PCBNEW (6.0.7)) date 2023-03-17 11:03:48*
%MOMM*%
%LPD*%
G01*
G04 APERTURE LIST*
G04 Aperture macros list*
%AMRoundRect*
0 Rectangle with rounded corners*
0 $1 Rounding radius*
0 $2 $3 $4 $5 $6 $7 $8 $9 X,Y pos of 4 corners*
0 Add a 4 corners polygon primitive as box body*
4,1,4,$2,$3,$4,$5,$6,$7,$8,$9,$2,$3,0*
0 Add four circle primitives for the rounded corners*
1,1,$1+$1,$2,$3*
1,1,$1+$1,$4,$5*
1,1,$1+$1,$6,$7*
1,1,$1+$1,$8,$9*
0 Add four rect primitives between the rounded corners*
20,1,$1+$1,$2,$3,$4,$5,0*
20,1,$1+$1,$4,$5,$6,$7,0*
20,1,$1+$1,$6,$7,$8,$9,0*
20,1,$1+$1,$8,$9,$2,$3,0*%
G04 Aperture macros list end*
%ADD10R,1.700000X1.700000*%
%ADD11O,1.700000X1.700000*%
%ADD12R,1.600000X1.600000*%
%ADD13C,1.600000*%
%ADD14RoundRect,0.250000X-0.325000X-0.650000X0.325000X-0.650000X0.325000X0.650000X-0.325000X0.650000X0*%
%ADD15O,5.000000X2.500000*%
%ADD16O,4.500000X2.250000*%
%ADD17O,2.250000X4.500000*%
%ADD18RoundRect,0.250000X-0.625000X0.312500X-0.625000X-0.312500X0.625000X-0.312500X0.625000X0.312500X0*%
%ADD19O,1.600000X1.600000*%
%ADD20RoundRect,0.250000X-0.650000X0.325000X-0.650000X-0.325000X0.650000X-0.325000X0.650000X0.325000X0*%
%ADD21C,3.200000*%
%ADD22R,2.000000X1.905000*%
%ADD23O,2.000000X1.905000*%
%ADD24RoundRect,0.250000X0.625000X-0.312500X0.625000X0.312500X-0.625000X0.312500X-0.625000X-0.312500X0*%
%ADD25RoundRect,0.250000X0.325000X0.650000X-0.325000X0.650000X-0.325000X-0.650000X0.325000X-0.650000X0*%
%ADD26C,4.600000*%
%ADD27C,1.800000*%
%ADD28R,1.398000X1.398000*%
%ADD29C,1.398000*%
%ADD30C,3.015000*%
%ADD31R,3.092000X3.092000*%
%ADD32C,3.092000*%
%ADD33RoundRect,0.250000X0.650000X-0.325000X0.650000X0.325000X-0.650000X0.325000X-0.650000X-0.325000X0*%
%ADD34RoundRect,0.250000X-0.312500X-0.625000X0.312500X-0.625000X0.312500X0.625000X-0.312500X0.625000X0*%
%ADD35R,1.500000X3.500000*%
%ADD36R,1.800000X1.800000*%
%ADD37R,2.200000X2.200000*%
%ADD38O,2.200000X2.200000*%
%ADD39RoundRect,0.250000X0.312500X0.625000X-0.312500X0.625000X-0.312500X-0.625000X0.312500X-0.625000X0*%
G04 APERTURE END LIST*
D10*
%TO.C,J10*%
X63817500Y-72961500D03*
D11*
X66357500Y-72961500D03*
%TD*%
D12*
%TO.C,C7*%
X112435000Y-48601849D03*
D13*
X112435000Y-51101849D03*
%TD*%
D12*
%TO.C,C11*%
X84318000Y-58664000D03*
D13*
X86818000Y-58664000D03*
%TD*%
D14*
%TO.C,C8*%
X42162200Y-44297600D03*
X45112200Y-44297600D03*
%TD*%
D15*
%TO.C,J4*%
X103545000Y-37054500D03*
D16*
X103545000Y-31054500D03*
D17*
X98845000Y-34054500D03*
%TD*%
D18*
%TO.C,R7*%
X68960651Y-60503500D03*
X68960651Y-63428500D03*
%TD*%
D13*
%TO.C,R4*%
X79311500Y-30289500D03*
D19*
X86931500Y-30289500D03*
%TD*%
D13*
%TO.C,R9*%
X72136000Y-32321500D03*
D19*
X72136000Y-24701500D03*
%TD*%
D20*
%TO.C,C2*%
X45120400Y-47303000D03*
X45120400Y-50253000D03*
%TD*%
D21*
%TO.C,H4*%
X115887500Y-26670000D03*
%TD*%
%TO.C,H3*%
X115824000Y-79248000D03*
%TD*%
D12*
%TO.C,U4*%
X71882000Y-60960000D03*
D19*
X71882000Y-63500000D03*
X71882000Y-66040000D03*
X71882000Y-68580000D03*
X79502000Y-68580000D03*
X79502000Y-66040000D03*
X79502000Y-63500000D03*
X79502000Y-60960000D03*
%TD*%
D21*
%TO.C,H2*%
X25273000Y-79248000D03*
%TD*%
D22*
%TO.C,U3*%
X102783000Y-48738500D03*
D23*
X102783000Y-51278500D03*
X102783000Y-53818500D03*
%TD*%
D10*
%TO.C,J6*%
X60007500Y-55880000D03*
D11*
X60007500Y-53340000D03*
%TD*%
D24*
%TO.C,R8*%
X79492000Y-74604500D03*
X79492000Y-71679500D03*
%TD*%
D12*
%TO.C,C15*%
X85334000Y-73396000D03*
D13*
X87834000Y-73396000D03*
%TD*%
D10*
%TO.C,J7*%
X42100500Y-64267000D03*
D11*
X42100500Y-61727000D03*
%TD*%
D20*
%TO.C,C6*%
X59753500Y-46848500D03*
X59753500Y-49798500D03*
%TD*%
D25*
%TO.C,C4*%
X69214651Y-68824000D03*
X66264651Y-68824000D03*
%TD*%
D21*
%TO.C,H1*%
X25273000Y-26670000D03*
%TD*%
D25*
%TO.C,C5*%
X56259900Y-41666000D03*
X53309900Y-41666000D03*
%TD*%
D26*
%TO.C,RV1*%
X44555000Y-74347500D03*
X54555000Y-74347500D03*
D27*
X47055000Y-77647500D03*
X49555000Y-77647500D03*
X52055000Y-77647500D03*
%TD*%
D28*
%TO.C,J1*%
X50215800Y-36450500D03*
D29*
X47675800Y-36450500D03*
D30*
X45135800Y-31370500D03*
X55295800Y-31370500D03*
%TD*%
D13*
%TO.C,J5*%
X99672000Y-74047000D03*
X99672000Y-78747000D03*
D31*
X102172000Y-80647000D03*
D32*
X102172000Y-73747000D03*
X97472000Y-71947000D03*
%TD*%
D13*
%TO.C,R3*%
X76327000Y-32321500D03*
D19*
X76327000Y-24701500D03*
%TD*%
D33*
%TO.C,C10*%
X99298000Y-55244500D03*
X99298000Y-52294500D03*
%TD*%
D34*
%TO.C,R1*%
X66228151Y-66284000D03*
X69153151Y-66284000D03*
%TD*%
D12*
%TO.C,C3*%
X48666400Y-61077349D03*
D13*
X48666400Y-63577349D03*
%TD*%
D12*
%TO.C,U2*%
X48422400Y-44968000D03*
D19*
X48422400Y-47508000D03*
X48422400Y-50048000D03*
X48422400Y-52588000D03*
X56042400Y-52588000D03*
X56042400Y-50048000D03*
X56042400Y-47508000D03*
X56042400Y-44968000D03*
%TD*%
D35*
%TO.C,J3*%
X82550000Y-25046500D03*
X85250000Y-25046500D03*
X79850000Y-25046500D03*
%TD*%
D25*
%TO.C,C14*%
X77293651Y-74412000D03*
X74343651Y-74412000D03*
%TD*%
D36*
%TO.C,D1*%
X115265200Y-39065200D03*
D27*
X115265200Y-36525200D03*
%TD*%
D37*
%TO.C,D2*%
X111165000Y-42134500D03*
D38*
X101005000Y-42134500D03*
%TD*%
D14*
%TO.C,C13*%
X82296000Y-66548000D03*
X85246000Y-66548000D03*
%TD*%
D10*
%TO.C,J9*%
X79243000Y-79248000D03*
D11*
X81783000Y-79248000D03*
%TD*%
D25*
%TO.C,C1*%
X48363400Y-55626000D03*
X45413400Y-55626000D03*
%TD*%
D12*
%TO.C,C12*%
X75428000Y-54600000D03*
D13*
X77928000Y-54600000D03*
%TD*%
%TO.C,R5*%
X90106500Y-32321500D03*
D19*
X90106500Y-24701500D03*
%TD*%
D24*
%TO.C,R6*%
X111165000Y-39279000D03*
X111165000Y-36354000D03*
%TD*%
D10*
%TO.C,U1*%
X34361400Y-35306000D03*
D11*
X31821400Y-35306000D03*
X29281400Y-35306000D03*
X26741400Y-35306000D03*
X26695400Y-68326000D03*
X29235400Y-68326000D03*
X31775400Y-68326000D03*
D10*
X34315400Y-68326000D03*
%TD*%
%TO.C,J8*%
X34544000Y-27490500D03*
D11*
X34544000Y-30030500D03*
%TD*%
D10*
%TO.C,J2*%
X42222500Y-41084500D03*
D11*
X44762500Y-41084500D03*
%TD*%
D39*
%TO.C,R2*%
X61060900Y-41666000D03*
X58135900Y-41666000D03*
%TD*%
M02*
