%TF.GenerationSoftware,KiCad,Pcbnew,(6.0.7)*%
%TF.CreationDate,2023-03-17T11:03:48-04:00*%
%TF.ProjectId,DCV v2,44435620-7632-42e6-9b69-6361645f7063,rev?*%
%TF.SameCoordinates,Original*%
%TF.FileFunction,Legend,Top*%
%TF.FilePolarity,Positive*%
%FSLAX46Y46*%
G04 Gerber Fmt 4.6, Leading zero omitted, Abs format (unit mm)*
G04 Created by KiCad (PCBNEW (6.0.7)) date 2023-03-17 11:03:48*
%MOMM*%
%LPD*%
G01*
G04 APERTURE LIST*
%ADD10C,0.250000*%
%ADD11C,0.200000*%
%ADD12C,0.150000*%
%ADD13C,0.100000*%
%ADD14C,0.120000*%
%ADD15C,0.127000*%
%ADD16C,0.400000*%
G04 APERTURE END LIST*
D10*
X61186857Y-81069571D02*
X61186857Y-79569571D01*
X62044000Y-81069571D01*
X62044000Y-79569571D01*
X62972571Y-81069571D02*
X62829714Y-80998142D01*
X62758285Y-80926714D01*
X62686857Y-80783857D01*
X62686857Y-80355285D01*
X62758285Y-80212428D01*
X62829714Y-80141000D01*
X62972571Y-80069571D01*
X63186857Y-80069571D01*
X63329714Y-80141000D01*
X63401142Y-80212428D01*
X63472571Y-80355285D01*
X63472571Y-80783857D01*
X63401142Y-80926714D01*
X63329714Y-80998142D01*
X63186857Y-81069571D01*
X62972571Y-81069571D01*
X63972571Y-80069571D02*
X64329714Y-81069571D01*
X64686857Y-80069571D01*
X66329714Y-79712428D02*
X66401142Y-79641000D01*
X66544000Y-79569571D01*
X66901142Y-79569571D01*
X67044000Y-79641000D01*
X67115428Y-79712428D01*
X67186857Y-79855285D01*
X67186857Y-79998142D01*
X67115428Y-80212428D01*
X66258285Y-81069571D01*
X67186857Y-81069571D01*
X68115428Y-79569571D02*
X68258285Y-79569571D01*
X68401142Y-79641000D01*
X68472571Y-79712428D01*
X68544000Y-79855285D01*
X68615428Y-80141000D01*
X68615428Y-80498142D01*
X68544000Y-80783857D01*
X68472571Y-80926714D01*
X68401142Y-80998142D01*
X68258285Y-81069571D01*
X68115428Y-81069571D01*
X67972571Y-80998142D01*
X67901142Y-80926714D01*
X67829714Y-80783857D01*
X67758285Y-80498142D01*
X67758285Y-80141000D01*
X67829714Y-79855285D01*
X67901142Y-79712428D01*
X67972571Y-79641000D01*
X68115428Y-79569571D01*
X69186857Y-79712428D02*
X69258285Y-79641000D01*
X69401142Y-79569571D01*
X69758285Y-79569571D01*
X69901142Y-79641000D01*
X69972571Y-79712428D01*
X70044000Y-79855285D01*
X70044000Y-79998142D01*
X69972571Y-80212428D01*
X69115428Y-81069571D01*
X70044000Y-81069571D01*
X70615428Y-79712428D02*
X70686857Y-79641000D01*
X70829714Y-79569571D01*
X71186857Y-79569571D01*
X71329714Y-79641000D01*
X71401142Y-79712428D01*
X71472571Y-79855285D01*
X71472571Y-79998142D01*
X71401142Y-80212428D01*
X70544000Y-81069571D01*
X71472571Y-81069571D01*
D11*
X60494690Y-37198690D02*
X60680404Y-37260595D01*
X60989928Y-37260595D01*
X61113738Y-37198690D01*
X61175642Y-37136785D01*
X61237547Y-37012976D01*
X61237547Y-36889166D01*
X61175642Y-36765357D01*
X61113738Y-36703452D01*
X60989928Y-36641547D01*
X60742309Y-36579642D01*
X60618499Y-36517738D01*
X60556595Y-36455833D01*
X60494690Y-36332023D01*
X60494690Y-36208214D01*
X60556595Y-36084404D01*
X60618499Y-36022500D01*
X60742309Y-35960595D01*
X61051833Y-35960595D01*
X61237547Y-36022500D01*
X62042309Y-35960595D02*
X62289928Y-35960595D01*
X62413738Y-36022500D01*
X62537547Y-36146309D01*
X62599452Y-36393928D01*
X62599452Y-36827261D01*
X62537547Y-37074880D01*
X62413738Y-37198690D01*
X62289928Y-37260595D01*
X62042309Y-37260595D01*
X61918499Y-37198690D01*
X61794690Y-37074880D01*
X61732785Y-36827261D01*
X61732785Y-36393928D01*
X61794690Y-36146309D01*
X61918499Y-36022500D01*
X62042309Y-35960595D01*
X63094690Y-36889166D02*
X63713738Y-36889166D01*
X62970880Y-37260595D02*
X63404214Y-35960595D01*
X63837547Y-37260595D01*
X65013738Y-37260595D02*
X64580404Y-36641547D01*
X64270880Y-37260595D02*
X64270880Y-35960595D01*
X64766119Y-35960595D01*
X64889928Y-36022500D01*
X64951833Y-36084404D01*
X65013738Y-36208214D01*
X65013738Y-36393928D01*
X64951833Y-36517738D01*
X64889928Y-36579642D01*
X64766119Y-36641547D01*
X64270880Y-36641547D01*
X65570880Y-36579642D02*
X66004214Y-36579642D01*
X66189928Y-37260595D02*
X65570880Y-37260595D01*
X65570880Y-35960595D01*
X66189928Y-35960595D01*
X66623261Y-35960595D02*
X67489928Y-37260595D01*
X67489928Y-35960595D02*
X66623261Y-37260595D01*
X68975642Y-37260595D02*
X68975642Y-35960595D01*
X69285166Y-35960595D01*
X69470880Y-36022500D01*
X69594690Y-36146309D01*
X69656595Y-36270119D01*
X69718499Y-36517738D01*
X69718499Y-36703452D01*
X69656595Y-36951071D01*
X69594690Y-37074880D01*
X69470880Y-37198690D01*
X69285166Y-37260595D01*
X68975642Y-37260595D01*
X70275642Y-37260595D02*
X70275642Y-36393928D01*
X70275642Y-35960595D02*
X70213738Y-36022500D01*
X70275642Y-36084404D01*
X70337547Y-36022500D01*
X70275642Y-35960595D01*
X70275642Y-36084404D01*
X70894690Y-37260595D02*
X70894690Y-36393928D01*
X70894690Y-36641547D02*
X70956595Y-36517738D01*
X71018499Y-36455833D01*
X71142309Y-36393928D01*
X71266119Y-36393928D01*
X72194690Y-37198690D02*
X72070880Y-37260595D01*
X71823261Y-37260595D01*
X71699452Y-37198690D01*
X71637547Y-37074880D01*
X71637547Y-36579642D01*
X71699452Y-36455833D01*
X71823261Y-36393928D01*
X72070880Y-36393928D01*
X72194690Y-36455833D01*
X72256595Y-36579642D01*
X72256595Y-36703452D01*
X71637547Y-36827261D01*
X73370880Y-37198690D02*
X73247071Y-37260595D01*
X72999452Y-37260595D01*
X72875642Y-37198690D01*
X72813738Y-37136785D01*
X72751833Y-37012976D01*
X72751833Y-36641547D01*
X72813738Y-36517738D01*
X72875642Y-36455833D01*
X72999452Y-36393928D01*
X73247071Y-36393928D01*
X73370880Y-36455833D01*
X73742309Y-36393928D02*
X74237547Y-36393928D01*
X73928023Y-35960595D02*
X73928023Y-37074880D01*
X73989928Y-37198690D01*
X74113738Y-37260595D01*
X74237547Y-37260595D01*
X76404214Y-37136785D02*
X76342309Y-37198690D01*
X76156595Y-37260595D01*
X76032785Y-37260595D01*
X75847071Y-37198690D01*
X75723261Y-37074880D01*
X75661357Y-36951071D01*
X75599452Y-36703452D01*
X75599452Y-36517738D01*
X75661357Y-36270119D01*
X75723261Y-36146309D01*
X75847071Y-36022500D01*
X76032785Y-35960595D01*
X76156595Y-35960595D01*
X76342309Y-36022500D01*
X76404214Y-36084404D01*
X77147071Y-37260595D02*
X77023261Y-37198690D01*
X76961357Y-37136785D01*
X76899452Y-37012976D01*
X76899452Y-36641547D01*
X76961357Y-36517738D01*
X77023261Y-36455833D01*
X77147071Y-36393928D01*
X77332785Y-36393928D01*
X77456595Y-36455833D01*
X77518500Y-36517738D01*
X77580404Y-36641547D01*
X77580404Y-37012976D01*
X77518500Y-37136785D01*
X77456595Y-37198690D01*
X77332785Y-37260595D01*
X77147071Y-37260595D01*
X78137547Y-36393928D02*
X78137547Y-37260595D01*
X78137547Y-36517738D02*
X78199452Y-36455833D01*
X78323261Y-36393928D01*
X78508976Y-36393928D01*
X78632785Y-36455833D01*
X78694690Y-36579642D01*
X78694690Y-37260595D01*
X79189928Y-36393928D02*
X79499452Y-37260595D01*
X79808976Y-36393928D01*
X80799452Y-37198690D02*
X80675642Y-37260595D01*
X80428023Y-37260595D01*
X80304214Y-37198690D01*
X80242309Y-37074880D01*
X80242309Y-36579642D01*
X80304214Y-36455833D01*
X80428023Y-36393928D01*
X80675642Y-36393928D01*
X80799452Y-36455833D01*
X80861357Y-36579642D01*
X80861357Y-36703452D01*
X80242309Y-36827261D01*
X81418500Y-37260595D02*
X81418500Y-36393928D01*
X81418500Y-36641547D02*
X81480404Y-36517738D01*
X81542309Y-36455833D01*
X81666119Y-36393928D01*
X81789928Y-36393928D01*
X82161357Y-37198690D02*
X82285166Y-37260595D01*
X82532785Y-37260595D01*
X82656595Y-37198690D01*
X82718499Y-37074880D01*
X82718499Y-37012976D01*
X82656595Y-36889166D01*
X82532785Y-36827261D01*
X82347071Y-36827261D01*
X82223261Y-36765357D01*
X82161357Y-36641547D01*
X82161357Y-36579642D01*
X82223261Y-36455833D01*
X82347071Y-36393928D01*
X82532785Y-36393928D01*
X82656595Y-36455833D01*
X83275642Y-37260595D02*
X83275642Y-36393928D01*
X83275642Y-35960595D02*
X83213738Y-36022500D01*
X83275642Y-36084404D01*
X83337547Y-36022500D01*
X83275642Y-35960595D01*
X83275642Y-36084404D01*
X84080404Y-37260595D02*
X83956595Y-37198690D01*
X83894690Y-37136785D01*
X83832785Y-37012976D01*
X83832785Y-36641547D01*
X83894690Y-36517738D01*
X83956595Y-36455833D01*
X84080404Y-36393928D01*
X84266119Y-36393928D01*
X84389928Y-36455833D01*
X84451833Y-36517738D01*
X84513738Y-36641547D01*
X84513738Y-37012976D01*
X84451833Y-37136785D01*
X84389928Y-37198690D01*
X84266119Y-37260595D01*
X84080404Y-37260595D01*
X85070880Y-36393928D02*
X85070880Y-37260595D01*
X85070880Y-36517738D02*
X85132785Y-36455833D01*
X85256595Y-36393928D01*
X85442309Y-36393928D01*
X85566119Y-36455833D01*
X85628023Y-36579642D01*
X85628023Y-37260595D01*
X87980404Y-37260595D02*
X87547071Y-36641547D01*
X87237547Y-37260595D02*
X87237547Y-35960595D01*
X87732785Y-35960595D01*
X87856595Y-36022500D01*
X87918500Y-36084404D01*
X87980404Y-36208214D01*
X87980404Y-36393928D01*
X87918500Y-36517738D01*
X87856595Y-36579642D01*
X87732785Y-36641547D01*
X87237547Y-36641547D01*
X89032785Y-37198690D02*
X88908976Y-37260595D01*
X88661357Y-37260595D01*
X88537547Y-37198690D01*
X88475642Y-37074880D01*
X88475642Y-36579642D01*
X88537547Y-36455833D01*
X88661357Y-36393928D01*
X88908976Y-36393928D01*
X89032785Y-36455833D01*
X89094690Y-36579642D01*
X89094690Y-36703452D01*
X88475642Y-36827261D01*
X90208976Y-37198690D02*
X90085166Y-37260595D01*
X89837547Y-37260595D01*
X89713738Y-37198690D01*
X89651833Y-37136785D01*
X89589928Y-37012976D01*
X89589928Y-36641547D01*
X89651833Y-36517738D01*
X89713738Y-36455833D01*
X89837547Y-36393928D01*
X90085166Y-36393928D01*
X90208976Y-36455833D01*
X91261357Y-37198690D02*
X91137547Y-37260595D01*
X90889928Y-37260595D01*
X90766119Y-37198690D01*
X90704214Y-37074880D01*
X90704214Y-36579642D01*
X90766119Y-36455833D01*
X90889928Y-36393928D01*
X91137547Y-36393928D01*
X91261357Y-36455833D01*
X91323261Y-36579642D01*
X91323261Y-36703452D01*
X90704214Y-36827261D01*
X91880404Y-37260595D02*
X91880404Y-36393928D01*
X91880404Y-35960595D02*
X91818499Y-36022500D01*
X91880404Y-36084404D01*
X91942309Y-36022500D01*
X91880404Y-35960595D01*
X91880404Y-36084404D01*
X92375642Y-36393928D02*
X92685166Y-37260595D01*
X92994690Y-36393928D01*
X93985166Y-37198690D02*
X93861357Y-37260595D01*
X93613738Y-37260595D01*
X93489928Y-37198690D01*
X93428023Y-37074880D01*
X93428023Y-36579642D01*
X93489928Y-36455833D01*
X93613738Y-36393928D01*
X93861357Y-36393928D01*
X93985166Y-36455833D01*
X94047071Y-36579642D01*
X94047071Y-36703452D01*
X93428023Y-36827261D01*
X94604214Y-37260595D02*
X94604214Y-36393928D01*
X94604214Y-36641547D02*
X94666119Y-36517738D01*
X94728023Y-36455833D01*
X94851833Y-36393928D01*
X94975642Y-36393928D01*
X72101833Y-39353595D02*
X72101833Y-38053595D01*
X72535166Y-38982166D01*
X72968500Y-38053595D01*
X72968500Y-39353595D01*
X74144690Y-39353595D02*
X74144690Y-38672642D01*
X74082785Y-38548833D01*
X73958976Y-38486928D01*
X73711357Y-38486928D01*
X73587547Y-38548833D01*
X74144690Y-39291690D02*
X74020880Y-39353595D01*
X73711357Y-39353595D01*
X73587547Y-39291690D01*
X73525642Y-39167880D01*
X73525642Y-39044071D01*
X73587547Y-38920261D01*
X73711357Y-38858357D01*
X74020880Y-38858357D01*
X74144690Y-38796452D01*
X74763738Y-39353595D02*
X74763738Y-38486928D01*
X74763738Y-38734547D02*
X74825642Y-38610738D01*
X74887547Y-38548833D01*
X75011357Y-38486928D01*
X75135166Y-38486928D01*
X76497071Y-38177404D02*
X76558976Y-38115500D01*
X76682785Y-38053595D01*
X76992309Y-38053595D01*
X77116119Y-38115500D01*
X77178023Y-38177404D01*
X77239928Y-38301214D01*
X77239928Y-38425023D01*
X77178023Y-38610738D01*
X76435166Y-39353595D01*
X77239928Y-39353595D01*
X78044690Y-38053595D02*
X78168500Y-38053595D01*
X78292309Y-38115500D01*
X78354214Y-38177404D01*
X78416119Y-38301214D01*
X78478023Y-38548833D01*
X78478023Y-38858357D01*
X78416119Y-39105976D01*
X78354214Y-39229785D01*
X78292309Y-39291690D01*
X78168500Y-39353595D01*
X78044690Y-39353595D01*
X77920880Y-39291690D01*
X77858976Y-39229785D01*
X77797071Y-39105976D01*
X77735166Y-38858357D01*
X77735166Y-38548833D01*
X77797071Y-38301214D01*
X77858976Y-38177404D01*
X77920880Y-38115500D01*
X78044690Y-38053595D01*
X78973261Y-38177404D02*
X79035166Y-38115500D01*
X79158976Y-38053595D01*
X79468500Y-38053595D01*
X79592309Y-38115500D01*
X79654214Y-38177404D01*
X79716119Y-38301214D01*
X79716119Y-38425023D01*
X79654214Y-38610738D01*
X78911357Y-39353595D01*
X79716119Y-39353595D01*
X80149452Y-38053595D02*
X80954214Y-38053595D01*
X80520880Y-38548833D01*
X80706595Y-38548833D01*
X80830404Y-38610738D01*
X80892309Y-38672642D01*
X80954214Y-38796452D01*
X80954214Y-39105976D01*
X80892309Y-39229785D01*
X80830404Y-39291690D01*
X80706595Y-39353595D01*
X80335166Y-39353595D01*
X80211357Y-39291690D01*
X80149452Y-39229785D01*
X82316119Y-38053595D02*
X82749452Y-39353595D01*
X83182785Y-38053595D01*
X83554214Y-38177404D02*
X83616119Y-38115500D01*
X83739928Y-38053595D01*
X84049452Y-38053595D01*
X84173261Y-38115500D01*
X84235166Y-38177404D01*
X84297071Y-38301214D01*
X84297071Y-38425023D01*
X84235166Y-38610738D01*
X83492309Y-39353595D01*
X84297071Y-39353595D01*
D12*
%TO.C,G\u002A\u002A\u002A*%
X83121833Y-44854761D02*
X83264690Y-44902380D01*
X83502785Y-44902380D01*
X83598023Y-44854761D01*
X83645642Y-44807142D01*
X83693261Y-44711904D01*
X83693261Y-44616666D01*
X83645642Y-44521428D01*
X83598023Y-44473809D01*
X83502785Y-44426190D01*
X83312309Y-44378571D01*
X83217071Y-44330952D01*
X83169452Y-44283333D01*
X83121833Y-44188095D01*
X83121833Y-44092857D01*
X83169452Y-43997619D01*
X83217071Y-43950000D01*
X83312309Y-43902380D01*
X83550404Y-43902380D01*
X83693261Y-43950000D01*
X84312309Y-43902380D02*
X84502785Y-43902380D01*
X84598023Y-43950000D01*
X84693261Y-44045238D01*
X84740880Y-44235714D01*
X84740880Y-44569047D01*
X84693261Y-44759523D01*
X84598023Y-44854761D01*
X84502785Y-44902380D01*
X84312309Y-44902380D01*
X84217071Y-44854761D01*
X84121833Y-44759523D01*
X84074214Y-44569047D01*
X84074214Y-44235714D01*
X84121833Y-44045238D01*
X84217071Y-43950000D01*
X84312309Y-43902380D01*
X85121833Y-44616666D02*
X85598023Y-44616666D01*
X85026595Y-44902380D02*
X85359928Y-43902380D01*
X85693261Y-44902380D01*
X86598023Y-44902380D02*
X86264690Y-44426190D01*
X86026595Y-44902380D02*
X86026595Y-43902380D01*
X86407547Y-43902380D01*
X86502785Y-43950000D01*
X86550404Y-43997619D01*
X86598023Y-44092857D01*
X86598023Y-44235714D01*
X86550404Y-44330952D01*
X86502785Y-44378571D01*
X86407547Y-44426190D01*
X86026595Y-44426190D01*
X87026595Y-44378571D02*
X87359928Y-44378571D01*
X87502785Y-44902380D02*
X87026595Y-44902380D01*
X87026595Y-43902380D01*
X87502785Y-43902380D01*
X87836119Y-43902380D02*
X88502785Y-44902380D01*
X88502785Y-43902380D02*
X87836119Y-44902380D01*
%TO.C,J10*%
X62563476Y-75017380D02*
X62563476Y-75731666D01*
X62515857Y-75874523D01*
X62420619Y-75969761D01*
X62277761Y-76017380D01*
X62182523Y-76017380D01*
X63563476Y-76017380D02*
X62992047Y-76017380D01*
X63277761Y-76017380D02*
X63277761Y-75017380D01*
X63182523Y-75160238D01*
X63087285Y-75255476D01*
X62992047Y-75303095D01*
X64182523Y-75017380D02*
X64277761Y-75017380D01*
X64373000Y-75065000D01*
X64420619Y-75112619D01*
X64468238Y-75207857D01*
X64515857Y-75398333D01*
X64515857Y-75636428D01*
X64468238Y-75826904D01*
X64420619Y-75922142D01*
X64373000Y-75969761D01*
X64277761Y-76017380D01*
X64182523Y-76017380D01*
X64087285Y-75969761D01*
X64039666Y-75922142D01*
X63992047Y-75826904D01*
X63944428Y-75636428D01*
X63944428Y-75398333D01*
X63992047Y-75207857D01*
X64039666Y-75112619D01*
X64087285Y-75065000D01*
X64182523Y-75017380D01*
X65730595Y-75017380D02*
X66302023Y-75017380D01*
X66016309Y-76017380D02*
X66016309Y-75017380D01*
X66635357Y-76017380D02*
X66635357Y-75017380D01*
X67016309Y-75017380D01*
X67111547Y-75065000D01*
X67159166Y-75112619D01*
X67206785Y-75207857D01*
X67206785Y-75350714D01*
X67159166Y-75445952D01*
X67111547Y-75493571D01*
X67016309Y-75541190D01*
X66635357Y-75541190D01*
X67540119Y-75017380D02*
X68159166Y-75017380D01*
X67825833Y-75398333D01*
X67968690Y-75398333D01*
X68063928Y-75445952D01*
X68111547Y-75493571D01*
X68159166Y-75588809D01*
X68159166Y-75826904D01*
X68111547Y-75922142D01*
X68063928Y-75969761D01*
X67968690Y-76017380D01*
X67682976Y-76017380D01*
X67587738Y-75969761D01*
X67540119Y-75922142D01*
%TO.C,C7*%
X110506142Y-55118515D02*
X110553761Y-55166134D01*
X110601380Y-55308991D01*
X110601380Y-55404229D01*
X110553761Y-55547087D01*
X110458523Y-55642325D01*
X110363285Y-55689944D01*
X110172809Y-55737563D01*
X110029952Y-55737563D01*
X109839476Y-55689944D01*
X109744238Y-55642325D01*
X109649000Y-55547087D01*
X109601380Y-55404229D01*
X109601380Y-55308991D01*
X109649000Y-55166134D01*
X109696619Y-55118515D01*
X109601380Y-54785182D02*
X109601380Y-54118515D01*
X110601380Y-54547087D01*
X112030142Y-57372610D02*
X112077761Y-57324991D01*
X112125380Y-57372610D01*
X112077761Y-57420229D01*
X112030142Y-57372610D01*
X112125380Y-57372610D01*
X111125380Y-56991658D02*
X111125380Y-56372610D01*
X111506333Y-56705944D01*
X111506333Y-56563087D01*
X111553952Y-56467849D01*
X111601571Y-56420229D01*
X111696809Y-56372610D01*
X111934904Y-56372610D01*
X112030142Y-56420229D01*
X112077761Y-56467849D01*
X112125380Y-56563087D01*
X112125380Y-56848801D01*
X112077761Y-56944039D01*
X112030142Y-56991658D01*
X111125380Y-56039277D02*
X111125380Y-55420229D01*
X111506333Y-55753563D01*
X111506333Y-55610706D01*
X111553952Y-55515468D01*
X111601571Y-55467849D01*
X111696809Y-55420229D01*
X111934904Y-55420229D01*
X112030142Y-55467849D01*
X112077761Y-55515468D01*
X112125380Y-55610706D01*
X112125380Y-55896420D01*
X112077761Y-55991658D01*
X112030142Y-56039277D01*
X111458714Y-54563087D02*
X112125380Y-54563087D01*
X111458714Y-54991658D02*
X111982523Y-54991658D01*
X112077761Y-54944039D01*
X112125380Y-54848801D01*
X112125380Y-54705944D01*
X112077761Y-54610706D01*
X112030142Y-54563087D01*
%TO.C,C11*%
X87367793Y-53941142D02*
X87320174Y-53988761D01*
X87177317Y-54036380D01*
X87082079Y-54036380D01*
X86939222Y-53988761D01*
X86843984Y-53893523D01*
X86796365Y-53798285D01*
X86748746Y-53607809D01*
X86748746Y-53464952D01*
X86796365Y-53274476D01*
X86843984Y-53179238D01*
X86939222Y-53084000D01*
X87082079Y-53036380D01*
X87177317Y-53036380D01*
X87320174Y-53084000D01*
X87367793Y-53131619D01*
X88320174Y-54036380D02*
X87748746Y-54036380D01*
X88034460Y-54036380D02*
X88034460Y-53036380D01*
X87939222Y-53179238D01*
X87843984Y-53274476D01*
X87748746Y-53322095D01*
X89272555Y-54036380D02*
X88701127Y-54036380D01*
X88986841Y-54036380D02*
X88986841Y-53036380D01*
X88891603Y-53179238D01*
X88796365Y-53274476D01*
X88701127Y-53322095D01*
X89273142Y-55570380D02*
X88701714Y-55570380D01*
X88987428Y-55570380D02*
X88987428Y-54570380D01*
X88892190Y-54713238D01*
X88796952Y-54808476D01*
X88701714Y-54856095D01*
X89892190Y-54570380D02*
X89987428Y-54570380D01*
X90082666Y-54618000D01*
X90130285Y-54665619D01*
X90177904Y-54760857D01*
X90225523Y-54951333D01*
X90225523Y-55189428D01*
X90177904Y-55379904D01*
X90130285Y-55475142D01*
X90082666Y-55522761D01*
X89987428Y-55570380D01*
X89892190Y-55570380D01*
X89796952Y-55522761D01*
X89749333Y-55475142D01*
X89701714Y-55379904D01*
X89654095Y-55189428D01*
X89654095Y-54951333D01*
X89701714Y-54760857D01*
X89749333Y-54665619D01*
X89796952Y-54618000D01*
X89892190Y-54570380D01*
X91082666Y-54903714D02*
X91082666Y-55570380D01*
X90654095Y-54903714D02*
X90654095Y-55427523D01*
X90701714Y-55522761D01*
X90796952Y-55570380D01*
X90939809Y-55570380D01*
X91035047Y-55522761D01*
X91082666Y-55475142D01*
%TO.C,C8*%
X39774833Y-46204142D02*
X39727214Y-46251761D01*
X39584357Y-46299380D01*
X39489119Y-46299380D01*
X39346261Y-46251761D01*
X39251023Y-46156523D01*
X39203404Y-46061285D01*
X39155785Y-45870809D01*
X39155785Y-45727952D01*
X39203404Y-45537476D01*
X39251023Y-45442238D01*
X39346261Y-45347000D01*
X39489119Y-45299380D01*
X39584357Y-45299380D01*
X39727214Y-45347000D01*
X39774833Y-45394619D01*
X40346261Y-45727952D02*
X40251023Y-45680333D01*
X40203404Y-45632714D01*
X40155785Y-45537476D01*
X40155785Y-45489857D01*
X40203404Y-45394619D01*
X40251023Y-45347000D01*
X40346261Y-45299380D01*
X40536738Y-45299380D01*
X40631976Y-45347000D01*
X40679595Y-45394619D01*
X40727214Y-45489857D01*
X40727214Y-45537476D01*
X40679595Y-45632714D01*
X40631976Y-45680333D01*
X40536738Y-45727952D01*
X40346261Y-45727952D01*
X40251023Y-45775571D01*
X40203404Y-45823190D01*
X40155785Y-45918428D01*
X40155785Y-46108904D01*
X40203404Y-46204142D01*
X40251023Y-46251761D01*
X40346261Y-46299380D01*
X40536738Y-46299380D01*
X40631976Y-46251761D01*
X40679595Y-46204142D01*
X40727214Y-46108904D01*
X40727214Y-45918428D01*
X40679595Y-45823190D01*
X40631976Y-45775571D01*
X40536738Y-45727952D01*
X39076452Y-47632880D02*
X38505023Y-47632880D01*
X38790738Y-47632880D02*
X38790738Y-46632880D01*
X38695500Y-46775738D01*
X38600261Y-46870976D01*
X38505023Y-46918595D01*
X39695500Y-46632880D02*
X39790738Y-46632880D01*
X39885976Y-46680500D01*
X39933595Y-46728119D01*
X39981214Y-46823357D01*
X40028833Y-47013833D01*
X40028833Y-47251928D01*
X39981214Y-47442404D01*
X39933595Y-47537642D01*
X39885976Y-47585261D01*
X39790738Y-47632880D01*
X39695500Y-47632880D01*
X39600261Y-47585261D01*
X39552642Y-47537642D01*
X39505023Y-47442404D01*
X39457404Y-47251928D01*
X39457404Y-47013833D01*
X39505023Y-46823357D01*
X39552642Y-46728119D01*
X39600261Y-46680500D01*
X39695500Y-46632880D01*
X40647880Y-46632880D02*
X40743119Y-46632880D01*
X40838357Y-46680500D01*
X40885976Y-46728119D01*
X40933595Y-46823357D01*
X40981214Y-47013833D01*
X40981214Y-47251928D01*
X40933595Y-47442404D01*
X40885976Y-47537642D01*
X40838357Y-47585261D01*
X40743119Y-47632880D01*
X40647880Y-47632880D01*
X40552642Y-47585261D01*
X40505023Y-47537642D01*
X40457404Y-47442404D01*
X40409785Y-47251928D01*
X40409785Y-47013833D01*
X40457404Y-46823357D01*
X40505023Y-46728119D01*
X40552642Y-46680500D01*
X40647880Y-46632880D01*
X41409785Y-46966214D02*
X41409785Y-47632880D01*
X41409785Y-47061452D02*
X41457404Y-47013833D01*
X41552642Y-46966214D01*
X41695500Y-46966214D01*
X41790738Y-47013833D01*
X41838357Y-47109071D01*
X41838357Y-47632880D01*
%TO.C,J4*%
X97408928Y-25733609D02*
X98123804Y-25733609D01*
X98266779Y-25781267D01*
X98362096Y-25876584D01*
X98409755Y-26019559D01*
X98409755Y-26114876D01*
X97742537Y-24828098D02*
X98409755Y-24828098D01*
X97361269Y-25066391D02*
X98076146Y-25304683D01*
X98076146Y-24685123D01*
X98409915Y-30769408D02*
X97408734Y-30769408D01*
X97408734Y-30388005D01*
X97456409Y-30292655D01*
X97504084Y-30244979D01*
X97599435Y-30197304D01*
X97742461Y-30197304D01*
X97837811Y-30244979D01*
X97885487Y-30292655D01*
X97933162Y-30388005D01*
X97933162Y-30769408D01*
X97408734Y-29863577D02*
X98409915Y-29625201D01*
X97694785Y-29434500D01*
X98409915Y-29243798D01*
X97408734Y-29005422D01*
X98409915Y-28051916D02*
X97933162Y-28385643D01*
X98409915Y-28624020D02*
X97408734Y-28624020D01*
X97408734Y-28242617D01*
X97456409Y-28147267D01*
X97504084Y-28099592D01*
X97599435Y-28051916D01*
X97742461Y-28051916D01*
X97837811Y-28099592D01*
X97885487Y-28147267D01*
X97933162Y-28242617D01*
X97933162Y-28624020D01*
%TO.C,R7*%
X68743533Y-59329580D02*
X68410200Y-58853390D01*
X68172104Y-59329580D02*
X68172104Y-58329580D01*
X68553057Y-58329580D01*
X68648295Y-58377200D01*
X68695914Y-58424819D01*
X68743533Y-58520057D01*
X68743533Y-58662914D01*
X68695914Y-58758152D01*
X68648295Y-58805771D01*
X68553057Y-58853390D01*
X68172104Y-58853390D01*
X69076866Y-58329580D02*
X69743533Y-58329580D01*
X69314961Y-59329580D01*
X67406780Y-62006076D02*
X67406780Y-62577504D01*
X67406780Y-62291790D02*
X66406780Y-62291790D01*
X66549638Y-62387028D01*
X66644876Y-62482266D01*
X66692495Y-62577504D01*
X66406780Y-61387028D02*
X66406780Y-61291790D01*
X66454400Y-61196552D01*
X66502019Y-61148933D01*
X66597257Y-61101314D01*
X66787733Y-61053695D01*
X67025828Y-61053695D01*
X67216304Y-61101314D01*
X67311542Y-61148933D01*
X67359161Y-61196552D01*
X67406780Y-61291790D01*
X67406780Y-61387028D01*
X67359161Y-61482266D01*
X67311542Y-61529885D01*
X67216304Y-61577504D01*
X67025828Y-61625123D01*
X66787733Y-61625123D01*
X66597257Y-61577504D01*
X66502019Y-61529885D01*
X66454400Y-61482266D01*
X66406780Y-61387028D01*
X67406780Y-60625123D02*
X66406780Y-60625123D01*
X67406780Y-60053695D02*
X66835352Y-60482266D01*
X66406780Y-60053695D02*
X66978209Y-60625123D01*
%TO.C,R4*%
X79843333Y-33027880D02*
X79510000Y-32551690D01*
X79271904Y-33027880D02*
X79271904Y-32027880D01*
X79652857Y-32027880D01*
X79748095Y-32075500D01*
X79795714Y-32123119D01*
X79843333Y-32218357D01*
X79843333Y-32361214D01*
X79795714Y-32456452D01*
X79748095Y-32504071D01*
X79652857Y-32551690D01*
X79271904Y-32551690D01*
X80700476Y-32361214D02*
X80700476Y-33027880D01*
X80462380Y-31980261D02*
X80224285Y-32694547D01*
X80843333Y-32694547D01*
X83542333Y-33027880D02*
X82970904Y-33027880D01*
X83256619Y-33027880D02*
X83256619Y-32027880D01*
X83161380Y-32170738D01*
X83066142Y-32265976D01*
X82970904Y-32313595D01*
X83923285Y-32123119D02*
X83970904Y-32075500D01*
X84066142Y-32027880D01*
X84304238Y-32027880D01*
X84399476Y-32075500D01*
X84447095Y-32123119D01*
X84494714Y-32218357D01*
X84494714Y-32313595D01*
X84447095Y-32456452D01*
X83875666Y-33027880D01*
X84494714Y-33027880D01*
X85113761Y-32027880D02*
X85209000Y-32027880D01*
X85304238Y-32075500D01*
X85351857Y-32123119D01*
X85399476Y-32218357D01*
X85447095Y-32408833D01*
X85447095Y-32646928D01*
X85399476Y-32837404D01*
X85351857Y-32932642D01*
X85304238Y-32980261D01*
X85209000Y-33027880D01*
X85113761Y-33027880D01*
X85018523Y-32980261D01*
X84970904Y-32932642D01*
X84923285Y-32837404D01*
X84875666Y-32646928D01*
X84875666Y-32408833D01*
X84923285Y-32218357D01*
X84970904Y-32123119D01*
X85018523Y-32075500D01*
X85113761Y-32027880D01*
X86447095Y-33027880D02*
X86113761Y-32551690D01*
X85875666Y-33027880D02*
X85875666Y-32027880D01*
X86256619Y-32027880D01*
X86351857Y-32075500D01*
X86399476Y-32123119D01*
X86447095Y-32218357D01*
X86447095Y-32361214D01*
X86399476Y-32456452D01*
X86351857Y-32504071D01*
X86256619Y-32551690D01*
X85875666Y-32551690D01*
%TO.C,R9*%
X70302380Y-28614666D02*
X69826190Y-28948000D01*
X70302380Y-29186095D02*
X69302380Y-29186095D01*
X69302380Y-28805142D01*
X69350000Y-28709904D01*
X69397619Y-28662285D01*
X69492857Y-28614666D01*
X69635714Y-28614666D01*
X69730952Y-28662285D01*
X69778571Y-28709904D01*
X69826190Y-28805142D01*
X69826190Y-29186095D01*
X70302380Y-28138476D02*
X70302380Y-27948000D01*
X70254761Y-27852761D01*
X70207142Y-27805142D01*
X70064285Y-27709904D01*
X69873809Y-27662285D01*
X69492857Y-27662285D01*
X69397619Y-27709904D01*
X69350000Y-27757523D01*
X69302380Y-27852761D01*
X69302380Y-28043238D01*
X69350000Y-28138476D01*
X69397619Y-28186095D01*
X69492857Y-28233714D01*
X69730952Y-28233714D01*
X69826190Y-28186095D01*
X69873809Y-28138476D01*
X69921428Y-28043238D01*
X69921428Y-27852761D01*
X69873809Y-27757523D01*
X69826190Y-27709904D01*
X69730952Y-27662285D01*
X69302380Y-26074595D02*
X69302380Y-26550785D01*
X69778571Y-26598404D01*
X69730952Y-26550785D01*
X69683333Y-26455547D01*
X69683333Y-26217452D01*
X69730952Y-26122214D01*
X69778571Y-26074595D01*
X69873809Y-26026976D01*
X70111904Y-26026976D01*
X70207142Y-26074595D01*
X70254761Y-26122214D01*
X70302380Y-26217452D01*
X70302380Y-26455547D01*
X70254761Y-26550785D01*
X70207142Y-26598404D01*
X70302380Y-25074595D02*
X70302380Y-25646023D01*
X70302380Y-25360309D02*
X69302380Y-25360309D01*
X69445238Y-25455547D01*
X69540476Y-25550785D01*
X69588095Y-25646023D01*
X70302380Y-24074595D02*
X69826190Y-24407928D01*
X70302380Y-24646023D02*
X69302380Y-24646023D01*
X69302380Y-24265071D01*
X69350000Y-24169833D01*
X69397619Y-24122214D01*
X69492857Y-24074595D01*
X69635714Y-24074595D01*
X69730952Y-24122214D01*
X69778571Y-24169833D01*
X69826190Y-24265071D01*
X69826190Y-24646023D01*
%TO.C,C2*%
X43435542Y-47918666D02*
X43483161Y-47966285D01*
X43530780Y-48109142D01*
X43530780Y-48204380D01*
X43483161Y-48347238D01*
X43387923Y-48442476D01*
X43292685Y-48490095D01*
X43102209Y-48537714D01*
X42959352Y-48537714D01*
X42768876Y-48490095D01*
X42673638Y-48442476D01*
X42578400Y-48347238D01*
X42530780Y-48204380D01*
X42530780Y-48109142D01*
X42578400Y-47966285D01*
X42626019Y-47918666D01*
X42626019Y-47537714D02*
X42578400Y-47490095D01*
X42530780Y-47394857D01*
X42530780Y-47156761D01*
X42578400Y-47061523D01*
X42626019Y-47013904D01*
X42721257Y-46966285D01*
X42816495Y-46966285D01*
X42959352Y-47013904D01*
X43530780Y-47585333D01*
X43530780Y-46966285D01*
X43737352Y-52522380D02*
X43165923Y-52522380D01*
X43451638Y-52522380D02*
X43451638Y-51522380D01*
X43356400Y-51665238D01*
X43261161Y-51760476D01*
X43165923Y-51808095D01*
X44356400Y-51522380D02*
X44451638Y-51522380D01*
X44546876Y-51570000D01*
X44594495Y-51617619D01*
X44642114Y-51712857D01*
X44689733Y-51903333D01*
X44689733Y-52141428D01*
X44642114Y-52331904D01*
X44594495Y-52427142D01*
X44546876Y-52474761D01*
X44451638Y-52522380D01*
X44356400Y-52522380D01*
X44261161Y-52474761D01*
X44213542Y-52427142D01*
X44165923Y-52331904D01*
X44118304Y-52141428D01*
X44118304Y-51903333D01*
X44165923Y-51712857D01*
X44213542Y-51617619D01*
X44261161Y-51570000D01*
X44356400Y-51522380D01*
X45308780Y-51522380D02*
X45404019Y-51522380D01*
X45499257Y-51570000D01*
X45546876Y-51617619D01*
X45594495Y-51712857D01*
X45642114Y-51903333D01*
X45642114Y-52141428D01*
X45594495Y-52331904D01*
X45546876Y-52427142D01*
X45499257Y-52474761D01*
X45404019Y-52522380D01*
X45308780Y-52522380D01*
X45213542Y-52474761D01*
X45165923Y-52427142D01*
X45118304Y-52331904D01*
X45070685Y-52141428D01*
X45070685Y-51903333D01*
X45118304Y-51712857D01*
X45165923Y-51617619D01*
X45213542Y-51570000D01*
X45308780Y-51522380D01*
X46070685Y-51855714D02*
X46070685Y-52522380D01*
X46070685Y-51950952D02*
X46118304Y-51903333D01*
X46213542Y-51855714D01*
X46356400Y-51855714D01*
X46451638Y-51903333D01*
X46499257Y-51998571D01*
X46499257Y-52522380D01*
%TO.C,U4*%
X76444095Y-70562380D02*
X76444095Y-71371904D01*
X76491714Y-71467142D01*
X76539333Y-71514761D01*
X76634571Y-71562380D01*
X76825047Y-71562380D01*
X76920285Y-71514761D01*
X76967904Y-71467142D01*
X77015523Y-71371904D01*
X77015523Y-70562380D01*
X77920285Y-70895714D02*
X77920285Y-71562380D01*
X77682190Y-70514761D02*
X77444095Y-71229047D01*
X78063142Y-71229047D01*
X71451523Y-71562380D02*
X70975333Y-71562380D01*
X70975333Y-70562380D01*
X71784857Y-71562380D02*
X71784857Y-70562380D01*
X72118190Y-71276666D01*
X72451523Y-70562380D01*
X72451523Y-71562380D01*
X72832476Y-70562380D02*
X73451523Y-70562380D01*
X73118190Y-70943333D01*
X73261047Y-70943333D01*
X73356285Y-70990952D01*
X73403904Y-71038571D01*
X73451523Y-71133809D01*
X73451523Y-71371904D01*
X73403904Y-71467142D01*
X73356285Y-71514761D01*
X73261047Y-71562380D01*
X72975333Y-71562380D01*
X72880095Y-71514761D01*
X72832476Y-71467142D01*
X74022952Y-70990952D02*
X73927714Y-70943333D01*
X73880095Y-70895714D01*
X73832476Y-70800476D01*
X73832476Y-70752857D01*
X73880095Y-70657619D01*
X73927714Y-70610000D01*
X74022952Y-70562380D01*
X74213428Y-70562380D01*
X74308666Y-70610000D01*
X74356285Y-70657619D01*
X74403904Y-70752857D01*
X74403904Y-70800476D01*
X74356285Y-70895714D01*
X74308666Y-70943333D01*
X74213428Y-70990952D01*
X74022952Y-70990952D01*
X73927714Y-71038571D01*
X73880095Y-71086190D01*
X73832476Y-71181428D01*
X73832476Y-71371904D01*
X73880095Y-71467142D01*
X73927714Y-71514761D01*
X74022952Y-71562380D01*
X74213428Y-71562380D01*
X74308666Y-71514761D01*
X74356285Y-71467142D01*
X74403904Y-71371904D01*
X74403904Y-71181428D01*
X74356285Y-71086190D01*
X74308666Y-71038571D01*
X74213428Y-70990952D01*
X75261047Y-70562380D02*
X75070571Y-70562380D01*
X74975333Y-70610000D01*
X74927714Y-70657619D01*
X74832476Y-70800476D01*
X74784857Y-70990952D01*
X74784857Y-71371904D01*
X74832476Y-71467142D01*
X74880095Y-71514761D01*
X74975333Y-71562380D01*
X75165809Y-71562380D01*
X75261047Y-71514761D01*
X75308666Y-71467142D01*
X75356285Y-71371904D01*
X75356285Y-71133809D01*
X75308666Y-71038571D01*
X75261047Y-70990952D01*
X75165809Y-70943333D01*
X74975333Y-70943333D01*
X74880095Y-70990952D01*
X74832476Y-71038571D01*
X74784857Y-71133809D01*
%TO.C,U3*%
X99782380Y-47722404D02*
X100591904Y-47722404D01*
X100687142Y-47674785D01*
X100734761Y-47627166D01*
X100782380Y-47531928D01*
X100782380Y-47341452D01*
X100734761Y-47246214D01*
X100687142Y-47198595D01*
X100591904Y-47150976D01*
X99782380Y-47150976D01*
X99782380Y-46770023D02*
X99782380Y-46150976D01*
X100163333Y-46484309D01*
X100163333Y-46341452D01*
X100210952Y-46246214D01*
X100258571Y-46198595D01*
X100353809Y-46150976D01*
X100591904Y-46150976D01*
X100687142Y-46198595D01*
X100734761Y-46246214D01*
X100782380Y-46341452D01*
X100782380Y-46627166D01*
X100734761Y-46722404D01*
X100687142Y-46770023D01*
X107736380Y-55731166D02*
X107736380Y-56207357D01*
X106736380Y-56207357D01*
X107736380Y-55397833D02*
X106736380Y-55397833D01*
X107450666Y-55064500D01*
X106736380Y-54731166D01*
X107736380Y-54731166D01*
X106736380Y-54350214D02*
X106736380Y-53683547D01*
X107736380Y-54112119D01*
X107164952Y-53159738D02*
X107117333Y-53254976D01*
X107069714Y-53302595D01*
X106974476Y-53350214D01*
X106926857Y-53350214D01*
X106831619Y-53302595D01*
X106784000Y-53254976D01*
X106736380Y-53159738D01*
X106736380Y-52969261D01*
X106784000Y-52874023D01*
X106831619Y-52826404D01*
X106926857Y-52778785D01*
X106974476Y-52778785D01*
X107069714Y-52826404D01*
X107117333Y-52874023D01*
X107164952Y-52969261D01*
X107164952Y-53159738D01*
X107212571Y-53254976D01*
X107260190Y-53302595D01*
X107355428Y-53350214D01*
X107545904Y-53350214D01*
X107641142Y-53302595D01*
X107688761Y-53254976D01*
X107736380Y-53159738D01*
X107736380Y-52969261D01*
X107688761Y-52874023D01*
X107641142Y-52826404D01*
X107545904Y-52778785D01*
X107355428Y-52778785D01*
X107260190Y-52826404D01*
X107212571Y-52874023D01*
X107164952Y-52969261D01*
X106736380Y-52159738D02*
X106736380Y-52064500D01*
X106784000Y-51969261D01*
X106831619Y-51921642D01*
X106926857Y-51874023D01*
X107117333Y-51826404D01*
X107355428Y-51826404D01*
X107545904Y-51874023D01*
X107641142Y-51921642D01*
X107688761Y-51969261D01*
X107736380Y-52064500D01*
X107736380Y-52159738D01*
X107688761Y-52254976D01*
X107641142Y-52302595D01*
X107545904Y-52350214D01*
X107355428Y-52397833D01*
X107117333Y-52397833D01*
X106926857Y-52350214D01*
X106831619Y-52302595D01*
X106784000Y-52254976D01*
X106736380Y-52159738D01*
X106736380Y-50969261D02*
X106736380Y-51159738D01*
X106784000Y-51254976D01*
X106831619Y-51302595D01*
X106974476Y-51397833D01*
X107164952Y-51445452D01*
X107545904Y-51445452D01*
X107641142Y-51397833D01*
X107688761Y-51350214D01*
X107736380Y-51254976D01*
X107736380Y-51064500D01*
X107688761Y-50969261D01*
X107641142Y-50921642D01*
X107545904Y-50874023D01*
X107307809Y-50874023D01*
X107212571Y-50921642D01*
X107164952Y-50969261D01*
X107117333Y-51064500D01*
X107117333Y-51254976D01*
X107164952Y-51350214D01*
X107212571Y-51397833D01*
X107307809Y-51445452D01*
%TO.C,J6*%
X62468166Y-51458880D02*
X62468166Y-52173166D01*
X62420547Y-52316023D01*
X62325309Y-52411261D01*
X62182452Y-52458880D01*
X62087214Y-52458880D01*
X63372928Y-51458880D02*
X63182452Y-51458880D01*
X63087214Y-51506500D01*
X63039595Y-51554119D01*
X62944357Y-51696976D01*
X62896738Y-51887452D01*
X62896738Y-52268404D01*
X62944357Y-52363642D01*
X62991976Y-52411261D01*
X63087214Y-52458880D01*
X63277690Y-52458880D01*
X63372928Y-52411261D01*
X63420547Y-52363642D01*
X63468166Y-52268404D01*
X63468166Y-52030309D01*
X63420547Y-51935071D01*
X63372928Y-51887452D01*
X63277690Y-51839833D01*
X63087214Y-51839833D01*
X62991976Y-51887452D01*
X62944357Y-51935071D01*
X62896738Y-52030309D01*
X62047595Y-53109880D02*
X62619023Y-53109880D01*
X62333309Y-54109880D02*
X62333309Y-53109880D01*
X62952357Y-54109880D02*
X62952357Y-53109880D01*
X63333309Y-53109880D01*
X63428547Y-53157500D01*
X63476166Y-53205119D01*
X63523785Y-53300357D01*
X63523785Y-53443214D01*
X63476166Y-53538452D01*
X63428547Y-53586071D01*
X63333309Y-53633690D01*
X62952357Y-53633690D01*
X64476166Y-54109880D02*
X63904738Y-54109880D01*
X64190452Y-54109880D02*
X64190452Y-53109880D01*
X64095214Y-53252738D01*
X63999976Y-53347976D01*
X63904738Y-53395595D01*
%TO.C,R8*%
X79461984Y-76896380D02*
X79128651Y-76420190D01*
X78890555Y-76896380D02*
X78890555Y-75896380D01*
X79271508Y-75896380D01*
X79366746Y-75944000D01*
X79414365Y-75991619D01*
X79461984Y-76086857D01*
X79461984Y-76229714D01*
X79414365Y-76324952D01*
X79366746Y-76372571D01*
X79271508Y-76420190D01*
X78890555Y-76420190D01*
X80033412Y-76324952D02*
X79938174Y-76277333D01*
X79890555Y-76229714D01*
X79842936Y-76134476D01*
X79842936Y-76086857D01*
X79890555Y-75991619D01*
X79938174Y-75944000D01*
X80033412Y-75896380D01*
X80223889Y-75896380D01*
X80319127Y-75944000D01*
X80366746Y-75991619D01*
X80414365Y-76086857D01*
X80414365Y-76134476D01*
X80366746Y-76229714D01*
X80319127Y-76277333D01*
X80223889Y-76324952D01*
X80033412Y-76324952D01*
X79938174Y-76372571D01*
X79890555Y-76420190D01*
X79842936Y-76515428D01*
X79842936Y-76705904D01*
X79890555Y-76801142D01*
X79938174Y-76848761D01*
X80033412Y-76896380D01*
X80223889Y-76896380D01*
X80319127Y-76848761D01*
X80366746Y-76801142D01*
X80414365Y-76705904D01*
X80414365Y-76515428D01*
X80366746Y-76420190D01*
X80319127Y-76372571D01*
X80223889Y-76324952D01*
X82049880Y-74848476D02*
X82049880Y-75419904D01*
X82049880Y-75134190D02*
X81049880Y-75134190D01*
X81192738Y-75229428D01*
X81287976Y-75324666D01*
X81335595Y-75419904D01*
X81049880Y-74229428D02*
X81049880Y-74134190D01*
X81097500Y-74038952D01*
X81145119Y-73991333D01*
X81240357Y-73943714D01*
X81430833Y-73896095D01*
X81668928Y-73896095D01*
X81859404Y-73943714D01*
X81954642Y-73991333D01*
X82002261Y-74038952D01*
X82049880Y-74134190D01*
X82049880Y-74229428D01*
X82002261Y-74324666D01*
X81954642Y-74372285D01*
X81859404Y-74419904D01*
X81668928Y-74467523D01*
X81430833Y-74467523D01*
X81240357Y-74419904D01*
X81145119Y-74372285D01*
X81097500Y-74324666D01*
X81049880Y-74229428D01*
X82049880Y-72896095D02*
X81573690Y-73229428D01*
X82049880Y-73467523D02*
X81049880Y-73467523D01*
X81049880Y-73086571D01*
X81097500Y-72991333D01*
X81145119Y-72943714D01*
X81240357Y-72896095D01*
X81383214Y-72896095D01*
X81478452Y-72943714D01*
X81526071Y-72991333D01*
X81573690Y-73086571D01*
X81573690Y-73467523D01*
%TO.C,C15*%
X89501742Y-78208142D02*
X89454123Y-78255761D01*
X89311266Y-78303380D01*
X89216028Y-78303380D01*
X89073171Y-78255761D01*
X88977933Y-78160523D01*
X88930314Y-78065285D01*
X88882695Y-77874809D01*
X88882695Y-77731952D01*
X88930314Y-77541476D01*
X88977933Y-77446238D01*
X89073171Y-77351000D01*
X89216028Y-77303380D01*
X89311266Y-77303380D01*
X89454123Y-77351000D01*
X89501742Y-77398619D01*
X90454123Y-78303380D02*
X89882695Y-78303380D01*
X90168409Y-78303380D02*
X90168409Y-77303380D01*
X90073171Y-77446238D01*
X89977933Y-77541476D01*
X89882695Y-77589095D01*
X91358885Y-77303380D02*
X90882695Y-77303380D01*
X90835076Y-77779571D01*
X90882695Y-77731952D01*
X90977933Y-77684333D01*
X91216028Y-77684333D01*
X91311266Y-77731952D01*
X91358885Y-77779571D01*
X91406504Y-77874809D01*
X91406504Y-78112904D01*
X91358885Y-78208142D01*
X91311266Y-78255761D01*
X91216028Y-78303380D01*
X90977933Y-78303380D01*
X90882695Y-78255761D01*
X90835076Y-78208142D01*
X86256952Y-79446380D02*
X85685523Y-79446380D01*
X85971238Y-79446380D02*
X85971238Y-78446380D01*
X85876000Y-78589238D01*
X85780761Y-78684476D01*
X85685523Y-78732095D01*
X86876000Y-78446380D02*
X86971238Y-78446380D01*
X87066476Y-78494000D01*
X87114095Y-78541619D01*
X87161714Y-78636857D01*
X87209333Y-78827333D01*
X87209333Y-79065428D01*
X87161714Y-79255904D01*
X87114095Y-79351142D01*
X87066476Y-79398761D01*
X86971238Y-79446380D01*
X86876000Y-79446380D01*
X86780761Y-79398761D01*
X86733142Y-79351142D01*
X86685523Y-79255904D01*
X86637904Y-79065428D01*
X86637904Y-78827333D01*
X86685523Y-78636857D01*
X86733142Y-78541619D01*
X86780761Y-78494000D01*
X86876000Y-78446380D01*
X87828380Y-78446380D02*
X87923619Y-78446380D01*
X88018857Y-78494000D01*
X88066476Y-78541619D01*
X88114095Y-78636857D01*
X88161714Y-78827333D01*
X88161714Y-79065428D01*
X88114095Y-79255904D01*
X88066476Y-79351142D01*
X88018857Y-79398761D01*
X87923619Y-79446380D01*
X87828380Y-79446380D01*
X87733142Y-79398761D01*
X87685523Y-79351142D01*
X87637904Y-79255904D01*
X87590285Y-79065428D01*
X87590285Y-78827333D01*
X87637904Y-78636857D01*
X87685523Y-78541619D01*
X87733142Y-78494000D01*
X87828380Y-78446380D01*
X89018857Y-78779714D02*
X89018857Y-79446380D01*
X88590285Y-78779714D02*
X88590285Y-79303523D01*
X88637904Y-79398761D01*
X88733142Y-79446380D01*
X88876000Y-79446380D01*
X88971238Y-79398761D01*
X89018857Y-79351142D01*
%TO.C,J7*%
X41767166Y-58634380D02*
X41767166Y-59348666D01*
X41719547Y-59491523D01*
X41624309Y-59586761D01*
X41481452Y-59634380D01*
X41386214Y-59634380D01*
X42148119Y-58634380D02*
X42814785Y-58634380D01*
X42386214Y-59634380D01*
X40775095Y-66513380D02*
X41346523Y-66513380D01*
X41060809Y-67513380D02*
X41060809Y-66513380D01*
X41679857Y-67513380D02*
X41679857Y-66513380D01*
X42060809Y-66513380D01*
X42156047Y-66561000D01*
X42203666Y-66608619D01*
X42251285Y-66703857D01*
X42251285Y-66846714D01*
X42203666Y-66941952D01*
X42156047Y-66989571D01*
X42060809Y-67037190D01*
X41679857Y-67037190D01*
X42632238Y-66608619D02*
X42679857Y-66561000D01*
X42775095Y-66513380D01*
X43013190Y-66513380D01*
X43108428Y-66561000D01*
X43156047Y-66608619D01*
X43203666Y-66703857D01*
X43203666Y-66799095D01*
X43156047Y-66941952D01*
X42584619Y-67513380D01*
X43203666Y-67513380D01*
%TO.C,C6*%
X61809333Y-47283642D02*
X61761714Y-47331261D01*
X61618857Y-47378880D01*
X61523619Y-47378880D01*
X61380761Y-47331261D01*
X61285523Y-47236023D01*
X61237904Y-47140785D01*
X61190285Y-46950309D01*
X61190285Y-46807452D01*
X61237904Y-46616976D01*
X61285523Y-46521738D01*
X61380761Y-46426500D01*
X61523619Y-46378880D01*
X61618857Y-46378880D01*
X61761714Y-46426500D01*
X61809333Y-46474119D01*
X62666476Y-46378880D02*
X62476000Y-46378880D01*
X62380761Y-46426500D01*
X62333142Y-46474119D01*
X62237904Y-46616976D01*
X62190285Y-46807452D01*
X62190285Y-47188404D01*
X62237904Y-47283642D01*
X62285523Y-47331261D01*
X62380761Y-47378880D01*
X62571238Y-47378880D01*
X62666476Y-47331261D01*
X62714095Y-47283642D01*
X62761714Y-47188404D01*
X62761714Y-46950309D01*
X62714095Y-46855071D01*
X62666476Y-46807452D01*
X62571238Y-46759833D01*
X62380761Y-46759833D01*
X62285523Y-46807452D01*
X62237904Y-46855071D01*
X62190285Y-46950309D01*
X61745952Y-48839380D02*
X61174523Y-48839380D01*
X61460238Y-48839380D02*
X61460238Y-47839380D01*
X61365000Y-47982238D01*
X61269761Y-48077476D01*
X61174523Y-48125095D01*
X62365000Y-47839380D02*
X62460238Y-47839380D01*
X62555476Y-47887000D01*
X62603095Y-47934619D01*
X62650714Y-48029857D01*
X62698333Y-48220333D01*
X62698333Y-48458428D01*
X62650714Y-48648904D01*
X62603095Y-48744142D01*
X62555476Y-48791761D01*
X62460238Y-48839380D01*
X62365000Y-48839380D01*
X62269761Y-48791761D01*
X62222142Y-48744142D01*
X62174523Y-48648904D01*
X62126904Y-48458428D01*
X62126904Y-48220333D01*
X62174523Y-48029857D01*
X62222142Y-47934619D01*
X62269761Y-47887000D01*
X62365000Y-47839380D01*
X63317380Y-47839380D02*
X63412619Y-47839380D01*
X63507857Y-47887000D01*
X63555476Y-47934619D01*
X63603095Y-48029857D01*
X63650714Y-48220333D01*
X63650714Y-48458428D01*
X63603095Y-48648904D01*
X63555476Y-48744142D01*
X63507857Y-48791761D01*
X63412619Y-48839380D01*
X63317380Y-48839380D01*
X63222142Y-48791761D01*
X63174523Y-48744142D01*
X63126904Y-48648904D01*
X63079285Y-48458428D01*
X63079285Y-48220333D01*
X63126904Y-48029857D01*
X63174523Y-47934619D01*
X63222142Y-47887000D01*
X63317380Y-47839380D01*
X64079285Y-48172714D02*
X64079285Y-48839380D01*
X64079285Y-48267952D02*
X64126904Y-48220333D01*
X64222142Y-48172714D01*
X64365000Y-48172714D01*
X64460238Y-48220333D01*
X64507857Y-48315571D01*
X64507857Y-48839380D01*
%TO.C,C4*%
X64221984Y-69943142D02*
X64174365Y-69990761D01*
X64031508Y-70038380D01*
X63936270Y-70038380D01*
X63793412Y-69990761D01*
X63698174Y-69895523D01*
X63650555Y-69800285D01*
X63602936Y-69609809D01*
X63602936Y-69466952D01*
X63650555Y-69276476D01*
X63698174Y-69181238D01*
X63793412Y-69086000D01*
X63936270Y-69038380D01*
X64031508Y-69038380D01*
X64174365Y-69086000D01*
X64221984Y-69133619D01*
X65079127Y-69371714D02*
X65079127Y-70038380D01*
X64841031Y-68990761D02*
X64602936Y-69705047D01*
X65221984Y-69705047D01*
X64221984Y-68514380D02*
X63650555Y-68514380D01*
X63936270Y-68514380D02*
X63936270Y-67514380D01*
X63841031Y-67657238D01*
X63745793Y-67752476D01*
X63650555Y-67800095D01*
X64650555Y-67847714D02*
X64650555Y-68514380D01*
X64650555Y-67942952D02*
X64698174Y-67895333D01*
X64793412Y-67847714D01*
X64936270Y-67847714D01*
X65031508Y-67895333D01*
X65079127Y-67990571D01*
X65079127Y-68514380D01*
%TO.C,C5*%
X51982642Y-41822666D02*
X52030261Y-41870285D01*
X52077880Y-42013142D01*
X52077880Y-42108380D01*
X52030261Y-42251238D01*
X51935023Y-42346476D01*
X51839785Y-42394095D01*
X51649309Y-42441714D01*
X51506452Y-42441714D01*
X51315976Y-42394095D01*
X51220738Y-42346476D01*
X51125500Y-42251238D01*
X51077880Y-42108380D01*
X51077880Y-42013142D01*
X51125500Y-41870285D01*
X51173119Y-41822666D01*
X51077880Y-40917904D02*
X51077880Y-41394095D01*
X51554071Y-41441714D01*
X51506452Y-41394095D01*
X51458833Y-41298857D01*
X51458833Y-41060761D01*
X51506452Y-40965523D01*
X51554071Y-40917904D01*
X51649309Y-40870285D01*
X51887404Y-40870285D01*
X51982642Y-40917904D01*
X52030261Y-40965523D01*
X52077880Y-41060761D01*
X52077880Y-41298857D01*
X52030261Y-41394095D01*
X51982642Y-41441714D01*
X53973552Y-40127180D02*
X53402123Y-40127180D01*
X53687838Y-40127180D02*
X53687838Y-39127180D01*
X53592600Y-39270038D01*
X53497361Y-39365276D01*
X53402123Y-39412895D01*
X54592600Y-39127180D02*
X54687838Y-39127180D01*
X54783076Y-39174800D01*
X54830695Y-39222419D01*
X54878314Y-39317657D01*
X54925933Y-39508133D01*
X54925933Y-39746228D01*
X54878314Y-39936704D01*
X54830695Y-40031942D01*
X54783076Y-40079561D01*
X54687838Y-40127180D01*
X54592600Y-40127180D01*
X54497361Y-40079561D01*
X54449742Y-40031942D01*
X54402123Y-39936704D01*
X54354504Y-39746228D01*
X54354504Y-39508133D01*
X54402123Y-39317657D01*
X54449742Y-39222419D01*
X54497361Y-39174800D01*
X54592600Y-39127180D01*
X55544980Y-39127180D02*
X55640219Y-39127180D01*
X55735457Y-39174800D01*
X55783076Y-39222419D01*
X55830695Y-39317657D01*
X55878314Y-39508133D01*
X55878314Y-39746228D01*
X55830695Y-39936704D01*
X55783076Y-40031942D01*
X55735457Y-40079561D01*
X55640219Y-40127180D01*
X55544980Y-40127180D01*
X55449742Y-40079561D01*
X55402123Y-40031942D01*
X55354504Y-39936704D01*
X55306885Y-39746228D01*
X55306885Y-39508133D01*
X55354504Y-39317657D01*
X55402123Y-39222419D01*
X55449742Y-39174800D01*
X55544980Y-39127180D01*
X56306885Y-39460514D02*
X56306885Y-40127180D01*
X56306885Y-39555752D02*
X56354504Y-39508133D01*
X56449742Y-39460514D01*
X56592600Y-39460514D01*
X56687838Y-39508133D01*
X56735457Y-39603371D01*
X56735457Y-40127180D01*
%TO.C,RV1*%
X58557380Y-78242738D02*
X58081190Y-78576071D01*
X58557380Y-78814166D02*
X57557380Y-78814166D01*
X57557380Y-78433214D01*
X57605000Y-78337976D01*
X57652619Y-78290357D01*
X57747857Y-78242738D01*
X57890714Y-78242738D01*
X57985952Y-78290357D01*
X58033571Y-78337976D01*
X58081190Y-78433214D01*
X58081190Y-78814166D01*
X57557380Y-77957023D02*
X58557380Y-77623690D01*
X57557380Y-77290357D01*
X58557380Y-76433214D02*
X58557380Y-77004642D01*
X58557380Y-76718928D02*
X57557380Y-76718928D01*
X57700238Y-76814166D01*
X57795476Y-76909404D01*
X57843095Y-77004642D01*
X41457380Y-80123690D02*
X41457380Y-80695119D01*
X41457380Y-80409404D02*
X40457380Y-80409404D01*
X40600238Y-80504642D01*
X40695476Y-80599880D01*
X40743095Y-80695119D01*
X40457380Y-79504642D02*
X40457380Y-79409404D01*
X40505000Y-79314166D01*
X40552619Y-79266547D01*
X40647857Y-79218928D01*
X40838333Y-79171309D01*
X41076428Y-79171309D01*
X41266904Y-79218928D01*
X41362142Y-79266547D01*
X41409761Y-79314166D01*
X41457380Y-79409404D01*
X41457380Y-79504642D01*
X41409761Y-79599880D01*
X41362142Y-79647500D01*
X41266904Y-79695119D01*
X41076428Y-79742738D01*
X40838333Y-79742738D01*
X40647857Y-79695119D01*
X40552619Y-79647500D01*
X40505000Y-79599880D01*
X40457380Y-79504642D01*
X41457380Y-78742738D02*
X40457380Y-78742738D01*
X41457380Y-78171309D02*
X40885952Y-78599880D01*
X40457380Y-78171309D02*
X41028809Y-78742738D01*
X41457380Y-76980833D02*
X40457380Y-76980833D01*
X40457380Y-76599880D01*
X40505000Y-76504642D01*
X40552619Y-76457023D01*
X40647857Y-76409404D01*
X40790714Y-76409404D01*
X40885952Y-76457023D01*
X40933571Y-76504642D01*
X40981190Y-76599880D01*
X40981190Y-76980833D01*
X40457380Y-75790357D02*
X40457380Y-75599880D01*
X40505000Y-75504642D01*
X40600238Y-75409404D01*
X40790714Y-75361785D01*
X41124047Y-75361785D01*
X41314523Y-75409404D01*
X41409761Y-75504642D01*
X41457380Y-75599880D01*
X41457380Y-75790357D01*
X41409761Y-75885595D01*
X41314523Y-75980833D01*
X41124047Y-76028452D01*
X40790714Y-76028452D01*
X40600238Y-75980833D01*
X40505000Y-75885595D01*
X40457380Y-75790357D01*
X40457380Y-75076071D02*
X40457380Y-74504642D01*
X41457380Y-74790357D02*
X40457380Y-74790357D01*
%TO.C,J1*%
X58303150Y-29164460D02*
X59018780Y-29164460D01*
X59161906Y-29212169D01*
X59257323Y-29307586D01*
X59305032Y-29450712D01*
X59305032Y-29546130D01*
X59305032Y-28162578D02*
X59305032Y-28735082D01*
X59305032Y-28448830D02*
X58303150Y-28448830D01*
X58446276Y-28544248D01*
X58541693Y-28639665D01*
X58589402Y-28735082D01*
X59018621Y-26672418D02*
X59018621Y-26195786D01*
X59304601Y-26767745D02*
X58303672Y-26434102D01*
X59304601Y-26100459D01*
X59304601Y-25766816D02*
X58303672Y-25766816D01*
X59304601Y-25194857D01*
X58303672Y-25194857D01*
X58303672Y-24861214D02*
X58303672Y-24289254D01*
X59304601Y-24575234D02*
X58303672Y-24575234D01*
%TO.C,J5*%
X95399266Y-68032380D02*
X95399266Y-68746666D01*
X95351647Y-68889523D01*
X95256409Y-68984761D01*
X95113552Y-69032380D01*
X95018314Y-69032380D01*
X96351647Y-68032380D02*
X95875457Y-68032380D01*
X95827838Y-68508571D01*
X95875457Y-68460952D01*
X95970695Y-68413333D01*
X96208790Y-68413333D01*
X96304028Y-68460952D01*
X96351647Y-68508571D01*
X96399266Y-68603809D01*
X96399266Y-68841904D01*
X96351647Y-68937142D01*
X96304028Y-68984761D01*
X96208790Y-69032380D01*
X95970695Y-69032380D01*
X95875457Y-68984761D01*
X95827838Y-68937142D01*
X101036666Y-68746666D02*
X101512857Y-68746666D01*
X100941428Y-69032380D02*
X101274761Y-68032380D01*
X101608095Y-69032380D01*
X102370000Y-68365714D02*
X102370000Y-69032380D01*
X101941428Y-68365714D02*
X101941428Y-68889523D01*
X101989047Y-68984761D01*
X102084285Y-69032380D01*
X102227142Y-69032380D01*
X102322380Y-68984761D01*
X102370000Y-68937142D01*
X103274761Y-69032380D02*
X103274761Y-68032380D01*
X103274761Y-68984761D02*
X103179523Y-69032380D01*
X102989047Y-69032380D01*
X102893809Y-68984761D01*
X102846190Y-68937142D01*
X102798571Y-68841904D01*
X102798571Y-68556190D01*
X102846190Y-68460952D01*
X102893809Y-68413333D01*
X102989047Y-68365714D01*
X103179523Y-68365714D01*
X103274761Y-68413333D01*
X103750952Y-69032380D02*
X103750952Y-68365714D01*
X103750952Y-68032380D02*
X103703333Y-68080000D01*
X103750952Y-68127619D01*
X103798571Y-68080000D01*
X103750952Y-68032380D01*
X103750952Y-68127619D01*
X104370000Y-69032380D02*
X104274761Y-68984761D01*
X104227142Y-68937142D01*
X104179523Y-68841904D01*
X104179523Y-68556190D01*
X104227142Y-68460952D01*
X104274761Y-68413333D01*
X104370000Y-68365714D01*
X104512857Y-68365714D01*
X104608095Y-68413333D01*
X104655714Y-68460952D01*
X104703333Y-68556190D01*
X104703333Y-68841904D01*
X104655714Y-68937142D01*
X104608095Y-68984761D01*
X104512857Y-69032380D01*
X104370000Y-69032380D01*
%TO.C,R3*%
X74763333Y-34869380D02*
X74430000Y-34393190D01*
X74191904Y-34869380D02*
X74191904Y-33869380D01*
X74572857Y-33869380D01*
X74668095Y-33917000D01*
X74715714Y-33964619D01*
X74763333Y-34059857D01*
X74763333Y-34202714D01*
X74715714Y-34297952D01*
X74668095Y-34345571D01*
X74572857Y-34393190D01*
X74191904Y-34393190D01*
X75096666Y-33869380D02*
X75715714Y-33869380D01*
X75382380Y-34250333D01*
X75525238Y-34250333D01*
X75620476Y-34297952D01*
X75668095Y-34345571D01*
X75715714Y-34440809D01*
X75715714Y-34678904D01*
X75668095Y-34774142D01*
X75620476Y-34821761D01*
X75525238Y-34869380D01*
X75239523Y-34869380D01*
X75144285Y-34821761D01*
X75096666Y-34774142D01*
X76414476Y-33805880D02*
X77081142Y-33805880D01*
X76652571Y-34805880D01*
X77938285Y-33805880D02*
X77462095Y-33805880D01*
X77414476Y-34282071D01*
X77462095Y-34234452D01*
X77557333Y-34186833D01*
X77795428Y-34186833D01*
X77890666Y-34234452D01*
X77938285Y-34282071D01*
X77985904Y-34377309D01*
X77985904Y-34615404D01*
X77938285Y-34710642D01*
X77890666Y-34758261D01*
X77795428Y-34805880D01*
X77557333Y-34805880D01*
X77462095Y-34758261D01*
X77414476Y-34710642D01*
X78985904Y-34805880D02*
X78652571Y-34329690D01*
X78414476Y-34805880D02*
X78414476Y-33805880D01*
X78795428Y-33805880D01*
X78890666Y-33853500D01*
X78938285Y-33901119D01*
X78985904Y-33996357D01*
X78985904Y-34139214D01*
X78938285Y-34234452D01*
X78890666Y-34282071D01*
X78795428Y-34329690D01*
X78414476Y-34329690D01*
%TO.C,C10*%
X98417142Y-57507142D02*
X98369523Y-57554761D01*
X98226666Y-57602380D01*
X98131428Y-57602380D01*
X97988571Y-57554761D01*
X97893333Y-57459523D01*
X97845714Y-57364285D01*
X97798095Y-57173809D01*
X97798095Y-57030952D01*
X97845714Y-56840476D01*
X97893333Y-56745238D01*
X97988571Y-56650000D01*
X98131428Y-56602380D01*
X98226666Y-56602380D01*
X98369523Y-56650000D01*
X98417142Y-56697619D01*
X99369523Y-57602380D02*
X98798095Y-57602380D01*
X99083809Y-57602380D02*
X99083809Y-56602380D01*
X98988571Y-56745238D01*
X98893333Y-56840476D01*
X98798095Y-56888095D01*
X99988571Y-56602380D02*
X100083809Y-56602380D01*
X100179047Y-56650000D01*
X100226666Y-56697619D01*
X100274285Y-56792857D01*
X100321904Y-56983333D01*
X100321904Y-57221428D01*
X100274285Y-57411904D01*
X100226666Y-57507142D01*
X100179047Y-57554761D01*
X100083809Y-57602380D01*
X99988571Y-57602380D01*
X99893333Y-57554761D01*
X99845714Y-57507142D01*
X99798095Y-57411904D01*
X99750476Y-57221428D01*
X99750476Y-56983333D01*
X99798095Y-56792857D01*
X99845714Y-56697619D01*
X99893333Y-56650000D01*
X99988571Y-56602380D01*
X97734380Y-53951047D02*
X97734380Y-54522476D01*
X97734380Y-54236761D02*
X96734380Y-54236761D01*
X96877238Y-54332000D01*
X96972476Y-54427238D01*
X97020095Y-54522476D01*
X96734380Y-53332000D02*
X96734380Y-53236761D01*
X96782000Y-53141523D01*
X96829619Y-53093904D01*
X96924857Y-53046285D01*
X97115333Y-52998666D01*
X97353428Y-52998666D01*
X97543904Y-53046285D01*
X97639142Y-53093904D01*
X97686761Y-53141523D01*
X97734380Y-53236761D01*
X97734380Y-53332000D01*
X97686761Y-53427238D01*
X97639142Y-53474857D01*
X97543904Y-53522476D01*
X97353428Y-53570095D01*
X97115333Y-53570095D01*
X96924857Y-53522476D01*
X96829619Y-53474857D01*
X96782000Y-53427238D01*
X96734380Y-53332000D01*
X96734380Y-52379619D02*
X96734380Y-52284380D01*
X96782000Y-52189142D01*
X96829619Y-52141523D01*
X96924857Y-52093904D01*
X97115333Y-52046285D01*
X97353428Y-52046285D01*
X97543904Y-52093904D01*
X97639142Y-52141523D01*
X97686761Y-52189142D01*
X97734380Y-52284380D01*
X97734380Y-52379619D01*
X97686761Y-52474857D01*
X97639142Y-52522476D01*
X97543904Y-52570095D01*
X97353428Y-52617714D01*
X97115333Y-52617714D01*
X96924857Y-52570095D01*
X96829619Y-52522476D01*
X96782000Y-52474857D01*
X96734380Y-52379619D01*
X97067714Y-51617714D02*
X97734380Y-51617714D01*
X97162952Y-51617714D02*
X97115333Y-51570095D01*
X97067714Y-51474857D01*
X97067714Y-51332000D01*
X97115333Y-51236761D01*
X97210571Y-51189142D01*
X97734380Y-51189142D01*
%TO.C,R1*%
X64269880Y-64428666D02*
X63793690Y-64762000D01*
X64269880Y-65000095D02*
X63269880Y-65000095D01*
X63269880Y-64619142D01*
X63317500Y-64523904D01*
X63365119Y-64476285D01*
X63460357Y-64428666D01*
X63603214Y-64428666D01*
X63698452Y-64476285D01*
X63746071Y-64523904D01*
X63793690Y-64619142D01*
X63793690Y-65000095D01*
X64269880Y-63476285D02*
X64269880Y-64047714D01*
X64269880Y-63762000D02*
X63269880Y-63762000D01*
X63412738Y-63857238D01*
X63507976Y-63952476D01*
X63555595Y-64047714D01*
X65190714Y-64285714D02*
X65857380Y-64285714D01*
X64809761Y-64523809D02*
X65524047Y-64761904D01*
X65524047Y-64142857D01*
X64857380Y-63857142D02*
X64857380Y-63190476D01*
X65857380Y-63619047D01*
X65857380Y-62809523D02*
X64857380Y-62809523D01*
X65857380Y-62238095D02*
X65285952Y-62666666D01*
X64857380Y-62238095D02*
X65428809Y-62809523D01*
%TO.C,C3*%
X53935333Y-61444142D02*
X53887714Y-61491761D01*
X53744857Y-61539380D01*
X53649619Y-61539380D01*
X53506761Y-61491761D01*
X53411523Y-61396523D01*
X53363904Y-61301285D01*
X53316285Y-61110809D01*
X53316285Y-60967952D01*
X53363904Y-60777476D01*
X53411523Y-60682238D01*
X53506761Y-60587000D01*
X53649619Y-60539380D01*
X53744857Y-60539380D01*
X53887714Y-60587000D01*
X53935333Y-60634619D01*
X54268666Y-60539380D02*
X54887714Y-60539380D01*
X54554380Y-60920333D01*
X54697238Y-60920333D01*
X54792476Y-60967952D01*
X54840095Y-61015571D01*
X54887714Y-61110809D01*
X54887714Y-61348904D01*
X54840095Y-61444142D01*
X54792476Y-61491761D01*
X54697238Y-61539380D01*
X54411523Y-61539380D01*
X54316285Y-61491761D01*
X54268666Y-61444142D01*
X53871904Y-62841214D02*
X53871904Y-63507880D01*
X53633809Y-62460261D02*
X53395714Y-63174547D01*
X54014761Y-63174547D01*
X54300476Y-62507880D02*
X54967142Y-62507880D01*
X54538571Y-63507880D01*
X55776666Y-62841214D02*
X55776666Y-63507880D01*
X55348095Y-62841214D02*
X55348095Y-63365023D01*
X55395714Y-63460261D01*
X55490952Y-63507880D01*
X55633809Y-63507880D01*
X55729047Y-63460261D01*
X55776666Y-63412642D01*
%TO.C,U2*%
X57937495Y-43673780D02*
X57937495Y-44483304D01*
X57985114Y-44578542D01*
X58032733Y-44626161D01*
X58127971Y-44673780D01*
X58318447Y-44673780D01*
X58413685Y-44626161D01*
X58461304Y-44578542D01*
X58508923Y-44483304D01*
X58508923Y-43673780D01*
X58937495Y-43769019D02*
X58985114Y-43721400D01*
X59080352Y-43673780D01*
X59318447Y-43673780D01*
X59413685Y-43721400D01*
X59461304Y-43769019D01*
X59508923Y-43864257D01*
X59508923Y-43959495D01*
X59461304Y-44102352D01*
X58889876Y-44673780D01*
X59508923Y-44673780D01*
X53127542Y-55522761D02*
X53270400Y-55570380D01*
X53508495Y-55570380D01*
X53603733Y-55522761D01*
X53651352Y-55475142D01*
X53698971Y-55379904D01*
X53698971Y-55284666D01*
X53651352Y-55189428D01*
X53603733Y-55141809D01*
X53508495Y-55094190D01*
X53318019Y-55046571D01*
X53222780Y-54998952D01*
X53175161Y-54951333D01*
X53127542Y-54856095D01*
X53127542Y-54760857D01*
X53175161Y-54665619D01*
X53222780Y-54618000D01*
X53318019Y-54570380D01*
X53556114Y-54570380D01*
X53698971Y-54618000D01*
X54079923Y-55284666D02*
X54556114Y-55284666D01*
X53984685Y-55570380D02*
X54318019Y-54570380D01*
X54651352Y-55570380D01*
X55413257Y-54570380D02*
X55222780Y-54570380D01*
X55127542Y-54618000D01*
X55079923Y-54665619D01*
X54984685Y-54808476D01*
X54937066Y-54998952D01*
X54937066Y-55379904D01*
X54984685Y-55475142D01*
X55032304Y-55522761D01*
X55127542Y-55570380D01*
X55318019Y-55570380D01*
X55413257Y-55522761D01*
X55460876Y-55475142D01*
X55508495Y-55379904D01*
X55508495Y-55141809D01*
X55460876Y-55046571D01*
X55413257Y-54998952D01*
X55318019Y-54951333D01*
X55127542Y-54951333D01*
X55032304Y-54998952D01*
X54984685Y-55046571D01*
X54937066Y-55141809D01*
X56460876Y-55570380D02*
X55889447Y-55570380D01*
X56175161Y-55570380D02*
X56175161Y-54570380D01*
X56079923Y-54713238D01*
X55984685Y-54808476D01*
X55889447Y-54856095D01*
X56841828Y-54665619D02*
X56889447Y-54618000D01*
X56984685Y-54570380D01*
X57222780Y-54570380D01*
X57318019Y-54618000D01*
X57365638Y-54665619D01*
X57413257Y-54760857D01*
X57413257Y-54856095D01*
X57365638Y-54998952D01*
X56794209Y-55570380D01*
X57413257Y-55570380D01*
%TO.C,J3*%
X80248166Y-27582880D02*
X80248166Y-28297166D01*
X80200547Y-28440023D01*
X80105309Y-28535261D01*
X79962452Y-28582880D01*
X79867214Y-28582880D01*
X80629119Y-27582880D02*
X81248166Y-27582880D01*
X80914833Y-27963833D01*
X81057690Y-27963833D01*
X81152928Y-28011452D01*
X81200547Y-28059071D01*
X81248166Y-28154309D01*
X81248166Y-28392404D01*
X81200547Y-28487642D01*
X81152928Y-28535261D01*
X81057690Y-28582880D01*
X80771976Y-28582880D01*
X80676738Y-28535261D01*
X80629119Y-28487642D01*
X84050214Y-28582880D02*
X83574023Y-28582880D01*
X83574023Y-27582880D01*
X84574023Y-27582880D02*
X84764500Y-27582880D01*
X84859738Y-27630500D01*
X84954976Y-27725738D01*
X85002595Y-27916214D01*
X85002595Y-28249547D01*
X84954976Y-28440023D01*
X84859738Y-28535261D01*
X84764500Y-28582880D01*
X84574023Y-28582880D01*
X84478785Y-28535261D01*
X84383547Y-28440023D01*
X84335928Y-28249547D01*
X84335928Y-27916214D01*
X84383547Y-27725738D01*
X84478785Y-27630500D01*
X84574023Y-27582880D01*
%TO.C,C14*%
X71160793Y-75277142D02*
X71113174Y-75324761D01*
X70970317Y-75372380D01*
X70875079Y-75372380D01*
X70732222Y-75324761D01*
X70636984Y-75229523D01*
X70589365Y-75134285D01*
X70541746Y-74943809D01*
X70541746Y-74800952D01*
X70589365Y-74610476D01*
X70636984Y-74515238D01*
X70732222Y-74420000D01*
X70875079Y-74372380D01*
X70970317Y-74372380D01*
X71113174Y-74420000D01*
X71160793Y-74467619D01*
X72113174Y-75372380D02*
X71541746Y-75372380D01*
X71827460Y-75372380D02*
X71827460Y-74372380D01*
X71732222Y-74515238D01*
X71636984Y-74610476D01*
X71541746Y-74658095D01*
X72970317Y-74705714D02*
X72970317Y-75372380D01*
X72732222Y-74324761D02*
X72494127Y-75039047D01*
X73113174Y-75039047D01*
X69990952Y-73594380D02*
X69419523Y-73594380D01*
X69705238Y-73594380D02*
X69705238Y-72594380D01*
X69610000Y-72737238D01*
X69514761Y-72832476D01*
X69419523Y-72880095D01*
X70610000Y-72594380D02*
X70705238Y-72594380D01*
X70800476Y-72642000D01*
X70848095Y-72689619D01*
X70895714Y-72784857D01*
X70943333Y-72975333D01*
X70943333Y-73213428D01*
X70895714Y-73403904D01*
X70848095Y-73499142D01*
X70800476Y-73546761D01*
X70705238Y-73594380D01*
X70610000Y-73594380D01*
X70514761Y-73546761D01*
X70467142Y-73499142D01*
X70419523Y-73403904D01*
X70371904Y-73213428D01*
X70371904Y-72975333D01*
X70419523Y-72784857D01*
X70467142Y-72689619D01*
X70514761Y-72642000D01*
X70610000Y-72594380D01*
X71562380Y-72594380D02*
X71657619Y-72594380D01*
X71752857Y-72642000D01*
X71800476Y-72689619D01*
X71848095Y-72784857D01*
X71895714Y-72975333D01*
X71895714Y-73213428D01*
X71848095Y-73403904D01*
X71800476Y-73499142D01*
X71752857Y-73546761D01*
X71657619Y-73594380D01*
X71562380Y-73594380D01*
X71467142Y-73546761D01*
X71419523Y-73499142D01*
X71371904Y-73403904D01*
X71324285Y-73213428D01*
X71324285Y-72975333D01*
X71371904Y-72784857D01*
X71419523Y-72689619D01*
X71467142Y-72642000D01*
X71562380Y-72594380D01*
X72324285Y-72927714D02*
X72324285Y-73594380D01*
X72324285Y-73022952D02*
X72371904Y-72975333D01*
X72467142Y-72927714D01*
X72610000Y-72927714D01*
X72705238Y-72975333D01*
X72752857Y-73070571D01*
X72752857Y-73594380D01*
%TO.C,D1*%
X115873304Y-34793180D02*
X115873304Y-33793180D01*
X116111400Y-33793180D01*
X116254257Y-33840800D01*
X116349495Y-33936038D01*
X116397114Y-34031276D01*
X116444733Y-34221752D01*
X116444733Y-34364609D01*
X116397114Y-34555085D01*
X116349495Y-34650323D01*
X116254257Y-34745561D01*
X116111400Y-34793180D01*
X115873304Y-34793180D01*
X117397114Y-34793180D02*
X116825685Y-34793180D01*
X117111400Y-34793180D02*
X117111400Y-33793180D01*
X117016161Y-33936038D01*
X116920923Y-34031276D01*
X116825685Y-34078895D01*
X115816142Y-41625780D02*
X115339952Y-41625780D01*
X115339952Y-40625780D01*
X116149476Y-41101971D02*
X116482809Y-41101971D01*
X116625666Y-41625780D02*
X116149476Y-41625780D01*
X116149476Y-40625780D01*
X116625666Y-40625780D01*
X117054238Y-41625780D02*
X117054238Y-40625780D01*
X117292333Y-40625780D01*
X117435190Y-40673400D01*
X117530428Y-40768638D01*
X117578047Y-40863876D01*
X117625666Y-41054352D01*
X117625666Y-41197209D01*
X117578047Y-41387685D01*
X117530428Y-41482923D01*
X117435190Y-41578161D01*
X117292333Y-41625780D01*
X117054238Y-41625780D01*
%TO.C,D2*%
X99668104Y-45080180D02*
X99668104Y-44080180D01*
X99906200Y-44080180D01*
X100049057Y-44127800D01*
X100144295Y-44223038D01*
X100191914Y-44318276D01*
X100239533Y-44508752D01*
X100239533Y-44651609D01*
X100191914Y-44842085D01*
X100144295Y-44937323D01*
X100049057Y-45032561D01*
X99906200Y-45080180D01*
X99668104Y-45080180D01*
X100620485Y-44175419D02*
X100668104Y-44127800D01*
X100763342Y-44080180D01*
X101001438Y-44080180D01*
X101096676Y-44127800D01*
X101144295Y-44175419D01*
X101191914Y-44270657D01*
X101191914Y-44365895D01*
X101144295Y-44508752D01*
X100572866Y-45080180D01*
X101191914Y-45080180D01*
X105451542Y-45207180D02*
X104880114Y-45207180D01*
X105165828Y-45207180D02*
X105165828Y-44207180D01*
X105070590Y-44350038D01*
X104975352Y-44445276D01*
X104880114Y-44492895D01*
X105880114Y-45207180D02*
X105880114Y-44207180D01*
X106451542Y-45207180D01*
X106451542Y-44207180D01*
X107356304Y-44540514D02*
X107356304Y-45207180D01*
X107118209Y-44159561D02*
X106880114Y-44873847D01*
X107499161Y-44873847D01*
X108070590Y-44207180D02*
X108165828Y-44207180D01*
X108261066Y-44254800D01*
X108308685Y-44302419D01*
X108356304Y-44397657D01*
X108403923Y-44588133D01*
X108403923Y-44826228D01*
X108356304Y-45016704D01*
X108308685Y-45111942D01*
X108261066Y-45159561D01*
X108165828Y-45207180D01*
X108070590Y-45207180D01*
X107975352Y-45159561D01*
X107927733Y-45111942D01*
X107880114Y-45016704D01*
X107832495Y-44826228D01*
X107832495Y-44588133D01*
X107880114Y-44397657D01*
X107927733Y-44302419D01*
X107975352Y-44254800D01*
X108070590Y-44207180D01*
X109022971Y-44207180D02*
X109118209Y-44207180D01*
X109213447Y-44254800D01*
X109261066Y-44302419D01*
X109308685Y-44397657D01*
X109356304Y-44588133D01*
X109356304Y-44826228D01*
X109308685Y-45016704D01*
X109261066Y-45111942D01*
X109213447Y-45159561D01*
X109118209Y-45207180D01*
X109022971Y-45207180D01*
X108927733Y-45159561D01*
X108880114Y-45111942D01*
X108832495Y-45016704D01*
X108784876Y-44826228D01*
X108784876Y-44588133D01*
X108832495Y-44397657D01*
X108880114Y-44302419D01*
X108927733Y-44254800D01*
X109022971Y-44207180D01*
X110213447Y-44540514D02*
X110213447Y-45207180D01*
X109975352Y-44159561D02*
X109737257Y-44873847D01*
X110356304Y-44873847D01*
%TO.C,C13*%
X87192142Y-66397142D02*
X87144523Y-66444761D01*
X87001666Y-66492380D01*
X86906428Y-66492380D01*
X86763571Y-66444761D01*
X86668333Y-66349523D01*
X86620714Y-66254285D01*
X86573095Y-66063809D01*
X86573095Y-65920952D01*
X86620714Y-65730476D01*
X86668333Y-65635238D01*
X86763571Y-65540000D01*
X86906428Y-65492380D01*
X87001666Y-65492380D01*
X87144523Y-65540000D01*
X87192142Y-65587619D01*
X88144523Y-66492380D02*
X87573095Y-66492380D01*
X87858809Y-66492380D02*
X87858809Y-65492380D01*
X87763571Y-65635238D01*
X87668333Y-65730476D01*
X87573095Y-65778095D01*
X88477857Y-65492380D02*
X89096904Y-65492380D01*
X88763571Y-65873333D01*
X88906428Y-65873333D01*
X89001666Y-65920952D01*
X89049285Y-65968571D01*
X89096904Y-66063809D01*
X89096904Y-66301904D01*
X89049285Y-66397142D01*
X89001666Y-66444761D01*
X88906428Y-66492380D01*
X88620714Y-66492380D01*
X88525476Y-66444761D01*
X88477857Y-66397142D01*
X87223952Y-67762380D02*
X86652523Y-67762380D01*
X86938238Y-67762380D02*
X86938238Y-66762380D01*
X86843000Y-66905238D01*
X86747761Y-67000476D01*
X86652523Y-67048095D01*
X87843000Y-66762380D02*
X87938238Y-66762380D01*
X88033476Y-66810000D01*
X88081095Y-66857619D01*
X88128714Y-66952857D01*
X88176333Y-67143333D01*
X88176333Y-67381428D01*
X88128714Y-67571904D01*
X88081095Y-67667142D01*
X88033476Y-67714761D01*
X87938238Y-67762380D01*
X87843000Y-67762380D01*
X87747761Y-67714761D01*
X87700142Y-67667142D01*
X87652523Y-67571904D01*
X87604904Y-67381428D01*
X87604904Y-67143333D01*
X87652523Y-66952857D01*
X87700142Y-66857619D01*
X87747761Y-66810000D01*
X87843000Y-66762380D01*
X88795380Y-66762380D02*
X88890619Y-66762380D01*
X88985857Y-66810000D01*
X89033476Y-66857619D01*
X89081095Y-66952857D01*
X89128714Y-67143333D01*
X89128714Y-67381428D01*
X89081095Y-67571904D01*
X89033476Y-67667142D01*
X88985857Y-67714761D01*
X88890619Y-67762380D01*
X88795380Y-67762380D01*
X88700142Y-67714761D01*
X88652523Y-67667142D01*
X88604904Y-67571904D01*
X88557285Y-67381428D01*
X88557285Y-67143333D01*
X88604904Y-66952857D01*
X88652523Y-66857619D01*
X88700142Y-66810000D01*
X88795380Y-66762380D01*
X89557285Y-67095714D02*
X89557285Y-67762380D01*
X89557285Y-67190952D02*
X89604904Y-67143333D01*
X89700142Y-67095714D01*
X89843000Y-67095714D01*
X89938238Y-67143333D01*
X89985857Y-67238571D01*
X89985857Y-67762380D01*
%TO.C,J9*%
X75993666Y-78636880D02*
X75993666Y-79351166D01*
X75946047Y-79494023D01*
X75850809Y-79589261D01*
X75707952Y-79636880D01*
X75612714Y-79636880D01*
X76517476Y-79636880D02*
X76707952Y-79636880D01*
X76803190Y-79589261D01*
X76850809Y-79541642D01*
X76946047Y-79398785D01*
X76993666Y-79208309D01*
X76993666Y-78827357D01*
X76946047Y-78732119D01*
X76898428Y-78684500D01*
X76803190Y-78636880D01*
X76612714Y-78636880D01*
X76517476Y-78684500D01*
X76469857Y-78732119D01*
X76422238Y-78827357D01*
X76422238Y-79065452D01*
X76469857Y-79160690D01*
X76517476Y-79208309D01*
X76612714Y-79255928D01*
X76803190Y-79255928D01*
X76898428Y-79208309D01*
X76946047Y-79160690D01*
X76993666Y-79065452D01*
X74620595Y-80033880D02*
X75192023Y-80033880D01*
X74906309Y-81033880D02*
X74906309Y-80033880D01*
X75525357Y-81033880D02*
X75525357Y-80033880D01*
X75906309Y-80033880D01*
X76001547Y-80081500D01*
X76049166Y-80129119D01*
X76096785Y-80224357D01*
X76096785Y-80367214D01*
X76049166Y-80462452D01*
X76001547Y-80510071D01*
X75906309Y-80557690D01*
X75525357Y-80557690D01*
X76953928Y-80367214D02*
X76953928Y-81033880D01*
X76715833Y-79986261D02*
X76477738Y-80700547D01*
X77096785Y-80700547D01*
%TO.C,C1*%
X50547542Y-55792666D02*
X50595161Y-55840285D01*
X50642780Y-55983142D01*
X50642780Y-56078380D01*
X50595161Y-56221238D01*
X50499923Y-56316476D01*
X50404685Y-56364095D01*
X50214209Y-56411714D01*
X50071352Y-56411714D01*
X49880876Y-56364095D01*
X49785638Y-56316476D01*
X49690400Y-56221238D01*
X49642780Y-56078380D01*
X49642780Y-55983142D01*
X49690400Y-55840285D01*
X49738019Y-55792666D01*
X50642780Y-54840285D02*
X50642780Y-55411714D01*
X50642780Y-55126000D02*
X49642780Y-55126000D01*
X49785638Y-55221238D01*
X49880876Y-55316476D01*
X49928495Y-55411714D01*
X44038780Y-56999047D02*
X44038780Y-57570476D01*
X44038780Y-57284761D02*
X43038780Y-57284761D01*
X43181638Y-57380000D01*
X43276876Y-57475238D01*
X43324495Y-57570476D01*
X43038780Y-56380000D02*
X43038780Y-56284761D01*
X43086400Y-56189523D01*
X43134019Y-56141904D01*
X43229257Y-56094285D01*
X43419733Y-56046666D01*
X43657828Y-56046666D01*
X43848304Y-56094285D01*
X43943542Y-56141904D01*
X43991161Y-56189523D01*
X44038780Y-56284761D01*
X44038780Y-56380000D01*
X43991161Y-56475238D01*
X43943542Y-56522857D01*
X43848304Y-56570476D01*
X43657828Y-56618095D01*
X43419733Y-56618095D01*
X43229257Y-56570476D01*
X43134019Y-56522857D01*
X43086400Y-56475238D01*
X43038780Y-56380000D01*
X43038780Y-55427619D02*
X43038780Y-55332380D01*
X43086400Y-55237142D01*
X43134019Y-55189523D01*
X43229257Y-55141904D01*
X43419733Y-55094285D01*
X43657828Y-55094285D01*
X43848304Y-55141904D01*
X43943542Y-55189523D01*
X43991161Y-55237142D01*
X44038780Y-55332380D01*
X44038780Y-55427619D01*
X43991161Y-55522857D01*
X43943542Y-55570476D01*
X43848304Y-55618095D01*
X43657828Y-55665714D01*
X43419733Y-55665714D01*
X43229257Y-55618095D01*
X43134019Y-55570476D01*
X43086400Y-55522857D01*
X43038780Y-55427619D01*
X43372114Y-54665714D02*
X44038780Y-54665714D01*
X43467352Y-54665714D02*
X43419733Y-54618095D01*
X43372114Y-54522857D01*
X43372114Y-54380000D01*
X43419733Y-54284761D01*
X43514971Y-54237142D01*
X44038780Y-54237142D01*
%TO.C,C12*%
X76827142Y-49379142D02*
X76779523Y-49426761D01*
X76636666Y-49474380D01*
X76541428Y-49474380D01*
X76398571Y-49426761D01*
X76303333Y-49331523D01*
X76255714Y-49236285D01*
X76208095Y-49045809D01*
X76208095Y-48902952D01*
X76255714Y-48712476D01*
X76303333Y-48617238D01*
X76398571Y-48522000D01*
X76541428Y-48474380D01*
X76636666Y-48474380D01*
X76779523Y-48522000D01*
X76827142Y-48569619D01*
X77779523Y-49474380D02*
X77208095Y-49474380D01*
X77493809Y-49474380D02*
X77493809Y-48474380D01*
X77398571Y-48617238D01*
X77303333Y-48712476D01*
X77208095Y-48760095D01*
X78160476Y-48569619D02*
X78208095Y-48522000D01*
X78303333Y-48474380D01*
X78541428Y-48474380D01*
X78636666Y-48522000D01*
X78684285Y-48569619D01*
X78731904Y-48664857D01*
X78731904Y-48760095D01*
X78684285Y-48902952D01*
X78112857Y-49474380D01*
X78731904Y-49474380D01*
X79621142Y-50744380D02*
X79049714Y-50744380D01*
X79335428Y-50744380D02*
X79335428Y-49744380D01*
X79240190Y-49887238D01*
X79144952Y-49982476D01*
X79049714Y-50030095D01*
X80240190Y-49744380D02*
X80335428Y-49744380D01*
X80430666Y-49792000D01*
X80478285Y-49839619D01*
X80525904Y-49934857D01*
X80573523Y-50125333D01*
X80573523Y-50363428D01*
X80525904Y-50553904D01*
X80478285Y-50649142D01*
X80430666Y-50696761D01*
X80335428Y-50744380D01*
X80240190Y-50744380D01*
X80144952Y-50696761D01*
X80097333Y-50649142D01*
X80049714Y-50553904D01*
X80002095Y-50363428D01*
X80002095Y-50125333D01*
X80049714Y-49934857D01*
X80097333Y-49839619D01*
X80144952Y-49792000D01*
X80240190Y-49744380D01*
X81430666Y-50077714D02*
X81430666Y-50744380D01*
X81002095Y-50077714D02*
X81002095Y-50601523D01*
X81049714Y-50696761D01*
X81144952Y-50744380D01*
X81287809Y-50744380D01*
X81383047Y-50696761D01*
X81430666Y-50649142D01*
%TO.C,R5*%
X93035380Y-28678166D02*
X92559190Y-29011500D01*
X93035380Y-29249595D02*
X92035380Y-29249595D01*
X92035380Y-28868642D01*
X92083000Y-28773404D01*
X92130619Y-28725785D01*
X92225857Y-28678166D01*
X92368714Y-28678166D01*
X92463952Y-28725785D01*
X92511571Y-28773404D01*
X92559190Y-28868642D01*
X92559190Y-29249595D01*
X92035380Y-27773404D02*
X92035380Y-28249595D01*
X92511571Y-28297214D01*
X92463952Y-28249595D01*
X92416333Y-28154357D01*
X92416333Y-27916261D01*
X92463952Y-27821023D01*
X92511571Y-27773404D01*
X92606809Y-27725785D01*
X92844904Y-27725785D01*
X92940142Y-27773404D01*
X92987761Y-27821023D01*
X93035380Y-27916261D01*
X93035380Y-28154357D01*
X92987761Y-28249595D01*
X92940142Y-28297214D01*
X92035380Y-26836523D02*
X92035380Y-26169857D01*
X93035380Y-26598428D01*
X92035380Y-25312714D02*
X92035380Y-25788904D01*
X92511571Y-25836523D01*
X92463952Y-25788904D01*
X92416333Y-25693666D01*
X92416333Y-25455571D01*
X92463952Y-25360333D01*
X92511571Y-25312714D01*
X92606809Y-25265095D01*
X92844904Y-25265095D01*
X92940142Y-25312714D01*
X92987761Y-25360333D01*
X93035380Y-25455571D01*
X93035380Y-25693666D01*
X92987761Y-25788904D01*
X92940142Y-25836523D01*
X93035380Y-24265095D02*
X92559190Y-24598428D01*
X93035380Y-24836523D02*
X92035380Y-24836523D01*
X92035380Y-24455571D01*
X92083000Y-24360333D01*
X92130619Y-24312714D01*
X92225857Y-24265095D01*
X92368714Y-24265095D01*
X92463952Y-24312714D01*
X92511571Y-24360333D01*
X92559190Y-24455571D01*
X92559190Y-24836523D01*
%TO.C,R6*%
X109570780Y-39333466D02*
X109094590Y-39666800D01*
X109570780Y-39904895D02*
X108570780Y-39904895D01*
X108570780Y-39523942D01*
X108618400Y-39428704D01*
X108666019Y-39381085D01*
X108761257Y-39333466D01*
X108904114Y-39333466D01*
X108999352Y-39381085D01*
X109046971Y-39428704D01*
X109094590Y-39523942D01*
X109094590Y-39904895D01*
X108570780Y-38476323D02*
X108570780Y-38666800D01*
X108618400Y-38762038D01*
X108666019Y-38809657D01*
X108808876Y-38904895D01*
X108999352Y-38952514D01*
X109380304Y-38952514D01*
X109475542Y-38904895D01*
X109523161Y-38857276D01*
X109570780Y-38762038D01*
X109570780Y-38571561D01*
X109523161Y-38476323D01*
X109475542Y-38428704D01*
X109380304Y-38381085D01*
X109142209Y-38381085D01*
X109046971Y-38428704D01*
X108999352Y-38476323D01*
X108951733Y-38571561D01*
X108951733Y-38762038D01*
X108999352Y-38857276D01*
X109046971Y-38904895D01*
X109142209Y-38952514D01*
X111501180Y-34478885D02*
X111501180Y-35050314D01*
X111501180Y-34764600D02*
X110501180Y-34764600D01*
X110644038Y-34859838D01*
X110739276Y-34955076D01*
X110786895Y-35050314D01*
X111501180Y-34050314D02*
X110501180Y-34050314D01*
X111501180Y-33478885D02*
X110929752Y-33907457D01*
X110501180Y-33478885D02*
X111072609Y-34050314D01*
%TO.C,U1*%
X23939595Y-71842380D02*
X23939595Y-72651904D01*
X23987214Y-72747142D01*
X24034833Y-72794761D01*
X24130071Y-72842380D01*
X24320547Y-72842380D01*
X24415785Y-72794761D01*
X24463404Y-72747142D01*
X24511023Y-72651904D01*
X24511023Y-71842380D01*
X25511023Y-72842380D02*
X24939595Y-72842380D01*
X25225309Y-72842380D02*
X25225309Y-71842380D01*
X25130071Y-71985238D01*
X25034833Y-72080476D01*
X24939595Y-72128095D01*
X31020119Y-72937619D02*
X30924880Y-72890000D01*
X30829642Y-72794761D01*
X30686785Y-72651904D01*
X30591547Y-72604285D01*
X30496309Y-72604285D01*
X30543928Y-72842380D02*
X30448690Y-72794761D01*
X30353452Y-72699523D01*
X30305833Y-72509047D01*
X30305833Y-72175714D01*
X30353452Y-71985238D01*
X30448690Y-71890000D01*
X30543928Y-71842380D01*
X30734404Y-71842380D01*
X30829642Y-71890000D01*
X30924880Y-71985238D01*
X30972500Y-72175714D01*
X30972500Y-72509047D01*
X30924880Y-72699523D01*
X30829642Y-72794761D01*
X30734404Y-72842380D01*
X30543928Y-72842380D01*
X31401071Y-72842380D02*
X31401071Y-71842380D01*
X31782023Y-71842380D01*
X31877261Y-71890000D01*
X31924880Y-71937619D01*
X31972500Y-72032857D01*
X31972500Y-72175714D01*
X31924880Y-72270952D01*
X31877261Y-72318571D01*
X31782023Y-72366190D01*
X31401071Y-72366190D01*
X32972500Y-72842380D02*
X32639166Y-72366190D01*
X32401071Y-72842380D02*
X32401071Y-71842380D01*
X32782023Y-71842380D01*
X32877261Y-71890000D01*
X32924880Y-71937619D01*
X32972500Y-72032857D01*
X32972500Y-72175714D01*
X32924880Y-72270952D01*
X32877261Y-72318571D01*
X32782023Y-72366190D01*
X32401071Y-72366190D01*
X33162976Y-72937619D02*
X33924880Y-72937619D01*
X34496309Y-72318571D02*
X34162976Y-72318571D01*
X34162976Y-72842380D02*
X34162976Y-71842380D01*
X34639166Y-71842380D01*
X35020119Y-72842380D02*
X35020119Y-72175714D01*
X35020119Y-71842380D02*
X34972500Y-71890000D01*
X35020119Y-71937619D01*
X35067738Y-71890000D01*
X35020119Y-71842380D01*
X35020119Y-71937619D01*
X35639166Y-72842380D02*
X35543928Y-72794761D01*
X35496309Y-72699523D01*
X35496309Y-71842380D01*
X35877261Y-72175714D02*
X36258214Y-72175714D01*
X36020119Y-71842380D02*
X36020119Y-72699523D01*
X36067738Y-72794761D01*
X36162976Y-72842380D01*
X36258214Y-72842380D01*
X36972500Y-72794761D02*
X36877261Y-72842380D01*
X36686785Y-72842380D01*
X36591547Y-72794761D01*
X36543928Y-72699523D01*
X36543928Y-72318571D01*
X36591547Y-72223333D01*
X36686785Y-72175714D01*
X36877261Y-72175714D01*
X36972500Y-72223333D01*
X37020119Y-72318571D01*
X37020119Y-72413809D01*
X36543928Y-72509047D01*
X37448690Y-72842380D02*
X37448690Y-72175714D01*
X37448690Y-72366190D02*
X37496309Y-72270952D01*
X37543928Y-72223333D01*
X37639166Y-72175714D01*
X37734404Y-72175714D01*
%TO.C,J8*%
X37068166Y-26757380D02*
X37068166Y-27471666D01*
X37020547Y-27614523D01*
X36925309Y-27709761D01*
X36782452Y-27757380D01*
X36687214Y-27757380D01*
X37687214Y-27185952D02*
X37591976Y-27138333D01*
X37544357Y-27090714D01*
X37496738Y-26995476D01*
X37496738Y-26947857D01*
X37544357Y-26852619D01*
X37591976Y-26805000D01*
X37687214Y-26757380D01*
X37877690Y-26757380D01*
X37972928Y-26805000D01*
X38020547Y-26852619D01*
X38068166Y-26947857D01*
X38068166Y-26995476D01*
X38020547Y-27090714D01*
X37972928Y-27138333D01*
X37877690Y-27185952D01*
X37687214Y-27185952D01*
X37591976Y-27233571D01*
X37544357Y-27281190D01*
X37496738Y-27376428D01*
X37496738Y-27566904D01*
X37544357Y-27662142D01*
X37591976Y-27709761D01*
X37687214Y-27757380D01*
X37877690Y-27757380D01*
X37972928Y-27709761D01*
X38020547Y-27662142D01*
X38068166Y-27566904D01*
X38068166Y-27376428D01*
X38020547Y-27281190D01*
X37972928Y-27233571D01*
X37877690Y-27185952D01*
X36774595Y-28344880D02*
X37346023Y-28344880D01*
X37060309Y-29344880D02*
X37060309Y-28344880D01*
X37679357Y-29344880D02*
X37679357Y-28344880D01*
X38060309Y-28344880D01*
X38155547Y-28392500D01*
X38203166Y-28440119D01*
X38250785Y-28535357D01*
X38250785Y-28678214D01*
X38203166Y-28773452D01*
X38155547Y-28821071D01*
X38060309Y-28868690D01*
X37679357Y-28868690D01*
X39155547Y-28344880D02*
X38679357Y-28344880D01*
X38631738Y-28821071D01*
X38679357Y-28773452D01*
X38774595Y-28725833D01*
X39012690Y-28725833D01*
X39107928Y-28773452D01*
X39155547Y-28821071D01*
X39203166Y-28916309D01*
X39203166Y-29154404D01*
X39155547Y-29249642D01*
X39107928Y-29297261D01*
X39012690Y-29344880D01*
X38774595Y-29344880D01*
X38679357Y-29297261D01*
X38631738Y-29249642D01*
%TO.C,J2*%
X47164666Y-39520880D02*
X47164666Y-40235166D01*
X47117047Y-40378023D01*
X47021809Y-40473261D01*
X46878952Y-40520880D01*
X46783714Y-40520880D01*
X47593238Y-39616119D02*
X47640857Y-39568500D01*
X47736095Y-39520880D01*
X47974190Y-39520880D01*
X48069428Y-39568500D01*
X48117047Y-39616119D01*
X48164666Y-39711357D01*
X48164666Y-39806595D01*
X48117047Y-39949452D01*
X47545619Y-40520880D01*
X48164666Y-40520880D01*
X46744095Y-40981380D02*
X47315523Y-40981380D01*
X47029809Y-41981380D02*
X47029809Y-40981380D01*
X47648857Y-41981380D02*
X47648857Y-40981380D01*
X48029809Y-40981380D01*
X48125047Y-41029000D01*
X48172666Y-41076619D01*
X48220285Y-41171857D01*
X48220285Y-41314714D01*
X48172666Y-41409952D01*
X48125047Y-41457571D01*
X48029809Y-41505190D01*
X47648857Y-41505190D01*
X49077428Y-40981380D02*
X48886952Y-40981380D01*
X48791714Y-41029000D01*
X48744095Y-41076619D01*
X48648857Y-41219476D01*
X48601238Y-41409952D01*
X48601238Y-41790904D01*
X48648857Y-41886142D01*
X48696476Y-41933761D01*
X48791714Y-41981380D01*
X48982190Y-41981380D01*
X49077428Y-41933761D01*
X49125047Y-41886142D01*
X49172666Y-41790904D01*
X49172666Y-41552809D01*
X49125047Y-41457571D01*
X49077428Y-41409952D01*
X48982190Y-41362333D01*
X48791714Y-41362333D01*
X48696476Y-41409952D01*
X48648857Y-41457571D01*
X48601238Y-41552809D01*
%TO.C,R2*%
X62888833Y-40711380D02*
X62555500Y-40235190D01*
X62317404Y-40711380D02*
X62317404Y-39711380D01*
X62698357Y-39711380D01*
X62793595Y-39759000D01*
X62841214Y-39806619D01*
X62888833Y-39901857D01*
X62888833Y-40044714D01*
X62841214Y-40139952D01*
X62793595Y-40187571D01*
X62698357Y-40235190D01*
X62317404Y-40235190D01*
X63269785Y-39806619D02*
X63317404Y-39759000D01*
X63412642Y-39711380D01*
X63650738Y-39711380D01*
X63745976Y-39759000D01*
X63793595Y-39806619D01*
X63841214Y-39901857D01*
X63841214Y-39997095D01*
X63793595Y-40139952D01*
X63222166Y-40711380D01*
X63841214Y-40711380D01*
X59761523Y-40203380D02*
X59190095Y-40203380D01*
X59475809Y-40203380D02*
X59475809Y-39203380D01*
X59380571Y-39346238D01*
X59285333Y-39441476D01*
X59190095Y-39489095D01*
X60380571Y-39203380D02*
X60475809Y-39203380D01*
X60571047Y-39251000D01*
X60618666Y-39298619D01*
X60666285Y-39393857D01*
X60713904Y-39584333D01*
X60713904Y-39822428D01*
X60666285Y-40012904D01*
X60618666Y-40108142D01*
X60571047Y-40155761D01*
X60475809Y-40203380D01*
X60380571Y-40203380D01*
X60285333Y-40155761D01*
X60237714Y-40108142D01*
X60190095Y-40012904D01*
X60142476Y-39822428D01*
X60142476Y-39584333D01*
X60190095Y-39393857D01*
X60237714Y-39298619D01*
X60285333Y-39251000D01*
X60380571Y-39203380D01*
X61713904Y-40203380D02*
X61380571Y-39727190D01*
X61142476Y-40203380D02*
X61142476Y-39203380D01*
X61523428Y-39203380D01*
X61618666Y-39251000D01*
X61666285Y-39298619D01*
X61713904Y-39393857D01*
X61713904Y-39536714D01*
X61666285Y-39631952D01*
X61618666Y-39679571D01*
X61523428Y-39727190D01*
X61142476Y-39727190D01*
D13*
%TO.C,REF\u002A\u002A*%
X26257500Y-46531571D02*
X26364642Y-46567285D01*
X26543214Y-46567285D01*
X26614642Y-46531571D01*
X26650357Y-46495857D01*
X26686071Y-46424428D01*
X26686071Y-46353000D01*
X26650357Y-46281571D01*
X26614642Y-46245857D01*
X26543214Y-46210142D01*
X26400357Y-46174428D01*
X26328928Y-46138714D01*
X26293214Y-46103000D01*
X26257500Y-46031571D01*
X26257500Y-45960142D01*
X26293214Y-45888714D01*
X26328928Y-45853000D01*
X26400357Y-45817285D01*
X26578928Y-45817285D01*
X26686071Y-45853000D01*
X27150357Y-45817285D02*
X27293214Y-45817285D01*
X27364642Y-45853000D01*
X27436071Y-45924428D01*
X27471785Y-46067285D01*
X27471785Y-46317285D01*
X27436071Y-46460142D01*
X27364642Y-46531571D01*
X27293214Y-46567285D01*
X27150357Y-46567285D01*
X27078928Y-46531571D01*
X27007500Y-46460142D01*
X26971785Y-46317285D01*
X26971785Y-46067285D01*
X27007500Y-45924428D01*
X27078928Y-45853000D01*
X27150357Y-45817285D01*
X27757500Y-46353000D02*
X28114642Y-46353000D01*
X27686071Y-46567285D02*
X27936071Y-45817285D01*
X28186071Y-46567285D01*
X28864642Y-46567285D02*
X28614642Y-46210142D01*
X28436071Y-46567285D02*
X28436071Y-45817285D01*
X28721785Y-45817285D01*
X28793214Y-45853000D01*
X28828928Y-45888714D01*
X28864642Y-45960142D01*
X28864642Y-46067285D01*
X28828928Y-46138714D01*
X28793214Y-46174428D01*
X28721785Y-46210142D01*
X28436071Y-46210142D01*
X29186071Y-46174428D02*
X29436071Y-46174428D01*
X29543214Y-46567285D02*
X29186071Y-46567285D01*
X29186071Y-45817285D01*
X29543214Y-45817285D01*
X29793214Y-45817285D02*
X30293214Y-46567285D01*
X30293214Y-45817285D02*
X29793214Y-46567285D01*
%TO.C,G\u002A\u002A\u002A*%
G36*
X84893619Y-47780635D02*
G01*
X84847771Y-47826483D01*
X84801922Y-47780635D01*
X84847771Y-47734787D01*
X84893619Y-47780635D01*
G37*
G36*
X96232671Y-37602296D02*
G01*
X96151274Y-38469941D01*
X95989360Y-39214694D01*
X95733989Y-39884149D01*
X95487924Y-40341383D01*
X95325780Y-40615520D01*
X95209499Y-40821535D01*
X95163685Y-40915805D01*
X95163655Y-40916352D01*
X95235882Y-40901707D01*
X95417844Y-40821874D01*
X95513666Y-40774392D01*
X95736835Y-40624803D01*
X96028643Y-40380661D01*
X96337717Y-40086088D01*
X96444185Y-39975264D01*
X97024695Y-39354698D01*
X96958255Y-39708853D01*
X96786611Y-40366702D01*
X96522605Y-40926314D01*
X96133134Y-41449569D01*
X95887535Y-41710367D01*
X95604549Y-42001616D01*
X95456991Y-42181175D01*
X95451062Y-42255510D01*
X95592964Y-42231085D01*
X95888899Y-42114367D01*
X96160476Y-41994898D01*
X96427738Y-41877130D01*
X96617081Y-41797159D01*
X96679326Y-41774498D01*
X96682688Y-41852451D01*
X96627481Y-42061058D01*
X96527455Y-42362442D01*
X96396361Y-42718725D01*
X96247950Y-43092029D01*
X96095972Y-43444477D01*
X95996921Y-43654281D01*
X95654188Y-44280391D01*
X95275302Y-44831796D01*
X94837380Y-45328469D01*
X94317542Y-45790381D01*
X93692908Y-46237507D01*
X92940596Y-46689817D01*
X92037725Y-47167285D01*
X91884500Y-47244000D01*
X91139009Y-47625610D01*
X90519504Y-47965077D01*
X90035435Y-48256490D01*
X89696254Y-48493932D01*
X89511410Y-48671491D01*
X89478457Y-48749617D01*
X89503933Y-48810922D01*
X89597523Y-48875986D01*
X89784964Y-48955325D01*
X90091997Y-49059459D01*
X90544360Y-49198904D01*
X90670514Y-49236733D01*
X91192570Y-49421068D01*
X91599421Y-49623014D01*
X91770875Y-49744711D01*
X92091814Y-50019752D01*
X91479496Y-50023479D01*
X90611714Y-50071623D01*
X89694789Y-50197791D01*
X88789361Y-50389613D01*
X87956071Y-50634716D01*
X87388133Y-50858121D01*
X87091370Y-50990620D01*
X86867316Y-51086788D01*
X86761079Y-51127307D01*
X86758972Y-51127566D01*
X86751980Y-51050664D01*
X86783246Y-50875400D01*
X86846650Y-50645649D01*
X86945192Y-50329359D01*
X87014234Y-50122080D01*
X87108109Y-49830756D01*
X87170512Y-49603589D01*
X87186038Y-49514013D01*
X87111971Y-49417250D01*
X86885709Y-49333397D01*
X86501156Y-49261608D01*
X85952217Y-49201038D01*
X85232797Y-49150841D01*
X84336803Y-49110174D01*
X84251742Y-49107110D01*
X83500725Y-49077106D01*
X82904891Y-49044624D01*
X82436030Y-49007020D01*
X82065931Y-48961652D01*
X81766384Y-48905878D01*
X81573020Y-48856198D01*
X80888587Y-48595529D01*
X80239774Y-48232411D01*
X79693726Y-47805619D01*
X79607936Y-47721350D01*
X79275390Y-47380793D01*
X79615292Y-47238773D01*
X79842635Y-47115516D01*
X79887724Y-47012266D01*
X79750658Y-46929567D01*
X79548791Y-46884584D01*
X79274828Y-46812746D01*
X78950346Y-46691321D01*
X78835914Y-46639656D01*
X78601521Y-46513027D01*
X78368274Y-46364796D01*
X78166598Y-46218768D01*
X78026922Y-46098751D01*
X77979671Y-46028551D01*
X78055272Y-46031974D01*
X78062211Y-46034295D01*
X78265752Y-46090842D01*
X78537796Y-46151046D01*
X78818797Y-46203856D01*
X79049203Y-46238224D01*
X79169465Y-46243099D01*
X79174276Y-46240652D01*
X79119677Y-46177841D01*
X78949861Y-46037140D01*
X78699215Y-45846741D01*
X78648751Y-45809791D01*
X78276312Y-45506488D01*
X77901579Y-45147593D01*
X77575303Y-44785433D01*
X77348231Y-44472337D01*
X77342966Y-44463361D01*
X77391811Y-44461291D01*
X77571464Y-44536267D01*
X77853133Y-44674999D01*
X78190447Y-44854545D01*
X79870392Y-45683303D01*
X81602676Y-46359781D01*
X83357446Y-46873381D01*
X84618529Y-47136452D01*
X85062593Y-47214335D01*
X85428427Y-47280834D01*
X85685126Y-47330145D01*
X85801785Y-47356469D01*
X85804503Y-47359087D01*
X85106023Y-47501051D01*
X84588183Y-47656598D01*
X84248662Y-47826717D01*
X84085140Y-48012398D01*
X84068348Y-48099403D01*
X84112593Y-48265580D01*
X84211870Y-48385254D01*
X84315990Y-48414775D01*
X84365170Y-48357567D01*
X84468029Y-48284928D01*
X84723751Y-48256492D01*
X84947192Y-48259093D01*
X85202809Y-48279975D01*
X85451331Y-48332128D01*
X85734101Y-48429963D01*
X86092461Y-48587889D01*
X86567755Y-48820317D01*
X86591436Y-48832197D01*
X87008780Y-49036602D01*
X87374856Y-49206382D01*
X87654927Y-49326109D01*
X87814255Y-49380356D01*
X87829342Y-49381980D01*
X87829147Y-49345653D01*
X87692423Y-49254447D01*
X87485868Y-49146585D01*
X87183668Y-48974913D01*
X86926800Y-48785344D01*
X86821047Y-48679059D01*
X86635818Y-48443579D01*
X86876127Y-48220868D01*
X87012606Y-48063990D01*
X87071654Y-47888018D01*
X87057404Y-47644022D01*
X86973988Y-47283075D01*
X86959765Y-47230455D01*
X86961573Y-47123488D01*
X87046278Y-47010866D01*
X87240920Y-46868117D01*
X87572543Y-46670772D01*
X87587967Y-46662006D01*
X88193622Y-46286115D01*
X88876233Y-45808325D01*
X89590299Y-45263254D01*
X90290319Y-44685520D01*
X90881204Y-44156429D01*
X91791395Y-43230284D01*
X92713457Y-42152731D01*
X93625855Y-40952687D01*
X94507056Y-39659069D01*
X95335524Y-38300794D01*
X95625451Y-37785689D01*
X96281187Y-36593631D01*
X96232671Y-37602296D01*
G37*
D14*
%TO.C,J10*%
X67687500Y-74291500D02*
X67687500Y-71631500D01*
X65087500Y-74291500D02*
X67687500Y-74291500D01*
X65087500Y-74291500D02*
X65087500Y-71631500D01*
X63817500Y-74291500D02*
X62487500Y-74291500D01*
X65087500Y-71631500D02*
X67687500Y-71631500D01*
X62487500Y-74291500D02*
X62487500Y-72961500D01*
%TO.C,C7*%
X111395000Y-50732849D02*
X108450000Y-50732849D01*
X111395000Y-50812849D02*
X108468000Y-50812849D01*
X116492000Y-50291849D02*
X113475000Y-50291849D01*
X113888000Y-53692849D02*
X110982000Y-53692849D01*
X116392000Y-50852849D02*
X113475000Y-50852849D01*
X116371000Y-50932849D02*
X113475000Y-50932849D01*
X114940000Y-53092849D02*
X109930000Y-53092849D01*
X115176000Y-52892849D02*
X109694000Y-52892849D01*
X115086000Y-52972849D02*
X109784000Y-52972849D01*
X111395000Y-50211849D02*
X108370000Y-50211849D01*
X116139000Y-51572849D02*
X113475000Y-51572849D01*
X116312000Y-51132849D02*
X113475000Y-51132849D01*
X111395000Y-50572849D02*
X108418000Y-50572849D01*
X113781000Y-53732849D02*
X111089000Y-53732849D01*
X115302000Y-52772849D02*
X109568000Y-52772849D01*
X116514000Y-49971849D02*
X108356000Y-49971849D01*
X116062000Y-51732849D02*
X113475000Y-51732849D01*
X111395000Y-50091849D02*
X108361000Y-50091849D01*
X116101000Y-51652849D02*
X113475000Y-51652849D01*
X116019000Y-51812849D02*
X113475000Y-51812849D01*
X111395000Y-50331849D02*
X108383000Y-50331849D01*
X116515000Y-49851849D02*
X108355000Y-49851849D01*
X115975000Y-51892849D02*
X113475000Y-51892849D01*
X115525000Y-52532849D02*
X109345000Y-52532849D01*
X116487000Y-50331849D02*
X113475000Y-50331849D01*
X116298000Y-51172849D02*
X113475000Y-51172849D01*
X111395000Y-51092849D02*
X108546000Y-51092849D01*
X111395000Y-52092849D02*
X109017000Y-52092849D01*
X111395000Y-51052849D02*
X108533000Y-51052849D01*
X116175000Y-51492849D02*
X113475000Y-51492849D01*
X114722000Y-53252849D02*
X110148000Y-53252849D01*
X111395000Y-50892849D02*
X108488000Y-50892849D01*
X111395000Y-51892849D02*
X108895000Y-51892849D01*
X114080000Y-53612849D02*
X110790000Y-53612849D01*
X115715000Y-52292849D02*
X109155000Y-52292849D01*
X111395000Y-50411849D02*
X108393000Y-50411849D01*
X116503000Y-50171849D02*
X113475000Y-50171849D01*
X114248000Y-53532849D02*
X110622000Y-53532849D01*
X111395000Y-52052849D02*
X108991000Y-52052849D01*
X111395000Y-51252849D02*
X108600000Y-51252849D01*
X111395000Y-51932849D02*
X108918000Y-51932849D01*
X116512000Y-50011849D02*
X108358000Y-50011849D01*
X111395000Y-51012849D02*
X108521000Y-51012849D01*
X115039000Y-53012849D02*
X109831000Y-53012849D01*
X115559000Y-52492849D02*
X109311000Y-52492849D01*
X111395000Y-51532849D02*
X108713000Y-51532849D01*
X115418000Y-52652849D02*
X109452000Y-52652849D01*
X111395000Y-51852849D02*
X108873000Y-51852849D01*
X115454000Y-52612849D02*
X109416000Y-52612849D01*
X111395000Y-51972849D02*
X108942000Y-51972849D01*
X114889000Y-53132849D02*
X109981000Y-53132849D01*
X111395000Y-50932849D02*
X108499000Y-50932849D01*
X115380000Y-52692849D02*
X109490000Y-52692849D01*
X111395000Y-51172849D02*
X108572000Y-51172849D01*
X116082000Y-51692849D02*
X113475000Y-51692849D01*
X116452000Y-50572849D02*
X113475000Y-50572849D01*
X111395000Y-50491849D02*
X108405000Y-50491849D01*
X115624000Y-52412849D02*
X109246000Y-52412849D01*
X116515000Y-49931849D02*
X108355000Y-49931849D01*
X115150000Y-45842151D02*
X114350000Y-45842151D01*
X111395000Y-51692849D02*
X108788000Y-51692849D01*
X116496000Y-50251849D02*
X113475000Y-50251849D01*
X111395000Y-51372849D02*
X108645000Y-51372849D01*
X115261000Y-52812849D02*
X109609000Y-52812849D01*
X111395000Y-51812849D02*
X108851000Y-51812849D01*
X111395000Y-51212849D02*
X108585000Y-51212849D01*
X115773000Y-52212849D02*
X109097000Y-52212849D01*
X111395000Y-50451849D02*
X108398000Y-50451849D01*
X111395000Y-50772849D02*
X108459000Y-50772849D01*
X114750000Y-45442151D02*
X114750000Y-46242151D01*
X115952000Y-51932849D02*
X113475000Y-51932849D01*
X116515000Y-49891849D02*
X108355000Y-49891849D01*
X116192000Y-51452849D02*
X113475000Y-51452849D01*
X113987000Y-53652849D02*
X110883000Y-53652849D01*
X111395000Y-51572849D02*
X108731000Y-51572849D01*
X114663000Y-53292849D02*
X110207000Y-53292849D01*
X114780000Y-53212849D02*
X110090000Y-53212849D01*
X111395000Y-51332849D02*
X108630000Y-51332849D01*
X115219000Y-52852849D02*
X109651000Y-52852849D01*
X116511000Y-50051849D02*
X108359000Y-50051849D01*
X115744000Y-52252849D02*
X109126000Y-52252849D01*
X115490000Y-52572849D02*
X109380000Y-52572849D01*
X111395000Y-50171849D02*
X108367000Y-50171849D01*
X115827000Y-52132849D02*
X113475000Y-52132849D01*
X111395000Y-51452849D02*
X108678000Y-51452849D01*
X115800000Y-52172849D02*
X109070000Y-52172849D01*
X114469000Y-53412849D02*
X110401000Y-53412849D01*
X115342000Y-52732849D02*
X109528000Y-52732849D01*
X111395000Y-50972849D02*
X108510000Y-50972849D01*
X116349000Y-51012849D02*
X113475000Y-51012849D01*
X111395000Y-51412849D02*
X108661000Y-51412849D01*
X113664000Y-53772849D02*
X111206000Y-53772849D01*
X116360000Y-50972849D02*
X113475000Y-50972849D01*
X115591000Y-52452849D02*
X109279000Y-52452849D01*
X111395000Y-50251849D02*
X108374000Y-50251849D01*
X116445000Y-50612849D02*
X113475000Y-50612849D01*
X116483000Y-50371849D02*
X113475000Y-50371849D01*
X111395000Y-51492849D02*
X108695000Y-51492849D01*
X111395000Y-50652849D02*
X108433000Y-50652849D01*
X116429000Y-50692849D02*
X113475000Y-50692849D01*
X116337000Y-51052849D02*
X113475000Y-51052849D01*
X116411000Y-50772849D02*
X113475000Y-50772849D01*
X111395000Y-50371849D02*
X108387000Y-50371849D01*
X114325000Y-53492849D02*
X110545000Y-53492849D01*
X114399000Y-53452849D02*
X110471000Y-53452849D01*
X111395000Y-50291849D02*
X108378000Y-50291849D01*
X111395000Y-50531849D02*
X108411000Y-50531849D01*
X115132000Y-52932849D02*
X109738000Y-52932849D01*
X115853000Y-52092849D02*
X113475000Y-52092849D01*
X111395000Y-51292849D02*
X108614000Y-51292849D01*
X116420000Y-50732849D02*
X113475000Y-50732849D01*
X116500000Y-50211849D02*
X113475000Y-50211849D01*
X111395000Y-51652849D02*
X108769000Y-51652849D01*
X111395000Y-50612849D02*
X108425000Y-50612849D01*
X114601000Y-53332849D02*
X110269000Y-53332849D01*
X116270000Y-51252849D02*
X113475000Y-51252849D01*
X116402000Y-50812849D02*
X113475000Y-50812849D01*
X114166000Y-53572849D02*
X110704000Y-53572849D01*
X116437000Y-50652849D02*
X113475000Y-50652849D01*
X113533000Y-53812849D02*
X111337000Y-53812849D01*
X116157000Y-51532849D02*
X113475000Y-51532849D01*
X116256000Y-51292849D02*
X113475000Y-51292849D01*
X111395000Y-50852849D02*
X108478000Y-50852849D01*
X115904000Y-52012849D02*
X113475000Y-52012849D01*
X115655000Y-52372849D02*
X109215000Y-52372849D01*
X111395000Y-51612849D02*
X108749000Y-51612849D01*
X116121000Y-51612849D02*
X113475000Y-51612849D01*
X115879000Y-52052849D02*
X113475000Y-52052849D01*
X114991000Y-53052849D02*
X109879000Y-53052849D01*
X113203000Y-53892849D02*
X111667000Y-53892849D01*
X116506000Y-50131849D02*
X113475000Y-50131849D01*
X111395000Y-51132849D02*
X108558000Y-51132849D01*
X111395000Y-50692849D02*
X108441000Y-50692849D01*
X116472000Y-50451849D02*
X113475000Y-50451849D01*
X115928000Y-51972849D02*
X113475000Y-51972849D01*
X116285000Y-51212849D02*
X113475000Y-51212849D01*
X111395000Y-51772849D02*
X108829000Y-51772849D01*
X116324000Y-51092849D02*
X113475000Y-51092849D01*
X116465000Y-50491849D02*
X113475000Y-50491849D01*
X116209000Y-51412849D02*
X113475000Y-51412849D01*
X111395000Y-50131849D02*
X108364000Y-50131849D01*
X116225000Y-51372849D02*
X113475000Y-51372849D01*
X114835000Y-53172849D02*
X110035000Y-53172849D01*
X116041000Y-51772849D02*
X113475000Y-51772849D01*
X112968000Y-53932849D02*
X111902000Y-53932849D01*
X111395000Y-52132849D02*
X109043000Y-52132849D01*
X111395000Y-51732849D02*
X108808000Y-51732849D01*
X116477000Y-50411849D02*
X113475000Y-50411849D01*
X116240000Y-51332849D02*
X113475000Y-51332849D01*
X116382000Y-50892849D02*
X113475000Y-50892849D01*
X116509000Y-50091849D02*
X113475000Y-50091849D01*
X116459000Y-50531849D02*
X113475000Y-50531849D01*
X115997000Y-51852849D02*
X113475000Y-51852849D01*
X114537000Y-53372849D02*
X110333000Y-53372849D01*
X113383000Y-53852849D02*
X111487000Y-53852849D01*
X115685000Y-52332849D02*
X109185000Y-52332849D01*
X111395000Y-52012849D02*
X108966000Y-52012849D01*
X116555000Y-49851849D02*
G75*
G03*
X116555000Y-49851849I-4120000J0D01*
G01*
%TO.C,C11*%
X87449000Y-55037000D02*
X87449000Y-57624000D01*
X86809000Y-59704000D02*
X86809000Y-62553000D01*
X86128000Y-54622000D02*
X86128000Y-57624000D01*
X89049000Y-56498000D02*
X89049000Y-60830000D01*
X87569000Y-59704000D02*
X87569000Y-62226000D01*
X86128000Y-59704000D02*
X86128000Y-62706000D01*
X86969000Y-59704000D02*
X86969000Y-62499000D01*
X87769000Y-55220000D02*
X87769000Y-57624000D01*
X87129000Y-54890000D02*
X87129000Y-57624000D01*
X87729000Y-55195000D02*
X87729000Y-57624000D01*
X89489000Y-57435000D02*
X89489000Y-59893000D01*
X86649000Y-54728000D02*
X86649000Y-57624000D01*
X89609000Y-57896000D02*
X89609000Y-59432000D01*
X86329000Y-59704000D02*
X86329000Y-62674000D01*
X87089000Y-59704000D02*
X87089000Y-62454000D01*
X86088000Y-54616000D02*
X86088000Y-57624000D01*
X85888000Y-54596000D02*
X85888000Y-57624000D01*
X88849000Y-56210000D02*
X88849000Y-61118000D01*
X87089000Y-54874000D02*
X87089000Y-57624000D01*
X86008000Y-54607000D02*
X86008000Y-57624000D01*
X87729000Y-59704000D02*
X87729000Y-62133000D01*
X87529000Y-55080000D02*
X87529000Y-57624000D01*
X87609000Y-59704000D02*
X87609000Y-62204000D01*
X85848000Y-54593000D02*
X85848000Y-57624000D01*
X85928000Y-54599000D02*
X85928000Y-57624000D01*
X85928000Y-59704000D02*
X85928000Y-62729000D01*
X85808000Y-54590000D02*
X85808000Y-57624000D01*
X87809000Y-55246000D02*
X87809000Y-57624000D01*
X85808000Y-59704000D02*
X85808000Y-62738000D01*
X87689000Y-55171000D02*
X87689000Y-57624000D01*
X87809000Y-59704000D02*
X87809000Y-62082000D01*
X86208000Y-54634000D02*
X86208000Y-57624000D01*
X85568000Y-54584000D02*
X85568000Y-62744000D01*
X89209000Y-56774000D02*
X89209000Y-60554000D01*
X89649000Y-58131000D02*
X89649000Y-59197000D01*
X87369000Y-54998000D02*
X87369000Y-57624000D01*
X81158302Y-56349000D02*
X81958302Y-56349000D01*
X88809000Y-56159000D02*
X88809000Y-61169000D01*
X88569000Y-55880000D02*
X88569000Y-61448000D01*
X86769000Y-54762000D02*
X86769000Y-57624000D01*
X89289000Y-56933000D02*
X89289000Y-60395000D01*
X87769000Y-59704000D02*
X87769000Y-62108000D01*
X88129000Y-55475000D02*
X88129000Y-61853000D01*
X89409000Y-57211000D02*
X89409000Y-60117000D01*
X88489000Y-55797000D02*
X88489000Y-61531000D01*
X87649000Y-59704000D02*
X87649000Y-62181000D01*
X87929000Y-55326000D02*
X87929000Y-62002000D01*
X87569000Y-55102000D02*
X87569000Y-57624000D01*
X87249000Y-59704000D02*
X87249000Y-62386000D01*
X85728000Y-54587000D02*
X85728000Y-62741000D01*
X86048000Y-59704000D02*
X86048000Y-62716000D01*
X89249000Y-56851000D02*
X89249000Y-60477000D01*
X86449000Y-59704000D02*
X86449000Y-62649000D01*
X87129000Y-59704000D02*
X87129000Y-62438000D01*
X85768000Y-54588000D02*
X85768000Y-62740000D01*
X88769000Y-56108000D02*
X88769000Y-61220000D01*
X86369000Y-54662000D02*
X86369000Y-57624000D01*
X88249000Y-55574000D02*
X88249000Y-61754000D01*
X87049000Y-59704000D02*
X87049000Y-62469000D01*
X86289000Y-54647000D02*
X86289000Y-57624000D01*
X86849000Y-54787000D02*
X86849000Y-57624000D01*
X88609000Y-55923000D02*
X88609000Y-61405000D01*
X86409000Y-59704000D02*
X86409000Y-62658000D01*
X87289000Y-59704000D02*
X87289000Y-62368000D01*
X86369000Y-59704000D02*
X86369000Y-62666000D01*
X87609000Y-55124000D02*
X87609000Y-57624000D01*
X87369000Y-59704000D02*
X87369000Y-62330000D01*
X86929000Y-54814000D02*
X86929000Y-57624000D01*
X86809000Y-54775000D02*
X86809000Y-57624000D01*
X86689000Y-59704000D02*
X86689000Y-62589000D01*
X88329000Y-55645000D02*
X88329000Y-61683000D01*
X87449000Y-59704000D02*
X87449000Y-62291000D01*
X86929000Y-59704000D02*
X86929000Y-62514000D01*
X87529000Y-59704000D02*
X87529000Y-62248000D01*
X86489000Y-59704000D02*
X86489000Y-62640000D01*
X86168000Y-54627000D02*
X86168000Y-57624000D01*
X88369000Y-55681000D02*
X88369000Y-61647000D01*
X87409000Y-59704000D02*
X87409000Y-62311000D01*
X86449000Y-54679000D02*
X86449000Y-57624000D01*
X89009000Y-56436000D02*
X89009000Y-60892000D01*
X86649000Y-59704000D02*
X86649000Y-62600000D01*
X86409000Y-54670000D02*
X86409000Y-57624000D01*
X86088000Y-59704000D02*
X86088000Y-62712000D01*
X87849000Y-59704000D02*
X87849000Y-62056000D01*
X86529000Y-59704000D02*
X86529000Y-62631000D01*
X88089000Y-55444000D02*
X88089000Y-61884000D01*
X85648000Y-54584000D02*
X85648000Y-62744000D01*
X88929000Y-56319000D02*
X88929000Y-61009000D01*
X87169000Y-54907000D02*
X87169000Y-57624000D01*
X87209000Y-59704000D02*
X87209000Y-62404000D01*
X89329000Y-57019000D02*
X89329000Y-60309000D01*
X88649000Y-55967000D02*
X88649000Y-61361000D01*
X81558302Y-55949000D02*
X81558302Y-56749000D01*
X86168000Y-59704000D02*
X86168000Y-62701000D01*
X86729000Y-54750000D02*
X86729000Y-57624000D01*
X87209000Y-54924000D02*
X87209000Y-57624000D01*
X87969000Y-55355000D02*
X87969000Y-61973000D01*
X87489000Y-55058000D02*
X87489000Y-57624000D01*
X88289000Y-55609000D02*
X88289000Y-61719000D01*
X86248000Y-59704000D02*
X86248000Y-62688000D01*
X89169000Y-56700000D02*
X89169000Y-60628000D01*
X87489000Y-59704000D02*
X87489000Y-62270000D01*
X88169000Y-55508000D02*
X88169000Y-61820000D01*
X86248000Y-54640000D02*
X86248000Y-57624000D01*
X88449000Y-55757000D02*
X88449000Y-61571000D01*
X86329000Y-54654000D02*
X86329000Y-57624000D01*
X85848000Y-59704000D02*
X85848000Y-62735000D01*
X89369000Y-57112000D02*
X89369000Y-60216000D01*
X86849000Y-59704000D02*
X86849000Y-62541000D01*
X88009000Y-55384000D02*
X88009000Y-61944000D01*
X87409000Y-55017000D02*
X87409000Y-57624000D01*
X87849000Y-55272000D02*
X87849000Y-57624000D01*
X88209000Y-55540000D02*
X88209000Y-61788000D01*
X88729000Y-56060000D02*
X88729000Y-61268000D01*
X89449000Y-57318000D02*
X89449000Y-60010000D01*
X87249000Y-54942000D02*
X87249000Y-57624000D01*
X86969000Y-54829000D02*
X86969000Y-57624000D01*
X86048000Y-54612000D02*
X86048000Y-57624000D01*
X87009000Y-54843000D02*
X87009000Y-57624000D01*
X87009000Y-59704000D02*
X87009000Y-62485000D01*
X86529000Y-54697000D02*
X86529000Y-57624000D01*
X86289000Y-59704000D02*
X86289000Y-62681000D01*
X85608000Y-54584000D02*
X85608000Y-62744000D01*
X85968000Y-59704000D02*
X85968000Y-62725000D01*
X86609000Y-59704000D02*
X86609000Y-62611000D01*
X86689000Y-54739000D02*
X86689000Y-57624000D01*
X86729000Y-59704000D02*
X86729000Y-62578000D01*
X87889000Y-55299000D02*
X87889000Y-62029000D01*
X89089000Y-56562000D02*
X89089000Y-60766000D01*
X88529000Y-55838000D02*
X88529000Y-61490000D01*
X88409000Y-55719000D02*
X88409000Y-61609000D01*
X89129000Y-56630000D02*
X89129000Y-60698000D01*
X86008000Y-59704000D02*
X86008000Y-62721000D01*
X85968000Y-54603000D02*
X85968000Y-57624000D01*
X85888000Y-59704000D02*
X85888000Y-62732000D01*
X87329000Y-59704000D02*
X87329000Y-62350000D01*
X86889000Y-59704000D02*
X86889000Y-62527000D01*
X86769000Y-59704000D02*
X86769000Y-62566000D01*
X86489000Y-54688000D02*
X86489000Y-57624000D01*
X87289000Y-54960000D02*
X87289000Y-57624000D01*
X86609000Y-54717000D02*
X86609000Y-57624000D01*
X87329000Y-54978000D02*
X87329000Y-57624000D01*
X88969000Y-56377000D02*
X88969000Y-60951000D01*
X87689000Y-59704000D02*
X87689000Y-62157000D01*
X88889000Y-56264000D02*
X88889000Y-61064000D01*
X87169000Y-59704000D02*
X87169000Y-62421000D01*
X89529000Y-57566000D02*
X89529000Y-59762000D01*
X89569000Y-57716000D02*
X89569000Y-59612000D01*
X86569000Y-54707000D02*
X86569000Y-57624000D01*
X86889000Y-54801000D02*
X86889000Y-57624000D01*
X87649000Y-55147000D02*
X87649000Y-57624000D01*
X86208000Y-59704000D02*
X86208000Y-62694000D01*
X87049000Y-54859000D02*
X87049000Y-57624000D01*
X88689000Y-56013000D02*
X88689000Y-61315000D01*
X85688000Y-54585000D02*
X85688000Y-62743000D01*
X86569000Y-59704000D02*
X86569000Y-62621000D01*
X88049000Y-55414000D02*
X88049000Y-61914000D01*
X89688000Y-58664000D02*
G75*
G03*
X89688000Y-58664000I-4120000J0D01*
G01*
%TO.C,C8*%
X42925948Y-45207600D02*
X44348452Y-45207600D01*
X42925948Y-43387600D02*
X44348452Y-43387600D01*
D15*
%TO.C,J4*%
X99045000Y-37754500D02*
X99045000Y-36604500D01*
X108045000Y-23354500D02*
X108045000Y-37754500D01*
X99045000Y-31504500D02*
X99045000Y-23354500D01*
X108045000Y-37754500D02*
X106195000Y-37754500D01*
X100995000Y-37754500D02*
X99045000Y-37754500D01*
X99045000Y-23354500D02*
X108045000Y-23354500D01*
D16*
X103745000Y-39054500D02*
G75*
G03*
X103745000Y-39054500I-200000J0D01*
G01*
D14*
%TO.C,R7*%
X69870651Y-61238936D02*
X69870651Y-62693064D01*
X68050651Y-61238936D02*
X68050651Y-62693064D01*
%TO.C,R4*%
X86391500Y-28919500D02*
X86391500Y-29249500D01*
X79851500Y-31659500D02*
X86391500Y-31659500D01*
X79851500Y-31329500D02*
X79851500Y-31659500D01*
X86391500Y-31659500D02*
X86391500Y-31329500D01*
X79851500Y-28919500D02*
X86391500Y-28919500D01*
X79851500Y-29249500D02*
X79851500Y-28919500D01*
%TO.C,R9*%
X73176000Y-31781500D02*
X73506000Y-31781500D01*
X70766000Y-25241500D02*
X71096000Y-25241500D01*
X73506000Y-31781500D02*
X73506000Y-25241500D01*
X71096000Y-31781500D02*
X70766000Y-31781500D01*
X70766000Y-31781500D02*
X70766000Y-25241500D01*
X73506000Y-25241500D02*
X73176000Y-25241500D01*
%TO.C,C2*%
X44210400Y-48066748D02*
X44210400Y-49489252D01*
X46030400Y-48066748D02*
X46030400Y-49489252D01*
%TO.C,U4*%
X78342000Y-69910000D02*
X78342000Y-59630000D01*
X73042000Y-59630000D02*
X73042000Y-69910000D01*
X80832000Y-59570000D02*
X70552000Y-59570000D01*
X73042000Y-69910000D02*
X78342000Y-69910000D01*
X70552000Y-69970000D02*
X80832000Y-69970000D01*
X80832000Y-69970000D02*
X80832000Y-59570000D01*
X78342000Y-59630000D02*
X76692000Y-59630000D01*
X74692000Y-59630000D02*
X73042000Y-59630000D01*
X70552000Y-59570000D02*
X70552000Y-69970000D01*
X74692000Y-59630000D02*
G75*
G03*
X76692000Y-59630000I1000000J0D01*
G01*
%TO.C,U3*%
X106053000Y-46158500D02*
X101412000Y-46158500D01*
X104543000Y-46158500D02*
X104543000Y-56398500D01*
X106053000Y-53129500D02*
X104543000Y-53129500D01*
X106053000Y-56398500D02*
X101412000Y-56398500D01*
X106053000Y-49428500D02*
X104543000Y-49428500D01*
X106053000Y-46158500D02*
X106053000Y-56398500D01*
X101412000Y-46158500D02*
X101412000Y-56398500D01*
%TO.C,J6*%
X61337500Y-52010000D02*
X58677500Y-52010000D01*
X61337500Y-54610000D02*
X61337500Y-52010000D01*
X61337500Y-55880000D02*
X61337500Y-57210000D01*
X61337500Y-54610000D02*
X58677500Y-54610000D01*
X58677500Y-54610000D02*
X58677500Y-52010000D01*
X61337500Y-57210000D02*
X60007500Y-57210000D01*
%TO.C,R8*%
X78582000Y-73869064D02*
X78582000Y-72414936D01*
X80402000Y-73869064D02*
X80402000Y-72414936D01*
%TO.C,C15*%
X88225000Y-69656000D02*
X88225000Y-72356000D01*
X87825000Y-74436000D02*
X87825000Y-77285000D01*
X87385000Y-69394000D02*
X87385000Y-72356000D01*
X87545000Y-69429000D02*
X87545000Y-72356000D01*
X88225000Y-74436000D02*
X88225000Y-77136000D01*
X88705000Y-74436000D02*
X88705000Y-76889000D01*
X89465000Y-70489000D02*
X89465000Y-76303000D01*
X87345000Y-69386000D02*
X87345000Y-72356000D01*
X88945000Y-70058000D02*
X88945000Y-76734000D01*
X86584000Y-69316000D02*
X86584000Y-77476000D01*
X89625000Y-70655000D02*
X89625000Y-76137000D01*
X88025000Y-74436000D02*
X88025000Y-77217000D01*
X88865000Y-70004000D02*
X88865000Y-72356000D01*
X87745000Y-74436000D02*
X87745000Y-77310000D01*
X87184000Y-74436000D02*
X87184000Y-77433000D01*
X82574302Y-70681000D02*
X82574302Y-71481000D01*
X90185000Y-71432000D02*
X90185000Y-75360000D01*
X89025000Y-70116000D02*
X89025000Y-76676000D01*
X88665000Y-69879000D02*
X88665000Y-72356000D01*
X88785000Y-74436000D02*
X88785000Y-76840000D01*
X89305000Y-70341000D02*
X89305000Y-76451000D01*
X90425000Y-71943000D02*
X90425000Y-74849000D01*
X89585000Y-70612000D02*
X89585000Y-76180000D01*
X87305000Y-69379000D02*
X87305000Y-72356000D01*
X87104000Y-74436000D02*
X87104000Y-77444000D01*
X88865000Y-74436000D02*
X88865000Y-76788000D01*
X86984000Y-69335000D02*
X86984000Y-72356000D01*
X86944000Y-69331000D02*
X86944000Y-72356000D01*
X88665000Y-74436000D02*
X88665000Y-76913000D01*
X90305000Y-71665000D02*
X90305000Y-75127000D01*
X87905000Y-69533000D02*
X87905000Y-72356000D01*
X88185000Y-69639000D02*
X88185000Y-72356000D01*
X88185000Y-74436000D02*
X88185000Y-77153000D01*
X87305000Y-74436000D02*
X87305000Y-77413000D01*
X87064000Y-69344000D02*
X87064000Y-72356000D01*
X87785000Y-69494000D02*
X87785000Y-72356000D01*
X88625000Y-74436000D02*
X88625000Y-76936000D01*
X87705000Y-74436000D02*
X87705000Y-77321000D01*
X86944000Y-74436000D02*
X86944000Y-77461000D01*
X86784000Y-69320000D02*
X86784000Y-77472000D01*
X87505000Y-74436000D02*
X87505000Y-77372000D01*
X87745000Y-69482000D02*
X87745000Y-72356000D01*
X87825000Y-69507000D02*
X87825000Y-72356000D01*
X86984000Y-74436000D02*
X86984000Y-77457000D01*
X86624000Y-69316000D02*
X86624000Y-77476000D01*
X86744000Y-69319000D02*
X86744000Y-77473000D01*
X89745000Y-70792000D02*
X89745000Y-76000000D01*
X89785000Y-70840000D02*
X89785000Y-75952000D01*
X87224000Y-69366000D02*
X87224000Y-72356000D01*
X88465000Y-69769000D02*
X88465000Y-72356000D01*
X90545000Y-72298000D02*
X90545000Y-74494000D01*
X89825000Y-70891000D02*
X89825000Y-75901000D01*
X87345000Y-74436000D02*
X87345000Y-77406000D01*
X87465000Y-69411000D02*
X87465000Y-72356000D01*
X87425000Y-69402000D02*
X87425000Y-72356000D01*
X89345000Y-70377000D02*
X89345000Y-76415000D01*
X88585000Y-74436000D02*
X88585000Y-76958000D01*
X86864000Y-69325000D02*
X86864000Y-72356000D01*
X88105000Y-74436000D02*
X88105000Y-77186000D01*
X87385000Y-74436000D02*
X87385000Y-77398000D01*
X88385000Y-69730000D02*
X88385000Y-72356000D01*
X87264000Y-74436000D02*
X87264000Y-77420000D01*
X88145000Y-74436000D02*
X88145000Y-77170000D01*
X88345000Y-74436000D02*
X88345000Y-77082000D01*
X88305000Y-69692000D02*
X88305000Y-72356000D01*
X88705000Y-69903000D02*
X88705000Y-72356000D01*
X88305000Y-74436000D02*
X88305000Y-77100000D01*
X90505000Y-72167000D02*
X90505000Y-74625000D01*
X89505000Y-70529000D02*
X89505000Y-76263000D01*
X88065000Y-69591000D02*
X88065000Y-72356000D01*
X89185000Y-70240000D02*
X89185000Y-76552000D01*
X86824000Y-74436000D02*
X86824000Y-77470000D01*
X87465000Y-74436000D02*
X87465000Y-77381000D01*
X88265000Y-74436000D02*
X88265000Y-77118000D01*
X87905000Y-74436000D02*
X87905000Y-77259000D01*
X90665000Y-72863000D02*
X90665000Y-73929000D01*
X87785000Y-74436000D02*
X87785000Y-77298000D01*
X86824000Y-69322000D02*
X86824000Y-72356000D01*
X86864000Y-74436000D02*
X86864000Y-77467000D01*
X87064000Y-74436000D02*
X87064000Y-77448000D01*
X90265000Y-71583000D02*
X90265000Y-75209000D01*
X87945000Y-74436000D02*
X87945000Y-77246000D01*
X90105000Y-71294000D02*
X90105000Y-75498000D01*
X87985000Y-74436000D02*
X87985000Y-77231000D01*
X88625000Y-69856000D02*
X88625000Y-72356000D01*
X87625000Y-69449000D02*
X87625000Y-72356000D01*
X87945000Y-69546000D02*
X87945000Y-72356000D01*
X87625000Y-74436000D02*
X87625000Y-77343000D01*
X88825000Y-69978000D02*
X88825000Y-72356000D01*
X89905000Y-70996000D02*
X89905000Y-75796000D01*
X87985000Y-69561000D02*
X87985000Y-72356000D01*
X90465000Y-72050000D02*
X90465000Y-74742000D01*
X89385000Y-70413000D02*
X89385000Y-76379000D01*
X88545000Y-69812000D02*
X88545000Y-72356000D01*
X88105000Y-69606000D02*
X88105000Y-72356000D01*
X88465000Y-74436000D02*
X88465000Y-77023000D01*
X90385000Y-71844000D02*
X90385000Y-74948000D01*
X86704000Y-69317000D02*
X86704000Y-77475000D01*
X89665000Y-70699000D02*
X89665000Y-76093000D01*
X89705000Y-70745000D02*
X89705000Y-76047000D01*
X88385000Y-74436000D02*
X88385000Y-77062000D01*
X87665000Y-69460000D02*
X87665000Y-72356000D01*
X87865000Y-74436000D02*
X87865000Y-77273000D01*
X90585000Y-72448000D02*
X90585000Y-74344000D01*
X89985000Y-71109000D02*
X89985000Y-75683000D01*
X88585000Y-69834000D02*
X88585000Y-72356000D01*
X88265000Y-69674000D02*
X88265000Y-72356000D01*
X87585000Y-74436000D02*
X87585000Y-77353000D01*
X90345000Y-71751000D02*
X90345000Y-75041000D01*
X88985000Y-70087000D02*
X88985000Y-76705000D01*
X87505000Y-69420000D02*
X87505000Y-72356000D01*
X88505000Y-74436000D02*
X88505000Y-77002000D01*
X88425000Y-69749000D02*
X88425000Y-72356000D01*
X89065000Y-70146000D02*
X89065000Y-76646000D01*
X88425000Y-74436000D02*
X88425000Y-77043000D01*
X88145000Y-69622000D02*
X88145000Y-72356000D01*
X87024000Y-74436000D02*
X87024000Y-77453000D01*
X88825000Y-74436000D02*
X88825000Y-76814000D01*
X89225000Y-70272000D02*
X89225000Y-76520000D01*
X87705000Y-69471000D02*
X87705000Y-72356000D01*
X87144000Y-69354000D02*
X87144000Y-72356000D01*
X89145000Y-70207000D02*
X89145000Y-76585000D01*
X89105000Y-70176000D02*
X89105000Y-76616000D01*
X88745000Y-74436000D02*
X88745000Y-76865000D01*
X89865000Y-70942000D02*
X89865000Y-75850000D01*
X88545000Y-74436000D02*
X88545000Y-76980000D01*
X87264000Y-69372000D02*
X87264000Y-72356000D01*
X89545000Y-70570000D02*
X89545000Y-76222000D01*
X87024000Y-69339000D02*
X87024000Y-72356000D01*
X86664000Y-69316000D02*
X86664000Y-77476000D01*
X89265000Y-70306000D02*
X89265000Y-76486000D01*
X88745000Y-69927000D02*
X88745000Y-72356000D01*
X90065000Y-71230000D02*
X90065000Y-75562000D01*
X86904000Y-74436000D02*
X86904000Y-77464000D01*
X86904000Y-69328000D02*
X86904000Y-72356000D01*
X87865000Y-69519000D02*
X87865000Y-72356000D01*
X87144000Y-74436000D02*
X87144000Y-77438000D01*
X87665000Y-74436000D02*
X87665000Y-77332000D01*
X88065000Y-74436000D02*
X88065000Y-77201000D01*
X88345000Y-69710000D02*
X88345000Y-72356000D01*
X89945000Y-71051000D02*
X89945000Y-75741000D01*
X87585000Y-69439000D02*
X87585000Y-72356000D01*
X87104000Y-69348000D02*
X87104000Y-72356000D01*
X90225000Y-71506000D02*
X90225000Y-75286000D01*
X87224000Y-74436000D02*
X87224000Y-77426000D01*
X89425000Y-70451000D02*
X89425000Y-76341000D01*
X88785000Y-69952000D02*
X88785000Y-72356000D01*
X87425000Y-74436000D02*
X87425000Y-77390000D01*
X88905000Y-70031000D02*
X88905000Y-76761000D01*
X90625000Y-72628000D02*
X90625000Y-74164000D01*
X88025000Y-69575000D02*
X88025000Y-72356000D01*
X87184000Y-69359000D02*
X87184000Y-72356000D01*
X82174302Y-71081000D02*
X82974302Y-71081000D01*
X90025000Y-71168000D02*
X90025000Y-75624000D01*
X90145000Y-71362000D02*
X90145000Y-75430000D01*
X88505000Y-69790000D02*
X88505000Y-72356000D01*
X87545000Y-74436000D02*
X87545000Y-77363000D01*
X90704000Y-73396000D02*
G75*
G03*
X90704000Y-73396000I-4120000J0D01*
G01*
%TO.C,J7*%
X43430500Y-60397000D02*
X40770500Y-60397000D01*
X43430500Y-62997000D02*
X40770500Y-62997000D01*
X43430500Y-64267000D02*
X43430500Y-65597000D01*
X43430500Y-62997000D02*
X43430500Y-60397000D01*
X43430500Y-65597000D02*
X42100500Y-65597000D01*
X40770500Y-62997000D02*
X40770500Y-60397000D01*
%TO.C,C6*%
X60663500Y-47612248D02*
X60663500Y-49034752D01*
X58843500Y-47612248D02*
X58843500Y-49034752D01*
%TO.C,C4*%
X68450903Y-69734000D02*
X67028399Y-69734000D01*
X68450903Y-67914000D02*
X67028399Y-67914000D01*
%TO.C,C5*%
X55496152Y-40756000D02*
X54073648Y-40756000D01*
X55496152Y-42576000D02*
X54073648Y-42576000D01*
%TO.C,RV1*%
X52675000Y-82067500D02*
X46435000Y-82067500D01*
X54525000Y-76902500D02*
X54525000Y-81267500D01*
X44585000Y-76902500D02*
X44585000Y-81267500D01*
X53075000Y-81267500D02*
X46035000Y-81267500D01*
X46035000Y-81267500D02*
X46035000Y-82067500D01*
X53075000Y-81267500D02*
X53075000Y-82067500D01*
X53075000Y-82067500D02*
X46035000Y-82067500D01*
X51999000Y-76027500D02*
X47110000Y-76027500D01*
X54525000Y-81267500D02*
X44585000Y-81267500D01*
D15*
%TO.C,J1*%
X57565800Y-38470500D02*
X42865800Y-38470500D01*
X55715800Y-24070500D02*
X57565800Y-24070500D01*
X44715800Y-24070500D02*
X55715800Y-24070500D01*
X42865800Y-38470500D02*
X42865800Y-24070500D01*
X57565800Y-24070500D02*
X57565800Y-38470500D01*
X42865800Y-24070500D02*
X44715800Y-24070500D01*
D11*
X50315800Y-38942500D02*
G75*
G03*
X50315800Y-38942500I-100000J0D01*
G01*
D13*
%TO.C,J5*%
X96672000Y-82547000D02*
X102672000Y-82547000D01*
X102672000Y-71047000D02*
X102672000Y-71547000D01*
X102672000Y-75547000D02*
X102672000Y-78547000D01*
X99172000Y-71047000D02*
X102672000Y-71047000D01*
X96672000Y-73747000D02*
X96672000Y-82547000D01*
D14*
%TO.C,R3*%
X77367000Y-31781500D02*
X77697000Y-31781500D01*
X74957000Y-31781500D02*
X74957000Y-25241500D01*
X75287000Y-31781500D02*
X74957000Y-31781500D01*
X77697000Y-31781500D02*
X77697000Y-25241500D01*
X74957000Y-25241500D02*
X75287000Y-25241500D01*
X77697000Y-25241500D02*
X77367000Y-25241500D01*
%TO.C,C10*%
X100208000Y-54480752D02*
X100208000Y-53058248D01*
X98388000Y-54480752D02*
X98388000Y-53058248D01*
%TO.C,R1*%
X66963587Y-67194000D02*
X68417715Y-67194000D01*
X66963587Y-65374000D02*
X68417715Y-65374000D01*
%TO.C,C3*%
X47626400Y-64368349D02*
X45126400Y-64368349D01*
X52613400Y-63368349D02*
X49706400Y-63368349D01*
X52543400Y-63608349D02*
X49706400Y-63608349D01*
X52746400Y-62327349D02*
X44586400Y-62327349D01*
X52602400Y-63408349D02*
X49706400Y-63408349D01*
X52633400Y-63288349D02*
X49706400Y-63288349D01*
X51317400Y-65448349D02*
X46015400Y-65448349D01*
X50894400Y-65768349D02*
X46438400Y-65768349D01*
X50953400Y-65728349D02*
X46379400Y-65728349D01*
X47626400Y-62807349D02*
X44614400Y-62807349D01*
X47626400Y-63288349D02*
X44699400Y-63288349D01*
X47626400Y-64408349D02*
X45149400Y-64408349D01*
X47626400Y-62847349D02*
X44618400Y-62847349D01*
X47626400Y-62967349D02*
X44636400Y-62967349D01*
X51066400Y-65648349D02*
X46266400Y-65648349D01*
X47626400Y-62927349D02*
X44629400Y-62927349D01*
X52206400Y-64368349D02*
X49706400Y-64368349D01*
X49199400Y-66408349D02*
X48133400Y-66408349D01*
X50981400Y-57917651D02*
X50981400Y-58717651D01*
X52668400Y-63128349D02*
X49706400Y-63128349D01*
X52734400Y-62647349D02*
X49706400Y-62647349D01*
X50218400Y-66128349D02*
X47114400Y-66128349D01*
X52642400Y-63248349D02*
X49706400Y-63248349D01*
X51822400Y-64928349D02*
X45510400Y-64928349D01*
X52580400Y-63488349D02*
X49706400Y-63488349D01*
X47626400Y-63168349D02*
X44672400Y-63168349D01*
X47626400Y-63688349D02*
X44816400Y-63688349D01*
X52423400Y-63928349D02*
X49706400Y-63928349D01*
X47626400Y-64088349D02*
X44980400Y-64088349D01*
X47626400Y-64448349D02*
X45173400Y-64448349D01*
X52727400Y-62727349D02*
X49706400Y-62727349D01*
X52058400Y-64608349D02*
X49706400Y-64608349D01*
X51222400Y-65528349D02*
X46110400Y-65528349D01*
X47626400Y-63248349D02*
X44690400Y-63248349D01*
X52084400Y-64568349D02*
X49706400Y-64568349D01*
X50700400Y-65888349D02*
X46632400Y-65888349D01*
X50556400Y-65968349D02*
X46776400Y-65968349D01*
X47626400Y-63928349D02*
X44909400Y-63928349D01*
X51756400Y-65008349D02*
X45576400Y-65008349D01*
X52183400Y-64408349D02*
X49706400Y-64408349D01*
X47626400Y-64528349D02*
X45222400Y-64528349D01*
X49434400Y-66368349D02*
X47898400Y-66368349D01*
X47626400Y-63568349D02*
X44777400Y-63568349D01*
X52529400Y-63648349D02*
X49706400Y-63648349D01*
X52737400Y-62607349D02*
X49706400Y-62607349D01*
X52440400Y-63888349D02*
X49706400Y-63888349D01*
X51886400Y-64848349D02*
X45446400Y-64848349D01*
X52555400Y-63568349D02*
X49706400Y-63568349D01*
X47626400Y-62687349D02*
X44601400Y-62687349D01*
X52272400Y-64248349D02*
X49706400Y-64248349D01*
X51533400Y-65248349D02*
X45799400Y-65248349D01*
X49614400Y-66328349D02*
X47718400Y-66328349D01*
X47626400Y-63328349D02*
X44709400Y-63328349D01*
X51649400Y-65128349D02*
X45683400Y-65128349D01*
X47626400Y-62607349D02*
X44595400Y-62607349D01*
X47626400Y-63848349D02*
X44876400Y-63848349D01*
X52660400Y-63168349D02*
X49706400Y-63168349D01*
X47626400Y-63808349D02*
X44861400Y-63808349D01*
X47626400Y-63488349D02*
X44752400Y-63488349D01*
X52676400Y-63088349D02*
X49706400Y-63088349D01*
X51120400Y-65608349D02*
X46212400Y-65608349D01*
X52708400Y-62887349D02*
X49706400Y-62887349D01*
X52746400Y-62407349D02*
X44586400Y-62407349D01*
X47626400Y-63088349D02*
X44656400Y-63088349D01*
X52159400Y-64448349D02*
X49706400Y-64448349D01*
X50119400Y-66168349D02*
X47213400Y-66168349D01*
X47626400Y-64288349D02*
X45082400Y-64288349D01*
X49895400Y-66248349D02*
X47437400Y-66248349D01*
X51450400Y-65328349D02*
X45882400Y-65328349D01*
X47626400Y-64568349D02*
X45248400Y-64568349D01*
X52703400Y-62927349D02*
X49706400Y-62927349D01*
X52370400Y-64048349D02*
X49706400Y-64048349D01*
X47626400Y-63528349D02*
X44764400Y-63528349D01*
X47626400Y-63368349D02*
X44719400Y-63368349D01*
X52228400Y-64328349D02*
X49706400Y-64328349D01*
X51363400Y-65408349D02*
X45969400Y-65408349D01*
X52591400Y-63448349D02*
X49706400Y-63448349D01*
X47626400Y-63408349D02*
X44730400Y-63408349D01*
X52745400Y-62447349D02*
X44587400Y-62447349D01*
X47626400Y-63048349D02*
X44649400Y-63048349D01*
X51855400Y-64888349D02*
X45477400Y-64888349D01*
X52456400Y-63848349D02*
X49706400Y-63848349D01*
X52623400Y-63328349D02*
X49706400Y-63328349D01*
X52746400Y-62367349D02*
X44586400Y-62367349D01*
X52352400Y-64088349D02*
X49706400Y-64088349D01*
X47626400Y-64128349D02*
X45000400Y-64128349D01*
X52731400Y-62687349D02*
X49706400Y-62687349D01*
X47626400Y-63128349D02*
X44664400Y-63128349D01*
X52471400Y-63808349D02*
X49706400Y-63808349D01*
X52135400Y-64488349D02*
X49706400Y-64488349D01*
X52723400Y-62767349D02*
X49706400Y-62767349D01*
X50012400Y-66208349D02*
X47320400Y-66208349D01*
X52332400Y-64128349D02*
X49706400Y-64128349D01*
X50479400Y-66008349D02*
X46853400Y-66008349D01*
X49764400Y-66288349D02*
X47568400Y-66288349D01*
X47626400Y-64248349D02*
X45060400Y-64248349D01*
X50832400Y-65808349D02*
X46500400Y-65808349D01*
X47626400Y-63728349D02*
X44831400Y-63728349D01*
X52683400Y-63048349D02*
X49706400Y-63048349D01*
X47626400Y-62887349D02*
X44624400Y-62887349D01*
X47626400Y-62567349D02*
X44592400Y-62567349D01*
X47626400Y-63968349D02*
X44926400Y-63968349D01*
X50397400Y-66048349D02*
X46935400Y-66048349D01*
X51573400Y-65208349D02*
X45759400Y-65208349D01*
X52718400Y-62807349D02*
X49706400Y-62807349D01*
X52742400Y-62527349D02*
X44590400Y-62527349D01*
X50630400Y-65928349D02*
X46702400Y-65928349D01*
X52487400Y-63768349D02*
X49706400Y-63768349D01*
X51381400Y-58317651D02*
X50581400Y-58317651D01*
X51790400Y-64968349D02*
X45542400Y-64968349D01*
X47626400Y-63448349D02*
X44741400Y-63448349D01*
X50311400Y-66088349D02*
X47021400Y-66088349D01*
X47626400Y-63648349D02*
X44803400Y-63648349D01*
X47626400Y-64008349D02*
X44944400Y-64008349D01*
X47626400Y-63608349D02*
X44789400Y-63608349D01*
X52714400Y-62847349D02*
X49706400Y-62847349D01*
X51270400Y-65488349D02*
X46062400Y-65488349D01*
X51611400Y-65168349D02*
X45721400Y-65168349D01*
X52388400Y-64008349D02*
X49706400Y-64008349D01*
X52743400Y-62487349D02*
X44589400Y-62487349D01*
X52501400Y-63728349D02*
X49706400Y-63728349D01*
X52250400Y-64288349D02*
X49706400Y-64288349D01*
X51946400Y-64768349D02*
X45386400Y-64768349D01*
X47626400Y-63208349D02*
X44681400Y-63208349D01*
X52110400Y-64528349D02*
X49706400Y-64528349D01*
X52690400Y-63007349D02*
X49706400Y-63007349D01*
X47626400Y-62767349D02*
X44609400Y-62767349D01*
X47626400Y-64168349D02*
X45019400Y-64168349D01*
X52568400Y-63528349D02*
X49706400Y-63528349D01*
X47626400Y-64608349D02*
X45274400Y-64608349D01*
X47626400Y-64048349D02*
X44962400Y-64048349D01*
X51975400Y-64728349D02*
X45357400Y-64728349D01*
X47626400Y-63888349D02*
X44892400Y-63888349D01*
X47626400Y-62727349D02*
X44605400Y-62727349D01*
X52313400Y-64168349D02*
X49706400Y-64168349D01*
X51011400Y-65688349D02*
X46321400Y-65688349D01*
X47626400Y-63007349D02*
X44642400Y-63007349D01*
X51685400Y-65088349D02*
X45647400Y-65088349D01*
X51171400Y-65568349D02*
X46161400Y-65568349D01*
X47626400Y-64328349D02*
X45104400Y-64328349D01*
X47626400Y-62647349D02*
X44598400Y-62647349D01*
X52696400Y-62967349D02*
X49706400Y-62967349D01*
X51492400Y-65288349D02*
X45840400Y-65288349D01*
X51916400Y-64808349D02*
X45416400Y-64808349D01*
X47626400Y-64488349D02*
X45197400Y-64488349D01*
X51407400Y-65368349D02*
X45925400Y-65368349D01*
X52406400Y-63968349D02*
X49706400Y-63968349D01*
X52004400Y-64688349D02*
X45328400Y-64688349D01*
X51721400Y-65048349D02*
X45611400Y-65048349D01*
X50768400Y-65848349D02*
X46564400Y-65848349D01*
X52516400Y-63688349D02*
X49706400Y-63688349D01*
X52031400Y-64648349D02*
X45301400Y-64648349D01*
X52740400Y-62567349D02*
X49706400Y-62567349D01*
X47626400Y-64208349D02*
X45039400Y-64208349D01*
X52293400Y-64208349D02*
X49706400Y-64208349D01*
X52651400Y-63208349D02*
X49706400Y-63208349D01*
X47626400Y-63768349D02*
X44845400Y-63768349D01*
X52786400Y-62327349D02*
G75*
G03*
X52786400Y-62327349I-4120000J0D01*
G01*
%TO.C,U2*%
X49582400Y-43638000D02*
X49582400Y-53918000D01*
X54882400Y-53918000D02*
X54882400Y-43638000D01*
X54882400Y-43638000D02*
X53232400Y-43638000D01*
X47092400Y-53978000D02*
X57372400Y-53978000D01*
X51232400Y-43638000D02*
X49582400Y-43638000D01*
X49582400Y-53918000D02*
X54882400Y-53918000D01*
X57372400Y-43578000D02*
X47092400Y-43578000D01*
X47092400Y-43578000D02*
X47092400Y-53978000D01*
X57372400Y-53978000D02*
X57372400Y-43578000D01*
X51232400Y-43638000D02*
G75*
G03*
X53232400Y-43638000I1000000J0D01*
G01*
D11*
%TO.C,J3*%
X82650000Y-27446500D02*
G75*
G03*
X82650000Y-27446500I-100000J0D01*
G01*
D14*
%TO.C,C14*%
X76529903Y-75322000D02*
X75107399Y-75322000D01*
X76529903Y-73502000D02*
X75107399Y-73502000D01*
%TO.C,D1*%
X114029200Y-39355200D02*
X114185200Y-39355200D01*
X116345200Y-39355200D02*
X116501200Y-39355200D01*
X116500716Y-39355200D02*
G75*
G03*
X116343808Y-36122865I-1235516J1560000D01*
G01*
X114186592Y-36122865D02*
G75*
G03*
X114029684Y-39355200I1078608J-1672335D01*
G01*
X114185363Y-36754070D02*
G75*
G03*
X114185200Y-38836161I1079837J-1041130D01*
G01*
X116345200Y-38836161D02*
G75*
G03*
X116345037Y-36754070I-1080000J1040961D01*
G01*
%TO.C,D2*%
X103365000Y-43604500D02*
X108805000Y-43604500D01*
X108805000Y-40664500D02*
X103365000Y-40664500D01*
X102345000Y-42134500D02*
X103365000Y-42134500D01*
X109825000Y-42134500D02*
X108805000Y-42134500D01*
X103365000Y-40664500D02*
X103365000Y-43604500D01*
X107905000Y-43604500D02*
X107905000Y-40664500D01*
X107785000Y-43604500D02*
X107785000Y-40664500D01*
X108805000Y-43604500D02*
X108805000Y-40664500D01*
X108025000Y-43604500D02*
X108025000Y-40664500D01*
%TO.C,C13*%
X83059748Y-67458000D02*
X84482252Y-67458000D01*
X83059748Y-65638000D02*
X84482252Y-65638000D01*
%TO.C,J9*%
X79243000Y-80578000D02*
X77913000Y-80578000D01*
X80513000Y-80578000D02*
X80513000Y-77918000D01*
X77913000Y-80578000D02*
X77913000Y-79248000D01*
X80513000Y-80578000D02*
X83113000Y-80578000D01*
X80513000Y-77918000D02*
X83113000Y-77918000D01*
X83113000Y-80578000D02*
X83113000Y-77918000D01*
%TO.C,C1*%
X47599652Y-56536000D02*
X46177148Y-56536000D01*
X47599652Y-54716000D02*
X46177148Y-54716000D01*
%TO.C,C12*%
X77118000Y-55640000D02*
X77118000Y-58657000D01*
X76958000Y-50529000D02*
X76958000Y-53560000D01*
X78159000Y-55640000D02*
X78159000Y-58405000D01*
X80439000Y-52955000D02*
X80439000Y-56245000D01*
X77198000Y-50552000D02*
X77198000Y-53560000D01*
X78359000Y-55640000D02*
X78359000Y-58322000D01*
X77479000Y-50598000D02*
X77479000Y-53560000D01*
X78319000Y-55640000D02*
X78319000Y-58340000D01*
X79319000Y-51476000D02*
X79319000Y-57724000D01*
X78319000Y-50860000D02*
X78319000Y-53560000D01*
X78639000Y-51016000D02*
X78639000Y-53560000D01*
X78599000Y-55640000D02*
X78599000Y-58206000D01*
X76958000Y-55640000D02*
X76958000Y-58671000D01*
X77839000Y-50686000D02*
X77839000Y-53560000D01*
X78719000Y-51060000D02*
X78719000Y-53560000D01*
X77318000Y-50570000D02*
X77318000Y-53560000D01*
X77038000Y-50535000D02*
X77038000Y-53560000D01*
X80559000Y-53254000D02*
X80559000Y-55946000D01*
X80399000Y-52869000D02*
X80399000Y-56331000D01*
X76718000Y-50520000D02*
X76718000Y-58680000D01*
X79479000Y-51617000D02*
X79479000Y-57583000D01*
X77919000Y-50711000D02*
X77919000Y-53560000D01*
X78679000Y-55640000D02*
X78679000Y-58162000D01*
X80119000Y-52372000D02*
X80119000Y-56828000D01*
X80279000Y-52636000D02*
X80279000Y-56564000D01*
X78839000Y-51131000D02*
X78839000Y-53560000D01*
X80039000Y-52255000D02*
X80039000Y-56945000D01*
X80599000Y-53371000D02*
X80599000Y-55829000D01*
X77559000Y-50615000D02*
X77559000Y-53560000D01*
X79639000Y-51774000D02*
X79639000Y-57426000D01*
X77118000Y-50543000D02*
X77118000Y-53560000D01*
X80719000Y-53832000D02*
X80719000Y-55368000D01*
X80359000Y-52787000D02*
X80359000Y-56413000D01*
X76838000Y-50523000D02*
X76838000Y-58677000D01*
X79839000Y-51996000D02*
X79839000Y-57204000D01*
X76998000Y-50532000D02*
X76998000Y-53560000D01*
X76798000Y-50521000D02*
X76798000Y-58679000D01*
X78759000Y-51083000D02*
X78759000Y-53560000D01*
X79919000Y-52095000D02*
X79919000Y-57105000D01*
X77999000Y-50737000D02*
X77999000Y-53560000D01*
X77238000Y-50558000D02*
X77238000Y-53560000D01*
X77358000Y-55640000D02*
X77358000Y-58624000D01*
X78879000Y-51156000D02*
X78879000Y-53560000D01*
X80159000Y-52434000D02*
X80159000Y-56766000D01*
X78639000Y-55640000D02*
X78639000Y-58184000D01*
X78479000Y-55640000D02*
X78479000Y-58266000D01*
X79879000Y-52044000D02*
X79879000Y-57156000D01*
X77158000Y-50548000D02*
X77158000Y-53560000D01*
X79999000Y-52200000D02*
X79999000Y-57000000D01*
X79239000Y-51411000D02*
X79239000Y-57789000D01*
X72268302Y-52285000D02*
X73068302Y-52285000D01*
X76678000Y-50520000D02*
X76678000Y-58680000D01*
X77639000Y-50633000D02*
X77639000Y-53560000D01*
X80479000Y-53048000D02*
X80479000Y-56152000D01*
X76878000Y-50524000D02*
X76878000Y-58676000D01*
X78919000Y-51182000D02*
X78919000Y-53560000D01*
X80639000Y-53502000D02*
X80639000Y-55698000D01*
X77719000Y-50653000D02*
X77719000Y-53560000D01*
X78559000Y-50973000D02*
X78559000Y-53560000D01*
X80319000Y-52710000D02*
X80319000Y-56490000D01*
X76998000Y-55640000D02*
X76998000Y-58668000D01*
X78199000Y-50810000D02*
X78199000Y-53560000D01*
X77358000Y-50576000D02*
X77358000Y-53560000D01*
X79599000Y-51733000D02*
X79599000Y-57467000D01*
X78719000Y-55640000D02*
X78719000Y-58140000D01*
X78519000Y-55640000D02*
X78519000Y-58247000D01*
X78799000Y-51107000D02*
X78799000Y-53560000D01*
X78839000Y-55640000D02*
X78839000Y-58069000D01*
X78679000Y-51038000D02*
X78679000Y-53560000D01*
X78959000Y-55640000D02*
X78959000Y-57992000D01*
X77519000Y-50606000D02*
X77519000Y-53560000D01*
X79159000Y-51350000D02*
X79159000Y-57850000D01*
X78399000Y-50896000D02*
X78399000Y-53560000D01*
X76758000Y-50520000D02*
X76758000Y-58680000D01*
X77439000Y-55640000D02*
X77439000Y-58610000D01*
X77799000Y-50675000D02*
X77799000Y-53560000D01*
X77559000Y-55640000D02*
X77559000Y-58585000D01*
X77078000Y-50539000D02*
X77078000Y-53560000D01*
X77038000Y-55640000D02*
X77038000Y-58665000D01*
X77599000Y-55640000D02*
X77599000Y-58576000D01*
X79719000Y-51859000D02*
X79719000Y-57341000D01*
X80679000Y-53652000D02*
X80679000Y-55548000D01*
X79359000Y-51510000D02*
X79359000Y-57690000D01*
X77078000Y-55640000D02*
X77078000Y-58661000D01*
X77639000Y-55640000D02*
X77639000Y-58567000D01*
X80079000Y-52313000D02*
X80079000Y-56887000D01*
X77399000Y-55640000D02*
X77399000Y-58617000D01*
X80759000Y-54067000D02*
X80759000Y-55133000D01*
X79679000Y-51816000D02*
X79679000Y-57384000D01*
X77919000Y-55640000D02*
X77919000Y-58489000D01*
X77759000Y-55640000D02*
X77759000Y-58536000D01*
X77959000Y-50723000D02*
X77959000Y-53560000D01*
X78079000Y-55640000D02*
X78079000Y-58435000D01*
X77318000Y-55640000D02*
X77318000Y-58630000D01*
X80239000Y-52566000D02*
X80239000Y-56634000D01*
X78159000Y-50795000D02*
X78159000Y-53560000D01*
X78279000Y-50843000D02*
X78279000Y-53560000D01*
X77599000Y-50624000D02*
X77599000Y-53560000D01*
X78039000Y-55640000D02*
X78039000Y-58450000D01*
X79199000Y-51380000D02*
X79199000Y-57820000D01*
X77719000Y-55640000D02*
X77719000Y-58547000D01*
X78959000Y-51208000D02*
X78959000Y-53560000D01*
X78759000Y-55640000D02*
X78759000Y-58117000D01*
X72668302Y-51885000D02*
X72668302Y-52685000D01*
X78239000Y-50826000D02*
X78239000Y-53560000D01*
X78199000Y-55640000D02*
X78199000Y-58390000D01*
X79559000Y-51693000D02*
X79559000Y-57507000D01*
X78399000Y-55640000D02*
X78399000Y-58304000D01*
X77238000Y-55640000D02*
X77238000Y-58642000D01*
X77799000Y-55640000D02*
X77799000Y-58525000D01*
X78359000Y-50878000D02*
X78359000Y-53560000D01*
X77759000Y-50664000D02*
X77759000Y-53560000D01*
X77679000Y-55640000D02*
X77679000Y-58557000D01*
X78119000Y-50779000D02*
X78119000Y-53560000D01*
X78519000Y-50953000D02*
X78519000Y-53560000D01*
X77999000Y-55640000D02*
X77999000Y-58463000D01*
X78239000Y-55640000D02*
X78239000Y-58374000D01*
X77839000Y-55640000D02*
X77839000Y-58514000D01*
X79439000Y-51581000D02*
X79439000Y-57619000D01*
X77198000Y-55640000D02*
X77198000Y-58648000D01*
X78559000Y-55640000D02*
X78559000Y-58227000D01*
X78999000Y-51235000D02*
X78999000Y-57965000D01*
X79759000Y-51903000D02*
X79759000Y-57297000D01*
X78039000Y-50750000D02*
X78039000Y-53560000D01*
X77679000Y-50643000D02*
X77679000Y-53560000D01*
X79279000Y-51444000D02*
X79279000Y-57756000D01*
X77439000Y-50590000D02*
X77439000Y-53560000D01*
X79119000Y-51320000D02*
X79119000Y-57880000D01*
X78479000Y-50934000D02*
X78479000Y-53560000D01*
X78119000Y-55640000D02*
X78119000Y-58421000D01*
X77278000Y-50563000D02*
X77278000Y-53560000D01*
X78439000Y-50914000D02*
X78439000Y-53560000D01*
X79519000Y-51655000D02*
X79519000Y-57545000D01*
X77879000Y-55640000D02*
X77879000Y-58502000D01*
X78439000Y-55640000D02*
X78439000Y-58286000D01*
X79079000Y-51291000D02*
X79079000Y-57909000D01*
X76918000Y-50526000D02*
X76918000Y-53560000D01*
X76918000Y-55640000D02*
X76918000Y-58674000D01*
X77278000Y-55640000D02*
X77278000Y-58637000D01*
X78879000Y-55640000D02*
X78879000Y-58044000D01*
X79799000Y-51949000D02*
X79799000Y-57251000D01*
X77158000Y-55640000D02*
X77158000Y-58652000D01*
X80519000Y-53147000D02*
X80519000Y-56053000D01*
X77519000Y-55640000D02*
X77519000Y-58594000D01*
X77399000Y-50583000D02*
X77399000Y-53560000D01*
X80199000Y-52498000D02*
X80199000Y-56702000D01*
X77879000Y-50698000D02*
X77879000Y-53560000D01*
X78079000Y-50765000D02*
X78079000Y-53560000D01*
X79399000Y-51545000D02*
X79399000Y-57655000D01*
X78919000Y-55640000D02*
X78919000Y-58018000D01*
X77959000Y-55640000D02*
X77959000Y-58477000D01*
X79039000Y-51262000D02*
X79039000Y-57938000D01*
X78599000Y-50994000D02*
X78599000Y-53560000D01*
X77479000Y-55640000D02*
X77479000Y-58602000D01*
X78279000Y-55640000D02*
X78279000Y-58357000D01*
X78799000Y-55640000D02*
X78799000Y-58093000D01*
X79959000Y-52146000D02*
X79959000Y-57054000D01*
X80798000Y-54600000D02*
G75*
G03*
X80798000Y-54600000I-4120000J0D01*
G01*
%TO.C,R5*%
X88736500Y-31781500D02*
X88736500Y-25241500D01*
X91476500Y-31781500D02*
X91476500Y-25241500D01*
X91146500Y-31781500D02*
X91476500Y-31781500D01*
X88736500Y-25241500D02*
X89066500Y-25241500D01*
X89066500Y-31781500D02*
X88736500Y-31781500D01*
X91476500Y-25241500D02*
X91146500Y-25241500D01*
%TO.C,R6*%
X110255000Y-38543564D02*
X110255000Y-37089436D01*
X112075000Y-38543564D02*
X112075000Y-37089436D01*
%TO.C,U1*%
X35691400Y-35306000D02*
X35691400Y-36416000D01*
X35645400Y-69436000D02*
X34315400Y-69436000D01*
X35645400Y-68326000D02*
X35645400Y-69436000D01*
X35691400Y-36416000D02*
X34361400Y-36416000D01*
X23901400Y-71374000D02*
X37871400Y-71374000D01*
X37871400Y-71374000D02*
X37871400Y-33274000D01*
X37871400Y-33274000D02*
X23901400Y-33274000D01*
X23901400Y-33274000D02*
X23901400Y-71374000D01*
%TO.C,J8*%
X33214000Y-27490500D02*
X33214000Y-26160500D01*
X33214000Y-28760500D02*
X33214000Y-31360500D01*
X35874000Y-28760500D02*
X35874000Y-31360500D01*
X33214000Y-31360500D02*
X35874000Y-31360500D01*
X33214000Y-26160500D02*
X34544000Y-26160500D01*
X33214000Y-28760500D02*
X35874000Y-28760500D01*
%TO.C,J2*%
X43492500Y-42414500D02*
X43492500Y-39754500D01*
X43492500Y-42414500D02*
X46092500Y-42414500D01*
X46092500Y-42414500D02*
X46092500Y-39754500D01*
X43492500Y-39754500D02*
X46092500Y-39754500D01*
X42222500Y-42414500D02*
X40892500Y-42414500D01*
X40892500Y-42414500D02*
X40892500Y-41084500D01*
%TO.C,R2*%
X60325464Y-40756000D02*
X58871336Y-40756000D01*
X60325464Y-42576000D02*
X58871336Y-42576000D01*
%TO.C,REF\u002A\u002A*%
G36*
X24574037Y-42005306D02*
G01*
X24578843Y-41930811D01*
X24586839Y-41862604D01*
X24597711Y-41807241D01*
X24601489Y-41794110D01*
X24649325Y-41674865D01*
X24713396Y-41563212D01*
X24790902Y-41463397D01*
X24870369Y-41386740D01*
X24928809Y-41343202D01*
X24995951Y-41301109D01*
X25064703Y-41264437D01*
X25127971Y-41237166D01*
X25150290Y-41229740D01*
X25178655Y-41220069D01*
X25190755Y-41210283D01*
X25191285Y-41195445D01*
X25189659Y-41188354D01*
X25170682Y-41076286D01*
X25172185Y-40967881D01*
X25194280Y-40859888D01*
X25202019Y-40835556D01*
X25251048Y-40721043D01*
X25316574Y-40615317D01*
X25396302Y-40519991D01*
X25487940Y-40436677D01*
X25589191Y-40366989D01*
X25697763Y-40312539D01*
X25811361Y-40274939D01*
X25927691Y-40255802D01*
X26027485Y-40255292D01*
X26113253Y-40266438D01*
X26198316Y-40288369D01*
X26288030Y-40322775D01*
X26375558Y-40364957D01*
X26485827Y-40422201D01*
X26525627Y-40373631D01*
X26569620Y-40327374D01*
X26626983Y-40277734D01*
X26691273Y-40229686D01*
X26756045Y-40188208D01*
X26789026Y-40170257D01*
X26900872Y-40123684D01*
X27021366Y-40090968D01*
X27145319Y-40072787D01*
X27267538Y-40069820D01*
X27382833Y-40082745D01*
X27411588Y-40088924D01*
X27463045Y-40102711D01*
X27515046Y-40119070D01*
X27557700Y-40134846D01*
X27563784Y-40137452D01*
X27623533Y-40163876D01*
X27641361Y-40092903D01*
X27686145Y-39957796D01*
X27749953Y-39829526D01*
X27830839Y-39710137D01*
X27926861Y-39601671D01*
X28036074Y-39506173D01*
X28156536Y-39425686D01*
X28286303Y-39362253D01*
X28362240Y-39334965D01*
X28464631Y-39307380D01*
X28563194Y-39291260D01*
X28666664Y-39285517D01*
X28746563Y-39287083D01*
X28895149Y-39302588D01*
X29033471Y-39336068D01*
X29164328Y-39388410D01*
X29287929Y-39458799D01*
X29353890Y-39507231D01*
X29423367Y-39567137D01*
X29490662Y-39632967D01*
X29550075Y-39699171D01*
X29593164Y-39756067D01*
X29634988Y-39824827D01*
X29675049Y-39902394D01*
X29709741Y-39981052D01*
X29735459Y-40053085D01*
X29740820Y-40071999D01*
X29759039Y-40141464D01*
X29845652Y-40100181D01*
X29931795Y-40063275D01*
X30011077Y-40039366D01*
X30092086Y-40026494D01*
X30183414Y-40022696D01*
X30184975Y-40022698D01*
X30320269Y-40032894D01*
X30447347Y-40062955D01*
X30566291Y-40112917D01*
X30677184Y-40182816D01*
X30780109Y-40272688D01*
X30795114Y-40288155D01*
X30875901Y-40386611D01*
X30938287Y-40493606D01*
X30978756Y-40594334D01*
X30990666Y-40633059D01*
X30998618Y-40668305D01*
X31003385Y-40706287D01*
X31005743Y-40753220D01*
X31006468Y-40815319D01*
X31006471Y-40816574D01*
X31006226Y-40876048D01*
X31004596Y-40920286D01*
X31000674Y-40955557D01*
X30993554Y-40988128D01*
X30982328Y-41024265D01*
X30972245Y-41053070D01*
X30957448Y-41094540D01*
X30945831Y-41127132D01*
X30938958Y-41146455D01*
X30937762Y-41149852D01*
X30947829Y-41149942D01*
X30975201Y-41150125D01*
X31015677Y-41150375D01*
X31064117Y-41150658D01*
X31176869Y-41156997D01*
X31277602Y-41175619D01*
X31372896Y-41208008D01*
X31424856Y-41231968D01*
X31545224Y-41303601D01*
X31650484Y-41389787D01*
X31739702Y-41489307D01*
X31811942Y-41600945D01*
X31866270Y-41723481D01*
X31901153Y-41852554D01*
X31915141Y-41980663D01*
X31908827Y-42108058D01*
X31883361Y-42232463D01*
X31839892Y-42351601D01*
X31779568Y-42463197D01*
X31703539Y-42564973D01*
X31612953Y-42654654D01*
X31508961Y-42729964D01*
X31439024Y-42768070D01*
X31385025Y-42792258D01*
X31328224Y-42814665D01*
X31276996Y-42832112D01*
X31252270Y-42838913D01*
X31174306Y-42857289D01*
X31174306Y-43021325D01*
X31174575Y-43085375D01*
X31175647Y-43131609D01*
X31177923Y-43163714D01*
X31181803Y-43185375D01*
X31187686Y-43200279D01*
X31194848Y-43210747D01*
X31215390Y-43236134D01*
X31676072Y-43242098D01*
X31798032Y-43243777D01*
X31900906Y-43245611D01*
X31987116Y-43247932D01*
X32059080Y-43251072D01*
X32119221Y-43255363D01*
X32169959Y-43261138D01*
X32213715Y-43268728D01*
X32252909Y-43278466D01*
X32289962Y-43290683D01*
X32327294Y-43305713D01*
X32367327Y-43323887D01*
X32405593Y-43342204D01*
X32532684Y-43415227D01*
X32645585Y-43504088D01*
X32743478Y-43607779D01*
X32825545Y-43725294D01*
X32890970Y-43855627D01*
X32938936Y-43997771D01*
X32939427Y-43999640D01*
X32964780Y-44096422D01*
X32964780Y-47526820D01*
X32940462Y-47622280D01*
X32894136Y-47763419D01*
X32830029Y-47892566D01*
X32747871Y-48010212D01*
X32696557Y-48068449D01*
X32587505Y-48169359D01*
X32471013Y-48250312D01*
X32346050Y-48311879D01*
X32211588Y-48354630D01*
X32162087Y-48365255D01*
X32134113Y-48369717D01*
X32100374Y-48373347D01*
X32058618Y-48376217D01*
X32006589Y-48378401D01*
X31942034Y-48379972D01*
X31862698Y-48381001D01*
X31766326Y-48381564D01*
X31652845Y-48381731D01*
X31546117Y-48381779D01*
X31458795Y-48381986D01*
X31388780Y-48382448D01*
X31333968Y-48383263D01*
X31292261Y-48384526D01*
X31261557Y-48386335D01*
X31239755Y-48388784D01*
X31224756Y-48391971D01*
X31214456Y-48395993D01*
X31206757Y-48400945D01*
X31205070Y-48402277D01*
X31179683Y-48422822D01*
X31174306Y-48915761D01*
X31173008Y-49031772D01*
X31171801Y-49128305D01*
X31170579Y-49207386D01*
X31169235Y-49271042D01*
X31167663Y-49321301D01*
X31165757Y-49360191D01*
X31163410Y-49389738D01*
X31160515Y-49411970D01*
X31156968Y-49428914D01*
X31152660Y-49442597D01*
X31147486Y-49455047D01*
X31145818Y-49458695D01*
X31112673Y-49511835D01*
X31062322Y-49564175D01*
X30993830Y-49616384D01*
X30906265Y-49669130D01*
X30798693Y-49723079D01*
X30738786Y-49749987D01*
X30549555Y-49824399D01*
X30340983Y-49891558D01*
X30114051Y-49951252D01*
X29869740Y-50003267D01*
X29609031Y-50047393D01*
X29332904Y-50083416D01*
X29087508Y-50107448D01*
X29036620Y-50111184D01*
X28971096Y-50115178D01*
X28894015Y-50119311D01*
X28808452Y-50123465D01*
X28717486Y-50127522D01*
X28624193Y-50131365D01*
X28531652Y-50134874D01*
X28442940Y-50137932D01*
X28361134Y-50140422D01*
X28289311Y-50142224D01*
X28230549Y-50143221D01*
X28187926Y-50143295D01*
X28168675Y-50142692D01*
X28146618Y-50141768D01*
X28107831Y-50140670D01*
X28057088Y-50139512D01*
X27999164Y-50138410D01*
X27975111Y-50138011D01*
X27688058Y-50130132D01*
X27408211Y-50115830D01*
X27137134Y-50095328D01*
X26876390Y-50068849D01*
X26627541Y-50036613D01*
X26392150Y-49998845D01*
X26171781Y-49955767D01*
X25967995Y-49907600D01*
X25782356Y-49854567D01*
X25639718Y-49805725D01*
X25544904Y-49768296D01*
X25468531Y-49733131D01*
X25407938Y-49698360D01*
X25360459Y-49662110D01*
X25323431Y-49622510D01*
X25294191Y-49577688D01*
X25282623Y-49554803D01*
X25254450Y-49494729D01*
X25247871Y-46634271D01*
X25247096Y-46295359D01*
X25246376Y-45977298D01*
X25245707Y-45679430D01*
X25245082Y-45401099D01*
X25244498Y-45141648D01*
X25243949Y-44900421D01*
X25243430Y-44676760D01*
X25242936Y-44470009D01*
X25242463Y-44279512D01*
X25242005Y-44104611D01*
X25241558Y-43944649D01*
X25241116Y-43798971D01*
X25240674Y-43666918D01*
X25240228Y-43547836D01*
X25239773Y-43441066D01*
X25239303Y-43345952D01*
X25238814Y-43261837D01*
X25238300Y-43188065D01*
X25237757Y-43123978D01*
X25237180Y-43068921D01*
X25236564Y-43022236D01*
X25235903Y-42983266D01*
X25235193Y-42951355D01*
X25234625Y-42932369D01*
X25474423Y-42932369D01*
X25481590Y-46186665D01*
X25482199Y-46450085D01*
X25482851Y-46708040D01*
X25483543Y-46959694D01*
X25484271Y-47204212D01*
X25485029Y-47440758D01*
X25485816Y-47668496D01*
X25486625Y-47886590D01*
X25487454Y-48094205D01*
X25488298Y-48290504D01*
X25489152Y-48474654D01*
X25490014Y-48645817D01*
X25490879Y-48803157D01*
X25491743Y-48945840D01*
X25492601Y-49073030D01*
X25493451Y-49183890D01*
X25494286Y-49277586D01*
X25495105Y-49353281D01*
X25495902Y-49410139D01*
X25496673Y-49447326D01*
X25497415Y-49464005D01*
X25497556Y-49464798D01*
X25514064Y-49484486D01*
X25549257Y-49508157D01*
X25600887Y-49534864D01*
X25666705Y-49563656D01*
X25744464Y-49593587D01*
X25831915Y-49623707D01*
X25926809Y-49653068D01*
X25978813Y-49667848D01*
X26180981Y-49718080D01*
X26402648Y-49762847D01*
X26642466Y-49801972D01*
X26899088Y-49835279D01*
X27171167Y-49862594D01*
X27457354Y-49883740D01*
X27744906Y-49898104D01*
X27835128Y-49900754D01*
X27941592Y-49902467D01*
X28060136Y-49903284D01*
X28186599Y-49903245D01*
X28316818Y-49902390D01*
X28446632Y-49900762D01*
X28571879Y-49898399D01*
X28688397Y-49895342D01*
X28792023Y-49891633D01*
X28878597Y-49887312D01*
X28883790Y-49886995D01*
X29182531Y-49863553D01*
X29466658Y-49831182D01*
X29735063Y-49790069D01*
X29986640Y-49740406D01*
X30220284Y-49682379D01*
X30399604Y-49628065D01*
X30501949Y-49591973D01*
X30601711Y-49552587D01*
X30695279Y-49511582D01*
X30779041Y-49470631D01*
X30849385Y-49431411D01*
X30902702Y-49395597D01*
X30905466Y-49393447D01*
X30932350Y-49372313D01*
X30937727Y-48879710D01*
X30939009Y-48764017D01*
X30940177Y-48667783D01*
X30941348Y-48588963D01*
X30942635Y-48525509D01*
X30944154Y-48475375D01*
X30946021Y-48436515D01*
X30948349Y-48406883D01*
X30951255Y-48384431D01*
X30954853Y-48367114D01*
X30959258Y-48352885D01*
X30964585Y-48339698D01*
X30968585Y-48330741D01*
X31007938Y-48268062D01*
X31063685Y-48213940D01*
X31129976Y-48173513D01*
X31142597Y-48168022D01*
X31155948Y-48163447D01*
X31172091Y-48159677D01*
X31193088Y-48156599D01*
X31221002Y-48154103D01*
X31257897Y-48152078D01*
X31305835Y-48150412D01*
X31366878Y-48148993D01*
X31443091Y-48147711D01*
X31536535Y-48146454D01*
X31649273Y-48145111D01*
X31658218Y-48145008D01*
X31772357Y-48143661D01*
X31867133Y-48142413D01*
X31944691Y-48141145D01*
X32007172Y-48139739D01*
X32056722Y-48138075D01*
X32095483Y-48136034D01*
X32125599Y-48133496D01*
X32149214Y-48130343D01*
X32168470Y-48126455D01*
X32185512Y-48121714D01*
X32202483Y-48115999D01*
X32206652Y-48114517D01*
X32327700Y-48061700D01*
X32432590Y-47995105D01*
X32522474Y-47913714D01*
X32598507Y-47816507D01*
X32653255Y-47720385D01*
X32663684Y-47699598D01*
X32673183Y-47680915D01*
X32681792Y-47663295D01*
X32689554Y-47645697D01*
X32696511Y-47627079D01*
X32702703Y-47606400D01*
X32708173Y-47582619D01*
X32712963Y-47554693D01*
X32717113Y-47521583D01*
X32720666Y-47482246D01*
X32723664Y-47435640D01*
X32726148Y-47380725D01*
X32728160Y-47316460D01*
X32729742Y-47241802D01*
X32730935Y-47155710D01*
X32731781Y-47057144D01*
X32732321Y-46945061D01*
X32732599Y-46818420D01*
X32732654Y-46676180D01*
X32732529Y-46517299D01*
X32732266Y-46340737D01*
X32731906Y-46145451D01*
X32731490Y-45930400D01*
X32731201Y-45773983D01*
X32728201Y-44096422D01*
X32702945Y-44021147D01*
X32652810Y-43899948D01*
X32588508Y-43793906D01*
X32531691Y-43724638D01*
X32471505Y-43664202D01*
X32413398Y-43616854D01*
X32349481Y-43576626D01*
X32305961Y-43553869D01*
X32273771Y-43538068D01*
X32245200Y-43524876D01*
X32217974Y-43514030D01*
X32189815Y-43505267D01*
X32158449Y-43498327D01*
X32121599Y-43492947D01*
X32076989Y-43488864D01*
X32022343Y-43485818D01*
X31955385Y-43483546D01*
X31873839Y-43481786D01*
X31775429Y-43480276D01*
X31657880Y-43478754D01*
X31652841Y-43478690D01*
X31539240Y-43477216D01*
X31445071Y-43475848D01*
X31368261Y-43474475D01*
X31306734Y-43472982D01*
X31258417Y-43471255D01*
X31221237Y-43469182D01*
X31193119Y-43466647D01*
X31171989Y-43463538D01*
X31155773Y-43459740D01*
X31142397Y-43455141D01*
X31130746Y-43450070D01*
X31059147Y-43406027D01*
X31003163Y-43347241D01*
X30973107Y-43297232D01*
X30961291Y-43271817D01*
X30952917Y-43248571D01*
X30947272Y-43222848D01*
X30943644Y-43190001D01*
X30941320Y-43145383D01*
X30939589Y-43084348D01*
X30939429Y-43077519D01*
X30937991Y-43021888D01*
X30936490Y-42974784D01*
X30935067Y-42939953D01*
X30933865Y-42921144D01*
X30933422Y-42918903D01*
X30922994Y-42922330D01*
X30897080Y-42931496D01*
X30860382Y-42944727D01*
X30841769Y-42951501D01*
X30780771Y-42972834D01*
X30706792Y-42997291D01*
X30626948Y-43022641D01*
X30548356Y-43046653D01*
X30478132Y-43067095D01*
X30439437Y-43077649D01*
X30405646Y-43088196D01*
X30381664Y-43098890D01*
X30373605Y-43105962D01*
X30348225Y-43193515D01*
X30317441Y-43277243D01*
X30281153Y-43359801D01*
X30247613Y-43435185D01*
X30222340Y-43501940D01*
X30204129Y-43565645D01*
X30191774Y-43631879D01*
X30184069Y-43706220D01*
X30179809Y-43794248D01*
X30178824Y-43833365D01*
X30175667Y-43926163D01*
X30169828Y-44001384D01*
X30160384Y-44062887D01*
X30146411Y-44114529D01*
X30126988Y-44160168D01*
X30101192Y-44203663D01*
X30084648Y-44227127D01*
X30034746Y-44286690D01*
X29981057Y-44332321D01*
X29917181Y-44370144D01*
X29811625Y-44413099D01*
X29704654Y-44436223D01*
X29598518Y-44439978D01*
X29495465Y-44424823D01*
X29397742Y-44391219D01*
X29307597Y-44339626D01*
X29227280Y-44270504D01*
X29184193Y-44220088D01*
X29136051Y-44147029D01*
X29102806Y-44071760D01*
X29081227Y-43986432D01*
X29076749Y-43959079D01*
X29070298Y-43915396D01*
X29064459Y-43875815D01*
X29060524Y-43849089D01*
X29051474Y-43815304D01*
X29033014Y-43782576D01*
X29002617Y-43747898D01*
X28957754Y-43708262D01*
X28912548Y-43673064D01*
X28841670Y-43616952D01*
X28784280Y-43564134D01*
X28734538Y-43508470D01*
X28686605Y-43443821D01*
X28667604Y-43415551D01*
X28615830Y-43336882D01*
X28300847Y-43333000D01*
X27866356Y-43319441D01*
X27436038Y-43289702D01*
X27012213Y-43244075D01*
X26597200Y-43182854D01*
X26193321Y-43106333D01*
X25819014Y-43018954D01*
X25747764Y-43000732D01*
X25680016Y-42983478D01*
X25619778Y-42968207D01*
X25571057Y-42955935D01*
X25537862Y-42947676D01*
X25531117Y-42946033D01*
X25474423Y-42932369D01*
X25234625Y-42932369D01*
X25234430Y-42925847D01*
X25233607Y-42906084D01*
X25232720Y-42891409D01*
X25231764Y-42881166D01*
X25230734Y-42874698D01*
X25229625Y-42871349D01*
X25228432Y-42870461D01*
X25227151Y-42871379D01*
X25225775Y-42873444D01*
X25224301Y-42876001D01*
X25222723Y-42878392D01*
X25221037Y-42879962D01*
X25219501Y-42880155D01*
X25093819Y-42833468D01*
X24983045Y-42774888D01*
X24882731Y-42701898D01*
X24844414Y-42667987D01*
X24754352Y-42570205D01*
X24679883Y-42460205D01*
X24622873Y-42341309D01*
X24585191Y-42216839D01*
X24581918Y-42200979D01*
X24575260Y-42146945D01*
X24573110Y-42089483D01*
X24804194Y-42089483D01*
X24822955Y-42197508D01*
X24861206Y-42301096D01*
X24918541Y-42398107D01*
X24994555Y-42486400D01*
X25008739Y-42499866D01*
X25063672Y-42546136D01*
X25120363Y-42583792D01*
X25183190Y-42614832D01*
X25256531Y-42641249D01*
X25344765Y-42665041D01*
X25396895Y-42676803D01*
X25461925Y-42691262D01*
X25541070Y-42709642D01*
X25627653Y-42730347D01*
X25715002Y-42751779D01*
X25796441Y-42772344D01*
X25797507Y-42772618D01*
X26003985Y-42823849D01*
X26199430Y-42868228D01*
X26391592Y-42907313D01*
X26588222Y-42942663D01*
X26797070Y-42975834D01*
X26840606Y-42982288D01*
X27100294Y-43017725D01*
X27349028Y-43045947D01*
X27593349Y-43067457D01*
X27839800Y-43082754D01*
X28094922Y-43092339D01*
X28331823Y-43096447D01*
X28451232Y-43097847D01*
X28551588Y-43099712D01*
X28632409Y-43102025D01*
X28693211Y-43104768D01*
X28733512Y-43107924D01*
X28752829Y-43111475D01*
X28753420Y-43111758D01*
X28767942Y-43126198D01*
X28788303Y-43154935D01*
X28811046Y-43192871D01*
X28821208Y-43211723D01*
X28887979Y-43320629D01*
X28965462Y-43411491D01*
X29043132Y-43476777D01*
X29119649Y-43534389D01*
X29177827Y-43586242D01*
X29219494Y-43634058D01*
X29235289Y-43657979D01*
X29261179Y-43710870D01*
X29282851Y-43771278D01*
X29297715Y-43830719D01*
X29303180Y-43880356D01*
X29313256Y-43959958D01*
X29341852Y-44033741D01*
X29386519Y-44098419D01*
X29444810Y-44150707D01*
X29514276Y-44187319D01*
X29537526Y-44194923D01*
X29595774Y-44203981D01*
X29663481Y-44203020D01*
X29731347Y-44192540D01*
X29766187Y-44182620D01*
X29832328Y-44149180D01*
X29885843Y-44100067D01*
X29917613Y-44050732D01*
X29927135Y-44029426D01*
X29933958Y-44007999D01*
X29938580Y-43982288D01*
X29941501Y-43948131D01*
X29943218Y-43901364D01*
X29944231Y-43837824D01*
X29944342Y-43827582D01*
X29947420Y-43718709D01*
X29955006Y-43625225D01*
X29968380Y-43541259D01*
X29988823Y-43460936D01*
X30017612Y-43378384D01*
X30056029Y-43287730D01*
X30067330Y-43263018D01*
X30107837Y-43167249D01*
X30136564Y-43078740D01*
X30156267Y-42988900D01*
X30157360Y-42982456D01*
X30165154Y-42953866D01*
X30179860Y-42930705D01*
X30204438Y-42911101D01*
X30241849Y-42893182D01*
X30295050Y-42875077D01*
X30353182Y-42858604D01*
X30404038Y-42844185D01*
X30470212Y-42824333D01*
X30546685Y-42800615D01*
X30628438Y-42774598D01*
X30710452Y-42747849D01*
X30749539Y-42734841D01*
X30828687Y-42709018D01*
X30909090Y-42684065D01*
X30985996Y-42661364D01*
X31054655Y-42642296D01*
X31110317Y-42628244D01*
X31133107Y-42623266D01*
X31251025Y-42592853D01*
X31351961Y-42551437D01*
X31438172Y-42497634D01*
X31511912Y-42430058D01*
X31570625Y-42354614D01*
X31615405Y-42280643D01*
X31646022Y-42211208D01*
X31664549Y-42139317D01*
X31673055Y-42057980D01*
X31674213Y-42004847D01*
X31673331Y-41943561D01*
X31670111Y-41896942D01*
X31663693Y-41858202D01*
X31653216Y-41820553D01*
X31649422Y-41809234D01*
X31603922Y-41709116D01*
X31540763Y-41617785D01*
X31462810Y-41537838D01*
X31372929Y-41471870D01*
X31273983Y-41422476D01*
X31195245Y-41397797D01*
X31087670Y-41381734D01*
X30981537Y-41385254D01*
X30873971Y-41408669D01*
X30783823Y-41442433D01*
X30729536Y-41463689D01*
X30688348Y-41472601D01*
X30655682Y-41469071D01*
X30626958Y-41453005D01*
X30611209Y-41438817D01*
X30583835Y-41400973D01*
X30576300Y-41360230D01*
X30588281Y-41313563D01*
X30596086Y-41297077D01*
X30644036Y-41203671D01*
X30682734Y-41126602D01*
X30713155Y-41063289D01*
X30736271Y-41011147D01*
X30753058Y-40967594D01*
X30764489Y-40930047D01*
X30771538Y-40895924D01*
X30775179Y-40862640D01*
X30776387Y-40827614D01*
X30776423Y-40818866D01*
X30765975Y-40714489D01*
X30735337Y-40615267D01*
X30685571Y-40523043D01*
X30617740Y-40439661D01*
X30532903Y-40366962D01*
X30505388Y-40348217D01*
X30415458Y-40300386D01*
X30320391Y-40270859D01*
X30215923Y-40258434D01*
X30184975Y-40257855D01*
X30102804Y-40262145D01*
X30029410Y-40276210D01*
X29959986Y-40301965D01*
X29889728Y-40341321D01*
X29813830Y-40396194D01*
X29790539Y-40414905D01*
X29740516Y-40453043D01*
X29700698Y-40476053D01*
X29667356Y-40485188D01*
X29636758Y-40481699D01*
X29616625Y-40473282D01*
X29588460Y-40454740D01*
X29569048Y-40430460D01*
X29556315Y-40395904D01*
X29548187Y-40346534D01*
X29545411Y-40317446D01*
X29524087Y-40180556D01*
X29484056Y-40052404D01*
X29426505Y-39934418D01*
X29352620Y-39828025D01*
X29263589Y-39734652D01*
X29160600Y-39655728D01*
X29044840Y-39592679D01*
X28917495Y-39546933D01*
X28900888Y-39542519D01*
X28812540Y-39526721D01*
X28713711Y-39520326D01*
X28613268Y-39523336D01*
X28520072Y-39535751D01*
X28490315Y-39542444D01*
X28362187Y-39585712D01*
X28244511Y-39646743D01*
X28138815Y-39723949D01*
X28046625Y-39815743D01*
X27969468Y-39920535D01*
X27908872Y-40036738D01*
X27866361Y-40162764D01*
X27857726Y-40200478D01*
X27849200Y-40249361D01*
X27843090Y-40298513D01*
X27840692Y-40337460D01*
X27840691Y-40338120D01*
X27833251Y-40398218D01*
X27811198Y-40443484D01*
X27776521Y-40472277D01*
X27749448Y-40483555D01*
X27723546Y-40486570D01*
X27694562Y-40480203D01*
X27658241Y-40463337D01*
X27610328Y-40434853D01*
X27593559Y-40424197D01*
X27528652Y-40383708D01*
X27475394Y-40354226D01*
X27428101Y-40334025D01*
X27381090Y-40321378D01*
X27328676Y-40314561D01*
X27265175Y-40311847D01*
X27222359Y-40311475D01*
X27154645Y-40311997D01*
X27103525Y-40314198D01*
X27064121Y-40318541D01*
X27031553Y-40325486D01*
X27012664Y-40331298D01*
X26905776Y-40376615D01*
X26809487Y-40435302D01*
X26726757Y-40505077D01*
X26660547Y-40583658D01*
X26637370Y-40620509D01*
X26601624Y-40672271D01*
X26564236Y-40702912D01*
X26523839Y-40712817D01*
X26479069Y-40702370D01*
X26435832Y-40677264D01*
X26322630Y-40603000D01*
X26217560Y-40547572D01*
X26118920Y-40510687D01*
X26025008Y-40492052D01*
X25934123Y-40491376D01*
X25844564Y-40508367D01*
X25754628Y-40542731D01*
X25728484Y-40555773D01*
X25667874Y-40594865D01*
X25604830Y-40648046D01*
X25545067Y-40709504D01*
X25494301Y-40773427D01*
X25461492Y-40827328D01*
X25430207Y-40900726D01*
X25410016Y-40972356D01*
X25402164Y-41036878D01*
X25404344Y-41072976D01*
X25412522Y-41104736D01*
X25425977Y-41139215D01*
X25441695Y-41170315D01*
X25456664Y-41191941D01*
X25466284Y-41198327D01*
X25480171Y-41207733D01*
X25495286Y-41231454D01*
X25508493Y-41262745D01*
X25516659Y-41294859D01*
X25517873Y-41309379D01*
X25508761Y-41354353D01*
X25481623Y-41387923D01*
X25436904Y-41409700D01*
X25393388Y-41417929D01*
X25317173Y-41430068D01*
X25238892Y-41450011D01*
X25166493Y-41475381D01*
X25109735Y-41502735D01*
X25036426Y-41554872D01*
X24966934Y-41621328D01*
X24907319Y-41695621D01*
X24868891Y-41760193D01*
X24826757Y-41868685D01*
X24805326Y-41979162D01*
X24804194Y-42089483D01*
X24573110Y-42089483D01*
X24572738Y-42079535D01*
X24574037Y-42005306D01*
G37*
G36*
X30978448Y-44228494D02*
G01*
X31025998Y-44153756D01*
X31086656Y-44094703D01*
X31158520Y-44053119D01*
X31170439Y-44048389D01*
X31187112Y-44042580D01*
X31204462Y-44037898D01*
X31224919Y-44034222D01*
X31250912Y-44031433D01*
X31284868Y-44029408D01*
X31329217Y-44028028D01*
X31386388Y-44027170D01*
X31458808Y-44026716D01*
X31548906Y-44026543D01*
X31609827Y-44026524D01*
X31711220Y-44026589D01*
X31793535Y-44026867D01*
X31859200Y-44027477D01*
X31910644Y-44028541D01*
X31950295Y-44030180D01*
X31980582Y-44032514D01*
X32003934Y-44035664D01*
X32022779Y-44039751D01*
X32039546Y-44044896D01*
X32049215Y-44048389D01*
X32122633Y-44087130D01*
X32185137Y-44143614D01*
X32234826Y-44216057D01*
X32241206Y-44228494D01*
X32276550Y-44300288D01*
X32276550Y-47300994D01*
X32248621Y-47360139D01*
X32203771Y-47432006D01*
X32143857Y-47493210D01*
X32073819Y-47538781D01*
X32068526Y-47541323D01*
X32007710Y-47569834D01*
X31631334Y-47571756D01*
X31541621Y-47571931D01*
X31457228Y-47571557D01*
X31380950Y-47570688D01*
X31315582Y-47569376D01*
X31263919Y-47567676D01*
X31228755Y-47565639D01*
X31214465Y-47563824D01*
X31137310Y-47534287D01*
X31068039Y-47486362D01*
X31009732Y-47422622D01*
X30973013Y-47361899D01*
X30943104Y-47300994D01*
X30943104Y-46365069D01*
X31174379Y-46365069D01*
X31174460Y-46515843D01*
X31174668Y-46649396D01*
X31175048Y-46766802D01*
X31175642Y-46869132D01*
X31176494Y-46957458D01*
X31177647Y-47032851D01*
X31179145Y-47096385D01*
X31181032Y-47149130D01*
X31183351Y-47192158D01*
X31186145Y-47226542D01*
X31189457Y-47253352D01*
X31193333Y-47273662D01*
X31197814Y-47288543D01*
X31202945Y-47299067D01*
X31208768Y-47306305D01*
X31215328Y-47311330D01*
X31222668Y-47315213D01*
X31230831Y-47319026D01*
X31236275Y-47321799D01*
X31256614Y-47326888D01*
X31295159Y-47331148D01*
X31348620Y-47334576D01*
X31413712Y-47337170D01*
X31487148Y-47338929D01*
X31565640Y-47339849D01*
X31645901Y-47339928D01*
X31724646Y-47339164D01*
X31798586Y-47337555D01*
X31864435Y-47335098D01*
X31918905Y-47331791D01*
X31958711Y-47327633D01*
X31980565Y-47322619D01*
X31981178Y-47322320D01*
X31990176Y-47318105D01*
X31998295Y-47314524D01*
X32005578Y-47310507D01*
X32012072Y-47304982D01*
X32017821Y-47296878D01*
X32022870Y-47285126D01*
X32027264Y-47268653D01*
X32031048Y-47246391D01*
X32034268Y-47217267D01*
X32036968Y-47180212D01*
X32039192Y-47134154D01*
X32040987Y-47078023D01*
X32042397Y-47010748D01*
X32043467Y-46931259D01*
X32044241Y-46838485D01*
X32044766Y-46731354D01*
X32045086Y-46608797D01*
X32045246Y-46469743D01*
X32045291Y-46313120D01*
X32045265Y-46137859D01*
X32045215Y-45942889D01*
X32045189Y-45798713D01*
X32045125Y-45583398D01*
X32044975Y-45388700D01*
X32044733Y-45213727D01*
X32044390Y-45057589D01*
X32043938Y-44919395D01*
X32043368Y-44798255D01*
X32042672Y-44693277D01*
X32041843Y-44603571D01*
X32040873Y-44528246D01*
X32039752Y-44466412D01*
X32038473Y-44417177D01*
X32037028Y-44379651D01*
X32035409Y-44352943D01*
X32033607Y-44336163D01*
X32031747Y-44328661D01*
X32013553Y-44303901D01*
X31988326Y-44280436D01*
X31988103Y-44280270D01*
X31979001Y-44274066D01*
X31968639Y-44269118D01*
X31954636Y-44265284D01*
X31934612Y-44262422D01*
X31906187Y-44260391D01*
X31866980Y-44259049D01*
X31814612Y-44258254D01*
X31746703Y-44257863D01*
X31660871Y-44257735D01*
X31609827Y-44257726D01*
X31514015Y-44257774D01*
X31437329Y-44258014D01*
X31377391Y-44258587D01*
X31331819Y-44259635D01*
X31298233Y-44261299D01*
X31274254Y-44263723D01*
X31257500Y-44267046D01*
X31245592Y-44271413D01*
X31236150Y-44276963D01*
X31231551Y-44280270D01*
X31206312Y-44303667D01*
X31188005Y-44328471D01*
X31187907Y-44328661D01*
X31185927Y-44336954D01*
X31184137Y-44354341D01*
X31182529Y-44381712D01*
X31181094Y-44419958D01*
X31179826Y-44469970D01*
X31178715Y-44532638D01*
X31177754Y-44608853D01*
X31176933Y-44699507D01*
X31176246Y-44805489D01*
X31175684Y-44927691D01*
X31175239Y-45067002D01*
X31174902Y-45224315D01*
X31174666Y-45400519D01*
X31174523Y-45596506D01*
X31174465Y-45798713D01*
X31174425Y-46007577D01*
X31174381Y-46196005D01*
X31174379Y-46365069D01*
X30943104Y-46365069D01*
X30943104Y-44300288D01*
X30978448Y-44228494D01*
G37*
%TD*%
M02*
