%TF.GenerationSoftware,KiCad,Pcbnew,(6.0.7)*%
%TF.CreationDate,2024-06-12T17:23:28-04:00*%
%TF.ProjectId,DCR BPF V1 (Panel),44435220-4250-4462-9056-31202850616e,rev?*%
%TF.SameCoordinates,Original*%
%TF.FileFunction,Drillmap*%
%TF.FilePolarity,Positive*%
%FSLAX45Y45*%
G04 Gerber Fmt 4.5, Leading zero omitted, Abs format (unit mm)*
G04 Created by KiCad (PCBNEW (6.0.7)) date 2024-06-12 17:23:28*
%MOMM*%
%LPD*%
G01*
G04 APERTURE LIST*
%ADD10C,0.100000*%
%ADD11C,0.200000*%
%ADD12C,0.080000*%
G04 APERTURE END LIST*
D10*
X4184650Y-5416550D02*
X12077700Y-5416550D01*
X12077700Y-5416550D02*
X12077700Y-14954250D01*
X12077700Y-14954250D02*
X4184650Y-14954250D01*
X4184650Y-14954250D02*
X4184650Y-5416550D01*
X4183700Y-11906150D02*
X8033700Y-11906150D01*
X8033700Y-11906150D02*
X8033700Y-13328550D01*
X8033700Y-13328550D02*
X4183700Y-13328550D01*
X4183700Y-13328550D02*
X4183700Y-11906150D01*
X8233700Y-11906150D02*
X12083700Y-11906150D01*
X12083700Y-11906150D02*
X12083700Y-13328550D01*
X12083700Y-13328550D02*
X8233700Y-13328550D01*
X8233700Y-13328550D02*
X8233700Y-11906150D01*
D11*
D12*
X4881250Y-5677000D02*
X4961250Y-5757000D01*
X4961250Y-5677000D02*
X4881250Y-5757000D01*
X4881250Y-5927000D02*
X4961250Y-6007000D01*
X4961250Y-5927000D02*
X4881250Y-6007000D01*
X4881250Y-6259200D02*
X4961250Y-6339200D01*
X4961250Y-6259200D02*
X4881250Y-6339200D01*
X4881250Y-6509200D02*
X4961250Y-6589200D01*
X4961250Y-6509200D02*
X4881250Y-6589200D01*
X4881250Y-7299400D02*
X4961250Y-7379400D01*
X4961250Y-7299400D02*
X4881250Y-7379400D01*
X4881250Y-7549400D02*
X4961250Y-7629400D01*
X4961250Y-7549400D02*
X4881250Y-7629400D01*
X4881250Y-7881600D02*
X4961250Y-7961600D01*
X4961250Y-7881600D02*
X4881250Y-7961600D01*
X4881250Y-8131600D02*
X4961250Y-8211600D01*
X4961250Y-8131600D02*
X4881250Y-8211600D01*
X4881250Y-8921800D02*
X4961250Y-9001800D01*
X4961250Y-8921800D02*
X4881250Y-9001800D01*
X4881250Y-9171800D02*
X4961250Y-9251800D01*
X4961250Y-9171800D02*
X4881250Y-9251800D01*
X4881250Y-9504000D02*
X4961250Y-9584000D01*
X4961250Y-9504000D02*
X4881250Y-9584000D01*
X4881250Y-9754000D02*
X4961250Y-9834000D01*
X4961250Y-9754000D02*
X4881250Y-9834000D01*
X4881250Y-10544200D02*
X4961250Y-10624200D01*
X4961250Y-10544200D02*
X4881250Y-10624200D01*
X4881250Y-10794200D02*
X4961250Y-10874200D01*
X4961250Y-10794200D02*
X4881250Y-10874200D01*
X4881250Y-11126400D02*
X4961250Y-11206400D01*
X4961250Y-11126400D02*
X4881250Y-11206400D01*
X4881250Y-11376400D02*
X4961250Y-11456400D01*
X4961250Y-11376400D02*
X4881250Y-11456400D01*
X4881250Y-12166600D02*
X4961250Y-12246600D01*
X4961250Y-12166600D02*
X4881250Y-12246600D01*
X4881250Y-12416600D02*
X4961250Y-12496600D01*
X4961250Y-12416600D02*
X4881250Y-12496600D01*
X4881250Y-12748800D02*
X4961250Y-12828800D01*
X4961250Y-12748800D02*
X4881250Y-12828800D01*
X4881250Y-12998800D02*
X4961250Y-13078800D01*
X4961250Y-12998800D02*
X4881250Y-13078800D01*
X4881250Y-13789000D02*
X4961250Y-13869000D01*
X4961250Y-13789000D02*
X4881250Y-13869000D01*
X4881250Y-14039000D02*
X4961250Y-14119000D01*
X4961250Y-14039000D02*
X4881250Y-14119000D01*
X4881250Y-14371200D02*
X4961250Y-14451200D01*
X4961250Y-14371200D02*
X4881250Y-14451200D01*
X4881250Y-14621200D02*
X4961250Y-14701200D01*
X4961250Y-14621200D02*
X4881250Y-14701200D01*
X5395600Y-5679000D02*
X5475600Y-5759000D01*
X5475600Y-5679000D02*
X5395600Y-5759000D01*
X5395600Y-5929000D02*
X5475600Y-6009000D01*
X5475600Y-5929000D02*
X5395600Y-6009000D01*
X5395600Y-6254850D02*
X5475600Y-6334850D01*
X5475600Y-6254850D02*
X5395600Y-6334850D01*
X5395600Y-6504850D02*
X5475600Y-6584850D01*
X5475600Y-6504850D02*
X5395600Y-6584850D01*
X5395600Y-7301400D02*
X5475600Y-7381400D01*
X5475600Y-7301400D02*
X5395600Y-7381400D01*
X5395600Y-7551400D02*
X5475600Y-7631400D01*
X5475600Y-7551400D02*
X5395600Y-7631400D01*
X5395600Y-7877250D02*
X5475600Y-7957250D01*
X5475600Y-7877250D02*
X5395600Y-7957250D01*
X5395600Y-8127250D02*
X5475600Y-8207250D01*
X5475600Y-8127250D02*
X5395600Y-8207250D01*
X5395600Y-8923800D02*
X5475600Y-9003800D01*
X5475600Y-8923800D02*
X5395600Y-9003800D01*
X5395600Y-9173800D02*
X5475600Y-9253800D01*
X5475600Y-9173800D02*
X5395600Y-9253800D01*
X5395600Y-9499650D02*
X5475600Y-9579650D01*
X5475600Y-9499650D02*
X5395600Y-9579650D01*
X5395600Y-9749650D02*
X5475600Y-9829650D01*
X5475600Y-9749650D02*
X5395600Y-9829650D01*
X5395600Y-10546200D02*
X5475600Y-10626200D01*
X5475600Y-10546200D02*
X5395600Y-10626200D01*
X5395600Y-10796200D02*
X5475600Y-10876200D01*
X5475600Y-10796200D02*
X5395600Y-10876200D01*
X5395600Y-11122050D02*
X5475600Y-11202050D01*
X5475600Y-11122050D02*
X5395600Y-11202050D01*
X5395600Y-11372050D02*
X5475600Y-11452050D01*
X5475600Y-11372050D02*
X5395600Y-11452050D01*
X5395600Y-12168600D02*
X5475600Y-12248600D01*
X5475600Y-12168600D02*
X5395600Y-12248600D01*
X5395600Y-12418600D02*
X5475600Y-12498600D01*
X5475600Y-12418600D02*
X5395600Y-12498600D01*
X5395600Y-12744450D02*
X5475600Y-12824450D01*
X5475600Y-12744450D02*
X5395600Y-12824450D01*
X5395600Y-12994450D02*
X5475600Y-13074450D01*
X5475600Y-12994450D02*
X5395600Y-13074450D01*
X5395600Y-13791000D02*
X5475600Y-13871000D01*
X5475600Y-13791000D02*
X5395600Y-13871000D01*
X5395600Y-14041000D02*
X5475600Y-14121000D01*
X5475600Y-14041000D02*
X5395600Y-14121000D01*
X5395600Y-14366850D02*
X5475600Y-14446850D01*
X5475600Y-14366850D02*
X5395600Y-14446850D01*
X5395600Y-14616850D02*
X5475600Y-14696850D01*
X5475600Y-14616850D02*
X5395600Y-14696850D01*
X5852800Y-5679000D02*
X5932800Y-5759000D01*
X5932800Y-5679000D02*
X5852800Y-5759000D01*
X5852800Y-5929000D02*
X5932800Y-6009000D01*
X5932800Y-5929000D02*
X5852800Y-6009000D01*
X5852800Y-6259200D02*
X5932800Y-6339200D01*
X5932800Y-6259200D02*
X5852800Y-6339200D01*
X5852800Y-6509200D02*
X5932800Y-6589200D01*
X5932800Y-6509200D02*
X5852800Y-6589200D01*
X5852800Y-7301400D02*
X5932800Y-7381400D01*
X5932800Y-7301400D02*
X5852800Y-7381400D01*
X5852800Y-7551400D02*
X5932800Y-7631400D01*
X5932800Y-7551400D02*
X5852800Y-7631400D01*
X5852800Y-7881600D02*
X5932800Y-7961600D01*
X5932800Y-7881600D02*
X5852800Y-7961600D01*
X5852800Y-8131600D02*
X5932800Y-8211600D01*
X5932800Y-8131600D02*
X5852800Y-8211600D01*
X5852800Y-8923800D02*
X5932800Y-9003800D01*
X5932800Y-8923800D02*
X5852800Y-9003800D01*
X5852800Y-9173800D02*
X5932800Y-9253800D01*
X5932800Y-9173800D02*
X5852800Y-9253800D01*
X5852800Y-9504000D02*
X5932800Y-9584000D01*
X5932800Y-9504000D02*
X5852800Y-9584000D01*
X5852800Y-9754000D02*
X5932800Y-9834000D01*
X5932800Y-9754000D02*
X5852800Y-9834000D01*
X5852800Y-10546200D02*
X5932800Y-10626200D01*
X5932800Y-10546200D02*
X5852800Y-10626200D01*
X5852800Y-10796200D02*
X5932800Y-10876200D01*
X5932800Y-10796200D02*
X5852800Y-10876200D01*
X5852800Y-11126400D02*
X5932800Y-11206400D01*
X5932800Y-11126400D02*
X5852800Y-11206400D01*
X5852800Y-11376400D02*
X5932800Y-11456400D01*
X5932800Y-11376400D02*
X5852800Y-11456400D01*
X5852800Y-12168600D02*
X5932800Y-12248600D01*
X5932800Y-12168600D02*
X5852800Y-12248600D01*
X5852800Y-12418600D02*
X5932800Y-12498600D01*
X5932800Y-12418600D02*
X5852800Y-12498600D01*
X5852800Y-12748800D02*
X5932800Y-12828800D01*
X5932800Y-12748800D02*
X5852800Y-12828800D01*
X5852800Y-12998800D02*
X5932800Y-13078800D01*
X5932800Y-12998800D02*
X5852800Y-13078800D01*
X5852800Y-13791000D02*
X5932800Y-13871000D01*
X5932800Y-13791000D02*
X5852800Y-13871000D01*
X5852800Y-14041000D02*
X5932800Y-14121000D01*
X5932800Y-14041000D02*
X5852800Y-14121000D01*
X5852800Y-14371200D02*
X5932800Y-14451200D01*
X5932800Y-14371200D02*
X5852800Y-14451200D01*
X5852800Y-14621200D02*
X5932800Y-14701200D01*
X5932800Y-14621200D02*
X5852800Y-14701200D01*
X8931250Y-5677000D02*
X9011250Y-5757000D01*
X9011250Y-5677000D02*
X8931250Y-5757000D01*
X8931250Y-5927000D02*
X9011250Y-6007000D01*
X9011250Y-5927000D02*
X8931250Y-6007000D01*
X8931250Y-6259200D02*
X9011250Y-6339200D01*
X9011250Y-6259200D02*
X8931250Y-6339200D01*
X8931250Y-6509200D02*
X9011250Y-6589200D01*
X9011250Y-6509200D02*
X8931250Y-6589200D01*
X8931250Y-7299400D02*
X9011250Y-7379400D01*
X9011250Y-7299400D02*
X8931250Y-7379400D01*
X8931250Y-7549400D02*
X9011250Y-7629400D01*
X9011250Y-7549400D02*
X8931250Y-7629400D01*
X8931250Y-7881600D02*
X9011250Y-7961600D01*
X9011250Y-7881600D02*
X8931250Y-7961600D01*
X8931250Y-8131600D02*
X9011250Y-8211600D01*
X9011250Y-8131600D02*
X8931250Y-8211600D01*
X8931250Y-8921800D02*
X9011250Y-9001800D01*
X9011250Y-8921800D02*
X8931250Y-9001800D01*
X8931250Y-9171800D02*
X9011250Y-9251800D01*
X9011250Y-9171800D02*
X8931250Y-9251800D01*
X8931250Y-9504000D02*
X9011250Y-9584000D01*
X9011250Y-9504000D02*
X8931250Y-9584000D01*
X8931250Y-9754000D02*
X9011250Y-9834000D01*
X9011250Y-9754000D02*
X8931250Y-9834000D01*
X8931250Y-10544200D02*
X9011250Y-10624200D01*
X9011250Y-10544200D02*
X8931250Y-10624200D01*
X8931250Y-10794200D02*
X9011250Y-10874200D01*
X9011250Y-10794200D02*
X8931250Y-10874200D01*
X8931250Y-11126400D02*
X9011250Y-11206400D01*
X9011250Y-11126400D02*
X8931250Y-11206400D01*
X8931250Y-11376400D02*
X9011250Y-11456400D01*
X9011250Y-11376400D02*
X8931250Y-11456400D01*
X8931250Y-12166600D02*
X9011250Y-12246600D01*
X9011250Y-12166600D02*
X8931250Y-12246600D01*
X8931250Y-12416600D02*
X9011250Y-12496600D01*
X9011250Y-12416600D02*
X8931250Y-12496600D01*
X8931250Y-12748800D02*
X9011250Y-12828800D01*
X9011250Y-12748800D02*
X8931250Y-12828800D01*
X8931250Y-12998800D02*
X9011250Y-13078800D01*
X9011250Y-12998800D02*
X8931250Y-13078800D01*
X8931250Y-13789000D02*
X9011250Y-13869000D01*
X9011250Y-13789000D02*
X8931250Y-13869000D01*
X8931250Y-14039000D02*
X9011250Y-14119000D01*
X9011250Y-14039000D02*
X8931250Y-14119000D01*
X8931250Y-14371200D02*
X9011250Y-14451200D01*
X9011250Y-14371200D02*
X8931250Y-14451200D01*
X8931250Y-14621200D02*
X9011250Y-14701200D01*
X9011250Y-14621200D02*
X8931250Y-14701200D01*
X9445600Y-5679000D02*
X9525600Y-5759000D01*
X9525600Y-5679000D02*
X9445600Y-5759000D01*
X9445600Y-5929000D02*
X9525600Y-6009000D01*
X9525600Y-5929000D02*
X9445600Y-6009000D01*
X9445600Y-6254850D02*
X9525600Y-6334850D01*
X9525600Y-6254850D02*
X9445600Y-6334850D01*
X9445600Y-6504850D02*
X9525600Y-6584850D01*
X9525600Y-6504850D02*
X9445600Y-6584850D01*
X9445600Y-7301400D02*
X9525600Y-7381400D01*
X9525600Y-7301400D02*
X9445600Y-7381400D01*
X9445600Y-7551400D02*
X9525600Y-7631400D01*
X9525600Y-7551400D02*
X9445600Y-7631400D01*
X9445600Y-7877250D02*
X9525600Y-7957250D01*
X9525600Y-7877250D02*
X9445600Y-7957250D01*
X9445600Y-8127250D02*
X9525600Y-8207250D01*
X9525600Y-8127250D02*
X9445600Y-8207250D01*
X9445600Y-8923800D02*
X9525600Y-9003800D01*
X9525600Y-8923800D02*
X9445600Y-9003800D01*
X9445600Y-9173800D02*
X9525600Y-9253800D01*
X9525600Y-9173800D02*
X9445600Y-9253800D01*
X9445600Y-9499650D02*
X9525600Y-9579650D01*
X9525600Y-9499650D02*
X9445600Y-9579650D01*
X9445600Y-9749650D02*
X9525600Y-9829650D01*
X9525600Y-9749650D02*
X9445600Y-9829650D01*
X9445600Y-10546200D02*
X9525600Y-10626200D01*
X9525600Y-10546200D02*
X9445600Y-10626200D01*
X9445600Y-10796200D02*
X9525600Y-10876200D01*
X9525600Y-10796200D02*
X9445600Y-10876200D01*
X9445600Y-11122050D02*
X9525600Y-11202050D01*
X9525600Y-11122050D02*
X9445600Y-11202050D01*
X9445600Y-11372050D02*
X9525600Y-11452050D01*
X9525600Y-11372050D02*
X9445600Y-11452050D01*
X9445600Y-12168600D02*
X9525600Y-12248600D01*
X9525600Y-12168600D02*
X9445600Y-12248600D01*
X9445600Y-12418600D02*
X9525600Y-12498600D01*
X9525600Y-12418600D02*
X9445600Y-12498600D01*
X9445600Y-12744450D02*
X9525600Y-12824450D01*
X9525600Y-12744450D02*
X9445600Y-12824450D01*
X9445600Y-12994450D02*
X9525600Y-13074450D01*
X9525600Y-12994450D02*
X9445600Y-13074450D01*
X9445600Y-13791000D02*
X9525600Y-13871000D01*
X9525600Y-13791000D02*
X9445600Y-13871000D01*
X9445600Y-14041000D02*
X9525600Y-14121000D01*
X9525600Y-14041000D02*
X9445600Y-14121000D01*
X9445600Y-14366850D02*
X9525600Y-14446850D01*
X9525600Y-14366850D02*
X9445600Y-14446850D01*
X9445600Y-14616850D02*
X9525600Y-14696850D01*
X9525600Y-14616850D02*
X9445600Y-14696850D01*
X9902800Y-5679000D02*
X9982800Y-5759000D01*
X9982800Y-5679000D02*
X9902800Y-5759000D01*
X9902800Y-5929000D02*
X9982800Y-6009000D01*
X9982800Y-5929000D02*
X9902800Y-6009000D01*
X9902800Y-6259200D02*
X9982800Y-6339200D01*
X9982800Y-6259200D02*
X9902800Y-6339200D01*
X9902800Y-6509200D02*
X9982800Y-6589200D01*
X9982800Y-6509200D02*
X9902800Y-6589200D01*
X9902800Y-7301400D02*
X9982800Y-7381400D01*
X9982800Y-7301400D02*
X9902800Y-7381400D01*
X9902800Y-7551400D02*
X9982800Y-7631400D01*
X9982800Y-7551400D02*
X9902800Y-7631400D01*
X9902800Y-7881600D02*
X9982800Y-7961600D01*
X9982800Y-7881600D02*
X9902800Y-7961600D01*
X9902800Y-8131600D02*
X9982800Y-8211600D01*
X9982800Y-8131600D02*
X9902800Y-8211600D01*
X9902800Y-8923800D02*
X9982800Y-9003800D01*
X9982800Y-8923800D02*
X9902800Y-9003800D01*
X9902800Y-9173800D02*
X9982800Y-9253800D01*
X9982800Y-9173800D02*
X9902800Y-9253800D01*
X9902800Y-9504000D02*
X9982800Y-9584000D01*
X9982800Y-9504000D02*
X9902800Y-9584000D01*
X9902800Y-9754000D02*
X9982800Y-9834000D01*
X9982800Y-9754000D02*
X9902800Y-9834000D01*
X9902800Y-10546200D02*
X9982800Y-10626200D01*
X9982800Y-10546200D02*
X9902800Y-10626200D01*
X9902800Y-10796200D02*
X9982800Y-10876200D01*
X9982800Y-10796200D02*
X9902800Y-10876200D01*
X9902800Y-11126400D02*
X9982800Y-11206400D01*
X9982800Y-11126400D02*
X9902800Y-11206400D01*
X9902800Y-11376400D02*
X9982800Y-11456400D01*
X9982800Y-11376400D02*
X9902800Y-11456400D01*
X9902800Y-12168600D02*
X9982800Y-12248600D01*
X9982800Y-12168600D02*
X9902800Y-12248600D01*
X9902800Y-12418600D02*
X9982800Y-12498600D01*
X9982800Y-12418600D02*
X9902800Y-12498600D01*
X9902800Y-12748800D02*
X9982800Y-12828800D01*
X9982800Y-12748800D02*
X9902800Y-12828800D01*
X9902800Y-12998800D02*
X9982800Y-13078800D01*
X9982800Y-12998800D02*
X9902800Y-13078800D01*
X9902800Y-13791000D02*
X9982800Y-13871000D01*
X9982800Y-13791000D02*
X9902800Y-13871000D01*
X9902800Y-14041000D02*
X9982800Y-14121000D01*
X9982800Y-14041000D02*
X9902800Y-14121000D01*
X9902800Y-14371200D02*
X9982800Y-14451200D01*
X9982800Y-14371200D02*
X9902800Y-14451200D01*
X9902800Y-14621200D02*
X9982800Y-14701200D01*
X9982800Y-14621200D02*
X9902800Y-14701200D01*
D10*
X4501350Y-5792200D02*
G75*
G03*
X4501350Y-5792200I-50000J0D01*
G01*
X4501350Y-6046200D02*
G75*
G03*
X4501350Y-6046200I-50000J0D01*
G01*
X4501350Y-6300200D02*
G75*
G03*
X4501350Y-6300200I-50000J0D01*
G01*
X4501350Y-6554200D02*
G75*
G03*
X4501350Y-6554200I-50000J0D01*
G01*
X4501350Y-7414600D02*
G75*
G03*
X4501350Y-7414600I-50000J0D01*
G01*
X4501350Y-7668600D02*
G75*
G03*
X4501350Y-7668600I-50000J0D01*
G01*
X4501350Y-7922600D02*
G75*
G03*
X4501350Y-7922600I-50000J0D01*
G01*
X4501350Y-8176600D02*
G75*
G03*
X4501350Y-8176600I-50000J0D01*
G01*
X4501350Y-9037000D02*
G75*
G03*
X4501350Y-9037000I-50000J0D01*
G01*
X4501350Y-9291000D02*
G75*
G03*
X4501350Y-9291000I-50000J0D01*
G01*
X4501350Y-9545000D02*
G75*
G03*
X4501350Y-9545000I-50000J0D01*
G01*
X4501350Y-9799000D02*
G75*
G03*
X4501350Y-9799000I-50000J0D01*
G01*
X4501350Y-10659400D02*
G75*
G03*
X4501350Y-10659400I-50000J0D01*
G01*
X4501350Y-10913400D02*
G75*
G03*
X4501350Y-10913400I-50000J0D01*
G01*
X4501350Y-11167400D02*
G75*
G03*
X4501350Y-11167400I-50000J0D01*
G01*
X4501350Y-11421400D02*
G75*
G03*
X4501350Y-11421400I-50000J0D01*
G01*
X4501350Y-12281800D02*
G75*
G03*
X4501350Y-12281800I-50000J0D01*
G01*
X4501350Y-12535800D02*
G75*
G03*
X4501350Y-12535800I-50000J0D01*
G01*
X4501350Y-12789800D02*
G75*
G03*
X4501350Y-12789800I-50000J0D01*
G01*
X4501350Y-13043800D02*
G75*
G03*
X4501350Y-13043800I-50000J0D01*
G01*
X4501350Y-13904200D02*
G75*
G03*
X4501350Y-13904200I-50000J0D01*
G01*
X4501350Y-14158200D02*
G75*
G03*
X4501350Y-14158200I-50000J0D01*
G01*
X4501350Y-14412200D02*
G75*
G03*
X4501350Y-14412200I-50000J0D01*
G01*
X4501350Y-14666200D02*
G75*
G03*
X4501350Y-14666200I-50000J0D01*
G01*
X6774650Y-6089650D02*
G75*
G03*
X6774650Y-6089650I-50000J0D01*
G01*
X6774650Y-6597650D02*
G75*
G03*
X6774650Y-6597650I-50000J0D01*
G01*
X6774650Y-7712050D02*
G75*
G03*
X6774650Y-7712050I-50000J0D01*
G01*
X6774650Y-8220050D02*
G75*
G03*
X6774650Y-8220050I-50000J0D01*
G01*
X6774650Y-9334450D02*
G75*
G03*
X6774650Y-9334450I-50000J0D01*
G01*
X6774650Y-9842450D02*
G75*
G03*
X6774650Y-9842450I-50000J0D01*
G01*
X6774650Y-10956850D02*
G75*
G03*
X6774650Y-10956850I-50000J0D01*
G01*
X6774650Y-11464850D02*
G75*
G03*
X6774650Y-11464850I-50000J0D01*
G01*
X6774650Y-12579250D02*
G75*
G03*
X6774650Y-12579250I-50000J0D01*
G01*
X6774650Y-13087250D02*
G75*
G03*
X6774650Y-13087250I-50000J0D01*
G01*
X6774650Y-14201650D02*
G75*
G03*
X6774650Y-14201650I-50000J0D01*
G01*
X6774650Y-14709650D02*
G75*
G03*
X6774650Y-14709650I-50000J0D01*
G01*
X7835100Y-5798550D02*
G75*
G03*
X7835100Y-5798550I-50000J0D01*
G01*
X7835100Y-6052550D02*
G75*
G03*
X7835100Y-6052550I-50000J0D01*
G01*
X7835100Y-6306550D02*
G75*
G03*
X7835100Y-6306550I-50000J0D01*
G01*
X7835100Y-6560550D02*
G75*
G03*
X7835100Y-6560550I-50000J0D01*
G01*
X7835100Y-7420950D02*
G75*
G03*
X7835100Y-7420950I-50000J0D01*
G01*
X7835100Y-7674950D02*
G75*
G03*
X7835100Y-7674950I-50000J0D01*
G01*
X7835100Y-7928950D02*
G75*
G03*
X7835100Y-7928950I-50000J0D01*
G01*
X7835100Y-8182950D02*
G75*
G03*
X7835100Y-8182950I-50000J0D01*
G01*
X7835100Y-9043350D02*
G75*
G03*
X7835100Y-9043350I-50000J0D01*
G01*
X7835100Y-9297350D02*
G75*
G03*
X7835100Y-9297350I-50000J0D01*
G01*
X7835100Y-9551350D02*
G75*
G03*
X7835100Y-9551350I-50000J0D01*
G01*
X7835100Y-9805350D02*
G75*
G03*
X7835100Y-9805350I-50000J0D01*
G01*
X7835100Y-10665750D02*
G75*
G03*
X7835100Y-10665750I-50000J0D01*
G01*
X7835100Y-10919750D02*
G75*
G03*
X7835100Y-10919750I-50000J0D01*
G01*
X7835100Y-11173750D02*
G75*
G03*
X7835100Y-11173750I-50000J0D01*
G01*
X7835100Y-11427750D02*
G75*
G03*
X7835100Y-11427750I-50000J0D01*
G01*
X7835100Y-12288150D02*
G75*
G03*
X7835100Y-12288150I-50000J0D01*
G01*
X7835100Y-12542150D02*
G75*
G03*
X7835100Y-12542150I-50000J0D01*
G01*
X7835100Y-12796150D02*
G75*
G03*
X7835100Y-12796150I-50000J0D01*
G01*
X7835100Y-13050150D02*
G75*
G03*
X7835100Y-13050150I-50000J0D01*
G01*
X7835100Y-13910550D02*
G75*
G03*
X7835100Y-13910550I-50000J0D01*
G01*
X7835100Y-14164550D02*
G75*
G03*
X7835100Y-14164550I-50000J0D01*
G01*
X7835100Y-14418550D02*
G75*
G03*
X7835100Y-14418550I-50000J0D01*
G01*
X7835100Y-14672550D02*
G75*
G03*
X7835100Y-14672550I-50000J0D01*
G01*
X8551350Y-5792200D02*
G75*
G03*
X8551350Y-5792200I-50000J0D01*
G01*
X8551350Y-6046200D02*
G75*
G03*
X8551350Y-6046200I-50000J0D01*
G01*
X8551350Y-6300200D02*
G75*
G03*
X8551350Y-6300200I-50000J0D01*
G01*
X8551350Y-6554200D02*
G75*
G03*
X8551350Y-6554200I-50000J0D01*
G01*
X8551350Y-7414600D02*
G75*
G03*
X8551350Y-7414600I-50000J0D01*
G01*
X8551350Y-7668600D02*
G75*
G03*
X8551350Y-7668600I-50000J0D01*
G01*
X8551350Y-7922600D02*
G75*
G03*
X8551350Y-7922600I-50000J0D01*
G01*
X8551350Y-8176600D02*
G75*
G03*
X8551350Y-8176600I-50000J0D01*
G01*
X8551350Y-9037000D02*
G75*
G03*
X8551350Y-9037000I-50000J0D01*
G01*
X8551350Y-9291000D02*
G75*
G03*
X8551350Y-9291000I-50000J0D01*
G01*
X8551350Y-9545000D02*
G75*
G03*
X8551350Y-9545000I-50000J0D01*
G01*
X8551350Y-9799000D02*
G75*
G03*
X8551350Y-9799000I-50000J0D01*
G01*
X8551350Y-10659400D02*
G75*
G03*
X8551350Y-10659400I-50000J0D01*
G01*
X8551350Y-10913400D02*
G75*
G03*
X8551350Y-10913400I-50000J0D01*
G01*
X8551350Y-11167400D02*
G75*
G03*
X8551350Y-11167400I-50000J0D01*
G01*
X8551350Y-11421400D02*
G75*
G03*
X8551350Y-11421400I-50000J0D01*
G01*
X8551350Y-12281800D02*
G75*
G03*
X8551350Y-12281800I-50000J0D01*
G01*
X8551350Y-12535800D02*
G75*
G03*
X8551350Y-12535800I-50000J0D01*
G01*
X8551350Y-12789800D02*
G75*
G03*
X8551350Y-12789800I-50000J0D01*
G01*
X8551350Y-13043800D02*
G75*
G03*
X8551350Y-13043800I-50000J0D01*
G01*
X8551350Y-13904200D02*
G75*
G03*
X8551350Y-13904200I-50000J0D01*
G01*
X8551350Y-14158200D02*
G75*
G03*
X8551350Y-14158200I-50000J0D01*
G01*
X8551350Y-14412200D02*
G75*
G03*
X8551350Y-14412200I-50000J0D01*
G01*
X8551350Y-14666200D02*
G75*
G03*
X8551350Y-14666200I-50000J0D01*
G01*
X10824650Y-6089650D02*
G75*
G03*
X10824650Y-6089650I-50000J0D01*
G01*
X10824650Y-6597650D02*
G75*
G03*
X10824650Y-6597650I-50000J0D01*
G01*
X10824650Y-7712050D02*
G75*
G03*
X10824650Y-7712050I-50000J0D01*
G01*
X10824650Y-8220050D02*
G75*
G03*
X10824650Y-8220050I-50000J0D01*
G01*
X10824650Y-9334450D02*
G75*
G03*
X10824650Y-9334450I-50000J0D01*
G01*
X10824650Y-9842450D02*
G75*
G03*
X10824650Y-9842450I-50000J0D01*
G01*
X10824650Y-10956850D02*
G75*
G03*
X10824650Y-10956850I-50000J0D01*
G01*
X10824650Y-11464850D02*
G75*
G03*
X10824650Y-11464850I-50000J0D01*
G01*
X10824650Y-12579250D02*
G75*
G03*
X10824650Y-12579250I-50000J0D01*
G01*
X10824650Y-13087250D02*
G75*
G03*
X10824650Y-13087250I-50000J0D01*
G01*
X10824650Y-14201650D02*
G75*
G03*
X10824650Y-14201650I-50000J0D01*
G01*
X10824650Y-14709650D02*
G75*
G03*
X10824650Y-14709650I-50000J0D01*
G01*
X11885100Y-5798550D02*
G75*
G03*
X11885100Y-5798550I-50000J0D01*
G01*
X11885100Y-6052550D02*
G75*
G03*
X11885100Y-6052550I-50000J0D01*
G01*
X11885100Y-6306550D02*
G75*
G03*
X11885100Y-6306550I-50000J0D01*
G01*
X11885100Y-6560550D02*
G75*
G03*
X11885100Y-6560550I-50000J0D01*
G01*
X11885100Y-7420950D02*
G75*
G03*
X11885100Y-7420950I-50000J0D01*
G01*
X11885100Y-7674950D02*
G75*
G03*
X11885100Y-7674950I-50000J0D01*
G01*
X11885100Y-7928950D02*
G75*
G03*
X11885100Y-7928950I-50000J0D01*
G01*
X11885100Y-8182950D02*
G75*
G03*
X11885100Y-8182950I-50000J0D01*
G01*
X11885100Y-9043350D02*
G75*
G03*
X11885100Y-9043350I-50000J0D01*
G01*
X11885100Y-9297350D02*
G75*
G03*
X11885100Y-9297350I-50000J0D01*
G01*
X11885100Y-9551350D02*
G75*
G03*
X11885100Y-9551350I-50000J0D01*
G01*
X11885100Y-9805350D02*
G75*
G03*
X11885100Y-9805350I-50000J0D01*
G01*
X11885100Y-10665750D02*
G75*
G03*
X11885100Y-10665750I-50000J0D01*
G01*
X11885100Y-10919750D02*
G75*
G03*
X11885100Y-10919750I-50000J0D01*
G01*
X11885100Y-11173750D02*
G75*
G03*
X11885100Y-11173750I-50000J0D01*
G01*
X11885100Y-11427750D02*
G75*
G03*
X11885100Y-11427750I-50000J0D01*
G01*
X11885100Y-12288150D02*
G75*
G03*
X11885100Y-12288150I-50000J0D01*
G01*
X11885100Y-12542150D02*
G75*
G03*
X11885100Y-12542150I-50000J0D01*
G01*
X11885100Y-12796150D02*
G75*
G03*
X11885100Y-12796150I-50000J0D01*
G01*
X11885100Y-13050150D02*
G75*
G03*
X11885100Y-13050150I-50000J0D01*
G01*
X11885100Y-13910550D02*
G75*
G03*
X11885100Y-13910550I-50000J0D01*
G01*
X11885100Y-14164550D02*
G75*
G03*
X11885100Y-14164550I-50000J0D01*
G01*
X11885100Y-14418550D02*
G75*
G03*
X11885100Y-14418550I-50000J0D01*
G01*
X11885100Y-14672550D02*
G75*
G03*
X11885100Y-14672550I-50000J0D01*
G01*
D11*
X4436319Y-15269726D02*
X4436319Y-15069726D01*
X4483938Y-15069726D01*
X4512510Y-15079250D01*
X4531557Y-15098298D01*
X4541081Y-15117345D01*
X4550605Y-15155440D01*
X4550605Y-15184012D01*
X4541081Y-15222107D01*
X4531557Y-15241155D01*
X4512510Y-15260202D01*
X4483938Y-15269726D01*
X4436319Y-15269726D01*
X4636319Y-15269726D02*
X4636319Y-15136393D01*
X4636319Y-15174488D02*
X4645843Y-15155440D01*
X4655367Y-15145917D01*
X4674414Y-15136393D01*
X4693462Y-15136393D01*
X4760129Y-15269726D02*
X4760129Y-15136393D01*
X4760129Y-15069726D02*
X4750605Y-15079250D01*
X4760129Y-15088774D01*
X4769652Y-15079250D01*
X4760129Y-15069726D01*
X4760129Y-15088774D01*
X4883938Y-15269726D02*
X4864890Y-15260202D01*
X4855367Y-15241155D01*
X4855367Y-15069726D01*
X4988700Y-15269726D02*
X4969652Y-15260202D01*
X4960129Y-15241155D01*
X4960129Y-15069726D01*
X5217271Y-15269726D02*
X5217271Y-15069726D01*
X5283938Y-15212583D01*
X5350605Y-15069726D01*
X5350605Y-15269726D01*
X5531557Y-15269726D02*
X5531557Y-15164964D01*
X5522033Y-15145917D01*
X5502986Y-15136393D01*
X5464890Y-15136393D01*
X5445843Y-15145917D01*
X5531557Y-15260202D02*
X5512510Y-15269726D01*
X5464890Y-15269726D01*
X5445843Y-15260202D01*
X5436319Y-15241155D01*
X5436319Y-15222107D01*
X5445843Y-15203059D01*
X5464890Y-15193536D01*
X5512510Y-15193536D01*
X5531557Y-15184012D01*
X5626795Y-15136393D02*
X5626795Y-15336393D01*
X5626795Y-15145917D02*
X5645843Y-15136393D01*
X5683938Y-15136393D01*
X5702986Y-15145917D01*
X5712509Y-15155440D01*
X5722033Y-15174488D01*
X5722033Y-15231631D01*
X5712509Y-15250678D01*
X5702986Y-15260202D01*
X5683938Y-15269726D01*
X5645843Y-15269726D01*
X5626795Y-15260202D01*
X5807748Y-15250678D02*
X5817271Y-15260202D01*
X5807748Y-15269726D01*
X5798224Y-15260202D01*
X5807748Y-15250678D01*
X5807748Y-15269726D01*
X5807748Y-15145917D02*
X5817271Y-15155440D01*
X5807748Y-15164964D01*
X5798224Y-15155440D01*
X5807748Y-15145917D01*
X5807748Y-15164964D01*
D12*
X4098700Y-15559250D02*
X4178700Y-15639250D01*
X4178700Y-15559250D02*
X4098700Y-15639250D01*
D11*
X4474414Y-15489726D02*
X4493462Y-15489726D01*
X4512510Y-15499250D01*
X4522033Y-15508774D01*
X4531557Y-15527821D01*
X4541081Y-15565917D01*
X4541081Y-15613536D01*
X4531557Y-15651631D01*
X4522033Y-15670678D01*
X4512510Y-15680202D01*
X4493462Y-15689726D01*
X4474414Y-15689726D01*
X4455367Y-15680202D01*
X4445843Y-15670678D01*
X4436319Y-15651631D01*
X4426795Y-15613536D01*
X4426795Y-15565917D01*
X4436319Y-15527821D01*
X4445843Y-15508774D01*
X4455367Y-15499250D01*
X4474414Y-15489726D01*
X4626795Y-15670678D02*
X4636319Y-15680202D01*
X4626795Y-15689726D01*
X4617271Y-15680202D01*
X4626795Y-15670678D01*
X4626795Y-15689726D01*
X4750605Y-15575440D02*
X4731557Y-15565917D01*
X4722033Y-15556393D01*
X4712510Y-15537345D01*
X4712510Y-15527821D01*
X4722033Y-15508774D01*
X4731557Y-15499250D01*
X4750605Y-15489726D01*
X4788700Y-15489726D01*
X4807748Y-15499250D01*
X4817271Y-15508774D01*
X4826795Y-15527821D01*
X4826795Y-15537345D01*
X4817271Y-15556393D01*
X4807748Y-15565917D01*
X4788700Y-15575440D01*
X4750605Y-15575440D01*
X4731557Y-15584964D01*
X4722033Y-15594488D01*
X4712510Y-15613536D01*
X4712510Y-15651631D01*
X4722033Y-15670678D01*
X4731557Y-15680202D01*
X4750605Y-15689726D01*
X4788700Y-15689726D01*
X4807748Y-15680202D01*
X4817271Y-15670678D01*
X4826795Y-15651631D01*
X4826795Y-15613536D01*
X4817271Y-15594488D01*
X4807748Y-15584964D01*
X4788700Y-15575440D01*
X4950605Y-15489726D02*
X4969652Y-15489726D01*
X4988700Y-15499250D01*
X4998224Y-15508774D01*
X5007748Y-15527821D01*
X5017271Y-15565917D01*
X5017271Y-15613536D01*
X5007748Y-15651631D01*
X4998224Y-15670678D01*
X4988700Y-15680202D01*
X4969652Y-15689726D01*
X4950605Y-15689726D01*
X4931557Y-15680202D01*
X4922033Y-15670678D01*
X4912510Y-15651631D01*
X4902986Y-15613536D01*
X4902986Y-15565917D01*
X4912510Y-15527821D01*
X4922033Y-15508774D01*
X4931557Y-15499250D01*
X4950605Y-15489726D01*
X5141081Y-15489726D02*
X5160129Y-15489726D01*
X5179176Y-15499250D01*
X5188700Y-15508774D01*
X5198224Y-15527821D01*
X5207748Y-15565917D01*
X5207748Y-15613536D01*
X5198224Y-15651631D01*
X5188700Y-15670678D01*
X5179176Y-15680202D01*
X5160129Y-15689726D01*
X5141081Y-15689726D01*
X5122033Y-15680202D01*
X5112510Y-15670678D01*
X5102986Y-15651631D01*
X5093462Y-15613536D01*
X5093462Y-15565917D01*
X5102986Y-15527821D01*
X5112510Y-15508774D01*
X5122033Y-15499250D01*
X5141081Y-15489726D01*
X5293462Y-15689726D02*
X5293462Y-15556393D01*
X5293462Y-15575440D02*
X5302986Y-15565917D01*
X5322033Y-15556393D01*
X5350605Y-15556393D01*
X5369652Y-15565917D01*
X5379176Y-15584964D01*
X5379176Y-15689726D01*
X5379176Y-15584964D02*
X5388700Y-15565917D01*
X5407748Y-15556393D01*
X5436319Y-15556393D01*
X5455367Y-15565917D01*
X5464890Y-15584964D01*
X5464890Y-15689726D01*
X5560129Y-15689726D02*
X5560129Y-15556393D01*
X5560129Y-15575440D02*
X5569652Y-15565917D01*
X5588700Y-15556393D01*
X5617271Y-15556393D01*
X5636319Y-15565917D01*
X5645843Y-15584964D01*
X5645843Y-15689726D01*
X5645843Y-15584964D02*
X5655367Y-15565917D01*
X5674414Y-15556393D01*
X5702986Y-15556393D01*
X5722033Y-15565917D01*
X5731557Y-15584964D01*
X5731557Y-15689726D01*
X6122033Y-15480202D02*
X5950605Y-15737345D01*
X6379176Y-15489726D02*
X6398224Y-15489726D01*
X6417271Y-15499250D01*
X6426795Y-15508774D01*
X6436319Y-15527821D01*
X6445843Y-15565917D01*
X6445843Y-15613536D01*
X6436319Y-15651631D01*
X6426795Y-15670678D01*
X6417271Y-15680202D01*
X6398224Y-15689726D01*
X6379176Y-15689726D01*
X6360128Y-15680202D01*
X6350605Y-15670678D01*
X6341081Y-15651631D01*
X6331557Y-15613536D01*
X6331557Y-15565917D01*
X6341081Y-15527821D01*
X6350605Y-15508774D01*
X6360128Y-15499250D01*
X6379176Y-15489726D01*
X6531557Y-15670678D02*
X6541081Y-15680202D01*
X6531557Y-15689726D01*
X6522033Y-15680202D01*
X6531557Y-15670678D01*
X6531557Y-15689726D01*
X6664890Y-15489726D02*
X6683938Y-15489726D01*
X6702986Y-15499250D01*
X6712509Y-15508774D01*
X6722033Y-15527821D01*
X6731557Y-15565917D01*
X6731557Y-15613536D01*
X6722033Y-15651631D01*
X6712509Y-15670678D01*
X6702986Y-15680202D01*
X6683938Y-15689726D01*
X6664890Y-15689726D01*
X6645843Y-15680202D01*
X6636319Y-15670678D01*
X6626795Y-15651631D01*
X6617271Y-15613536D01*
X6617271Y-15565917D01*
X6626795Y-15527821D01*
X6636319Y-15508774D01*
X6645843Y-15499250D01*
X6664890Y-15489726D01*
X6798224Y-15489726D02*
X6922033Y-15489726D01*
X6855367Y-15565917D01*
X6883938Y-15565917D01*
X6902986Y-15575440D01*
X6912509Y-15584964D01*
X6922033Y-15604012D01*
X6922033Y-15651631D01*
X6912509Y-15670678D01*
X6902986Y-15680202D01*
X6883938Y-15689726D01*
X6826795Y-15689726D01*
X6807748Y-15680202D01*
X6798224Y-15670678D01*
X7112509Y-15689726D02*
X6998224Y-15689726D01*
X7055367Y-15689726D02*
X7055367Y-15489726D01*
X7036319Y-15518298D01*
X7017271Y-15537345D01*
X6998224Y-15546869D01*
X7293462Y-15489726D02*
X7198224Y-15489726D01*
X7188700Y-15584964D01*
X7198224Y-15575440D01*
X7217271Y-15565917D01*
X7264890Y-15565917D01*
X7283938Y-15575440D01*
X7293462Y-15584964D01*
X7302986Y-15604012D01*
X7302986Y-15651631D01*
X7293462Y-15670678D01*
X7283938Y-15680202D01*
X7264890Y-15689726D01*
X7217271Y-15689726D01*
X7198224Y-15680202D01*
X7188700Y-15670678D01*
X7379176Y-15489726D02*
X7379176Y-15527821D01*
X7455367Y-15489726D02*
X7455367Y-15527821D01*
X7750605Y-15765917D02*
X7741081Y-15756393D01*
X7722033Y-15727821D01*
X7712509Y-15708774D01*
X7702986Y-15680202D01*
X7693462Y-15632583D01*
X7693462Y-15594488D01*
X7702986Y-15546869D01*
X7712509Y-15518298D01*
X7722033Y-15499250D01*
X7741081Y-15470678D01*
X7750605Y-15461155D01*
X7931557Y-15689726D02*
X7817271Y-15689726D01*
X7874414Y-15689726D02*
X7874414Y-15489726D01*
X7855367Y-15518298D01*
X7836319Y-15537345D01*
X7817271Y-15546869D01*
X8102986Y-15556393D02*
X8102986Y-15689726D01*
X8055367Y-15480202D02*
X8007748Y-15623059D01*
X8131557Y-15623059D01*
X8293462Y-15556393D02*
X8293462Y-15689726D01*
X8245843Y-15480202D02*
X8198224Y-15623059D01*
X8322033Y-15623059D01*
X8550605Y-15689726D02*
X8550605Y-15489726D01*
X8636319Y-15689726D02*
X8636319Y-15584964D01*
X8626795Y-15565917D01*
X8607748Y-15556393D01*
X8579176Y-15556393D01*
X8560129Y-15565917D01*
X8550605Y-15575440D01*
X8760129Y-15689726D02*
X8741081Y-15680202D01*
X8731557Y-15670678D01*
X8722033Y-15651631D01*
X8722033Y-15594488D01*
X8731557Y-15575440D01*
X8741081Y-15565917D01*
X8760129Y-15556393D01*
X8788700Y-15556393D01*
X8807748Y-15565917D01*
X8817271Y-15575440D01*
X8826795Y-15594488D01*
X8826795Y-15651631D01*
X8817271Y-15670678D01*
X8807748Y-15680202D01*
X8788700Y-15689726D01*
X8760129Y-15689726D01*
X8941081Y-15689726D02*
X8922033Y-15680202D01*
X8912510Y-15661155D01*
X8912510Y-15489726D01*
X9093462Y-15680202D02*
X9074414Y-15689726D01*
X9036319Y-15689726D01*
X9017271Y-15680202D01*
X9007748Y-15661155D01*
X9007748Y-15584964D01*
X9017271Y-15565917D01*
X9036319Y-15556393D01*
X9074414Y-15556393D01*
X9093462Y-15565917D01*
X9102986Y-15584964D01*
X9102986Y-15604012D01*
X9007748Y-15623059D01*
X9179176Y-15680202D02*
X9198224Y-15689726D01*
X9236319Y-15689726D01*
X9255367Y-15680202D01*
X9264890Y-15661155D01*
X9264890Y-15651631D01*
X9255367Y-15632583D01*
X9236319Y-15623059D01*
X9207748Y-15623059D01*
X9188700Y-15613536D01*
X9179176Y-15594488D01*
X9179176Y-15584964D01*
X9188700Y-15565917D01*
X9207748Y-15556393D01*
X9236319Y-15556393D01*
X9255367Y-15565917D01*
X9331557Y-15765917D02*
X9341081Y-15756393D01*
X9360129Y-15727821D01*
X9369652Y-15708774D01*
X9379176Y-15680202D01*
X9388700Y-15632583D01*
X9388700Y-15594488D01*
X9379176Y-15546869D01*
X9369652Y-15518298D01*
X9360129Y-15499250D01*
X9341081Y-15470678D01*
X9331557Y-15461155D01*
D10*
X4178700Y-15863250D02*
G75*
G03*
X4178700Y-15863250I-50000J0D01*
G01*
D11*
X4541081Y-15953726D02*
X4426795Y-15953726D01*
X4483938Y-15953726D02*
X4483938Y-15753726D01*
X4464890Y-15782298D01*
X4445843Y-15801345D01*
X4426795Y-15810869D01*
X4626795Y-15934678D02*
X4636319Y-15944202D01*
X4626795Y-15953726D01*
X4617271Y-15944202D01*
X4626795Y-15934678D01*
X4626795Y-15953726D01*
X4760129Y-15753726D02*
X4779176Y-15753726D01*
X4798224Y-15763250D01*
X4807748Y-15772774D01*
X4817271Y-15791821D01*
X4826795Y-15829917D01*
X4826795Y-15877536D01*
X4817271Y-15915631D01*
X4807748Y-15934678D01*
X4798224Y-15944202D01*
X4779176Y-15953726D01*
X4760129Y-15953726D01*
X4741081Y-15944202D01*
X4731557Y-15934678D01*
X4722033Y-15915631D01*
X4712510Y-15877536D01*
X4712510Y-15829917D01*
X4722033Y-15791821D01*
X4731557Y-15772774D01*
X4741081Y-15763250D01*
X4760129Y-15753726D01*
X4950605Y-15753726D02*
X4969652Y-15753726D01*
X4988700Y-15763250D01*
X4998224Y-15772774D01*
X5007748Y-15791821D01*
X5017271Y-15829917D01*
X5017271Y-15877536D01*
X5007748Y-15915631D01*
X4998224Y-15934678D01*
X4988700Y-15944202D01*
X4969652Y-15953726D01*
X4950605Y-15953726D01*
X4931557Y-15944202D01*
X4922033Y-15934678D01*
X4912510Y-15915631D01*
X4902986Y-15877536D01*
X4902986Y-15829917D01*
X4912510Y-15791821D01*
X4922033Y-15772774D01*
X4931557Y-15763250D01*
X4950605Y-15753726D01*
X5141081Y-15753726D02*
X5160129Y-15753726D01*
X5179176Y-15763250D01*
X5188700Y-15772774D01*
X5198224Y-15791821D01*
X5207748Y-15829917D01*
X5207748Y-15877536D01*
X5198224Y-15915631D01*
X5188700Y-15934678D01*
X5179176Y-15944202D01*
X5160129Y-15953726D01*
X5141081Y-15953726D01*
X5122033Y-15944202D01*
X5112510Y-15934678D01*
X5102986Y-15915631D01*
X5093462Y-15877536D01*
X5093462Y-15829917D01*
X5102986Y-15791821D01*
X5112510Y-15772774D01*
X5122033Y-15763250D01*
X5141081Y-15753726D01*
X5293462Y-15953726D02*
X5293462Y-15820393D01*
X5293462Y-15839440D02*
X5302986Y-15829917D01*
X5322033Y-15820393D01*
X5350605Y-15820393D01*
X5369652Y-15829917D01*
X5379176Y-15848964D01*
X5379176Y-15953726D01*
X5379176Y-15848964D02*
X5388700Y-15829917D01*
X5407748Y-15820393D01*
X5436319Y-15820393D01*
X5455367Y-15829917D01*
X5464890Y-15848964D01*
X5464890Y-15953726D01*
X5560129Y-15953726D02*
X5560129Y-15820393D01*
X5560129Y-15839440D02*
X5569652Y-15829917D01*
X5588700Y-15820393D01*
X5617271Y-15820393D01*
X5636319Y-15829917D01*
X5645843Y-15848964D01*
X5645843Y-15953726D01*
X5645843Y-15848964D02*
X5655367Y-15829917D01*
X5674414Y-15820393D01*
X5702986Y-15820393D01*
X5722033Y-15829917D01*
X5731557Y-15848964D01*
X5731557Y-15953726D01*
X6122033Y-15744202D02*
X5950605Y-16001345D01*
X6379176Y-15753726D02*
X6398224Y-15753726D01*
X6417271Y-15763250D01*
X6426795Y-15772774D01*
X6436319Y-15791821D01*
X6445843Y-15829917D01*
X6445843Y-15877536D01*
X6436319Y-15915631D01*
X6426795Y-15934678D01*
X6417271Y-15944202D01*
X6398224Y-15953726D01*
X6379176Y-15953726D01*
X6360128Y-15944202D01*
X6350605Y-15934678D01*
X6341081Y-15915631D01*
X6331557Y-15877536D01*
X6331557Y-15829917D01*
X6341081Y-15791821D01*
X6350605Y-15772774D01*
X6360128Y-15763250D01*
X6379176Y-15753726D01*
X6531557Y-15934678D02*
X6541081Y-15944202D01*
X6531557Y-15953726D01*
X6522033Y-15944202D01*
X6531557Y-15934678D01*
X6531557Y-15953726D01*
X6664890Y-15753726D02*
X6683938Y-15753726D01*
X6702986Y-15763250D01*
X6712509Y-15772774D01*
X6722033Y-15791821D01*
X6731557Y-15829917D01*
X6731557Y-15877536D01*
X6722033Y-15915631D01*
X6712509Y-15934678D01*
X6702986Y-15944202D01*
X6683938Y-15953726D01*
X6664890Y-15953726D01*
X6645843Y-15944202D01*
X6636319Y-15934678D01*
X6626795Y-15915631D01*
X6617271Y-15877536D01*
X6617271Y-15829917D01*
X6626795Y-15791821D01*
X6636319Y-15772774D01*
X6645843Y-15763250D01*
X6664890Y-15753726D01*
X6798224Y-15753726D02*
X6922033Y-15753726D01*
X6855367Y-15829917D01*
X6883938Y-15829917D01*
X6902986Y-15839440D01*
X6912509Y-15848964D01*
X6922033Y-15868012D01*
X6922033Y-15915631D01*
X6912509Y-15934678D01*
X6902986Y-15944202D01*
X6883938Y-15953726D01*
X6826795Y-15953726D01*
X6807748Y-15944202D01*
X6798224Y-15934678D01*
X7017271Y-15953726D02*
X7055367Y-15953726D01*
X7074414Y-15944202D01*
X7083938Y-15934678D01*
X7102986Y-15906107D01*
X7112509Y-15868012D01*
X7112509Y-15791821D01*
X7102986Y-15772774D01*
X7093462Y-15763250D01*
X7074414Y-15753726D01*
X7036319Y-15753726D01*
X7017271Y-15763250D01*
X7007748Y-15772774D01*
X6998224Y-15791821D01*
X6998224Y-15839440D01*
X7007748Y-15858488D01*
X7017271Y-15868012D01*
X7036319Y-15877536D01*
X7074414Y-15877536D01*
X7093462Y-15868012D01*
X7102986Y-15858488D01*
X7112509Y-15839440D01*
X7283938Y-15820393D02*
X7283938Y-15953726D01*
X7236319Y-15744202D02*
X7188700Y-15887059D01*
X7312509Y-15887059D01*
X7379176Y-15753726D02*
X7379176Y-15791821D01*
X7455367Y-15753726D02*
X7455367Y-15791821D01*
X7750605Y-16029917D02*
X7741081Y-16020393D01*
X7722033Y-15991821D01*
X7712509Y-15972774D01*
X7702986Y-15944202D01*
X7693462Y-15896583D01*
X7693462Y-15858488D01*
X7702986Y-15810869D01*
X7712509Y-15782298D01*
X7722033Y-15763250D01*
X7741081Y-15734678D01*
X7750605Y-15725155D01*
X7931557Y-15953726D02*
X7817271Y-15953726D01*
X7874414Y-15953726D02*
X7874414Y-15753726D01*
X7855367Y-15782298D01*
X7836319Y-15801345D01*
X7817271Y-15810869D01*
X8007748Y-15772774D02*
X8017271Y-15763250D01*
X8036319Y-15753726D01*
X8083938Y-15753726D01*
X8102986Y-15763250D01*
X8112509Y-15772774D01*
X8122033Y-15791821D01*
X8122033Y-15810869D01*
X8112509Y-15839440D01*
X7998224Y-15953726D01*
X8122033Y-15953726D01*
X8245843Y-15753726D02*
X8264890Y-15753726D01*
X8283938Y-15763250D01*
X8293462Y-15772774D01*
X8302986Y-15791821D01*
X8312509Y-15829917D01*
X8312509Y-15877536D01*
X8302986Y-15915631D01*
X8293462Y-15934678D01*
X8283938Y-15944202D01*
X8264890Y-15953726D01*
X8245843Y-15953726D01*
X8226795Y-15944202D01*
X8217271Y-15934678D01*
X8207748Y-15915631D01*
X8198224Y-15877536D01*
X8198224Y-15829917D01*
X8207748Y-15791821D01*
X8217271Y-15772774D01*
X8226795Y-15763250D01*
X8245843Y-15753726D01*
X8550605Y-15953726D02*
X8550605Y-15753726D01*
X8636319Y-15953726D02*
X8636319Y-15848964D01*
X8626795Y-15829917D01*
X8607748Y-15820393D01*
X8579176Y-15820393D01*
X8560129Y-15829917D01*
X8550605Y-15839440D01*
X8760129Y-15953726D02*
X8741081Y-15944202D01*
X8731557Y-15934678D01*
X8722033Y-15915631D01*
X8722033Y-15858488D01*
X8731557Y-15839440D01*
X8741081Y-15829917D01*
X8760129Y-15820393D01*
X8788700Y-15820393D01*
X8807748Y-15829917D01*
X8817271Y-15839440D01*
X8826795Y-15858488D01*
X8826795Y-15915631D01*
X8817271Y-15934678D01*
X8807748Y-15944202D01*
X8788700Y-15953726D01*
X8760129Y-15953726D01*
X8941081Y-15953726D02*
X8922033Y-15944202D01*
X8912510Y-15925155D01*
X8912510Y-15753726D01*
X9093462Y-15944202D02*
X9074414Y-15953726D01*
X9036319Y-15953726D01*
X9017271Y-15944202D01*
X9007748Y-15925155D01*
X9007748Y-15848964D01*
X9017271Y-15829917D01*
X9036319Y-15820393D01*
X9074414Y-15820393D01*
X9093462Y-15829917D01*
X9102986Y-15848964D01*
X9102986Y-15868012D01*
X9007748Y-15887059D01*
X9179176Y-15944202D02*
X9198224Y-15953726D01*
X9236319Y-15953726D01*
X9255367Y-15944202D01*
X9264890Y-15925155D01*
X9264890Y-15915631D01*
X9255367Y-15896583D01*
X9236319Y-15887059D01*
X9207748Y-15887059D01*
X9188700Y-15877536D01*
X9179176Y-15858488D01*
X9179176Y-15848964D01*
X9188700Y-15829917D01*
X9207748Y-15820393D01*
X9236319Y-15820393D01*
X9255367Y-15829917D01*
X9331557Y-16029917D02*
X9341081Y-16020393D01*
X9360129Y-15991821D01*
X9369652Y-15972774D01*
X9379176Y-15944202D01*
X9388700Y-15896583D01*
X9388700Y-15858488D01*
X9379176Y-15810869D01*
X9369652Y-15782298D01*
X9360129Y-15763250D01*
X9341081Y-15734678D01*
X9331557Y-15725155D01*
M02*
