M48
; DRILL file {KiCad (6.0.7)} date Wed Jun 12 17:23:29 2024
; FORMAT={-:-/ absolute / metric / decimal}
; #@! TF.CreationDate,2024-06-12T17:23:29-04:00
; #@! TF.GenerationSoftware,Kicad,Pcbnew,(6.0.7)
; #@! TF.FileFunction,MixedPlating,1,2
FMAT,2
METRIC
; #@! TA.AperFunction,Plated,PTH,ComponentDrill
T1C0.800
; #@! TA.AperFunction,Plated,PTH,ComponentDrill
T2C1.000
%
G90
G05
T1
X49.212Y-57.17
X49.212Y-59.67
X49.212Y-62.992
X49.212Y-65.492
X49.212Y-73.394
X49.212Y-75.894
X49.212Y-79.216
X49.212Y-81.716
X49.212Y-89.618
X49.212Y-92.118
X49.212Y-95.44
X49.212Y-97.94
X49.212Y-105.842
X49.212Y-108.342
X49.212Y-111.664
X49.212Y-114.164
X49.212Y-122.066
X49.212Y-124.566
X49.212Y-127.888
X49.212Y-130.388
X49.212Y-138.29
X49.212Y-140.79
X49.212Y-144.112
X49.212Y-146.612
X54.356Y-57.19
X54.356Y-59.69
X54.356Y-62.948
X54.356Y-65.448
X54.356Y-73.414
X54.356Y-75.914
X54.356Y-79.172
X54.356Y-81.672
X54.356Y-89.638
X54.356Y-92.138
X54.356Y-95.396
X54.356Y-97.896
X54.356Y-105.862
X54.356Y-108.362
X54.356Y-111.62
X54.356Y-114.12
X54.356Y-122.086
X54.356Y-124.586
X54.356Y-127.844
X54.356Y-130.344
X54.356Y-138.31
X54.356Y-140.81
X54.356Y-144.069
X54.356Y-146.569
X58.928Y-57.19
X58.928Y-59.69
X58.928Y-62.992
X58.928Y-65.492
X58.928Y-73.414
X58.928Y-75.914
X58.928Y-79.216
X58.928Y-81.716
X58.928Y-89.638
X58.928Y-92.138
X58.928Y-95.44
X58.928Y-97.94
X58.928Y-105.862
X58.928Y-108.362
X58.928Y-111.664
X58.928Y-114.164
X58.928Y-122.086
X58.928Y-124.586
X58.928Y-127.888
X58.928Y-130.388
X58.928Y-138.31
X58.928Y-140.81
X58.928Y-144.112
X58.928Y-146.612
X89.712Y-57.17
X89.712Y-59.67
X89.712Y-62.992
X89.712Y-65.492
X89.712Y-73.394
X89.712Y-75.894
X89.712Y-79.216
X89.712Y-81.716
X89.712Y-89.618
X89.712Y-92.118
X89.712Y-95.44
X89.712Y-97.94
X89.712Y-105.842
X89.712Y-108.342
X89.712Y-111.664
X89.712Y-114.164
X89.712Y-122.066
X89.712Y-124.566
X89.712Y-127.888
X89.712Y-130.388
X89.712Y-138.29
X89.712Y-140.79
X89.712Y-144.112
X89.712Y-146.612
X94.856Y-57.19
X94.856Y-59.69
X94.856Y-62.948
X94.856Y-65.448
X94.856Y-73.414
X94.856Y-75.914
X94.856Y-79.172
X94.856Y-81.672
X94.856Y-89.638
X94.856Y-92.138
X94.856Y-95.396
X94.856Y-97.896
X94.856Y-105.862
X94.856Y-108.362
X94.856Y-111.62
X94.856Y-114.12
X94.856Y-122.086
X94.856Y-124.586
X94.856Y-127.844
X94.856Y-130.344
X94.856Y-138.31
X94.856Y-140.81
X94.856Y-144.069
X94.856Y-146.569
X99.428Y-57.19
X99.428Y-59.69
X99.428Y-62.992
X99.428Y-65.492
X99.428Y-73.414
X99.428Y-75.914
X99.428Y-79.216
X99.428Y-81.716
X99.428Y-89.638
X99.428Y-92.138
X99.428Y-95.44
X99.428Y-97.94
X99.428Y-105.862
X99.428Y-108.362
X99.428Y-111.664
X99.428Y-114.164
X99.428Y-122.086
X99.428Y-124.586
X99.428Y-127.888
X99.428Y-130.388
X99.428Y-138.31
X99.428Y-140.81
X99.428Y-144.112
X99.428Y-146.612
T2
X44.514Y-57.922
X44.514Y-60.462
X44.514Y-63.002
X44.514Y-65.542
X44.514Y-74.146
X44.514Y-76.686
X44.514Y-79.226
X44.514Y-81.766
X44.514Y-90.37
X44.514Y-92.91
X44.514Y-95.45
X44.514Y-97.99
X44.514Y-106.594
X44.514Y-109.134
X44.514Y-111.674
X44.514Y-114.214
X44.514Y-122.818
X44.514Y-125.358
X44.514Y-127.898
X44.514Y-130.438
X44.514Y-139.042
X44.514Y-141.582
X44.514Y-144.122
X44.514Y-146.662
X67.246Y-60.896
X67.246Y-65.977
X67.246Y-77.12
X67.246Y-82.2
X67.246Y-93.344
X67.246Y-98.424
X67.246Y-109.569
X67.246Y-114.648
X67.246Y-125.792
X67.246Y-130.873
X67.246Y-142.017
X67.246Y-147.096
X77.851Y-57.985
X77.851Y-60.525
X77.851Y-63.066
X77.851Y-65.605
X77.851Y-74.209
X77.851Y-76.749
X77.851Y-79.289
X77.851Y-81.829
X77.851Y-90.433
X77.851Y-92.974
X77.851Y-95.513
X77.851Y-98.053
X77.851Y-106.657
X77.851Y-109.197
X77.851Y-111.737
X77.851Y-114.277
X77.851Y-122.881
X77.851Y-125.421
X77.851Y-127.962
X77.851Y-130.501
X77.851Y-139.106
X77.851Y-141.645
X77.851Y-144.185
X77.851Y-146.725
X85.013Y-57.922
X85.013Y-60.462
X85.013Y-63.002
X85.013Y-65.542
X85.013Y-74.146
X85.013Y-76.686
X85.013Y-79.226
X85.013Y-81.766
X85.013Y-90.37
X85.013Y-92.91
X85.013Y-95.45
X85.013Y-97.99
X85.013Y-106.594
X85.013Y-109.134
X85.013Y-111.674
X85.013Y-114.214
X85.013Y-122.818
X85.013Y-125.358
X85.013Y-127.898
X85.013Y-130.438
X85.013Y-139.042
X85.013Y-141.582
X85.013Y-144.122
X85.013Y-146.662
X107.746Y-60.896
X107.746Y-65.977
X107.746Y-77.12
X107.746Y-82.2
X107.746Y-93.344
X107.746Y-98.424
X107.746Y-109.569
X107.746Y-114.648
X107.746Y-125.792
X107.746Y-130.873
X107.746Y-142.017
X107.746Y-147.096
X118.351Y-57.985
X118.351Y-60.525
X118.351Y-63.066
X118.351Y-65.605
X118.351Y-74.209
X118.351Y-76.749
X118.351Y-79.289
X118.351Y-81.829
X118.351Y-90.433
X118.351Y-92.974
X118.351Y-95.513
X118.351Y-98.053
X118.351Y-106.657
X118.351Y-109.197
X118.351Y-111.737
X118.351Y-114.277
X118.351Y-122.881
X118.351Y-125.421
X118.351Y-127.962
X118.351Y-130.501
X118.351Y-139.106
X118.351Y-141.645
X118.351Y-144.185
X118.351Y-146.725
T0
M30
