%TF.GenerationSoftware,KiCad,Pcbnew,(6.0.7)*%
%TF.CreationDate,2024-07-22T14:21:24-04:00*%
%TF.ProjectId,DCR v2,44435220-7632-42e6-9b69-6361645f7063,rev?*%
%TF.SameCoordinates,Original*%
%TF.FileFunction,Drillmap*%
%TF.FilePolarity,Positive*%
%FSLAX45Y45*%
G04 Gerber Fmt 4.5, Leading zero omitted, Abs format (unit mm)*
G04 Created by KiCad (PCBNEW (6.0.7)) date 2024-07-22 14:21:24*
%MOMM*%
%LPD*%
G01*
G04 APERTURE LIST*
%ADD10C,0.100000*%
%ADD11C,0.200000*%
%ADD12C,0.040000*%
%ADD13C,0.075000*%
%ADD14C,0.080000*%
%ADD15C,0.089000*%
%ADD16C,0.090000*%
%ADD17C,0.110000*%
%ADD18C,0.201000*%
%ADD19C,0.206160*%
%ADD20C,0.230000*%
%ADD21C,0.160000*%
%ADD22C,0.320000*%
G04 APERTURE END LIST*
D10*
X19627850Y-11144250D02*
X9861550Y-11144250D01*
X9861550Y-11144250D02*
X9861550Y-5175250D01*
X9861550Y-5175250D02*
X19627850Y-5175250D01*
X19627850Y-5175250D02*
X19627850Y-11144250D01*
D11*
D12*
X13835700Y-7346000D02*
X13875700Y-7386000D01*
X13875700Y-7346000D02*
X13835700Y-7386000D01*
X14996750Y-7010450D02*
X15036750Y-7050450D01*
X15036750Y-7010450D02*
X14996750Y-7050450D01*
D13*
X18160400Y-7785100D02*
G75*
G03*
X18160400Y-7785100I-37500J0D01*
G01*
X18160400Y-7912100D02*
G75*
G03*
X18160400Y-7912100I-37500J0D01*
G01*
X18160400Y-8039100D02*
G75*
G03*
X18160400Y-8039100I-37500J0D01*
G01*
D14*
X12532090Y-7320650D02*
X12532090Y-7400650D01*
X12492090Y-7360650D02*
X12572090Y-7360650D01*
X12532090Y-7574650D02*
X12532090Y-7654650D01*
X12492090Y-7614650D02*
X12572090Y-7614650D01*
X12532090Y-7828650D02*
X12532090Y-7908650D01*
X12492090Y-7868650D02*
X12572090Y-7868650D01*
X12532090Y-8082650D02*
X12532090Y-8162650D01*
X12492090Y-8122650D02*
X12572090Y-8122650D01*
X12556490Y-8931585D02*
X12556490Y-9011585D01*
X12516490Y-8971585D02*
X12596490Y-8971585D01*
X12556490Y-9181585D02*
X12556490Y-9261585D01*
X12516490Y-9221585D02*
X12596490Y-9221585D01*
X13294090Y-7320650D02*
X13294090Y-7400650D01*
X13254090Y-7360650D02*
X13334090Y-7360650D01*
X13294090Y-7574650D02*
X13294090Y-7654650D01*
X13254090Y-7614650D02*
X13334090Y-7614650D01*
X13294090Y-7828650D02*
X13294090Y-7908650D01*
X13254090Y-7868650D02*
X13334090Y-7868650D01*
X13294090Y-8082650D02*
X13294090Y-8162650D01*
X13254090Y-8122650D02*
X13334090Y-8122650D01*
X14878050Y-8919850D02*
X14878050Y-8999850D01*
X14838050Y-8959850D02*
X14918050Y-8959850D01*
X14878050Y-9173850D02*
X14878050Y-9253850D01*
X14838050Y-9213850D02*
X14918050Y-9213850D01*
X14878050Y-9427850D02*
X14878050Y-9507850D01*
X14838050Y-9467850D02*
X14918050Y-9467850D01*
X14878050Y-9681850D02*
X14878050Y-9761850D01*
X14838050Y-9721850D02*
X14918050Y-9721850D01*
X14903450Y-5294000D02*
X14903450Y-5374000D01*
X14863450Y-5334000D02*
X14943450Y-5334000D01*
X14903450Y-6056000D02*
X14903450Y-6136000D01*
X14863450Y-6096000D02*
X14943450Y-6096000D01*
X15232650Y-8283850D02*
X15232650Y-8363850D01*
X15192650Y-8323850D02*
X15272650Y-8323850D01*
X15322550Y-5294000D02*
X15322550Y-5374000D01*
X15282550Y-5334000D02*
X15362550Y-5334000D01*
X15322550Y-6056000D02*
X15322550Y-6136000D01*
X15282550Y-6096000D02*
X15362550Y-6096000D01*
X15482650Y-8283850D02*
X15482650Y-8363850D01*
X15442650Y-8323850D02*
X15522650Y-8323850D01*
X15621000Y-5852800D02*
X15621000Y-5932800D01*
X15581000Y-5892800D02*
X15661000Y-5892800D01*
X15640050Y-8919850D02*
X15640050Y-8999850D01*
X15600050Y-8959850D02*
X15680050Y-8959850D01*
X15640050Y-9173850D02*
X15640050Y-9253850D01*
X15600050Y-9213850D02*
X15680050Y-9213850D01*
X15640050Y-9427850D02*
X15640050Y-9507850D01*
X15600050Y-9467850D02*
X15680050Y-9467850D01*
X15640050Y-9681850D02*
X15640050Y-9761850D01*
X15600050Y-9721850D02*
X15680050Y-9721850D01*
X16121650Y-8690250D02*
X16121650Y-8770250D01*
X16081650Y-8730250D02*
X16161650Y-8730250D01*
X16223250Y-10163450D02*
X16223250Y-10243450D01*
X16183250Y-10203450D02*
X16263250Y-10203450D01*
X16371650Y-8690250D02*
X16371650Y-8770250D01*
X16331650Y-8730250D02*
X16411650Y-8730250D01*
X16383000Y-5852800D02*
X16383000Y-5932800D01*
X16343000Y-5892800D02*
X16423000Y-5892800D01*
X16473250Y-10163450D02*
X16473250Y-10243450D01*
X16433250Y-10203450D02*
X16513250Y-10203450D01*
X16700500Y-5294000D02*
X16700500Y-5374000D01*
X16660500Y-5334000D02*
X16740500Y-5334000D01*
X16700500Y-6056000D02*
X16700500Y-6136000D01*
X16660500Y-6096000D02*
X16740500Y-6096000D01*
X18933350Y-7684035D02*
X18933350Y-7764035D01*
X18893350Y-7724035D02*
X18973350Y-7724035D01*
X18933350Y-7934035D02*
X18933350Y-8014035D01*
X18893350Y-7974035D02*
X18973350Y-7974035D01*
D15*
X12488897Y-6540367D02*
X12488897Y-6477433D01*
X12425963Y-6477433D01*
X12425963Y-6540367D01*
X12488897Y-6540367D01*
X12742897Y-6540367D02*
X12742897Y-6477433D01*
X12679963Y-6477433D01*
X12679963Y-6540367D01*
X12742897Y-6540367D01*
D16*
X19216370Y-6561370D02*
X19261370Y-6516370D01*
X19216370Y-6471370D01*
X19171370Y-6516370D01*
X19216370Y-6561370D01*
X19216370Y-6815370D02*
X19261370Y-6770370D01*
X19216370Y-6725370D01*
X19171370Y-6770370D01*
X19216370Y-6815370D01*
D10*
X10309390Y-9646450D02*
X10409390Y-9746450D01*
X10409390Y-9646450D02*
X10309390Y-9746450D01*
X10409390Y-9696450D02*
G75*
G03*
X10409390Y-9696450I-50000J0D01*
G01*
X10313990Y-6344450D02*
X10413990Y-6444450D01*
X10413990Y-6344450D02*
X10313990Y-6444450D01*
X10413990Y-6394450D02*
G75*
G03*
X10413990Y-6394450I-50000J0D01*
G01*
X10563390Y-9646450D02*
X10663390Y-9746450D01*
X10663390Y-9646450D02*
X10563390Y-9746450D01*
X10663390Y-9696450D02*
G75*
G03*
X10663390Y-9696450I-50000J0D01*
G01*
X10567990Y-6344450D02*
X10667990Y-6444450D01*
X10667990Y-6344450D02*
X10567990Y-6444450D01*
X10667990Y-6394450D02*
G75*
G03*
X10667990Y-6394450I-50000J0D01*
G01*
X10817390Y-9646450D02*
X10917390Y-9746450D01*
X10917390Y-9646450D02*
X10817390Y-9746450D01*
X10917390Y-9696450D02*
G75*
G03*
X10917390Y-9696450I-50000J0D01*
G01*
X10821990Y-6344450D02*
X10921990Y-6444450D01*
X10921990Y-6344450D02*
X10821990Y-6444450D01*
X10921990Y-6394450D02*
G75*
G03*
X10921990Y-6394450I-50000J0D01*
G01*
X11071390Y-9646450D02*
X11171390Y-9746450D01*
X11171390Y-9646450D02*
X11071390Y-9746450D01*
X11171390Y-9696450D02*
G75*
G03*
X11171390Y-9696450I-50000J0D01*
G01*
X11075990Y-6344450D02*
X11175990Y-6444450D01*
X11175990Y-6344450D02*
X11075990Y-6444450D01*
X11175990Y-6394450D02*
G75*
G03*
X11175990Y-6394450I-50000J0D01*
G01*
X11094250Y-5562900D02*
X11194250Y-5662900D01*
X11194250Y-5562900D02*
X11094250Y-5662900D01*
X11194250Y-5612900D02*
G75*
G03*
X11194250Y-5612900I-50000J0D01*
G01*
X11094250Y-5816900D02*
X11194250Y-5916900D01*
X11194250Y-5816900D02*
X11094250Y-5916900D01*
X11194250Y-5866900D02*
G75*
G03*
X11194250Y-5866900I-50000J0D01*
G01*
X11849900Y-8986550D02*
X11949900Y-9086550D01*
X11949900Y-8986550D02*
X11849900Y-9086550D01*
X11949900Y-9036550D02*
G75*
G03*
X11949900Y-9036550I-50000J0D01*
G01*
X11849900Y-9240550D02*
X11949900Y-9340550D01*
X11949900Y-9240550D02*
X11849900Y-9340550D01*
X11949900Y-9290550D02*
G75*
G03*
X11949900Y-9290550I-50000J0D01*
G01*
X11862100Y-6922300D02*
X11962100Y-7022300D01*
X11962100Y-6922300D02*
X11862100Y-7022300D01*
X11962100Y-6972300D02*
G75*
G03*
X11962100Y-6972300I-50000J0D01*
G01*
X12116100Y-6922300D02*
X12216100Y-7022300D01*
X12216100Y-6922300D02*
X12116100Y-7022300D01*
X12216100Y-6972300D02*
G75*
G03*
X12216100Y-6972300I-50000J0D01*
G01*
X12345350Y-10578600D02*
X12445350Y-10678600D01*
X12445350Y-10578600D02*
X12345350Y-10678600D01*
X12445350Y-10628600D02*
G75*
G03*
X12445350Y-10628600I-50000J0D01*
G01*
X12595350Y-10578600D02*
X12695350Y-10678600D01*
X12695350Y-10578600D02*
X12595350Y-10678600D01*
X12695350Y-10628600D02*
G75*
G03*
X12695350Y-10628600I-50000J0D01*
G01*
X12845350Y-10578600D02*
X12945350Y-10678600D01*
X12945350Y-10578600D02*
X12845350Y-10678600D01*
X12945350Y-10628600D02*
G75*
G03*
X12945350Y-10628600I-50000J0D01*
G01*
X13640600Y-8147850D02*
X13740600Y-8247850D01*
X13740600Y-8147850D02*
X13640600Y-8247850D01*
X13740600Y-8197850D02*
G75*
G03*
X13740600Y-8197850I-50000J0D01*
G01*
X13640600Y-8401850D02*
X13740600Y-8501850D01*
X13740600Y-8401850D02*
X13640600Y-8501850D01*
X13740600Y-8451850D02*
G75*
G03*
X13740600Y-8451850I-50000J0D01*
G01*
X14021600Y-10110000D02*
X14121600Y-10210000D01*
X14121600Y-10110000D02*
X14021600Y-10210000D01*
X14121600Y-10160000D02*
G75*
G03*
X14121600Y-10160000I-50000J0D01*
G01*
X14275600Y-10110000D02*
X14375600Y-10210000D01*
X14375600Y-10110000D02*
X14275600Y-10210000D01*
X14375600Y-10160000D02*
G75*
G03*
X14375600Y-10160000I-50000J0D01*
G01*
X15564150Y-10738650D02*
X15664150Y-10838650D01*
X15664150Y-10738650D02*
X15564150Y-10838650D01*
X15664150Y-10788650D02*
G75*
G03*
X15664150Y-10788650I-50000J0D01*
G01*
X15818150Y-10738650D02*
X15918150Y-10838650D01*
X15918150Y-10738650D02*
X15818150Y-10838650D01*
X15918150Y-10788650D02*
G75*
G03*
X15918150Y-10788650I-50000J0D01*
G01*
X17524350Y-6219300D02*
X17624350Y-6319300D01*
X17624350Y-6219300D02*
X17524350Y-6319300D01*
X17624350Y-6269300D02*
G75*
G03*
X17624350Y-6269300I-50000J0D01*
G01*
D11*
X17624350Y-6369300D02*
X17624350Y-6169300D01*
X17524350Y-6369300D02*
X17524350Y-6169300D01*
X17624350Y-6169300D02*
G75*
G03*
X17524350Y-6169300I-50000J0D01*
G01*
X17524350Y-6369300D02*
G75*
G03*
X17624350Y-6369300I50000J0D01*
G01*
D10*
X17994350Y-5919300D02*
X18094350Y-6019300D01*
X18094350Y-5919300D02*
X17994350Y-6019300D01*
X18094350Y-5969300D02*
G75*
G03*
X18094350Y-5969300I-50000J0D01*
G01*
D11*
X17944350Y-6019300D02*
X18144350Y-6019300D01*
X17944350Y-5919300D02*
X18144350Y-5919300D01*
X18144350Y-6019300D02*
G75*
G03*
X18144350Y-5919300I0J50000D01*
G01*
X17944350Y-5919300D02*
G75*
G03*
X17944350Y-6019300I0J-50000D01*
G01*
D10*
X17994350Y-6519300D02*
X18094350Y-6619300D01*
X18094350Y-6519300D02*
X17994350Y-6619300D01*
X18094350Y-6569300D02*
G75*
G03*
X18094350Y-6569300I-50000J0D01*
G01*
D11*
X17919350Y-6619300D02*
X18169350Y-6619300D01*
X17919350Y-6519300D02*
X18169350Y-6519300D01*
X18169350Y-6619300D02*
G75*
G03*
X18169350Y-6519300I0J50000D01*
G01*
X17919350Y-6519300D02*
G75*
G03*
X17919350Y-6619300I0J-50000D01*
G01*
D17*
X17735350Y-7022300D02*
X17845350Y-7132300D01*
X17845350Y-7022300D02*
X17735350Y-7132300D01*
X17790350Y-7022300D02*
X17790350Y-7132300D01*
X17735350Y-7077300D02*
X17845350Y-7077300D01*
X18751350Y-7022300D02*
X18861350Y-7132300D01*
X18861350Y-7022300D02*
X18751350Y-7132300D01*
X18806350Y-7022300D02*
X18806350Y-7132300D01*
X18751350Y-7077300D02*
X18861350Y-7077300D01*
D18*
X12102930Y-5900400D02*
X12303930Y-6101400D01*
X12303930Y-5900400D02*
X12102930Y-6101400D01*
X12274495Y-6071965D02*
X12274495Y-5929835D01*
X12132365Y-5929835D01*
X12132365Y-6071965D01*
X12274495Y-6071965D01*
X13118930Y-5900400D02*
X13319930Y-6101400D01*
X13319930Y-5900400D02*
X13118930Y-6101400D01*
X13290495Y-6071965D02*
X13290495Y-5929835D01*
X13148365Y-5929835D01*
X13148365Y-6071965D01*
X13290495Y-6071965D01*
D19*
X17333970Y-9955470D02*
X17540130Y-10161630D01*
X17540130Y-9955470D02*
X17333970Y-10161630D01*
X17437050Y-10161630D02*
X17540130Y-10058550D01*
X17437050Y-9955470D01*
X17333970Y-10058550D01*
X17437050Y-10161630D01*
X17803970Y-10135470D02*
X18010130Y-10341630D01*
X18010130Y-10135470D02*
X17803970Y-10341630D01*
X17907050Y-10341630D02*
X18010130Y-10238550D01*
X17907050Y-10135470D01*
X17803970Y-10238550D01*
X17907050Y-10341630D01*
X17803970Y-10825470D02*
X18010130Y-11031630D01*
X18010130Y-10825470D02*
X17803970Y-11031630D01*
X17907050Y-11031630D02*
X18010130Y-10928550D01*
X17907050Y-10825470D01*
X17803970Y-10928550D01*
X17907050Y-11031630D01*
D20*
X12145350Y-10183600D02*
X12145350Y-10413600D01*
X12030350Y-10298600D02*
X12260350Y-10298600D01*
X12260350Y-10298600D02*
G75*
G03*
X12260350Y-10298600I-115000J0D01*
G01*
X13145350Y-10183600D02*
X13145350Y-10413600D01*
X13030350Y-10298600D02*
X13260350Y-10298600D01*
X13260350Y-10298600D02*
G75*
G03*
X13260350Y-10298600I-115000J0D01*
G01*
D21*
X17713619Y-10325119D02*
X17713619Y-10211981D01*
X17600481Y-10211981D01*
X17600481Y-10325119D01*
X17713619Y-10325119D01*
X17737050Y-10268550D02*
G75*
G03*
X17737050Y-10268550I-80000J0D01*
G01*
X17713619Y-10795119D02*
X17713619Y-10681981D01*
X17600481Y-10681981D01*
X17600481Y-10795119D01*
X17713619Y-10795119D01*
X17737050Y-10738550D02*
G75*
G03*
X17737050Y-10738550I-80000J0D01*
G01*
D22*
X10217150Y-5690850D02*
X10377150Y-5530850D01*
X10217150Y-5370850D01*
X10057150Y-5530850D01*
X10217150Y-5690850D01*
X10377150Y-5530850D02*
G75*
G03*
X10377150Y-5530850I-160000J0D01*
G01*
X10217150Y-10948650D02*
X10377150Y-10788650D01*
X10217150Y-10628650D01*
X10057150Y-10788650D01*
X10217150Y-10948650D01*
X10377150Y-10788650D02*
G75*
G03*
X10377150Y-10788650I-160000J0D01*
G01*
X19272250Y-10948650D02*
X19432250Y-10788650D01*
X19272250Y-10628650D01*
X19112250Y-10788650D01*
X19272250Y-10948650D01*
X19432250Y-10788650D02*
G75*
G03*
X19432250Y-10788650I-160000J0D01*
G01*
X19278600Y-5690850D02*
X19438600Y-5530850D01*
X19278600Y-5370850D01*
X19118600Y-5530850D01*
X19278600Y-5690850D01*
X19438600Y-5530850D02*
G75*
G03*
X19438600Y-5530850I-160000J0D01*
G01*
D11*
X10114169Y-11459726D02*
X10114169Y-11259726D01*
X10161788Y-11259726D01*
X10190360Y-11269250D01*
X10209407Y-11288298D01*
X10218931Y-11307345D01*
X10228455Y-11345440D01*
X10228455Y-11374012D01*
X10218931Y-11412107D01*
X10209407Y-11431155D01*
X10190360Y-11450202D01*
X10161788Y-11459726D01*
X10114169Y-11459726D01*
X10314169Y-11459726D02*
X10314169Y-11326393D01*
X10314169Y-11364488D02*
X10323693Y-11345440D01*
X10333217Y-11335917D01*
X10352264Y-11326393D01*
X10371312Y-11326393D01*
X10437979Y-11459726D02*
X10437979Y-11326393D01*
X10437979Y-11259726D02*
X10428455Y-11269250D01*
X10437979Y-11278774D01*
X10447502Y-11269250D01*
X10437979Y-11259726D01*
X10437979Y-11278774D01*
X10561788Y-11459726D02*
X10542740Y-11450202D01*
X10533217Y-11431155D01*
X10533217Y-11259726D01*
X10666550Y-11459726D02*
X10647502Y-11450202D01*
X10637979Y-11431155D01*
X10637979Y-11259726D01*
X10895121Y-11459726D02*
X10895121Y-11259726D01*
X10961788Y-11402583D01*
X11028455Y-11259726D01*
X11028455Y-11459726D01*
X11209407Y-11459726D02*
X11209407Y-11354964D01*
X11199883Y-11335917D01*
X11180836Y-11326393D01*
X11142740Y-11326393D01*
X11123693Y-11335917D01*
X11209407Y-11450202D02*
X11190359Y-11459726D01*
X11142740Y-11459726D01*
X11123693Y-11450202D01*
X11114169Y-11431155D01*
X11114169Y-11412107D01*
X11123693Y-11393059D01*
X11142740Y-11383536D01*
X11190359Y-11383536D01*
X11209407Y-11374012D01*
X11304645Y-11326393D02*
X11304645Y-11526393D01*
X11304645Y-11335917D02*
X11323693Y-11326393D01*
X11361788Y-11326393D01*
X11380836Y-11335917D01*
X11390359Y-11345440D01*
X11399883Y-11364488D01*
X11399883Y-11421631D01*
X11390359Y-11440678D01*
X11380836Y-11450202D01*
X11361788Y-11459726D01*
X11323693Y-11459726D01*
X11304645Y-11450202D01*
X11485598Y-11440678D02*
X11495121Y-11450202D01*
X11485598Y-11459726D01*
X11476074Y-11450202D01*
X11485598Y-11440678D01*
X11485598Y-11459726D01*
X11485598Y-11335917D02*
X11495121Y-11345440D01*
X11485598Y-11354964D01*
X11476074Y-11345440D01*
X11485598Y-11335917D01*
X11485598Y-11354964D01*
D12*
X9816550Y-11769250D02*
X9856550Y-11809250D01*
X9856550Y-11769250D02*
X9816550Y-11809250D01*
D11*
X10152264Y-11679726D02*
X10171312Y-11679726D01*
X10190360Y-11689250D01*
X10199883Y-11698774D01*
X10209407Y-11717821D01*
X10218931Y-11755917D01*
X10218931Y-11803536D01*
X10209407Y-11841631D01*
X10199883Y-11860678D01*
X10190360Y-11870202D01*
X10171312Y-11879726D01*
X10152264Y-11879726D01*
X10133217Y-11870202D01*
X10123693Y-11860678D01*
X10114169Y-11841631D01*
X10104645Y-11803536D01*
X10104645Y-11755917D01*
X10114169Y-11717821D01*
X10123693Y-11698774D01*
X10133217Y-11689250D01*
X10152264Y-11679726D01*
X10304645Y-11860678D02*
X10314169Y-11870202D01*
X10304645Y-11879726D01*
X10295121Y-11870202D01*
X10304645Y-11860678D01*
X10304645Y-11879726D01*
X10485598Y-11746393D02*
X10485598Y-11879726D01*
X10437979Y-11670202D02*
X10390360Y-11813059D01*
X10514169Y-11813059D01*
X10628455Y-11679726D02*
X10647502Y-11679726D01*
X10666550Y-11689250D01*
X10676074Y-11698774D01*
X10685598Y-11717821D01*
X10695121Y-11755917D01*
X10695121Y-11803536D01*
X10685598Y-11841631D01*
X10676074Y-11860678D01*
X10666550Y-11870202D01*
X10647502Y-11879726D01*
X10628455Y-11879726D01*
X10609407Y-11870202D01*
X10599883Y-11860678D01*
X10590360Y-11841631D01*
X10580836Y-11803536D01*
X10580836Y-11755917D01*
X10590360Y-11717821D01*
X10599883Y-11698774D01*
X10609407Y-11689250D01*
X10628455Y-11679726D01*
X10818931Y-11679726D02*
X10837979Y-11679726D01*
X10857026Y-11689250D01*
X10866550Y-11698774D01*
X10876074Y-11717821D01*
X10885598Y-11755917D01*
X10885598Y-11803536D01*
X10876074Y-11841631D01*
X10866550Y-11860678D01*
X10857026Y-11870202D01*
X10837979Y-11879726D01*
X10818931Y-11879726D01*
X10799883Y-11870202D01*
X10790360Y-11860678D01*
X10780836Y-11841631D01*
X10771312Y-11803536D01*
X10771312Y-11755917D01*
X10780836Y-11717821D01*
X10790360Y-11698774D01*
X10799883Y-11689250D01*
X10818931Y-11679726D01*
X10971312Y-11879726D02*
X10971312Y-11746393D01*
X10971312Y-11765440D02*
X10980836Y-11755917D01*
X10999883Y-11746393D01*
X11028455Y-11746393D01*
X11047502Y-11755917D01*
X11057026Y-11774964D01*
X11057026Y-11879726D01*
X11057026Y-11774964D02*
X11066550Y-11755917D01*
X11085598Y-11746393D01*
X11114169Y-11746393D01*
X11133217Y-11755917D01*
X11142740Y-11774964D01*
X11142740Y-11879726D01*
X11237978Y-11879726D02*
X11237978Y-11746393D01*
X11237978Y-11765440D02*
X11247502Y-11755917D01*
X11266550Y-11746393D01*
X11295121Y-11746393D01*
X11314169Y-11755917D01*
X11323693Y-11774964D01*
X11323693Y-11879726D01*
X11323693Y-11774964D02*
X11333217Y-11755917D01*
X11352264Y-11746393D01*
X11380836Y-11746393D01*
X11399883Y-11755917D01*
X11409407Y-11774964D01*
X11409407Y-11879726D01*
X11799883Y-11670202D02*
X11628455Y-11927345D01*
X12057026Y-11679726D02*
X12076074Y-11679726D01*
X12095121Y-11689250D01*
X12104645Y-11698774D01*
X12114169Y-11717821D01*
X12123693Y-11755917D01*
X12123693Y-11803536D01*
X12114169Y-11841631D01*
X12104645Y-11860678D01*
X12095121Y-11870202D01*
X12076074Y-11879726D01*
X12057026Y-11879726D01*
X12037978Y-11870202D01*
X12028455Y-11860678D01*
X12018931Y-11841631D01*
X12009407Y-11803536D01*
X12009407Y-11755917D01*
X12018931Y-11717821D01*
X12028455Y-11698774D01*
X12037978Y-11689250D01*
X12057026Y-11679726D01*
X12209407Y-11860678D02*
X12218931Y-11870202D01*
X12209407Y-11879726D01*
X12199883Y-11870202D01*
X12209407Y-11860678D01*
X12209407Y-11879726D01*
X12342740Y-11679726D02*
X12361788Y-11679726D01*
X12380836Y-11689250D01*
X12390359Y-11698774D01*
X12399883Y-11717821D01*
X12409407Y-11755917D01*
X12409407Y-11803536D01*
X12399883Y-11841631D01*
X12390359Y-11860678D01*
X12380836Y-11870202D01*
X12361788Y-11879726D01*
X12342740Y-11879726D01*
X12323693Y-11870202D01*
X12314169Y-11860678D01*
X12304645Y-11841631D01*
X12295121Y-11803536D01*
X12295121Y-11755917D01*
X12304645Y-11717821D01*
X12314169Y-11698774D01*
X12323693Y-11689250D01*
X12342740Y-11679726D01*
X12599883Y-11879726D02*
X12485598Y-11879726D01*
X12542740Y-11879726D02*
X12542740Y-11679726D01*
X12523693Y-11708298D01*
X12504645Y-11727345D01*
X12485598Y-11736869D01*
X12780836Y-11679726D02*
X12685598Y-11679726D01*
X12676074Y-11774964D01*
X12685598Y-11765440D01*
X12704645Y-11755917D01*
X12752264Y-11755917D01*
X12771312Y-11765440D01*
X12780836Y-11774964D01*
X12790359Y-11794012D01*
X12790359Y-11841631D01*
X12780836Y-11860678D01*
X12771312Y-11870202D01*
X12752264Y-11879726D01*
X12704645Y-11879726D01*
X12685598Y-11870202D01*
X12676074Y-11860678D01*
X12857026Y-11679726D02*
X12990359Y-11679726D01*
X12904645Y-11879726D01*
X13057026Y-11679726D02*
X13057026Y-11717821D01*
X13133217Y-11679726D02*
X13133217Y-11717821D01*
X13428455Y-11955917D02*
X13418931Y-11946393D01*
X13399883Y-11917821D01*
X13390359Y-11898774D01*
X13380836Y-11870202D01*
X13371312Y-11822583D01*
X13371312Y-11784488D01*
X13380836Y-11736869D01*
X13390359Y-11708298D01*
X13399883Y-11689250D01*
X13418931Y-11660678D01*
X13428455Y-11651155D01*
X13495121Y-11698774D02*
X13504645Y-11689250D01*
X13523693Y-11679726D01*
X13571312Y-11679726D01*
X13590359Y-11689250D01*
X13599883Y-11698774D01*
X13609407Y-11717821D01*
X13609407Y-11736869D01*
X13599883Y-11765440D01*
X13485598Y-11879726D01*
X13609407Y-11879726D01*
X13847502Y-11879726D02*
X13847502Y-11679726D01*
X13933217Y-11879726D02*
X13933217Y-11774964D01*
X13923693Y-11755917D01*
X13904645Y-11746393D01*
X13876074Y-11746393D01*
X13857026Y-11755917D01*
X13847502Y-11765440D01*
X14057026Y-11879726D02*
X14037978Y-11870202D01*
X14028455Y-11860678D01*
X14018931Y-11841631D01*
X14018931Y-11784488D01*
X14028455Y-11765440D01*
X14037978Y-11755917D01*
X14057026Y-11746393D01*
X14085598Y-11746393D01*
X14104645Y-11755917D01*
X14114169Y-11765440D01*
X14123693Y-11784488D01*
X14123693Y-11841631D01*
X14114169Y-11860678D01*
X14104645Y-11870202D01*
X14085598Y-11879726D01*
X14057026Y-11879726D01*
X14237978Y-11879726D02*
X14218931Y-11870202D01*
X14209407Y-11851155D01*
X14209407Y-11679726D01*
X14390359Y-11870202D02*
X14371312Y-11879726D01*
X14333217Y-11879726D01*
X14314169Y-11870202D01*
X14304645Y-11851155D01*
X14304645Y-11774964D01*
X14314169Y-11755917D01*
X14333217Y-11746393D01*
X14371312Y-11746393D01*
X14390359Y-11755917D01*
X14399883Y-11774964D01*
X14399883Y-11794012D01*
X14304645Y-11813059D01*
X14476074Y-11870202D02*
X14495121Y-11879726D01*
X14533217Y-11879726D01*
X14552264Y-11870202D01*
X14561788Y-11851155D01*
X14561788Y-11841631D01*
X14552264Y-11822583D01*
X14533217Y-11813059D01*
X14504645Y-11813059D01*
X14485598Y-11803536D01*
X14476074Y-11784488D01*
X14476074Y-11774964D01*
X14485598Y-11755917D01*
X14504645Y-11746393D01*
X14533217Y-11746393D01*
X14552264Y-11755917D01*
X14628455Y-11955917D02*
X14637978Y-11946393D01*
X14657026Y-11917821D01*
X14666550Y-11898774D01*
X14676074Y-11870202D01*
X14685598Y-11822583D01*
X14685598Y-11784488D01*
X14676074Y-11736869D01*
X14666550Y-11708298D01*
X14657026Y-11689250D01*
X14637978Y-11660678D01*
X14628455Y-11651155D01*
D13*
X9856550Y-12053250D02*
G75*
G03*
X9856550Y-12053250I-37500J0D01*
G01*
D11*
X10152264Y-11943726D02*
X10171312Y-11943726D01*
X10190360Y-11953250D01*
X10199883Y-11962774D01*
X10209407Y-11981821D01*
X10218931Y-12019917D01*
X10218931Y-12067536D01*
X10209407Y-12105631D01*
X10199883Y-12124678D01*
X10190360Y-12134202D01*
X10171312Y-12143726D01*
X10152264Y-12143726D01*
X10133217Y-12134202D01*
X10123693Y-12124678D01*
X10114169Y-12105631D01*
X10104645Y-12067536D01*
X10104645Y-12019917D01*
X10114169Y-11981821D01*
X10123693Y-11962774D01*
X10133217Y-11953250D01*
X10152264Y-11943726D01*
X10304645Y-12124678D02*
X10314169Y-12134202D01*
X10304645Y-12143726D01*
X10295121Y-12134202D01*
X10304645Y-12124678D01*
X10304645Y-12143726D01*
X10380836Y-11943726D02*
X10514169Y-11943726D01*
X10428455Y-12143726D01*
X10685598Y-11943726D02*
X10590360Y-11943726D01*
X10580836Y-12038964D01*
X10590360Y-12029440D01*
X10609407Y-12019917D01*
X10657026Y-12019917D01*
X10676074Y-12029440D01*
X10685598Y-12038964D01*
X10695121Y-12058012D01*
X10695121Y-12105631D01*
X10685598Y-12124678D01*
X10676074Y-12134202D01*
X10657026Y-12143726D01*
X10609407Y-12143726D01*
X10590360Y-12134202D01*
X10580836Y-12124678D01*
X10818931Y-11943726D02*
X10837979Y-11943726D01*
X10857026Y-11953250D01*
X10866550Y-11962774D01*
X10876074Y-11981821D01*
X10885598Y-12019917D01*
X10885598Y-12067536D01*
X10876074Y-12105631D01*
X10866550Y-12124678D01*
X10857026Y-12134202D01*
X10837979Y-12143726D01*
X10818931Y-12143726D01*
X10799883Y-12134202D01*
X10790360Y-12124678D01*
X10780836Y-12105631D01*
X10771312Y-12067536D01*
X10771312Y-12019917D01*
X10780836Y-11981821D01*
X10790360Y-11962774D01*
X10799883Y-11953250D01*
X10818931Y-11943726D01*
X10971312Y-12143726D02*
X10971312Y-12010393D01*
X10971312Y-12029440D02*
X10980836Y-12019917D01*
X10999883Y-12010393D01*
X11028455Y-12010393D01*
X11047502Y-12019917D01*
X11057026Y-12038964D01*
X11057026Y-12143726D01*
X11057026Y-12038964D02*
X11066550Y-12019917D01*
X11085598Y-12010393D01*
X11114169Y-12010393D01*
X11133217Y-12019917D01*
X11142740Y-12038964D01*
X11142740Y-12143726D01*
X11237978Y-12143726D02*
X11237978Y-12010393D01*
X11237978Y-12029440D02*
X11247502Y-12019917D01*
X11266550Y-12010393D01*
X11295121Y-12010393D01*
X11314169Y-12019917D01*
X11323693Y-12038964D01*
X11323693Y-12143726D01*
X11323693Y-12038964D02*
X11333217Y-12019917D01*
X11352264Y-12010393D01*
X11380836Y-12010393D01*
X11399883Y-12019917D01*
X11409407Y-12038964D01*
X11409407Y-12143726D01*
X11799883Y-11934202D02*
X11628455Y-12191345D01*
X12057026Y-11943726D02*
X12076074Y-11943726D01*
X12095121Y-11953250D01*
X12104645Y-11962774D01*
X12114169Y-11981821D01*
X12123693Y-12019917D01*
X12123693Y-12067536D01*
X12114169Y-12105631D01*
X12104645Y-12124678D01*
X12095121Y-12134202D01*
X12076074Y-12143726D01*
X12057026Y-12143726D01*
X12037978Y-12134202D01*
X12028455Y-12124678D01*
X12018931Y-12105631D01*
X12009407Y-12067536D01*
X12009407Y-12019917D01*
X12018931Y-11981821D01*
X12028455Y-11962774D01*
X12037978Y-11953250D01*
X12057026Y-11943726D01*
X12209407Y-12124678D02*
X12218931Y-12134202D01*
X12209407Y-12143726D01*
X12199883Y-12134202D01*
X12209407Y-12124678D01*
X12209407Y-12143726D01*
X12342740Y-11943726D02*
X12361788Y-11943726D01*
X12380836Y-11953250D01*
X12390359Y-11962774D01*
X12399883Y-11981821D01*
X12409407Y-12019917D01*
X12409407Y-12067536D01*
X12399883Y-12105631D01*
X12390359Y-12124678D01*
X12380836Y-12134202D01*
X12361788Y-12143726D01*
X12342740Y-12143726D01*
X12323693Y-12134202D01*
X12314169Y-12124678D01*
X12304645Y-12105631D01*
X12295121Y-12067536D01*
X12295121Y-12019917D01*
X12304645Y-11981821D01*
X12314169Y-11962774D01*
X12323693Y-11953250D01*
X12342740Y-11943726D01*
X12485598Y-11962774D02*
X12495121Y-11953250D01*
X12514169Y-11943726D01*
X12561788Y-11943726D01*
X12580836Y-11953250D01*
X12590359Y-11962774D01*
X12599883Y-11981821D01*
X12599883Y-12000869D01*
X12590359Y-12029440D01*
X12476074Y-12143726D01*
X12599883Y-12143726D01*
X12695121Y-12143726D02*
X12733217Y-12143726D01*
X12752264Y-12134202D01*
X12761788Y-12124678D01*
X12780836Y-12096107D01*
X12790359Y-12058012D01*
X12790359Y-11981821D01*
X12780836Y-11962774D01*
X12771312Y-11953250D01*
X12752264Y-11943726D01*
X12714169Y-11943726D01*
X12695121Y-11953250D01*
X12685598Y-11962774D01*
X12676074Y-11981821D01*
X12676074Y-12029440D01*
X12685598Y-12048488D01*
X12695121Y-12058012D01*
X12714169Y-12067536D01*
X12752264Y-12067536D01*
X12771312Y-12058012D01*
X12780836Y-12048488D01*
X12790359Y-12029440D01*
X12971312Y-11943726D02*
X12876074Y-11943726D01*
X12866550Y-12038964D01*
X12876074Y-12029440D01*
X12895121Y-12019917D01*
X12942740Y-12019917D01*
X12961788Y-12029440D01*
X12971312Y-12038964D01*
X12980836Y-12058012D01*
X12980836Y-12105631D01*
X12971312Y-12124678D01*
X12961788Y-12134202D01*
X12942740Y-12143726D01*
X12895121Y-12143726D01*
X12876074Y-12134202D01*
X12866550Y-12124678D01*
X13057026Y-11943726D02*
X13057026Y-11981821D01*
X13133217Y-11943726D02*
X13133217Y-11981821D01*
X13428455Y-12219917D02*
X13418931Y-12210393D01*
X13399883Y-12181821D01*
X13390359Y-12162774D01*
X13380836Y-12134202D01*
X13371312Y-12086583D01*
X13371312Y-12048488D01*
X13380836Y-12000869D01*
X13390359Y-11972298D01*
X13399883Y-11953250D01*
X13418931Y-11924678D01*
X13428455Y-11915155D01*
X13485598Y-11943726D02*
X13609407Y-11943726D01*
X13542740Y-12019917D01*
X13571312Y-12019917D01*
X13590359Y-12029440D01*
X13599883Y-12038964D01*
X13609407Y-12058012D01*
X13609407Y-12105631D01*
X13599883Y-12124678D01*
X13590359Y-12134202D01*
X13571312Y-12143726D01*
X13514169Y-12143726D01*
X13495121Y-12134202D01*
X13485598Y-12124678D01*
X13847502Y-12143726D02*
X13847502Y-11943726D01*
X13933217Y-12143726D02*
X13933217Y-12038964D01*
X13923693Y-12019917D01*
X13904645Y-12010393D01*
X13876074Y-12010393D01*
X13857026Y-12019917D01*
X13847502Y-12029440D01*
X14057026Y-12143726D02*
X14037978Y-12134202D01*
X14028455Y-12124678D01*
X14018931Y-12105631D01*
X14018931Y-12048488D01*
X14028455Y-12029440D01*
X14037978Y-12019917D01*
X14057026Y-12010393D01*
X14085598Y-12010393D01*
X14104645Y-12019917D01*
X14114169Y-12029440D01*
X14123693Y-12048488D01*
X14123693Y-12105631D01*
X14114169Y-12124678D01*
X14104645Y-12134202D01*
X14085598Y-12143726D01*
X14057026Y-12143726D01*
X14237978Y-12143726D02*
X14218931Y-12134202D01*
X14209407Y-12115155D01*
X14209407Y-11943726D01*
X14390359Y-12134202D02*
X14371312Y-12143726D01*
X14333217Y-12143726D01*
X14314169Y-12134202D01*
X14304645Y-12115155D01*
X14304645Y-12038964D01*
X14314169Y-12019917D01*
X14333217Y-12010393D01*
X14371312Y-12010393D01*
X14390359Y-12019917D01*
X14399883Y-12038964D01*
X14399883Y-12058012D01*
X14304645Y-12077059D01*
X14476074Y-12134202D02*
X14495121Y-12143726D01*
X14533217Y-12143726D01*
X14552264Y-12134202D01*
X14561788Y-12115155D01*
X14561788Y-12105631D01*
X14552264Y-12086583D01*
X14533217Y-12077059D01*
X14504645Y-12077059D01*
X14485598Y-12067536D01*
X14476074Y-12048488D01*
X14476074Y-12038964D01*
X14485598Y-12019917D01*
X14504645Y-12010393D01*
X14533217Y-12010393D01*
X14552264Y-12019917D01*
X14628455Y-12219917D02*
X14637978Y-12210393D01*
X14657026Y-12181821D01*
X14666550Y-12162774D01*
X14676074Y-12134202D01*
X14685598Y-12086583D01*
X14685598Y-12048488D01*
X14676074Y-12000869D01*
X14666550Y-11972298D01*
X14657026Y-11953250D01*
X14637978Y-11924678D01*
X14628455Y-11915155D01*
D14*
X9816550Y-12277250D02*
X9816550Y-12357250D01*
X9776550Y-12317250D02*
X9856550Y-12317250D01*
D11*
X10152264Y-12207726D02*
X10171312Y-12207726D01*
X10190360Y-12217250D01*
X10199883Y-12226774D01*
X10209407Y-12245821D01*
X10218931Y-12283917D01*
X10218931Y-12331536D01*
X10209407Y-12369631D01*
X10199883Y-12388678D01*
X10190360Y-12398202D01*
X10171312Y-12407726D01*
X10152264Y-12407726D01*
X10133217Y-12398202D01*
X10123693Y-12388678D01*
X10114169Y-12369631D01*
X10104645Y-12331536D01*
X10104645Y-12283917D01*
X10114169Y-12245821D01*
X10123693Y-12226774D01*
X10133217Y-12217250D01*
X10152264Y-12207726D01*
X10304645Y-12388678D02*
X10314169Y-12398202D01*
X10304645Y-12407726D01*
X10295121Y-12398202D01*
X10304645Y-12388678D01*
X10304645Y-12407726D01*
X10428455Y-12293440D02*
X10409407Y-12283917D01*
X10399883Y-12274393D01*
X10390360Y-12255345D01*
X10390360Y-12245821D01*
X10399883Y-12226774D01*
X10409407Y-12217250D01*
X10428455Y-12207726D01*
X10466550Y-12207726D01*
X10485598Y-12217250D01*
X10495121Y-12226774D01*
X10504645Y-12245821D01*
X10504645Y-12255345D01*
X10495121Y-12274393D01*
X10485598Y-12283917D01*
X10466550Y-12293440D01*
X10428455Y-12293440D01*
X10409407Y-12302964D01*
X10399883Y-12312488D01*
X10390360Y-12331536D01*
X10390360Y-12369631D01*
X10399883Y-12388678D01*
X10409407Y-12398202D01*
X10428455Y-12407726D01*
X10466550Y-12407726D01*
X10485598Y-12398202D01*
X10495121Y-12388678D01*
X10504645Y-12369631D01*
X10504645Y-12331536D01*
X10495121Y-12312488D01*
X10485598Y-12302964D01*
X10466550Y-12293440D01*
X10628455Y-12207726D02*
X10647502Y-12207726D01*
X10666550Y-12217250D01*
X10676074Y-12226774D01*
X10685598Y-12245821D01*
X10695121Y-12283917D01*
X10695121Y-12331536D01*
X10685598Y-12369631D01*
X10676074Y-12388678D01*
X10666550Y-12398202D01*
X10647502Y-12407726D01*
X10628455Y-12407726D01*
X10609407Y-12398202D01*
X10599883Y-12388678D01*
X10590360Y-12369631D01*
X10580836Y-12331536D01*
X10580836Y-12283917D01*
X10590360Y-12245821D01*
X10599883Y-12226774D01*
X10609407Y-12217250D01*
X10628455Y-12207726D01*
X10818931Y-12207726D02*
X10837979Y-12207726D01*
X10857026Y-12217250D01*
X10866550Y-12226774D01*
X10876074Y-12245821D01*
X10885598Y-12283917D01*
X10885598Y-12331536D01*
X10876074Y-12369631D01*
X10866550Y-12388678D01*
X10857026Y-12398202D01*
X10837979Y-12407726D01*
X10818931Y-12407726D01*
X10799883Y-12398202D01*
X10790360Y-12388678D01*
X10780836Y-12369631D01*
X10771312Y-12331536D01*
X10771312Y-12283917D01*
X10780836Y-12245821D01*
X10790360Y-12226774D01*
X10799883Y-12217250D01*
X10818931Y-12207726D01*
X10971312Y-12407726D02*
X10971312Y-12274393D01*
X10971312Y-12293440D02*
X10980836Y-12283917D01*
X10999883Y-12274393D01*
X11028455Y-12274393D01*
X11047502Y-12283917D01*
X11057026Y-12302964D01*
X11057026Y-12407726D01*
X11057026Y-12302964D02*
X11066550Y-12283917D01*
X11085598Y-12274393D01*
X11114169Y-12274393D01*
X11133217Y-12283917D01*
X11142740Y-12302964D01*
X11142740Y-12407726D01*
X11237978Y-12407726D02*
X11237978Y-12274393D01*
X11237978Y-12293440D02*
X11247502Y-12283917D01*
X11266550Y-12274393D01*
X11295121Y-12274393D01*
X11314169Y-12283917D01*
X11323693Y-12302964D01*
X11323693Y-12407726D01*
X11323693Y-12302964D02*
X11333217Y-12283917D01*
X11352264Y-12274393D01*
X11380836Y-12274393D01*
X11399883Y-12283917D01*
X11409407Y-12302964D01*
X11409407Y-12407726D01*
X11799883Y-12198202D02*
X11628455Y-12455345D01*
X12057026Y-12207726D02*
X12076074Y-12207726D01*
X12095121Y-12217250D01*
X12104645Y-12226774D01*
X12114169Y-12245821D01*
X12123693Y-12283917D01*
X12123693Y-12331536D01*
X12114169Y-12369631D01*
X12104645Y-12388678D01*
X12095121Y-12398202D01*
X12076074Y-12407726D01*
X12057026Y-12407726D01*
X12037978Y-12398202D01*
X12028455Y-12388678D01*
X12018931Y-12369631D01*
X12009407Y-12331536D01*
X12009407Y-12283917D01*
X12018931Y-12245821D01*
X12028455Y-12226774D01*
X12037978Y-12217250D01*
X12057026Y-12207726D01*
X12209407Y-12388678D02*
X12218931Y-12398202D01*
X12209407Y-12407726D01*
X12199883Y-12398202D01*
X12209407Y-12388678D01*
X12209407Y-12407726D01*
X12342740Y-12207726D02*
X12361788Y-12207726D01*
X12380836Y-12217250D01*
X12390359Y-12226774D01*
X12399883Y-12245821D01*
X12409407Y-12283917D01*
X12409407Y-12331536D01*
X12399883Y-12369631D01*
X12390359Y-12388678D01*
X12380836Y-12398202D01*
X12361788Y-12407726D01*
X12342740Y-12407726D01*
X12323693Y-12398202D01*
X12314169Y-12388678D01*
X12304645Y-12369631D01*
X12295121Y-12331536D01*
X12295121Y-12283917D01*
X12304645Y-12245821D01*
X12314169Y-12226774D01*
X12323693Y-12217250D01*
X12342740Y-12207726D01*
X12476074Y-12207726D02*
X12599883Y-12207726D01*
X12533217Y-12283917D01*
X12561788Y-12283917D01*
X12580836Y-12293440D01*
X12590359Y-12302964D01*
X12599883Y-12322012D01*
X12599883Y-12369631D01*
X12590359Y-12388678D01*
X12580836Y-12398202D01*
X12561788Y-12407726D01*
X12504645Y-12407726D01*
X12485598Y-12398202D01*
X12476074Y-12388678D01*
X12790359Y-12407726D02*
X12676074Y-12407726D01*
X12733217Y-12407726D02*
X12733217Y-12207726D01*
X12714169Y-12236298D01*
X12695121Y-12255345D01*
X12676074Y-12264869D01*
X12971312Y-12207726D02*
X12876074Y-12207726D01*
X12866550Y-12302964D01*
X12876074Y-12293440D01*
X12895121Y-12283917D01*
X12942740Y-12283917D01*
X12961788Y-12293440D01*
X12971312Y-12302964D01*
X12980836Y-12322012D01*
X12980836Y-12369631D01*
X12971312Y-12388678D01*
X12961788Y-12398202D01*
X12942740Y-12407726D01*
X12895121Y-12407726D01*
X12876074Y-12398202D01*
X12866550Y-12388678D01*
X13057026Y-12207726D02*
X13057026Y-12245821D01*
X13133217Y-12207726D02*
X13133217Y-12245821D01*
X13428455Y-12483917D02*
X13418931Y-12474393D01*
X13399883Y-12445821D01*
X13390359Y-12426774D01*
X13380836Y-12398202D01*
X13371312Y-12350583D01*
X13371312Y-12312488D01*
X13380836Y-12264869D01*
X13390359Y-12236298D01*
X13399883Y-12217250D01*
X13418931Y-12188678D01*
X13428455Y-12179155D01*
X13485598Y-12207726D02*
X13609407Y-12207726D01*
X13542740Y-12283917D01*
X13571312Y-12283917D01*
X13590359Y-12293440D01*
X13599883Y-12302964D01*
X13609407Y-12322012D01*
X13609407Y-12369631D01*
X13599883Y-12388678D01*
X13590359Y-12398202D01*
X13571312Y-12407726D01*
X13514169Y-12407726D01*
X13495121Y-12398202D01*
X13485598Y-12388678D01*
X13780836Y-12274393D02*
X13780836Y-12407726D01*
X13733217Y-12198202D02*
X13685598Y-12341059D01*
X13809407Y-12341059D01*
X14037978Y-12407726D02*
X14037978Y-12207726D01*
X14123693Y-12407726D02*
X14123693Y-12302964D01*
X14114169Y-12283917D01*
X14095121Y-12274393D01*
X14066550Y-12274393D01*
X14047502Y-12283917D01*
X14037978Y-12293440D01*
X14247502Y-12407726D02*
X14228455Y-12398202D01*
X14218931Y-12388678D01*
X14209407Y-12369631D01*
X14209407Y-12312488D01*
X14218931Y-12293440D01*
X14228455Y-12283917D01*
X14247502Y-12274393D01*
X14276074Y-12274393D01*
X14295121Y-12283917D01*
X14304645Y-12293440D01*
X14314169Y-12312488D01*
X14314169Y-12369631D01*
X14304645Y-12388678D01*
X14295121Y-12398202D01*
X14276074Y-12407726D01*
X14247502Y-12407726D01*
X14428455Y-12407726D02*
X14409407Y-12398202D01*
X14399883Y-12379155D01*
X14399883Y-12207726D01*
X14580836Y-12398202D02*
X14561788Y-12407726D01*
X14523693Y-12407726D01*
X14504645Y-12398202D01*
X14495121Y-12379155D01*
X14495121Y-12302964D01*
X14504645Y-12283917D01*
X14523693Y-12274393D01*
X14561788Y-12274393D01*
X14580836Y-12283917D01*
X14590359Y-12302964D01*
X14590359Y-12322012D01*
X14495121Y-12341059D01*
X14666550Y-12398202D02*
X14685598Y-12407726D01*
X14723693Y-12407726D01*
X14742740Y-12398202D01*
X14752264Y-12379155D01*
X14752264Y-12369631D01*
X14742740Y-12350583D01*
X14723693Y-12341059D01*
X14695121Y-12341059D01*
X14676074Y-12331536D01*
X14666550Y-12312488D01*
X14666550Y-12302964D01*
X14676074Y-12283917D01*
X14695121Y-12274393D01*
X14723693Y-12274393D01*
X14742740Y-12283917D01*
X14818931Y-12483917D02*
X14828455Y-12474393D01*
X14847502Y-12445821D01*
X14857026Y-12426774D01*
X14866550Y-12398202D01*
X14876074Y-12350583D01*
X14876074Y-12312488D01*
X14866550Y-12264869D01*
X14857026Y-12236298D01*
X14847502Y-12217250D01*
X14828455Y-12188678D01*
X14818931Y-12179155D01*
D15*
X9843517Y-12612717D02*
X9843517Y-12549783D01*
X9780583Y-12549783D01*
X9780583Y-12612717D01*
X9843517Y-12612717D01*
D11*
X10152264Y-12471726D02*
X10171312Y-12471726D01*
X10190360Y-12481250D01*
X10199883Y-12490774D01*
X10209407Y-12509821D01*
X10218931Y-12547917D01*
X10218931Y-12595536D01*
X10209407Y-12633631D01*
X10199883Y-12652678D01*
X10190360Y-12662202D01*
X10171312Y-12671726D01*
X10152264Y-12671726D01*
X10133217Y-12662202D01*
X10123693Y-12652678D01*
X10114169Y-12633631D01*
X10104645Y-12595536D01*
X10104645Y-12547917D01*
X10114169Y-12509821D01*
X10123693Y-12490774D01*
X10133217Y-12481250D01*
X10152264Y-12471726D01*
X10304645Y-12652678D02*
X10314169Y-12662202D01*
X10304645Y-12671726D01*
X10295121Y-12662202D01*
X10304645Y-12652678D01*
X10304645Y-12671726D01*
X10428455Y-12557440D02*
X10409407Y-12547917D01*
X10399883Y-12538393D01*
X10390360Y-12519345D01*
X10390360Y-12509821D01*
X10399883Y-12490774D01*
X10409407Y-12481250D01*
X10428455Y-12471726D01*
X10466550Y-12471726D01*
X10485598Y-12481250D01*
X10495121Y-12490774D01*
X10504645Y-12509821D01*
X10504645Y-12519345D01*
X10495121Y-12538393D01*
X10485598Y-12547917D01*
X10466550Y-12557440D01*
X10428455Y-12557440D01*
X10409407Y-12566964D01*
X10399883Y-12576488D01*
X10390360Y-12595536D01*
X10390360Y-12633631D01*
X10399883Y-12652678D01*
X10409407Y-12662202D01*
X10428455Y-12671726D01*
X10466550Y-12671726D01*
X10485598Y-12662202D01*
X10495121Y-12652678D01*
X10504645Y-12633631D01*
X10504645Y-12595536D01*
X10495121Y-12576488D01*
X10485598Y-12566964D01*
X10466550Y-12557440D01*
X10599883Y-12671726D02*
X10637979Y-12671726D01*
X10657026Y-12662202D01*
X10666550Y-12652678D01*
X10685598Y-12624107D01*
X10695121Y-12586012D01*
X10695121Y-12509821D01*
X10685598Y-12490774D01*
X10676074Y-12481250D01*
X10657026Y-12471726D01*
X10618931Y-12471726D01*
X10599883Y-12481250D01*
X10590360Y-12490774D01*
X10580836Y-12509821D01*
X10580836Y-12557440D01*
X10590360Y-12576488D01*
X10599883Y-12586012D01*
X10618931Y-12595536D01*
X10657026Y-12595536D01*
X10676074Y-12586012D01*
X10685598Y-12576488D01*
X10695121Y-12557440D01*
X10818931Y-12471726D02*
X10837979Y-12471726D01*
X10857026Y-12481250D01*
X10866550Y-12490774D01*
X10876074Y-12509821D01*
X10885598Y-12547917D01*
X10885598Y-12595536D01*
X10876074Y-12633631D01*
X10866550Y-12652678D01*
X10857026Y-12662202D01*
X10837979Y-12671726D01*
X10818931Y-12671726D01*
X10799883Y-12662202D01*
X10790360Y-12652678D01*
X10780836Y-12633631D01*
X10771312Y-12595536D01*
X10771312Y-12547917D01*
X10780836Y-12509821D01*
X10790360Y-12490774D01*
X10799883Y-12481250D01*
X10818931Y-12471726D01*
X10971312Y-12671726D02*
X10971312Y-12538393D01*
X10971312Y-12557440D02*
X10980836Y-12547917D01*
X10999883Y-12538393D01*
X11028455Y-12538393D01*
X11047502Y-12547917D01*
X11057026Y-12566964D01*
X11057026Y-12671726D01*
X11057026Y-12566964D02*
X11066550Y-12547917D01*
X11085598Y-12538393D01*
X11114169Y-12538393D01*
X11133217Y-12547917D01*
X11142740Y-12566964D01*
X11142740Y-12671726D01*
X11237978Y-12671726D02*
X11237978Y-12538393D01*
X11237978Y-12557440D02*
X11247502Y-12547917D01*
X11266550Y-12538393D01*
X11295121Y-12538393D01*
X11314169Y-12547917D01*
X11323693Y-12566964D01*
X11323693Y-12671726D01*
X11323693Y-12566964D02*
X11333217Y-12547917D01*
X11352264Y-12538393D01*
X11380836Y-12538393D01*
X11399883Y-12547917D01*
X11409407Y-12566964D01*
X11409407Y-12671726D01*
X11799883Y-12462202D02*
X11628455Y-12719345D01*
X12057026Y-12471726D02*
X12076074Y-12471726D01*
X12095121Y-12481250D01*
X12104645Y-12490774D01*
X12114169Y-12509821D01*
X12123693Y-12547917D01*
X12123693Y-12595536D01*
X12114169Y-12633631D01*
X12104645Y-12652678D01*
X12095121Y-12662202D01*
X12076074Y-12671726D01*
X12057026Y-12671726D01*
X12037978Y-12662202D01*
X12028455Y-12652678D01*
X12018931Y-12633631D01*
X12009407Y-12595536D01*
X12009407Y-12547917D01*
X12018931Y-12509821D01*
X12028455Y-12490774D01*
X12037978Y-12481250D01*
X12057026Y-12471726D01*
X12209407Y-12652678D02*
X12218931Y-12662202D01*
X12209407Y-12671726D01*
X12199883Y-12662202D01*
X12209407Y-12652678D01*
X12209407Y-12671726D01*
X12342740Y-12471726D02*
X12361788Y-12471726D01*
X12380836Y-12481250D01*
X12390359Y-12490774D01*
X12399883Y-12509821D01*
X12409407Y-12547917D01*
X12409407Y-12595536D01*
X12399883Y-12633631D01*
X12390359Y-12652678D01*
X12380836Y-12662202D01*
X12361788Y-12671726D01*
X12342740Y-12671726D01*
X12323693Y-12662202D01*
X12314169Y-12652678D01*
X12304645Y-12633631D01*
X12295121Y-12595536D01*
X12295121Y-12547917D01*
X12304645Y-12509821D01*
X12314169Y-12490774D01*
X12323693Y-12481250D01*
X12342740Y-12471726D01*
X12476074Y-12471726D02*
X12599883Y-12471726D01*
X12533217Y-12547917D01*
X12561788Y-12547917D01*
X12580836Y-12557440D01*
X12590359Y-12566964D01*
X12599883Y-12586012D01*
X12599883Y-12633631D01*
X12590359Y-12652678D01*
X12580836Y-12662202D01*
X12561788Y-12671726D01*
X12504645Y-12671726D01*
X12485598Y-12662202D01*
X12476074Y-12652678D01*
X12780836Y-12471726D02*
X12685598Y-12471726D01*
X12676074Y-12566964D01*
X12685598Y-12557440D01*
X12704645Y-12547917D01*
X12752264Y-12547917D01*
X12771312Y-12557440D01*
X12780836Y-12566964D01*
X12790359Y-12586012D01*
X12790359Y-12633631D01*
X12780836Y-12652678D01*
X12771312Y-12662202D01*
X12752264Y-12671726D01*
X12704645Y-12671726D01*
X12685598Y-12662202D01*
X12676074Y-12652678D01*
X12914169Y-12471726D02*
X12933217Y-12471726D01*
X12952264Y-12481250D01*
X12961788Y-12490774D01*
X12971312Y-12509821D01*
X12980836Y-12547917D01*
X12980836Y-12595536D01*
X12971312Y-12633631D01*
X12961788Y-12652678D01*
X12952264Y-12662202D01*
X12933217Y-12671726D01*
X12914169Y-12671726D01*
X12895121Y-12662202D01*
X12885598Y-12652678D01*
X12876074Y-12633631D01*
X12866550Y-12595536D01*
X12866550Y-12547917D01*
X12876074Y-12509821D01*
X12885598Y-12490774D01*
X12895121Y-12481250D01*
X12914169Y-12471726D01*
X13057026Y-12471726D02*
X13057026Y-12509821D01*
X13133217Y-12471726D02*
X13133217Y-12509821D01*
X13428455Y-12747917D02*
X13418931Y-12738393D01*
X13399883Y-12709821D01*
X13390359Y-12690774D01*
X13380836Y-12662202D01*
X13371312Y-12614583D01*
X13371312Y-12576488D01*
X13380836Y-12528869D01*
X13390359Y-12500298D01*
X13399883Y-12481250D01*
X13418931Y-12452678D01*
X13428455Y-12443155D01*
X13495121Y-12490774D02*
X13504645Y-12481250D01*
X13523693Y-12471726D01*
X13571312Y-12471726D01*
X13590359Y-12481250D01*
X13599883Y-12490774D01*
X13609407Y-12509821D01*
X13609407Y-12528869D01*
X13599883Y-12557440D01*
X13485598Y-12671726D01*
X13609407Y-12671726D01*
X13847502Y-12671726D02*
X13847502Y-12471726D01*
X13933217Y-12671726D02*
X13933217Y-12566964D01*
X13923693Y-12547917D01*
X13904645Y-12538393D01*
X13876074Y-12538393D01*
X13857026Y-12547917D01*
X13847502Y-12557440D01*
X14057026Y-12671726D02*
X14037978Y-12662202D01*
X14028455Y-12652678D01*
X14018931Y-12633631D01*
X14018931Y-12576488D01*
X14028455Y-12557440D01*
X14037978Y-12547917D01*
X14057026Y-12538393D01*
X14085598Y-12538393D01*
X14104645Y-12547917D01*
X14114169Y-12557440D01*
X14123693Y-12576488D01*
X14123693Y-12633631D01*
X14114169Y-12652678D01*
X14104645Y-12662202D01*
X14085598Y-12671726D01*
X14057026Y-12671726D01*
X14237978Y-12671726D02*
X14218931Y-12662202D01*
X14209407Y-12643155D01*
X14209407Y-12471726D01*
X14390359Y-12662202D02*
X14371312Y-12671726D01*
X14333217Y-12671726D01*
X14314169Y-12662202D01*
X14304645Y-12643155D01*
X14304645Y-12566964D01*
X14314169Y-12547917D01*
X14333217Y-12538393D01*
X14371312Y-12538393D01*
X14390359Y-12547917D01*
X14399883Y-12566964D01*
X14399883Y-12586012D01*
X14304645Y-12605059D01*
X14476074Y-12662202D02*
X14495121Y-12671726D01*
X14533217Y-12671726D01*
X14552264Y-12662202D01*
X14561788Y-12643155D01*
X14561788Y-12633631D01*
X14552264Y-12614583D01*
X14533217Y-12605059D01*
X14504645Y-12605059D01*
X14485598Y-12595536D01*
X14476074Y-12576488D01*
X14476074Y-12566964D01*
X14485598Y-12547917D01*
X14504645Y-12538393D01*
X14533217Y-12538393D01*
X14552264Y-12547917D01*
X14628455Y-12747917D02*
X14637978Y-12738393D01*
X14657026Y-12709821D01*
X14666550Y-12690774D01*
X14676074Y-12662202D01*
X14685598Y-12614583D01*
X14685598Y-12576488D01*
X14676074Y-12528869D01*
X14666550Y-12500298D01*
X14657026Y-12481250D01*
X14637978Y-12452678D01*
X14628455Y-12443155D01*
D16*
X9811550Y-12890250D02*
X9856550Y-12845250D01*
X9811550Y-12800250D01*
X9766550Y-12845250D01*
X9811550Y-12890250D01*
D11*
X10152264Y-12735726D02*
X10171312Y-12735726D01*
X10190360Y-12745250D01*
X10199883Y-12754774D01*
X10209407Y-12773821D01*
X10218931Y-12811917D01*
X10218931Y-12859536D01*
X10209407Y-12897631D01*
X10199883Y-12916678D01*
X10190360Y-12926202D01*
X10171312Y-12935726D01*
X10152264Y-12935726D01*
X10133217Y-12926202D01*
X10123693Y-12916678D01*
X10114169Y-12897631D01*
X10104645Y-12859536D01*
X10104645Y-12811917D01*
X10114169Y-12773821D01*
X10123693Y-12754774D01*
X10133217Y-12745250D01*
X10152264Y-12735726D01*
X10304645Y-12916678D02*
X10314169Y-12926202D01*
X10304645Y-12935726D01*
X10295121Y-12926202D01*
X10304645Y-12916678D01*
X10304645Y-12935726D01*
X10409407Y-12935726D02*
X10447502Y-12935726D01*
X10466550Y-12926202D01*
X10476074Y-12916678D01*
X10495121Y-12888107D01*
X10504645Y-12850012D01*
X10504645Y-12773821D01*
X10495121Y-12754774D01*
X10485598Y-12745250D01*
X10466550Y-12735726D01*
X10428455Y-12735726D01*
X10409407Y-12745250D01*
X10399883Y-12754774D01*
X10390360Y-12773821D01*
X10390360Y-12821440D01*
X10399883Y-12840488D01*
X10409407Y-12850012D01*
X10428455Y-12859536D01*
X10466550Y-12859536D01*
X10485598Y-12850012D01*
X10495121Y-12840488D01*
X10504645Y-12821440D01*
X10628455Y-12735726D02*
X10647502Y-12735726D01*
X10666550Y-12745250D01*
X10676074Y-12754774D01*
X10685598Y-12773821D01*
X10695121Y-12811917D01*
X10695121Y-12859536D01*
X10685598Y-12897631D01*
X10676074Y-12916678D01*
X10666550Y-12926202D01*
X10647502Y-12935726D01*
X10628455Y-12935726D01*
X10609407Y-12926202D01*
X10599883Y-12916678D01*
X10590360Y-12897631D01*
X10580836Y-12859536D01*
X10580836Y-12811917D01*
X10590360Y-12773821D01*
X10599883Y-12754774D01*
X10609407Y-12745250D01*
X10628455Y-12735726D01*
X10818931Y-12735726D02*
X10837979Y-12735726D01*
X10857026Y-12745250D01*
X10866550Y-12754774D01*
X10876074Y-12773821D01*
X10885598Y-12811917D01*
X10885598Y-12859536D01*
X10876074Y-12897631D01*
X10866550Y-12916678D01*
X10857026Y-12926202D01*
X10837979Y-12935726D01*
X10818931Y-12935726D01*
X10799883Y-12926202D01*
X10790360Y-12916678D01*
X10780836Y-12897631D01*
X10771312Y-12859536D01*
X10771312Y-12811917D01*
X10780836Y-12773821D01*
X10790360Y-12754774D01*
X10799883Y-12745250D01*
X10818931Y-12735726D01*
X10971312Y-12935726D02*
X10971312Y-12802393D01*
X10971312Y-12821440D02*
X10980836Y-12811917D01*
X10999883Y-12802393D01*
X11028455Y-12802393D01*
X11047502Y-12811917D01*
X11057026Y-12830964D01*
X11057026Y-12935726D01*
X11057026Y-12830964D02*
X11066550Y-12811917D01*
X11085598Y-12802393D01*
X11114169Y-12802393D01*
X11133217Y-12811917D01*
X11142740Y-12830964D01*
X11142740Y-12935726D01*
X11237978Y-12935726D02*
X11237978Y-12802393D01*
X11237978Y-12821440D02*
X11247502Y-12811917D01*
X11266550Y-12802393D01*
X11295121Y-12802393D01*
X11314169Y-12811917D01*
X11323693Y-12830964D01*
X11323693Y-12935726D01*
X11323693Y-12830964D02*
X11333217Y-12811917D01*
X11352264Y-12802393D01*
X11380836Y-12802393D01*
X11399883Y-12811917D01*
X11409407Y-12830964D01*
X11409407Y-12935726D01*
X11799883Y-12726202D02*
X11628455Y-12983345D01*
X12057026Y-12735726D02*
X12076074Y-12735726D01*
X12095121Y-12745250D01*
X12104645Y-12754774D01*
X12114169Y-12773821D01*
X12123693Y-12811917D01*
X12123693Y-12859536D01*
X12114169Y-12897631D01*
X12104645Y-12916678D01*
X12095121Y-12926202D01*
X12076074Y-12935726D01*
X12057026Y-12935726D01*
X12037978Y-12926202D01*
X12028455Y-12916678D01*
X12018931Y-12897631D01*
X12009407Y-12859536D01*
X12009407Y-12811917D01*
X12018931Y-12773821D01*
X12028455Y-12754774D01*
X12037978Y-12745250D01*
X12057026Y-12735726D01*
X12209407Y-12916678D02*
X12218931Y-12926202D01*
X12209407Y-12935726D01*
X12199883Y-12926202D01*
X12209407Y-12916678D01*
X12209407Y-12935726D01*
X12342740Y-12735726D02*
X12361788Y-12735726D01*
X12380836Y-12745250D01*
X12390359Y-12754774D01*
X12399883Y-12773821D01*
X12409407Y-12811917D01*
X12409407Y-12859536D01*
X12399883Y-12897631D01*
X12390359Y-12916678D01*
X12380836Y-12926202D01*
X12361788Y-12935726D01*
X12342740Y-12935726D01*
X12323693Y-12926202D01*
X12314169Y-12916678D01*
X12304645Y-12897631D01*
X12295121Y-12859536D01*
X12295121Y-12811917D01*
X12304645Y-12773821D01*
X12314169Y-12754774D01*
X12323693Y-12745250D01*
X12342740Y-12735726D01*
X12476074Y-12735726D02*
X12599883Y-12735726D01*
X12533217Y-12811917D01*
X12561788Y-12811917D01*
X12580836Y-12821440D01*
X12590359Y-12830964D01*
X12599883Y-12850012D01*
X12599883Y-12897631D01*
X12590359Y-12916678D01*
X12580836Y-12926202D01*
X12561788Y-12935726D01*
X12504645Y-12935726D01*
X12485598Y-12926202D01*
X12476074Y-12916678D01*
X12780836Y-12735726D02*
X12685598Y-12735726D01*
X12676074Y-12830964D01*
X12685598Y-12821440D01*
X12704645Y-12811917D01*
X12752264Y-12811917D01*
X12771312Y-12821440D01*
X12780836Y-12830964D01*
X12790359Y-12850012D01*
X12790359Y-12897631D01*
X12780836Y-12916678D01*
X12771312Y-12926202D01*
X12752264Y-12935726D01*
X12704645Y-12935726D01*
X12685598Y-12926202D01*
X12676074Y-12916678D01*
X12961788Y-12802393D02*
X12961788Y-12935726D01*
X12914169Y-12726202D02*
X12866550Y-12869059D01*
X12990359Y-12869059D01*
X13057026Y-12735726D02*
X13057026Y-12773821D01*
X13133217Y-12735726D02*
X13133217Y-12773821D01*
X13428455Y-13011917D02*
X13418931Y-13002393D01*
X13399883Y-12973821D01*
X13390359Y-12954774D01*
X13380836Y-12926202D01*
X13371312Y-12878583D01*
X13371312Y-12840488D01*
X13380836Y-12792869D01*
X13390359Y-12764298D01*
X13399883Y-12745250D01*
X13418931Y-12716678D01*
X13428455Y-12707155D01*
X13495121Y-12754774D02*
X13504645Y-12745250D01*
X13523693Y-12735726D01*
X13571312Y-12735726D01*
X13590359Y-12745250D01*
X13599883Y-12754774D01*
X13609407Y-12773821D01*
X13609407Y-12792869D01*
X13599883Y-12821440D01*
X13485598Y-12935726D01*
X13609407Y-12935726D01*
X13847502Y-12935726D02*
X13847502Y-12735726D01*
X13933217Y-12935726D02*
X13933217Y-12830964D01*
X13923693Y-12811917D01*
X13904645Y-12802393D01*
X13876074Y-12802393D01*
X13857026Y-12811917D01*
X13847502Y-12821440D01*
X14057026Y-12935726D02*
X14037978Y-12926202D01*
X14028455Y-12916678D01*
X14018931Y-12897631D01*
X14018931Y-12840488D01*
X14028455Y-12821440D01*
X14037978Y-12811917D01*
X14057026Y-12802393D01*
X14085598Y-12802393D01*
X14104645Y-12811917D01*
X14114169Y-12821440D01*
X14123693Y-12840488D01*
X14123693Y-12897631D01*
X14114169Y-12916678D01*
X14104645Y-12926202D01*
X14085598Y-12935726D01*
X14057026Y-12935726D01*
X14237978Y-12935726D02*
X14218931Y-12926202D01*
X14209407Y-12907155D01*
X14209407Y-12735726D01*
X14390359Y-12926202D02*
X14371312Y-12935726D01*
X14333217Y-12935726D01*
X14314169Y-12926202D01*
X14304645Y-12907155D01*
X14304645Y-12830964D01*
X14314169Y-12811917D01*
X14333217Y-12802393D01*
X14371312Y-12802393D01*
X14390359Y-12811917D01*
X14399883Y-12830964D01*
X14399883Y-12850012D01*
X14304645Y-12869059D01*
X14476074Y-12926202D02*
X14495121Y-12935726D01*
X14533217Y-12935726D01*
X14552264Y-12926202D01*
X14561788Y-12907155D01*
X14561788Y-12897631D01*
X14552264Y-12878583D01*
X14533217Y-12869059D01*
X14504645Y-12869059D01*
X14485598Y-12859536D01*
X14476074Y-12840488D01*
X14476074Y-12830964D01*
X14485598Y-12811917D01*
X14504645Y-12802393D01*
X14533217Y-12802393D01*
X14552264Y-12811917D01*
X14628455Y-13011917D02*
X14637978Y-13002393D01*
X14657026Y-12973821D01*
X14666550Y-12954774D01*
X14676074Y-12926202D01*
X14685598Y-12878583D01*
X14685598Y-12840488D01*
X14676074Y-12792869D01*
X14666550Y-12764298D01*
X14657026Y-12745250D01*
X14637978Y-12716678D01*
X14628455Y-12707155D01*
D10*
X9756550Y-13059250D02*
X9856550Y-13159250D01*
X9856550Y-13059250D02*
X9756550Y-13159250D01*
X9856550Y-13109250D02*
G75*
G03*
X9856550Y-13109250I-50000J0D01*
G01*
D11*
X10218931Y-13199726D02*
X10104645Y-13199726D01*
X10161788Y-13199726D02*
X10161788Y-12999726D01*
X10142740Y-13028298D01*
X10123693Y-13047345D01*
X10104645Y-13056869D01*
X10304645Y-13180678D02*
X10314169Y-13190202D01*
X10304645Y-13199726D01*
X10295121Y-13190202D01*
X10304645Y-13180678D01*
X10304645Y-13199726D01*
X10437979Y-12999726D02*
X10457026Y-12999726D01*
X10476074Y-13009250D01*
X10485598Y-13018774D01*
X10495121Y-13037821D01*
X10504645Y-13075917D01*
X10504645Y-13123536D01*
X10495121Y-13161631D01*
X10485598Y-13180678D01*
X10476074Y-13190202D01*
X10457026Y-13199726D01*
X10437979Y-13199726D01*
X10418931Y-13190202D01*
X10409407Y-13180678D01*
X10399883Y-13161631D01*
X10390360Y-13123536D01*
X10390360Y-13075917D01*
X10399883Y-13037821D01*
X10409407Y-13018774D01*
X10418931Y-13009250D01*
X10437979Y-12999726D01*
X10628455Y-12999726D02*
X10647502Y-12999726D01*
X10666550Y-13009250D01*
X10676074Y-13018774D01*
X10685598Y-13037821D01*
X10695121Y-13075917D01*
X10695121Y-13123536D01*
X10685598Y-13161631D01*
X10676074Y-13180678D01*
X10666550Y-13190202D01*
X10647502Y-13199726D01*
X10628455Y-13199726D01*
X10609407Y-13190202D01*
X10599883Y-13180678D01*
X10590360Y-13161631D01*
X10580836Y-13123536D01*
X10580836Y-13075917D01*
X10590360Y-13037821D01*
X10599883Y-13018774D01*
X10609407Y-13009250D01*
X10628455Y-12999726D01*
X10818931Y-12999726D02*
X10837979Y-12999726D01*
X10857026Y-13009250D01*
X10866550Y-13018774D01*
X10876074Y-13037821D01*
X10885598Y-13075917D01*
X10885598Y-13123536D01*
X10876074Y-13161631D01*
X10866550Y-13180678D01*
X10857026Y-13190202D01*
X10837979Y-13199726D01*
X10818931Y-13199726D01*
X10799883Y-13190202D01*
X10790360Y-13180678D01*
X10780836Y-13161631D01*
X10771312Y-13123536D01*
X10771312Y-13075917D01*
X10780836Y-13037821D01*
X10790360Y-13018774D01*
X10799883Y-13009250D01*
X10818931Y-12999726D01*
X10971312Y-13199726D02*
X10971312Y-13066393D01*
X10971312Y-13085440D02*
X10980836Y-13075917D01*
X10999883Y-13066393D01*
X11028455Y-13066393D01*
X11047502Y-13075917D01*
X11057026Y-13094964D01*
X11057026Y-13199726D01*
X11057026Y-13094964D02*
X11066550Y-13075917D01*
X11085598Y-13066393D01*
X11114169Y-13066393D01*
X11133217Y-13075917D01*
X11142740Y-13094964D01*
X11142740Y-13199726D01*
X11237978Y-13199726D02*
X11237978Y-13066393D01*
X11237978Y-13085440D02*
X11247502Y-13075917D01*
X11266550Y-13066393D01*
X11295121Y-13066393D01*
X11314169Y-13075917D01*
X11323693Y-13094964D01*
X11323693Y-13199726D01*
X11323693Y-13094964D02*
X11333217Y-13075917D01*
X11352264Y-13066393D01*
X11380836Y-13066393D01*
X11399883Y-13075917D01*
X11409407Y-13094964D01*
X11409407Y-13199726D01*
X11799883Y-12990202D02*
X11628455Y-13247345D01*
X12057026Y-12999726D02*
X12076074Y-12999726D01*
X12095121Y-13009250D01*
X12104645Y-13018774D01*
X12114169Y-13037821D01*
X12123693Y-13075917D01*
X12123693Y-13123536D01*
X12114169Y-13161631D01*
X12104645Y-13180678D01*
X12095121Y-13190202D01*
X12076074Y-13199726D01*
X12057026Y-13199726D01*
X12037978Y-13190202D01*
X12028455Y-13180678D01*
X12018931Y-13161631D01*
X12009407Y-13123536D01*
X12009407Y-13075917D01*
X12018931Y-13037821D01*
X12028455Y-13018774D01*
X12037978Y-13009250D01*
X12057026Y-12999726D01*
X12209407Y-13180678D02*
X12218931Y-13190202D01*
X12209407Y-13199726D01*
X12199883Y-13190202D01*
X12209407Y-13180678D01*
X12209407Y-13199726D01*
X12342740Y-12999726D02*
X12361788Y-12999726D01*
X12380836Y-13009250D01*
X12390359Y-13018774D01*
X12399883Y-13037821D01*
X12409407Y-13075917D01*
X12409407Y-13123536D01*
X12399883Y-13161631D01*
X12390359Y-13180678D01*
X12380836Y-13190202D01*
X12361788Y-13199726D01*
X12342740Y-13199726D01*
X12323693Y-13190202D01*
X12314169Y-13180678D01*
X12304645Y-13161631D01*
X12295121Y-13123536D01*
X12295121Y-13075917D01*
X12304645Y-13037821D01*
X12314169Y-13018774D01*
X12323693Y-13009250D01*
X12342740Y-12999726D01*
X12476074Y-12999726D02*
X12599883Y-12999726D01*
X12533217Y-13075917D01*
X12561788Y-13075917D01*
X12580836Y-13085440D01*
X12590359Y-13094964D01*
X12599883Y-13114012D01*
X12599883Y-13161631D01*
X12590359Y-13180678D01*
X12580836Y-13190202D01*
X12561788Y-13199726D01*
X12504645Y-13199726D01*
X12485598Y-13190202D01*
X12476074Y-13180678D01*
X12695121Y-13199726D02*
X12733217Y-13199726D01*
X12752264Y-13190202D01*
X12761788Y-13180678D01*
X12780836Y-13152107D01*
X12790359Y-13114012D01*
X12790359Y-13037821D01*
X12780836Y-13018774D01*
X12771312Y-13009250D01*
X12752264Y-12999726D01*
X12714169Y-12999726D01*
X12695121Y-13009250D01*
X12685598Y-13018774D01*
X12676074Y-13037821D01*
X12676074Y-13085440D01*
X12685598Y-13104488D01*
X12695121Y-13114012D01*
X12714169Y-13123536D01*
X12752264Y-13123536D01*
X12771312Y-13114012D01*
X12780836Y-13104488D01*
X12790359Y-13085440D01*
X12961788Y-13066393D02*
X12961788Y-13199726D01*
X12914169Y-12990202D02*
X12866550Y-13133059D01*
X12990359Y-13133059D01*
X13057026Y-12999726D02*
X13057026Y-13037821D01*
X13133217Y-12999726D02*
X13133217Y-13037821D01*
X13428455Y-13275917D02*
X13418931Y-13266393D01*
X13399883Y-13237821D01*
X13390359Y-13218774D01*
X13380836Y-13190202D01*
X13371312Y-13142583D01*
X13371312Y-13104488D01*
X13380836Y-13056869D01*
X13390359Y-13028298D01*
X13399883Y-13009250D01*
X13418931Y-12980678D01*
X13428455Y-12971155D01*
X13495121Y-13018774D02*
X13504645Y-13009250D01*
X13523693Y-12999726D01*
X13571312Y-12999726D01*
X13590359Y-13009250D01*
X13599883Y-13018774D01*
X13609407Y-13037821D01*
X13609407Y-13056869D01*
X13599883Y-13085440D01*
X13485598Y-13199726D01*
X13609407Y-13199726D01*
X13676074Y-12999726D02*
X13799883Y-12999726D01*
X13733217Y-13075917D01*
X13761788Y-13075917D01*
X13780836Y-13085440D01*
X13790359Y-13094964D01*
X13799883Y-13114012D01*
X13799883Y-13161631D01*
X13790359Y-13180678D01*
X13780836Y-13190202D01*
X13761788Y-13199726D01*
X13704645Y-13199726D01*
X13685598Y-13190202D01*
X13676074Y-13180678D01*
X14037978Y-13199726D02*
X14037978Y-12999726D01*
X14123693Y-13199726D02*
X14123693Y-13094964D01*
X14114169Y-13075917D01*
X14095121Y-13066393D01*
X14066550Y-13066393D01*
X14047502Y-13075917D01*
X14037978Y-13085440D01*
X14247502Y-13199726D02*
X14228455Y-13190202D01*
X14218931Y-13180678D01*
X14209407Y-13161631D01*
X14209407Y-13104488D01*
X14218931Y-13085440D01*
X14228455Y-13075917D01*
X14247502Y-13066393D01*
X14276074Y-13066393D01*
X14295121Y-13075917D01*
X14304645Y-13085440D01*
X14314169Y-13104488D01*
X14314169Y-13161631D01*
X14304645Y-13180678D01*
X14295121Y-13190202D01*
X14276074Y-13199726D01*
X14247502Y-13199726D01*
X14428455Y-13199726D02*
X14409407Y-13190202D01*
X14399883Y-13171155D01*
X14399883Y-12999726D01*
X14580836Y-13190202D02*
X14561788Y-13199726D01*
X14523693Y-13199726D01*
X14504645Y-13190202D01*
X14495121Y-13171155D01*
X14495121Y-13094964D01*
X14504645Y-13075917D01*
X14523693Y-13066393D01*
X14561788Y-13066393D01*
X14580836Y-13075917D01*
X14590359Y-13094964D01*
X14590359Y-13114012D01*
X14495121Y-13133059D01*
X14666550Y-13190202D02*
X14685598Y-13199726D01*
X14723693Y-13199726D01*
X14742740Y-13190202D01*
X14752264Y-13171155D01*
X14752264Y-13161631D01*
X14742740Y-13142583D01*
X14723693Y-13133059D01*
X14695121Y-13133059D01*
X14676074Y-13123536D01*
X14666550Y-13104488D01*
X14666550Y-13094964D01*
X14676074Y-13075917D01*
X14695121Y-13066393D01*
X14723693Y-13066393D01*
X14742740Y-13075917D01*
X14990359Y-13123536D02*
X15142740Y-13123536D01*
X15066550Y-13199726D02*
X15066550Y-13047345D01*
X15371312Y-12999726D02*
X15495121Y-12999726D01*
X15428455Y-13075917D01*
X15457026Y-13075917D01*
X15476074Y-13085440D01*
X15485598Y-13094964D01*
X15495121Y-13114012D01*
X15495121Y-13161631D01*
X15485598Y-13180678D01*
X15476074Y-13190202D01*
X15457026Y-13199726D01*
X15399883Y-13199726D01*
X15380836Y-13190202D01*
X15371312Y-13180678D01*
X15723693Y-13190202D02*
X15742740Y-13199726D01*
X15780836Y-13199726D01*
X15799883Y-13190202D01*
X15809407Y-13171155D01*
X15809407Y-13161631D01*
X15799883Y-13142583D01*
X15780836Y-13133059D01*
X15752264Y-13133059D01*
X15733217Y-13123536D01*
X15723693Y-13104488D01*
X15723693Y-13094964D01*
X15733217Y-13075917D01*
X15752264Y-13066393D01*
X15780836Y-13066393D01*
X15799883Y-13075917D01*
X15923693Y-13199726D02*
X15904645Y-13190202D01*
X15895121Y-13171155D01*
X15895121Y-12999726D01*
X16028455Y-13199726D02*
X16009407Y-13190202D01*
X15999883Y-13180678D01*
X15990359Y-13161631D01*
X15990359Y-13104488D01*
X15999883Y-13085440D01*
X16009407Y-13075917D01*
X16028455Y-13066393D01*
X16057026Y-13066393D01*
X16076074Y-13075917D01*
X16085598Y-13085440D01*
X16095121Y-13104488D01*
X16095121Y-13161631D01*
X16085598Y-13180678D01*
X16076074Y-13190202D01*
X16057026Y-13199726D01*
X16028455Y-13199726D01*
X16152264Y-13066393D02*
X16228455Y-13066393D01*
X16180836Y-12999726D02*
X16180836Y-13171155D01*
X16190359Y-13190202D01*
X16209407Y-13199726D01*
X16228455Y-13199726D01*
X16285598Y-13190202D02*
X16304645Y-13199726D01*
X16342740Y-13199726D01*
X16361788Y-13190202D01*
X16371312Y-13171155D01*
X16371312Y-13161631D01*
X16361788Y-13142583D01*
X16342740Y-13133059D01*
X16314169Y-13133059D01*
X16295121Y-13123536D01*
X16285598Y-13104488D01*
X16285598Y-13094964D01*
X16295121Y-13075917D01*
X16314169Y-13066393D01*
X16342740Y-13066393D01*
X16361788Y-13075917D01*
X16437978Y-13275917D02*
X16447502Y-13266393D01*
X16466550Y-13237821D01*
X16476074Y-13218774D01*
X16485598Y-13190202D01*
X16495121Y-13142583D01*
X16495121Y-13104488D01*
X16485598Y-13056869D01*
X16476074Y-13028298D01*
X16466550Y-13009250D01*
X16447502Y-12980678D01*
X16437978Y-12971155D01*
D17*
X9746550Y-13318250D02*
X9856550Y-13428250D01*
X9856550Y-13318250D02*
X9746550Y-13428250D01*
X9801550Y-13318250D02*
X9801550Y-13428250D01*
X9746550Y-13373250D02*
X9856550Y-13373250D01*
D11*
X10218931Y-13463726D02*
X10104645Y-13463726D01*
X10161788Y-13463726D02*
X10161788Y-13263726D01*
X10142740Y-13292298D01*
X10123693Y-13311345D01*
X10104645Y-13320869D01*
X10304645Y-13444678D02*
X10314169Y-13454202D01*
X10304645Y-13463726D01*
X10295121Y-13454202D01*
X10304645Y-13444678D01*
X10304645Y-13463726D01*
X10504645Y-13463726D02*
X10390360Y-13463726D01*
X10447502Y-13463726D02*
X10447502Y-13263726D01*
X10428455Y-13292298D01*
X10409407Y-13311345D01*
X10390360Y-13320869D01*
X10628455Y-13263726D02*
X10647502Y-13263726D01*
X10666550Y-13273250D01*
X10676074Y-13282774D01*
X10685598Y-13301821D01*
X10695121Y-13339917D01*
X10695121Y-13387536D01*
X10685598Y-13425631D01*
X10676074Y-13444678D01*
X10666550Y-13454202D01*
X10647502Y-13463726D01*
X10628455Y-13463726D01*
X10609407Y-13454202D01*
X10599883Y-13444678D01*
X10590360Y-13425631D01*
X10580836Y-13387536D01*
X10580836Y-13339917D01*
X10590360Y-13301821D01*
X10599883Y-13282774D01*
X10609407Y-13273250D01*
X10628455Y-13263726D01*
X10818931Y-13263726D02*
X10837979Y-13263726D01*
X10857026Y-13273250D01*
X10866550Y-13282774D01*
X10876074Y-13301821D01*
X10885598Y-13339917D01*
X10885598Y-13387536D01*
X10876074Y-13425631D01*
X10866550Y-13444678D01*
X10857026Y-13454202D01*
X10837979Y-13463726D01*
X10818931Y-13463726D01*
X10799883Y-13454202D01*
X10790360Y-13444678D01*
X10780836Y-13425631D01*
X10771312Y-13387536D01*
X10771312Y-13339917D01*
X10780836Y-13301821D01*
X10790360Y-13282774D01*
X10799883Y-13273250D01*
X10818931Y-13263726D01*
X10971312Y-13463726D02*
X10971312Y-13330393D01*
X10971312Y-13349440D02*
X10980836Y-13339917D01*
X10999883Y-13330393D01*
X11028455Y-13330393D01*
X11047502Y-13339917D01*
X11057026Y-13358964D01*
X11057026Y-13463726D01*
X11057026Y-13358964D02*
X11066550Y-13339917D01*
X11085598Y-13330393D01*
X11114169Y-13330393D01*
X11133217Y-13339917D01*
X11142740Y-13358964D01*
X11142740Y-13463726D01*
X11237978Y-13463726D02*
X11237978Y-13330393D01*
X11237978Y-13349440D02*
X11247502Y-13339917D01*
X11266550Y-13330393D01*
X11295121Y-13330393D01*
X11314169Y-13339917D01*
X11323693Y-13358964D01*
X11323693Y-13463726D01*
X11323693Y-13358964D02*
X11333217Y-13339917D01*
X11352264Y-13330393D01*
X11380836Y-13330393D01*
X11399883Y-13339917D01*
X11409407Y-13358964D01*
X11409407Y-13463726D01*
X11799883Y-13254202D02*
X11628455Y-13511345D01*
X12057026Y-13263726D02*
X12076074Y-13263726D01*
X12095121Y-13273250D01*
X12104645Y-13282774D01*
X12114169Y-13301821D01*
X12123693Y-13339917D01*
X12123693Y-13387536D01*
X12114169Y-13425631D01*
X12104645Y-13444678D01*
X12095121Y-13454202D01*
X12076074Y-13463726D01*
X12057026Y-13463726D01*
X12037978Y-13454202D01*
X12028455Y-13444678D01*
X12018931Y-13425631D01*
X12009407Y-13387536D01*
X12009407Y-13339917D01*
X12018931Y-13301821D01*
X12028455Y-13282774D01*
X12037978Y-13273250D01*
X12057026Y-13263726D01*
X12209407Y-13444678D02*
X12218931Y-13454202D01*
X12209407Y-13463726D01*
X12199883Y-13454202D01*
X12209407Y-13444678D01*
X12209407Y-13463726D01*
X12342740Y-13263726D02*
X12361788Y-13263726D01*
X12380836Y-13273250D01*
X12390359Y-13282774D01*
X12399883Y-13301821D01*
X12409407Y-13339917D01*
X12409407Y-13387536D01*
X12399883Y-13425631D01*
X12390359Y-13444678D01*
X12380836Y-13454202D01*
X12361788Y-13463726D01*
X12342740Y-13463726D01*
X12323693Y-13454202D01*
X12314169Y-13444678D01*
X12304645Y-13425631D01*
X12295121Y-13387536D01*
X12295121Y-13339917D01*
X12304645Y-13301821D01*
X12314169Y-13282774D01*
X12323693Y-13273250D01*
X12342740Y-13263726D01*
X12580836Y-13330393D02*
X12580836Y-13463726D01*
X12533217Y-13254202D02*
X12485598Y-13397059D01*
X12609407Y-13397059D01*
X12666550Y-13263726D02*
X12790359Y-13263726D01*
X12723693Y-13339917D01*
X12752264Y-13339917D01*
X12771312Y-13349440D01*
X12780836Y-13358964D01*
X12790359Y-13378012D01*
X12790359Y-13425631D01*
X12780836Y-13444678D01*
X12771312Y-13454202D01*
X12752264Y-13463726D01*
X12695121Y-13463726D01*
X12676074Y-13454202D01*
X12666550Y-13444678D01*
X12857026Y-13263726D02*
X12980836Y-13263726D01*
X12914169Y-13339917D01*
X12942740Y-13339917D01*
X12961788Y-13349440D01*
X12971312Y-13358964D01*
X12980836Y-13378012D01*
X12980836Y-13425631D01*
X12971312Y-13444678D01*
X12961788Y-13454202D01*
X12942740Y-13463726D01*
X12885598Y-13463726D01*
X12866550Y-13454202D01*
X12857026Y-13444678D01*
X13057026Y-13263726D02*
X13057026Y-13301821D01*
X13133217Y-13263726D02*
X13133217Y-13301821D01*
X13428455Y-13539917D02*
X13418931Y-13530393D01*
X13399883Y-13501821D01*
X13390359Y-13482774D01*
X13380836Y-13454202D01*
X13371312Y-13406583D01*
X13371312Y-13368488D01*
X13380836Y-13320869D01*
X13390359Y-13292298D01*
X13399883Y-13273250D01*
X13418931Y-13244678D01*
X13428455Y-13235155D01*
X13495121Y-13282774D02*
X13504645Y-13273250D01*
X13523693Y-13263726D01*
X13571312Y-13263726D01*
X13590359Y-13273250D01*
X13599883Y-13282774D01*
X13609407Y-13301821D01*
X13609407Y-13320869D01*
X13599883Y-13349440D01*
X13485598Y-13463726D01*
X13609407Y-13463726D01*
X13847502Y-13463726D02*
X13847502Y-13263726D01*
X13933217Y-13463726D02*
X13933217Y-13358964D01*
X13923693Y-13339917D01*
X13904645Y-13330393D01*
X13876074Y-13330393D01*
X13857026Y-13339917D01*
X13847502Y-13349440D01*
X14057026Y-13463726D02*
X14037978Y-13454202D01*
X14028455Y-13444678D01*
X14018931Y-13425631D01*
X14018931Y-13368488D01*
X14028455Y-13349440D01*
X14037978Y-13339917D01*
X14057026Y-13330393D01*
X14085598Y-13330393D01*
X14104645Y-13339917D01*
X14114169Y-13349440D01*
X14123693Y-13368488D01*
X14123693Y-13425631D01*
X14114169Y-13444678D01*
X14104645Y-13454202D01*
X14085598Y-13463726D01*
X14057026Y-13463726D01*
X14237978Y-13463726D02*
X14218931Y-13454202D01*
X14209407Y-13435155D01*
X14209407Y-13263726D01*
X14390359Y-13454202D02*
X14371312Y-13463726D01*
X14333217Y-13463726D01*
X14314169Y-13454202D01*
X14304645Y-13435155D01*
X14304645Y-13358964D01*
X14314169Y-13339917D01*
X14333217Y-13330393D01*
X14371312Y-13330393D01*
X14390359Y-13339917D01*
X14399883Y-13358964D01*
X14399883Y-13378012D01*
X14304645Y-13397059D01*
X14476074Y-13454202D02*
X14495121Y-13463726D01*
X14533217Y-13463726D01*
X14552264Y-13454202D01*
X14561788Y-13435155D01*
X14561788Y-13425631D01*
X14552264Y-13406583D01*
X14533217Y-13397059D01*
X14504645Y-13397059D01*
X14485598Y-13387536D01*
X14476074Y-13368488D01*
X14476074Y-13358964D01*
X14485598Y-13339917D01*
X14504645Y-13330393D01*
X14533217Y-13330393D01*
X14552264Y-13339917D01*
X14628455Y-13539917D02*
X14637978Y-13530393D01*
X14657026Y-13501821D01*
X14666550Y-13482774D01*
X14676074Y-13454202D01*
X14685598Y-13406583D01*
X14685598Y-13368488D01*
X14676074Y-13320869D01*
X14666550Y-13292298D01*
X14657026Y-13273250D01*
X14637978Y-13244678D01*
X14628455Y-13235155D01*
X9656550Y-13537250D02*
X9856550Y-13737250D01*
X9856550Y-13537250D02*
X9656550Y-13737250D01*
X9827261Y-13707961D02*
X9827261Y-13566539D01*
X9685839Y-13566539D01*
X9685839Y-13707961D01*
X9827261Y-13707961D01*
X10104645Y-13546774D02*
X10114169Y-13537250D01*
X10133217Y-13527726D01*
X10180836Y-13527726D01*
X10199883Y-13537250D01*
X10209407Y-13546774D01*
X10218931Y-13565821D01*
X10218931Y-13584869D01*
X10209407Y-13613440D01*
X10095121Y-13727726D01*
X10218931Y-13727726D01*
X10304645Y-13708678D02*
X10314169Y-13718202D01*
X10304645Y-13727726D01*
X10295121Y-13718202D01*
X10304645Y-13708678D01*
X10304645Y-13727726D01*
X10437979Y-13527726D02*
X10457026Y-13527726D01*
X10476074Y-13537250D01*
X10485598Y-13546774D01*
X10495121Y-13565821D01*
X10504645Y-13603917D01*
X10504645Y-13651536D01*
X10495121Y-13689631D01*
X10485598Y-13708678D01*
X10476074Y-13718202D01*
X10457026Y-13727726D01*
X10437979Y-13727726D01*
X10418931Y-13718202D01*
X10409407Y-13708678D01*
X10399883Y-13689631D01*
X10390360Y-13651536D01*
X10390360Y-13603917D01*
X10399883Y-13565821D01*
X10409407Y-13546774D01*
X10418931Y-13537250D01*
X10437979Y-13527726D01*
X10695121Y-13727726D02*
X10580836Y-13727726D01*
X10637979Y-13727726D02*
X10637979Y-13527726D01*
X10618931Y-13556298D01*
X10599883Y-13575345D01*
X10580836Y-13584869D01*
X10818931Y-13527726D02*
X10837979Y-13527726D01*
X10857026Y-13537250D01*
X10866550Y-13546774D01*
X10876074Y-13565821D01*
X10885598Y-13603917D01*
X10885598Y-13651536D01*
X10876074Y-13689631D01*
X10866550Y-13708678D01*
X10857026Y-13718202D01*
X10837979Y-13727726D01*
X10818931Y-13727726D01*
X10799883Y-13718202D01*
X10790360Y-13708678D01*
X10780836Y-13689631D01*
X10771312Y-13651536D01*
X10771312Y-13603917D01*
X10780836Y-13565821D01*
X10790360Y-13546774D01*
X10799883Y-13537250D01*
X10818931Y-13527726D01*
X10971312Y-13727726D02*
X10971312Y-13594393D01*
X10971312Y-13613440D02*
X10980836Y-13603917D01*
X10999883Y-13594393D01*
X11028455Y-13594393D01*
X11047502Y-13603917D01*
X11057026Y-13622964D01*
X11057026Y-13727726D01*
X11057026Y-13622964D02*
X11066550Y-13603917D01*
X11085598Y-13594393D01*
X11114169Y-13594393D01*
X11133217Y-13603917D01*
X11142740Y-13622964D01*
X11142740Y-13727726D01*
X11237978Y-13727726D02*
X11237978Y-13594393D01*
X11237978Y-13613440D02*
X11247502Y-13603917D01*
X11266550Y-13594393D01*
X11295121Y-13594393D01*
X11314169Y-13603917D01*
X11323693Y-13622964D01*
X11323693Y-13727726D01*
X11323693Y-13622964D02*
X11333217Y-13603917D01*
X11352264Y-13594393D01*
X11380836Y-13594393D01*
X11399883Y-13603917D01*
X11409407Y-13622964D01*
X11409407Y-13727726D01*
X11799883Y-13518202D02*
X11628455Y-13775345D01*
X12057026Y-13527726D02*
X12076074Y-13527726D01*
X12095121Y-13537250D01*
X12104645Y-13546774D01*
X12114169Y-13565821D01*
X12123693Y-13603917D01*
X12123693Y-13651536D01*
X12114169Y-13689631D01*
X12104645Y-13708678D01*
X12095121Y-13718202D01*
X12076074Y-13727726D01*
X12057026Y-13727726D01*
X12037978Y-13718202D01*
X12028455Y-13708678D01*
X12018931Y-13689631D01*
X12009407Y-13651536D01*
X12009407Y-13603917D01*
X12018931Y-13565821D01*
X12028455Y-13546774D01*
X12037978Y-13537250D01*
X12057026Y-13527726D01*
X12209407Y-13708678D02*
X12218931Y-13718202D01*
X12209407Y-13727726D01*
X12199883Y-13718202D01*
X12209407Y-13708678D01*
X12209407Y-13727726D01*
X12342740Y-13527726D02*
X12361788Y-13527726D01*
X12380836Y-13537250D01*
X12390359Y-13546774D01*
X12399883Y-13565821D01*
X12409407Y-13603917D01*
X12409407Y-13651536D01*
X12399883Y-13689631D01*
X12390359Y-13708678D01*
X12380836Y-13718202D01*
X12361788Y-13727726D01*
X12342740Y-13727726D01*
X12323693Y-13718202D01*
X12314169Y-13708678D01*
X12304645Y-13689631D01*
X12295121Y-13651536D01*
X12295121Y-13603917D01*
X12304645Y-13565821D01*
X12314169Y-13546774D01*
X12323693Y-13537250D01*
X12342740Y-13527726D01*
X12476074Y-13527726D02*
X12609407Y-13527726D01*
X12523693Y-13727726D01*
X12695121Y-13727726D02*
X12733217Y-13727726D01*
X12752264Y-13718202D01*
X12761788Y-13708678D01*
X12780836Y-13680107D01*
X12790359Y-13642012D01*
X12790359Y-13565821D01*
X12780836Y-13546774D01*
X12771312Y-13537250D01*
X12752264Y-13527726D01*
X12714169Y-13527726D01*
X12695121Y-13537250D01*
X12685598Y-13546774D01*
X12676074Y-13565821D01*
X12676074Y-13613440D01*
X12685598Y-13632488D01*
X12695121Y-13642012D01*
X12714169Y-13651536D01*
X12752264Y-13651536D01*
X12771312Y-13642012D01*
X12780836Y-13632488D01*
X12790359Y-13613440D01*
X12980836Y-13727726D02*
X12866550Y-13727726D01*
X12923693Y-13727726D02*
X12923693Y-13527726D01*
X12904645Y-13556298D01*
X12885598Y-13575345D01*
X12866550Y-13584869D01*
X13057026Y-13527726D02*
X13057026Y-13565821D01*
X13133217Y-13527726D02*
X13133217Y-13565821D01*
X13428455Y-13803917D02*
X13418931Y-13794393D01*
X13399883Y-13765821D01*
X13390359Y-13746774D01*
X13380836Y-13718202D01*
X13371312Y-13670583D01*
X13371312Y-13632488D01*
X13380836Y-13584869D01*
X13390359Y-13556298D01*
X13399883Y-13537250D01*
X13418931Y-13508678D01*
X13428455Y-13499155D01*
X13495121Y-13546774D02*
X13504645Y-13537250D01*
X13523693Y-13527726D01*
X13571312Y-13527726D01*
X13590359Y-13537250D01*
X13599883Y-13546774D01*
X13609407Y-13565821D01*
X13609407Y-13584869D01*
X13599883Y-13613440D01*
X13485598Y-13727726D01*
X13609407Y-13727726D01*
X13847502Y-13727726D02*
X13847502Y-13527726D01*
X13933217Y-13727726D02*
X13933217Y-13622964D01*
X13923693Y-13603917D01*
X13904645Y-13594393D01*
X13876074Y-13594393D01*
X13857026Y-13603917D01*
X13847502Y-13613440D01*
X14057026Y-13727726D02*
X14037978Y-13718202D01*
X14028455Y-13708678D01*
X14018931Y-13689631D01*
X14018931Y-13632488D01*
X14028455Y-13613440D01*
X14037978Y-13603917D01*
X14057026Y-13594393D01*
X14085598Y-13594393D01*
X14104645Y-13603917D01*
X14114169Y-13613440D01*
X14123693Y-13632488D01*
X14123693Y-13689631D01*
X14114169Y-13708678D01*
X14104645Y-13718202D01*
X14085598Y-13727726D01*
X14057026Y-13727726D01*
X14237978Y-13727726D02*
X14218931Y-13718202D01*
X14209407Y-13699155D01*
X14209407Y-13527726D01*
X14390359Y-13718202D02*
X14371312Y-13727726D01*
X14333217Y-13727726D01*
X14314169Y-13718202D01*
X14304645Y-13699155D01*
X14304645Y-13622964D01*
X14314169Y-13603917D01*
X14333217Y-13594393D01*
X14371312Y-13594393D01*
X14390359Y-13603917D01*
X14399883Y-13622964D01*
X14399883Y-13642012D01*
X14304645Y-13661059D01*
X14476074Y-13718202D02*
X14495121Y-13727726D01*
X14533217Y-13727726D01*
X14552264Y-13718202D01*
X14561788Y-13699155D01*
X14561788Y-13689631D01*
X14552264Y-13670583D01*
X14533217Y-13661059D01*
X14504645Y-13661059D01*
X14485598Y-13651536D01*
X14476074Y-13632488D01*
X14476074Y-13622964D01*
X14485598Y-13603917D01*
X14504645Y-13594393D01*
X14533217Y-13594393D01*
X14552264Y-13603917D01*
X14628455Y-13803917D02*
X14637978Y-13794393D01*
X14657026Y-13765821D01*
X14666550Y-13746774D01*
X14676074Y-13718202D01*
X14685598Y-13670583D01*
X14685598Y-13632488D01*
X14676074Y-13584869D01*
X14666550Y-13556298D01*
X14657026Y-13537250D01*
X14637978Y-13508678D01*
X14628455Y-13499155D01*
X9656550Y-13857250D02*
X9856550Y-14057250D01*
X9856550Y-13857250D02*
X9656550Y-14057250D01*
X9756550Y-14057250D02*
X9856550Y-13957250D01*
X9756550Y-13857250D01*
X9656550Y-13957250D01*
X9756550Y-14057250D01*
X10104645Y-13866774D02*
X10114169Y-13857250D01*
X10133217Y-13847726D01*
X10180836Y-13847726D01*
X10199883Y-13857250D01*
X10209407Y-13866774D01*
X10218931Y-13885821D01*
X10218931Y-13904869D01*
X10209407Y-13933440D01*
X10095121Y-14047726D01*
X10218931Y-14047726D01*
X10304645Y-14028678D02*
X10314169Y-14038202D01*
X10304645Y-14047726D01*
X10295121Y-14038202D01*
X10304645Y-14028678D01*
X10304645Y-14047726D01*
X10437979Y-13847726D02*
X10457026Y-13847726D01*
X10476074Y-13857250D01*
X10485598Y-13866774D01*
X10495121Y-13885821D01*
X10504645Y-13923917D01*
X10504645Y-13971536D01*
X10495121Y-14009631D01*
X10485598Y-14028678D01*
X10476074Y-14038202D01*
X10457026Y-14047726D01*
X10437979Y-14047726D01*
X10418931Y-14038202D01*
X10409407Y-14028678D01*
X10399883Y-14009631D01*
X10390360Y-13971536D01*
X10390360Y-13923917D01*
X10399883Y-13885821D01*
X10409407Y-13866774D01*
X10418931Y-13857250D01*
X10437979Y-13847726D01*
X10676074Y-13847726D02*
X10637979Y-13847726D01*
X10618931Y-13857250D01*
X10609407Y-13866774D01*
X10590360Y-13895345D01*
X10580836Y-13933440D01*
X10580836Y-14009631D01*
X10590360Y-14028678D01*
X10599883Y-14038202D01*
X10618931Y-14047726D01*
X10657026Y-14047726D01*
X10676074Y-14038202D01*
X10685598Y-14028678D01*
X10695121Y-14009631D01*
X10695121Y-13962012D01*
X10685598Y-13942964D01*
X10676074Y-13933440D01*
X10657026Y-13923917D01*
X10618931Y-13923917D01*
X10599883Y-13933440D01*
X10590360Y-13942964D01*
X10580836Y-13962012D01*
X10771312Y-13866774D02*
X10780836Y-13857250D01*
X10799883Y-13847726D01*
X10847502Y-13847726D01*
X10866550Y-13857250D01*
X10876074Y-13866774D01*
X10885598Y-13885821D01*
X10885598Y-13904869D01*
X10876074Y-13933440D01*
X10761788Y-14047726D01*
X10885598Y-14047726D01*
X10971312Y-14047726D02*
X10971312Y-13914393D01*
X10971312Y-13933440D02*
X10980836Y-13923917D01*
X10999883Y-13914393D01*
X11028455Y-13914393D01*
X11047502Y-13923917D01*
X11057026Y-13942964D01*
X11057026Y-14047726D01*
X11057026Y-13942964D02*
X11066550Y-13923917D01*
X11085598Y-13914393D01*
X11114169Y-13914393D01*
X11133217Y-13923917D01*
X11142740Y-13942964D01*
X11142740Y-14047726D01*
X11237978Y-14047726D02*
X11237978Y-13914393D01*
X11237978Y-13933440D02*
X11247502Y-13923917D01*
X11266550Y-13914393D01*
X11295121Y-13914393D01*
X11314169Y-13923917D01*
X11323693Y-13942964D01*
X11323693Y-14047726D01*
X11323693Y-13942964D02*
X11333217Y-13923917D01*
X11352264Y-13914393D01*
X11380836Y-13914393D01*
X11399883Y-13923917D01*
X11409407Y-13942964D01*
X11409407Y-14047726D01*
X11799883Y-13838202D02*
X11628455Y-14095345D01*
X12057026Y-13847726D02*
X12076074Y-13847726D01*
X12095121Y-13857250D01*
X12104645Y-13866774D01*
X12114169Y-13885821D01*
X12123693Y-13923917D01*
X12123693Y-13971536D01*
X12114169Y-14009631D01*
X12104645Y-14028678D01*
X12095121Y-14038202D01*
X12076074Y-14047726D01*
X12057026Y-14047726D01*
X12037978Y-14038202D01*
X12028455Y-14028678D01*
X12018931Y-14009631D01*
X12009407Y-13971536D01*
X12009407Y-13923917D01*
X12018931Y-13885821D01*
X12028455Y-13866774D01*
X12037978Y-13857250D01*
X12057026Y-13847726D01*
X12209407Y-14028678D02*
X12218931Y-14038202D01*
X12209407Y-14047726D01*
X12199883Y-14038202D01*
X12209407Y-14028678D01*
X12209407Y-14047726D01*
X12342740Y-13847726D02*
X12361788Y-13847726D01*
X12380836Y-13857250D01*
X12390359Y-13866774D01*
X12399883Y-13885821D01*
X12409407Y-13923917D01*
X12409407Y-13971536D01*
X12399883Y-14009631D01*
X12390359Y-14028678D01*
X12380836Y-14038202D01*
X12361788Y-14047726D01*
X12342740Y-14047726D01*
X12323693Y-14038202D01*
X12314169Y-14028678D01*
X12304645Y-14009631D01*
X12295121Y-13971536D01*
X12295121Y-13923917D01*
X12304645Y-13885821D01*
X12314169Y-13866774D01*
X12323693Y-13857250D01*
X12342740Y-13847726D01*
X12523693Y-13933440D02*
X12504645Y-13923917D01*
X12495121Y-13914393D01*
X12485598Y-13895345D01*
X12485598Y-13885821D01*
X12495121Y-13866774D01*
X12504645Y-13857250D01*
X12523693Y-13847726D01*
X12561788Y-13847726D01*
X12580836Y-13857250D01*
X12590359Y-13866774D01*
X12599883Y-13885821D01*
X12599883Y-13895345D01*
X12590359Y-13914393D01*
X12580836Y-13923917D01*
X12561788Y-13933440D01*
X12523693Y-13933440D01*
X12504645Y-13942964D01*
X12495121Y-13952488D01*
X12485598Y-13971536D01*
X12485598Y-14009631D01*
X12495121Y-14028678D01*
X12504645Y-14038202D01*
X12523693Y-14047726D01*
X12561788Y-14047726D01*
X12580836Y-14038202D01*
X12590359Y-14028678D01*
X12599883Y-14009631D01*
X12599883Y-13971536D01*
X12590359Y-13952488D01*
X12580836Y-13942964D01*
X12561788Y-13933440D01*
X12790359Y-14047726D02*
X12676074Y-14047726D01*
X12733217Y-14047726D02*
X12733217Y-13847726D01*
X12714169Y-13876298D01*
X12695121Y-13895345D01*
X12676074Y-13904869D01*
X12866550Y-13866774D02*
X12876074Y-13857250D01*
X12895121Y-13847726D01*
X12942740Y-13847726D01*
X12961788Y-13857250D01*
X12971312Y-13866774D01*
X12980836Y-13885821D01*
X12980836Y-13904869D01*
X12971312Y-13933440D01*
X12857026Y-14047726D01*
X12980836Y-14047726D01*
X13057026Y-13847726D02*
X13057026Y-13885821D01*
X13133217Y-13847726D02*
X13133217Y-13885821D01*
X13428455Y-14123917D02*
X13418931Y-14114393D01*
X13399883Y-14085821D01*
X13390359Y-14066774D01*
X13380836Y-14038202D01*
X13371312Y-13990583D01*
X13371312Y-13952488D01*
X13380836Y-13904869D01*
X13390359Y-13876298D01*
X13399883Y-13857250D01*
X13418931Y-13828678D01*
X13428455Y-13819155D01*
X13485598Y-13847726D02*
X13609407Y-13847726D01*
X13542740Y-13923917D01*
X13571312Y-13923917D01*
X13590359Y-13933440D01*
X13599883Y-13942964D01*
X13609407Y-13962012D01*
X13609407Y-14009631D01*
X13599883Y-14028678D01*
X13590359Y-14038202D01*
X13571312Y-14047726D01*
X13514169Y-14047726D01*
X13495121Y-14038202D01*
X13485598Y-14028678D01*
X13847502Y-14047726D02*
X13847502Y-13847726D01*
X13933217Y-14047726D02*
X13933217Y-13942964D01*
X13923693Y-13923917D01*
X13904645Y-13914393D01*
X13876074Y-13914393D01*
X13857026Y-13923917D01*
X13847502Y-13933440D01*
X14057026Y-14047726D02*
X14037978Y-14038202D01*
X14028455Y-14028678D01*
X14018931Y-14009631D01*
X14018931Y-13952488D01*
X14028455Y-13933440D01*
X14037978Y-13923917D01*
X14057026Y-13914393D01*
X14085598Y-13914393D01*
X14104645Y-13923917D01*
X14114169Y-13933440D01*
X14123693Y-13952488D01*
X14123693Y-14009631D01*
X14114169Y-14028678D01*
X14104645Y-14038202D01*
X14085598Y-14047726D01*
X14057026Y-14047726D01*
X14237978Y-14047726D02*
X14218931Y-14038202D01*
X14209407Y-14019155D01*
X14209407Y-13847726D01*
X14390359Y-14038202D02*
X14371312Y-14047726D01*
X14333217Y-14047726D01*
X14314169Y-14038202D01*
X14304645Y-14019155D01*
X14304645Y-13942964D01*
X14314169Y-13923917D01*
X14333217Y-13914393D01*
X14371312Y-13914393D01*
X14390359Y-13923917D01*
X14399883Y-13942964D01*
X14399883Y-13962012D01*
X14304645Y-13981059D01*
X14476074Y-14038202D02*
X14495121Y-14047726D01*
X14533217Y-14047726D01*
X14552264Y-14038202D01*
X14561788Y-14019155D01*
X14561788Y-14009631D01*
X14552264Y-13990583D01*
X14533217Y-13981059D01*
X14504645Y-13981059D01*
X14485598Y-13971536D01*
X14476074Y-13952488D01*
X14476074Y-13942964D01*
X14485598Y-13923917D01*
X14504645Y-13914393D01*
X14533217Y-13914393D01*
X14552264Y-13923917D01*
X14628455Y-14123917D02*
X14637978Y-14114393D01*
X14657026Y-14085821D01*
X14666550Y-14066774D01*
X14676074Y-14038202D01*
X14685598Y-13990583D01*
X14685598Y-13952488D01*
X14676074Y-13904869D01*
X14666550Y-13876298D01*
X14657026Y-13857250D01*
X14637978Y-13828678D01*
X14628455Y-13819155D01*
X9756550Y-14177250D02*
X9756550Y-14377250D01*
X9656550Y-14277250D02*
X9856550Y-14277250D01*
X9856550Y-14277250D02*
G75*
G03*
X9856550Y-14277250I-100000J0D01*
G01*
X10104645Y-14186774D02*
X10114169Y-14177250D01*
X10133217Y-14167726D01*
X10180836Y-14167726D01*
X10199883Y-14177250D01*
X10209407Y-14186774D01*
X10218931Y-14205821D01*
X10218931Y-14224869D01*
X10209407Y-14253440D01*
X10095121Y-14367726D01*
X10218931Y-14367726D01*
X10304645Y-14348678D02*
X10314169Y-14358202D01*
X10304645Y-14367726D01*
X10295121Y-14358202D01*
X10304645Y-14348678D01*
X10304645Y-14367726D01*
X10380836Y-14167726D02*
X10504645Y-14167726D01*
X10437979Y-14243917D01*
X10466550Y-14243917D01*
X10485598Y-14253440D01*
X10495121Y-14262964D01*
X10504645Y-14282012D01*
X10504645Y-14329631D01*
X10495121Y-14348678D01*
X10485598Y-14358202D01*
X10466550Y-14367726D01*
X10409407Y-14367726D01*
X10390360Y-14358202D01*
X10380836Y-14348678D01*
X10628455Y-14167726D02*
X10647502Y-14167726D01*
X10666550Y-14177250D01*
X10676074Y-14186774D01*
X10685598Y-14205821D01*
X10695121Y-14243917D01*
X10695121Y-14291536D01*
X10685598Y-14329631D01*
X10676074Y-14348678D01*
X10666550Y-14358202D01*
X10647502Y-14367726D01*
X10628455Y-14367726D01*
X10609407Y-14358202D01*
X10599883Y-14348678D01*
X10590360Y-14329631D01*
X10580836Y-14291536D01*
X10580836Y-14243917D01*
X10590360Y-14205821D01*
X10599883Y-14186774D01*
X10609407Y-14177250D01*
X10628455Y-14167726D01*
X10818931Y-14167726D02*
X10837979Y-14167726D01*
X10857026Y-14177250D01*
X10866550Y-14186774D01*
X10876074Y-14205821D01*
X10885598Y-14243917D01*
X10885598Y-14291536D01*
X10876074Y-14329631D01*
X10866550Y-14348678D01*
X10857026Y-14358202D01*
X10837979Y-14367726D01*
X10818931Y-14367726D01*
X10799883Y-14358202D01*
X10790360Y-14348678D01*
X10780836Y-14329631D01*
X10771312Y-14291536D01*
X10771312Y-14243917D01*
X10780836Y-14205821D01*
X10790360Y-14186774D01*
X10799883Y-14177250D01*
X10818931Y-14167726D01*
X10971312Y-14367726D02*
X10971312Y-14234393D01*
X10971312Y-14253440D02*
X10980836Y-14243917D01*
X10999883Y-14234393D01*
X11028455Y-14234393D01*
X11047502Y-14243917D01*
X11057026Y-14262964D01*
X11057026Y-14367726D01*
X11057026Y-14262964D02*
X11066550Y-14243917D01*
X11085598Y-14234393D01*
X11114169Y-14234393D01*
X11133217Y-14243917D01*
X11142740Y-14262964D01*
X11142740Y-14367726D01*
X11237978Y-14367726D02*
X11237978Y-14234393D01*
X11237978Y-14253440D02*
X11247502Y-14243917D01*
X11266550Y-14234393D01*
X11295121Y-14234393D01*
X11314169Y-14243917D01*
X11323693Y-14262964D01*
X11323693Y-14367726D01*
X11323693Y-14262964D02*
X11333217Y-14243917D01*
X11352264Y-14234393D01*
X11380836Y-14234393D01*
X11399883Y-14243917D01*
X11409407Y-14262964D01*
X11409407Y-14367726D01*
X11799883Y-14158202D02*
X11628455Y-14415345D01*
X12057026Y-14167726D02*
X12076074Y-14167726D01*
X12095121Y-14177250D01*
X12104645Y-14186774D01*
X12114169Y-14205821D01*
X12123693Y-14243917D01*
X12123693Y-14291536D01*
X12114169Y-14329631D01*
X12104645Y-14348678D01*
X12095121Y-14358202D01*
X12076074Y-14367726D01*
X12057026Y-14367726D01*
X12037978Y-14358202D01*
X12028455Y-14348678D01*
X12018931Y-14329631D01*
X12009407Y-14291536D01*
X12009407Y-14243917D01*
X12018931Y-14205821D01*
X12028455Y-14186774D01*
X12037978Y-14177250D01*
X12057026Y-14167726D01*
X12209407Y-14348678D02*
X12218931Y-14358202D01*
X12209407Y-14367726D01*
X12199883Y-14358202D01*
X12209407Y-14348678D01*
X12209407Y-14367726D01*
X12342740Y-14167726D02*
X12361788Y-14167726D01*
X12380836Y-14177250D01*
X12390359Y-14186774D01*
X12399883Y-14205821D01*
X12409407Y-14243917D01*
X12409407Y-14291536D01*
X12399883Y-14329631D01*
X12390359Y-14348678D01*
X12380836Y-14358202D01*
X12361788Y-14367726D01*
X12342740Y-14367726D01*
X12323693Y-14358202D01*
X12314169Y-14348678D01*
X12304645Y-14329631D01*
X12295121Y-14291536D01*
X12295121Y-14243917D01*
X12304645Y-14205821D01*
X12314169Y-14186774D01*
X12323693Y-14177250D01*
X12342740Y-14167726D01*
X12504645Y-14367726D02*
X12542740Y-14367726D01*
X12561788Y-14358202D01*
X12571312Y-14348678D01*
X12590359Y-14320107D01*
X12599883Y-14282012D01*
X12599883Y-14205821D01*
X12590359Y-14186774D01*
X12580836Y-14177250D01*
X12561788Y-14167726D01*
X12523693Y-14167726D01*
X12504645Y-14177250D01*
X12495121Y-14186774D01*
X12485598Y-14205821D01*
X12485598Y-14253440D01*
X12495121Y-14272488D01*
X12504645Y-14282012D01*
X12523693Y-14291536D01*
X12561788Y-14291536D01*
X12580836Y-14282012D01*
X12590359Y-14272488D01*
X12599883Y-14253440D01*
X12723693Y-14167726D02*
X12742740Y-14167726D01*
X12761788Y-14177250D01*
X12771312Y-14186774D01*
X12780836Y-14205821D01*
X12790359Y-14243917D01*
X12790359Y-14291536D01*
X12780836Y-14329631D01*
X12771312Y-14348678D01*
X12761788Y-14358202D01*
X12742740Y-14367726D01*
X12723693Y-14367726D01*
X12704645Y-14358202D01*
X12695121Y-14348678D01*
X12685598Y-14329631D01*
X12676074Y-14291536D01*
X12676074Y-14243917D01*
X12685598Y-14205821D01*
X12695121Y-14186774D01*
X12704645Y-14177250D01*
X12723693Y-14167726D01*
X12961788Y-14167726D02*
X12923693Y-14167726D01*
X12904645Y-14177250D01*
X12895121Y-14186774D01*
X12876074Y-14215345D01*
X12866550Y-14253440D01*
X12866550Y-14329631D01*
X12876074Y-14348678D01*
X12885598Y-14358202D01*
X12904645Y-14367726D01*
X12942740Y-14367726D01*
X12961788Y-14358202D01*
X12971312Y-14348678D01*
X12980836Y-14329631D01*
X12980836Y-14282012D01*
X12971312Y-14262964D01*
X12961788Y-14253440D01*
X12942740Y-14243917D01*
X12904645Y-14243917D01*
X12885598Y-14253440D01*
X12876074Y-14262964D01*
X12866550Y-14282012D01*
X13057026Y-14167726D02*
X13057026Y-14205821D01*
X13133217Y-14167726D02*
X13133217Y-14205821D01*
X13428455Y-14443917D02*
X13418931Y-14434393D01*
X13399883Y-14405821D01*
X13390359Y-14386774D01*
X13380836Y-14358202D01*
X13371312Y-14310583D01*
X13371312Y-14272488D01*
X13380836Y-14224869D01*
X13390359Y-14196298D01*
X13399883Y-14177250D01*
X13418931Y-14148678D01*
X13428455Y-14139155D01*
X13495121Y-14186774D02*
X13504645Y-14177250D01*
X13523693Y-14167726D01*
X13571312Y-14167726D01*
X13590359Y-14177250D01*
X13599883Y-14186774D01*
X13609407Y-14205821D01*
X13609407Y-14224869D01*
X13599883Y-14253440D01*
X13485598Y-14367726D01*
X13609407Y-14367726D01*
X13847502Y-14367726D02*
X13847502Y-14167726D01*
X13933217Y-14367726D02*
X13933217Y-14262964D01*
X13923693Y-14243917D01*
X13904645Y-14234393D01*
X13876074Y-14234393D01*
X13857026Y-14243917D01*
X13847502Y-14253440D01*
X14057026Y-14367726D02*
X14037978Y-14358202D01*
X14028455Y-14348678D01*
X14018931Y-14329631D01*
X14018931Y-14272488D01*
X14028455Y-14253440D01*
X14037978Y-14243917D01*
X14057026Y-14234393D01*
X14085598Y-14234393D01*
X14104645Y-14243917D01*
X14114169Y-14253440D01*
X14123693Y-14272488D01*
X14123693Y-14329631D01*
X14114169Y-14348678D01*
X14104645Y-14358202D01*
X14085598Y-14367726D01*
X14057026Y-14367726D01*
X14237978Y-14367726D02*
X14218931Y-14358202D01*
X14209407Y-14339155D01*
X14209407Y-14167726D01*
X14390359Y-14358202D02*
X14371312Y-14367726D01*
X14333217Y-14367726D01*
X14314169Y-14358202D01*
X14304645Y-14339155D01*
X14304645Y-14262964D01*
X14314169Y-14243917D01*
X14333217Y-14234393D01*
X14371312Y-14234393D01*
X14390359Y-14243917D01*
X14399883Y-14262964D01*
X14399883Y-14282012D01*
X14304645Y-14301059D01*
X14476074Y-14358202D02*
X14495121Y-14367726D01*
X14533217Y-14367726D01*
X14552264Y-14358202D01*
X14561788Y-14339155D01*
X14561788Y-14329631D01*
X14552264Y-14310583D01*
X14533217Y-14301059D01*
X14504645Y-14301059D01*
X14485598Y-14291536D01*
X14476074Y-14272488D01*
X14476074Y-14262964D01*
X14485598Y-14243917D01*
X14504645Y-14234393D01*
X14533217Y-14234393D01*
X14552264Y-14243917D01*
X14628455Y-14443917D02*
X14637978Y-14434393D01*
X14657026Y-14405821D01*
X14666550Y-14386774D01*
X14676074Y-14358202D01*
X14685598Y-14310583D01*
X14685598Y-14272488D01*
X14676074Y-14224869D01*
X14666550Y-14196298D01*
X14657026Y-14177250D01*
X14637978Y-14148678D01*
X14628455Y-14139155D01*
D21*
X9833119Y-14653819D02*
X9833119Y-14540681D01*
X9719981Y-14540681D01*
X9719981Y-14653819D01*
X9833119Y-14653819D01*
X9856550Y-14597250D02*
G75*
G03*
X9856550Y-14597250I-80000J0D01*
G01*
D11*
X10218931Y-14687726D02*
X10104645Y-14687726D01*
X10161788Y-14687726D02*
X10161788Y-14487726D01*
X10142740Y-14516298D01*
X10123693Y-14535345D01*
X10104645Y-14544869D01*
X10304645Y-14668678D02*
X10314169Y-14678202D01*
X10304645Y-14687726D01*
X10295121Y-14678202D01*
X10304645Y-14668678D01*
X10304645Y-14687726D01*
X10485598Y-14487726D02*
X10447502Y-14487726D01*
X10428455Y-14497250D01*
X10418931Y-14506774D01*
X10399883Y-14535345D01*
X10390360Y-14573440D01*
X10390360Y-14649631D01*
X10399883Y-14668678D01*
X10409407Y-14678202D01*
X10428455Y-14687726D01*
X10466550Y-14687726D01*
X10485598Y-14678202D01*
X10495121Y-14668678D01*
X10504645Y-14649631D01*
X10504645Y-14602012D01*
X10495121Y-14582964D01*
X10485598Y-14573440D01*
X10466550Y-14563917D01*
X10428455Y-14563917D01*
X10409407Y-14573440D01*
X10399883Y-14582964D01*
X10390360Y-14602012D01*
X10628455Y-14487726D02*
X10647502Y-14487726D01*
X10666550Y-14497250D01*
X10676074Y-14506774D01*
X10685598Y-14525821D01*
X10695121Y-14563917D01*
X10695121Y-14611536D01*
X10685598Y-14649631D01*
X10676074Y-14668678D01*
X10666550Y-14678202D01*
X10647502Y-14687726D01*
X10628455Y-14687726D01*
X10609407Y-14678202D01*
X10599883Y-14668678D01*
X10590360Y-14649631D01*
X10580836Y-14611536D01*
X10580836Y-14563917D01*
X10590360Y-14525821D01*
X10599883Y-14506774D01*
X10609407Y-14497250D01*
X10628455Y-14487726D01*
X10818931Y-14487726D02*
X10837979Y-14487726D01*
X10857026Y-14497250D01*
X10866550Y-14506774D01*
X10876074Y-14525821D01*
X10885598Y-14563917D01*
X10885598Y-14611536D01*
X10876074Y-14649631D01*
X10866550Y-14668678D01*
X10857026Y-14678202D01*
X10837979Y-14687726D01*
X10818931Y-14687726D01*
X10799883Y-14678202D01*
X10790360Y-14668678D01*
X10780836Y-14649631D01*
X10771312Y-14611536D01*
X10771312Y-14563917D01*
X10780836Y-14525821D01*
X10790360Y-14506774D01*
X10799883Y-14497250D01*
X10818931Y-14487726D01*
X10971312Y-14687726D02*
X10971312Y-14554393D01*
X10971312Y-14573440D02*
X10980836Y-14563917D01*
X10999883Y-14554393D01*
X11028455Y-14554393D01*
X11047502Y-14563917D01*
X11057026Y-14582964D01*
X11057026Y-14687726D01*
X11057026Y-14582964D02*
X11066550Y-14563917D01*
X11085598Y-14554393D01*
X11114169Y-14554393D01*
X11133217Y-14563917D01*
X11142740Y-14582964D01*
X11142740Y-14687726D01*
X11237978Y-14687726D02*
X11237978Y-14554393D01*
X11237978Y-14573440D02*
X11247502Y-14563917D01*
X11266550Y-14554393D01*
X11295121Y-14554393D01*
X11314169Y-14563917D01*
X11323693Y-14582964D01*
X11323693Y-14687726D01*
X11323693Y-14582964D02*
X11333217Y-14563917D01*
X11352264Y-14554393D01*
X11380836Y-14554393D01*
X11399883Y-14563917D01*
X11409407Y-14582964D01*
X11409407Y-14687726D01*
X11799883Y-14478202D02*
X11628455Y-14735345D01*
X12057026Y-14487726D02*
X12076074Y-14487726D01*
X12095121Y-14497250D01*
X12104645Y-14506774D01*
X12114169Y-14525821D01*
X12123693Y-14563917D01*
X12123693Y-14611536D01*
X12114169Y-14649631D01*
X12104645Y-14668678D01*
X12095121Y-14678202D01*
X12076074Y-14687726D01*
X12057026Y-14687726D01*
X12037978Y-14678202D01*
X12028455Y-14668678D01*
X12018931Y-14649631D01*
X12009407Y-14611536D01*
X12009407Y-14563917D01*
X12018931Y-14525821D01*
X12028455Y-14506774D01*
X12037978Y-14497250D01*
X12057026Y-14487726D01*
X12209407Y-14668678D02*
X12218931Y-14678202D01*
X12209407Y-14687726D01*
X12199883Y-14678202D01*
X12209407Y-14668678D01*
X12209407Y-14687726D01*
X12342740Y-14487726D02*
X12361788Y-14487726D01*
X12380836Y-14497250D01*
X12390359Y-14506774D01*
X12399883Y-14525821D01*
X12409407Y-14563917D01*
X12409407Y-14611536D01*
X12399883Y-14649631D01*
X12390359Y-14668678D01*
X12380836Y-14678202D01*
X12361788Y-14687726D01*
X12342740Y-14687726D01*
X12323693Y-14678202D01*
X12314169Y-14668678D01*
X12304645Y-14649631D01*
X12295121Y-14611536D01*
X12295121Y-14563917D01*
X12304645Y-14525821D01*
X12314169Y-14506774D01*
X12323693Y-14497250D01*
X12342740Y-14487726D01*
X12580836Y-14487726D02*
X12542740Y-14487726D01*
X12523693Y-14497250D01*
X12514169Y-14506774D01*
X12495121Y-14535345D01*
X12485598Y-14573440D01*
X12485598Y-14649631D01*
X12495121Y-14668678D01*
X12504645Y-14678202D01*
X12523693Y-14687726D01*
X12561788Y-14687726D01*
X12580836Y-14678202D01*
X12590359Y-14668678D01*
X12599883Y-14649631D01*
X12599883Y-14602012D01*
X12590359Y-14582964D01*
X12580836Y-14573440D01*
X12561788Y-14563917D01*
X12523693Y-14563917D01*
X12504645Y-14573440D01*
X12495121Y-14582964D01*
X12485598Y-14602012D01*
X12666550Y-14487726D02*
X12790359Y-14487726D01*
X12723693Y-14563917D01*
X12752264Y-14563917D01*
X12771312Y-14573440D01*
X12780836Y-14582964D01*
X12790359Y-14602012D01*
X12790359Y-14649631D01*
X12780836Y-14668678D01*
X12771312Y-14678202D01*
X12752264Y-14687726D01*
X12695121Y-14687726D01*
X12676074Y-14678202D01*
X12666550Y-14668678D01*
X12914169Y-14487726D02*
X12933217Y-14487726D01*
X12952264Y-14497250D01*
X12961788Y-14506774D01*
X12971312Y-14525821D01*
X12980836Y-14563917D01*
X12980836Y-14611536D01*
X12971312Y-14649631D01*
X12961788Y-14668678D01*
X12952264Y-14678202D01*
X12933217Y-14687726D01*
X12914169Y-14687726D01*
X12895121Y-14678202D01*
X12885598Y-14668678D01*
X12876074Y-14649631D01*
X12866550Y-14611536D01*
X12866550Y-14563917D01*
X12876074Y-14525821D01*
X12885598Y-14506774D01*
X12895121Y-14497250D01*
X12914169Y-14487726D01*
X13057026Y-14487726D02*
X13057026Y-14525821D01*
X13133217Y-14487726D02*
X13133217Y-14525821D01*
X13428455Y-14763917D02*
X13418931Y-14754393D01*
X13399883Y-14725821D01*
X13390359Y-14706774D01*
X13380836Y-14678202D01*
X13371312Y-14630583D01*
X13371312Y-14592488D01*
X13380836Y-14544869D01*
X13390359Y-14516298D01*
X13399883Y-14497250D01*
X13418931Y-14468678D01*
X13428455Y-14459155D01*
X13495121Y-14506774D02*
X13504645Y-14497250D01*
X13523693Y-14487726D01*
X13571312Y-14487726D01*
X13590359Y-14497250D01*
X13599883Y-14506774D01*
X13609407Y-14525821D01*
X13609407Y-14544869D01*
X13599883Y-14573440D01*
X13485598Y-14687726D01*
X13609407Y-14687726D01*
X13847502Y-14687726D02*
X13847502Y-14487726D01*
X13933217Y-14687726D02*
X13933217Y-14582964D01*
X13923693Y-14563917D01*
X13904645Y-14554393D01*
X13876074Y-14554393D01*
X13857026Y-14563917D01*
X13847502Y-14573440D01*
X14057026Y-14687726D02*
X14037978Y-14678202D01*
X14028455Y-14668678D01*
X14018931Y-14649631D01*
X14018931Y-14592488D01*
X14028455Y-14573440D01*
X14037978Y-14563917D01*
X14057026Y-14554393D01*
X14085598Y-14554393D01*
X14104645Y-14563917D01*
X14114169Y-14573440D01*
X14123693Y-14592488D01*
X14123693Y-14649631D01*
X14114169Y-14668678D01*
X14104645Y-14678202D01*
X14085598Y-14687726D01*
X14057026Y-14687726D01*
X14237978Y-14687726D02*
X14218931Y-14678202D01*
X14209407Y-14659155D01*
X14209407Y-14487726D01*
X14390359Y-14678202D02*
X14371312Y-14687726D01*
X14333217Y-14687726D01*
X14314169Y-14678202D01*
X14304645Y-14659155D01*
X14304645Y-14582964D01*
X14314169Y-14563917D01*
X14333217Y-14554393D01*
X14371312Y-14554393D01*
X14390359Y-14563917D01*
X14399883Y-14582964D01*
X14399883Y-14602012D01*
X14304645Y-14621059D01*
X14476074Y-14678202D02*
X14495121Y-14687726D01*
X14533217Y-14687726D01*
X14552264Y-14678202D01*
X14561788Y-14659155D01*
X14561788Y-14649631D01*
X14552264Y-14630583D01*
X14533217Y-14621059D01*
X14504645Y-14621059D01*
X14485598Y-14611536D01*
X14476074Y-14592488D01*
X14476074Y-14582964D01*
X14485598Y-14563917D01*
X14504645Y-14554393D01*
X14533217Y-14554393D01*
X14552264Y-14563917D01*
X14628455Y-14763917D02*
X14637978Y-14754393D01*
X14657026Y-14725821D01*
X14666550Y-14706774D01*
X14676074Y-14678202D01*
X14685598Y-14630583D01*
X14685598Y-14592488D01*
X14676074Y-14544869D01*
X14666550Y-14516298D01*
X14657026Y-14497250D01*
X14637978Y-14468678D01*
X14628455Y-14459155D01*
X14990359Y-14763917D02*
X14980836Y-14754393D01*
X14961788Y-14725821D01*
X14952264Y-14706774D01*
X14942740Y-14678202D01*
X14933217Y-14630583D01*
X14933217Y-14592488D01*
X14942740Y-14544869D01*
X14952264Y-14516298D01*
X14961788Y-14497250D01*
X14980836Y-14468678D01*
X14990359Y-14459155D01*
X15066550Y-14554393D02*
X15066550Y-14687726D01*
X15066550Y-14573440D02*
X15076074Y-14563917D01*
X15095121Y-14554393D01*
X15123693Y-14554393D01*
X15142740Y-14563917D01*
X15152264Y-14582964D01*
X15152264Y-14687726D01*
X15276074Y-14687726D02*
X15257026Y-14678202D01*
X15247502Y-14668678D01*
X15237978Y-14649631D01*
X15237978Y-14592488D01*
X15247502Y-14573440D01*
X15257026Y-14563917D01*
X15276074Y-14554393D01*
X15304645Y-14554393D01*
X15323693Y-14563917D01*
X15333217Y-14573440D01*
X15342740Y-14592488D01*
X15342740Y-14649631D01*
X15333217Y-14668678D01*
X15323693Y-14678202D01*
X15304645Y-14687726D01*
X15276074Y-14687726D01*
X15399883Y-14554393D02*
X15476074Y-14554393D01*
X15428455Y-14487726D02*
X15428455Y-14659155D01*
X15437978Y-14678202D01*
X15457026Y-14687726D01*
X15476074Y-14687726D01*
X15695121Y-14554393D02*
X15695121Y-14754393D01*
X15695121Y-14563917D02*
X15714169Y-14554393D01*
X15752264Y-14554393D01*
X15771312Y-14563917D01*
X15780836Y-14573440D01*
X15790359Y-14592488D01*
X15790359Y-14649631D01*
X15780836Y-14668678D01*
X15771312Y-14678202D01*
X15752264Y-14687726D01*
X15714169Y-14687726D01*
X15695121Y-14678202D01*
X15904645Y-14687726D02*
X15885598Y-14678202D01*
X15876074Y-14659155D01*
X15876074Y-14487726D01*
X16066550Y-14687726D02*
X16066550Y-14582964D01*
X16057026Y-14563917D01*
X16037978Y-14554393D01*
X15999883Y-14554393D01*
X15980836Y-14563917D01*
X16066550Y-14678202D02*
X16047502Y-14687726D01*
X15999883Y-14687726D01*
X15980836Y-14678202D01*
X15971312Y-14659155D01*
X15971312Y-14640107D01*
X15980836Y-14621059D01*
X15999883Y-14611536D01*
X16047502Y-14611536D01*
X16066550Y-14602012D01*
X16133217Y-14554393D02*
X16209407Y-14554393D01*
X16161788Y-14487726D02*
X16161788Y-14659155D01*
X16171312Y-14678202D01*
X16190359Y-14687726D01*
X16209407Y-14687726D01*
X16352264Y-14678202D02*
X16333217Y-14687726D01*
X16295121Y-14687726D01*
X16276074Y-14678202D01*
X16266550Y-14659155D01*
X16266550Y-14582964D01*
X16276074Y-14563917D01*
X16295121Y-14554393D01*
X16333217Y-14554393D01*
X16352264Y-14563917D01*
X16361788Y-14582964D01*
X16361788Y-14602012D01*
X16266550Y-14621059D01*
X16533217Y-14687726D02*
X16533217Y-14487726D01*
X16533217Y-14678202D02*
X16514169Y-14687726D01*
X16476074Y-14687726D01*
X16457026Y-14678202D01*
X16447502Y-14668678D01*
X16437978Y-14649631D01*
X16437978Y-14592488D01*
X16447502Y-14573440D01*
X16457026Y-14563917D01*
X16476074Y-14554393D01*
X16514169Y-14554393D01*
X16533217Y-14563917D01*
X16609407Y-14763917D02*
X16618931Y-14754393D01*
X16637978Y-14725821D01*
X16647502Y-14706774D01*
X16657026Y-14678202D01*
X16666550Y-14630583D01*
X16666550Y-14592488D01*
X16657026Y-14544869D01*
X16647502Y-14516298D01*
X16637978Y-14497250D01*
X16618931Y-14468678D01*
X16609407Y-14459155D01*
X9756550Y-14977250D02*
X9856550Y-14877250D01*
X9756550Y-14777250D01*
X9656550Y-14877250D01*
X9756550Y-14977250D01*
X9856550Y-14877250D02*
G75*
G03*
X9856550Y-14877250I-100000J0D01*
G01*
X10095121Y-14767726D02*
X10218931Y-14767726D01*
X10152264Y-14843917D01*
X10180836Y-14843917D01*
X10199883Y-14853440D01*
X10209407Y-14862964D01*
X10218931Y-14882012D01*
X10218931Y-14929631D01*
X10209407Y-14948678D01*
X10199883Y-14958202D01*
X10180836Y-14967726D01*
X10123693Y-14967726D01*
X10104645Y-14958202D01*
X10095121Y-14948678D01*
X10304645Y-14948678D02*
X10314169Y-14958202D01*
X10304645Y-14967726D01*
X10295121Y-14958202D01*
X10304645Y-14948678D01*
X10304645Y-14967726D01*
X10390360Y-14786774D02*
X10399883Y-14777250D01*
X10418931Y-14767726D01*
X10466550Y-14767726D01*
X10485598Y-14777250D01*
X10495121Y-14786774D01*
X10504645Y-14805821D01*
X10504645Y-14824869D01*
X10495121Y-14853440D01*
X10380836Y-14967726D01*
X10504645Y-14967726D01*
X10628455Y-14767726D02*
X10647502Y-14767726D01*
X10666550Y-14777250D01*
X10676074Y-14786774D01*
X10685598Y-14805821D01*
X10695121Y-14843917D01*
X10695121Y-14891536D01*
X10685598Y-14929631D01*
X10676074Y-14948678D01*
X10666550Y-14958202D01*
X10647502Y-14967726D01*
X10628455Y-14967726D01*
X10609407Y-14958202D01*
X10599883Y-14948678D01*
X10590360Y-14929631D01*
X10580836Y-14891536D01*
X10580836Y-14843917D01*
X10590360Y-14805821D01*
X10599883Y-14786774D01*
X10609407Y-14777250D01*
X10628455Y-14767726D01*
X10818931Y-14767726D02*
X10837979Y-14767726D01*
X10857026Y-14777250D01*
X10866550Y-14786774D01*
X10876074Y-14805821D01*
X10885598Y-14843917D01*
X10885598Y-14891536D01*
X10876074Y-14929631D01*
X10866550Y-14948678D01*
X10857026Y-14958202D01*
X10837979Y-14967726D01*
X10818931Y-14967726D01*
X10799883Y-14958202D01*
X10790360Y-14948678D01*
X10780836Y-14929631D01*
X10771312Y-14891536D01*
X10771312Y-14843917D01*
X10780836Y-14805821D01*
X10790360Y-14786774D01*
X10799883Y-14777250D01*
X10818931Y-14767726D01*
X10971312Y-14967726D02*
X10971312Y-14834393D01*
X10971312Y-14853440D02*
X10980836Y-14843917D01*
X10999883Y-14834393D01*
X11028455Y-14834393D01*
X11047502Y-14843917D01*
X11057026Y-14862964D01*
X11057026Y-14967726D01*
X11057026Y-14862964D02*
X11066550Y-14843917D01*
X11085598Y-14834393D01*
X11114169Y-14834393D01*
X11133217Y-14843917D01*
X11142740Y-14862964D01*
X11142740Y-14967726D01*
X11237978Y-14967726D02*
X11237978Y-14834393D01*
X11237978Y-14853440D02*
X11247502Y-14843917D01*
X11266550Y-14834393D01*
X11295121Y-14834393D01*
X11314169Y-14843917D01*
X11323693Y-14862964D01*
X11323693Y-14967726D01*
X11323693Y-14862964D02*
X11333217Y-14843917D01*
X11352264Y-14834393D01*
X11380836Y-14834393D01*
X11399883Y-14843917D01*
X11409407Y-14862964D01*
X11409407Y-14967726D01*
X11799883Y-14758202D02*
X11628455Y-15015345D01*
X12057026Y-14767726D02*
X12076074Y-14767726D01*
X12095121Y-14777250D01*
X12104645Y-14786774D01*
X12114169Y-14805821D01*
X12123693Y-14843917D01*
X12123693Y-14891536D01*
X12114169Y-14929631D01*
X12104645Y-14948678D01*
X12095121Y-14958202D01*
X12076074Y-14967726D01*
X12057026Y-14967726D01*
X12037978Y-14958202D01*
X12028455Y-14948678D01*
X12018931Y-14929631D01*
X12009407Y-14891536D01*
X12009407Y-14843917D01*
X12018931Y-14805821D01*
X12028455Y-14786774D01*
X12037978Y-14777250D01*
X12057026Y-14767726D01*
X12209407Y-14948678D02*
X12218931Y-14958202D01*
X12209407Y-14967726D01*
X12199883Y-14958202D01*
X12209407Y-14948678D01*
X12209407Y-14967726D01*
X12409407Y-14967726D02*
X12295121Y-14967726D01*
X12352264Y-14967726D02*
X12352264Y-14767726D01*
X12333217Y-14796298D01*
X12314169Y-14815345D01*
X12295121Y-14824869D01*
X12485598Y-14786774D02*
X12495121Y-14777250D01*
X12514169Y-14767726D01*
X12561788Y-14767726D01*
X12580836Y-14777250D01*
X12590359Y-14786774D01*
X12599883Y-14805821D01*
X12599883Y-14824869D01*
X12590359Y-14853440D01*
X12476074Y-14967726D01*
X12599883Y-14967726D01*
X12771312Y-14767726D02*
X12733217Y-14767726D01*
X12714169Y-14777250D01*
X12704645Y-14786774D01*
X12685598Y-14815345D01*
X12676074Y-14853440D01*
X12676074Y-14929631D01*
X12685598Y-14948678D01*
X12695121Y-14958202D01*
X12714169Y-14967726D01*
X12752264Y-14967726D01*
X12771312Y-14958202D01*
X12780836Y-14948678D01*
X12790359Y-14929631D01*
X12790359Y-14882012D01*
X12780836Y-14862964D01*
X12771312Y-14853440D01*
X12752264Y-14843917D01*
X12714169Y-14843917D01*
X12695121Y-14853440D01*
X12685598Y-14862964D01*
X12676074Y-14882012D01*
X12914169Y-14767726D02*
X12933217Y-14767726D01*
X12952264Y-14777250D01*
X12961788Y-14786774D01*
X12971312Y-14805821D01*
X12980836Y-14843917D01*
X12980836Y-14891536D01*
X12971312Y-14929631D01*
X12961788Y-14948678D01*
X12952264Y-14958202D01*
X12933217Y-14967726D01*
X12914169Y-14967726D01*
X12895121Y-14958202D01*
X12885598Y-14948678D01*
X12876074Y-14929631D01*
X12866550Y-14891536D01*
X12866550Y-14843917D01*
X12876074Y-14805821D01*
X12885598Y-14786774D01*
X12895121Y-14777250D01*
X12914169Y-14767726D01*
X13057026Y-14767726D02*
X13057026Y-14805821D01*
X13133217Y-14767726D02*
X13133217Y-14805821D01*
X13428455Y-15043917D02*
X13418931Y-15034393D01*
X13399883Y-15005821D01*
X13390359Y-14986774D01*
X13380836Y-14958202D01*
X13371312Y-14910583D01*
X13371312Y-14872488D01*
X13380836Y-14824869D01*
X13390359Y-14796298D01*
X13399883Y-14777250D01*
X13418931Y-14748678D01*
X13428455Y-14739155D01*
X13590359Y-14834393D02*
X13590359Y-14967726D01*
X13542740Y-14758202D02*
X13495121Y-14901059D01*
X13618931Y-14901059D01*
X13847502Y-14967726D02*
X13847502Y-14767726D01*
X13933217Y-14967726D02*
X13933217Y-14862964D01*
X13923693Y-14843917D01*
X13904645Y-14834393D01*
X13876074Y-14834393D01*
X13857026Y-14843917D01*
X13847502Y-14853440D01*
X14057026Y-14967726D02*
X14037978Y-14958202D01*
X14028455Y-14948678D01*
X14018931Y-14929631D01*
X14018931Y-14872488D01*
X14028455Y-14853440D01*
X14037978Y-14843917D01*
X14057026Y-14834393D01*
X14085598Y-14834393D01*
X14104645Y-14843917D01*
X14114169Y-14853440D01*
X14123693Y-14872488D01*
X14123693Y-14929631D01*
X14114169Y-14948678D01*
X14104645Y-14958202D01*
X14085598Y-14967726D01*
X14057026Y-14967726D01*
X14237978Y-14967726D02*
X14218931Y-14958202D01*
X14209407Y-14939155D01*
X14209407Y-14767726D01*
X14390359Y-14958202D02*
X14371312Y-14967726D01*
X14333217Y-14967726D01*
X14314169Y-14958202D01*
X14304645Y-14939155D01*
X14304645Y-14862964D01*
X14314169Y-14843917D01*
X14333217Y-14834393D01*
X14371312Y-14834393D01*
X14390359Y-14843917D01*
X14399883Y-14862964D01*
X14399883Y-14882012D01*
X14304645Y-14901059D01*
X14476074Y-14958202D02*
X14495121Y-14967726D01*
X14533217Y-14967726D01*
X14552264Y-14958202D01*
X14561788Y-14939155D01*
X14561788Y-14929631D01*
X14552264Y-14910583D01*
X14533217Y-14901059D01*
X14504645Y-14901059D01*
X14485598Y-14891536D01*
X14476074Y-14872488D01*
X14476074Y-14862964D01*
X14485598Y-14843917D01*
X14504645Y-14834393D01*
X14533217Y-14834393D01*
X14552264Y-14843917D01*
X14628455Y-15043917D02*
X14637978Y-15034393D01*
X14657026Y-15005821D01*
X14666550Y-14986774D01*
X14676074Y-14958202D01*
X14685598Y-14910583D01*
X14685598Y-14872488D01*
X14676074Y-14824869D01*
X14666550Y-14796298D01*
X14657026Y-14777250D01*
X14637978Y-14748678D01*
X14628455Y-14739155D01*
X14990359Y-15043917D02*
X14980836Y-15034393D01*
X14961788Y-15005821D01*
X14952264Y-14986774D01*
X14942740Y-14958202D01*
X14933217Y-14910583D01*
X14933217Y-14872488D01*
X14942740Y-14824869D01*
X14952264Y-14796298D01*
X14961788Y-14777250D01*
X14980836Y-14748678D01*
X14990359Y-14739155D01*
X15066550Y-14834393D02*
X15066550Y-14967726D01*
X15066550Y-14853440D02*
X15076074Y-14843917D01*
X15095121Y-14834393D01*
X15123693Y-14834393D01*
X15142740Y-14843917D01*
X15152264Y-14862964D01*
X15152264Y-14967726D01*
X15276074Y-14967726D02*
X15257026Y-14958202D01*
X15247502Y-14948678D01*
X15237978Y-14929631D01*
X15237978Y-14872488D01*
X15247502Y-14853440D01*
X15257026Y-14843917D01*
X15276074Y-14834393D01*
X15304645Y-14834393D01*
X15323693Y-14843917D01*
X15333217Y-14853440D01*
X15342740Y-14872488D01*
X15342740Y-14929631D01*
X15333217Y-14948678D01*
X15323693Y-14958202D01*
X15304645Y-14967726D01*
X15276074Y-14967726D01*
X15399883Y-14834393D02*
X15476074Y-14834393D01*
X15428455Y-14767726D02*
X15428455Y-14939155D01*
X15437978Y-14958202D01*
X15457026Y-14967726D01*
X15476074Y-14967726D01*
X15695121Y-14834393D02*
X15695121Y-15034393D01*
X15695121Y-14843917D02*
X15714169Y-14834393D01*
X15752264Y-14834393D01*
X15771312Y-14843917D01*
X15780836Y-14853440D01*
X15790359Y-14872488D01*
X15790359Y-14929631D01*
X15780836Y-14948678D01*
X15771312Y-14958202D01*
X15752264Y-14967726D01*
X15714169Y-14967726D01*
X15695121Y-14958202D01*
X15904645Y-14967726D02*
X15885598Y-14958202D01*
X15876074Y-14939155D01*
X15876074Y-14767726D01*
X16066550Y-14967726D02*
X16066550Y-14862964D01*
X16057026Y-14843917D01*
X16037978Y-14834393D01*
X15999883Y-14834393D01*
X15980836Y-14843917D01*
X16066550Y-14958202D02*
X16047502Y-14967726D01*
X15999883Y-14967726D01*
X15980836Y-14958202D01*
X15971312Y-14939155D01*
X15971312Y-14920107D01*
X15980836Y-14901059D01*
X15999883Y-14891536D01*
X16047502Y-14891536D01*
X16066550Y-14882012D01*
X16133217Y-14834393D02*
X16209407Y-14834393D01*
X16161788Y-14767726D02*
X16161788Y-14939155D01*
X16171312Y-14958202D01*
X16190359Y-14967726D01*
X16209407Y-14967726D01*
X16352264Y-14958202D02*
X16333217Y-14967726D01*
X16295121Y-14967726D01*
X16276074Y-14958202D01*
X16266550Y-14939155D01*
X16266550Y-14862964D01*
X16276074Y-14843917D01*
X16295121Y-14834393D01*
X16333217Y-14834393D01*
X16352264Y-14843917D01*
X16361788Y-14862964D01*
X16361788Y-14882012D01*
X16266550Y-14901059D01*
X16533217Y-14967726D02*
X16533217Y-14767726D01*
X16533217Y-14958202D02*
X16514169Y-14967726D01*
X16476074Y-14967726D01*
X16457026Y-14958202D01*
X16447502Y-14948678D01*
X16437978Y-14929631D01*
X16437978Y-14872488D01*
X16447502Y-14853440D01*
X16457026Y-14843917D01*
X16476074Y-14834393D01*
X16514169Y-14834393D01*
X16533217Y-14843917D01*
X16609407Y-15043917D02*
X16618931Y-15034393D01*
X16637978Y-15005821D01*
X16647502Y-14986774D01*
X16657026Y-14958202D01*
X16666550Y-14910583D01*
X16666550Y-14872488D01*
X16657026Y-14824869D01*
X16647502Y-14796298D01*
X16637978Y-14777250D01*
X16618931Y-14748678D01*
X16609407Y-14739155D01*
M02*
