%TF.GenerationSoftware,KiCad,Pcbnew,(6.0.7)*%
%TF.CreationDate,2024-07-22T14:21:26-04:00*%
%TF.ProjectId,DCR v2,44435220-7632-42e6-9b69-6361645f7063,rev?*%
%TF.SameCoordinates,Original*%
%TF.FileFunction,Soldermask,Bot*%
%TF.FilePolarity,Negative*%
%FSLAX46Y46*%
G04 Gerber Fmt 4.6, Leading zero omitted, Abs format (unit mm)*
G04 Created by KiCad (PCBNEW (6.0.7)) date 2024-07-22 14:21:26*
%MOMM*%
%LPD*%
G01*
G04 APERTURE LIST*
%ADD10R,1.500000X1.050000*%
%ADD11O,1.500000X1.050000*%
%ADD12R,1.700000X1.700000*%
%ADD13O,1.700000X1.700000*%
%ADD14R,1.600000X1.600000*%
%ADD15C,1.600000*%
%ADD16O,5.000000X2.500000*%
%ADD17O,4.500000X2.250000*%
%ADD18O,2.250000X4.500000*%
%ADD19O,1.600000X1.600000*%
%ADD20C,3.200000*%
%ADD21C,4.600000*%
%ADD22C,1.800000*%
%ADD23R,1.398000X1.398000*%
%ADD24C,1.398000*%
%ADD25C,3.015000*%
%ADD26R,3.092000X3.092000*%
%ADD27C,3.092000*%
%ADD28R,1.500000X3.500000*%
%ADD29R,1.800000X1.800000*%
%ADD30R,2.200000X2.200000*%
%ADD31O,2.200000X2.200000*%
G04 APERTURE END LIST*
D10*
%TO.C,U3*%
X181229000Y-80391000D03*
D11*
X181229000Y-79121000D03*
X181229000Y-77851000D03*
%TD*%
D12*
%TO.C,J10*%
X140716000Y-101600000D03*
D13*
X143256000Y-101600000D03*
%TD*%
D14*
%TO.C,C7*%
X189333500Y-77240349D03*
D15*
X189333500Y-79740349D03*
%TD*%
D14*
%TO.C,C11*%
X161216500Y-87302500D03*
D15*
X163716500Y-87302500D03*
%TD*%
D16*
%TO.C,J4*%
X180443500Y-65693000D03*
D17*
X180443500Y-59693000D03*
D18*
X175743500Y-62693000D03*
%TD*%
D15*
%TO.C,R4*%
X156210000Y-58928000D03*
D19*
X163830000Y-58928000D03*
%TD*%
D15*
%TO.C,R9*%
X149034500Y-60960000D03*
D19*
X149034500Y-53340000D03*
%TD*%
D20*
%TO.C,H4*%
X192786000Y-55308500D03*
%TD*%
%TO.C,H3*%
X192722500Y-107886500D03*
%TD*%
D14*
%TO.C,U4*%
X148780500Y-89598500D03*
D19*
X148780500Y-92138500D03*
X148780500Y-94678500D03*
X148780500Y-97218500D03*
X156400500Y-97218500D03*
X156400500Y-94678500D03*
X156400500Y-92138500D03*
X156400500Y-89598500D03*
%TD*%
D20*
%TO.C,H2*%
X102171500Y-107886500D03*
%TD*%
D12*
%TO.C,J6*%
X136906000Y-84518500D03*
D13*
X136906000Y-81978500D03*
%TD*%
D14*
%TO.C,C15*%
X162232500Y-102034500D03*
D15*
X164732500Y-102034500D03*
%TD*%
D12*
%TO.C,J7*%
X118999000Y-92905500D03*
D13*
X118999000Y-90365500D03*
%TD*%
D20*
%TO.C,H1*%
X102171500Y-55308500D03*
%TD*%
D21*
%TO.C,RV1*%
X121453500Y-102986000D03*
X131453500Y-102986000D03*
D22*
X123953500Y-106286000D03*
X126453500Y-106286000D03*
X128953500Y-106286000D03*
%TD*%
D23*
%TO.C,J1*%
X127114300Y-65089000D03*
D24*
X124574300Y-65089000D03*
D25*
X122034300Y-60009000D03*
X132194300Y-60009000D03*
%TD*%
D15*
%TO.C,J5*%
X176570500Y-102685500D03*
X176570500Y-107385500D03*
D26*
X179070500Y-109285500D03*
D27*
X179070500Y-102385500D03*
X174370500Y-100585500D03*
%TD*%
D15*
%TO.C,R3*%
X153225500Y-60960000D03*
D19*
X153225500Y-53340000D03*
%TD*%
D14*
%TO.C,C3*%
X125564900Y-89715849D03*
D15*
X125564900Y-92215849D03*
%TD*%
D14*
%TO.C,U2*%
X125320900Y-73606500D03*
D19*
X125320900Y-76146500D03*
X125320900Y-78686500D03*
X125320900Y-81226500D03*
X132940900Y-81226500D03*
X132940900Y-78686500D03*
X132940900Y-76146500D03*
X132940900Y-73606500D03*
%TD*%
D28*
%TO.C,J3*%
X162148500Y-53685000D03*
X156748500Y-53685000D03*
%TD*%
D29*
%TO.C,D1*%
X192163700Y-67703700D03*
D22*
X192163700Y-65163700D03*
%TD*%
D30*
%TO.C,D2*%
X188063500Y-70773000D03*
D31*
X177903500Y-70773000D03*
%TD*%
D12*
%TO.C,J9*%
X156141500Y-107886500D03*
D13*
X158681500Y-107886500D03*
%TD*%
D14*
%TO.C,C12*%
X152326500Y-83238500D03*
D15*
X154826500Y-83238500D03*
%TD*%
%TO.C,R5*%
X167005000Y-60960000D03*
D19*
X167005000Y-53340000D03*
%TD*%
D12*
%TO.C,U1*%
X111259900Y-63944500D03*
D13*
X108719900Y-63944500D03*
X106179900Y-63944500D03*
X103639900Y-63944500D03*
X103593900Y-96964500D03*
X106133900Y-96964500D03*
X108673900Y-96964500D03*
D12*
X111213900Y-96964500D03*
%TD*%
%TO.C,J8*%
X111442500Y-56129000D03*
D13*
X111442500Y-58669000D03*
%TD*%
D12*
%TO.C,J2*%
X119121000Y-69723000D03*
D13*
X121661000Y-69723000D03*
%TD*%
M02*
