M48
; DRILL file {KiCad (6.0.7)} date Sat Jul 20 13:04:06 2024
; FORMAT={-:-/ absolute / metric / decimal}
; #@! TF.CreationDate,2024-07-20T13:04:06-04:00
; #@! TF.GenerationSoftware,Kicad,Pcbnew,(6.0.7)
; #@! TF.FileFunction,MixedPlating,1,2
FMAT,2
METRIC
; #@! TA.AperFunction,Plated,PTH,ViaDrill
T1C0.400
; #@! TA.AperFunction,Plated,PTH,ComponentDrill
T2C0.800
; #@! TA.AperFunction,Plated,PTH,ComponentDrill
T3C0.890
; #@! TA.AperFunction,Plated,PTH,ComponentDrill
T4C0.900
; #@! TA.AperFunction,Plated,PTH,ComponentDrill
T5C1.000
; #@! TA.AperFunction,Plated,PTH,ComponentDrill
T6C1.100
; #@! TA.AperFunction,Plated,PTH,ComponentDrill
T7C2.010
; #@! TA.AperFunction,Plated,PTH,ComponentDrill
T8C2.062
; #@! TA.AperFunction,Plated,PTH,ComponentDrill
T9C2.300
; #@! TA.AperFunction,NonPlated,NPTH,ComponentDrill
T10C1.600
; #@! TA.AperFunction,NonPlated,NPTH,ComponentDrill
T11C3.200
%
G90
G05
T1
X138.557Y-73.66
X150.167Y-70.304
T2
X125.321Y-73.606
X125.321Y-76.147
X125.321Y-78.686
X125.321Y-81.227
X125.565Y-89.716
X125.565Y-92.216
X132.941Y-73.606
X132.941Y-76.147
X132.941Y-78.686
X132.941Y-81.227
X148.78Y-89.599
X148.78Y-92.138
X148.78Y-94.678
X148.78Y-97.218
X149.034Y-53.34
X149.034Y-60.96
X152.326Y-83.239
X153.225Y-53.34
X153.225Y-60.96
X154.826Y-83.239
X156.21Y-58.928
X156.4Y-89.599
X156.4Y-92.138
X156.4Y-94.678
X156.4Y-97.218
X161.216Y-87.302
X162.232Y-102.034
X163.716Y-87.302
X163.83Y-58.928
X164.732Y-102.034
X167.005Y-53.34
X167.005Y-60.96
X179.681Y-77.377
X179.681Y-79.917
X179.681Y-82.457
X189.333Y-77.24
X189.333Y-79.74
T3
X124.574Y-65.089
X127.114Y-65.089
T4
X192.164Y-65.164
X192.164Y-67.704
T5
X103.594Y-96.965
X103.64Y-63.944
X106.134Y-96.965
X106.18Y-63.944
X108.674Y-96.965
X108.72Y-63.944
X111.214Y-96.965
X111.26Y-63.944
X111.442Y-56.129
X111.442Y-58.669
X118.999Y-90.365
X118.999Y-92.905
X119.121Y-69.723
X121.661Y-69.723
X123.953Y-106.286
X126.453Y-106.286
X128.953Y-106.286
X136.906Y-81.978
X136.906Y-84.519
X140.716Y-101.6
X143.256Y-101.6
X156.141Y-107.886
X158.681Y-107.886
T6
X177.903Y-70.773
X188.064Y-70.773
T7
X122.034Y-60.009
X132.194Y-60.009
T8
X174.37Y-100.585
X179.07Y-102.385
X179.07Y-109.285
T9
X121.453Y-102.986
X131.453Y-102.986
T10
X176.57Y-102.685
X176.57Y-107.385
T11
X102.171Y-55.308
X102.171Y-107.886
X192.722Y-107.886
X192.786Y-55.308
T5
X175.743Y-63.693G85X175.743Y-61.693
G05
X179.444Y-59.693G85X181.444Y-59.693
G05
X179.194Y-65.693G85X181.694Y-65.693
G05
T0
M30
