%TF.GenerationSoftware,KiCad,Pcbnew,(6.0.7)*%
%TF.CreationDate,2024-07-20T13:04:07-04:00*%
%TF.ProjectId,DCV v2,44435620-7632-42e6-9b69-6361645f7063,rev?*%
%TF.SameCoordinates,Original*%
%TF.FileFunction,Soldermask,Top*%
%TF.FilePolarity,Negative*%
%FSLAX46Y46*%
G04 Gerber Fmt 4.6, Leading zero omitted, Abs format (unit mm)*
G04 Created by KiCad (PCBNEW (6.0.7)) date 2024-07-20 13:04:07*
%MOMM*%
%LPD*%
G01*
G04 APERTURE LIST*
G04 Aperture macros list*
%AMRoundRect*
0 Rectangle with rounded corners*
0 $1 Rounding radius*
0 $2 $3 $4 $5 $6 $7 $8 $9 X,Y pos of 4 corners*
0 Add a 4 corners polygon primitive as box body*
4,1,4,$2,$3,$4,$5,$6,$7,$8,$9,$2,$3,0*
0 Add four circle primitives for the rounded corners*
1,1,$1+$1,$2,$3*
1,1,$1+$1,$4,$5*
1,1,$1+$1,$6,$7*
1,1,$1+$1,$8,$9*
0 Add four rect primitives between the rounded corners*
20,1,$1+$1,$2,$3,$4,$5,0*
20,1,$1+$1,$4,$5,$6,$7,0*
20,1,$1+$1,$6,$7,$8,$9,0*
20,1,$1+$1,$8,$9,$2,$3,0*%
G04 Aperture macros list end*
%ADD10R,1.700000X1.700000*%
%ADD11O,1.700000X1.700000*%
%ADD12R,1.600000X1.600000*%
%ADD13C,1.600000*%
%ADD14RoundRect,0.250000X-0.325000X-0.650000X0.325000X-0.650000X0.325000X0.650000X-0.325000X0.650000X0*%
%ADD15O,5.000000X2.500000*%
%ADD16O,4.500000X2.250000*%
%ADD17O,2.250000X4.500000*%
%ADD18RoundRect,0.250000X-0.625000X0.312500X-0.625000X-0.312500X0.625000X-0.312500X0.625000X0.312500X0*%
%ADD19O,1.600000X1.600000*%
%ADD20RoundRect,0.250000X-0.650000X0.325000X-0.650000X-0.325000X0.650000X-0.325000X0.650000X0.325000X0*%
%ADD21C,3.200000*%
%ADD22R,1.500000X1.500000*%
%ADD23C,1.500000*%
%ADD24RoundRect,0.250000X0.625000X-0.312500X0.625000X0.312500X-0.625000X0.312500X-0.625000X-0.312500X0*%
%ADD25RoundRect,0.250000X0.325000X0.650000X-0.325000X0.650000X-0.325000X-0.650000X0.325000X-0.650000X0*%
%ADD26C,4.600000*%
%ADD27C,1.800000*%
%ADD28R,1.398000X1.398000*%
%ADD29C,1.398000*%
%ADD30C,3.015000*%
%ADD31R,3.092000X3.092000*%
%ADD32C,3.092000*%
%ADD33RoundRect,0.250000X0.650000X-0.325000X0.650000X0.325000X-0.650000X0.325000X-0.650000X-0.325000X0*%
%ADD34RoundRect,0.250000X-0.312500X-0.625000X0.312500X-0.625000X0.312500X0.625000X-0.312500X0.625000X0*%
%ADD35R,1.500000X3.500000*%
%ADD36R,1.800000X1.800000*%
%ADD37R,2.200000X2.200000*%
%ADD38O,2.200000X2.200000*%
%ADD39RoundRect,0.250000X0.312500X0.625000X-0.312500X0.625000X-0.312500X-0.625000X0.312500X-0.625000X0*%
G04 APERTURE END LIST*
D10*
%TO.C,J10*%
X140716000Y-101600000D03*
D11*
X143256000Y-101600000D03*
%TD*%
D12*
%TO.C,C7*%
X189333500Y-77240349D03*
D13*
X189333500Y-79740349D03*
%TD*%
D12*
%TO.C,C11*%
X161216500Y-87302500D03*
D13*
X163716500Y-87302500D03*
%TD*%
D14*
%TO.C,C8*%
X119060700Y-72936100D03*
X122010700Y-72936100D03*
%TD*%
D15*
%TO.C,J4*%
X180443500Y-65693000D03*
D16*
X180443500Y-59693000D03*
D17*
X175743500Y-62693000D03*
%TD*%
D18*
%TO.C,R7*%
X145859151Y-89142000D03*
X145859151Y-92067000D03*
%TD*%
D13*
%TO.C,R4*%
X156210000Y-58928000D03*
D19*
X163830000Y-58928000D03*
%TD*%
D13*
%TO.C,R9*%
X149034500Y-60960000D03*
D19*
X149034500Y-53340000D03*
%TD*%
D20*
%TO.C,C2*%
X122018900Y-75941500D03*
X122018900Y-78891500D03*
%TD*%
D21*
%TO.C,H4*%
X192786000Y-55308500D03*
%TD*%
%TO.C,H3*%
X192722500Y-107886500D03*
%TD*%
D12*
%TO.C,U4*%
X148780500Y-89598500D03*
D19*
X148780500Y-92138500D03*
X148780500Y-94678500D03*
X148780500Y-97218500D03*
X156400500Y-97218500D03*
X156400500Y-94678500D03*
X156400500Y-92138500D03*
X156400500Y-89598500D03*
%TD*%
D21*
%TO.C,H2*%
X102171500Y-107886500D03*
%TD*%
D22*
%TO.C,U3*%
X179681500Y-77377000D03*
D23*
X179681500Y-79917000D03*
X179681500Y-82457000D03*
%TD*%
D10*
%TO.C,J6*%
X136906000Y-84518500D03*
D11*
X136906000Y-81978500D03*
%TD*%
D24*
%TO.C,R8*%
X156390500Y-103243000D03*
X156390500Y-100318000D03*
%TD*%
D12*
%TO.C,C15*%
X162232500Y-102034500D03*
D13*
X164732500Y-102034500D03*
%TD*%
D10*
%TO.C,J7*%
X118999000Y-92905500D03*
D11*
X118999000Y-90365500D03*
%TD*%
D20*
%TO.C,C6*%
X136652000Y-75487000D03*
X136652000Y-78437000D03*
%TD*%
D25*
%TO.C,C4*%
X146113151Y-97462500D03*
X143163151Y-97462500D03*
%TD*%
D21*
%TO.C,H1*%
X102171500Y-55308500D03*
%TD*%
D25*
%TO.C,C5*%
X133158400Y-70304500D03*
X130208400Y-70304500D03*
%TD*%
D26*
%TO.C,RV1*%
X121453500Y-102986000D03*
X131453500Y-102986000D03*
D27*
X123953500Y-106286000D03*
X126453500Y-106286000D03*
X128953500Y-106286000D03*
%TD*%
D28*
%TO.C,J1*%
X127114300Y-65089000D03*
D29*
X124574300Y-65089000D03*
D30*
X122034300Y-60009000D03*
X132194300Y-60009000D03*
%TD*%
D13*
%TO.C,J5*%
X176570500Y-102685500D03*
X176570500Y-107385500D03*
D31*
X179070500Y-109285500D03*
D32*
X179070500Y-102385500D03*
X174370500Y-100585500D03*
%TD*%
D13*
%TO.C,R3*%
X153225500Y-60960000D03*
D19*
X153225500Y-53340000D03*
%TD*%
D33*
%TO.C,C10*%
X176196500Y-83883000D03*
X176196500Y-80933000D03*
%TD*%
D34*
%TO.C,R1*%
X143126651Y-94922500D03*
X146051651Y-94922500D03*
%TD*%
D12*
%TO.C,C3*%
X125564900Y-89715849D03*
D13*
X125564900Y-92215849D03*
%TD*%
D12*
%TO.C,U2*%
X125320900Y-73606500D03*
D19*
X125320900Y-76146500D03*
X125320900Y-78686500D03*
X125320900Y-81226500D03*
X132940900Y-81226500D03*
X132940900Y-78686500D03*
X132940900Y-76146500D03*
X132940900Y-73606500D03*
%TD*%
D35*
%TO.C,J3*%
X159448500Y-53685000D03*
X162148500Y-53685000D03*
X156748500Y-53685000D03*
%TD*%
D25*
%TO.C,C14*%
X154192151Y-103050500D03*
X151242151Y-103050500D03*
%TD*%
D36*
%TO.C,D1*%
X192163700Y-67703700D03*
D27*
X192163700Y-65163700D03*
%TD*%
D37*
%TO.C,D2*%
X188063500Y-70773000D03*
D38*
X177903500Y-70773000D03*
%TD*%
D14*
%TO.C,C13*%
X159194500Y-95186500D03*
X162144500Y-95186500D03*
%TD*%
D10*
%TO.C,J9*%
X156141500Y-107886500D03*
D11*
X158681500Y-107886500D03*
%TD*%
D25*
%TO.C,C1*%
X125261900Y-84264500D03*
X122311900Y-84264500D03*
%TD*%
D12*
%TO.C,C12*%
X152326500Y-83238500D03*
D13*
X154826500Y-83238500D03*
%TD*%
%TO.C,R5*%
X167005000Y-60960000D03*
D19*
X167005000Y-53340000D03*
%TD*%
D24*
%TO.C,R6*%
X188063500Y-67917500D03*
X188063500Y-64992500D03*
%TD*%
D10*
%TO.C,U1*%
X111259900Y-63944500D03*
D11*
X108719900Y-63944500D03*
X106179900Y-63944500D03*
X103639900Y-63944500D03*
X103593900Y-96964500D03*
X106133900Y-96964500D03*
X108673900Y-96964500D03*
D10*
X111213900Y-96964500D03*
%TD*%
%TO.C,J8*%
X111442500Y-56129000D03*
D11*
X111442500Y-58669000D03*
%TD*%
D10*
%TO.C,J2*%
X119121000Y-69723000D03*
D11*
X121661000Y-69723000D03*
%TD*%
D39*
%TO.C,R2*%
X137959400Y-70304500D03*
X135034400Y-70304500D03*
%TD*%
M02*
