%TF.GenerationSoftware,KiCad,Pcbnew,(6.0.7)*%
%TF.CreationDate,2022-11-13T20:04:36-05:00*%
%TF.ProjectId,DCR_MainBoard,4443525f-4d61-4696-9e42-6f6172642e6b,rev?*%
%TF.SameCoordinates,Original*%
%TF.FileFunction,Legend,Top*%
%TF.FilePolarity,Positive*%
%FSLAX46Y46*%
G04 Gerber Fmt 4.6, Leading zero omitted, Abs format (unit mm)*
G04 Created by KiCad (PCBNEW (6.0.7)) date 2022-11-13 20:04:36*
%MOMM*%
%LPD*%
G01*
G04 APERTURE LIST*
%ADD10C,0.100000*%
%ADD11C,0.200000*%
%ADD12C,0.150000*%
%ADD13C,0.120000*%
%ADD14C,0.127000*%
%ADD15C,0.400000*%
G04 APERTURE END LIST*
D10*
X67461238Y-81529180D02*
X67461238Y-80529180D01*
X68032666Y-81529180D01*
X68032666Y-80529180D01*
X68651714Y-81529180D02*
X68556476Y-81481561D01*
X68508857Y-81433942D01*
X68461238Y-81338704D01*
X68461238Y-81052990D01*
X68508857Y-80957752D01*
X68556476Y-80910133D01*
X68651714Y-80862514D01*
X68794571Y-80862514D01*
X68889809Y-80910133D01*
X68937428Y-80957752D01*
X68985047Y-81052990D01*
X68985047Y-81338704D01*
X68937428Y-81433942D01*
X68889809Y-81481561D01*
X68794571Y-81529180D01*
X68651714Y-81529180D01*
X69318380Y-80862514D02*
X69556476Y-81529180D01*
X69794571Y-80862514D01*
X70889809Y-80624419D02*
X70937428Y-80576800D01*
X71032666Y-80529180D01*
X71270761Y-80529180D01*
X71366000Y-80576800D01*
X71413619Y-80624419D01*
X71461238Y-80719657D01*
X71461238Y-80814895D01*
X71413619Y-80957752D01*
X70842190Y-81529180D01*
X71461238Y-81529180D01*
X72080285Y-80529180D02*
X72175523Y-80529180D01*
X72270761Y-80576800D01*
X72318380Y-80624419D01*
X72366000Y-80719657D01*
X72413619Y-80910133D01*
X72413619Y-81148228D01*
X72366000Y-81338704D01*
X72318380Y-81433942D01*
X72270761Y-81481561D01*
X72175523Y-81529180D01*
X72080285Y-81529180D01*
X71985047Y-81481561D01*
X71937428Y-81433942D01*
X71889809Y-81338704D01*
X71842190Y-81148228D01*
X71842190Y-80910133D01*
X71889809Y-80719657D01*
X71937428Y-80624419D01*
X71985047Y-80576800D01*
X72080285Y-80529180D01*
X72794571Y-80624419D02*
X72842190Y-80576800D01*
X72937428Y-80529180D01*
X73175523Y-80529180D01*
X73270761Y-80576800D01*
X73318380Y-80624419D01*
X73366000Y-80719657D01*
X73366000Y-80814895D01*
X73318380Y-80957752D01*
X72746952Y-81529180D01*
X73366000Y-81529180D01*
X73746952Y-80624419D02*
X73794571Y-80576800D01*
X73889809Y-80529180D01*
X74127904Y-80529180D01*
X74223142Y-80576800D01*
X74270761Y-80624419D01*
X74318380Y-80719657D01*
X74318380Y-80814895D01*
X74270761Y-80957752D01*
X73699333Y-81529180D01*
X74318380Y-81529180D01*
D11*
X80545552Y-35172695D02*
X80545552Y-33872695D01*
X81040790Y-33872695D01*
X81164600Y-33934600D01*
X81226504Y-33996504D01*
X81288409Y-34120314D01*
X81288409Y-34306028D01*
X81226504Y-34429838D01*
X81164600Y-34491742D01*
X81040790Y-34553647D01*
X80545552Y-34553647D01*
X81783647Y-34801266D02*
X82402695Y-34801266D01*
X81659838Y-35172695D02*
X82093171Y-33872695D01*
X82526504Y-35172695D01*
X83702695Y-35172695D02*
X83269361Y-34553647D01*
X82959838Y-35172695D02*
X82959838Y-33872695D01*
X83455076Y-33872695D01*
X83578885Y-33934600D01*
X83640790Y-33996504D01*
X83702695Y-34120314D01*
X83702695Y-34306028D01*
X83640790Y-34429838D01*
X83578885Y-34491742D01*
X83455076Y-34553647D01*
X82959838Y-34553647D01*
X85002695Y-35048885D02*
X84940790Y-35110790D01*
X84755076Y-35172695D01*
X84631266Y-35172695D01*
X84445552Y-35110790D01*
X84321742Y-34986980D01*
X84259838Y-34863171D01*
X84197933Y-34615552D01*
X84197933Y-34429838D01*
X84259838Y-34182219D01*
X84321742Y-34058409D01*
X84445552Y-33934600D01*
X84631266Y-33872695D01*
X84755076Y-33872695D01*
X84940790Y-33934600D01*
X85002695Y-33996504D01*
X86550314Y-35172695D02*
X86550314Y-33872695D01*
X86550314Y-34491742D02*
X87293171Y-34491742D01*
X87293171Y-35172695D02*
X87293171Y-33872695D01*
X88345552Y-34491742D02*
X88531266Y-34553647D01*
X88593171Y-34615552D01*
X88655076Y-34739361D01*
X88655076Y-34925076D01*
X88593171Y-35048885D01*
X88531266Y-35110790D01*
X88407457Y-35172695D01*
X87912219Y-35172695D01*
X87912219Y-33872695D01*
X88345552Y-33872695D01*
X88469361Y-33934600D01*
X88531266Y-33996504D01*
X88593171Y-34120314D01*
X88593171Y-34244123D01*
X88531266Y-34367933D01*
X88469361Y-34429838D01*
X88345552Y-34491742D01*
X87912219Y-34491742D01*
X76243171Y-37265695D02*
X76243171Y-35965695D01*
X76552695Y-35965695D01*
X76738409Y-36027600D01*
X76862219Y-36151409D01*
X76924123Y-36275219D01*
X76986028Y-36522838D01*
X76986028Y-36708552D01*
X76924123Y-36956171D01*
X76862219Y-37079980D01*
X76738409Y-37203790D01*
X76552695Y-37265695D01*
X76243171Y-37265695D01*
X77543171Y-37265695D02*
X77543171Y-36399028D01*
X77543171Y-35965695D02*
X77481266Y-36027600D01*
X77543171Y-36089504D01*
X77605076Y-36027600D01*
X77543171Y-35965695D01*
X77543171Y-36089504D01*
X78162219Y-37265695D02*
X78162219Y-36399028D01*
X78162219Y-36646647D02*
X78224123Y-36522838D01*
X78286028Y-36460933D01*
X78409838Y-36399028D01*
X78533647Y-36399028D01*
X79462219Y-37203790D02*
X79338409Y-37265695D01*
X79090790Y-37265695D01*
X78966980Y-37203790D01*
X78905076Y-37079980D01*
X78905076Y-36584742D01*
X78966980Y-36460933D01*
X79090790Y-36399028D01*
X79338409Y-36399028D01*
X79462219Y-36460933D01*
X79524123Y-36584742D01*
X79524123Y-36708552D01*
X78905076Y-36832361D01*
X80638409Y-37203790D02*
X80514600Y-37265695D01*
X80266980Y-37265695D01*
X80143171Y-37203790D01*
X80081266Y-37141885D01*
X80019361Y-37018076D01*
X80019361Y-36646647D01*
X80081266Y-36522838D01*
X80143171Y-36460933D01*
X80266980Y-36399028D01*
X80514600Y-36399028D01*
X80638409Y-36460933D01*
X81009838Y-36399028D02*
X81505076Y-36399028D01*
X81195552Y-35965695D02*
X81195552Y-37079980D01*
X81257457Y-37203790D01*
X81381266Y-37265695D01*
X81505076Y-37265695D01*
X83671742Y-37141885D02*
X83609838Y-37203790D01*
X83424123Y-37265695D01*
X83300314Y-37265695D01*
X83114600Y-37203790D01*
X82990790Y-37079980D01*
X82928885Y-36956171D01*
X82866980Y-36708552D01*
X82866980Y-36522838D01*
X82928885Y-36275219D01*
X82990790Y-36151409D01*
X83114600Y-36027600D01*
X83300314Y-35965695D01*
X83424123Y-35965695D01*
X83609838Y-36027600D01*
X83671742Y-36089504D01*
X84414600Y-37265695D02*
X84290790Y-37203790D01*
X84228885Y-37141885D01*
X84166980Y-37018076D01*
X84166980Y-36646647D01*
X84228885Y-36522838D01*
X84290790Y-36460933D01*
X84414600Y-36399028D01*
X84600314Y-36399028D01*
X84724123Y-36460933D01*
X84786028Y-36522838D01*
X84847933Y-36646647D01*
X84847933Y-37018076D01*
X84786028Y-37141885D01*
X84724123Y-37203790D01*
X84600314Y-37265695D01*
X84414600Y-37265695D01*
X85405076Y-36399028D02*
X85405076Y-37265695D01*
X85405076Y-36522838D02*
X85466980Y-36460933D01*
X85590790Y-36399028D01*
X85776504Y-36399028D01*
X85900314Y-36460933D01*
X85962219Y-36584742D01*
X85962219Y-37265695D01*
X86457457Y-36399028D02*
X86766980Y-37265695D01*
X87076504Y-36399028D01*
X88066980Y-37203790D02*
X87943171Y-37265695D01*
X87695552Y-37265695D01*
X87571742Y-37203790D01*
X87509838Y-37079980D01*
X87509838Y-36584742D01*
X87571742Y-36460933D01*
X87695552Y-36399028D01*
X87943171Y-36399028D01*
X88066980Y-36460933D01*
X88128885Y-36584742D01*
X88128885Y-36708552D01*
X87509838Y-36832361D01*
X88686028Y-37265695D02*
X88686028Y-36399028D01*
X88686028Y-36646647D02*
X88747933Y-36522838D01*
X88809838Y-36460933D01*
X88933647Y-36399028D01*
X89057457Y-36399028D01*
X89428885Y-37203790D02*
X89552695Y-37265695D01*
X89800314Y-37265695D01*
X89924123Y-37203790D01*
X89986028Y-37079980D01*
X89986028Y-37018076D01*
X89924123Y-36894266D01*
X89800314Y-36832361D01*
X89614600Y-36832361D01*
X89490790Y-36770457D01*
X89428885Y-36646647D01*
X89428885Y-36584742D01*
X89490790Y-36460933D01*
X89614600Y-36399028D01*
X89800314Y-36399028D01*
X89924123Y-36460933D01*
X90543171Y-37265695D02*
X90543171Y-36399028D01*
X90543171Y-35965695D02*
X90481266Y-36027600D01*
X90543171Y-36089504D01*
X90605076Y-36027600D01*
X90543171Y-35965695D01*
X90543171Y-36089504D01*
X91347933Y-37265695D02*
X91224123Y-37203790D01*
X91162219Y-37141885D01*
X91100314Y-37018076D01*
X91100314Y-36646647D01*
X91162219Y-36522838D01*
X91224123Y-36460933D01*
X91347933Y-36399028D01*
X91533647Y-36399028D01*
X91657457Y-36460933D01*
X91719361Y-36522838D01*
X91781266Y-36646647D01*
X91781266Y-37018076D01*
X91719361Y-37141885D01*
X91657457Y-37203790D01*
X91533647Y-37265695D01*
X91347933Y-37265695D01*
X92338409Y-36399028D02*
X92338409Y-37265695D01*
X92338409Y-36522838D02*
X92400314Y-36460933D01*
X92524123Y-36399028D01*
X92709838Y-36399028D01*
X92833647Y-36460933D01*
X92895552Y-36584742D01*
X92895552Y-37265695D01*
X79493171Y-39358695D02*
X79059838Y-38739647D01*
X78750314Y-39358695D02*
X78750314Y-38058695D01*
X79245552Y-38058695D01*
X79369361Y-38120600D01*
X79431266Y-38182504D01*
X79493171Y-38306314D01*
X79493171Y-38492028D01*
X79431266Y-38615838D01*
X79369361Y-38677742D01*
X79245552Y-38739647D01*
X78750314Y-38739647D01*
X80545552Y-39296790D02*
X80421742Y-39358695D01*
X80174123Y-39358695D01*
X80050314Y-39296790D01*
X79988409Y-39172980D01*
X79988409Y-38677742D01*
X80050314Y-38553933D01*
X80174123Y-38492028D01*
X80421742Y-38492028D01*
X80545552Y-38553933D01*
X80607457Y-38677742D01*
X80607457Y-38801552D01*
X79988409Y-38925361D01*
X81721742Y-39296790D02*
X81597933Y-39358695D01*
X81350314Y-39358695D01*
X81226504Y-39296790D01*
X81164600Y-39234885D01*
X81102695Y-39111076D01*
X81102695Y-38739647D01*
X81164600Y-38615838D01*
X81226504Y-38553933D01*
X81350314Y-38492028D01*
X81597933Y-38492028D01*
X81721742Y-38553933D01*
X82774123Y-39296790D02*
X82650314Y-39358695D01*
X82402695Y-39358695D01*
X82278885Y-39296790D01*
X82216980Y-39172980D01*
X82216980Y-38677742D01*
X82278885Y-38553933D01*
X82402695Y-38492028D01*
X82650314Y-38492028D01*
X82774123Y-38553933D01*
X82836028Y-38677742D01*
X82836028Y-38801552D01*
X82216980Y-38925361D01*
X83393171Y-39358695D02*
X83393171Y-38492028D01*
X83393171Y-38058695D02*
X83331266Y-38120600D01*
X83393171Y-38182504D01*
X83455076Y-38120600D01*
X83393171Y-38058695D01*
X83393171Y-38182504D01*
X83888409Y-38492028D02*
X84197933Y-39358695D01*
X84507457Y-38492028D01*
X85497933Y-39296790D02*
X85374123Y-39358695D01*
X85126504Y-39358695D01*
X85002695Y-39296790D01*
X84940790Y-39172980D01*
X84940790Y-38677742D01*
X85002695Y-38553933D01*
X85126504Y-38492028D01*
X85374123Y-38492028D01*
X85497933Y-38553933D01*
X85559838Y-38677742D01*
X85559838Y-38801552D01*
X84940790Y-38925361D01*
X86116980Y-39358695D02*
X86116980Y-38492028D01*
X86116980Y-38739647D02*
X86178885Y-38615838D01*
X86240790Y-38553933D01*
X86364600Y-38492028D01*
X86488409Y-38492028D01*
X87788409Y-38492028D02*
X88097933Y-39358695D01*
X88407457Y-38492028D01*
X89150314Y-38058695D02*
X89274123Y-38058695D01*
X89397933Y-38120600D01*
X89459838Y-38182504D01*
X89521742Y-38306314D01*
X89583647Y-38553933D01*
X89583647Y-38863457D01*
X89521742Y-39111076D01*
X89459838Y-39234885D01*
X89397933Y-39296790D01*
X89274123Y-39358695D01*
X89150314Y-39358695D01*
X89026504Y-39296790D01*
X88964600Y-39234885D01*
X88902695Y-39111076D01*
X88840790Y-38863457D01*
X88840790Y-38553933D01*
X88902695Y-38306314D01*
X88964600Y-38182504D01*
X89026504Y-38120600D01*
X89150314Y-38058695D01*
X90140790Y-39234885D02*
X90202695Y-39296790D01*
X90140790Y-39358695D01*
X90078885Y-39296790D01*
X90140790Y-39234885D01*
X90140790Y-39358695D01*
X91440790Y-39358695D02*
X90697933Y-39358695D01*
X91069361Y-39358695D02*
X91069361Y-38058695D01*
X90945552Y-38244409D01*
X90821742Y-38368219D01*
X90697933Y-38430123D01*
D12*
%TO.C,TG6*%
X78417895Y-79919580D02*
X78989323Y-79919580D01*
X78703609Y-80919580D02*
X78703609Y-79919580D01*
X79846466Y-79967200D02*
X79751228Y-79919580D01*
X79608371Y-79919580D01*
X79465514Y-79967200D01*
X79370276Y-80062438D01*
X79322657Y-80157676D01*
X79275038Y-80348152D01*
X79275038Y-80491009D01*
X79322657Y-80681485D01*
X79370276Y-80776723D01*
X79465514Y-80871961D01*
X79608371Y-80919580D01*
X79703609Y-80919580D01*
X79846466Y-80871961D01*
X79894085Y-80824342D01*
X79894085Y-80491009D01*
X79703609Y-80491009D01*
X80751228Y-79919580D02*
X80560752Y-79919580D01*
X80465514Y-79967200D01*
X80417895Y-80014819D01*
X80322657Y-80157676D01*
X80275038Y-80348152D01*
X80275038Y-80729104D01*
X80322657Y-80824342D01*
X80370276Y-80871961D01*
X80465514Y-80919580D01*
X80655990Y-80919580D01*
X80751228Y-80871961D01*
X80798847Y-80824342D01*
X80846466Y-80729104D01*
X80846466Y-80491009D01*
X80798847Y-80395771D01*
X80751228Y-80348152D01*
X80655990Y-80300533D01*
X80465514Y-80300533D01*
X80370276Y-80348152D01*
X80322657Y-80395771D01*
X80275038Y-80491009D01*
%TO.C,TG5*%
X59317095Y-54087780D02*
X59888523Y-54087780D01*
X59602809Y-55087780D02*
X59602809Y-54087780D01*
X60745666Y-54135400D02*
X60650428Y-54087780D01*
X60507571Y-54087780D01*
X60364714Y-54135400D01*
X60269476Y-54230638D01*
X60221857Y-54325876D01*
X60174238Y-54516352D01*
X60174238Y-54659209D01*
X60221857Y-54849685D01*
X60269476Y-54944923D01*
X60364714Y-55040161D01*
X60507571Y-55087780D01*
X60602809Y-55087780D01*
X60745666Y-55040161D01*
X60793285Y-54992542D01*
X60793285Y-54659209D01*
X60602809Y-54659209D01*
X61698047Y-54087780D02*
X61221857Y-54087780D01*
X61174238Y-54563971D01*
X61221857Y-54516352D01*
X61317095Y-54468733D01*
X61555190Y-54468733D01*
X61650428Y-54516352D01*
X61698047Y-54563971D01*
X61745666Y-54659209D01*
X61745666Y-54897304D01*
X61698047Y-54992542D01*
X61650428Y-55040161D01*
X61555190Y-55087780D01*
X61317095Y-55087780D01*
X61221857Y-55040161D01*
X61174238Y-54992542D01*
%TO.C,TG4*%
X62238095Y-73417180D02*
X62809523Y-73417180D01*
X62523809Y-74417180D02*
X62523809Y-73417180D01*
X63666666Y-73464800D02*
X63571428Y-73417180D01*
X63428571Y-73417180D01*
X63285714Y-73464800D01*
X63190476Y-73560038D01*
X63142857Y-73655276D01*
X63095238Y-73845752D01*
X63095238Y-73988609D01*
X63142857Y-74179085D01*
X63190476Y-74274323D01*
X63285714Y-74369561D01*
X63428571Y-74417180D01*
X63523809Y-74417180D01*
X63666666Y-74369561D01*
X63714285Y-74321942D01*
X63714285Y-73988609D01*
X63523809Y-73988609D01*
X64571428Y-73750514D02*
X64571428Y-74417180D01*
X64333333Y-73369561D02*
X64095238Y-74083847D01*
X64714285Y-74083847D01*
%TO.C,TG3*%
X56192895Y-61021980D02*
X56764323Y-61021980D01*
X56478609Y-62021980D02*
X56478609Y-61021980D01*
X57621466Y-61069600D02*
X57526228Y-61021980D01*
X57383371Y-61021980D01*
X57240514Y-61069600D01*
X57145276Y-61164838D01*
X57097657Y-61260076D01*
X57050038Y-61450552D01*
X57050038Y-61593409D01*
X57097657Y-61783885D01*
X57145276Y-61879123D01*
X57240514Y-61974361D01*
X57383371Y-62021980D01*
X57478609Y-62021980D01*
X57621466Y-61974361D01*
X57669085Y-61926742D01*
X57669085Y-61593409D01*
X57478609Y-61593409D01*
X58002419Y-61021980D02*
X58621466Y-61021980D01*
X58288133Y-61402933D01*
X58430990Y-61402933D01*
X58526228Y-61450552D01*
X58573847Y-61498171D01*
X58621466Y-61593409D01*
X58621466Y-61831504D01*
X58573847Y-61926742D01*
X58526228Y-61974361D01*
X58430990Y-62021980D01*
X58145276Y-62021980D01*
X58050038Y-61974361D01*
X58002419Y-61926742D01*
%TO.C,TG2*%
X44508895Y-39025580D02*
X45080323Y-39025580D01*
X44794609Y-40025580D02*
X44794609Y-39025580D01*
X45937466Y-39073200D02*
X45842228Y-39025580D01*
X45699371Y-39025580D01*
X45556514Y-39073200D01*
X45461276Y-39168438D01*
X45413657Y-39263676D01*
X45366038Y-39454152D01*
X45366038Y-39597009D01*
X45413657Y-39787485D01*
X45461276Y-39882723D01*
X45556514Y-39977961D01*
X45699371Y-40025580D01*
X45794609Y-40025580D01*
X45937466Y-39977961D01*
X45985085Y-39930342D01*
X45985085Y-39597009D01*
X45794609Y-39597009D01*
X46366038Y-39120819D02*
X46413657Y-39073200D01*
X46508895Y-39025580D01*
X46746990Y-39025580D01*
X46842228Y-39073200D01*
X46889847Y-39120819D01*
X46937466Y-39216057D01*
X46937466Y-39311295D01*
X46889847Y-39454152D01*
X46318419Y-40025580D01*
X46937466Y-40025580D01*
%TO.C,TG1*%
X30132495Y-28103580D02*
X30703923Y-28103580D01*
X30418209Y-29103580D02*
X30418209Y-28103580D01*
X31561066Y-28151200D02*
X31465828Y-28103580D01*
X31322971Y-28103580D01*
X31180114Y-28151200D01*
X31084876Y-28246438D01*
X31037257Y-28341676D01*
X30989638Y-28532152D01*
X30989638Y-28675009D01*
X31037257Y-28865485D01*
X31084876Y-28960723D01*
X31180114Y-29055961D01*
X31322971Y-29103580D01*
X31418209Y-29103580D01*
X31561066Y-29055961D01*
X31608685Y-29008342D01*
X31608685Y-28675009D01*
X31418209Y-28675009D01*
X32561066Y-29103580D02*
X31989638Y-29103580D01*
X32275352Y-29103580D02*
X32275352Y-28103580D01*
X32180114Y-28246438D01*
X32084876Y-28341676D01*
X31989638Y-28389295D01*
%TO.C,C7*%
X110506142Y-55118515D02*
X110553761Y-55166134D01*
X110601380Y-55308991D01*
X110601380Y-55404229D01*
X110553761Y-55547087D01*
X110458523Y-55642325D01*
X110363285Y-55689944D01*
X110172809Y-55737563D01*
X110029952Y-55737563D01*
X109839476Y-55689944D01*
X109744238Y-55642325D01*
X109649000Y-55547087D01*
X109601380Y-55404229D01*
X109601380Y-55308991D01*
X109649000Y-55166134D01*
X109696619Y-55118515D01*
X109601380Y-54785182D02*
X109601380Y-54118515D01*
X110601380Y-54547087D01*
X112030142Y-57372610D02*
X112077761Y-57324991D01*
X112125380Y-57372610D01*
X112077761Y-57420229D01*
X112030142Y-57372610D01*
X112125380Y-57372610D01*
X111125380Y-56991658D02*
X111125380Y-56372610D01*
X111506333Y-56705944D01*
X111506333Y-56563087D01*
X111553952Y-56467849D01*
X111601571Y-56420229D01*
X111696809Y-56372610D01*
X111934904Y-56372610D01*
X112030142Y-56420229D01*
X112077761Y-56467849D01*
X112125380Y-56563087D01*
X112125380Y-56848801D01*
X112077761Y-56944039D01*
X112030142Y-56991658D01*
X111125380Y-56039277D02*
X111125380Y-55420229D01*
X111506333Y-55753563D01*
X111506333Y-55610706D01*
X111553952Y-55515468D01*
X111601571Y-55467849D01*
X111696809Y-55420229D01*
X111934904Y-55420229D01*
X112030142Y-55467849D01*
X112077761Y-55515468D01*
X112125380Y-55610706D01*
X112125380Y-55896420D01*
X112077761Y-55991658D01*
X112030142Y-56039277D01*
X111458714Y-54563087D02*
X112125380Y-54563087D01*
X111458714Y-54991658D02*
X111982523Y-54991658D01*
X112077761Y-54944039D01*
X112125380Y-54848801D01*
X112125380Y-54705944D01*
X112077761Y-54610706D01*
X112030142Y-54563087D01*
%TO.C,C11*%
X87367793Y-53941142D02*
X87320174Y-53988761D01*
X87177317Y-54036380D01*
X87082079Y-54036380D01*
X86939222Y-53988761D01*
X86843984Y-53893523D01*
X86796365Y-53798285D01*
X86748746Y-53607809D01*
X86748746Y-53464952D01*
X86796365Y-53274476D01*
X86843984Y-53179238D01*
X86939222Y-53084000D01*
X87082079Y-53036380D01*
X87177317Y-53036380D01*
X87320174Y-53084000D01*
X87367793Y-53131619D01*
X88320174Y-54036380D02*
X87748746Y-54036380D01*
X88034460Y-54036380D02*
X88034460Y-53036380D01*
X87939222Y-53179238D01*
X87843984Y-53274476D01*
X87748746Y-53322095D01*
X89272555Y-54036380D02*
X88701127Y-54036380D01*
X88986841Y-54036380D02*
X88986841Y-53036380D01*
X88891603Y-53179238D01*
X88796365Y-53274476D01*
X88701127Y-53322095D01*
X89273142Y-55570380D02*
X88701714Y-55570380D01*
X88987428Y-55570380D02*
X88987428Y-54570380D01*
X88892190Y-54713238D01*
X88796952Y-54808476D01*
X88701714Y-54856095D01*
X89892190Y-54570380D02*
X89987428Y-54570380D01*
X90082666Y-54618000D01*
X90130285Y-54665619D01*
X90177904Y-54760857D01*
X90225523Y-54951333D01*
X90225523Y-55189428D01*
X90177904Y-55379904D01*
X90130285Y-55475142D01*
X90082666Y-55522761D01*
X89987428Y-55570380D01*
X89892190Y-55570380D01*
X89796952Y-55522761D01*
X89749333Y-55475142D01*
X89701714Y-55379904D01*
X89654095Y-55189428D01*
X89654095Y-54951333D01*
X89701714Y-54760857D01*
X89749333Y-54665619D01*
X89796952Y-54618000D01*
X89892190Y-54570380D01*
X91082666Y-54903714D02*
X91082666Y-55570380D01*
X90654095Y-54903714D02*
X90654095Y-55427523D01*
X90701714Y-55522761D01*
X90796952Y-55570380D01*
X90939809Y-55570380D01*
X91035047Y-55522761D01*
X91082666Y-55475142D01*
%TO.C,C8*%
X39838333Y-45543742D02*
X39790714Y-45591361D01*
X39647857Y-45638980D01*
X39552619Y-45638980D01*
X39409761Y-45591361D01*
X39314523Y-45496123D01*
X39266904Y-45400885D01*
X39219285Y-45210409D01*
X39219285Y-45067552D01*
X39266904Y-44877076D01*
X39314523Y-44781838D01*
X39409761Y-44686600D01*
X39552619Y-44638980D01*
X39647857Y-44638980D01*
X39790714Y-44686600D01*
X39838333Y-44734219D01*
X40409761Y-45067552D02*
X40314523Y-45019933D01*
X40266904Y-44972314D01*
X40219285Y-44877076D01*
X40219285Y-44829457D01*
X40266904Y-44734219D01*
X40314523Y-44686600D01*
X40409761Y-44638980D01*
X40600238Y-44638980D01*
X40695476Y-44686600D01*
X40743095Y-44734219D01*
X40790714Y-44829457D01*
X40790714Y-44877076D01*
X40743095Y-44972314D01*
X40695476Y-45019933D01*
X40600238Y-45067552D01*
X40409761Y-45067552D01*
X40314523Y-45115171D01*
X40266904Y-45162790D01*
X40219285Y-45258028D01*
X40219285Y-45448504D01*
X40266904Y-45543742D01*
X40314523Y-45591361D01*
X40409761Y-45638980D01*
X40600238Y-45638980D01*
X40695476Y-45591361D01*
X40743095Y-45543742D01*
X40790714Y-45448504D01*
X40790714Y-45258028D01*
X40743095Y-45162790D01*
X40695476Y-45115171D01*
X40600238Y-45067552D01*
X39419352Y-46908980D02*
X38847923Y-46908980D01*
X39133638Y-46908980D02*
X39133638Y-45908980D01*
X39038400Y-46051838D01*
X38943161Y-46147076D01*
X38847923Y-46194695D01*
X40038400Y-45908980D02*
X40133638Y-45908980D01*
X40228876Y-45956600D01*
X40276495Y-46004219D01*
X40324114Y-46099457D01*
X40371733Y-46289933D01*
X40371733Y-46528028D01*
X40324114Y-46718504D01*
X40276495Y-46813742D01*
X40228876Y-46861361D01*
X40133638Y-46908980D01*
X40038400Y-46908980D01*
X39943161Y-46861361D01*
X39895542Y-46813742D01*
X39847923Y-46718504D01*
X39800304Y-46528028D01*
X39800304Y-46289933D01*
X39847923Y-46099457D01*
X39895542Y-46004219D01*
X39943161Y-45956600D01*
X40038400Y-45908980D01*
X40990780Y-45908980D02*
X41086019Y-45908980D01*
X41181257Y-45956600D01*
X41228876Y-46004219D01*
X41276495Y-46099457D01*
X41324114Y-46289933D01*
X41324114Y-46528028D01*
X41276495Y-46718504D01*
X41228876Y-46813742D01*
X41181257Y-46861361D01*
X41086019Y-46908980D01*
X40990780Y-46908980D01*
X40895542Y-46861361D01*
X40847923Y-46813742D01*
X40800304Y-46718504D01*
X40752685Y-46528028D01*
X40752685Y-46289933D01*
X40800304Y-46099457D01*
X40847923Y-46004219D01*
X40895542Y-45956600D01*
X40990780Y-45908980D01*
X41752685Y-46242314D02*
X41752685Y-46908980D01*
X41752685Y-46337552D02*
X41800304Y-46289933D01*
X41895542Y-46242314D01*
X42038400Y-46242314D01*
X42133638Y-46289933D01*
X42181257Y-46385171D01*
X42181257Y-46908980D01*
%TO.C,J4*%
X97408928Y-25733609D02*
X98123804Y-25733609D01*
X98266779Y-25781267D01*
X98362096Y-25876584D01*
X98409755Y-26019559D01*
X98409755Y-26114876D01*
X97742537Y-24828098D02*
X98409755Y-24828098D01*
X97361269Y-25066391D02*
X98076146Y-25304683D01*
X98076146Y-24685123D01*
X98409915Y-30769408D02*
X97408734Y-30769408D01*
X97408734Y-30388005D01*
X97456409Y-30292655D01*
X97504084Y-30244979D01*
X97599435Y-30197304D01*
X97742461Y-30197304D01*
X97837811Y-30244979D01*
X97885487Y-30292655D01*
X97933162Y-30388005D01*
X97933162Y-30769408D01*
X97408734Y-29863577D02*
X98409915Y-29625201D01*
X97694785Y-29434500D01*
X98409915Y-29243798D01*
X97408734Y-29005422D01*
X98409915Y-28051916D02*
X97933162Y-28385643D01*
X98409915Y-28624020D02*
X97408734Y-28624020D01*
X97408734Y-28242617D01*
X97456409Y-28147267D01*
X97504084Y-28099592D01*
X97599435Y-28051916D01*
X97742461Y-28051916D01*
X97837811Y-28099592D01*
X97885487Y-28147267D01*
X97933162Y-28242617D01*
X97933162Y-28624020D01*
%TO.C,R7*%
X68743533Y-59329580D02*
X68410200Y-58853390D01*
X68172104Y-59329580D02*
X68172104Y-58329580D01*
X68553057Y-58329580D01*
X68648295Y-58377200D01*
X68695914Y-58424819D01*
X68743533Y-58520057D01*
X68743533Y-58662914D01*
X68695914Y-58758152D01*
X68648295Y-58805771D01*
X68553057Y-58853390D01*
X68172104Y-58853390D01*
X69076866Y-58329580D02*
X69743533Y-58329580D01*
X69314961Y-59329580D01*
X67406780Y-62006076D02*
X67406780Y-62577504D01*
X67406780Y-62291790D02*
X66406780Y-62291790D01*
X66549638Y-62387028D01*
X66644876Y-62482266D01*
X66692495Y-62577504D01*
X66406780Y-61387028D02*
X66406780Y-61291790D01*
X66454400Y-61196552D01*
X66502019Y-61148933D01*
X66597257Y-61101314D01*
X66787733Y-61053695D01*
X67025828Y-61053695D01*
X67216304Y-61101314D01*
X67311542Y-61148933D01*
X67359161Y-61196552D01*
X67406780Y-61291790D01*
X67406780Y-61387028D01*
X67359161Y-61482266D01*
X67311542Y-61529885D01*
X67216304Y-61577504D01*
X67025828Y-61625123D01*
X66787733Y-61625123D01*
X66597257Y-61577504D01*
X66502019Y-61529885D01*
X66454400Y-61482266D01*
X66406780Y-61387028D01*
X67406780Y-60625123D02*
X66406780Y-60625123D01*
X67406780Y-60053695D02*
X66835352Y-60482266D01*
X66406780Y-60053695D02*
X66978209Y-60625123D01*
%TO.C,R4*%
X79130333Y-32049980D02*
X78797000Y-31573790D01*
X78558904Y-32049980D02*
X78558904Y-31049980D01*
X78939857Y-31049980D01*
X79035095Y-31097600D01*
X79082714Y-31145219D01*
X79130333Y-31240457D01*
X79130333Y-31383314D01*
X79082714Y-31478552D01*
X79035095Y-31526171D01*
X78939857Y-31573790D01*
X78558904Y-31573790D01*
X79987476Y-31383314D02*
X79987476Y-32049980D01*
X79749380Y-31002361D02*
X79511285Y-31716647D01*
X80130333Y-31716647D01*
X81432333Y-31948380D02*
X80860904Y-31948380D01*
X81146619Y-31948380D02*
X81146619Y-30948380D01*
X81051380Y-31091238D01*
X80956142Y-31186476D01*
X80860904Y-31234095D01*
X81813285Y-31043619D02*
X81860904Y-30996000D01*
X81956142Y-30948380D01*
X82194238Y-30948380D01*
X82289476Y-30996000D01*
X82337095Y-31043619D01*
X82384714Y-31138857D01*
X82384714Y-31234095D01*
X82337095Y-31376952D01*
X81765666Y-31948380D01*
X82384714Y-31948380D01*
X83003761Y-30948380D02*
X83099000Y-30948380D01*
X83194238Y-30996000D01*
X83241857Y-31043619D01*
X83289476Y-31138857D01*
X83337095Y-31329333D01*
X83337095Y-31567428D01*
X83289476Y-31757904D01*
X83241857Y-31853142D01*
X83194238Y-31900761D01*
X83099000Y-31948380D01*
X83003761Y-31948380D01*
X82908523Y-31900761D01*
X82860904Y-31853142D01*
X82813285Y-31757904D01*
X82765666Y-31567428D01*
X82765666Y-31329333D01*
X82813285Y-31138857D01*
X82860904Y-31043619D01*
X82908523Y-30996000D01*
X83003761Y-30948380D01*
X84337095Y-31948380D02*
X84003761Y-31472190D01*
X83765666Y-31948380D02*
X83765666Y-30948380D01*
X84146619Y-30948380D01*
X84241857Y-30996000D01*
X84289476Y-31043619D01*
X84337095Y-31138857D01*
X84337095Y-31281714D01*
X84289476Y-31376952D01*
X84241857Y-31424571D01*
X84146619Y-31472190D01*
X83765666Y-31472190D01*
%TO.C,C2*%
X43435542Y-47918666D02*
X43483161Y-47966285D01*
X43530780Y-48109142D01*
X43530780Y-48204380D01*
X43483161Y-48347238D01*
X43387923Y-48442476D01*
X43292685Y-48490095D01*
X43102209Y-48537714D01*
X42959352Y-48537714D01*
X42768876Y-48490095D01*
X42673638Y-48442476D01*
X42578400Y-48347238D01*
X42530780Y-48204380D01*
X42530780Y-48109142D01*
X42578400Y-47966285D01*
X42626019Y-47918666D01*
X42626019Y-47537714D02*
X42578400Y-47490095D01*
X42530780Y-47394857D01*
X42530780Y-47156761D01*
X42578400Y-47061523D01*
X42626019Y-47013904D01*
X42721257Y-46966285D01*
X42816495Y-46966285D01*
X42959352Y-47013904D01*
X43530780Y-47585333D01*
X43530780Y-46966285D01*
X43737352Y-52522380D02*
X43165923Y-52522380D01*
X43451638Y-52522380D02*
X43451638Y-51522380D01*
X43356400Y-51665238D01*
X43261161Y-51760476D01*
X43165923Y-51808095D01*
X44356400Y-51522380D02*
X44451638Y-51522380D01*
X44546876Y-51570000D01*
X44594495Y-51617619D01*
X44642114Y-51712857D01*
X44689733Y-51903333D01*
X44689733Y-52141428D01*
X44642114Y-52331904D01*
X44594495Y-52427142D01*
X44546876Y-52474761D01*
X44451638Y-52522380D01*
X44356400Y-52522380D01*
X44261161Y-52474761D01*
X44213542Y-52427142D01*
X44165923Y-52331904D01*
X44118304Y-52141428D01*
X44118304Y-51903333D01*
X44165923Y-51712857D01*
X44213542Y-51617619D01*
X44261161Y-51570000D01*
X44356400Y-51522380D01*
X45308780Y-51522380D02*
X45404019Y-51522380D01*
X45499257Y-51570000D01*
X45546876Y-51617619D01*
X45594495Y-51712857D01*
X45642114Y-51903333D01*
X45642114Y-52141428D01*
X45594495Y-52331904D01*
X45546876Y-52427142D01*
X45499257Y-52474761D01*
X45404019Y-52522380D01*
X45308780Y-52522380D01*
X45213542Y-52474761D01*
X45165923Y-52427142D01*
X45118304Y-52331904D01*
X45070685Y-52141428D01*
X45070685Y-51903333D01*
X45118304Y-51712857D01*
X45165923Y-51617619D01*
X45213542Y-51570000D01*
X45308780Y-51522380D01*
X46070685Y-51855714D02*
X46070685Y-52522380D01*
X46070685Y-51950952D02*
X46118304Y-51903333D01*
X46213542Y-51855714D01*
X46356400Y-51855714D01*
X46451638Y-51903333D01*
X46499257Y-51998571D01*
X46499257Y-52522380D01*
%TO.C,RV1*%
X58811380Y-78433238D02*
X58335190Y-78766571D01*
X58811380Y-79004666D02*
X57811380Y-79004666D01*
X57811380Y-78623714D01*
X57859000Y-78528476D01*
X57906619Y-78480857D01*
X58001857Y-78433238D01*
X58144714Y-78433238D01*
X58239952Y-78480857D01*
X58287571Y-78528476D01*
X58335190Y-78623714D01*
X58335190Y-79004666D01*
X57811380Y-78147523D02*
X58811380Y-77814190D01*
X57811380Y-77480857D01*
X58811380Y-76623714D02*
X58811380Y-77195142D01*
X58811380Y-76909428D02*
X57811380Y-76909428D01*
X57954238Y-77004666D01*
X58049476Y-77099904D01*
X58097095Y-77195142D01*
X41711380Y-80314190D02*
X41711380Y-80885619D01*
X41711380Y-80599904D02*
X40711380Y-80599904D01*
X40854238Y-80695142D01*
X40949476Y-80790380D01*
X40997095Y-80885619D01*
X40711380Y-79695142D02*
X40711380Y-79599904D01*
X40759000Y-79504666D01*
X40806619Y-79457047D01*
X40901857Y-79409428D01*
X41092333Y-79361809D01*
X41330428Y-79361809D01*
X41520904Y-79409428D01*
X41616142Y-79457047D01*
X41663761Y-79504666D01*
X41711380Y-79599904D01*
X41711380Y-79695142D01*
X41663761Y-79790380D01*
X41616142Y-79838000D01*
X41520904Y-79885619D01*
X41330428Y-79933238D01*
X41092333Y-79933238D01*
X40901857Y-79885619D01*
X40806619Y-79838000D01*
X40759000Y-79790380D01*
X40711380Y-79695142D01*
X41711380Y-78933238D02*
X40711380Y-78933238D01*
X41711380Y-78361809D02*
X41139952Y-78790380D01*
X40711380Y-78361809D02*
X41282809Y-78933238D01*
X41711380Y-77171333D02*
X40711380Y-77171333D01*
X40711380Y-76790380D01*
X40759000Y-76695142D01*
X40806619Y-76647523D01*
X40901857Y-76599904D01*
X41044714Y-76599904D01*
X41139952Y-76647523D01*
X41187571Y-76695142D01*
X41235190Y-76790380D01*
X41235190Y-77171333D01*
X40711380Y-75980857D02*
X40711380Y-75790380D01*
X40759000Y-75695142D01*
X40854238Y-75599904D01*
X41044714Y-75552285D01*
X41378047Y-75552285D01*
X41568523Y-75599904D01*
X41663761Y-75695142D01*
X41711380Y-75790380D01*
X41711380Y-75980857D01*
X41663761Y-76076095D01*
X41568523Y-76171333D01*
X41378047Y-76218952D01*
X41044714Y-76218952D01*
X40854238Y-76171333D01*
X40759000Y-76076095D01*
X40711380Y-75980857D01*
X40711380Y-75266571D02*
X40711380Y-74695142D01*
X41711380Y-74980857D02*
X40711380Y-74980857D01*
%TO.C,U4*%
X76444095Y-70562380D02*
X76444095Y-71371904D01*
X76491714Y-71467142D01*
X76539333Y-71514761D01*
X76634571Y-71562380D01*
X76825047Y-71562380D01*
X76920285Y-71514761D01*
X76967904Y-71467142D01*
X77015523Y-71371904D01*
X77015523Y-70562380D01*
X77920285Y-70895714D02*
X77920285Y-71562380D01*
X77682190Y-70514761D02*
X77444095Y-71229047D01*
X78063142Y-71229047D01*
X71451523Y-71562380D02*
X70975333Y-71562380D01*
X70975333Y-70562380D01*
X71784857Y-71562380D02*
X71784857Y-70562380D01*
X72118190Y-71276666D01*
X72451523Y-70562380D01*
X72451523Y-71562380D01*
X72832476Y-70562380D02*
X73451523Y-70562380D01*
X73118190Y-70943333D01*
X73261047Y-70943333D01*
X73356285Y-70990952D01*
X73403904Y-71038571D01*
X73451523Y-71133809D01*
X73451523Y-71371904D01*
X73403904Y-71467142D01*
X73356285Y-71514761D01*
X73261047Y-71562380D01*
X72975333Y-71562380D01*
X72880095Y-71514761D01*
X72832476Y-71467142D01*
X74022952Y-70990952D02*
X73927714Y-70943333D01*
X73880095Y-70895714D01*
X73832476Y-70800476D01*
X73832476Y-70752857D01*
X73880095Y-70657619D01*
X73927714Y-70610000D01*
X74022952Y-70562380D01*
X74213428Y-70562380D01*
X74308666Y-70610000D01*
X74356285Y-70657619D01*
X74403904Y-70752857D01*
X74403904Y-70800476D01*
X74356285Y-70895714D01*
X74308666Y-70943333D01*
X74213428Y-70990952D01*
X74022952Y-70990952D01*
X73927714Y-71038571D01*
X73880095Y-71086190D01*
X73832476Y-71181428D01*
X73832476Y-71371904D01*
X73880095Y-71467142D01*
X73927714Y-71514761D01*
X74022952Y-71562380D01*
X74213428Y-71562380D01*
X74308666Y-71514761D01*
X74356285Y-71467142D01*
X74403904Y-71371904D01*
X74403904Y-71181428D01*
X74356285Y-71086190D01*
X74308666Y-71038571D01*
X74213428Y-70990952D01*
X75261047Y-70562380D02*
X75070571Y-70562380D01*
X74975333Y-70610000D01*
X74927714Y-70657619D01*
X74832476Y-70800476D01*
X74784857Y-70990952D01*
X74784857Y-71371904D01*
X74832476Y-71467142D01*
X74880095Y-71514761D01*
X74975333Y-71562380D01*
X75165809Y-71562380D01*
X75261047Y-71514761D01*
X75308666Y-71467142D01*
X75356285Y-71371904D01*
X75356285Y-71133809D01*
X75308666Y-71038571D01*
X75261047Y-70990952D01*
X75165809Y-70943333D01*
X74975333Y-70943333D01*
X74880095Y-70990952D01*
X74832476Y-71038571D01*
X74784857Y-71133809D01*
%TO.C,U3*%
X99782380Y-47722404D02*
X100591904Y-47722404D01*
X100687142Y-47674785D01*
X100734761Y-47627166D01*
X100782380Y-47531928D01*
X100782380Y-47341452D01*
X100734761Y-47246214D01*
X100687142Y-47198595D01*
X100591904Y-47150976D01*
X99782380Y-47150976D01*
X99782380Y-46770023D02*
X99782380Y-46150976D01*
X100163333Y-46484309D01*
X100163333Y-46341452D01*
X100210952Y-46246214D01*
X100258571Y-46198595D01*
X100353809Y-46150976D01*
X100591904Y-46150976D01*
X100687142Y-46198595D01*
X100734761Y-46246214D01*
X100782380Y-46341452D01*
X100782380Y-46627166D01*
X100734761Y-46722404D01*
X100687142Y-46770023D01*
X107736380Y-55731166D02*
X107736380Y-56207357D01*
X106736380Y-56207357D01*
X107736380Y-55397833D02*
X106736380Y-55397833D01*
X107450666Y-55064500D01*
X106736380Y-54731166D01*
X107736380Y-54731166D01*
X106736380Y-54350214D02*
X106736380Y-53683547D01*
X107736380Y-54112119D01*
X107164952Y-53159738D02*
X107117333Y-53254976D01*
X107069714Y-53302595D01*
X106974476Y-53350214D01*
X106926857Y-53350214D01*
X106831619Y-53302595D01*
X106784000Y-53254976D01*
X106736380Y-53159738D01*
X106736380Y-52969261D01*
X106784000Y-52874023D01*
X106831619Y-52826404D01*
X106926857Y-52778785D01*
X106974476Y-52778785D01*
X107069714Y-52826404D01*
X107117333Y-52874023D01*
X107164952Y-52969261D01*
X107164952Y-53159738D01*
X107212571Y-53254976D01*
X107260190Y-53302595D01*
X107355428Y-53350214D01*
X107545904Y-53350214D01*
X107641142Y-53302595D01*
X107688761Y-53254976D01*
X107736380Y-53159738D01*
X107736380Y-52969261D01*
X107688761Y-52874023D01*
X107641142Y-52826404D01*
X107545904Y-52778785D01*
X107355428Y-52778785D01*
X107260190Y-52826404D01*
X107212571Y-52874023D01*
X107164952Y-52969261D01*
X106736380Y-52159738D02*
X106736380Y-52064500D01*
X106784000Y-51969261D01*
X106831619Y-51921642D01*
X106926857Y-51874023D01*
X107117333Y-51826404D01*
X107355428Y-51826404D01*
X107545904Y-51874023D01*
X107641142Y-51921642D01*
X107688761Y-51969261D01*
X107736380Y-52064500D01*
X107736380Y-52159738D01*
X107688761Y-52254976D01*
X107641142Y-52302595D01*
X107545904Y-52350214D01*
X107355428Y-52397833D01*
X107117333Y-52397833D01*
X106926857Y-52350214D01*
X106831619Y-52302595D01*
X106784000Y-52254976D01*
X106736380Y-52159738D01*
X106736380Y-50969261D02*
X106736380Y-51159738D01*
X106784000Y-51254976D01*
X106831619Y-51302595D01*
X106974476Y-51397833D01*
X107164952Y-51445452D01*
X107545904Y-51445452D01*
X107641142Y-51397833D01*
X107688761Y-51350214D01*
X107736380Y-51254976D01*
X107736380Y-51064500D01*
X107688761Y-50969261D01*
X107641142Y-50921642D01*
X107545904Y-50874023D01*
X107307809Y-50874023D01*
X107212571Y-50921642D01*
X107164952Y-50969261D01*
X107117333Y-51064500D01*
X107117333Y-51254976D01*
X107164952Y-51350214D01*
X107212571Y-51397833D01*
X107307809Y-51445452D01*
%TO.C,R8*%
X79461984Y-76896380D02*
X79128651Y-76420190D01*
X78890555Y-76896380D02*
X78890555Y-75896380D01*
X79271508Y-75896380D01*
X79366746Y-75944000D01*
X79414365Y-75991619D01*
X79461984Y-76086857D01*
X79461984Y-76229714D01*
X79414365Y-76324952D01*
X79366746Y-76372571D01*
X79271508Y-76420190D01*
X78890555Y-76420190D01*
X80033412Y-76324952D02*
X79938174Y-76277333D01*
X79890555Y-76229714D01*
X79842936Y-76134476D01*
X79842936Y-76086857D01*
X79890555Y-75991619D01*
X79938174Y-75944000D01*
X80033412Y-75896380D01*
X80223889Y-75896380D01*
X80319127Y-75944000D01*
X80366746Y-75991619D01*
X80414365Y-76086857D01*
X80414365Y-76134476D01*
X80366746Y-76229714D01*
X80319127Y-76277333D01*
X80223889Y-76324952D01*
X80033412Y-76324952D01*
X79938174Y-76372571D01*
X79890555Y-76420190D01*
X79842936Y-76515428D01*
X79842936Y-76705904D01*
X79890555Y-76801142D01*
X79938174Y-76848761D01*
X80033412Y-76896380D01*
X80223889Y-76896380D01*
X80319127Y-76848761D01*
X80366746Y-76801142D01*
X80414365Y-76705904D01*
X80414365Y-76515428D01*
X80366746Y-76420190D01*
X80319127Y-76372571D01*
X80223889Y-76324952D01*
X81859031Y-74848476D02*
X81859031Y-75419904D01*
X81859031Y-75134190D02*
X80859031Y-75134190D01*
X81001889Y-75229428D01*
X81097127Y-75324666D01*
X81144746Y-75419904D01*
X80859031Y-74229428D02*
X80859031Y-74134190D01*
X80906651Y-74038952D01*
X80954270Y-73991333D01*
X81049508Y-73943714D01*
X81239984Y-73896095D01*
X81478079Y-73896095D01*
X81668555Y-73943714D01*
X81763793Y-73991333D01*
X81811412Y-74038952D01*
X81859031Y-74134190D01*
X81859031Y-74229428D01*
X81811412Y-74324666D01*
X81763793Y-74372285D01*
X81668555Y-74419904D01*
X81478079Y-74467523D01*
X81239984Y-74467523D01*
X81049508Y-74419904D01*
X80954270Y-74372285D01*
X80906651Y-74324666D01*
X80859031Y-74229428D01*
X81859031Y-72896095D02*
X81382841Y-73229428D01*
X81859031Y-73467523D02*
X80859031Y-73467523D01*
X80859031Y-73086571D01*
X80906651Y-72991333D01*
X80954270Y-72943714D01*
X81049508Y-72896095D01*
X81192365Y-72896095D01*
X81287603Y-72943714D01*
X81335222Y-72991333D01*
X81382841Y-73086571D01*
X81382841Y-73467523D01*
%TO.C,C15*%
X89501742Y-78208142D02*
X89454123Y-78255761D01*
X89311266Y-78303380D01*
X89216028Y-78303380D01*
X89073171Y-78255761D01*
X88977933Y-78160523D01*
X88930314Y-78065285D01*
X88882695Y-77874809D01*
X88882695Y-77731952D01*
X88930314Y-77541476D01*
X88977933Y-77446238D01*
X89073171Y-77351000D01*
X89216028Y-77303380D01*
X89311266Y-77303380D01*
X89454123Y-77351000D01*
X89501742Y-77398619D01*
X90454123Y-78303380D02*
X89882695Y-78303380D01*
X90168409Y-78303380D02*
X90168409Y-77303380D01*
X90073171Y-77446238D01*
X89977933Y-77541476D01*
X89882695Y-77589095D01*
X91358885Y-77303380D02*
X90882695Y-77303380D01*
X90835076Y-77779571D01*
X90882695Y-77731952D01*
X90977933Y-77684333D01*
X91216028Y-77684333D01*
X91311266Y-77731952D01*
X91358885Y-77779571D01*
X91406504Y-77874809D01*
X91406504Y-78112904D01*
X91358885Y-78208142D01*
X91311266Y-78255761D01*
X91216028Y-78303380D01*
X90977933Y-78303380D01*
X90882695Y-78255761D01*
X90835076Y-78208142D01*
X86256952Y-79446380D02*
X85685523Y-79446380D01*
X85971238Y-79446380D02*
X85971238Y-78446380D01*
X85876000Y-78589238D01*
X85780761Y-78684476D01*
X85685523Y-78732095D01*
X86876000Y-78446380D02*
X86971238Y-78446380D01*
X87066476Y-78494000D01*
X87114095Y-78541619D01*
X87161714Y-78636857D01*
X87209333Y-78827333D01*
X87209333Y-79065428D01*
X87161714Y-79255904D01*
X87114095Y-79351142D01*
X87066476Y-79398761D01*
X86971238Y-79446380D01*
X86876000Y-79446380D01*
X86780761Y-79398761D01*
X86733142Y-79351142D01*
X86685523Y-79255904D01*
X86637904Y-79065428D01*
X86637904Y-78827333D01*
X86685523Y-78636857D01*
X86733142Y-78541619D01*
X86780761Y-78494000D01*
X86876000Y-78446380D01*
X87828380Y-78446380D02*
X87923619Y-78446380D01*
X88018857Y-78494000D01*
X88066476Y-78541619D01*
X88114095Y-78636857D01*
X88161714Y-78827333D01*
X88161714Y-79065428D01*
X88114095Y-79255904D01*
X88066476Y-79351142D01*
X88018857Y-79398761D01*
X87923619Y-79446380D01*
X87828380Y-79446380D01*
X87733142Y-79398761D01*
X87685523Y-79351142D01*
X87637904Y-79255904D01*
X87590285Y-79065428D01*
X87590285Y-78827333D01*
X87637904Y-78636857D01*
X87685523Y-78541619D01*
X87733142Y-78494000D01*
X87828380Y-78446380D01*
X89018857Y-78779714D02*
X89018857Y-79446380D01*
X88590285Y-78779714D02*
X88590285Y-79303523D01*
X88637904Y-79398761D01*
X88733142Y-79446380D01*
X88876000Y-79446380D01*
X88971238Y-79398761D01*
X89018857Y-79351142D01*
%TO.C,TP6*%
X81338895Y-79944980D02*
X81910323Y-79944980D01*
X81624609Y-80944980D02*
X81624609Y-79944980D01*
X82243657Y-80944980D02*
X82243657Y-79944980D01*
X82624609Y-79944980D01*
X82719847Y-79992600D01*
X82767466Y-80040219D01*
X82815085Y-80135457D01*
X82815085Y-80278314D01*
X82767466Y-80373552D01*
X82719847Y-80421171D01*
X82624609Y-80468790D01*
X82243657Y-80468790D01*
X83672228Y-79944980D02*
X83481752Y-79944980D01*
X83386514Y-79992600D01*
X83338895Y-80040219D01*
X83243657Y-80183076D01*
X83196038Y-80373552D01*
X83196038Y-80754504D01*
X83243657Y-80849742D01*
X83291276Y-80897361D01*
X83386514Y-80944980D01*
X83576990Y-80944980D01*
X83672228Y-80897361D01*
X83719847Y-80849742D01*
X83767466Y-80754504D01*
X83767466Y-80516409D01*
X83719847Y-80421171D01*
X83672228Y-80373552D01*
X83576990Y-80325933D01*
X83386514Y-80325933D01*
X83291276Y-80373552D01*
X83243657Y-80421171D01*
X83196038Y-80516409D01*
%TO.C,C6*%
X72807533Y-27027142D02*
X72759914Y-27074761D01*
X72617057Y-27122380D01*
X72521819Y-27122380D01*
X72378961Y-27074761D01*
X72283723Y-26979523D01*
X72236104Y-26884285D01*
X72188485Y-26693809D01*
X72188485Y-26550952D01*
X72236104Y-26360476D01*
X72283723Y-26265238D01*
X72378961Y-26170000D01*
X72521819Y-26122380D01*
X72617057Y-26122380D01*
X72759914Y-26170000D01*
X72807533Y-26217619D01*
X73664676Y-26122380D02*
X73474200Y-26122380D01*
X73378961Y-26170000D01*
X73331342Y-26217619D01*
X73236104Y-26360476D01*
X73188485Y-26550952D01*
X73188485Y-26931904D01*
X73236104Y-27027142D01*
X73283723Y-27074761D01*
X73378961Y-27122380D01*
X73569438Y-27122380D01*
X73664676Y-27074761D01*
X73712295Y-27027142D01*
X73759914Y-26931904D01*
X73759914Y-26693809D01*
X73712295Y-26598571D01*
X73664676Y-26550952D01*
X73569438Y-26503333D01*
X73378961Y-26503333D01*
X73283723Y-26550952D01*
X73236104Y-26598571D01*
X73188485Y-26693809D01*
X73048952Y-33726380D02*
X72477523Y-33726380D01*
X72763238Y-33726380D02*
X72763238Y-32726380D01*
X72668000Y-32869238D01*
X72572761Y-32964476D01*
X72477523Y-33012095D01*
X73668000Y-32726380D02*
X73763238Y-32726380D01*
X73858476Y-32774000D01*
X73906095Y-32821619D01*
X73953714Y-32916857D01*
X74001333Y-33107333D01*
X74001333Y-33345428D01*
X73953714Y-33535904D01*
X73906095Y-33631142D01*
X73858476Y-33678761D01*
X73763238Y-33726380D01*
X73668000Y-33726380D01*
X73572761Y-33678761D01*
X73525142Y-33631142D01*
X73477523Y-33535904D01*
X73429904Y-33345428D01*
X73429904Y-33107333D01*
X73477523Y-32916857D01*
X73525142Y-32821619D01*
X73572761Y-32774000D01*
X73668000Y-32726380D01*
X74620380Y-32726380D02*
X74715619Y-32726380D01*
X74810857Y-32774000D01*
X74858476Y-32821619D01*
X74906095Y-32916857D01*
X74953714Y-33107333D01*
X74953714Y-33345428D01*
X74906095Y-33535904D01*
X74858476Y-33631142D01*
X74810857Y-33678761D01*
X74715619Y-33726380D01*
X74620380Y-33726380D01*
X74525142Y-33678761D01*
X74477523Y-33631142D01*
X74429904Y-33535904D01*
X74382285Y-33345428D01*
X74382285Y-33107333D01*
X74429904Y-32916857D01*
X74477523Y-32821619D01*
X74525142Y-32774000D01*
X74620380Y-32726380D01*
X75382285Y-33059714D02*
X75382285Y-33726380D01*
X75382285Y-33154952D02*
X75429904Y-33107333D01*
X75525142Y-33059714D01*
X75668000Y-33059714D01*
X75763238Y-33107333D01*
X75810857Y-33202571D01*
X75810857Y-33726380D01*
%TO.C,C4*%
X64221984Y-69943142D02*
X64174365Y-69990761D01*
X64031508Y-70038380D01*
X63936270Y-70038380D01*
X63793412Y-69990761D01*
X63698174Y-69895523D01*
X63650555Y-69800285D01*
X63602936Y-69609809D01*
X63602936Y-69466952D01*
X63650555Y-69276476D01*
X63698174Y-69181238D01*
X63793412Y-69086000D01*
X63936270Y-69038380D01*
X64031508Y-69038380D01*
X64174365Y-69086000D01*
X64221984Y-69133619D01*
X65079127Y-69371714D02*
X65079127Y-70038380D01*
X64841031Y-68990761D02*
X64602936Y-69705047D01*
X65221984Y-69705047D01*
X64221984Y-68514380D02*
X63650555Y-68514380D01*
X63936270Y-68514380D02*
X63936270Y-67514380D01*
X63841031Y-67657238D01*
X63745793Y-67752476D01*
X63650555Y-67800095D01*
X64650555Y-67847714D02*
X64650555Y-68514380D01*
X64650555Y-67942952D02*
X64698174Y-67895333D01*
X64793412Y-67847714D01*
X64936270Y-67847714D01*
X65031508Y-67895333D01*
X65079127Y-67990571D01*
X65079127Y-68514380D01*
%TO.C,C5*%
X52096942Y-41721066D02*
X52144561Y-41768685D01*
X52192180Y-41911542D01*
X52192180Y-42006780D01*
X52144561Y-42149638D01*
X52049323Y-42244876D01*
X51954085Y-42292495D01*
X51763609Y-42340114D01*
X51620752Y-42340114D01*
X51430276Y-42292495D01*
X51335038Y-42244876D01*
X51239800Y-42149638D01*
X51192180Y-42006780D01*
X51192180Y-41911542D01*
X51239800Y-41768685D01*
X51287419Y-41721066D01*
X51192180Y-40816304D02*
X51192180Y-41292495D01*
X51668371Y-41340114D01*
X51620752Y-41292495D01*
X51573133Y-41197257D01*
X51573133Y-40959161D01*
X51620752Y-40863923D01*
X51668371Y-40816304D01*
X51763609Y-40768685D01*
X52001704Y-40768685D01*
X52096942Y-40816304D01*
X52144561Y-40863923D01*
X52192180Y-40959161D01*
X52192180Y-41197257D01*
X52144561Y-41292495D01*
X52096942Y-41340114D01*
X53973552Y-40127180D02*
X53402123Y-40127180D01*
X53687838Y-40127180D02*
X53687838Y-39127180D01*
X53592600Y-39270038D01*
X53497361Y-39365276D01*
X53402123Y-39412895D01*
X54592600Y-39127180D02*
X54687838Y-39127180D01*
X54783076Y-39174800D01*
X54830695Y-39222419D01*
X54878314Y-39317657D01*
X54925933Y-39508133D01*
X54925933Y-39746228D01*
X54878314Y-39936704D01*
X54830695Y-40031942D01*
X54783076Y-40079561D01*
X54687838Y-40127180D01*
X54592600Y-40127180D01*
X54497361Y-40079561D01*
X54449742Y-40031942D01*
X54402123Y-39936704D01*
X54354504Y-39746228D01*
X54354504Y-39508133D01*
X54402123Y-39317657D01*
X54449742Y-39222419D01*
X54497361Y-39174800D01*
X54592600Y-39127180D01*
X55544980Y-39127180D02*
X55640219Y-39127180D01*
X55735457Y-39174800D01*
X55783076Y-39222419D01*
X55830695Y-39317657D01*
X55878314Y-39508133D01*
X55878314Y-39746228D01*
X55830695Y-39936704D01*
X55783076Y-40031942D01*
X55735457Y-40079561D01*
X55640219Y-40127180D01*
X55544980Y-40127180D01*
X55449742Y-40079561D01*
X55402123Y-40031942D01*
X55354504Y-39936704D01*
X55306885Y-39746228D01*
X55306885Y-39508133D01*
X55354504Y-39317657D01*
X55402123Y-39222419D01*
X55449742Y-39174800D01*
X55544980Y-39127180D01*
X56306885Y-39460514D02*
X56306885Y-40127180D01*
X56306885Y-39555752D02*
X56354504Y-39508133D01*
X56449742Y-39460514D01*
X56592600Y-39460514D01*
X56687838Y-39508133D01*
X56735457Y-39603371D01*
X56735457Y-40127180D01*
%TO.C,J1*%
X58303150Y-29164460D02*
X59018780Y-29164460D01*
X59161906Y-29212169D01*
X59257323Y-29307586D01*
X59305032Y-29450712D01*
X59305032Y-29546130D01*
X59305032Y-28162578D02*
X59305032Y-28735082D01*
X59305032Y-28448830D02*
X58303150Y-28448830D01*
X58446276Y-28544248D01*
X58541693Y-28639665D01*
X58589402Y-28735082D01*
X59018621Y-26672418D02*
X59018621Y-26195786D01*
X59304601Y-26767745D02*
X58303672Y-26434102D01*
X59304601Y-26100459D01*
X59304601Y-25766816D02*
X58303672Y-25766816D01*
X59304601Y-25194857D01*
X58303672Y-25194857D01*
X58303672Y-24861214D02*
X58303672Y-24289254D01*
X59304601Y-24575234D02*
X58303672Y-24575234D01*
%TO.C,J5*%
X95399266Y-68032380D02*
X95399266Y-68746666D01*
X95351647Y-68889523D01*
X95256409Y-68984761D01*
X95113552Y-69032380D01*
X95018314Y-69032380D01*
X96351647Y-68032380D02*
X95875457Y-68032380D01*
X95827838Y-68508571D01*
X95875457Y-68460952D01*
X95970695Y-68413333D01*
X96208790Y-68413333D01*
X96304028Y-68460952D01*
X96351647Y-68508571D01*
X96399266Y-68603809D01*
X96399266Y-68841904D01*
X96351647Y-68937142D01*
X96304028Y-68984761D01*
X96208790Y-69032380D01*
X95970695Y-69032380D01*
X95875457Y-68984761D01*
X95827838Y-68937142D01*
X101036666Y-68746666D02*
X101512857Y-68746666D01*
X100941428Y-69032380D02*
X101274761Y-68032380D01*
X101608095Y-69032380D01*
X102370000Y-68365714D02*
X102370000Y-69032380D01*
X101941428Y-68365714D02*
X101941428Y-68889523D01*
X101989047Y-68984761D01*
X102084285Y-69032380D01*
X102227142Y-69032380D01*
X102322380Y-68984761D01*
X102370000Y-68937142D01*
X103274761Y-69032380D02*
X103274761Y-68032380D01*
X103274761Y-68984761D02*
X103179523Y-69032380D01*
X102989047Y-69032380D01*
X102893809Y-68984761D01*
X102846190Y-68937142D01*
X102798571Y-68841904D01*
X102798571Y-68556190D01*
X102846190Y-68460952D01*
X102893809Y-68413333D01*
X102989047Y-68365714D01*
X103179523Y-68365714D01*
X103274761Y-68413333D01*
X103750952Y-69032380D02*
X103750952Y-68365714D01*
X103750952Y-68032380D02*
X103703333Y-68080000D01*
X103750952Y-68127619D01*
X103798571Y-68080000D01*
X103750952Y-68032380D01*
X103750952Y-68127619D01*
X104370000Y-69032380D02*
X104274761Y-68984761D01*
X104227142Y-68937142D01*
X104179523Y-68841904D01*
X104179523Y-68556190D01*
X104227142Y-68460952D01*
X104274761Y-68413333D01*
X104370000Y-68365714D01*
X104512857Y-68365714D01*
X104608095Y-68413333D01*
X104655714Y-68460952D01*
X104703333Y-68556190D01*
X104703333Y-68841904D01*
X104655714Y-68937142D01*
X104608095Y-68984761D01*
X104512857Y-69032380D01*
X104370000Y-69032380D01*
%TO.C,TP3*%
X56167495Y-58659780D02*
X56738923Y-58659780D01*
X56453209Y-59659780D02*
X56453209Y-58659780D01*
X57072257Y-59659780D02*
X57072257Y-58659780D01*
X57453209Y-58659780D01*
X57548447Y-58707400D01*
X57596066Y-58755019D01*
X57643685Y-58850257D01*
X57643685Y-58993114D01*
X57596066Y-59088352D01*
X57548447Y-59135971D01*
X57453209Y-59183590D01*
X57072257Y-59183590D01*
X57977019Y-58659780D02*
X58596066Y-58659780D01*
X58262733Y-59040733D01*
X58405590Y-59040733D01*
X58500828Y-59088352D01*
X58548447Y-59135971D01*
X58596066Y-59231209D01*
X58596066Y-59469304D01*
X58548447Y-59564542D01*
X58500828Y-59612161D01*
X58405590Y-59659780D01*
X58119876Y-59659780D01*
X58024638Y-59612161D01*
X57977019Y-59564542D01*
%TO.C,R3*%
X76541333Y-31948380D02*
X76208000Y-31472190D01*
X75969904Y-31948380D02*
X75969904Y-30948380D01*
X76350857Y-30948380D01*
X76446095Y-30996000D01*
X76493714Y-31043619D01*
X76541333Y-31138857D01*
X76541333Y-31281714D01*
X76493714Y-31376952D01*
X76446095Y-31424571D01*
X76350857Y-31472190D01*
X75969904Y-31472190D01*
X76874666Y-30948380D02*
X77493714Y-30948380D01*
X77160380Y-31329333D01*
X77303238Y-31329333D01*
X77398476Y-31376952D01*
X77446095Y-31424571D01*
X77493714Y-31519809D01*
X77493714Y-31757904D01*
X77446095Y-31853142D01*
X77398476Y-31900761D01*
X77303238Y-31948380D01*
X77017523Y-31948380D01*
X76922285Y-31900761D01*
X76874666Y-31853142D01*
X74585676Y-24445980D02*
X75252342Y-24445980D01*
X74823771Y-25445980D01*
X76109485Y-24445980D02*
X75633295Y-24445980D01*
X75585676Y-24922171D01*
X75633295Y-24874552D01*
X75728533Y-24826933D01*
X75966628Y-24826933D01*
X76061866Y-24874552D01*
X76109485Y-24922171D01*
X76157104Y-25017409D01*
X76157104Y-25255504D01*
X76109485Y-25350742D01*
X76061866Y-25398361D01*
X75966628Y-25445980D01*
X75728533Y-25445980D01*
X75633295Y-25398361D01*
X75585676Y-25350742D01*
X77157104Y-25445980D02*
X76823771Y-24969790D01*
X76585676Y-25445980D02*
X76585676Y-24445980D01*
X76966628Y-24445980D01*
X77061866Y-24493600D01*
X77109485Y-24541219D01*
X77157104Y-24636457D01*
X77157104Y-24779314D01*
X77109485Y-24874552D01*
X77061866Y-24922171D01*
X76966628Y-24969790D01*
X76585676Y-24969790D01*
%TO.C,C10*%
X98417142Y-57507142D02*
X98369523Y-57554761D01*
X98226666Y-57602380D01*
X98131428Y-57602380D01*
X97988571Y-57554761D01*
X97893333Y-57459523D01*
X97845714Y-57364285D01*
X97798095Y-57173809D01*
X97798095Y-57030952D01*
X97845714Y-56840476D01*
X97893333Y-56745238D01*
X97988571Y-56650000D01*
X98131428Y-56602380D01*
X98226666Y-56602380D01*
X98369523Y-56650000D01*
X98417142Y-56697619D01*
X99369523Y-57602380D02*
X98798095Y-57602380D01*
X99083809Y-57602380D02*
X99083809Y-56602380D01*
X98988571Y-56745238D01*
X98893333Y-56840476D01*
X98798095Y-56888095D01*
X99988571Y-56602380D02*
X100083809Y-56602380D01*
X100179047Y-56650000D01*
X100226666Y-56697619D01*
X100274285Y-56792857D01*
X100321904Y-56983333D01*
X100321904Y-57221428D01*
X100274285Y-57411904D01*
X100226666Y-57507142D01*
X100179047Y-57554761D01*
X100083809Y-57602380D01*
X99988571Y-57602380D01*
X99893333Y-57554761D01*
X99845714Y-57507142D01*
X99798095Y-57411904D01*
X99750476Y-57221428D01*
X99750476Y-56983333D01*
X99798095Y-56792857D01*
X99845714Y-56697619D01*
X99893333Y-56650000D01*
X99988571Y-56602380D01*
X97734380Y-53951047D02*
X97734380Y-54522476D01*
X97734380Y-54236761D02*
X96734380Y-54236761D01*
X96877238Y-54332000D01*
X96972476Y-54427238D01*
X97020095Y-54522476D01*
X96734380Y-53332000D02*
X96734380Y-53236761D01*
X96782000Y-53141523D01*
X96829619Y-53093904D01*
X96924857Y-53046285D01*
X97115333Y-52998666D01*
X97353428Y-52998666D01*
X97543904Y-53046285D01*
X97639142Y-53093904D01*
X97686761Y-53141523D01*
X97734380Y-53236761D01*
X97734380Y-53332000D01*
X97686761Y-53427238D01*
X97639142Y-53474857D01*
X97543904Y-53522476D01*
X97353428Y-53570095D01*
X97115333Y-53570095D01*
X96924857Y-53522476D01*
X96829619Y-53474857D01*
X96782000Y-53427238D01*
X96734380Y-53332000D01*
X96734380Y-52379619D02*
X96734380Y-52284380D01*
X96782000Y-52189142D01*
X96829619Y-52141523D01*
X96924857Y-52093904D01*
X97115333Y-52046285D01*
X97353428Y-52046285D01*
X97543904Y-52093904D01*
X97639142Y-52141523D01*
X97686761Y-52189142D01*
X97734380Y-52284380D01*
X97734380Y-52379619D01*
X97686761Y-52474857D01*
X97639142Y-52522476D01*
X97543904Y-52570095D01*
X97353428Y-52617714D01*
X97115333Y-52617714D01*
X96924857Y-52570095D01*
X96829619Y-52522476D01*
X96782000Y-52474857D01*
X96734380Y-52379619D01*
X97067714Y-51617714D02*
X97734380Y-51617714D01*
X97162952Y-51617714D02*
X97115333Y-51570095D01*
X97067714Y-51474857D01*
X97067714Y-51332000D01*
X97115333Y-51236761D01*
X97210571Y-51189142D01*
X97734380Y-51189142D01*
%TO.C,R1*%
X66253984Y-64704380D02*
X65920651Y-64228190D01*
X65682555Y-64704380D02*
X65682555Y-63704380D01*
X66063508Y-63704380D01*
X66158746Y-63752000D01*
X66206365Y-63799619D01*
X66253984Y-63894857D01*
X66253984Y-64037714D01*
X66206365Y-64132952D01*
X66158746Y-64180571D01*
X66063508Y-64228190D01*
X65682555Y-64228190D01*
X67206365Y-64704380D02*
X66634936Y-64704380D01*
X66920651Y-64704380D02*
X66920651Y-63704380D01*
X66825412Y-63847238D01*
X66730174Y-63942476D01*
X66634936Y-63990095D01*
X63094936Y-65053714D02*
X63094936Y-65720380D01*
X62856841Y-64672761D02*
X62618746Y-65387047D01*
X63237793Y-65387047D01*
X63523508Y-64720380D02*
X64190174Y-64720380D01*
X63761603Y-65720380D01*
X64571127Y-65720380D02*
X64571127Y-64720380D01*
X65142555Y-65720380D02*
X64713984Y-65148952D01*
X65142555Y-64720380D02*
X64571127Y-65291809D01*
%TO.C,C3*%
X53071733Y-66397142D02*
X53024114Y-66444761D01*
X52881257Y-66492380D01*
X52786019Y-66492380D01*
X52643161Y-66444761D01*
X52547923Y-66349523D01*
X52500304Y-66254285D01*
X52452685Y-66063809D01*
X52452685Y-65920952D01*
X52500304Y-65730476D01*
X52547923Y-65635238D01*
X52643161Y-65540000D01*
X52786019Y-65492380D01*
X52881257Y-65492380D01*
X53024114Y-65540000D01*
X53071733Y-65587619D01*
X53405066Y-65492380D02*
X54024114Y-65492380D01*
X53690780Y-65873333D01*
X53833638Y-65873333D01*
X53928876Y-65920952D01*
X53976495Y-65968571D01*
X54024114Y-66063809D01*
X54024114Y-66301904D01*
X53976495Y-66397142D01*
X53928876Y-66444761D01*
X53833638Y-66492380D01*
X53547923Y-66492380D01*
X53452685Y-66444761D01*
X53405066Y-66397142D01*
X50468304Y-67349714D02*
X50468304Y-68016380D01*
X50230209Y-66968761D02*
X49992114Y-67683047D01*
X50611161Y-67683047D01*
X50896876Y-67016380D02*
X51563542Y-67016380D01*
X51134971Y-68016380D01*
X52373066Y-67349714D02*
X52373066Y-68016380D01*
X51944495Y-67349714D02*
X51944495Y-67873523D01*
X51992114Y-67968761D01*
X52087352Y-68016380D01*
X52230209Y-68016380D01*
X52325447Y-67968761D01*
X52373066Y-67921142D01*
%TO.C,U2*%
X57937495Y-43673780D02*
X57937495Y-44483304D01*
X57985114Y-44578542D01*
X58032733Y-44626161D01*
X58127971Y-44673780D01*
X58318447Y-44673780D01*
X58413685Y-44626161D01*
X58461304Y-44578542D01*
X58508923Y-44483304D01*
X58508923Y-43673780D01*
X58937495Y-43769019D02*
X58985114Y-43721400D01*
X59080352Y-43673780D01*
X59318447Y-43673780D01*
X59413685Y-43721400D01*
X59461304Y-43769019D01*
X59508923Y-43864257D01*
X59508923Y-43959495D01*
X59461304Y-44102352D01*
X58889876Y-44673780D01*
X59508923Y-44673780D01*
X53127542Y-55522761D02*
X53270400Y-55570380D01*
X53508495Y-55570380D01*
X53603733Y-55522761D01*
X53651352Y-55475142D01*
X53698971Y-55379904D01*
X53698971Y-55284666D01*
X53651352Y-55189428D01*
X53603733Y-55141809D01*
X53508495Y-55094190D01*
X53318019Y-55046571D01*
X53222780Y-54998952D01*
X53175161Y-54951333D01*
X53127542Y-54856095D01*
X53127542Y-54760857D01*
X53175161Y-54665619D01*
X53222780Y-54618000D01*
X53318019Y-54570380D01*
X53556114Y-54570380D01*
X53698971Y-54618000D01*
X54079923Y-55284666D02*
X54556114Y-55284666D01*
X53984685Y-55570380D02*
X54318019Y-54570380D01*
X54651352Y-55570380D01*
X55413257Y-54570380D02*
X55222780Y-54570380D01*
X55127542Y-54618000D01*
X55079923Y-54665619D01*
X54984685Y-54808476D01*
X54937066Y-54998952D01*
X54937066Y-55379904D01*
X54984685Y-55475142D01*
X55032304Y-55522761D01*
X55127542Y-55570380D01*
X55318019Y-55570380D01*
X55413257Y-55522761D01*
X55460876Y-55475142D01*
X55508495Y-55379904D01*
X55508495Y-55141809D01*
X55460876Y-55046571D01*
X55413257Y-54998952D01*
X55318019Y-54951333D01*
X55127542Y-54951333D01*
X55032304Y-54998952D01*
X54984685Y-55046571D01*
X54937066Y-55141809D01*
X56460876Y-55570380D02*
X55889447Y-55570380D01*
X56175161Y-55570380D02*
X56175161Y-54570380D01*
X56079923Y-54713238D01*
X55984685Y-54808476D01*
X55889447Y-54856095D01*
X56841828Y-54665619D02*
X56889447Y-54618000D01*
X56984685Y-54570380D01*
X57222780Y-54570380D01*
X57318019Y-54618000D01*
X57365638Y-54665619D01*
X57413257Y-54760857D01*
X57413257Y-54856095D01*
X57365638Y-54998952D01*
X56794209Y-55570380D01*
X57413257Y-55570380D01*
%TO.C,J3*%
X87042666Y-23836380D02*
X87042666Y-24550666D01*
X86995047Y-24693523D01*
X86899809Y-24788761D01*
X86756952Y-24836380D01*
X86661714Y-24836380D01*
X87423619Y-23836380D02*
X88042666Y-23836380D01*
X87709333Y-24217333D01*
X87852190Y-24217333D01*
X87947428Y-24264952D01*
X87995047Y-24312571D01*
X88042666Y-24407809D01*
X88042666Y-24645904D01*
X87995047Y-24741142D01*
X87947428Y-24788761D01*
X87852190Y-24836380D01*
X87566476Y-24836380D01*
X87471238Y-24788761D01*
X87423619Y-24741142D01*
X87339514Y-26639780D02*
X86863323Y-26639780D01*
X86863323Y-25639780D01*
X87863323Y-25639780D02*
X88053800Y-25639780D01*
X88149038Y-25687400D01*
X88244276Y-25782638D01*
X88291895Y-25973114D01*
X88291895Y-26306447D01*
X88244276Y-26496923D01*
X88149038Y-26592161D01*
X88053800Y-26639780D01*
X87863323Y-26639780D01*
X87768085Y-26592161D01*
X87672847Y-26496923D01*
X87625228Y-26306447D01*
X87625228Y-25973114D01*
X87672847Y-25782638D01*
X87768085Y-25687400D01*
X87863323Y-25639780D01*
%TO.C,C14*%
X71160793Y-75277142D02*
X71113174Y-75324761D01*
X70970317Y-75372380D01*
X70875079Y-75372380D01*
X70732222Y-75324761D01*
X70636984Y-75229523D01*
X70589365Y-75134285D01*
X70541746Y-74943809D01*
X70541746Y-74800952D01*
X70589365Y-74610476D01*
X70636984Y-74515238D01*
X70732222Y-74420000D01*
X70875079Y-74372380D01*
X70970317Y-74372380D01*
X71113174Y-74420000D01*
X71160793Y-74467619D01*
X72113174Y-75372380D02*
X71541746Y-75372380D01*
X71827460Y-75372380D02*
X71827460Y-74372380D01*
X71732222Y-74515238D01*
X71636984Y-74610476D01*
X71541746Y-74658095D01*
X72970317Y-74705714D02*
X72970317Y-75372380D01*
X72732222Y-74324761D02*
X72494127Y-75039047D01*
X73113174Y-75039047D01*
X69990952Y-73594380D02*
X69419523Y-73594380D01*
X69705238Y-73594380D02*
X69705238Y-72594380D01*
X69610000Y-72737238D01*
X69514761Y-72832476D01*
X69419523Y-72880095D01*
X70610000Y-72594380D02*
X70705238Y-72594380D01*
X70800476Y-72642000D01*
X70848095Y-72689619D01*
X70895714Y-72784857D01*
X70943333Y-72975333D01*
X70943333Y-73213428D01*
X70895714Y-73403904D01*
X70848095Y-73499142D01*
X70800476Y-73546761D01*
X70705238Y-73594380D01*
X70610000Y-73594380D01*
X70514761Y-73546761D01*
X70467142Y-73499142D01*
X70419523Y-73403904D01*
X70371904Y-73213428D01*
X70371904Y-72975333D01*
X70419523Y-72784857D01*
X70467142Y-72689619D01*
X70514761Y-72642000D01*
X70610000Y-72594380D01*
X71562380Y-72594380D02*
X71657619Y-72594380D01*
X71752857Y-72642000D01*
X71800476Y-72689619D01*
X71848095Y-72784857D01*
X71895714Y-72975333D01*
X71895714Y-73213428D01*
X71848095Y-73403904D01*
X71800476Y-73499142D01*
X71752857Y-73546761D01*
X71657619Y-73594380D01*
X71562380Y-73594380D01*
X71467142Y-73546761D01*
X71419523Y-73499142D01*
X71371904Y-73403904D01*
X71324285Y-73213428D01*
X71324285Y-72975333D01*
X71371904Y-72784857D01*
X71419523Y-72689619D01*
X71467142Y-72642000D01*
X71562380Y-72594380D01*
X72324285Y-72927714D02*
X72324285Y-73594380D01*
X72324285Y-73022952D02*
X72371904Y-72975333D01*
X72467142Y-72927714D01*
X72610000Y-72927714D01*
X72705238Y-72975333D01*
X72752857Y-73070571D01*
X72752857Y-73594380D01*
%TO.C,D1*%
X115873304Y-34793180D02*
X115873304Y-33793180D01*
X116111400Y-33793180D01*
X116254257Y-33840800D01*
X116349495Y-33936038D01*
X116397114Y-34031276D01*
X116444733Y-34221752D01*
X116444733Y-34364609D01*
X116397114Y-34555085D01*
X116349495Y-34650323D01*
X116254257Y-34745561D01*
X116111400Y-34793180D01*
X115873304Y-34793180D01*
X117397114Y-34793180D02*
X116825685Y-34793180D01*
X117111400Y-34793180D02*
X117111400Y-33793180D01*
X117016161Y-33936038D01*
X116920923Y-34031276D01*
X116825685Y-34078895D01*
X115816142Y-41625780D02*
X115339952Y-41625780D01*
X115339952Y-40625780D01*
X116149476Y-41101971D02*
X116482809Y-41101971D01*
X116625666Y-41625780D02*
X116149476Y-41625780D01*
X116149476Y-40625780D01*
X116625666Y-40625780D01*
X117054238Y-41625780D02*
X117054238Y-40625780D01*
X117292333Y-40625780D01*
X117435190Y-40673400D01*
X117530428Y-40768638D01*
X117578047Y-40863876D01*
X117625666Y-41054352D01*
X117625666Y-41197209D01*
X117578047Y-41387685D01*
X117530428Y-41482923D01*
X117435190Y-41578161D01*
X117292333Y-41625780D01*
X117054238Y-41625780D01*
%TO.C,D2*%
X99668104Y-45080180D02*
X99668104Y-44080180D01*
X99906200Y-44080180D01*
X100049057Y-44127800D01*
X100144295Y-44223038D01*
X100191914Y-44318276D01*
X100239533Y-44508752D01*
X100239533Y-44651609D01*
X100191914Y-44842085D01*
X100144295Y-44937323D01*
X100049057Y-45032561D01*
X99906200Y-45080180D01*
X99668104Y-45080180D01*
X100620485Y-44175419D02*
X100668104Y-44127800D01*
X100763342Y-44080180D01*
X101001438Y-44080180D01*
X101096676Y-44127800D01*
X101144295Y-44175419D01*
X101191914Y-44270657D01*
X101191914Y-44365895D01*
X101144295Y-44508752D01*
X100572866Y-45080180D01*
X101191914Y-45080180D01*
X105451542Y-45207180D02*
X104880114Y-45207180D01*
X105165828Y-45207180D02*
X105165828Y-44207180D01*
X105070590Y-44350038D01*
X104975352Y-44445276D01*
X104880114Y-44492895D01*
X105880114Y-45207180D02*
X105880114Y-44207180D01*
X106451542Y-45207180D01*
X106451542Y-44207180D01*
X107356304Y-44540514D02*
X107356304Y-45207180D01*
X107118209Y-44159561D02*
X106880114Y-44873847D01*
X107499161Y-44873847D01*
X108070590Y-44207180D02*
X108165828Y-44207180D01*
X108261066Y-44254800D01*
X108308685Y-44302419D01*
X108356304Y-44397657D01*
X108403923Y-44588133D01*
X108403923Y-44826228D01*
X108356304Y-45016704D01*
X108308685Y-45111942D01*
X108261066Y-45159561D01*
X108165828Y-45207180D01*
X108070590Y-45207180D01*
X107975352Y-45159561D01*
X107927733Y-45111942D01*
X107880114Y-45016704D01*
X107832495Y-44826228D01*
X107832495Y-44588133D01*
X107880114Y-44397657D01*
X107927733Y-44302419D01*
X107975352Y-44254800D01*
X108070590Y-44207180D01*
X109022971Y-44207180D02*
X109118209Y-44207180D01*
X109213447Y-44254800D01*
X109261066Y-44302419D01*
X109308685Y-44397657D01*
X109356304Y-44588133D01*
X109356304Y-44826228D01*
X109308685Y-45016704D01*
X109261066Y-45111942D01*
X109213447Y-45159561D01*
X109118209Y-45207180D01*
X109022971Y-45207180D01*
X108927733Y-45159561D01*
X108880114Y-45111942D01*
X108832495Y-45016704D01*
X108784876Y-44826228D01*
X108784876Y-44588133D01*
X108832495Y-44397657D01*
X108880114Y-44302419D01*
X108927733Y-44254800D01*
X109022971Y-44207180D01*
X110213447Y-44540514D02*
X110213447Y-45207180D01*
X109975352Y-44159561D02*
X109737257Y-44873847D01*
X110356304Y-44873847D01*
%TO.C,C13*%
X87192142Y-66397142D02*
X87144523Y-66444761D01*
X87001666Y-66492380D01*
X86906428Y-66492380D01*
X86763571Y-66444761D01*
X86668333Y-66349523D01*
X86620714Y-66254285D01*
X86573095Y-66063809D01*
X86573095Y-65920952D01*
X86620714Y-65730476D01*
X86668333Y-65635238D01*
X86763571Y-65540000D01*
X86906428Y-65492380D01*
X87001666Y-65492380D01*
X87144523Y-65540000D01*
X87192142Y-65587619D01*
X88144523Y-66492380D02*
X87573095Y-66492380D01*
X87858809Y-66492380D02*
X87858809Y-65492380D01*
X87763571Y-65635238D01*
X87668333Y-65730476D01*
X87573095Y-65778095D01*
X88477857Y-65492380D02*
X89096904Y-65492380D01*
X88763571Y-65873333D01*
X88906428Y-65873333D01*
X89001666Y-65920952D01*
X89049285Y-65968571D01*
X89096904Y-66063809D01*
X89096904Y-66301904D01*
X89049285Y-66397142D01*
X89001666Y-66444761D01*
X88906428Y-66492380D01*
X88620714Y-66492380D01*
X88525476Y-66444761D01*
X88477857Y-66397142D01*
X87223952Y-67762380D02*
X86652523Y-67762380D01*
X86938238Y-67762380D02*
X86938238Y-66762380D01*
X86843000Y-66905238D01*
X86747761Y-67000476D01*
X86652523Y-67048095D01*
X87843000Y-66762380D02*
X87938238Y-66762380D01*
X88033476Y-66810000D01*
X88081095Y-66857619D01*
X88128714Y-66952857D01*
X88176333Y-67143333D01*
X88176333Y-67381428D01*
X88128714Y-67571904D01*
X88081095Y-67667142D01*
X88033476Y-67714761D01*
X87938238Y-67762380D01*
X87843000Y-67762380D01*
X87747761Y-67714761D01*
X87700142Y-67667142D01*
X87652523Y-67571904D01*
X87604904Y-67381428D01*
X87604904Y-67143333D01*
X87652523Y-66952857D01*
X87700142Y-66857619D01*
X87747761Y-66810000D01*
X87843000Y-66762380D01*
X88795380Y-66762380D02*
X88890619Y-66762380D01*
X88985857Y-66810000D01*
X89033476Y-66857619D01*
X89081095Y-66952857D01*
X89128714Y-67143333D01*
X89128714Y-67381428D01*
X89081095Y-67571904D01*
X89033476Y-67667142D01*
X88985857Y-67714761D01*
X88890619Y-67762380D01*
X88795380Y-67762380D01*
X88700142Y-67714761D01*
X88652523Y-67667142D01*
X88604904Y-67571904D01*
X88557285Y-67381428D01*
X88557285Y-67143333D01*
X88604904Y-66952857D01*
X88652523Y-66857619D01*
X88700142Y-66810000D01*
X88795380Y-66762380D01*
X89557285Y-67095714D02*
X89557285Y-67762380D01*
X89557285Y-67190952D02*
X89604904Y-67143333D01*
X89700142Y-67095714D01*
X89843000Y-67095714D01*
X89938238Y-67143333D01*
X89985857Y-67238571D01*
X89985857Y-67762380D01*
%TO.C,C1*%
X50547542Y-55792666D02*
X50595161Y-55840285D01*
X50642780Y-55983142D01*
X50642780Y-56078380D01*
X50595161Y-56221238D01*
X50499923Y-56316476D01*
X50404685Y-56364095D01*
X50214209Y-56411714D01*
X50071352Y-56411714D01*
X49880876Y-56364095D01*
X49785638Y-56316476D01*
X49690400Y-56221238D01*
X49642780Y-56078380D01*
X49642780Y-55983142D01*
X49690400Y-55840285D01*
X49738019Y-55792666D01*
X50642780Y-54840285D02*
X50642780Y-55411714D01*
X50642780Y-55126000D02*
X49642780Y-55126000D01*
X49785638Y-55221238D01*
X49880876Y-55316476D01*
X49928495Y-55411714D01*
X44038780Y-56999047D02*
X44038780Y-57570476D01*
X44038780Y-57284761D02*
X43038780Y-57284761D01*
X43181638Y-57380000D01*
X43276876Y-57475238D01*
X43324495Y-57570476D01*
X43038780Y-56380000D02*
X43038780Y-56284761D01*
X43086400Y-56189523D01*
X43134019Y-56141904D01*
X43229257Y-56094285D01*
X43419733Y-56046666D01*
X43657828Y-56046666D01*
X43848304Y-56094285D01*
X43943542Y-56141904D01*
X43991161Y-56189523D01*
X44038780Y-56284761D01*
X44038780Y-56380000D01*
X43991161Y-56475238D01*
X43943542Y-56522857D01*
X43848304Y-56570476D01*
X43657828Y-56618095D01*
X43419733Y-56618095D01*
X43229257Y-56570476D01*
X43134019Y-56522857D01*
X43086400Y-56475238D01*
X43038780Y-56380000D01*
X43038780Y-55427619D02*
X43038780Y-55332380D01*
X43086400Y-55237142D01*
X43134019Y-55189523D01*
X43229257Y-55141904D01*
X43419733Y-55094285D01*
X43657828Y-55094285D01*
X43848304Y-55141904D01*
X43943542Y-55189523D01*
X43991161Y-55237142D01*
X44038780Y-55332380D01*
X44038780Y-55427619D01*
X43991161Y-55522857D01*
X43943542Y-55570476D01*
X43848304Y-55618095D01*
X43657828Y-55665714D01*
X43419733Y-55665714D01*
X43229257Y-55618095D01*
X43134019Y-55570476D01*
X43086400Y-55522857D01*
X43038780Y-55427619D01*
X43372114Y-54665714D02*
X44038780Y-54665714D01*
X43467352Y-54665714D02*
X43419733Y-54618095D01*
X43372114Y-54522857D01*
X43372114Y-54380000D01*
X43419733Y-54284761D01*
X43514971Y-54237142D01*
X44038780Y-54237142D01*
%TO.C,TP4*%
X65209895Y-73366380D02*
X65781323Y-73366380D01*
X65495609Y-74366380D02*
X65495609Y-73366380D01*
X66114657Y-74366380D02*
X66114657Y-73366380D01*
X66495609Y-73366380D01*
X66590847Y-73414000D01*
X66638466Y-73461619D01*
X66686085Y-73556857D01*
X66686085Y-73699714D01*
X66638466Y-73794952D01*
X66590847Y-73842571D01*
X66495609Y-73890190D01*
X66114657Y-73890190D01*
X67543228Y-73699714D02*
X67543228Y-74366380D01*
X67305133Y-73318761D02*
X67067038Y-74033047D01*
X67686085Y-74033047D01*
%TO.C,C12*%
X76827142Y-49379142D02*
X76779523Y-49426761D01*
X76636666Y-49474380D01*
X76541428Y-49474380D01*
X76398571Y-49426761D01*
X76303333Y-49331523D01*
X76255714Y-49236285D01*
X76208095Y-49045809D01*
X76208095Y-48902952D01*
X76255714Y-48712476D01*
X76303333Y-48617238D01*
X76398571Y-48522000D01*
X76541428Y-48474380D01*
X76636666Y-48474380D01*
X76779523Y-48522000D01*
X76827142Y-48569619D01*
X77779523Y-49474380D02*
X77208095Y-49474380D01*
X77493809Y-49474380D02*
X77493809Y-48474380D01*
X77398571Y-48617238D01*
X77303333Y-48712476D01*
X77208095Y-48760095D01*
X78160476Y-48569619D02*
X78208095Y-48522000D01*
X78303333Y-48474380D01*
X78541428Y-48474380D01*
X78636666Y-48522000D01*
X78684285Y-48569619D01*
X78731904Y-48664857D01*
X78731904Y-48760095D01*
X78684285Y-48902952D01*
X78112857Y-49474380D01*
X78731904Y-49474380D01*
X79621142Y-50744380D02*
X79049714Y-50744380D01*
X79335428Y-50744380D02*
X79335428Y-49744380D01*
X79240190Y-49887238D01*
X79144952Y-49982476D01*
X79049714Y-50030095D01*
X80240190Y-49744380D02*
X80335428Y-49744380D01*
X80430666Y-49792000D01*
X80478285Y-49839619D01*
X80525904Y-49934857D01*
X80573523Y-50125333D01*
X80573523Y-50363428D01*
X80525904Y-50553904D01*
X80478285Y-50649142D01*
X80430666Y-50696761D01*
X80335428Y-50744380D01*
X80240190Y-50744380D01*
X80144952Y-50696761D01*
X80097333Y-50649142D01*
X80049714Y-50553904D01*
X80002095Y-50363428D01*
X80002095Y-50125333D01*
X80049714Y-49934857D01*
X80097333Y-49839619D01*
X80144952Y-49792000D01*
X80240190Y-49744380D01*
X81430666Y-50077714D02*
X81430666Y-50744380D01*
X81002095Y-50077714D02*
X81002095Y-50601523D01*
X81049714Y-50696761D01*
X81144952Y-50744380D01*
X81287809Y-50744380D01*
X81383047Y-50696761D01*
X81430666Y-50649142D01*
%TO.C,TP2*%
X47582295Y-39152580D02*
X48153723Y-39152580D01*
X47868009Y-40152580D02*
X47868009Y-39152580D01*
X48487057Y-40152580D02*
X48487057Y-39152580D01*
X48868009Y-39152580D01*
X48963247Y-39200200D01*
X49010866Y-39247819D01*
X49058485Y-39343057D01*
X49058485Y-39485914D01*
X49010866Y-39581152D01*
X48963247Y-39628771D01*
X48868009Y-39676390D01*
X48487057Y-39676390D01*
X49439438Y-39247819D02*
X49487057Y-39200200D01*
X49582295Y-39152580D01*
X49820390Y-39152580D01*
X49915628Y-39200200D01*
X49963247Y-39247819D01*
X50010866Y-39343057D01*
X50010866Y-39438295D01*
X49963247Y-39581152D01*
X49391819Y-40152580D01*
X50010866Y-40152580D01*
%TO.C,R5*%
X89495333Y-30170380D02*
X89162000Y-29694190D01*
X88923904Y-30170380D02*
X88923904Y-29170380D01*
X89304857Y-29170380D01*
X89400095Y-29218000D01*
X89447714Y-29265619D01*
X89495333Y-29360857D01*
X89495333Y-29503714D01*
X89447714Y-29598952D01*
X89400095Y-29646571D01*
X89304857Y-29694190D01*
X88923904Y-29694190D01*
X90400095Y-29170380D02*
X89923904Y-29170380D01*
X89876285Y-29646571D01*
X89923904Y-29598952D01*
X90019142Y-29551333D01*
X90257238Y-29551333D01*
X90352476Y-29598952D01*
X90400095Y-29646571D01*
X90447714Y-29741809D01*
X90447714Y-29979904D01*
X90400095Y-30075142D01*
X90352476Y-30122761D01*
X90257238Y-30170380D01*
X90019142Y-30170380D01*
X89923904Y-30122761D01*
X89876285Y-30075142D01*
X85607476Y-30948380D02*
X86274142Y-30948380D01*
X85845571Y-31948380D01*
X87131285Y-30948380D02*
X86655095Y-30948380D01*
X86607476Y-31424571D01*
X86655095Y-31376952D01*
X86750333Y-31329333D01*
X86988428Y-31329333D01*
X87083666Y-31376952D01*
X87131285Y-31424571D01*
X87178904Y-31519809D01*
X87178904Y-31757904D01*
X87131285Y-31853142D01*
X87083666Y-31900761D01*
X86988428Y-31948380D01*
X86750333Y-31948380D01*
X86655095Y-31900761D01*
X86607476Y-31853142D01*
X88178904Y-31948380D02*
X87845571Y-31472190D01*
X87607476Y-31948380D02*
X87607476Y-30948380D01*
X87988428Y-30948380D01*
X88083666Y-30996000D01*
X88131285Y-31043619D01*
X88178904Y-31138857D01*
X88178904Y-31281714D01*
X88131285Y-31376952D01*
X88083666Y-31424571D01*
X87988428Y-31472190D01*
X87607476Y-31472190D01*
%TO.C,TP1*%
X33282095Y-28078180D02*
X33853523Y-28078180D01*
X33567809Y-29078180D02*
X33567809Y-28078180D01*
X34186857Y-29078180D02*
X34186857Y-28078180D01*
X34567809Y-28078180D01*
X34663047Y-28125800D01*
X34710666Y-28173419D01*
X34758285Y-28268657D01*
X34758285Y-28411514D01*
X34710666Y-28506752D01*
X34663047Y-28554371D01*
X34567809Y-28601990D01*
X34186857Y-28601990D01*
X35710666Y-29078180D02*
X35139238Y-29078180D01*
X35424952Y-29078180D02*
X35424952Y-28078180D01*
X35329714Y-28221038D01*
X35234476Y-28316276D01*
X35139238Y-28363895D01*
%TO.C,R6*%
X109570780Y-39333466D02*
X109094590Y-39666800D01*
X109570780Y-39904895D02*
X108570780Y-39904895D01*
X108570780Y-39523942D01*
X108618400Y-39428704D01*
X108666019Y-39381085D01*
X108761257Y-39333466D01*
X108904114Y-39333466D01*
X108999352Y-39381085D01*
X109046971Y-39428704D01*
X109094590Y-39523942D01*
X109094590Y-39904895D01*
X108570780Y-38476323D02*
X108570780Y-38666800D01*
X108618400Y-38762038D01*
X108666019Y-38809657D01*
X108808876Y-38904895D01*
X108999352Y-38952514D01*
X109380304Y-38952514D01*
X109475542Y-38904895D01*
X109523161Y-38857276D01*
X109570780Y-38762038D01*
X109570780Y-38571561D01*
X109523161Y-38476323D01*
X109475542Y-38428704D01*
X109380304Y-38381085D01*
X109142209Y-38381085D01*
X109046971Y-38428704D01*
X108999352Y-38476323D01*
X108951733Y-38571561D01*
X108951733Y-38762038D01*
X108999352Y-38857276D01*
X109046971Y-38904895D01*
X109142209Y-38952514D01*
X111501180Y-34478885D02*
X111501180Y-35050314D01*
X111501180Y-34764600D02*
X110501180Y-34764600D01*
X110644038Y-34859838D01*
X110739276Y-34955076D01*
X110786895Y-35050314D01*
X111501180Y-34050314D02*
X110501180Y-34050314D01*
X111501180Y-33478885D02*
X110929752Y-33907457D01*
X110501180Y-33478885D02*
X111072609Y-34050314D01*
%TO.C,U1*%
X36053780Y-52323904D02*
X36863304Y-52323904D01*
X36958542Y-52276285D01*
X37006161Y-52228666D01*
X37053780Y-52133428D01*
X37053780Y-51942952D01*
X37006161Y-51847714D01*
X36958542Y-51800095D01*
X36863304Y-51752476D01*
X36053780Y-51752476D01*
X37053780Y-50752476D02*
X37053780Y-51323904D01*
X37053780Y-51038190D02*
X36053780Y-51038190D01*
X36196638Y-51133428D01*
X36291876Y-51228666D01*
X36339495Y-51323904D01*
X25973019Y-54514380D02*
X25925400Y-54609619D01*
X25830161Y-54704857D01*
X25687304Y-54847714D01*
X25639685Y-54942952D01*
X25639685Y-55038190D01*
X25877780Y-54990571D02*
X25830161Y-55085809D01*
X25734923Y-55181047D01*
X25544447Y-55228666D01*
X25211114Y-55228666D01*
X25020638Y-55181047D01*
X24925400Y-55085809D01*
X24877780Y-54990571D01*
X24877780Y-54800095D01*
X24925400Y-54704857D01*
X25020638Y-54609619D01*
X25211114Y-54562000D01*
X25544447Y-54562000D01*
X25734923Y-54609619D01*
X25830161Y-54704857D01*
X25877780Y-54800095D01*
X25877780Y-54990571D01*
X25877780Y-54133428D02*
X24877780Y-54133428D01*
X24877780Y-53752476D01*
X24925400Y-53657238D01*
X24973019Y-53609619D01*
X25068257Y-53562000D01*
X25211114Y-53562000D01*
X25306352Y-53609619D01*
X25353971Y-53657238D01*
X25401590Y-53752476D01*
X25401590Y-54133428D01*
X25877780Y-52562000D02*
X25401590Y-52895333D01*
X25877780Y-53133428D02*
X24877780Y-53133428D01*
X24877780Y-52752476D01*
X24925400Y-52657238D01*
X24973019Y-52609619D01*
X25068257Y-52562000D01*
X25211114Y-52562000D01*
X25306352Y-52609619D01*
X25353971Y-52657238D01*
X25401590Y-52752476D01*
X25401590Y-53133428D01*
X25973019Y-52371523D02*
X25973019Y-51609619D01*
X25353971Y-51038190D02*
X25353971Y-51371523D01*
X25877780Y-51371523D02*
X24877780Y-51371523D01*
X24877780Y-50895333D01*
X25877780Y-50514380D02*
X25211114Y-50514380D01*
X24877780Y-50514380D02*
X24925400Y-50562000D01*
X24973019Y-50514380D01*
X24925400Y-50466761D01*
X24877780Y-50514380D01*
X24973019Y-50514380D01*
X25877780Y-49895333D02*
X25830161Y-49990571D01*
X25734923Y-50038190D01*
X24877780Y-50038190D01*
X25211114Y-49657238D02*
X25211114Y-49276285D01*
X24877780Y-49514380D02*
X25734923Y-49514380D01*
X25830161Y-49466761D01*
X25877780Y-49371523D01*
X25877780Y-49276285D01*
X25830161Y-48562000D02*
X25877780Y-48657238D01*
X25877780Y-48847714D01*
X25830161Y-48942952D01*
X25734923Y-48990571D01*
X25353971Y-48990571D01*
X25258733Y-48942952D01*
X25211114Y-48847714D01*
X25211114Y-48657238D01*
X25258733Y-48562000D01*
X25353971Y-48514380D01*
X25449209Y-48514380D01*
X25544447Y-48990571D01*
X25877780Y-48085809D02*
X25211114Y-48085809D01*
X25401590Y-48085809D02*
X25306352Y-48038190D01*
X25258733Y-47990571D01*
X25211114Y-47895333D01*
X25211114Y-47800095D01*
%TO.C,R2*%
X62825333Y-41270180D02*
X62492000Y-40793990D01*
X62253904Y-41270180D02*
X62253904Y-40270180D01*
X62634857Y-40270180D01*
X62730095Y-40317800D01*
X62777714Y-40365419D01*
X62825333Y-40460657D01*
X62825333Y-40603514D01*
X62777714Y-40698752D01*
X62730095Y-40746371D01*
X62634857Y-40793990D01*
X62253904Y-40793990D01*
X63206285Y-40365419D02*
X63253904Y-40317800D01*
X63349142Y-40270180D01*
X63587238Y-40270180D01*
X63682476Y-40317800D01*
X63730095Y-40365419D01*
X63777714Y-40460657D01*
X63777714Y-40555895D01*
X63730095Y-40698752D01*
X63158666Y-41270180D01*
X63777714Y-41270180D01*
X59761523Y-40279580D02*
X59190095Y-40279580D01*
X59475809Y-40279580D02*
X59475809Y-39279580D01*
X59380571Y-39422438D01*
X59285333Y-39517676D01*
X59190095Y-39565295D01*
X60380571Y-39279580D02*
X60475809Y-39279580D01*
X60571047Y-39327200D01*
X60618666Y-39374819D01*
X60666285Y-39470057D01*
X60713904Y-39660533D01*
X60713904Y-39898628D01*
X60666285Y-40089104D01*
X60618666Y-40184342D01*
X60571047Y-40231961D01*
X60475809Y-40279580D01*
X60380571Y-40279580D01*
X60285333Y-40231961D01*
X60237714Y-40184342D01*
X60190095Y-40089104D01*
X60142476Y-39898628D01*
X60142476Y-39660533D01*
X60190095Y-39470057D01*
X60237714Y-39374819D01*
X60285333Y-39327200D01*
X60380571Y-39279580D01*
X61713904Y-40279580D02*
X61380571Y-39803390D01*
X61142476Y-40279580D02*
X61142476Y-39279580D01*
X61523428Y-39279580D01*
X61618666Y-39327200D01*
X61666285Y-39374819D01*
X61713904Y-39470057D01*
X61713904Y-39612914D01*
X61666285Y-39708152D01*
X61618666Y-39755771D01*
X61523428Y-39803390D01*
X61142476Y-39803390D01*
%TO.C,TP5*%
X59342495Y-47712380D02*
X59913923Y-47712380D01*
X59628209Y-48712380D02*
X59628209Y-47712380D01*
X60247257Y-48712380D02*
X60247257Y-47712380D01*
X60628209Y-47712380D01*
X60723447Y-47760000D01*
X60771066Y-47807619D01*
X60818685Y-47902857D01*
X60818685Y-48045714D01*
X60771066Y-48140952D01*
X60723447Y-48188571D01*
X60628209Y-48236190D01*
X60247257Y-48236190D01*
X61723447Y-47712380D02*
X61247257Y-47712380D01*
X61199638Y-48188571D01*
X61247257Y-48140952D01*
X61342495Y-48093333D01*
X61580590Y-48093333D01*
X61675828Y-48140952D01*
X61723447Y-48188571D01*
X61771066Y-48283809D01*
X61771066Y-48521904D01*
X61723447Y-48617142D01*
X61675828Y-48664761D01*
X61580590Y-48712380D01*
X61342495Y-48712380D01*
X61247257Y-48664761D01*
X61199638Y-48617142D01*
D13*
%TO.C,TG6*%
X80405200Y-79313000D02*
X79005200Y-79313000D01*
X80405200Y-77913000D02*
X80405200Y-79313000D01*
X79005200Y-79313000D02*
X79005200Y-77913000D01*
X79005200Y-77913000D02*
X80405200Y-77913000D01*
%TO.C,TG5*%
X61279000Y-53455800D02*
X59879000Y-53455800D01*
X61279000Y-52055800D02*
X61279000Y-53455800D01*
X59879000Y-53455800D02*
X59879000Y-52055800D01*
X59879000Y-52055800D02*
X61279000Y-52055800D01*
%TO.C,TG4*%
X64200000Y-72734400D02*
X62800000Y-72734400D01*
X64200000Y-71334400D02*
X64200000Y-72734400D01*
X62800000Y-72734400D02*
X62800000Y-71334400D01*
X62800000Y-71334400D02*
X64200000Y-71334400D01*
%TO.C,TG3*%
X55564000Y-62244200D02*
X54164000Y-62244200D01*
X55564000Y-60844200D02*
X55564000Y-62244200D01*
X54164000Y-62244200D02*
X54164000Y-60844200D01*
X54164000Y-60844200D02*
X55564000Y-60844200D01*
%TO.C,TG2*%
X47029600Y-41975000D02*
X45629600Y-41975000D01*
X47029600Y-40575000D02*
X47029600Y-41975000D01*
X45629600Y-41975000D02*
X45629600Y-40575000D01*
X45629600Y-40575000D02*
X47029600Y-40575000D01*
%TO.C,TG1*%
X32424600Y-31205400D02*
X31024600Y-31205400D01*
X32424600Y-29805400D02*
X32424600Y-31205400D01*
X31024600Y-31205400D02*
X31024600Y-29805400D01*
X31024600Y-29805400D02*
X32424600Y-29805400D01*
%TO.C,C7*%
X111395000Y-50732849D02*
X108450000Y-50732849D01*
X111395000Y-50812849D02*
X108468000Y-50812849D01*
X116492000Y-50291849D02*
X113475000Y-50291849D01*
X113888000Y-53692849D02*
X110982000Y-53692849D01*
X116392000Y-50852849D02*
X113475000Y-50852849D01*
X116371000Y-50932849D02*
X113475000Y-50932849D01*
X114940000Y-53092849D02*
X109930000Y-53092849D01*
X115176000Y-52892849D02*
X109694000Y-52892849D01*
X115086000Y-52972849D02*
X109784000Y-52972849D01*
X111395000Y-50211849D02*
X108370000Y-50211849D01*
X116139000Y-51572849D02*
X113475000Y-51572849D01*
X116312000Y-51132849D02*
X113475000Y-51132849D01*
X111395000Y-50572849D02*
X108418000Y-50572849D01*
X113781000Y-53732849D02*
X111089000Y-53732849D01*
X115302000Y-52772849D02*
X109568000Y-52772849D01*
X116514000Y-49971849D02*
X108356000Y-49971849D01*
X116062000Y-51732849D02*
X113475000Y-51732849D01*
X111395000Y-50091849D02*
X108361000Y-50091849D01*
X116101000Y-51652849D02*
X113475000Y-51652849D01*
X116019000Y-51812849D02*
X113475000Y-51812849D01*
X111395000Y-50331849D02*
X108383000Y-50331849D01*
X116515000Y-49851849D02*
X108355000Y-49851849D01*
X115975000Y-51892849D02*
X113475000Y-51892849D01*
X115525000Y-52532849D02*
X109345000Y-52532849D01*
X116487000Y-50331849D02*
X113475000Y-50331849D01*
X116298000Y-51172849D02*
X113475000Y-51172849D01*
X111395000Y-51092849D02*
X108546000Y-51092849D01*
X111395000Y-52092849D02*
X109017000Y-52092849D01*
X111395000Y-51052849D02*
X108533000Y-51052849D01*
X116175000Y-51492849D02*
X113475000Y-51492849D01*
X114722000Y-53252849D02*
X110148000Y-53252849D01*
X111395000Y-50892849D02*
X108488000Y-50892849D01*
X111395000Y-51892849D02*
X108895000Y-51892849D01*
X114080000Y-53612849D02*
X110790000Y-53612849D01*
X115715000Y-52292849D02*
X109155000Y-52292849D01*
X111395000Y-50411849D02*
X108393000Y-50411849D01*
X116503000Y-50171849D02*
X113475000Y-50171849D01*
X114248000Y-53532849D02*
X110622000Y-53532849D01*
X111395000Y-52052849D02*
X108991000Y-52052849D01*
X111395000Y-51252849D02*
X108600000Y-51252849D01*
X111395000Y-51932849D02*
X108918000Y-51932849D01*
X116512000Y-50011849D02*
X108358000Y-50011849D01*
X111395000Y-51012849D02*
X108521000Y-51012849D01*
X115039000Y-53012849D02*
X109831000Y-53012849D01*
X115559000Y-52492849D02*
X109311000Y-52492849D01*
X111395000Y-51532849D02*
X108713000Y-51532849D01*
X115418000Y-52652849D02*
X109452000Y-52652849D01*
X111395000Y-51852849D02*
X108873000Y-51852849D01*
X115454000Y-52612849D02*
X109416000Y-52612849D01*
X111395000Y-51972849D02*
X108942000Y-51972849D01*
X114889000Y-53132849D02*
X109981000Y-53132849D01*
X111395000Y-50932849D02*
X108499000Y-50932849D01*
X115380000Y-52692849D02*
X109490000Y-52692849D01*
X111395000Y-51172849D02*
X108572000Y-51172849D01*
X116082000Y-51692849D02*
X113475000Y-51692849D01*
X116452000Y-50572849D02*
X113475000Y-50572849D01*
X111395000Y-50491849D02*
X108405000Y-50491849D01*
X115624000Y-52412849D02*
X109246000Y-52412849D01*
X116515000Y-49931849D02*
X108355000Y-49931849D01*
X115150000Y-45842151D02*
X114350000Y-45842151D01*
X111395000Y-51692849D02*
X108788000Y-51692849D01*
X116496000Y-50251849D02*
X113475000Y-50251849D01*
X111395000Y-51372849D02*
X108645000Y-51372849D01*
X115261000Y-52812849D02*
X109609000Y-52812849D01*
X111395000Y-51812849D02*
X108851000Y-51812849D01*
X111395000Y-51212849D02*
X108585000Y-51212849D01*
X115773000Y-52212849D02*
X109097000Y-52212849D01*
X111395000Y-50451849D02*
X108398000Y-50451849D01*
X111395000Y-50772849D02*
X108459000Y-50772849D01*
X114750000Y-45442151D02*
X114750000Y-46242151D01*
X115952000Y-51932849D02*
X113475000Y-51932849D01*
X116515000Y-49891849D02*
X108355000Y-49891849D01*
X116192000Y-51452849D02*
X113475000Y-51452849D01*
X113987000Y-53652849D02*
X110883000Y-53652849D01*
X111395000Y-51572849D02*
X108731000Y-51572849D01*
X114663000Y-53292849D02*
X110207000Y-53292849D01*
X114780000Y-53212849D02*
X110090000Y-53212849D01*
X111395000Y-51332849D02*
X108630000Y-51332849D01*
X115219000Y-52852849D02*
X109651000Y-52852849D01*
X116511000Y-50051849D02*
X108359000Y-50051849D01*
X115744000Y-52252849D02*
X109126000Y-52252849D01*
X115490000Y-52572849D02*
X109380000Y-52572849D01*
X111395000Y-50171849D02*
X108367000Y-50171849D01*
X115827000Y-52132849D02*
X113475000Y-52132849D01*
X111395000Y-51452849D02*
X108678000Y-51452849D01*
X115800000Y-52172849D02*
X109070000Y-52172849D01*
X114469000Y-53412849D02*
X110401000Y-53412849D01*
X115342000Y-52732849D02*
X109528000Y-52732849D01*
X111395000Y-50972849D02*
X108510000Y-50972849D01*
X116349000Y-51012849D02*
X113475000Y-51012849D01*
X111395000Y-51412849D02*
X108661000Y-51412849D01*
X113664000Y-53772849D02*
X111206000Y-53772849D01*
X116360000Y-50972849D02*
X113475000Y-50972849D01*
X115591000Y-52452849D02*
X109279000Y-52452849D01*
X111395000Y-50251849D02*
X108374000Y-50251849D01*
X116445000Y-50612849D02*
X113475000Y-50612849D01*
X116483000Y-50371849D02*
X113475000Y-50371849D01*
X111395000Y-51492849D02*
X108695000Y-51492849D01*
X111395000Y-50652849D02*
X108433000Y-50652849D01*
X116429000Y-50692849D02*
X113475000Y-50692849D01*
X116337000Y-51052849D02*
X113475000Y-51052849D01*
X116411000Y-50772849D02*
X113475000Y-50772849D01*
X111395000Y-50371849D02*
X108387000Y-50371849D01*
X114325000Y-53492849D02*
X110545000Y-53492849D01*
X114399000Y-53452849D02*
X110471000Y-53452849D01*
X111395000Y-50291849D02*
X108378000Y-50291849D01*
X111395000Y-50531849D02*
X108411000Y-50531849D01*
X115132000Y-52932849D02*
X109738000Y-52932849D01*
X115853000Y-52092849D02*
X113475000Y-52092849D01*
X111395000Y-51292849D02*
X108614000Y-51292849D01*
X116420000Y-50732849D02*
X113475000Y-50732849D01*
X116500000Y-50211849D02*
X113475000Y-50211849D01*
X111395000Y-51652849D02*
X108769000Y-51652849D01*
X111395000Y-50612849D02*
X108425000Y-50612849D01*
X114601000Y-53332849D02*
X110269000Y-53332849D01*
X116270000Y-51252849D02*
X113475000Y-51252849D01*
X116402000Y-50812849D02*
X113475000Y-50812849D01*
X114166000Y-53572849D02*
X110704000Y-53572849D01*
X116437000Y-50652849D02*
X113475000Y-50652849D01*
X113533000Y-53812849D02*
X111337000Y-53812849D01*
X116157000Y-51532849D02*
X113475000Y-51532849D01*
X116256000Y-51292849D02*
X113475000Y-51292849D01*
X111395000Y-50852849D02*
X108478000Y-50852849D01*
X115904000Y-52012849D02*
X113475000Y-52012849D01*
X115655000Y-52372849D02*
X109215000Y-52372849D01*
X111395000Y-51612849D02*
X108749000Y-51612849D01*
X116121000Y-51612849D02*
X113475000Y-51612849D01*
X115879000Y-52052849D02*
X113475000Y-52052849D01*
X114991000Y-53052849D02*
X109879000Y-53052849D01*
X113203000Y-53892849D02*
X111667000Y-53892849D01*
X116506000Y-50131849D02*
X113475000Y-50131849D01*
X111395000Y-51132849D02*
X108558000Y-51132849D01*
X111395000Y-50692849D02*
X108441000Y-50692849D01*
X116472000Y-50451849D02*
X113475000Y-50451849D01*
X115928000Y-51972849D02*
X113475000Y-51972849D01*
X116285000Y-51212849D02*
X113475000Y-51212849D01*
X111395000Y-51772849D02*
X108829000Y-51772849D01*
X116324000Y-51092849D02*
X113475000Y-51092849D01*
X116465000Y-50491849D02*
X113475000Y-50491849D01*
X116209000Y-51412849D02*
X113475000Y-51412849D01*
X111395000Y-50131849D02*
X108364000Y-50131849D01*
X116225000Y-51372849D02*
X113475000Y-51372849D01*
X114835000Y-53172849D02*
X110035000Y-53172849D01*
X116041000Y-51772849D02*
X113475000Y-51772849D01*
X112968000Y-53932849D02*
X111902000Y-53932849D01*
X111395000Y-52132849D02*
X109043000Y-52132849D01*
X111395000Y-51732849D02*
X108808000Y-51732849D01*
X116477000Y-50411849D02*
X113475000Y-50411849D01*
X116240000Y-51332849D02*
X113475000Y-51332849D01*
X116382000Y-50892849D02*
X113475000Y-50892849D01*
X116509000Y-50091849D02*
X113475000Y-50091849D01*
X116459000Y-50531849D02*
X113475000Y-50531849D01*
X115997000Y-51852849D02*
X113475000Y-51852849D01*
X114537000Y-53372849D02*
X110333000Y-53372849D01*
X113383000Y-53852849D02*
X111487000Y-53852849D01*
X115685000Y-52332849D02*
X109185000Y-52332849D01*
X111395000Y-52012849D02*
X108966000Y-52012849D01*
X116555000Y-49851849D02*
G75*
G03*
X116555000Y-49851849I-4120000J0D01*
G01*
%TO.C,C11*%
X87449000Y-55037000D02*
X87449000Y-57624000D01*
X86809000Y-59704000D02*
X86809000Y-62553000D01*
X86128000Y-54622000D02*
X86128000Y-57624000D01*
X89049000Y-56498000D02*
X89049000Y-60830000D01*
X87569000Y-59704000D02*
X87569000Y-62226000D01*
X86128000Y-59704000D02*
X86128000Y-62706000D01*
X86969000Y-59704000D02*
X86969000Y-62499000D01*
X87769000Y-55220000D02*
X87769000Y-57624000D01*
X87129000Y-54890000D02*
X87129000Y-57624000D01*
X87729000Y-55195000D02*
X87729000Y-57624000D01*
X89489000Y-57435000D02*
X89489000Y-59893000D01*
X86649000Y-54728000D02*
X86649000Y-57624000D01*
X89609000Y-57896000D02*
X89609000Y-59432000D01*
X86329000Y-59704000D02*
X86329000Y-62674000D01*
X87089000Y-59704000D02*
X87089000Y-62454000D01*
X86088000Y-54616000D02*
X86088000Y-57624000D01*
X85888000Y-54596000D02*
X85888000Y-57624000D01*
X88849000Y-56210000D02*
X88849000Y-61118000D01*
X87089000Y-54874000D02*
X87089000Y-57624000D01*
X86008000Y-54607000D02*
X86008000Y-57624000D01*
X87729000Y-59704000D02*
X87729000Y-62133000D01*
X87529000Y-55080000D02*
X87529000Y-57624000D01*
X87609000Y-59704000D02*
X87609000Y-62204000D01*
X85848000Y-54593000D02*
X85848000Y-57624000D01*
X85928000Y-54599000D02*
X85928000Y-57624000D01*
X85928000Y-59704000D02*
X85928000Y-62729000D01*
X85808000Y-54590000D02*
X85808000Y-57624000D01*
X87809000Y-55246000D02*
X87809000Y-57624000D01*
X85808000Y-59704000D02*
X85808000Y-62738000D01*
X87689000Y-55171000D02*
X87689000Y-57624000D01*
X87809000Y-59704000D02*
X87809000Y-62082000D01*
X86208000Y-54634000D02*
X86208000Y-57624000D01*
X85568000Y-54584000D02*
X85568000Y-62744000D01*
X89209000Y-56774000D02*
X89209000Y-60554000D01*
X89649000Y-58131000D02*
X89649000Y-59197000D01*
X87369000Y-54998000D02*
X87369000Y-57624000D01*
X81158302Y-56349000D02*
X81958302Y-56349000D01*
X88809000Y-56159000D02*
X88809000Y-61169000D01*
X88569000Y-55880000D02*
X88569000Y-61448000D01*
X86769000Y-54762000D02*
X86769000Y-57624000D01*
X89289000Y-56933000D02*
X89289000Y-60395000D01*
X87769000Y-59704000D02*
X87769000Y-62108000D01*
X88129000Y-55475000D02*
X88129000Y-61853000D01*
X89409000Y-57211000D02*
X89409000Y-60117000D01*
X88489000Y-55797000D02*
X88489000Y-61531000D01*
X87649000Y-59704000D02*
X87649000Y-62181000D01*
X87929000Y-55326000D02*
X87929000Y-62002000D01*
X87569000Y-55102000D02*
X87569000Y-57624000D01*
X87249000Y-59704000D02*
X87249000Y-62386000D01*
X85728000Y-54587000D02*
X85728000Y-62741000D01*
X86048000Y-59704000D02*
X86048000Y-62716000D01*
X89249000Y-56851000D02*
X89249000Y-60477000D01*
X86449000Y-59704000D02*
X86449000Y-62649000D01*
X87129000Y-59704000D02*
X87129000Y-62438000D01*
X85768000Y-54588000D02*
X85768000Y-62740000D01*
X88769000Y-56108000D02*
X88769000Y-61220000D01*
X86369000Y-54662000D02*
X86369000Y-57624000D01*
X88249000Y-55574000D02*
X88249000Y-61754000D01*
X87049000Y-59704000D02*
X87049000Y-62469000D01*
X86289000Y-54647000D02*
X86289000Y-57624000D01*
X86849000Y-54787000D02*
X86849000Y-57624000D01*
X88609000Y-55923000D02*
X88609000Y-61405000D01*
X86409000Y-59704000D02*
X86409000Y-62658000D01*
X87289000Y-59704000D02*
X87289000Y-62368000D01*
X86369000Y-59704000D02*
X86369000Y-62666000D01*
X87609000Y-55124000D02*
X87609000Y-57624000D01*
X87369000Y-59704000D02*
X87369000Y-62330000D01*
X86929000Y-54814000D02*
X86929000Y-57624000D01*
X86809000Y-54775000D02*
X86809000Y-57624000D01*
X86689000Y-59704000D02*
X86689000Y-62589000D01*
X88329000Y-55645000D02*
X88329000Y-61683000D01*
X87449000Y-59704000D02*
X87449000Y-62291000D01*
X86929000Y-59704000D02*
X86929000Y-62514000D01*
X87529000Y-59704000D02*
X87529000Y-62248000D01*
X86489000Y-59704000D02*
X86489000Y-62640000D01*
X86168000Y-54627000D02*
X86168000Y-57624000D01*
X88369000Y-55681000D02*
X88369000Y-61647000D01*
X87409000Y-59704000D02*
X87409000Y-62311000D01*
X86449000Y-54679000D02*
X86449000Y-57624000D01*
X89009000Y-56436000D02*
X89009000Y-60892000D01*
X86649000Y-59704000D02*
X86649000Y-62600000D01*
X86409000Y-54670000D02*
X86409000Y-57624000D01*
X86088000Y-59704000D02*
X86088000Y-62712000D01*
X87849000Y-59704000D02*
X87849000Y-62056000D01*
X86529000Y-59704000D02*
X86529000Y-62631000D01*
X88089000Y-55444000D02*
X88089000Y-61884000D01*
X85648000Y-54584000D02*
X85648000Y-62744000D01*
X88929000Y-56319000D02*
X88929000Y-61009000D01*
X87169000Y-54907000D02*
X87169000Y-57624000D01*
X87209000Y-59704000D02*
X87209000Y-62404000D01*
X89329000Y-57019000D02*
X89329000Y-60309000D01*
X88649000Y-55967000D02*
X88649000Y-61361000D01*
X81558302Y-55949000D02*
X81558302Y-56749000D01*
X86168000Y-59704000D02*
X86168000Y-62701000D01*
X86729000Y-54750000D02*
X86729000Y-57624000D01*
X87209000Y-54924000D02*
X87209000Y-57624000D01*
X87969000Y-55355000D02*
X87969000Y-61973000D01*
X87489000Y-55058000D02*
X87489000Y-57624000D01*
X88289000Y-55609000D02*
X88289000Y-61719000D01*
X86248000Y-59704000D02*
X86248000Y-62688000D01*
X89169000Y-56700000D02*
X89169000Y-60628000D01*
X87489000Y-59704000D02*
X87489000Y-62270000D01*
X88169000Y-55508000D02*
X88169000Y-61820000D01*
X86248000Y-54640000D02*
X86248000Y-57624000D01*
X88449000Y-55757000D02*
X88449000Y-61571000D01*
X86329000Y-54654000D02*
X86329000Y-57624000D01*
X85848000Y-59704000D02*
X85848000Y-62735000D01*
X89369000Y-57112000D02*
X89369000Y-60216000D01*
X86849000Y-59704000D02*
X86849000Y-62541000D01*
X88009000Y-55384000D02*
X88009000Y-61944000D01*
X87409000Y-55017000D02*
X87409000Y-57624000D01*
X87849000Y-55272000D02*
X87849000Y-57624000D01*
X88209000Y-55540000D02*
X88209000Y-61788000D01*
X88729000Y-56060000D02*
X88729000Y-61268000D01*
X89449000Y-57318000D02*
X89449000Y-60010000D01*
X87249000Y-54942000D02*
X87249000Y-57624000D01*
X86969000Y-54829000D02*
X86969000Y-57624000D01*
X86048000Y-54612000D02*
X86048000Y-57624000D01*
X87009000Y-54843000D02*
X87009000Y-57624000D01*
X87009000Y-59704000D02*
X87009000Y-62485000D01*
X86529000Y-54697000D02*
X86529000Y-57624000D01*
X86289000Y-59704000D02*
X86289000Y-62681000D01*
X85608000Y-54584000D02*
X85608000Y-62744000D01*
X85968000Y-59704000D02*
X85968000Y-62725000D01*
X86609000Y-59704000D02*
X86609000Y-62611000D01*
X86689000Y-54739000D02*
X86689000Y-57624000D01*
X86729000Y-59704000D02*
X86729000Y-62578000D01*
X87889000Y-55299000D02*
X87889000Y-62029000D01*
X89089000Y-56562000D02*
X89089000Y-60766000D01*
X88529000Y-55838000D02*
X88529000Y-61490000D01*
X88409000Y-55719000D02*
X88409000Y-61609000D01*
X89129000Y-56630000D02*
X89129000Y-60698000D01*
X86008000Y-59704000D02*
X86008000Y-62721000D01*
X85968000Y-54603000D02*
X85968000Y-57624000D01*
X85888000Y-59704000D02*
X85888000Y-62732000D01*
X87329000Y-59704000D02*
X87329000Y-62350000D01*
X86889000Y-59704000D02*
X86889000Y-62527000D01*
X86769000Y-59704000D02*
X86769000Y-62566000D01*
X86489000Y-54688000D02*
X86489000Y-57624000D01*
X87289000Y-54960000D02*
X87289000Y-57624000D01*
X86609000Y-54717000D02*
X86609000Y-57624000D01*
X87329000Y-54978000D02*
X87329000Y-57624000D01*
X88969000Y-56377000D02*
X88969000Y-60951000D01*
X87689000Y-59704000D02*
X87689000Y-62157000D01*
X88889000Y-56264000D02*
X88889000Y-61064000D01*
X87169000Y-59704000D02*
X87169000Y-62421000D01*
X89529000Y-57566000D02*
X89529000Y-59762000D01*
X89569000Y-57716000D02*
X89569000Y-59612000D01*
X86569000Y-54707000D02*
X86569000Y-57624000D01*
X86889000Y-54801000D02*
X86889000Y-57624000D01*
X87649000Y-55147000D02*
X87649000Y-57624000D01*
X86208000Y-59704000D02*
X86208000Y-62694000D01*
X87049000Y-54859000D02*
X87049000Y-57624000D01*
X88689000Y-56013000D02*
X88689000Y-61315000D01*
X85688000Y-54585000D02*
X85688000Y-62743000D01*
X86569000Y-59704000D02*
X86569000Y-62621000D01*
X88049000Y-55414000D02*
X88049000Y-61914000D01*
X89688000Y-58664000D02*
G75*
G03*
X89688000Y-58664000I-4120000J0D01*
G01*
%TO.C,C8*%
X42925948Y-45207600D02*
X44348452Y-45207600D01*
X42925948Y-43387600D02*
X44348452Y-43387600D01*
D14*
%TO.C,J4*%
X99045000Y-37754500D02*
X99045000Y-36604500D01*
X108045000Y-23354500D02*
X108045000Y-37754500D01*
X99045000Y-31504500D02*
X99045000Y-23354500D01*
X108045000Y-37754500D02*
X106195000Y-37754500D01*
X100995000Y-37754500D02*
X99045000Y-37754500D01*
X99045000Y-23354500D02*
X108045000Y-23354500D01*
D15*
X103745000Y-39054500D02*
G75*
G03*
X103745000Y-39054500I-200000J0D01*
G01*
D13*
%TO.C,R7*%
X69870651Y-61238936D02*
X69870651Y-62693064D01*
X68050651Y-61238936D02*
X68050651Y-62693064D01*
%TO.C,R4*%
X80093936Y-28554000D02*
X81548064Y-28554000D01*
X80093936Y-30374000D02*
X81548064Y-30374000D01*
%TO.C,C2*%
X44210400Y-48066748D02*
X44210400Y-49489252D01*
X46030400Y-48066748D02*
X46030400Y-49489252D01*
%TO.C,RV1*%
X46289000Y-81458000D02*
X46289000Y-82258000D01*
X52253000Y-76218000D02*
X47364000Y-76218000D01*
X54779000Y-77093000D02*
X54779000Y-81458000D01*
X44839000Y-77093000D02*
X44839000Y-81458000D01*
X52929000Y-82258000D02*
X46689000Y-82258000D01*
X53329000Y-81458000D02*
X46289000Y-81458000D01*
X53329000Y-81458000D02*
X53329000Y-82258000D01*
X54779000Y-81458000D02*
X44839000Y-81458000D01*
X53329000Y-82258000D02*
X46289000Y-82258000D01*
%TO.C,U4*%
X78342000Y-69910000D02*
X78342000Y-59630000D01*
X73042000Y-59630000D02*
X73042000Y-69910000D01*
X80832000Y-59570000D02*
X70552000Y-59570000D01*
X73042000Y-69910000D02*
X78342000Y-69910000D01*
X70552000Y-69970000D02*
X80832000Y-69970000D01*
X80832000Y-69970000D02*
X80832000Y-59570000D01*
X78342000Y-59630000D02*
X76692000Y-59630000D01*
X74692000Y-59630000D02*
X73042000Y-59630000D01*
X70552000Y-59570000D02*
X70552000Y-69970000D01*
X74692000Y-59630000D02*
G75*
G03*
X76692000Y-59630000I1000000J0D01*
G01*
%TO.C,U3*%
X106053000Y-46158500D02*
X101412000Y-46158500D01*
X104543000Y-46158500D02*
X104543000Y-56398500D01*
X106053000Y-53129500D02*
X104543000Y-53129500D01*
X106053000Y-56398500D02*
X101412000Y-56398500D01*
X106053000Y-49428500D02*
X104543000Y-49428500D01*
X106053000Y-46158500D02*
X106053000Y-56398500D01*
X101412000Y-46158500D02*
X101412000Y-56398500D01*
%TO.C,R8*%
X78582000Y-73869064D02*
X78582000Y-72414936D01*
X80402000Y-73869064D02*
X80402000Y-72414936D01*
%TO.C,C15*%
X88225000Y-69656000D02*
X88225000Y-72356000D01*
X87825000Y-74436000D02*
X87825000Y-77285000D01*
X87385000Y-69394000D02*
X87385000Y-72356000D01*
X87545000Y-69429000D02*
X87545000Y-72356000D01*
X88225000Y-74436000D02*
X88225000Y-77136000D01*
X88705000Y-74436000D02*
X88705000Y-76889000D01*
X89465000Y-70489000D02*
X89465000Y-76303000D01*
X87345000Y-69386000D02*
X87345000Y-72356000D01*
X88945000Y-70058000D02*
X88945000Y-76734000D01*
X86584000Y-69316000D02*
X86584000Y-77476000D01*
X89625000Y-70655000D02*
X89625000Y-76137000D01*
X88025000Y-74436000D02*
X88025000Y-77217000D01*
X88865000Y-70004000D02*
X88865000Y-72356000D01*
X87745000Y-74436000D02*
X87745000Y-77310000D01*
X87184000Y-74436000D02*
X87184000Y-77433000D01*
X82574302Y-70681000D02*
X82574302Y-71481000D01*
X90185000Y-71432000D02*
X90185000Y-75360000D01*
X89025000Y-70116000D02*
X89025000Y-76676000D01*
X88665000Y-69879000D02*
X88665000Y-72356000D01*
X88785000Y-74436000D02*
X88785000Y-76840000D01*
X89305000Y-70341000D02*
X89305000Y-76451000D01*
X90425000Y-71943000D02*
X90425000Y-74849000D01*
X89585000Y-70612000D02*
X89585000Y-76180000D01*
X87305000Y-69379000D02*
X87305000Y-72356000D01*
X87104000Y-74436000D02*
X87104000Y-77444000D01*
X88865000Y-74436000D02*
X88865000Y-76788000D01*
X86984000Y-69335000D02*
X86984000Y-72356000D01*
X86944000Y-69331000D02*
X86944000Y-72356000D01*
X88665000Y-74436000D02*
X88665000Y-76913000D01*
X90305000Y-71665000D02*
X90305000Y-75127000D01*
X87905000Y-69533000D02*
X87905000Y-72356000D01*
X88185000Y-69639000D02*
X88185000Y-72356000D01*
X88185000Y-74436000D02*
X88185000Y-77153000D01*
X87305000Y-74436000D02*
X87305000Y-77413000D01*
X87064000Y-69344000D02*
X87064000Y-72356000D01*
X87785000Y-69494000D02*
X87785000Y-72356000D01*
X88625000Y-74436000D02*
X88625000Y-76936000D01*
X87705000Y-74436000D02*
X87705000Y-77321000D01*
X86944000Y-74436000D02*
X86944000Y-77461000D01*
X86784000Y-69320000D02*
X86784000Y-77472000D01*
X87505000Y-74436000D02*
X87505000Y-77372000D01*
X87745000Y-69482000D02*
X87745000Y-72356000D01*
X87825000Y-69507000D02*
X87825000Y-72356000D01*
X86984000Y-74436000D02*
X86984000Y-77457000D01*
X86624000Y-69316000D02*
X86624000Y-77476000D01*
X86744000Y-69319000D02*
X86744000Y-77473000D01*
X89745000Y-70792000D02*
X89745000Y-76000000D01*
X89785000Y-70840000D02*
X89785000Y-75952000D01*
X87224000Y-69366000D02*
X87224000Y-72356000D01*
X88465000Y-69769000D02*
X88465000Y-72356000D01*
X90545000Y-72298000D02*
X90545000Y-74494000D01*
X89825000Y-70891000D02*
X89825000Y-75901000D01*
X87345000Y-74436000D02*
X87345000Y-77406000D01*
X87465000Y-69411000D02*
X87465000Y-72356000D01*
X87425000Y-69402000D02*
X87425000Y-72356000D01*
X89345000Y-70377000D02*
X89345000Y-76415000D01*
X88585000Y-74436000D02*
X88585000Y-76958000D01*
X86864000Y-69325000D02*
X86864000Y-72356000D01*
X88105000Y-74436000D02*
X88105000Y-77186000D01*
X87385000Y-74436000D02*
X87385000Y-77398000D01*
X88385000Y-69730000D02*
X88385000Y-72356000D01*
X87264000Y-74436000D02*
X87264000Y-77420000D01*
X88145000Y-74436000D02*
X88145000Y-77170000D01*
X88345000Y-74436000D02*
X88345000Y-77082000D01*
X88305000Y-69692000D02*
X88305000Y-72356000D01*
X88705000Y-69903000D02*
X88705000Y-72356000D01*
X88305000Y-74436000D02*
X88305000Y-77100000D01*
X90505000Y-72167000D02*
X90505000Y-74625000D01*
X89505000Y-70529000D02*
X89505000Y-76263000D01*
X88065000Y-69591000D02*
X88065000Y-72356000D01*
X89185000Y-70240000D02*
X89185000Y-76552000D01*
X86824000Y-74436000D02*
X86824000Y-77470000D01*
X87465000Y-74436000D02*
X87465000Y-77381000D01*
X88265000Y-74436000D02*
X88265000Y-77118000D01*
X87905000Y-74436000D02*
X87905000Y-77259000D01*
X90665000Y-72863000D02*
X90665000Y-73929000D01*
X87785000Y-74436000D02*
X87785000Y-77298000D01*
X86824000Y-69322000D02*
X86824000Y-72356000D01*
X86864000Y-74436000D02*
X86864000Y-77467000D01*
X87064000Y-74436000D02*
X87064000Y-77448000D01*
X90265000Y-71583000D02*
X90265000Y-75209000D01*
X87945000Y-74436000D02*
X87945000Y-77246000D01*
X90105000Y-71294000D02*
X90105000Y-75498000D01*
X87985000Y-74436000D02*
X87985000Y-77231000D01*
X88625000Y-69856000D02*
X88625000Y-72356000D01*
X87625000Y-69449000D02*
X87625000Y-72356000D01*
X87945000Y-69546000D02*
X87945000Y-72356000D01*
X87625000Y-74436000D02*
X87625000Y-77343000D01*
X88825000Y-69978000D02*
X88825000Y-72356000D01*
X89905000Y-70996000D02*
X89905000Y-75796000D01*
X87985000Y-69561000D02*
X87985000Y-72356000D01*
X90465000Y-72050000D02*
X90465000Y-74742000D01*
X89385000Y-70413000D02*
X89385000Y-76379000D01*
X88545000Y-69812000D02*
X88545000Y-72356000D01*
X88105000Y-69606000D02*
X88105000Y-72356000D01*
X88465000Y-74436000D02*
X88465000Y-77023000D01*
X90385000Y-71844000D02*
X90385000Y-74948000D01*
X86704000Y-69317000D02*
X86704000Y-77475000D01*
X89665000Y-70699000D02*
X89665000Y-76093000D01*
X89705000Y-70745000D02*
X89705000Y-76047000D01*
X88385000Y-74436000D02*
X88385000Y-77062000D01*
X87665000Y-69460000D02*
X87665000Y-72356000D01*
X87865000Y-74436000D02*
X87865000Y-77273000D01*
X90585000Y-72448000D02*
X90585000Y-74344000D01*
X89985000Y-71109000D02*
X89985000Y-75683000D01*
X88585000Y-69834000D02*
X88585000Y-72356000D01*
X88265000Y-69674000D02*
X88265000Y-72356000D01*
X87585000Y-74436000D02*
X87585000Y-77353000D01*
X90345000Y-71751000D02*
X90345000Y-75041000D01*
X88985000Y-70087000D02*
X88985000Y-76705000D01*
X87505000Y-69420000D02*
X87505000Y-72356000D01*
X88505000Y-74436000D02*
X88505000Y-77002000D01*
X88425000Y-69749000D02*
X88425000Y-72356000D01*
X89065000Y-70146000D02*
X89065000Y-76646000D01*
X88425000Y-74436000D02*
X88425000Y-77043000D01*
X88145000Y-69622000D02*
X88145000Y-72356000D01*
X87024000Y-74436000D02*
X87024000Y-77453000D01*
X88825000Y-74436000D02*
X88825000Y-76814000D01*
X89225000Y-70272000D02*
X89225000Y-76520000D01*
X87705000Y-69471000D02*
X87705000Y-72356000D01*
X87144000Y-69354000D02*
X87144000Y-72356000D01*
X89145000Y-70207000D02*
X89145000Y-76585000D01*
X89105000Y-70176000D02*
X89105000Y-76616000D01*
X88745000Y-74436000D02*
X88745000Y-76865000D01*
X89865000Y-70942000D02*
X89865000Y-75850000D01*
X88545000Y-74436000D02*
X88545000Y-76980000D01*
X87264000Y-69372000D02*
X87264000Y-72356000D01*
X89545000Y-70570000D02*
X89545000Y-76222000D01*
X87024000Y-69339000D02*
X87024000Y-72356000D01*
X86664000Y-69316000D02*
X86664000Y-77476000D01*
X89265000Y-70306000D02*
X89265000Y-76486000D01*
X88745000Y-69927000D02*
X88745000Y-72356000D01*
X90065000Y-71230000D02*
X90065000Y-75562000D01*
X86904000Y-74436000D02*
X86904000Y-77464000D01*
X86904000Y-69328000D02*
X86904000Y-72356000D01*
X87865000Y-69519000D02*
X87865000Y-72356000D01*
X87144000Y-74436000D02*
X87144000Y-77438000D01*
X87665000Y-74436000D02*
X87665000Y-77332000D01*
X88065000Y-74436000D02*
X88065000Y-77201000D01*
X88345000Y-69710000D02*
X88345000Y-72356000D01*
X89945000Y-71051000D02*
X89945000Y-75741000D01*
X87585000Y-69439000D02*
X87585000Y-72356000D01*
X87104000Y-69348000D02*
X87104000Y-72356000D01*
X90225000Y-71506000D02*
X90225000Y-75286000D01*
X87224000Y-74436000D02*
X87224000Y-77426000D01*
X89425000Y-70451000D02*
X89425000Y-76341000D01*
X88785000Y-69952000D02*
X88785000Y-72356000D01*
X87425000Y-74436000D02*
X87425000Y-77390000D01*
X88905000Y-70031000D02*
X88905000Y-76761000D01*
X90625000Y-72628000D02*
X90625000Y-74164000D01*
X88025000Y-69575000D02*
X88025000Y-72356000D01*
X87184000Y-69359000D02*
X87184000Y-72356000D01*
X82174302Y-71081000D02*
X82974302Y-71081000D01*
X90025000Y-71168000D02*
X90025000Y-75624000D01*
X90145000Y-71362000D02*
X90145000Y-75430000D01*
X88505000Y-69790000D02*
X88505000Y-72356000D01*
X87545000Y-74436000D02*
X87545000Y-77363000D01*
X90704000Y-73396000D02*
G75*
G03*
X90704000Y-73396000I-4120000J0D01*
G01*
%TO.C,TP6*%
X81900800Y-77913000D02*
X83300800Y-77913000D01*
X83300800Y-77913000D02*
X83300800Y-79313000D01*
X83300800Y-79313000D02*
X81900800Y-79313000D01*
X81900800Y-79313000D02*
X81900800Y-77913000D01*
%TO.C,C6*%
X74619000Y-29260748D02*
X74619000Y-30683252D01*
X72799000Y-29260748D02*
X72799000Y-30683252D01*
%TO.C,C4*%
X68450903Y-69734000D02*
X67028399Y-69734000D01*
X68450903Y-67914000D02*
X67028399Y-67914000D01*
%TO.C,C5*%
X55496152Y-40756000D02*
X54073648Y-40756000D01*
X55496152Y-42576000D02*
X54073648Y-42576000D01*
D14*
%TO.C,J1*%
X57565800Y-38470500D02*
X42865800Y-38470500D01*
X55715800Y-24070500D02*
X57565800Y-24070500D01*
X44715800Y-24070500D02*
X55715800Y-24070500D01*
X42865800Y-38470500D02*
X42865800Y-24070500D01*
X57565800Y-24070500D02*
X57565800Y-38470500D01*
X42865800Y-24070500D02*
X44715800Y-24070500D01*
D11*
X50315800Y-38942500D02*
G75*
G03*
X50315800Y-38942500I-100000J0D01*
G01*
D10*
%TO.C,J5*%
X96672000Y-82547000D02*
X102672000Y-82547000D01*
X102672000Y-71047000D02*
X102672000Y-71547000D01*
X102672000Y-75547000D02*
X102672000Y-78547000D01*
X99172000Y-71047000D02*
X102672000Y-71047000D01*
X96672000Y-73747000D02*
X96672000Y-82547000D01*
D13*
%TO.C,TP3*%
X55614800Y-58380400D02*
X55614800Y-59780400D01*
X54214800Y-59780400D02*
X54214800Y-58380400D01*
X54214800Y-58380400D02*
X55614800Y-58380400D01*
X55614800Y-59780400D02*
X54214800Y-59780400D01*
%TO.C,R3*%
X75847000Y-28982564D02*
X75847000Y-27528436D01*
X77667000Y-28982564D02*
X77667000Y-27528436D01*
%TO.C,C10*%
X100208000Y-54480752D02*
X100208000Y-53058248D01*
X98388000Y-54480752D02*
X98388000Y-53058248D01*
%TO.C,R1*%
X66963587Y-67194000D02*
X68417715Y-67194000D01*
X66963587Y-65374000D02*
X68417715Y-65374000D01*
%TO.C,C3*%
X47626400Y-64368349D02*
X45126400Y-64368349D01*
X52613400Y-63368349D02*
X49706400Y-63368349D01*
X52543400Y-63608349D02*
X49706400Y-63608349D01*
X52746400Y-62327349D02*
X44586400Y-62327349D01*
X52602400Y-63408349D02*
X49706400Y-63408349D01*
X52633400Y-63288349D02*
X49706400Y-63288349D01*
X51317400Y-65448349D02*
X46015400Y-65448349D01*
X50894400Y-65768349D02*
X46438400Y-65768349D01*
X50953400Y-65728349D02*
X46379400Y-65728349D01*
X47626400Y-62807349D02*
X44614400Y-62807349D01*
X47626400Y-63288349D02*
X44699400Y-63288349D01*
X47626400Y-64408349D02*
X45149400Y-64408349D01*
X47626400Y-62847349D02*
X44618400Y-62847349D01*
X47626400Y-62967349D02*
X44636400Y-62967349D01*
X51066400Y-65648349D02*
X46266400Y-65648349D01*
X47626400Y-62927349D02*
X44629400Y-62927349D01*
X52206400Y-64368349D02*
X49706400Y-64368349D01*
X49199400Y-66408349D02*
X48133400Y-66408349D01*
X50981400Y-57917651D02*
X50981400Y-58717651D01*
X52668400Y-63128349D02*
X49706400Y-63128349D01*
X52734400Y-62647349D02*
X49706400Y-62647349D01*
X50218400Y-66128349D02*
X47114400Y-66128349D01*
X52642400Y-63248349D02*
X49706400Y-63248349D01*
X51822400Y-64928349D02*
X45510400Y-64928349D01*
X52580400Y-63488349D02*
X49706400Y-63488349D01*
X47626400Y-63168349D02*
X44672400Y-63168349D01*
X47626400Y-63688349D02*
X44816400Y-63688349D01*
X52423400Y-63928349D02*
X49706400Y-63928349D01*
X47626400Y-64088349D02*
X44980400Y-64088349D01*
X47626400Y-64448349D02*
X45173400Y-64448349D01*
X52727400Y-62727349D02*
X49706400Y-62727349D01*
X52058400Y-64608349D02*
X49706400Y-64608349D01*
X51222400Y-65528349D02*
X46110400Y-65528349D01*
X47626400Y-63248349D02*
X44690400Y-63248349D01*
X52084400Y-64568349D02*
X49706400Y-64568349D01*
X50700400Y-65888349D02*
X46632400Y-65888349D01*
X50556400Y-65968349D02*
X46776400Y-65968349D01*
X47626400Y-63928349D02*
X44909400Y-63928349D01*
X51756400Y-65008349D02*
X45576400Y-65008349D01*
X52183400Y-64408349D02*
X49706400Y-64408349D01*
X47626400Y-64528349D02*
X45222400Y-64528349D01*
X49434400Y-66368349D02*
X47898400Y-66368349D01*
X47626400Y-63568349D02*
X44777400Y-63568349D01*
X52529400Y-63648349D02*
X49706400Y-63648349D01*
X52737400Y-62607349D02*
X49706400Y-62607349D01*
X52440400Y-63888349D02*
X49706400Y-63888349D01*
X51886400Y-64848349D02*
X45446400Y-64848349D01*
X52555400Y-63568349D02*
X49706400Y-63568349D01*
X47626400Y-62687349D02*
X44601400Y-62687349D01*
X52272400Y-64248349D02*
X49706400Y-64248349D01*
X51533400Y-65248349D02*
X45799400Y-65248349D01*
X49614400Y-66328349D02*
X47718400Y-66328349D01*
X47626400Y-63328349D02*
X44709400Y-63328349D01*
X51649400Y-65128349D02*
X45683400Y-65128349D01*
X47626400Y-62607349D02*
X44595400Y-62607349D01*
X47626400Y-63848349D02*
X44876400Y-63848349D01*
X52660400Y-63168349D02*
X49706400Y-63168349D01*
X47626400Y-63808349D02*
X44861400Y-63808349D01*
X47626400Y-63488349D02*
X44752400Y-63488349D01*
X52676400Y-63088349D02*
X49706400Y-63088349D01*
X51120400Y-65608349D02*
X46212400Y-65608349D01*
X52708400Y-62887349D02*
X49706400Y-62887349D01*
X52746400Y-62407349D02*
X44586400Y-62407349D01*
X47626400Y-63088349D02*
X44656400Y-63088349D01*
X52159400Y-64448349D02*
X49706400Y-64448349D01*
X50119400Y-66168349D02*
X47213400Y-66168349D01*
X47626400Y-64288349D02*
X45082400Y-64288349D01*
X49895400Y-66248349D02*
X47437400Y-66248349D01*
X51450400Y-65328349D02*
X45882400Y-65328349D01*
X47626400Y-64568349D02*
X45248400Y-64568349D01*
X52703400Y-62927349D02*
X49706400Y-62927349D01*
X52370400Y-64048349D02*
X49706400Y-64048349D01*
X47626400Y-63528349D02*
X44764400Y-63528349D01*
X47626400Y-63368349D02*
X44719400Y-63368349D01*
X52228400Y-64328349D02*
X49706400Y-64328349D01*
X51363400Y-65408349D02*
X45969400Y-65408349D01*
X52591400Y-63448349D02*
X49706400Y-63448349D01*
X47626400Y-63408349D02*
X44730400Y-63408349D01*
X52745400Y-62447349D02*
X44587400Y-62447349D01*
X47626400Y-63048349D02*
X44649400Y-63048349D01*
X51855400Y-64888349D02*
X45477400Y-64888349D01*
X52456400Y-63848349D02*
X49706400Y-63848349D01*
X52623400Y-63328349D02*
X49706400Y-63328349D01*
X52746400Y-62367349D02*
X44586400Y-62367349D01*
X52352400Y-64088349D02*
X49706400Y-64088349D01*
X47626400Y-64128349D02*
X45000400Y-64128349D01*
X52731400Y-62687349D02*
X49706400Y-62687349D01*
X47626400Y-63128349D02*
X44664400Y-63128349D01*
X52471400Y-63808349D02*
X49706400Y-63808349D01*
X52135400Y-64488349D02*
X49706400Y-64488349D01*
X52723400Y-62767349D02*
X49706400Y-62767349D01*
X50012400Y-66208349D02*
X47320400Y-66208349D01*
X52332400Y-64128349D02*
X49706400Y-64128349D01*
X50479400Y-66008349D02*
X46853400Y-66008349D01*
X49764400Y-66288349D02*
X47568400Y-66288349D01*
X47626400Y-64248349D02*
X45060400Y-64248349D01*
X50832400Y-65808349D02*
X46500400Y-65808349D01*
X47626400Y-63728349D02*
X44831400Y-63728349D01*
X52683400Y-63048349D02*
X49706400Y-63048349D01*
X47626400Y-62887349D02*
X44624400Y-62887349D01*
X47626400Y-62567349D02*
X44592400Y-62567349D01*
X47626400Y-63968349D02*
X44926400Y-63968349D01*
X50397400Y-66048349D02*
X46935400Y-66048349D01*
X51573400Y-65208349D02*
X45759400Y-65208349D01*
X52718400Y-62807349D02*
X49706400Y-62807349D01*
X52742400Y-62527349D02*
X44590400Y-62527349D01*
X50630400Y-65928349D02*
X46702400Y-65928349D01*
X52487400Y-63768349D02*
X49706400Y-63768349D01*
X51381400Y-58317651D02*
X50581400Y-58317651D01*
X51790400Y-64968349D02*
X45542400Y-64968349D01*
X47626400Y-63448349D02*
X44741400Y-63448349D01*
X50311400Y-66088349D02*
X47021400Y-66088349D01*
X47626400Y-63648349D02*
X44803400Y-63648349D01*
X47626400Y-64008349D02*
X44944400Y-64008349D01*
X47626400Y-63608349D02*
X44789400Y-63608349D01*
X52714400Y-62847349D02*
X49706400Y-62847349D01*
X51270400Y-65488349D02*
X46062400Y-65488349D01*
X51611400Y-65168349D02*
X45721400Y-65168349D01*
X52388400Y-64008349D02*
X49706400Y-64008349D01*
X52743400Y-62487349D02*
X44589400Y-62487349D01*
X52501400Y-63728349D02*
X49706400Y-63728349D01*
X52250400Y-64288349D02*
X49706400Y-64288349D01*
X51946400Y-64768349D02*
X45386400Y-64768349D01*
X47626400Y-63208349D02*
X44681400Y-63208349D01*
X52110400Y-64528349D02*
X49706400Y-64528349D01*
X52690400Y-63007349D02*
X49706400Y-63007349D01*
X47626400Y-62767349D02*
X44609400Y-62767349D01*
X47626400Y-64168349D02*
X45019400Y-64168349D01*
X52568400Y-63528349D02*
X49706400Y-63528349D01*
X47626400Y-64608349D02*
X45274400Y-64608349D01*
X47626400Y-64048349D02*
X44962400Y-64048349D01*
X51975400Y-64728349D02*
X45357400Y-64728349D01*
X47626400Y-63888349D02*
X44892400Y-63888349D01*
X47626400Y-62727349D02*
X44605400Y-62727349D01*
X52313400Y-64168349D02*
X49706400Y-64168349D01*
X51011400Y-65688349D02*
X46321400Y-65688349D01*
X47626400Y-63007349D02*
X44642400Y-63007349D01*
X51685400Y-65088349D02*
X45647400Y-65088349D01*
X51171400Y-65568349D02*
X46161400Y-65568349D01*
X47626400Y-64328349D02*
X45104400Y-64328349D01*
X47626400Y-62647349D02*
X44598400Y-62647349D01*
X52696400Y-62967349D02*
X49706400Y-62967349D01*
X51492400Y-65288349D02*
X45840400Y-65288349D01*
X51916400Y-64808349D02*
X45416400Y-64808349D01*
X47626400Y-64488349D02*
X45197400Y-64488349D01*
X51407400Y-65368349D02*
X45925400Y-65368349D01*
X52406400Y-63968349D02*
X49706400Y-63968349D01*
X52004400Y-64688349D02*
X45328400Y-64688349D01*
X51721400Y-65048349D02*
X45611400Y-65048349D01*
X50768400Y-65848349D02*
X46564400Y-65848349D01*
X52516400Y-63688349D02*
X49706400Y-63688349D01*
X52031400Y-64648349D02*
X45301400Y-64648349D01*
X52740400Y-62567349D02*
X49706400Y-62567349D01*
X47626400Y-64208349D02*
X45039400Y-64208349D01*
X52293400Y-64208349D02*
X49706400Y-64208349D01*
X52651400Y-63208349D02*
X49706400Y-63208349D01*
X47626400Y-63768349D02*
X44845400Y-63768349D01*
X52786400Y-62327349D02*
G75*
G03*
X52786400Y-62327349I-4120000J0D01*
G01*
%TO.C,U2*%
X49582400Y-43638000D02*
X49582400Y-53918000D01*
X54882400Y-53918000D02*
X54882400Y-43638000D01*
X54882400Y-43638000D02*
X53232400Y-43638000D01*
X47092400Y-53978000D02*
X57372400Y-53978000D01*
X51232400Y-43638000D02*
X49582400Y-43638000D01*
X49582400Y-53918000D02*
X54882400Y-53918000D01*
X57372400Y-43578000D02*
X47092400Y-43578000D01*
X47092400Y-43578000D02*
X47092400Y-53978000D01*
X57372400Y-53978000D02*
X57372400Y-43578000D01*
X51232400Y-43638000D02*
G75*
G03*
X53232400Y-43638000I1000000J0D01*
G01*
D11*
%TO.C,J3*%
X82650000Y-27446500D02*
G75*
G03*
X82650000Y-27446500I-100000J0D01*
G01*
D13*
%TO.C,C14*%
X76529903Y-75322000D02*
X75107399Y-75322000D01*
X76529903Y-73502000D02*
X75107399Y-73502000D01*
%TO.C,D1*%
X114029200Y-39355200D02*
X114185200Y-39355200D01*
X116345200Y-39355200D02*
X116501200Y-39355200D01*
X116500716Y-39355200D02*
G75*
G03*
X116343808Y-36122865I-1235516J1560000D01*
G01*
X114186592Y-36122865D02*
G75*
G03*
X114029684Y-39355200I1078608J-1672335D01*
G01*
X114185363Y-36754070D02*
G75*
G03*
X114185200Y-38836161I1079837J-1041130D01*
G01*
X116345200Y-38836161D02*
G75*
G03*
X116345037Y-36754070I-1080000J1040961D01*
G01*
%TO.C,D2*%
X103365000Y-43604500D02*
X108805000Y-43604500D01*
X108805000Y-40664500D02*
X103365000Y-40664500D01*
X102345000Y-42134500D02*
X103365000Y-42134500D01*
X109825000Y-42134500D02*
X108805000Y-42134500D01*
X103365000Y-40664500D02*
X103365000Y-43604500D01*
X107905000Y-43604500D02*
X107905000Y-40664500D01*
X107785000Y-43604500D02*
X107785000Y-40664500D01*
X108805000Y-43604500D02*
X108805000Y-40664500D01*
X108025000Y-43604500D02*
X108025000Y-40664500D01*
%TO.C,C13*%
X83059748Y-67458000D02*
X84482252Y-67458000D01*
X83059748Y-65638000D02*
X84482252Y-65638000D01*
%TO.C,C1*%
X47599652Y-56536000D02*
X46177148Y-56536000D01*
X47599652Y-54716000D02*
X46177148Y-54716000D01*
%TO.C,TP4*%
X67146400Y-71334400D02*
X67146400Y-72734400D01*
X67146400Y-72734400D02*
X65746400Y-72734400D01*
X65746400Y-72734400D02*
X65746400Y-71334400D01*
X65746400Y-71334400D02*
X67146400Y-71334400D01*
%TO.C,C12*%
X77118000Y-55640000D02*
X77118000Y-58657000D01*
X76958000Y-50529000D02*
X76958000Y-53560000D01*
X78159000Y-55640000D02*
X78159000Y-58405000D01*
X80439000Y-52955000D02*
X80439000Y-56245000D01*
X77198000Y-50552000D02*
X77198000Y-53560000D01*
X78359000Y-55640000D02*
X78359000Y-58322000D01*
X77479000Y-50598000D02*
X77479000Y-53560000D01*
X78319000Y-55640000D02*
X78319000Y-58340000D01*
X79319000Y-51476000D02*
X79319000Y-57724000D01*
X78319000Y-50860000D02*
X78319000Y-53560000D01*
X78639000Y-51016000D02*
X78639000Y-53560000D01*
X78599000Y-55640000D02*
X78599000Y-58206000D01*
X76958000Y-55640000D02*
X76958000Y-58671000D01*
X77839000Y-50686000D02*
X77839000Y-53560000D01*
X78719000Y-51060000D02*
X78719000Y-53560000D01*
X77318000Y-50570000D02*
X77318000Y-53560000D01*
X77038000Y-50535000D02*
X77038000Y-53560000D01*
X80559000Y-53254000D02*
X80559000Y-55946000D01*
X80399000Y-52869000D02*
X80399000Y-56331000D01*
X76718000Y-50520000D02*
X76718000Y-58680000D01*
X79479000Y-51617000D02*
X79479000Y-57583000D01*
X77919000Y-50711000D02*
X77919000Y-53560000D01*
X78679000Y-55640000D02*
X78679000Y-58162000D01*
X80119000Y-52372000D02*
X80119000Y-56828000D01*
X80279000Y-52636000D02*
X80279000Y-56564000D01*
X78839000Y-51131000D02*
X78839000Y-53560000D01*
X80039000Y-52255000D02*
X80039000Y-56945000D01*
X80599000Y-53371000D02*
X80599000Y-55829000D01*
X77559000Y-50615000D02*
X77559000Y-53560000D01*
X79639000Y-51774000D02*
X79639000Y-57426000D01*
X77118000Y-50543000D02*
X77118000Y-53560000D01*
X80719000Y-53832000D02*
X80719000Y-55368000D01*
X80359000Y-52787000D02*
X80359000Y-56413000D01*
X76838000Y-50523000D02*
X76838000Y-58677000D01*
X79839000Y-51996000D02*
X79839000Y-57204000D01*
X76998000Y-50532000D02*
X76998000Y-53560000D01*
X76798000Y-50521000D02*
X76798000Y-58679000D01*
X78759000Y-51083000D02*
X78759000Y-53560000D01*
X79919000Y-52095000D02*
X79919000Y-57105000D01*
X77999000Y-50737000D02*
X77999000Y-53560000D01*
X77238000Y-50558000D02*
X77238000Y-53560000D01*
X77358000Y-55640000D02*
X77358000Y-58624000D01*
X78879000Y-51156000D02*
X78879000Y-53560000D01*
X80159000Y-52434000D02*
X80159000Y-56766000D01*
X78639000Y-55640000D02*
X78639000Y-58184000D01*
X78479000Y-55640000D02*
X78479000Y-58266000D01*
X79879000Y-52044000D02*
X79879000Y-57156000D01*
X77158000Y-50548000D02*
X77158000Y-53560000D01*
X79999000Y-52200000D02*
X79999000Y-57000000D01*
X79239000Y-51411000D02*
X79239000Y-57789000D01*
X72268302Y-52285000D02*
X73068302Y-52285000D01*
X76678000Y-50520000D02*
X76678000Y-58680000D01*
X77639000Y-50633000D02*
X77639000Y-53560000D01*
X80479000Y-53048000D02*
X80479000Y-56152000D01*
X76878000Y-50524000D02*
X76878000Y-58676000D01*
X78919000Y-51182000D02*
X78919000Y-53560000D01*
X80639000Y-53502000D02*
X80639000Y-55698000D01*
X77719000Y-50653000D02*
X77719000Y-53560000D01*
X78559000Y-50973000D02*
X78559000Y-53560000D01*
X80319000Y-52710000D02*
X80319000Y-56490000D01*
X76998000Y-55640000D02*
X76998000Y-58668000D01*
X78199000Y-50810000D02*
X78199000Y-53560000D01*
X77358000Y-50576000D02*
X77358000Y-53560000D01*
X79599000Y-51733000D02*
X79599000Y-57467000D01*
X78719000Y-55640000D02*
X78719000Y-58140000D01*
X78519000Y-55640000D02*
X78519000Y-58247000D01*
X78799000Y-51107000D02*
X78799000Y-53560000D01*
X78839000Y-55640000D02*
X78839000Y-58069000D01*
X78679000Y-51038000D02*
X78679000Y-53560000D01*
X78959000Y-55640000D02*
X78959000Y-57992000D01*
X77519000Y-50606000D02*
X77519000Y-53560000D01*
X79159000Y-51350000D02*
X79159000Y-57850000D01*
X78399000Y-50896000D02*
X78399000Y-53560000D01*
X76758000Y-50520000D02*
X76758000Y-58680000D01*
X77439000Y-55640000D02*
X77439000Y-58610000D01*
X77799000Y-50675000D02*
X77799000Y-53560000D01*
X77559000Y-55640000D02*
X77559000Y-58585000D01*
X77078000Y-50539000D02*
X77078000Y-53560000D01*
X77038000Y-55640000D02*
X77038000Y-58665000D01*
X77599000Y-55640000D02*
X77599000Y-58576000D01*
X79719000Y-51859000D02*
X79719000Y-57341000D01*
X80679000Y-53652000D02*
X80679000Y-55548000D01*
X79359000Y-51510000D02*
X79359000Y-57690000D01*
X77078000Y-55640000D02*
X77078000Y-58661000D01*
X77639000Y-55640000D02*
X77639000Y-58567000D01*
X80079000Y-52313000D02*
X80079000Y-56887000D01*
X77399000Y-55640000D02*
X77399000Y-58617000D01*
X80759000Y-54067000D02*
X80759000Y-55133000D01*
X79679000Y-51816000D02*
X79679000Y-57384000D01*
X77919000Y-55640000D02*
X77919000Y-58489000D01*
X77759000Y-55640000D02*
X77759000Y-58536000D01*
X77959000Y-50723000D02*
X77959000Y-53560000D01*
X78079000Y-55640000D02*
X78079000Y-58435000D01*
X77318000Y-55640000D02*
X77318000Y-58630000D01*
X80239000Y-52566000D02*
X80239000Y-56634000D01*
X78159000Y-50795000D02*
X78159000Y-53560000D01*
X78279000Y-50843000D02*
X78279000Y-53560000D01*
X77599000Y-50624000D02*
X77599000Y-53560000D01*
X78039000Y-55640000D02*
X78039000Y-58450000D01*
X79199000Y-51380000D02*
X79199000Y-57820000D01*
X77719000Y-55640000D02*
X77719000Y-58547000D01*
X78959000Y-51208000D02*
X78959000Y-53560000D01*
X78759000Y-55640000D02*
X78759000Y-58117000D01*
X72668302Y-51885000D02*
X72668302Y-52685000D01*
X78239000Y-50826000D02*
X78239000Y-53560000D01*
X78199000Y-55640000D02*
X78199000Y-58390000D01*
X79559000Y-51693000D02*
X79559000Y-57507000D01*
X78399000Y-55640000D02*
X78399000Y-58304000D01*
X77238000Y-55640000D02*
X77238000Y-58642000D01*
X77799000Y-55640000D02*
X77799000Y-58525000D01*
X78359000Y-50878000D02*
X78359000Y-53560000D01*
X77759000Y-50664000D02*
X77759000Y-53560000D01*
X77679000Y-55640000D02*
X77679000Y-58557000D01*
X78119000Y-50779000D02*
X78119000Y-53560000D01*
X78519000Y-50953000D02*
X78519000Y-53560000D01*
X77999000Y-55640000D02*
X77999000Y-58463000D01*
X78239000Y-55640000D02*
X78239000Y-58374000D01*
X77839000Y-55640000D02*
X77839000Y-58514000D01*
X79439000Y-51581000D02*
X79439000Y-57619000D01*
X77198000Y-55640000D02*
X77198000Y-58648000D01*
X78559000Y-55640000D02*
X78559000Y-58227000D01*
X78999000Y-51235000D02*
X78999000Y-57965000D01*
X79759000Y-51903000D02*
X79759000Y-57297000D01*
X78039000Y-50750000D02*
X78039000Y-53560000D01*
X77679000Y-50643000D02*
X77679000Y-53560000D01*
X79279000Y-51444000D02*
X79279000Y-57756000D01*
X77439000Y-50590000D02*
X77439000Y-53560000D01*
X79119000Y-51320000D02*
X79119000Y-57880000D01*
X78479000Y-50934000D02*
X78479000Y-53560000D01*
X78119000Y-55640000D02*
X78119000Y-58421000D01*
X77278000Y-50563000D02*
X77278000Y-53560000D01*
X78439000Y-50914000D02*
X78439000Y-53560000D01*
X79519000Y-51655000D02*
X79519000Y-57545000D01*
X77879000Y-55640000D02*
X77879000Y-58502000D01*
X78439000Y-55640000D02*
X78439000Y-58286000D01*
X79079000Y-51291000D02*
X79079000Y-57909000D01*
X76918000Y-50526000D02*
X76918000Y-53560000D01*
X76918000Y-55640000D02*
X76918000Y-58674000D01*
X77278000Y-55640000D02*
X77278000Y-58637000D01*
X78879000Y-55640000D02*
X78879000Y-58044000D01*
X79799000Y-51949000D02*
X79799000Y-57251000D01*
X77158000Y-55640000D02*
X77158000Y-58652000D01*
X80519000Y-53147000D02*
X80519000Y-56053000D01*
X77519000Y-55640000D02*
X77519000Y-58594000D01*
X77399000Y-50583000D02*
X77399000Y-53560000D01*
X80199000Y-52498000D02*
X80199000Y-56702000D01*
X77879000Y-50698000D02*
X77879000Y-53560000D01*
X78079000Y-50765000D02*
X78079000Y-53560000D01*
X79399000Y-51545000D02*
X79399000Y-57655000D01*
X78919000Y-55640000D02*
X78919000Y-58018000D01*
X77959000Y-55640000D02*
X77959000Y-58477000D01*
X79039000Y-51262000D02*
X79039000Y-57938000D01*
X78599000Y-50994000D02*
X78599000Y-53560000D01*
X77479000Y-55640000D02*
X77479000Y-58602000D01*
X78279000Y-55640000D02*
X78279000Y-58357000D01*
X78799000Y-55640000D02*
X78799000Y-58093000D01*
X79959000Y-52146000D02*
X79959000Y-57054000D01*
X80798000Y-54600000D02*
G75*
G03*
X80798000Y-54600000I-4120000J0D01*
G01*
%TO.C,TP2*%
X50179200Y-42051200D02*
X48779200Y-42051200D01*
X50179200Y-40651200D02*
X50179200Y-42051200D01*
X48779200Y-40651200D02*
X50179200Y-40651200D01*
X48779200Y-42051200D02*
X48779200Y-40651200D01*
%TO.C,R5*%
X85366436Y-30374000D02*
X86820564Y-30374000D01*
X85366436Y-28554000D02*
X86820564Y-28554000D01*
%TO.C,TP1*%
X33539200Y-31230800D02*
X33539200Y-29830800D01*
X34939200Y-29830800D02*
X34939200Y-31230800D01*
X33539200Y-29830800D02*
X34939200Y-29830800D01*
X34939200Y-31230800D02*
X33539200Y-31230800D01*
%TO.C,R6*%
X110255000Y-38543564D02*
X110255000Y-37089436D01*
X112075000Y-38543564D02*
X112075000Y-37089436D01*
%TO.C,U1*%
X35691400Y-35306000D02*
X35691400Y-36416000D01*
X35645400Y-69436000D02*
X34315400Y-69436000D01*
X35645400Y-68326000D02*
X35645400Y-69436000D01*
X35691400Y-36416000D02*
X34361400Y-36416000D01*
X23901400Y-71374000D02*
X37871400Y-71374000D01*
X37871400Y-71374000D02*
X37871400Y-33274000D01*
X37871400Y-33274000D02*
X23901400Y-33274000D01*
X23901400Y-33274000D02*
X23901400Y-71374000D01*
%TO.C,R2*%
X60325464Y-40756000D02*
X58871336Y-40756000D01*
X60325464Y-42576000D02*
X58871336Y-42576000D01*
%TO.C,TP5*%
X61253600Y-49287200D02*
X61253600Y-50687200D01*
X59853600Y-49287200D02*
X61253600Y-49287200D01*
X61253600Y-50687200D02*
X59853600Y-50687200D01*
X59853600Y-50687200D02*
X59853600Y-49287200D01*
%TD*%
M02*
