M48
; DRILL file {KiCad (6.0.7)} date Sun Nov 13 20:04:29 2022
; FORMAT={-:-/ absolute / metric / decimal}
; #@! TF.CreationDate,2022-11-13T20:04:29-05:00
; #@! TF.GenerationSoftware,Kicad,Pcbnew,(6.0.7)
; #@! TF.FileFunction,MixedPlating,1,2
FMAT,2
METRIC
; #@! TA.AperFunction,Plated,PTH,ViaDrill
T1C0.400
; #@! TA.AperFunction,Plated,PTH,ComponentDrill
T2C0.500
; #@! TA.AperFunction,Plated,PTH,ComponentDrill
T3C0.800
; #@! TA.AperFunction,Plated,PTH,ComponentDrill
T4C0.890
; #@! TA.AperFunction,Plated,PTH,ComponentDrill
T5C0.900
; #@! TA.AperFunction,Plated,PTH,ComponentDrill
T6C1.000
; #@! TA.AperFunction,Plated,PTH,ComponentDrill
T7C1.100
; #@! TA.AperFunction,Plated,PTH,ComponentDrill
T8C2.010
; #@! TA.AperFunction,Plated,PTH,ComponentDrill
T9C2.062
; #@! TA.AperFunction,Plated,PTH,ComponentDrill
T10C2.300
; #@! TA.AperFunction,NonPlated,NPTH,ComponentDrill
T11C1.600
; #@! TA.AperFunction,NonPlated,NPTH,ComponentDrill
T12C3.200
%
G90
G05
T1
X70.917Y-32.791
T2
X31.725Y-30.505
X34.239Y-30.531
X46.33Y-41.275
X49.479Y-41.351
X54.864Y-61.544
X54.915Y-59.08
X60.554Y-49.987
X60.579Y-52.756
X63.5Y-72.034
X66.446Y-72.034
X79.705Y-78.613
X82.601Y-78.613
T3
X48.422Y-44.968
X48.422Y-47.508
X48.422Y-50.048
X48.422Y-52.588
X48.666Y-61.077
X48.666Y-63.577
X56.042Y-44.968
X56.042Y-47.508
X56.042Y-50.048
X56.042Y-52.588
X71.882Y-60.96
X71.882Y-63.5
X71.882Y-66.04
X71.882Y-68.58
X75.428Y-54.6
X77.928Y-54.6
X79.502Y-60.96
X79.502Y-63.5
X79.502Y-66.04
X79.502Y-68.58
X84.318Y-58.664
X85.334Y-73.396
X86.818Y-58.664
X87.834Y-73.396
X112.435Y-48.602
X112.435Y-51.102
T4
X47.676Y-36.45
X50.216Y-36.45
T5
X115.265Y-36.525
X115.265Y-39.065
T6
X26.695Y-68.326
X26.741Y-35.306
X29.235Y-68.326
X29.281Y-35.306
X31.775Y-68.326
X31.821Y-35.306
X34.315Y-68.326
X34.361Y-35.306
X47.309Y-77.838
X49.809Y-77.838
X52.309Y-77.838
T7
X101.005Y-42.134
X102.783Y-48.738
X102.783Y-51.279
X102.783Y-53.819
X111.165Y-42.134
T8
X45.136Y-31.37
X55.296Y-31.37
T9
X97.472Y-71.947
X102.172Y-73.747
X102.172Y-80.647
T10
X44.809Y-74.538
X54.809Y-74.538
T11
X99.672Y-74.047
X99.672Y-78.747
T12
X25.654Y-27.051
X25.654Y-78.74
X115.367Y-78.588
X115.494Y-27.33
T6
X98.845Y-35.054G85X98.845Y-33.054
G05
X102.545Y-31.054G85X104.545Y-31.054
G05
X102.295Y-37.054G85X104.795Y-37.054
G05
T0
M30
