%TF.GenerationSoftware,KiCad,Pcbnew,(6.0.7)*%
%TF.CreationDate,2024-06-12T17:15:33-04:00*%
%TF.ProjectId,DCR BPF V1,44435220-4250-4462-9056-312e6b696361,rev?*%
%TF.SameCoordinates,Original*%
%TF.FileFunction,Copper,L2,Bot*%
%TF.FilePolarity,Positive*%
%FSLAX46Y46*%
G04 Gerber Fmt 4.6, Leading zero omitted, Abs format (unit mm)*
G04 Created by KiCad (PCBNEW (6.0.7)) date 2024-06-12 17:15:33*
%MOMM*%
%LPD*%
G01*
G04 APERTURE LIST*
%TA.AperFunction,ComponentPad*%
%ADD10C,1.600000*%
%TD*%
%TA.AperFunction,ComponentPad*%
%ADD11R,1.700000X1.700000*%
%TD*%
%TA.AperFunction,ComponentPad*%
%ADD12O,1.700000X1.700000*%
%TD*%
%TA.AperFunction,ComponentPad*%
%ADD13C,2.000000*%
%TD*%
G04 APERTURE END LIST*
D10*
%TO.P,C5,1*%
%TO.N,Net-(C1-Pad1)*%
X54356000Y-59690000D03*
%TO.P,C5,2*%
%TO.N,Net-(C4-Pad2)*%
X54356000Y-57190000D03*
%TD*%
%TO.P,C6,1*%
%TO.N,Net-(C1-Pad1)*%
X58928000Y-59690000D03*
%TO.P,C6,2*%
%TO.N,Net-(C4-Pad2)*%
X58928000Y-57190000D03*
%TD*%
%TO.P,C3,1*%
%TO.N,Net-(C1-Pad1)*%
X58928000Y-62992000D03*
%TO.P,C3,2*%
%TO.N,GND*%
X58928000Y-65492000D03*
%TD*%
D11*
%TO.P,J1,1,Pin_1*%
%TO.N,Net-(C1-Pad1)*%
X44513500Y-57922000D03*
D12*
%TO.P,J1,2,Pin_2*%
X44513500Y-60462000D03*
%TO.P,J1,3,Pin_3*%
%TO.N,GND*%
X44513500Y-63002000D03*
%TO.P,J1,4,Pin_4*%
X44513500Y-65542000D03*
%TD*%
D10*
%TO.P,C4,1*%
%TO.N,Net-(C1-Pad1)*%
X49212500Y-59670000D03*
%TO.P,C4,2*%
%TO.N,Net-(C4-Pad2)*%
X49212500Y-57170000D03*
%TD*%
%TO.P,C1,1*%
%TO.N,Net-(C1-Pad1)*%
X49212500Y-62992000D03*
%TO.P,C1,2*%
%TO.N,GND*%
X49212500Y-65492000D03*
%TD*%
D11*
%TO.P,J2,1,Pin_1*%
%TO.N,Net-(C4-Pad2)*%
X77851000Y-57985500D03*
D12*
%TO.P,J2,2,Pin_2*%
X77851000Y-60525500D03*
%TO.P,J2,3,Pin_3*%
%TO.N,GND*%
X77851000Y-63065500D03*
%TO.P,J2,4,Pin_4*%
X77851000Y-65605500D03*
%TD*%
D13*
%TO.P,L1,1,1*%
%TO.N,Net-(C4-Pad2)*%
X67246500Y-60896500D03*
%TO.P,L1,2,2*%
%TO.N,GND*%
X67246500Y-65976500D03*
%TD*%
D10*
%TO.P,C2,1*%
%TO.N,Net-(C1-Pad1)*%
X54356000Y-62948500D03*
%TO.P,C2,2*%
%TO.N,GND*%
X54356000Y-65448500D03*
%TD*%
%TA.AperFunction,Conductor*%
%TO.N,GND*%
G36*
X79761121Y-54694002D02*
G01*
X79807614Y-54747658D01*
X79819000Y-54800000D01*
X79819000Y-67755000D01*
X79798998Y-67823121D01*
X79745342Y-67869614D01*
X79693000Y-67881000D01*
X42481000Y-67881000D01*
X42412879Y-67860998D01*
X42366386Y-67807342D01*
X42355000Y-67755000D01*
X42355000Y-67209170D01*
X66378660Y-67209170D01*
X66384387Y-67216820D01*
X66555542Y-67321705D01*
X66564337Y-67326187D01*
X66774488Y-67413234D01*
X66783873Y-67416283D01*
X67005054Y-67469385D01*
X67014801Y-67470928D01*
X67241570Y-67488775D01*
X67251430Y-67488775D01*
X67478199Y-67470928D01*
X67487946Y-67469385D01*
X67709127Y-67416283D01*
X67718512Y-67413234D01*
X67928663Y-67326187D01*
X67937458Y-67321705D01*
X68104945Y-67219068D01*
X68114407Y-67208610D01*
X68110624Y-67199834D01*
X67259312Y-66348522D01*
X67245368Y-66340908D01*
X67243535Y-66341039D01*
X67236920Y-66345290D01*
X66385420Y-67196790D01*
X66378660Y-67209170D01*
X42355000Y-67209170D01*
X42355000Y-65809966D01*
X43181757Y-65809966D01*
X43212065Y-65944446D01*
X43215145Y-65954275D01*
X43295270Y-66151603D01*
X43299913Y-66160794D01*
X43411194Y-66342388D01*
X43417277Y-66350699D01*
X43556713Y-66511667D01*
X43564080Y-66518883D01*
X43727934Y-66654916D01*
X43736381Y-66660831D01*
X43920256Y-66768279D01*
X43929542Y-66772729D01*
X44128501Y-66848703D01*
X44138399Y-66851579D01*
X44241750Y-66872606D01*
X44255799Y-66871410D01*
X44259500Y-66861065D01*
X44259500Y-66860517D01*
X44767500Y-66860517D01*
X44771564Y-66874359D01*
X44784978Y-66876393D01*
X44791684Y-66875534D01*
X44801762Y-66873392D01*
X45005755Y-66812191D01*
X45015342Y-66808433D01*
X45206595Y-66714739D01*
X45215445Y-66709464D01*
X45388828Y-66585792D01*
X45396700Y-66579139D01*
X45397781Y-66578062D01*
X48490993Y-66578062D01*
X48500289Y-66590077D01*
X48551494Y-66625931D01*
X48560989Y-66631414D01*
X48758447Y-66723490D01*
X48768739Y-66727236D01*
X48979188Y-66783625D01*
X48989981Y-66785528D01*
X49207025Y-66804517D01*
X49217975Y-66804517D01*
X49435019Y-66785528D01*
X49445812Y-66783625D01*
X49656261Y-66727236D01*
X49666553Y-66723490D01*
X49864011Y-66631414D01*
X49873506Y-66625931D01*
X49925548Y-66589491D01*
X49933924Y-66579012D01*
X49926856Y-66565566D01*
X49895852Y-66534562D01*
X53634493Y-66534562D01*
X53643789Y-66546577D01*
X53694994Y-66582431D01*
X53704489Y-66587914D01*
X53901947Y-66679990D01*
X53912239Y-66683736D01*
X54122688Y-66740125D01*
X54133481Y-66742028D01*
X54350525Y-66761017D01*
X54361475Y-66761017D01*
X54578519Y-66742028D01*
X54589312Y-66740125D01*
X54799761Y-66683736D01*
X54810053Y-66679990D01*
X55007511Y-66587914D01*
X55017006Y-66582431D01*
X55023246Y-66578062D01*
X58206493Y-66578062D01*
X58215789Y-66590077D01*
X58266994Y-66625931D01*
X58276489Y-66631414D01*
X58473947Y-66723490D01*
X58484239Y-66727236D01*
X58694688Y-66783625D01*
X58705481Y-66785528D01*
X58922525Y-66804517D01*
X58933475Y-66804517D01*
X59150519Y-66785528D01*
X59161312Y-66783625D01*
X59371761Y-66727236D01*
X59382053Y-66723490D01*
X59579511Y-66631414D01*
X59589006Y-66625931D01*
X59641048Y-66589491D01*
X59649424Y-66579012D01*
X59642356Y-66565566D01*
X58940812Y-65864022D01*
X58926868Y-65856408D01*
X58925035Y-65856539D01*
X58918420Y-65860790D01*
X58212923Y-66566287D01*
X58206493Y-66578062D01*
X55023246Y-66578062D01*
X55069048Y-66545991D01*
X55077424Y-66535512D01*
X55070356Y-66522066D01*
X54368812Y-65820522D01*
X54354868Y-65812908D01*
X54353035Y-65813039D01*
X54346420Y-65817290D01*
X53640923Y-66522787D01*
X53634493Y-66534562D01*
X49895852Y-66534562D01*
X49225312Y-65864022D01*
X49211368Y-65856408D01*
X49209535Y-65856539D01*
X49202920Y-65860790D01*
X48497423Y-66566287D01*
X48490993Y-66578062D01*
X45397781Y-66578062D01*
X45547552Y-66428812D01*
X45554230Y-66420965D01*
X45678503Y-66248020D01*
X45683813Y-66239183D01*
X45778170Y-66048267D01*
X45781969Y-66038672D01*
X45843877Y-65834910D01*
X45846055Y-65824837D01*
X45847486Y-65813962D01*
X45845275Y-65799778D01*
X45832117Y-65796000D01*
X44785615Y-65796000D01*
X44770376Y-65800475D01*
X44769171Y-65801865D01*
X44767500Y-65809548D01*
X44767500Y-66860517D01*
X44259500Y-66860517D01*
X44259500Y-65814115D01*
X44255025Y-65798876D01*
X44253635Y-65797671D01*
X44245952Y-65796000D01*
X43196725Y-65796000D01*
X43183194Y-65799973D01*
X43181757Y-65809966D01*
X42355000Y-65809966D01*
X42355000Y-65497475D01*
X47899983Y-65497475D01*
X47918972Y-65714519D01*
X47920875Y-65725312D01*
X47977264Y-65935761D01*
X47981010Y-65946053D01*
X48073086Y-66143511D01*
X48078569Y-66153006D01*
X48115009Y-66205048D01*
X48125488Y-66213424D01*
X48138934Y-66206356D01*
X48840478Y-65504812D01*
X48846856Y-65493132D01*
X49576908Y-65493132D01*
X49577039Y-65494965D01*
X49581290Y-65501580D01*
X50286787Y-66207077D01*
X50298562Y-66213507D01*
X50310577Y-66204211D01*
X50346431Y-66153006D01*
X50351914Y-66143511D01*
X50443990Y-65946053D01*
X50447736Y-65935761D01*
X50504125Y-65725312D01*
X50506028Y-65714519D01*
X50525017Y-65497475D01*
X50525017Y-65486525D01*
X50522169Y-65453975D01*
X53043483Y-65453975D01*
X53062472Y-65671019D01*
X53064375Y-65681812D01*
X53120764Y-65892261D01*
X53124510Y-65902553D01*
X53216586Y-66100011D01*
X53222069Y-66109506D01*
X53258509Y-66161548D01*
X53268988Y-66169924D01*
X53282434Y-66162856D01*
X53983978Y-65461312D01*
X53990356Y-65449632D01*
X54720408Y-65449632D01*
X54720539Y-65451465D01*
X54724790Y-65458080D01*
X55430287Y-66163577D01*
X55442062Y-66170007D01*
X55454077Y-66160711D01*
X55489931Y-66109506D01*
X55495414Y-66100011D01*
X55587490Y-65902553D01*
X55591236Y-65892261D01*
X55647625Y-65681812D01*
X55649528Y-65671019D01*
X55664711Y-65497475D01*
X57615483Y-65497475D01*
X57634472Y-65714519D01*
X57636375Y-65725312D01*
X57692764Y-65935761D01*
X57696510Y-65946053D01*
X57788586Y-66143511D01*
X57794069Y-66153006D01*
X57830509Y-66205048D01*
X57840988Y-66213424D01*
X57854434Y-66206356D01*
X58555978Y-65504812D01*
X58562356Y-65493132D01*
X59292408Y-65493132D01*
X59292539Y-65494965D01*
X59296790Y-65501580D01*
X60002287Y-66207077D01*
X60014062Y-66213507D01*
X60026077Y-66204211D01*
X60061931Y-66153006D01*
X60067414Y-66143511D01*
X60142993Y-65981430D01*
X65734225Y-65981430D01*
X65752072Y-66208199D01*
X65753615Y-66217946D01*
X65806717Y-66439127D01*
X65809766Y-66448512D01*
X65896813Y-66658663D01*
X65901295Y-66667458D01*
X66003932Y-66834945D01*
X66014390Y-66844407D01*
X66023166Y-66840624D01*
X66874478Y-65989312D01*
X66880856Y-65977632D01*
X67610908Y-65977632D01*
X67611039Y-65979465D01*
X67615290Y-65986080D01*
X68466790Y-66837580D01*
X68479170Y-66844340D01*
X68486820Y-66838613D01*
X68591705Y-66667458D01*
X68596187Y-66658663D01*
X68683234Y-66448512D01*
X68686283Y-66439127D01*
X68739385Y-66217946D01*
X68740928Y-66208199D01*
X68758775Y-65981430D01*
X68758775Y-65971570D01*
X68751054Y-65873466D01*
X76519257Y-65873466D01*
X76549565Y-66007946D01*
X76552645Y-66017775D01*
X76632770Y-66215103D01*
X76637413Y-66224294D01*
X76748694Y-66405888D01*
X76754777Y-66414199D01*
X76894213Y-66575167D01*
X76901580Y-66582383D01*
X77065434Y-66718416D01*
X77073881Y-66724331D01*
X77257756Y-66831779D01*
X77267042Y-66836229D01*
X77466001Y-66912203D01*
X77475899Y-66915079D01*
X77579250Y-66936106D01*
X77593299Y-66934910D01*
X77597000Y-66924565D01*
X77597000Y-66924017D01*
X78105000Y-66924017D01*
X78109064Y-66937859D01*
X78122478Y-66939893D01*
X78129184Y-66939034D01*
X78139262Y-66936892D01*
X78343255Y-66875691D01*
X78352842Y-66871933D01*
X78544095Y-66778239D01*
X78552945Y-66772964D01*
X78726328Y-66649292D01*
X78734200Y-66642639D01*
X78885052Y-66492312D01*
X78891730Y-66484465D01*
X79016003Y-66311520D01*
X79021313Y-66302683D01*
X79115670Y-66111767D01*
X79119469Y-66102172D01*
X79181377Y-65898410D01*
X79183555Y-65888337D01*
X79184986Y-65877462D01*
X79182775Y-65863278D01*
X79169617Y-65859500D01*
X78123115Y-65859500D01*
X78107876Y-65863975D01*
X78106671Y-65865365D01*
X78105000Y-65873048D01*
X78105000Y-66924017D01*
X77597000Y-66924017D01*
X77597000Y-65877615D01*
X77592525Y-65862376D01*
X77591135Y-65861171D01*
X77583452Y-65859500D01*
X76534225Y-65859500D01*
X76520694Y-65863473D01*
X76519257Y-65873466D01*
X68751054Y-65873466D01*
X68740928Y-65744801D01*
X68739385Y-65735054D01*
X68686283Y-65513873D01*
X68683234Y-65504488D01*
X68614970Y-65339683D01*
X76515389Y-65339683D01*
X76516912Y-65348107D01*
X76529292Y-65351500D01*
X77578885Y-65351500D01*
X77594124Y-65347025D01*
X77595329Y-65345635D01*
X77597000Y-65337952D01*
X77597000Y-65333385D01*
X78105000Y-65333385D01*
X78109475Y-65348624D01*
X78110865Y-65349829D01*
X78118548Y-65351500D01*
X79169344Y-65351500D01*
X79182875Y-65347527D01*
X79184180Y-65338447D01*
X79142214Y-65171375D01*
X79138894Y-65161624D01*
X79053972Y-64966314D01*
X79049105Y-64957239D01*
X78933426Y-64778426D01*
X78927136Y-64770257D01*
X78783806Y-64612740D01*
X78776273Y-64605715D01*
X78609139Y-64473722D01*
X78600552Y-64468017D01*
X78563116Y-64447351D01*
X78513146Y-64396919D01*
X78498374Y-64327476D01*
X78523490Y-64261071D01*
X78550842Y-64234464D01*
X78726327Y-64109292D01*
X78734200Y-64102639D01*
X78885052Y-63952312D01*
X78891730Y-63944465D01*
X79016003Y-63771520D01*
X79021313Y-63762683D01*
X79115670Y-63571767D01*
X79119469Y-63562172D01*
X79181377Y-63358410D01*
X79183555Y-63348337D01*
X79184986Y-63337462D01*
X79182775Y-63323278D01*
X79169617Y-63319500D01*
X78123115Y-63319500D01*
X78107876Y-63323975D01*
X78106671Y-63325365D01*
X78105000Y-63333048D01*
X78105000Y-65333385D01*
X77597000Y-65333385D01*
X77597000Y-63337615D01*
X77592525Y-63322376D01*
X77591135Y-63321171D01*
X77583452Y-63319500D01*
X76534225Y-63319500D01*
X76520694Y-63323473D01*
X76519257Y-63333466D01*
X76549565Y-63467946D01*
X76552645Y-63477775D01*
X76632770Y-63675103D01*
X76637413Y-63684294D01*
X76748694Y-63865888D01*
X76754777Y-63874199D01*
X76894213Y-64035167D01*
X76901580Y-64042383D01*
X77065434Y-64178416D01*
X77073881Y-64184331D01*
X77143479Y-64225001D01*
X77192203Y-64276640D01*
X77205274Y-64346423D01*
X77178543Y-64412194D01*
X77138087Y-64445553D01*
X77129462Y-64450042D01*
X77120738Y-64455536D01*
X76950433Y-64583405D01*
X76942726Y-64590248D01*
X76795590Y-64744217D01*
X76789104Y-64752227D01*
X76669098Y-64928149D01*
X76664000Y-64937123D01*
X76574338Y-65130283D01*
X76570775Y-65139970D01*
X76515389Y-65339683D01*
X68614970Y-65339683D01*
X68596187Y-65294337D01*
X68591705Y-65285542D01*
X68489068Y-65118055D01*
X68478610Y-65108593D01*
X68469834Y-65112376D01*
X67618522Y-65963688D01*
X67610908Y-65977632D01*
X66880856Y-65977632D01*
X66882092Y-65975368D01*
X66881961Y-65973535D01*
X66877710Y-65966920D01*
X66026210Y-65115420D01*
X66013830Y-65108660D01*
X66006180Y-65114387D01*
X65901295Y-65285542D01*
X65896813Y-65294337D01*
X65809766Y-65504488D01*
X65806717Y-65513873D01*
X65753615Y-65735054D01*
X65752072Y-65744801D01*
X65734225Y-65971570D01*
X65734225Y-65981430D01*
X60142993Y-65981430D01*
X60159490Y-65946053D01*
X60163236Y-65935761D01*
X60219625Y-65725312D01*
X60221528Y-65714519D01*
X60240517Y-65497475D01*
X60240517Y-65486525D01*
X60221528Y-65269481D01*
X60219625Y-65258688D01*
X60163236Y-65048239D01*
X60159490Y-65037947D01*
X60067414Y-64840489D01*
X60061931Y-64830994D01*
X60025491Y-64778952D01*
X60015012Y-64770576D01*
X60001566Y-64777644D01*
X59300022Y-65479188D01*
X59292408Y-65493132D01*
X58562356Y-65493132D01*
X58563592Y-65490868D01*
X58563461Y-65489035D01*
X58559210Y-65482420D01*
X57853713Y-64776923D01*
X57841938Y-64770493D01*
X57829923Y-64779789D01*
X57794069Y-64830994D01*
X57788586Y-64840489D01*
X57696510Y-65037947D01*
X57692764Y-65048239D01*
X57636375Y-65258688D01*
X57634472Y-65269481D01*
X57615483Y-65486525D01*
X57615483Y-65497475D01*
X55664711Y-65497475D01*
X55668517Y-65453975D01*
X55668517Y-65443025D01*
X55649528Y-65225981D01*
X55647625Y-65215188D01*
X55591236Y-65004739D01*
X55587490Y-64994447D01*
X55495414Y-64796989D01*
X55489931Y-64787494D01*
X55453491Y-64735452D01*
X55443012Y-64727076D01*
X55429566Y-64734144D01*
X54728022Y-65435688D01*
X54720408Y-65449632D01*
X53990356Y-65449632D01*
X53991592Y-65447368D01*
X53991461Y-65445535D01*
X53987210Y-65438920D01*
X53281713Y-64733423D01*
X53269938Y-64726993D01*
X53257923Y-64736289D01*
X53222069Y-64787494D01*
X53216586Y-64796989D01*
X53124510Y-64994447D01*
X53120764Y-65004739D01*
X53064375Y-65215188D01*
X53062472Y-65225981D01*
X53043483Y-65443025D01*
X53043483Y-65453975D01*
X50522169Y-65453975D01*
X50506028Y-65269481D01*
X50504125Y-65258688D01*
X50447736Y-65048239D01*
X50443990Y-65037947D01*
X50351914Y-64840489D01*
X50346431Y-64830994D01*
X50309991Y-64778952D01*
X50299512Y-64770576D01*
X50286066Y-64777644D01*
X49584522Y-65479188D01*
X49576908Y-65493132D01*
X48846856Y-65493132D01*
X48848092Y-65490868D01*
X48847961Y-65489035D01*
X48843710Y-65482420D01*
X48138213Y-64776923D01*
X48126438Y-64770493D01*
X48114423Y-64779789D01*
X48078569Y-64830994D01*
X48073086Y-64840489D01*
X47981010Y-65037947D01*
X47977264Y-65048239D01*
X47920875Y-65258688D01*
X47918972Y-65269481D01*
X47899983Y-65486525D01*
X47899983Y-65497475D01*
X42355000Y-65497475D01*
X42355000Y-65276183D01*
X43177889Y-65276183D01*
X43179412Y-65284607D01*
X43191792Y-65288000D01*
X44241385Y-65288000D01*
X44256624Y-65283525D01*
X44257829Y-65282135D01*
X44259500Y-65274452D01*
X44259500Y-65269885D01*
X44767500Y-65269885D01*
X44771975Y-65285124D01*
X44773365Y-65286329D01*
X44781048Y-65288000D01*
X45831844Y-65288000D01*
X45845375Y-65284027D01*
X45846680Y-65274947D01*
X45804714Y-65107875D01*
X45801394Y-65098124D01*
X45716472Y-64902814D01*
X45711605Y-64893739D01*
X45595926Y-64714926D01*
X45589636Y-64706757D01*
X45446306Y-64549240D01*
X45438773Y-64542215D01*
X45271639Y-64410222D01*
X45263052Y-64404517D01*
X45225616Y-64383851D01*
X45175646Y-64333419D01*
X45160874Y-64263976D01*
X45185990Y-64197571D01*
X45213342Y-64170964D01*
X45388827Y-64045792D01*
X45396700Y-64039139D01*
X45547552Y-63888812D01*
X45554230Y-63880965D01*
X45678503Y-63708020D01*
X45683813Y-63699183D01*
X45778170Y-63508267D01*
X45781969Y-63498672D01*
X45843877Y-63294910D01*
X45846055Y-63284837D01*
X45847486Y-63273962D01*
X45845275Y-63259778D01*
X45832117Y-63256000D01*
X44785615Y-63256000D01*
X44770376Y-63260475D01*
X44769171Y-63261865D01*
X44767500Y-63269548D01*
X44767500Y-65269885D01*
X44259500Y-65269885D01*
X44259500Y-63274115D01*
X44255025Y-63258876D01*
X44253635Y-63257671D01*
X44245952Y-63256000D01*
X43196725Y-63256000D01*
X43183194Y-63259973D01*
X43181757Y-63269966D01*
X43212065Y-63404446D01*
X43215145Y-63414275D01*
X43295270Y-63611603D01*
X43299913Y-63620794D01*
X43411194Y-63802388D01*
X43417277Y-63810699D01*
X43556713Y-63971667D01*
X43564080Y-63978883D01*
X43727934Y-64114916D01*
X43736381Y-64120831D01*
X43805979Y-64161501D01*
X43854703Y-64213140D01*
X43867774Y-64282923D01*
X43841043Y-64348694D01*
X43800587Y-64382053D01*
X43791962Y-64386542D01*
X43783238Y-64392036D01*
X43612933Y-64519905D01*
X43605226Y-64526748D01*
X43458090Y-64680717D01*
X43451604Y-64688727D01*
X43331598Y-64864649D01*
X43326500Y-64873623D01*
X43236838Y-65066783D01*
X43233275Y-65076470D01*
X43177889Y-65276183D01*
X42355000Y-65276183D01*
X42355000Y-62992000D01*
X47899002Y-62992000D01*
X47918957Y-63220087D01*
X47920381Y-63225400D01*
X47920381Y-63225402D01*
X47946043Y-63321171D01*
X47978216Y-63441243D01*
X47980539Y-63446224D01*
X47980539Y-63446225D01*
X48072651Y-63643762D01*
X48072654Y-63643767D01*
X48074977Y-63648749D01*
X48116479Y-63708020D01*
X48178572Y-63796697D01*
X48206302Y-63836300D01*
X48368200Y-63998198D01*
X48372708Y-64001355D01*
X48372711Y-64001357D01*
X48436171Y-64045792D01*
X48555751Y-64129523D01*
X48560735Y-64131847D01*
X48563028Y-64133171D01*
X48612021Y-64184553D01*
X48625457Y-64254267D01*
X48599071Y-64320178D01*
X48563028Y-64351409D01*
X48551498Y-64358066D01*
X48499452Y-64394509D01*
X48491076Y-64404988D01*
X48498144Y-64418434D01*
X49199688Y-65119978D01*
X49213632Y-65127592D01*
X49215465Y-65127461D01*
X49222080Y-65123210D01*
X49927577Y-64417713D01*
X49934007Y-64405938D01*
X49924711Y-64393923D01*
X49873502Y-64358066D01*
X49861972Y-64351409D01*
X49812979Y-64300027D01*
X49799542Y-64230313D01*
X49825929Y-64164402D01*
X49861972Y-64133171D01*
X49864265Y-64131847D01*
X49869249Y-64129523D01*
X49988829Y-64045792D01*
X50052289Y-64001357D01*
X50052292Y-64001355D01*
X50056800Y-63998198D01*
X50218698Y-63836300D01*
X50246429Y-63796697D01*
X50308521Y-63708020D01*
X50350023Y-63648749D01*
X50352346Y-63643767D01*
X50352349Y-63643762D01*
X50444461Y-63446225D01*
X50444461Y-63446224D01*
X50446784Y-63441243D01*
X50478958Y-63321171D01*
X50504619Y-63225402D01*
X50504619Y-63225400D01*
X50506043Y-63220087D01*
X50525998Y-62992000D01*
X50522192Y-62948500D01*
X53042502Y-62948500D01*
X53062457Y-63176587D01*
X53063881Y-63181900D01*
X53063881Y-63181902D01*
X53108478Y-63348337D01*
X53121716Y-63397743D01*
X53124039Y-63402724D01*
X53124039Y-63402725D01*
X53216151Y-63600262D01*
X53216154Y-63600267D01*
X53218477Y-63605249D01*
X53290438Y-63708020D01*
X53334902Y-63771520D01*
X53349802Y-63792800D01*
X53511700Y-63954698D01*
X53516208Y-63957855D01*
X53516211Y-63957857D01*
X53568259Y-63994301D01*
X53699251Y-64086023D01*
X53704235Y-64088347D01*
X53706528Y-64089671D01*
X53755521Y-64141053D01*
X53768957Y-64210767D01*
X53742571Y-64276678D01*
X53706528Y-64307909D01*
X53694998Y-64314566D01*
X53642952Y-64351009D01*
X53634576Y-64361488D01*
X53641644Y-64374934D01*
X54343188Y-65076478D01*
X54357132Y-65084092D01*
X54358965Y-65083961D01*
X54365580Y-65079710D01*
X55071077Y-64374213D01*
X55077507Y-64362438D01*
X55068211Y-64350423D01*
X55017002Y-64314566D01*
X55005472Y-64307909D01*
X54956479Y-64256527D01*
X54943042Y-64186813D01*
X54969429Y-64120902D01*
X55005472Y-64089671D01*
X55007765Y-64088347D01*
X55012749Y-64086023D01*
X55143741Y-63994301D01*
X55195789Y-63957857D01*
X55195792Y-63957855D01*
X55200300Y-63954698D01*
X55362198Y-63792800D01*
X55377099Y-63771520D01*
X55421562Y-63708020D01*
X55493523Y-63605249D01*
X55495846Y-63600267D01*
X55495849Y-63600262D01*
X55587961Y-63402725D01*
X55587961Y-63402724D01*
X55590284Y-63397743D01*
X55603523Y-63348337D01*
X55648119Y-63181902D01*
X55648119Y-63181900D01*
X55649543Y-63176587D01*
X55665692Y-62992000D01*
X57614502Y-62992000D01*
X57634457Y-63220087D01*
X57635881Y-63225400D01*
X57635881Y-63225402D01*
X57661543Y-63321171D01*
X57693716Y-63441243D01*
X57696039Y-63446224D01*
X57696039Y-63446225D01*
X57788151Y-63643762D01*
X57788154Y-63643767D01*
X57790477Y-63648749D01*
X57831979Y-63708020D01*
X57894072Y-63796697D01*
X57921802Y-63836300D01*
X58083700Y-63998198D01*
X58088208Y-64001355D01*
X58088211Y-64001357D01*
X58151671Y-64045792D01*
X58271251Y-64129523D01*
X58276235Y-64131847D01*
X58278528Y-64133171D01*
X58327521Y-64184553D01*
X58340957Y-64254267D01*
X58314571Y-64320178D01*
X58278528Y-64351409D01*
X58266998Y-64358066D01*
X58214952Y-64394509D01*
X58206576Y-64404988D01*
X58213644Y-64418434D01*
X58915188Y-65119978D01*
X58929132Y-65127592D01*
X58930965Y-65127461D01*
X58937580Y-65123210D01*
X59316400Y-64744390D01*
X66378593Y-64744390D01*
X66382376Y-64753166D01*
X67233688Y-65604478D01*
X67247632Y-65612092D01*
X67249465Y-65611961D01*
X67256080Y-65607710D01*
X68107580Y-64756210D01*
X68114340Y-64743830D01*
X68108613Y-64736180D01*
X67937458Y-64631295D01*
X67928663Y-64626813D01*
X67718512Y-64539766D01*
X67709127Y-64536717D01*
X67487946Y-64483615D01*
X67478199Y-64482072D01*
X67251430Y-64464225D01*
X67241570Y-64464225D01*
X67014801Y-64482072D01*
X67005054Y-64483615D01*
X66783873Y-64536717D01*
X66774488Y-64539766D01*
X66564337Y-64626813D01*
X66555542Y-64631295D01*
X66388055Y-64733932D01*
X66378593Y-64744390D01*
X59316400Y-64744390D01*
X59643077Y-64417713D01*
X59649507Y-64405938D01*
X59640211Y-64393923D01*
X59589002Y-64358066D01*
X59577472Y-64351409D01*
X59528479Y-64300027D01*
X59515042Y-64230313D01*
X59541429Y-64164402D01*
X59577472Y-64133171D01*
X59579765Y-64131847D01*
X59584749Y-64129523D01*
X59704329Y-64045792D01*
X59767789Y-64001357D01*
X59767792Y-64001355D01*
X59772300Y-63998198D01*
X59934198Y-63836300D01*
X59961929Y-63796697D01*
X60024021Y-63708020D01*
X60065523Y-63648749D01*
X60067846Y-63643767D01*
X60067849Y-63643762D01*
X60159961Y-63446225D01*
X60159961Y-63446224D01*
X60162284Y-63441243D01*
X60194458Y-63321171D01*
X60220119Y-63225402D01*
X60220119Y-63225400D01*
X60221543Y-63220087D01*
X60241498Y-62992000D01*
X60221543Y-62763913D01*
X60213782Y-62734947D01*
X60163707Y-62548067D01*
X60163706Y-62548065D01*
X60162284Y-62542757D01*
X60107986Y-62426314D01*
X60067849Y-62340238D01*
X60067846Y-62340233D01*
X60065523Y-62335251D01*
X59992005Y-62230257D01*
X59937357Y-62152211D01*
X59937355Y-62152208D01*
X59934198Y-62147700D01*
X59772300Y-61985802D01*
X59767792Y-61982645D01*
X59767789Y-61982643D01*
X59671950Y-61915536D01*
X59584749Y-61854477D01*
X59579767Y-61852154D01*
X59579762Y-61852151D01*
X59382225Y-61760039D01*
X59382224Y-61760039D01*
X59377243Y-61757716D01*
X59371935Y-61756294D01*
X59371933Y-61756293D01*
X59161402Y-61699881D01*
X59161400Y-61699881D01*
X59156087Y-61698457D01*
X58928000Y-61678502D01*
X58699913Y-61698457D01*
X58694600Y-61699881D01*
X58694598Y-61699881D01*
X58484067Y-61756293D01*
X58484065Y-61756294D01*
X58478757Y-61757716D01*
X58473776Y-61760039D01*
X58473775Y-61760039D01*
X58276238Y-61852151D01*
X58276233Y-61852154D01*
X58271251Y-61854477D01*
X58184050Y-61915536D01*
X58088211Y-61982643D01*
X58088208Y-61982645D01*
X58083700Y-61985802D01*
X57921802Y-62147700D01*
X57918645Y-62152208D01*
X57918643Y-62152211D01*
X57863995Y-62230257D01*
X57790477Y-62335251D01*
X57788154Y-62340233D01*
X57788151Y-62340238D01*
X57748014Y-62426314D01*
X57693716Y-62542757D01*
X57692294Y-62548065D01*
X57692293Y-62548067D01*
X57642218Y-62734947D01*
X57634457Y-62763913D01*
X57614502Y-62992000D01*
X55665692Y-62992000D01*
X55669498Y-62948500D01*
X55649543Y-62720413D01*
X55625685Y-62631375D01*
X55591707Y-62504567D01*
X55591706Y-62504565D01*
X55590284Y-62499257D01*
X55587961Y-62494275D01*
X55495849Y-62296738D01*
X55495846Y-62296733D01*
X55493523Y-62291751D01*
X55392657Y-62147700D01*
X55365357Y-62108711D01*
X55365355Y-62108708D01*
X55362198Y-62104200D01*
X55200300Y-61942302D01*
X55195792Y-61939145D01*
X55195789Y-61939143D01*
X55109991Y-61879067D01*
X55012749Y-61810977D01*
X55007767Y-61808654D01*
X55007762Y-61808651D01*
X54810225Y-61716539D01*
X54810224Y-61716539D01*
X54805243Y-61714216D01*
X54799935Y-61712794D01*
X54799933Y-61712793D01*
X54589402Y-61656381D01*
X54589400Y-61656381D01*
X54584087Y-61654957D01*
X54356000Y-61635002D01*
X54127913Y-61654957D01*
X54122600Y-61656381D01*
X54122598Y-61656381D01*
X53912067Y-61712793D01*
X53912065Y-61712794D01*
X53906757Y-61714216D01*
X53901776Y-61716539D01*
X53901775Y-61716539D01*
X53704238Y-61808651D01*
X53704233Y-61808654D01*
X53699251Y-61810977D01*
X53602009Y-61879067D01*
X53516211Y-61939143D01*
X53516208Y-61939145D01*
X53511700Y-61942302D01*
X53349802Y-62104200D01*
X53346645Y-62108708D01*
X53346643Y-62108711D01*
X53319343Y-62147700D01*
X53218477Y-62291751D01*
X53216154Y-62296733D01*
X53216151Y-62296738D01*
X53124039Y-62494275D01*
X53121716Y-62499257D01*
X53120294Y-62504565D01*
X53120293Y-62504567D01*
X53086315Y-62631375D01*
X53062457Y-62720413D01*
X53042502Y-62948500D01*
X50522192Y-62948500D01*
X50506043Y-62763913D01*
X50498282Y-62734947D01*
X50448207Y-62548067D01*
X50448206Y-62548065D01*
X50446784Y-62542757D01*
X50392486Y-62426314D01*
X50352349Y-62340238D01*
X50352346Y-62340233D01*
X50350023Y-62335251D01*
X50276505Y-62230257D01*
X50221857Y-62152211D01*
X50221855Y-62152208D01*
X50218698Y-62147700D01*
X50056800Y-61985802D01*
X50052292Y-61982645D01*
X50052289Y-61982643D01*
X49956450Y-61915536D01*
X49869249Y-61854477D01*
X49864267Y-61852154D01*
X49864262Y-61852151D01*
X49666725Y-61760039D01*
X49666724Y-61760039D01*
X49661743Y-61757716D01*
X49656435Y-61756294D01*
X49656433Y-61756293D01*
X49445902Y-61699881D01*
X49445900Y-61699881D01*
X49440587Y-61698457D01*
X49212500Y-61678502D01*
X48984413Y-61698457D01*
X48979100Y-61699881D01*
X48979098Y-61699881D01*
X48768567Y-61756293D01*
X48768565Y-61756294D01*
X48763257Y-61757716D01*
X48758276Y-61760039D01*
X48758275Y-61760039D01*
X48560738Y-61852151D01*
X48560733Y-61852154D01*
X48555751Y-61854477D01*
X48468550Y-61915536D01*
X48372711Y-61982643D01*
X48372708Y-61982645D01*
X48368200Y-61985802D01*
X48206302Y-62147700D01*
X48203145Y-62152208D01*
X48203143Y-62152211D01*
X48148495Y-62230257D01*
X48074977Y-62335251D01*
X48072654Y-62340233D01*
X48072651Y-62340238D01*
X48032514Y-62426314D01*
X47978216Y-62542757D01*
X47976794Y-62548065D01*
X47976793Y-62548067D01*
X47926718Y-62734947D01*
X47918957Y-62763913D01*
X47899002Y-62992000D01*
X42355000Y-62992000D01*
X42355000Y-60428695D01*
X43150751Y-60428695D01*
X43151048Y-60433848D01*
X43151048Y-60433851D01*
X43156580Y-60529789D01*
X43163610Y-60651715D01*
X43164747Y-60656761D01*
X43164748Y-60656767D01*
X43179059Y-60720267D01*
X43212722Y-60869639D01*
X43296766Y-61076616D01*
X43413487Y-61267088D01*
X43559750Y-61435938D01*
X43731626Y-61578632D01*
X43747115Y-61587683D01*
X43805455Y-61621774D01*
X43854179Y-61673412D01*
X43867250Y-61743195D01*
X43840519Y-61808967D01*
X43800062Y-61842327D01*
X43791957Y-61846546D01*
X43783238Y-61852036D01*
X43612933Y-61979905D01*
X43605226Y-61986748D01*
X43458090Y-62140717D01*
X43451604Y-62148727D01*
X43331598Y-62324649D01*
X43326500Y-62333623D01*
X43236838Y-62526783D01*
X43233275Y-62536470D01*
X43177889Y-62736183D01*
X43179412Y-62744607D01*
X43191792Y-62748000D01*
X45831844Y-62748000D01*
X45845375Y-62744027D01*
X45846680Y-62734947D01*
X45804714Y-62567875D01*
X45801394Y-62558124D01*
X45716472Y-62362814D01*
X45711605Y-62353739D01*
X45595926Y-62174926D01*
X45589636Y-62166757D01*
X45446306Y-62009240D01*
X45438773Y-62002215D01*
X45271639Y-61870222D01*
X45263056Y-61864520D01*
X45226102Y-61844120D01*
X45176131Y-61793687D01*
X45161359Y-61724245D01*
X45186475Y-61657839D01*
X45213827Y-61631232D01*
X45237297Y-61614491D01*
X45393360Y-61503173D01*
X45551596Y-61345489D01*
X45562304Y-61330588D01*
X45678935Y-61168277D01*
X45681953Y-61164077D01*
X45699647Y-61128277D01*
X45778636Y-60968453D01*
X45778637Y-60968451D01*
X45780930Y-60963811D01*
X45845870Y-60750069D01*
X45875029Y-60528590D01*
X45875111Y-60525240D01*
X45876574Y-60465365D01*
X45876574Y-60465361D01*
X45876656Y-60462000D01*
X45858352Y-60239361D01*
X45803931Y-60022702D01*
X45714854Y-59817840D01*
X45637402Y-59698117D01*
X45619212Y-59670000D01*
X47899002Y-59670000D01*
X47918957Y-59898087D01*
X47920381Y-59903400D01*
X47920381Y-59903402D01*
X47969363Y-60086202D01*
X47978216Y-60119243D01*
X47980539Y-60124224D01*
X47980539Y-60124225D01*
X48072651Y-60321762D01*
X48072654Y-60321767D01*
X48074977Y-60326749D01*
X48092138Y-60351257D01*
X48187230Y-60487062D01*
X48206302Y-60514300D01*
X48368200Y-60676198D01*
X48372708Y-60679355D01*
X48372711Y-60679357D01*
X48391197Y-60692301D01*
X48555751Y-60807523D01*
X48560733Y-60809846D01*
X48560738Y-60809849D01*
X48758275Y-60901961D01*
X48763257Y-60904284D01*
X48768565Y-60905706D01*
X48768567Y-60905707D01*
X48979098Y-60962119D01*
X48979100Y-60962119D01*
X48984413Y-60963543D01*
X49212500Y-60983498D01*
X49440587Y-60963543D01*
X49445900Y-60962119D01*
X49445902Y-60962119D01*
X49656433Y-60905707D01*
X49656435Y-60905706D01*
X49661743Y-60904284D01*
X49666725Y-60901961D01*
X49864262Y-60809849D01*
X49864267Y-60809846D01*
X49869249Y-60807523D01*
X50033803Y-60692301D01*
X50052289Y-60679357D01*
X50052292Y-60679355D01*
X50056800Y-60676198D01*
X50218698Y-60514300D01*
X50237771Y-60487062D01*
X50332862Y-60351257D01*
X50350023Y-60326749D01*
X50352346Y-60321767D01*
X50352349Y-60321762D01*
X50444461Y-60124225D01*
X50444461Y-60124224D01*
X50446784Y-60119243D01*
X50455638Y-60086202D01*
X50504619Y-59903402D01*
X50504619Y-59903400D01*
X50506043Y-59898087D01*
X50524248Y-59690000D01*
X53042502Y-59690000D01*
X53062457Y-59918087D01*
X53063881Y-59923400D01*
X53063881Y-59923402D01*
X53107504Y-60086202D01*
X53121716Y-60139243D01*
X53124039Y-60144224D01*
X53124039Y-60144225D01*
X53216151Y-60341762D01*
X53216154Y-60341767D01*
X53218477Y-60346749D01*
X53221634Y-60351257D01*
X53345804Y-60528590D01*
X53349802Y-60534300D01*
X53511700Y-60696198D01*
X53516208Y-60699355D01*
X53516211Y-60699357D01*
X53531478Y-60710047D01*
X53699251Y-60827523D01*
X53704233Y-60829846D01*
X53704238Y-60829849D01*
X53866918Y-60905707D01*
X53906757Y-60924284D01*
X53912065Y-60925706D01*
X53912067Y-60925707D01*
X54122598Y-60982119D01*
X54122600Y-60982119D01*
X54127913Y-60983543D01*
X54356000Y-61003498D01*
X54584087Y-60983543D01*
X54589400Y-60982119D01*
X54589402Y-60982119D01*
X54799933Y-60925707D01*
X54799935Y-60925706D01*
X54805243Y-60924284D01*
X54845082Y-60905707D01*
X55007762Y-60829849D01*
X55007767Y-60829846D01*
X55012749Y-60827523D01*
X55180522Y-60710047D01*
X55195789Y-60699357D01*
X55195792Y-60699355D01*
X55200300Y-60696198D01*
X55362198Y-60534300D01*
X55366197Y-60528590D01*
X55490366Y-60351257D01*
X55493523Y-60346749D01*
X55495846Y-60341767D01*
X55495849Y-60341762D01*
X55587961Y-60144225D01*
X55587961Y-60144224D01*
X55590284Y-60139243D01*
X55604497Y-60086202D01*
X55648119Y-59923402D01*
X55648119Y-59923400D01*
X55649543Y-59918087D01*
X55669498Y-59690000D01*
X57614502Y-59690000D01*
X57634457Y-59918087D01*
X57635881Y-59923400D01*
X57635881Y-59923402D01*
X57679504Y-60086202D01*
X57693716Y-60139243D01*
X57696039Y-60144224D01*
X57696039Y-60144225D01*
X57788151Y-60341762D01*
X57788154Y-60341767D01*
X57790477Y-60346749D01*
X57793634Y-60351257D01*
X57917804Y-60528590D01*
X57921802Y-60534300D01*
X58083700Y-60696198D01*
X58088208Y-60699355D01*
X58088211Y-60699357D01*
X58103478Y-60710047D01*
X58271251Y-60827523D01*
X58276233Y-60829846D01*
X58276238Y-60829849D01*
X58438918Y-60905707D01*
X58478757Y-60924284D01*
X58484065Y-60925706D01*
X58484067Y-60925707D01*
X58694598Y-60982119D01*
X58694600Y-60982119D01*
X58699913Y-60983543D01*
X58928000Y-61003498D01*
X59156087Y-60983543D01*
X59161400Y-60982119D01*
X59161402Y-60982119D01*
X59371933Y-60925707D01*
X59371935Y-60925706D01*
X59377243Y-60924284D01*
X59417082Y-60905707D01*
X59436827Y-60896500D01*
X65733335Y-60896500D01*
X65751965Y-61133211D01*
X65753119Y-61138018D01*
X65753120Y-61138024D01*
X65783050Y-61262689D01*
X65807395Y-61364094D01*
X65809288Y-61368665D01*
X65809289Y-61368667D01*
X65866245Y-61506171D01*
X65898260Y-61583463D01*
X65900846Y-61587683D01*
X66019741Y-61781702D01*
X66019745Y-61781708D01*
X66022324Y-61785916D01*
X66176531Y-61966469D01*
X66180287Y-61969677D01*
X66195468Y-61982643D01*
X66357084Y-62120676D01*
X66361292Y-62123255D01*
X66361298Y-62123259D01*
X66555317Y-62242154D01*
X66559537Y-62244740D01*
X66564107Y-62246633D01*
X66564111Y-62246635D01*
X66767168Y-62330743D01*
X66778906Y-62335605D01*
X66854440Y-62353739D01*
X67004976Y-62389880D01*
X67004982Y-62389881D01*
X67009789Y-62391035D01*
X67246500Y-62409665D01*
X67483211Y-62391035D01*
X67488018Y-62389881D01*
X67488024Y-62389880D01*
X67638560Y-62353739D01*
X67714094Y-62335605D01*
X67725832Y-62330743D01*
X67928889Y-62246635D01*
X67928893Y-62246633D01*
X67933463Y-62244740D01*
X67937683Y-62242154D01*
X68131702Y-62123259D01*
X68131708Y-62123255D01*
X68135916Y-62120676D01*
X68297532Y-61982643D01*
X68312713Y-61969677D01*
X68316469Y-61966469D01*
X68470676Y-61785916D01*
X68473255Y-61781708D01*
X68473259Y-61781702D01*
X68592154Y-61587683D01*
X68594740Y-61583463D01*
X68626756Y-61506171D01*
X68683711Y-61368667D01*
X68683712Y-61368665D01*
X68685605Y-61364094D01*
X68709950Y-61262689D01*
X68739880Y-61138024D01*
X68739881Y-61138018D01*
X68741035Y-61133211D01*
X68759665Y-60896500D01*
X68741035Y-60659789D01*
X68700799Y-60492195D01*
X76488251Y-60492195D01*
X76488548Y-60497348D01*
X76488548Y-60497351D01*
X76500196Y-60699357D01*
X76501110Y-60715215D01*
X76502247Y-60720261D01*
X76502248Y-60720267D01*
X76510081Y-60755023D01*
X76550222Y-60933139D01*
X76634266Y-61140116D01*
X76648949Y-61164077D01*
X76709379Y-61262689D01*
X76750987Y-61330588D01*
X76897250Y-61499438D01*
X77069126Y-61642132D01*
X77122656Y-61673412D01*
X77142955Y-61685274D01*
X77191679Y-61736912D01*
X77204750Y-61806695D01*
X77178019Y-61872467D01*
X77137562Y-61905827D01*
X77129457Y-61910046D01*
X77120738Y-61915536D01*
X76950433Y-62043405D01*
X76942726Y-62050248D01*
X76795590Y-62204217D01*
X76789104Y-62212227D01*
X76669098Y-62388149D01*
X76664000Y-62397123D01*
X76574338Y-62590283D01*
X76570775Y-62599970D01*
X76515389Y-62799683D01*
X76516912Y-62808107D01*
X76529292Y-62811500D01*
X79169344Y-62811500D01*
X79182875Y-62807527D01*
X79184180Y-62798447D01*
X79142214Y-62631375D01*
X79138894Y-62621624D01*
X79053972Y-62426314D01*
X79049105Y-62417239D01*
X78933426Y-62238426D01*
X78927136Y-62230257D01*
X78783806Y-62072740D01*
X78776273Y-62065715D01*
X78609139Y-61933722D01*
X78600556Y-61928020D01*
X78563602Y-61907620D01*
X78513631Y-61857187D01*
X78498859Y-61787745D01*
X78523975Y-61721339D01*
X78551327Y-61694732D01*
X78605093Y-61656381D01*
X78730860Y-61566673D01*
X78889096Y-61408989D01*
X78948594Y-61326189D01*
X79016435Y-61231777D01*
X79019453Y-61227577D01*
X79050837Y-61164077D01*
X79116136Y-61031953D01*
X79116137Y-61031951D01*
X79118430Y-61027311D01*
X79159671Y-60891570D01*
X79181865Y-60818523D01*
X79181865Y-60818521D01*
X79183370Y-60813569D01*
X79212529Y-60592090D01*
X79213941Y-60534300D01*
X79214074Y-60528865D01*
X79214074Y-60528861D01*
X79214156Y-60525500D01*
X79195852Y-60302861D01*
X79141431Y-60086202D01*
X79052354Y-59881340D01*
X78931014Y-59693777D01*
X78927532Y-59689950D01*
X78783798Y-59531988D01*
X78752746Y-59468142D01*
X78761141Y-59397643D01*
X78806317Y-59342875D01*
X78832761Y-59329206D01*
X78939297Y-59289267D01*
X78947705Y-59286115D01*
X79064261Y-59198761D01*
X79151615Y-59082205D01*
X79202745Y-58945816D01*
X79209500Y-58883634D01*
X79209500Y-57087366D01*
X79202745Y-57025184D01*
X79151615Y-56888795D01*
X79064261Y-56772239D01*
X78947705Y-56684885D01*
X78811316Y-56633755D01*
X78749134Y-56627000D01*
X76952866Y-56627000D01*
X76890684Y-56633755D01*
X76754295Y-56684885D01*
X76637739Y-56772239D01*
X76550385Y-56888795D01*
X76499255Y-57025184D01*
X76492500Y-57087366D01*
X76492500Y-58883634D01*
X76499255Y-58945816D01*
X76550385Y-59082205D01*
X76637739Y-59198761D01*
X76754295Y-59286115D01*
X76762704Y-59289267D01*
X76762705Y-59289268D01*
X76871451Y-59330035D01*
X76928216Y-59372676D01*
X76952916Y-59439238D01*
X76937709Y-59508587D01*
X76918316Y-59535068D01*
X76791629Y-59667638D01*
X76665743Y-59852180D01*
X76644434Y-59898087D01*
X76586590Y-60022702D01*
X76571688Y-60054805D01*
X76511989Y-60270070D01*
X76488251Y-60492195D01*
X68700799Y-60492195D01*
X68685605Y-60428906D01*
X68683711Y-60424333D01*
X68596635Y-60214111D01*
X68596633Y-60214107D01*
X68594740Y-60209537D01*
X68548410Y-60133933D01*
X68473259Y-60011298D01*
X68473255Y-60011292D01*
X68470676Y-60007084D01*
X68316469Y-59826531D01*
X68135916Y-59672324D01*
X68131708Y-59669745D01*
X68131702Y-59669741D01*
X67937683Y-59550846D01*
X67933463Y-59548260D01*
X67928893Y-59546367D01*
X67928889Y-59546365D01*
X67718667Y-59459289D01*
X67718665Y-59459288D01*
X67714094Y-59457395D01*
X67627468Y-59436598D01*
X67488024Y-59403120D01*
X67488018Y-59403119D01*
X67483211Y-59401965D01*
X67246500Y-59383335D01*
X67009789Y-59401965D01*
X67004982Y-59403119D01*
X67004976Y-59403120D01*
X66865532Y-59436598D01*
X66778906Y-59457395D01*
X66774335Y-59459288D01*
X66774333Y-59459289D01*
X66564111Y-59546365D01*
X66564107Y-59546367D01*
X66559537Y-59548260D01*
X66555317Y-59550846D01*
X66361298Y-59669741D01*
X66361292Y-59669745D01*
X66357084Y-59672324D01*
X66176531Y-59826531D01*
X66022324Y-60007084D01*
X66019745Y-60011292D01*
X66019741Y-60011298D01*
X65944590Y-60133933D01*
X65898260Y-60209537D01*
X65896367Y-60214107D01*
X65896365Y-60214111D01*
X65809289Y-60424333D01*
X65807395Y-60428906D01*
X65751965Y-60659789D01*
X65733335Y-60896500D01*
X59436827Y-60896500D01*
X59579762Y-60829849D01*
X59579767Y-60829846D01*
X59584749Y-60827523D01*
X59752522Y-60710047D01*
X59767789Y-60699357D01*
X59767792Y-60699355D01*
X59772300Y-60696198D01*
X59934198Y-60534300D01*
X59938197Y-60528590D01*
X60062366Y-60351257D01*
X60065523Y-60346749D01*
X60067846Y-60341767D01*
X60067849Y-60341762D01*
X60159961Y-60144225D01*
X60159961Y-60144224D01*
X60162284Y-60139243D01*
X60176497Y-60086202D01*
X60220119Y-59923402D01*
X60220119Y-59923400D01*
X60221543Y-59918087D01*
X60241498Y-59690000D01*
X60221543Y-59461913D01*
X60220023Y-59456240D01*
X60163707Y-59246067D01*
X60163706Y-59246065D01*
X60162284Y-59240757D01*
X60109743Y-59128081D01*
X60067849Y-59038238D01*
X60067846Y-59038233D01*
X60065523Y-59033251D01*
X59965018Y-58889715D01*
X59937357Y-58850211D01*
X59937355Y-58850208D01*
X59934198Y-58845700D01*
X59772300Y-58683802D01*
X59767792Y-58680645D01*
X59767789Y-58680643D01*
X59589253Y-58555631D01*
X59584749Y-58552477D01*
X59579767Y-58550154D01*
X59577973Y-58549118D01*
X59528981Y-58497734D01*
X59515546Y-58428021D01*
X59541934Y-58362110D01*
X59577973Y-58330882D01*
X59579767Y-58329846D01*
X59584749Y-58327523D01*
X59664124Y-58271944D01*
X59767789Y-58199357D01*
X59767792Y-58199355D01*
X59772300Y-58196198D01*
X59934198Y-58034300D01*
X59945474Y-58018197D01*
X60062366Y-57851257D01*
X60065523Y-57846749D01*
X60067846Y-57841767D01*
X60067849Y-57841762D01*
X60159961Y-57644225D01*
X60159961Y-57644224D01*
X60162284Y-57639243D01*
X60221543Y-57418087D01*
X60241498Y-57190000D01*
X60221543Y-56961913D01*
X60219499Y-56954285D01*
X60163707Y-56746067D01*
X60163706Y-56746065D01*
X60162284Y-56740757D01*
X60113682Y-56636529D01*
X60067849Y-56538238D01*
X60067846Y-56538233D01*
X60065523Y-56533251D01*
X59934198Y-56345700D01*
X59772300Y-56183802D01*
X59767792Y-56180645D01*
X59767789Y-56180643D01*
X59689611Y-56125902D01*
X59584749Y-56052477D01*
X59579767Y-56050154D01*
X59579762Y-56050151D01*
X59382225Y-55958039D01*
X59382224Y-55958039D01*
X59377243Y-55955716D01*
X59371935Y-55954294D01*
X59371933Y-55954293D01*
X59161402Y-55897881D01*
X59161400Y-55897881D01*
X59156087Y-55896457D01*
X58928000Y-55876502D01*
X58699913Y-55896457D01*
X58694600Y-55897881D01*
X58694598Y-55897881D01*
X58484067Y-55954293D01*
X58484065Y-55954294D01*
X58478757Y-55955716D01*
X58473776Y-55958039D01*
X58473775Y-55958039D01*
X58276238Y-56050151D01*
X58276233Y-56050154D01*
X58271251Y-56052477D01*
X58166389Y-56125902D01*
X58088211Y-56180643D01*
X58088208Y-56180645D01*
X58083700Y-56183802D01*
X57921802Y-56345700D01*
X57790477Y-56533251D01*
X57788154Y-56538233D01*
X57788151Y-56538238D01*
X57742318Y-56636529D01*
X57693716Y-56740757D01*
X57692294Y-56746065D01*
X57692293Y-56746067D01*
X57636501Y-56954285D01*
X57634457Y-56961913D01*
X57614502Y-57190000D01*
X57634457Y-57418087D01*
X57693716Y-57639243D01*
X57696039Y-57644224D01*
X57696039Y-57644225D01*
X57788151Y-57841762D01*
X57788154Y-57841767D01*
X57790477Y-57846749D01*
X57793634Y-57851257D01*
X57910527Y-58018197D01*
X57921802Y-58034300D01*
X58083700Y-58196198D01*
X58088208Y-58199355D01*
X58088211Y-58199357D01*
X58191876Y-58271944D01*
X58271251Y-58327523D01*
X58276233Y-58329846D01*
X58278027Y-58330882D01*
X58327019Y-58382266D01*
X58340454Y-58451979D01*
X58314066Y-58517890D01*
X58278027Y-58549118D01*
X58276233Y-58550154D01*
X58271251Y-58552477D01*
X58266747Y-58555631D01*
X58088211Y-58680643D01*
X58088208Y-58680645D01*
X58083700Y-58683802D01*
X57921802Y-58845700D01*
X57918645Y-58850208D01*
X57918643Y-58850211D01*
X57890982Y-58889715D01*
X57790477Y-59033251D01*
X57788154Y-59038233D01*
X57788151Y-59038238D01*
X57746257Y-59128081D01*
X57693716Y-59240757D01*
X57692294Y-59246065D01*
X57692293Y-59246067D01*
X57635977Y-59456240D01*
X57634457Y-59461913D01*
X57614502Y-59690000D01*
X55669498Y-59690000D01*
X55649543Y-59461913D01*
X55648023Y-59456240D01*
X55591707Y-59246067D01*
X55591706Y-59246065D01*
X55590284Y-59240757D01*
X55537743Y-59128081D01*
X55495849Y-59038238D01*
X55495846Y-59038233D01*
X55493523Y-59033251D01*
X55393018Y-58889715D01*
X55365357Y-58850211D01*
X55365355Y-58850208D01*
X55362198Y-58845700D01*
X55200300Y-58683802D01*
X55195792Y-58680645D01*
X55195789Y-58680643D01*
X55017253Y-58555631D01*
X55012749Y-58552477D01*
X55007767Y-58550154D01*
X55005973Y-58549118D01*
X54956981Y-58497734D01*
X54943546Y-58428021D01*
X54969934Y-58362110D01*
X55005973Y-58330882D01*
X55007767Y-58329846D01*
X55012749Y-58327523D01*
X55092124Y-58271944D01*
X55195789Y-58199357D01*
X55195792Y-58199355D01*
X55200300Y-58196198D01*
X55362198Y-58034300D01*
X55373474Y-58018197D01*
X55490366Y-57851257D01*
X55493523Y-57846749D01*
X55495846Y-57841767D01*
X55495849Y-57841762D01*
X55587961Y-57644225D01*
X55587961Y-57644224D01*
X55590284Y-57639243D01*
X55649543Y-57418087D01*
X55669498Y-57190000D01*
X55649543Y-56961913D01*
X55647499Y-56954285D01*
X55591707Y-56746067D01*
X55591706Y-56746065D01*
X55590284Y-56740757D01*
X55541682Y-56636529D01*
X55495849Y-56538238D01*
X55495846Y-56538233D01*
X55493523Y-56533251D01*
X55362198Y-56345700D01*
X55200300Y-56183802D01*
X55195792Y-56180645D01*
X55195789Y-56180643D01*
X55117611Y-56125902D01*
X55012749Y-56052477D01*
X55007767Y-56050154D01*
X55007762Y-56050151D01*
X54810225Y-55958039D01*
X54810224Y-55958039D01*
X54805243Y-55955716D01*
X54799935Y-55954294D01*
X54799933Y-55954293D01*
X54589402Y-55897881D01*
X54589400Y-55897881D01*
X54584087Y-55896457D01*
X54356000Y-55876502D01*
X54127913Y-55896457D01*
X54122600Y-55897881D01*
X54122598Y-55897881D01*
X53912067Y-55954293D01*
X53912065Y-55954294D01*
X53906757Y-55955716D01*
X53901776Y-55958039D01*
X53901775Y-55958039D01*
X53704238Y-56050151D01*
X53704233Y-56050154D01*
X53699251Y-56052477D01*
X53594389Y-56125902D01*
X53516211Y-56180643D01*
X53516208Y-56180645D01*
X53511700Y-56183802D01*
X53349802Y-56345700D01*
X53218477Y-56533251D01*
X53216154Y-56538233D01*
X53216151Y-56538238D01*
X53170318Y-56636529D01*
X53121716Y-56740757D01*
X53120294Y-56746065D01*
X53120293Y-56746067D01*
X53064501Y-56954285D01*
X53062457Y-56961913D01*
X53042502Y-57190000D01*
X53062457Y-57418087D01*
X53121716Y-57639243D01*
X53124039Y-57644224D01*
X53124039Y-57644225D01*
X53216151Y-57841762D01*
X53216154Y-57841767D01*
X53218477Y-57846749D01*
X53221634Y-57851257D01*
X53338527Y-58018197D01*
X53349802Y-58034300D01*
X53511700Y-58196198D01*
X53516208Y-58199355D01*
X53516211Y-58199357D01*
X53619876Y-58271944D01*
X53699251Y-58327523D01*
X53704233Y-58329846D01*
X53706027Y-58330882D01*
X53755019Y-58382266D01*
X53768454Y-58451979D01*
X53742066Y-58517890D01*
X53706027Y-58549118D01*
X53704233Y-58550154D01*
X53699251Y-58552477D01*
X53694747Y-58555631D01*
X53516211Y-58680643D01*
X53516208Y-58680645D01*
X53511700Y-58683802D01*
X53349802Y-58845700D01*
X53346645Y-58850208D01*
X53346643Y-58850211D01*
X53318982Y-58889715D01*
X53218477Y-59033251D01*
X53216154Y-59038233D01*
X53216151Y-59038238D01*
X53174257Y-59128081D01*
X53121716Y-59240757D01*
X53120294Y-59246065D01*
X53120293Y-59246067D01*
X53063977Y-59456240D01*
X53062457Y-59461913D01*
X53042502Y-59690000D01*
X50524248Y-59690000D01*
X50525998Y-59670000D01*
X50506043Y-59441913D01*
X50496056Y-59404642D01*
X50448207Y-59226067D01*
X50448206Y-59226065D01*
X50446784Y-59220757D01*
X50444461Y-59215775D01*
X50352349Y-59018238D01*
X50352346Y-59018233D01*
X50350023Y-59013251D01*
X50232702Y-58845700D01*
X50221857Y-58830211D01*
X50221855Y-58830208D01*
X50218698Y-58825700D01*
X50056800Y-58663802D01*
X50052292Y-58660645D01*
X50052289Y-58660643D01*
X49897812Y-58552477D01*
X49869249Y-58532477D01*
X49864267Y-58530154D01*
X49862473Y-58529118D01*
X49813481Y-58477734D01*
X49800046Y-58408021D01*
X49826434Y-58342110D01*
X49862473Y-58310882D01*
X49864267Y-58309846D01*
X49869249Y-58307523D01*
X50023726Y-58199357D01*
X50052289Y-58179357D01*
X50052292Y-58179355D01*
X50056800Y-58176198D01*
X50218698Y-58014300D01*
X50350023Y-57826749D01*
X50352346Y-57821767D01*
X50352349Y-57821762D01*
X50444461Y-57624225D01*
X50444461Y-57624224D01*
X50446784Y-57619243D01*
X50502153Y-57412607D01*
X50504619Y-57403402D01*
X50504619Y-57403400D01*
X50506043Y-57398087D01*
X50525998Y-57170000D01*
X50506043Y-56941913D01*
X50491810Y-56888795D01*
X50448207Y-56726067D01*
X50448206Y-56726065D01*
X50446784Y-56720757D01*
X50402958Y-56626771D01*
X50352349Y-56518238D01*
X50352346Y-56518233D01*
X50350023Y-56513251D01*
X50232702Y-56345700D01*
X50221857Y-56330211D01*
X50221855Y-56330208D01*
X50218698Y-56325700D01*
X50056800Y-56163802D01*
X50052292Y-56160645D01*
X50052289Y-56160643D01*
X49974111Y-56105902D01*
X49869249Y-56032477D01*
X49864267Y-56030154D01*
X49864262Y-56030151D01*
X49666725Y-55938039D01*
X49666724Y-55938039D01*
X49661743Y-55935716D01*
X49656435Y-55934294D01*
X49656433Y-55934293D01*
X49445902Y-55877881D01*
X49445900Y-55877881D01*
X49440587Y-55876457D01*
X49212500Y-55856502D01*
X48984413Y-55876457D01*
X48979100Y-55877881D01*
X48979098Y-55877881D01*
X48768567Y-55934293D01*
X48768565Y-55934294D01*
X48763257Y-55935716D01*
X48758276Y-55938039D01*
X48758275Y-55938039D01*
X48560738Y-56030151D01*
X48560733Y-56030154D01*
X48555751Y-56032477D01*
X48450889Y-56105902D01*
X48372711Y-56160643D01*
X48372708Y-56160645D01*
X48368200Y-56163802D01*
X48206302Y-56325700D01*
X48203145Y-56330208D01*
X48203143Y-56330211D01*
X48192298Y-56345700D01*
X48074977Y-56513251D01*
X48072654Y-56518233D01*
X48072651Y-56518238D01*
X48022042Y-56626771D01*
X47978216Y-56720757D01*
X47976794Y-56726065D01*
X47976793Y-56726067D01*
X47933190Y-56888795D01*
X47918957Y-56941913D01*
X47899002Y-57170000D01*
X47918957Y-57398087D01*
X47920381Y-57403400D01*
X47920381Y-57403402D01*
X47922848Y-57412607D01*
X47978216Y-57619243D01*
X47980539Y-57624224D01*
X47980539Y-57624225D01*
X48072651Y-57821762D01*
X48072654Y-57821767D01*
X48074977Y-57826749D01*
X48206302Y-58014300D01*
X48368200Y-58176198D01*
X48372708Y-58179355D01*
X48372711Y-58179357D01*
X48401274Y-58199357D01*
X48555751Y-58307523D01*
X48560733Y-58309846D01*
X48562527Y-58310882D01*
X48611519Y-58362266D01*
X48624954Y-58431979D01*
X48598566Y-58497890D01*
X48562527Y-58529118D01*
X48560733Y-58530154D01*
X48555751Y-58532477D01*
X48527188Y-58552477D01*
X48372711Y-58660643D01*
X48372708Y-58660645D01*
X48368200Y-58663802D01*
X48206302Y-58825700D01*
X48203145Y-58830208D01*
X48203143Y-58830211D01*
X48192298Y-58845700D01*
X48074977Y-59013251D01*
X48072654Y-59018233D01*
X48072651Y-59018238D01*
X47980539Y-59215775D01*
X47978216Y-59220757D01*
X47976794Y-59226065D01*
X47976793Y-59226067D01*
X47928944Y-59404642D01*
X47918957Y-59441913D01*
X47899002Y-59670000D01*
X45619212Y-59670000D01*
X45596322Y-59634617D01*
X45596320Y-59634614D01*
X45593514Y-59630277D01*
X45590032Y-59626450D01*
X45446298Y-59468488D01*
X45415246Y-59404642D01*
X45423641Y-59334143D01*
X45468817Y-59279375D01*
X45495261Y-59265706D01*
X45601797Y-59225767D01*
X45610205Y-59222615D01*
X45726761Y-59135261D01*
X45814115Y-59018705D01*
X45865245Y-58882316D01*
X45872000Y-58820134D01*
X45872000Y-57023866D01*
X45865245Y-56961684D01*
X45814115Y-56825295D01*
X45726761Y-56708739D01*
X45610205Y-56621385D01*
X45473816Y-56570255D01*
X45411634Y-56563500D01*
X43615366Y-56563500D01*
X43553184Y-56570255D01*
X43416795Y-56621385D01*
X43300239Y-56708739D01*
X43212885Y-56825295D01*
X43161755Y-56961684D01*
X43155000Y-57023866D01*
X43155000Y-58820134D01*
X43161755Y-58882316D01*
X43212885Y-59018705D01*
X43300239Y-59135261D01*
X43416795Y-59222615D01*
X43425204Y-59225767D01*
X43425205Y-59225768D01*
X43533951Y-59266535D01*
X43590716Y-59309176D01*
X43615416Y-59375738D01*
X43600209Y-59445087D01*
X43580816Y-59471568D01*
X43454129Y-59604138D01*
X43328243Y-59788680D01*
X43296588Y-59856875D01*
X43268175Y-59918087D01*
X43234188Y-59991305D01*
X43174489Y-60206570D01*
X43150751Y-60428695D01*
X42355000Y-60428695D01*
X42355000Y-54800000D01*
X42375002Y-54731879D01*
X42428658Y-54685386D01*
X42481000Y-54674000D01*
X79693000Y-54674000D01*
X79761121Y-54694002D01*
G37*
%TD.AperFunction*%
%TD*%
M02*
