%TF.GenerationSoftware,KiCad,Pcbnew,(6.0.7)*%
%TF.CreationDate,2024-06-12T17:15:33-04:00*%
%TF.ProjectId,DCR BPF V1,44435220-4250-4462-9056-312e6b696361,rev?*%
%TF.SameCoordinates,Original*%
%TF.FileFunction,Legend,Top*%
%TF.FilePolarity,Positive*%
%FSLAX46Y46*%
G04 Gerber Fmt 4.6, Leading zero omitted, Abs format (unit mm)*
G04 Created by KiCad (PCBNEW (6.0.7)) date 2024-06-12 17:15:33*
%MOMM*%
%LPD*%
G01*
G04 APERTURE LIST*
%ADD10C,0.050000*%
%ADD11C,0.150000*%
%ADD12C,0.120000*%
G04 APERTURE END LIST*
D10*
X62294214Y-56033785D02*
X62365642Y-56057595D01*
X62389452Y-56081404D01*
X62413261Y-56129023D01*
X62413261Y-56200452D01*
X62389452Y-56248071D01*
X62365642Y-56271880D01*
X62318023Y-56295690D01*
X62127547Y-56295690D01*
X62127547Y-55795690D01*
X62294214Y-55795690D01*
X62341833Y-55819500D01*
X62365642Y-55843309D01*
X62389452Y-55890928D01*
X62389452Y-55938547D01*
X62365642Y-55986166D01*
X62341833Y-56009976D01*
X62294214Y-56033785D01*
X62127547Y-56033785D01*
X62841833Y-56295690D02*
X62841833Y-56033785D01*
X62818023Y-55986166D01*
X62770404Y-55962357D01*
X62675166Y-55962357D01*
X62627547Y-55986166D01*
X62841833Y-56271880D02*
X62794214Y-56295690D01*
X62675166Y-56295690D01*
X62627547Y-56271880D01*
X62603738Y-56224261D01*
X62603738Y-56176642D01*
X62627547Y-56129023D01*
X62675166Y-56105214D01*
X62794214Y-56105214D01*
X62841833Y-56081404D01*
X63079928Y-55962357D02*
X63079928Y-56295690D01*
X63079928Y-56009976D02*
X63103738Y-55986166D01*
X63151357Y-55962357D01*
X63222785Y-55962357D01*
X63270404Y-55986166D01*
X63294214Y-56033785D01*
X63294214Y-56295690D01*
X63746595Y-56295690D02*
X63746595Y-55795690D01*
X63746595Y-56271880D02*
X63698976Y-56295690D01*
X63603738Y-56295690D01*
X63556119Y-56271880D01*
X63532309Y-56248071D01*
X63508500Y-56200452D01*
X63508500Y-56057595D01*
X63532309Y-56009976D01*
X63556119Y-55986166D01*
X63603738Y-55962357D01*
X63698976Y-55962357D01*
X63746595Y-55986166D01*
X66294214Y-56248071D02*
X66270404Y-56271880D01*
X66198976Y-56295690D01*
X66151357Y-56295690D01*
X66079928Y-56271880D01*
X66032309Y-56224261D01*
X66008500Y-56176642D01*
X65984690Y-56081404D01*
X65984690Y-56009976D01*
X66008500Y-55914738D01*
X66032309Y-55867119D01*
X66079928Y-55819500D01*
X66151357Y-55795690D01*
X66198976Y-55795690D01*
X66270404Y-55819500D01*
X66294214Y-55843309D01*
X66770404Y-56295690D02*
X66484690Y-56295690D01*
X66627547Y-56295690D02*
X66627547Y-55795690D01*
X66579928Y-55867119D01*
X66532309Y-55914738D01*
X66484690Y-55938547D01*
X67008500Y-56271880D02*
X67008500Y-56295690D01*
X66984690Y-56343309D01*
X66960880Y-56367119D01*
X67198976Y-55843309D02*
X67222785Y-55819500D01*
X67270404Y-55795690D01*
X67389452Y-55795690D01*
X67437071Y-55819500D01*
X67460880Y-55843309D01*
X67484690Y-55890928D01*
X67484690Y-55938547D01*
X67460880Y-56009976D01*
X67175166Y-56295690D01*
X67484690Y-56295690D01*
X67722785Y-56271880D02*
X67722785Y-56295690D01*
X67698976Y-56343309D01*
X67675166Y-56367119D01*
X67889452Y-55795690D02*
X68198976Y-55795690D01*
X68032309Y-55986166D01*
X68103738Y-55986166D01*
X68151357Y-56009976D01*
X68175166Y-56033785D01*
X68198976Y-56081404D01*
X68198976Y-56200452D01*
X68175166Y-56248071D01*
X68151357Y-56271880D01*
X68103738Y-56295690D01*
X67960880Y-56295690D01*
X67913261Y-56271880D01*
X67889452Y-56248071D01*
X70294214Y-56248071D02*
X70270404Y-56271880D01*
X70198976Y-56295690D01*
X70151357Y-56295690D01*
X70079928Y-56271880D01*
X70032309Y-56224261D01*
X70008500Y-56176642D01*
X69984690Y-56081404D01*
X69984690Y-56009976D01*
X70008500Y-55914738D01*
X70032309Y-55867119D01*
X70079928Y-55819500D01*
X70151357Y-55795690D01*
X70198976Y-55795690D01*
X70270404Y-55819500D01*
X70294214Y-55843309D01*
X70722785Y-55962357D02*
X70722785Y-56295690D01*
X70603738Y-55771880D02*
X70484690Y-56129023D01*
X70794214Y-56129023D01*
X71008500Y-56271880D02*
X71008500Y-56295690D01*
X70984690Y-56343309D01*
X70960880Y-56367119D01*
X71460880Y-55795690D02*
X71222785Y-55795690D01*
X71198976Y-56033785D01*
X71222785Y-56009976D01*
X71270404Y-55986166D01*
X71389452Y-55986166D01*
X71437071Y-56009976D01*
X71460880Y-56033785D01*
X71484690Y-56081404D01*
X71484690Y-56200452D01*
X71460880Y-56248071D01*
X71437071Y-56271880D01*
X71389452Y-56295690D01*
X71270404Y-56295690D01*
X71222785Y-56271880D01*
X71198976Y-56248071D01*
X71722785Y-56271880D02*
X71722785Y-56295690D01*
X71698976Y-56343309D01*
X71675166Y-56367119D01*
X72151357Y-55795690D02*
X72056119Y-55795690D01*
X72008500Y-55819500D01*
X71984690Y-55843309D01*
X71937071Y-55914738D01*
X71913261Y-56009976D01*
X71913261Y-56200452D01*
X71937071Y-56248071D01*
X71960880Y-56271880D01*
X72008500Y-56295690D01*
X72103738Y-56295690D01*
X72151357Y-56271880D01*
X72175166Y-56248071D01*
X72198976Y-56200452D01*
X72198976Y-56081404D01*
X72175166Y-56033785D01*
X72151357Y-56009976D01*
X72103738Y-55986166D01*
X72008500Y-55986166D01*
X71960880Y-56009976D01*
X71937071Y-56033785D01*
X71913261Y-56081404D01*
X74246595Y-56295690D02*
X74008500Y-56295690D01*
X74008500Y-55795690D01*
X74675166Y-56295690D02*
X74389452Y-56295690D01*
X74532309Y-56295690D02*
X74532309Y-55795690D01*
X74484690Y-55867119D01*
X74437071Y-55914738D01*
X74389452Y-55938547D01*
X62341833Y-56767357D02*
X62341833Y-57100690D01*
X62222785Y-56576880D02*
X62103738Y-56934023D01*
X62413261Y-56934023D01*
X62698976Y-56600690D02*
X62746595Y-56600690D01*
X62794214Y-56624500D01*
X62818023Y-56648309D01*
X62841833Y-56695928D01*
X62865642Y-56791166D01*
X62865642Y-56910214D01*
X62841833Y-57005452D01*
X62818023Y-57053071D01*
X62794214Y-57076880D01*
X62746595Y-57100690D01*
X62698976Y-57100690D01*
X62651357Y-57076880D01*
X62627547Y-57053071D01*
X62603738Y-57005452D01*
X62579928Y-56910214D01*
X62579928Y-56791166D01*
X62603738Y-56695928D01*
X62627547Y-56648309D01*
X62651357Y-56624500D01*
X62698976Y-56600690D01*
X63079928Y-57100690D02*
X63079928Y-56767357D01*
X63079928Y-56814976D02*
X63103738Y-56791166D01*
X63151357Y-56767357D01*
X63222785Y-56767357D01*
X63270404Y-56791166D01*
X63294214Y-56838785D01*
X63294214Y-57100690D01*
X63294214Y-56838785D02*
X63318023Y-56791166D01*
X63365642Y-56767357D01*
X63437071Y-56767357D01*
X63484690Y-56791166D01*
X63508500Y-56838785D01*
X63508500Y-57100690D01*
X66222785Y-56600690D02*
X66127547Y-56600690D01*
X66079928Y-56624500D01*
X66056119Y-56648309D01*
X66008500Y-56719738D01*
X65984690Y-56814976D01*
X65984690Y-57005452D01*
X66008500Y-57053071D01*
X66032309Y-57076880D01*
X66079928Y-57100690D01*
X66175166Y-57100690D01*
X66222785Y-57076880D01*
X66246595Y-57053071D01*
X66270404Y-57005452D01*
X66270404Y-56886404D01*
X66246595Y-56838785D01*
X66222785Y-56814976D01*
X66175166Y-56791166D01*
X66079928Y-56791166D01*
X66032309Y-56814976D01*
X66008500Y-56838785D01*
X65984690Y-56886404D01*
X66556119Y-56814976D02*
X66508500Y-56791166D01*
X66484690Y-56767357D01*
X66460880Y-56719738D01*
X66460880Y-56695928D01*
X66484690Y-56648309D01*
X66508500Y-56624500D01*
X66556119Y-56600690D01*
X66651357Y-56600690D01*
X66698976Y-56624500D01*
X66722785Y-56648309D01*
X66746595Y-56695928D01*
X66746595Y-56719738D01*
X66722785Y-56767357D01*
X66698976Y-56791166D01*
X66651357Y-56814976D01*
X66556119Y-56814976D01*
X66508500Y-56838785D01*
X66484690Y-56862595D01*
X66460880Y-56910214D01*
X66460880Y-57005452D01*
X66484690Y-57053071D01*
X66508500Y-57076880D01*
X66556119Y-57100690D01*
X66651357Y-57100690D01*
X66698976Y-57076880D01*
X66722785Y-57053071D01*
X66746595Y-57005452D01*
X66746595Y-56910214D01*
X66722785Y-56862595D01*
X66698976Y-56838785D01*
X66651357Y-56814976D01*
X67056119Y-56600690D02*
X67103738Y-56600690D01*
X67151357Y-56624500D01*
X67175166Y-56648309D01*
X67198976Y-56695928D01*
X67222785Y-56791166D01*
X67222785Y-56910214D01*
X67198976Y-57005452D01*
X67175166Y-57053071D01*
X67151357Y-57076880D01*
X67103738Y-57100690D01*
X67056119Y-57100690D01*
X67008500Y-57076880D01*
X66984690Y-57053071D01*
X66960880Y-57005452D01*
X66937071Y-56910214D01*
X66937071Y-56791166D01*
X66960880Y-56695928D01*
X66984690Y-56648309D01*
X67008500Y-56624500D01*
X67056119Y-56600690D01*
X67437071Y-56767357D02*
X67437071Y-57267357D01*
X67437071Y-56791166D02*
X67484690Y-56767357D01*
X67579928Y-56767357D01*
X67627547Y-56791166D01*
X67651357Y-56814976D01*
X67675166Y-56862595D01*
X67675166Y-57005452D01*
X67651357Y-57053071D01*
X67627547Y-57076880D01*
X67579928Y-57100690D01*
X67484690Y-57100690D01*
X67437071Y-57076880D01*
X70270404Y-57100690D02*
X69984690Y-57100690D01*
X70127547Y-57100690D02*
X70127547Y-56600690D01*
X70079928Y-56672119D01*
X70032309Y-56719738D01*
X69984690Y-56743547D01*
X70722785Y-56600690D02*
X70484690Y-56600690D01*
X70460880Y-56838785D01*
X70484690Y-56814976D01*
X70532309Y-56791166D01*
X70651357Y-56791166D01*
X70698976Y-56814976D01*
X70722785Y-56838785D01*
X70746595Y-56886404D01*
X70746595Y-57005452D01*
X70722785Y-57053071D01*
X70698976Y-57076880D01*
X70651357Y-57100690D01*
X70532309Y-57100690D01*
X70484690Y-57076880D01*
X70460880Y-57053071D01*
X71056119Y-56600690D02*
X71103738Y-56600690D01*
X71151357Y-56624500D01*
X71175166Y-56648309D01*
X71198976Y-56695928D01*
X71222785Y-56791166D01*
X71222785Y-56910214D01*
X71198976Y-57005452D01*
X71175166Y-57053071D01*
X71151357Y-57076880D01*
X71103738Y-57100690D01*
X71056119Y-57100690D01*
X71008500Y-57076880D01*
X70984690Y-57053071D01*
X70960880Y-57005452D01*
X70937071Y-56910214D01*
X70937071Y-56791166D01*
X70960880Y-56695928D01*
X70984690Y-56648309D01*
X71008500Y-56624500D01*
X71056119Y-56600690D01*
X71437071Y-56767357D02*
X71437071Y-57267357D01*
X71437071Y-56791166D02*
X71484690Y-56767357D01*
X71579928Y-56767357D01*
X71627547Y-56791166D01*
X71651357Y-56814976D01*
X71675166Y-56862595D01*
X71675166Y-57005452D01*
X71651357Y-57053071D01*
X71627547Y-57076880D01*
X71579928Y-57100690D01*
X71484690Y-57100690D01*
X71437071Y-57076880D01*
X73960880Y-56600690D02*
X74270404Y-56600690D01*
X74103738Y-56791166D01*
X74175166Y-56791166D01*
X74222785Y-56814976D01*
X74246595Y-56838785D01*
X74270404Y-56886404D01*
X74270404Y-57005452D01*
X74246595Y-57053071D01*
X74222785Y-57076880D01*
X74175166Y-57100690D01*
X74032309Y-57100690D01*
X73984690Y-57076880D01*
X73960880Y-57053071D01*
X74484690Y-57053071D02*
X74508500Y-57076880D01*
X74484690Y-57100690D01*
X74460880Y-57076880D01*
X74484690Y-57053071D01*
X74484690Y-57100690D01*
X74746595Y-57100690D02*
X74841833Y-57100690D01*
X74889452Y-57076880D01*
X74913261Y-57053071D01*
X74960880Y-56981642D01*
X74984690Y-56886404D01*
X74984690Y-56695928D01*
X74960880Y-56648309D01*
X74937071Y-56624500D01*
X74889452Y-56600690D01*
X74794214Y-56600690D01*
X74746595Y-56624500D01*
X74722785Y-56648309D01*
X74698976Y-56695928D01*
X74698976Y-56814976D01*
X74722785Y-56862595D01*
X74746595Y-56886404D01*
X74794214Y-56910214D01*
X74889452Y-56910214D01*
X74937071Y-56886404D01*
X74960880Y-56862595D01*
X74984690Y-56814976D01*
X75413261Y-56767357D02*
X75413261Y-57100690D01*
X75198976Y-56767357D02*
X75198976Y-57029261D01*
X75222785Y-57076880D01*
X75270404Y-57100690D01*
X75341833Y-57100690D01*
X75389452Y-57076880D01*
X75413261Y-57053071D01*
X62103738Y-57453309D02*
X62127547Y-57429500D01*
X62175166Y-57405690D01*
X62294214Y-57405690D01*
X62341833Y-57429500D01*
X62365642Y-57453309D01*
X62389452Y-57500928D01*
X62389452Y-57548547D01*
X62365642Y-57619976D01*
X62079928Y-57905690D01*
X62389452Y-57905690D01*
X62698976Y-57405690D02*
X62746595Y-57405690D01*
X62794214Y-57429500D01*
X62818023Y-57453309D01*
X62841833Y-57500928D01*
X62865642Y-57596166D01*
X62865642Y-57715214D01*
X62841833Y-57810452D01*
X62818023Y-57858071D01*
X62794214Y-57881880D01*
X62746595Y-57905690D01*
X62698976Y-57905690D01*
X62651357Y-57881880D01*
X62627547Y-57858071D01*
X62603738Y-57810452D01*
X62579928Y-57715214D01*
X62579928Y-57596166D01*
X62603738Y-57500928D01*
X62627547Y-57453309D01*
X62651357Y-57429500D01*
X62698976Y-57405690D01*
X63079928Y-57905690D02*
X63079928Y-57572357D01*
X63079928Y-57619976D02*
X63103738Y-57596166D01*
X63151357Y-57572357D01*
X63222785Y-57572357D01*
X63270404Y-57596166D01*
X63294214Y-57643785D01*
X63294214Y-57905690D01*
X63294214Y-57643785D02*
X63318023Y-57596166D01*
X63365642Y-57572357D01*
X63437071Y-57572357D01*
X63484690Y-57596166D01*
X63508500Y-57643785D01*
X63508500Y-57905690D01*
X65960880Y-57405690D02*
X66270404Y-57405690D01*
X66103738Y-57596166D01*
X66175166Y-57596166D01*
X66222785Y-57619976D01*
X66246595Y-57643785D01*
X66270404Y-57691404D01*
X66270404Y-57810452D01*
X66246595Y-57858071D01*
X66222785Y-57881880D01*
X66175166Y-57905690D01*
X66032309Y-57905690D01*
X65984690Y-57881880D01*
X65960880Y-57858071D01*
X66508500Y-57905690D02*
X66603738Y-57905690D01*
X66651357Y-57881880D01*
X66675166Y-57858071D01*
X66722785Y-57786642D01*
X66746595Y-57691404D01*
X66746595Y-57500928D01*
X66722785Y-57453309D01*
X66698976Y-57429500D01*
X66651357Y-57405690D01*
X66556119Y-57405690D01*
X66508500Y-57429500D01*
X66484690Y-57453309D01*
X66460880Y-57500928D01*
X66460880Y-57619976D01*
X66484690Y-57667595D01*
X66508500Y-57691404D01*
X66556119Y-57715214D01*
X66651357Y-57715214D01*
X66698976Y-57691404D01*
X66722785Y-57667595D01*
X66746595Y-57619976D01*
X67056119Y-57405690D02*
X67103738Y-57405690D01*
X67151357Y-57429500D01*
X67175166Y-57453309D01*
X67198976Y-57500928D01*
X67222785Y-57596166D01*
X67222785Y-57715214D01*
X67198976Y-57810452D01*
X67175166Y-57858071D01*
X67151357Y-57881880D01*
X67103738Y-57905690D01*
X67056119Y-57905690D01*
X67008500Y-57881880D01*
X66984690Y-57858071D01*
X66960880Y-57810452D01*
X66937071Y-57715214D01*
X66937071Y-57596166D01*
X66960880Y-57500928D01*
X66984690Y-57453309D01*
X67008500Y-57429500D01*
X67056119Y-57405690D01*
X67437071Y-57572357D02*
X67437071Y-58072357D01*
X67437071Y-57596166D02*
X67484690Y-57572357D01*
X67579928Y-57572357D01*
X67627547Y-57596166D01*
X67651357Y-57619976D01*
X67675166Y-57667595D01*
X67675166Y-57810452D01*
X67651357Y-57858071D01*
X67627547Y-57881880D01*
X67579928Y-57905690D01*
X67484690Y-57905690D01*
X67437071Y-57881880D01*
X70079928Y-57619976D02*
X70032309Y-57596166D01*
X70008500Y-57572357D01*
X69984690Y-57524738D01*
X69984690Y-57500928D01*
X70008500Y-57453309D01*
X70032309Y-57429500D01*
X70079928Y-57405690D01*
X70175166Y-57405690D01*
X70222785Y-57429500D01*
X70246595Y-57453309D01*
X70270404Y-57500928D01*
X70270404Y-57524738D01*
X70246595Y-57572357D01*
X70222785Y-57596166D01*
X70175166Y-57619976D01*
X70079928Y-57619976D01*
X70032309Y-57643785D01*
X70008500Y-57667595D01*
X69984690Y-57715214D01*
X69984690Y-57810452D01*
X70008500Y-57858071D01*
X70032309Y-57881880D01*
X70079928Y-57905690D01*
X70175166Y-57905690D01*
X70222785Y-57881880D01*
X70246595Y-57858071D01*
X70270404Y-57810452D01*
X70270404Y-57715214D01*
X70246595Y-57667595D01*
X70222785Y-57643785D01*
X70175166Y-57619976D01*
X70460880Y-57453309D02*
X70484690Y-57429500D01*
X70532309Y-57405690D01*
X70651357Y-57405690D01*
X70698976Y-57429500D01*
X70722785Y-57453309D01*
X70746595Y-57500928D01*
X70746595Y-57548547D01*
X70722785Y-57619976D01*
X70437071Y-57905690D01*
X70746595Y-57905690D01*
X70960880Y-57572357D02*
X70960880Y-58072357D01*
X70960880Y-57596166D02*
X71008500Y-57572357D01*
X71103738Y-57572357D01*
X71151357Y-57596166D01*
X71175166Y-57619976D01*
X71198976Y-57667595D01*
X71198976Y-57810452D01*
X71175166Y-57858071D01*
X71151357Y-57881880D01*
X71103738Y-57905690D01*
X71008500Y-57905690D01*
X70960880Y-57881880D01*
X74270404Y-57905690D02*
X73984690Y-57905690D01*
X74127547Y-57905690D02*
X74127547Y-57405690D01*
X74079928Y-57477119D01*
X74032309Y-57524738D01*
X73984690Y-57548547D01*
X74484690Y-57858071D02*
X74508500Y-57881880D01*
X74484690Y-57905690D01*
X74460880Y-57881880D01*
X74484690Y-57858071D01*
X74484690Y-57905690D01*
X74794214Y-57619976D02*
X74746595Y-57596166D01*
X74722785Y-57572357D01*
X74698976Y-57524738D01*
X74698976Y-57500928D01*
X74722785Y-57453309D01*
X74746595Y-57429500D01*
X74794214Y-57405690D01*
X74889452Y-57405690D01*
X74937071Y-57429500D01*
X74960880Y-57453309D01*
X74984690Y-57500928D01*
X74984690Y-57524738D01*
X74960880Y-57572357D01*
X74937071Y-57596166D01*
X74889452Y-57619976D01*
X74794214Y-57619976D01*
X74746595Y-57643785D01*
X74722785Y-57667595D01*
X74698976Y-57715214D01*
X74698976Y-57810452D01*
X74722785Y-57858071D01*
X74746595Y-57881880D01*
X74794214Y-57905690D01*
X74889452Y-57905690D01*
X74937071Y-57881880D01*
X74960880Y-57858071D01*
X74984690Y-57810452D01*
X74984690Y-57715214D01*
X74960880Y-57667595D01*
X74937071Y-57643785D01*
X74889452Y-57619976D01*
X75413261Y-57572357D02*
X75413261Y-57905690D01*
X75198976Y-57572357D02*
X75198976Y-57834261D01*
X75222785Y-57881880D01*
X75270404Y-57905690D01*
X75341833Y-57905690D01*
X75389452Y-57881880D01*
X75413261Y-57858071D01*
X62389452Y-58710690D02*
X62103738Y-58710690D01*
X62246595Y-58710690D02*
X62246595Y-58210690D01*
X62198976Y-58282119D01*
X62151357Y-58329738D01*
X62103738Y-58353547D01*
X62698976Y-58210690D02*
X62746595Y-58210690D01*
X62794214Y-58234500D01*
X62818023Y-58258309D01*
X62841833Y-58305928D01*
X62865642Y-58401166D01*
X62865642Y-58520214D01*
X62841833Y-58615452D01*
X62818023Y-58663071D01*
X62794214Y-58686880D01*
X62746595Y-58710690D01*
X62698976Y-58710690D01*
X62651357Y-58686880D01*
X62627547Y-58663071D01*
X62603738Y-58615452D01*
X62579928Y-58520214D01*
X62579928Y-58401166D01*
X62603738Y-58305928D01*
X62627547Y-58258309D01*
X62651357Y-58234500D01*
X62698976Y-58210690D01*
X63079928Y-58710690D02*
X63079928Y-58377357D01*
X63079928Y-58424976D02*
X63103738Y-58401166D01*
X63151357Y-58377357D01*
X63222785Y-58377357D01*
X63270404Y-58401166D01*
X63294214Y-58448785D01*
X63294214Y-58710690D01*
X63294214Y-58448785D02*
X63318023Y-58401166D01*
X63365642Y-58377357D01*
X63437071Y-58377357D01*
X63484690Y-58401166D01*
X63508500Y-58448785D01*
X63508500Y-58710690D01*
X66270404Y-58710690D02*
X65984690Y-58710690D01*
X66127547Y-58710690D02*
X66127547Y-58210690D01*
X66079928Y-58282119D01*
X66032309Y-58329738D01*
X65984690Y-58353547D01*
X66722785Y-58210690D02*
X66484690Y-58210690D01*
X66460880Y-58448785D01*
X66484690Y-58424976D01*
X66532309Y-58401166D01*
X66651357Y-58401166D01*
X66698976Y-58424976D01*
X66722785Y-58448785D01*
X66746595Y-58496404D01*
X66746595Y-58615452D01*
X66722785Y-58663071D01*
X66698976Y-58686880D01*
X66651357Y-58710690D01*
X66532309Y-58710690D01*
X66484690Y-58686880D01*
X66460880Y-58663071D01*
X67056119Y-58210690D02*
X67103738Y-58210690D01*
X67151357Y-58234500D01*
X67175166Y-58258309D01*
X67198976Y-58305928D01*
X67222785Y-58401166D01*
X67222785Y-58520214D01*
X67198976Y-58615452D01*
X67175166Y-58663071D01*
X67151357Y-58686880D01*
X67103738Y-58710690D01*
X67056119Y-58710690D01*
X67008500Y-58686880D01*
X66984690Y-58663071D01*
X66960880Y-58615452D01*
X66937071Y-58520214D01*
X66937071Y-58401166D01*
X66960880Y-58305928D01*
X66984690Y-58258309D01*
X67008500Y-58234500D01*
X67056119Y-58210690D01*
X67437071Y-58377357D02*
X67437071Y-58877357D01*
X67437071Y-58401166D02*
X67484690Y-58377357D01*
X67579928Y-58377357D01*
X67627547Y-58401166D01*
X67651357Y-58424976D01*
X67675166Y-58472595D01*
X67675166Y-58615452D01*
X67651357Y-58663071D01*
X67627547Y-58686880D01*
X67579928Y-58710690D01*
X67484690Y-58710690D01*
X67437071Y-58686880D01*
X69960880Y-58210690D02*
X70270404Y-58210690D01*
X70103738Y-58401166D01*
X70175166Y-58401166D01*
X70222785Y-58424976D01*
X70246595Y-58448785D01*
X70270404Y-58496404D01*
X70270404Y-58615452D01*
X70246595Y-58663071D01*
X70222785Y-58686880D01*
X70175166Y-58710690D01*
X70032309Y-58710690D01*
X69984690Y-58686880D01*
X69960880Y-58663071D01*
X70508500Y-58710690D02*
X70603738Y-58710690D01*
X70651357Y-58686880D01*
X70675166Y-58663071D01*
X70722785Y-58591642D01*
X70746595Y-58496404D01*
X70746595Y-58305928D01*
X70722785Y-58258309D01*
X70698976Y-58234500D01*
X70651357Y-58210690D01*
X70556119Y-58210690D01*
X70508500Y-58234500D01*
X70484690Y-58258309D01*
X70460880Y-58305928D01*
X70460880Y-58424976D01*
X70484690Y-58472595D01*
X70508500Y-58496404D01*
X70556119Y-58520214D01*
X70651357Y-58520214D01*
X70698976Y-58496404D01*
X70722785Y-58472595D01*
X70746595Y-58424976D01*
X70960880Y-58377357D02*
X70960880Y-58877357D01*
X70960880Y-58401166D02*
X71008500Y-58377357D01*
X71103738Y-58377357D01*
X71151357Y-58401166D01*
X71175166Y-58424976D01*
X71198976Y-58472595D01*
X71198976Y-58615452D01*
X71175166Y-58663071D01*
X71151357Y-58686880D01*
X71103738Y-58710690D01*
X71008500Y-58710690D01*
X70960880Y-58686880D01*
X74103738Y-58210690D02*
X74151357Y-58210690D01*
X74198976Y-58234500D01*
X74222785Y-58258309D01*
X74246595Y-58305928D01*
X74270404Y-58401166D01*
X74270404Y-58520214D01*
X74246595Y-58615452D01*
X74222785Y-58663071D01*
X74198976Y-58686880D01*
X74151357Y-58710690D01*
X74103738Y-58710690D01*
X74056119Y-58686880D01*
X74032309Y-58663071D01*
X74008500Y-58615452D01*
X73984690Y-58520214D01*
X73984690Y-58401166D01*
X74008500Y-58305928D01*
X74032309Y-58258309D01*
X74056119Y-58234500D01*
X74103738Y-58210690D01*
X74484690Y-58663071D02*
X74508500Y-58686880D01*
X74484690Y-58710690D01*
X74460880Y-58686880D01*
X74484690Y-58663071D01*
X74484690Y-58710690D01*
X74794214Y-58424976D02*
X74746595Y-58401166D01*
X74722785Y-58377357D01*
X74698976Y-58329738D01*
X74698976Y-58305928D01*
X74722785Y-58258309D01*
X74746595Y-58234500D01*
X74794214Y-58210690D01*
X74889452Y-58210690D01*
X74937071Y-58234500D01*
X74960880Y-58258309D01*
X74984690Y-58305928D01*
X74984690Y-58329738D01*
X74960880Y-58377357D01*
X74937071Y-58401166D01*
X74889452Y-58424976D01*
X74794214Y-58424976D01*
X74746595Y-58448785D01*
X74722785Y-58472595D01*
X74698976Y-58520214D01*
X74698976Y-58615452D01*
X74722785Y-58663071D01*
X74746595Y-58686880D01*
X74794214Y-58710690D01*
X74889452Y-58710690D01*
X74937071Y-58686880D01*
X74960880Y-58663071D01*
X74984690Y-58615452D01*
X74984690Y-58520214D01*
X74960880Y-58472595D01*
X74937071Y-58448785D01*
X74889452Y-58424976D01*
X75175166Y-58258309D02*
X75198976Y-58234500D01*
X75246595Y-58210690D01*
X75365642Y-58210690D01*
X75413261Y-58234500D01*
X75437071Y-58258309D01*
X75460880Y-58305928D01*
X75460880Y-58353547D01*
X75437071Y-58424976D01*
X75151357Y-58710690D01*
X75460880Y-58710690D01*
X75889452Y-58377357D02*
X75889452Y-58710690D01*
X75675166Y-58377357D02*
X75675166Y-58639261D01*
X75698976Y-58686880D01*
X75746595Y-58710690D01*
X75818023Y-58710690D01*
X75865642Y-58686880D01*
X75889452Y-58663071D01*
D11*
%TO.C,C5*%
X53032833Y-55431500D02*
X52999500Y-55464833D01*
X52899500Y-55498166D01*
X52832833Y-55498166D01*
X52732833Y-55464833D01*
X52666166Y-55398166D01*
X52632833Y-55331500D01*
X52599500Y-55198166D01*
X52599500Y-55098166D01*
X52632833Y-54964833D01*
X52666166Y-54898166D01*
X52732833Y-54831500D01*
X52832833Y-54798166D01*
X52899500Y-54798166D01*
X52999500Y-54831500D01*
X53032833Y-54864833D01*
X53666166Y-54798166D02*
X53332833Y-54798166D01*
X53299500Y-55131500D01*
X53332833Y-55098166D01*
X53399500Y-55064833D01*
X53566166Y-55064833D01*
X53632833Y-55098166D01*
X53666166Y-55131500D01*
X53699500Y-55198166D01*
X53699500Y-55364833D01*
X53666166Y-55431500D01*
X53632833Y-55464833D01*
X53566166Y-55498166D01*
X53399500Y-55498166D01*
X53332833Y-55464833D01*
X53299500Y-55431500D01*
X54714833Y-55498166D02*
X54314833Y-55498166D01*
X54514833Y-55498166D02*
X54514833Y-54798166D01*
X54448166Y-54898166D01*
X54381500Y-54964833D01*
X54314833Y-54998166D01*
X55348166Y-54798166D02*
X55014833Y-54798166D01*
X54981500Y-55131500D01*
X55014833Y-55098166D01*
X55081500Y-55064833D01*
X55248166Y-55064833D01*
X55314833Y-55098166D01*
X55348166Y-55131500D01*
X55381500Y-55198166D01*
X55381500Y-55364833D01*
X55348166Y-55431500D01*
X55314833Y-55464833D01*
X55248166Y-55498166D01*
X55081500Y-55498166D01*
X55014833Y-55464833D01*
X54981500Y-55431500D01*
X55814833Y-54798166D02*
X55881500Y-54798166D01*
X55948166Y-54831500D01*
X55981500Y-54864833D01*
X56014833Y-54931500D01*
X56048166Y-55064833D01*
X56048166Y-55231500D01*
X56014833Y-55364833D01*
X55981500Y-55431500D01*
X55948166Y-55464833D01*
X55881500Y-55498166D01*
X55814833Y-55498166D01*
X55748166Y-55464833D01*
X55714833Y-55431500D01*
X55681500Y-55364833D01*
X55648166Y-55231500D01*
X55648166Y-55064833D01*
X55681500Y-54931500D01*
X55714833Y-54864833D01*
X55748166Y-54831500D01*
X55814833Y-54798166D01*
%TO.C,C6*%
X57731833Y-55451500D02*
X57698500Y-55484833D01*
X57598500Y-55518166D01*
X57531833Y-55518166D01*
X57431833Y-55484833D01*
X57365166Y-55418166D01*
X57331833Y-55351500D01*
X57298500Y-55218166D01*
X57298500Y-55118166D01*
X57331833Y-54984833D01*
X57365166Y-54918166D01*
X57431833Y-54851500D01*
X57531833Y-54818166D01*
X57598500Y-54818166D01*
X57698500Y-54851500D01*
X57731833Y-54884833D01*
X58331833Y-54818166D02*
X58198500Y-54818166D01*
X58131833Y-54851500D01*
X58098500Y-54884833D01*
X58031833Y-54984833D01*
X57998500Y-55118166D01*
X57998500Y-55384833D01*
X58031833Y-55451500D01*
X58065166Y-55484833D01*
X58131833Y-55518166D01*
X58265166Y-55518166D01*
X58331833Y-55484833D01*
X58365166Y-55451500D01*
X58398500Y-55384833D01*
X58398500Y-55218166D01*
X58365166Y-55151500D01*
X58331833Y-55118166D01*
X58265166Y-55084833D01*
X58131833Y-55084833D01*
X58065166Y-55118166D01*
X58031833Y-55151500D01*
X57998500Y-55218166D01*
X59350333Y-55518166D02*
X58950333Y-55518166D01*
X59150333Y-55518166D02*
X59150333Y-54818166D01*
X59083666Y-54918166D01*
X59017000Y-54984833D01*
X58950333Y-55018166D01*
X59983666Y-54818166D02*
X59650333Y-54818166D01*
X59617000Y-55151500D01*
X59650333Y-55118166D01*
X59717000Y-55084833D01*
X59883666Y-55084833D01*
X59950333Y-55118166D01*
X59983666Y-55151500D01*
X60017000Y-55218166D01*
X60017000Y-55384833D01*
X59983666Y-55451500D01*
X59950333Y-55484833D01*
X59883666Y-55518166D01*
X59717000Y-55518166D01*
X59650333Y-55484833D01*
X59617000Y-55451500D01*
X60450333Y-54818166D02*
X60517000Y-54818166D01*
X60583666Y-54851500D01*
X60617000Y-54884833D01*
X60650333Y-54951500D01*
X60683666Y-55084833D01*
X60683666Y-55251500D01*
X60650333Y-55384833D01*
X60617000Y-55451500D01*
X60583666Y-55484833D01*
X60517000Y-55518166D01*
X60450333Y-55518166D01*
X60383666Y-55484833D01*
X60350333Y-55451500D01*
X60317000Y-55384833D01*
X60283666Y-55251500D01*
X60283666Y-55084833D01*
X60317000Y-54951500D01*
X60350333Y-54884833D01*
X60383666Y-54851500D01*
X60450333Y-54818166D01*
%TO.C,C3*%
X57795333Y-67814000D02*
X57762000Y-67847333D01*
X57662000Y-67880666D01*
X57595333Y-67880666D01*
X57495333Y-67847333D01*
X57428666Y-67780666D01*
X57395333Y-67714000D01*
X57362000Y-67580666D01*
X57362000Y-67480666D01*
X57395333Y-67347333D01*
X57428666Y-67280666D01*
X57495333Y-67214000D01*
X57595333Y-67180666D01*
X57662000Y-67180666D01*
X57762000Y-67214000D01*
X57795333Y-67247333D01*
X58028666Y-67180666D02*
X58462000Y-67180666D01*
X58228666Y-67447333D01*
X58328666Y-67447333D01*
X58395333Y-67480666D01*
X58428666Y-67514000D01*
X58462000Y-67580666D01*
X58462000Y-67747333D01*
X58428666Y-67814000D01*
X58395333Y-67847333D01*
X58328666Y-67880666D01*
X58128666Y-67880666D01*
X58062000Y-67847333D01*
X58028666Y-67814000D01*
X59410666Y-67117166D02*
X59277333Y-67117166D01*
X59210666Y-67150500D01*
X59177333Y-67183833D01*
X59110666Y-67283833D01*
X59077333Y-67417166D01*
X59077333Y-67683833D01*
X59110666Y-67750500D01*
X59144000Y-67783833D01*
X59210666Y-67817166D01*
X59344000Y-67817166D01*
X59410666Y-67783833D01*
X59444000Y-67750500D01*
X59477333Y-67683833D01*
X59477333Y-67517166D01*
X59444000Y-67450500D01*
X59410666Y-67417166D01*
X59344000Y-67383833D01*
X59210666Y-67383833D01*
X59144000Y-67417166D01*
X59110666Y-67450500D01*
X59077333Y-67517166D01*
X59877333Y-67417166D02*
X59810666Y-67383833D01*
X59777333Y-67350500D01*
X59744000Y-67283833D01*
X59744000Y-67250500D01*
X59777333Y-67183833D01*
X59810666Y-67150500D01*
X59877333Y-67117166D01*
X60010666Y-67117166D01*
X60077333Y-67150500D01*
X60110666Y-67183833D01*
X60144000Y-67250500D01*
X60144000Y-67283833D01*
X60110666Y-67350500D01*
X60077333Y-67383833D01*
X60010666Y-67417166D01*
X59877333Y-67417166D01*
X59810666Y-67450500D01*
X59777333Y-67483833D01*
X59744000Y-67550500D01*
X59744000Y-67683833D01*
X59777333Y-67750500D01*
X59810666Y-67783833D01*
X59877333Y-67817166D01*
X60010666Y-67817166D01*
X60077333Y-67783833D01*
X60110666Y-67750500D01*
X60144000Y-67683833D01*
X60144000Y-67550500D01*
X60110666Y-67483833D01*
X60077333Y-67450500D01*
X60010666Y-67417166D01*
X60577333Y-67117166D02*
X60644000Y-67117166D01*
X60710666Y-67150500D01*
X60744000Y-67183833D01*
X60777333Y-67250500D01*
X60810666Y-67383833D01*
X60810666Y-67550500D01*
X60777333Y-67683833D01*
X60744000Y-67750500D01*
X60710666Y-67783833D01*
X60644000Y-67817166D01*
X60577333Y-67817166D01*
X60510666Y-67783833D01*
X60477333Y-67750500D01*
X60444000Y-67683833D01*
X60410666Y-67550500D01*
X60410666Y-67383833D01*
X60444000Y-67250500D01*
X60477333Y-67183833D01*
X60510666Y-67150500D01*
X60577333Y-67117166D01*
%TO.C,J1*%
X43010166Y-55179166D02*
X43010166Y-55679166D01*
X42976833Y-55779166D01*
X42910166Y-55845833D01*
X42810166Y-55879166D01*
X42743500Y-55879166D01*
X43710166Y-55879166D02*
X43310166Y-55879166D01*
X43510166Y-55879166D02*
X43510166Y-55179166D01*
X43443500Y-55279166D01*
X43376833Y-55345833D01*
X43310166Y-55379166D01*
X45480333Y-55879166D02*
X45480333Y-55179166D01*
X45813666Y-55879166D02*
X45813666Y-55179166D01*
X46213666Y-55879166D01*
X46213666Y-55179166D01*
%TO.C,C4*%
X48016333Y-55411500D02*
X47983000Y-55444833D01*
X47883000Y-55478166D01*
X47816333Y-55478166D01*
X47716333Y-55444833D01*
X47649666Y-55378166D01*
X47616333Y-55311500D01*
X47583000Y-55178166D01*
X47583000Y-55078166D01*
X47616333Y-54944833D01*
X47649666Y-54878166D01*
X47716333Y-54811500D01*
X47816333Y-54778166D01*
X47883000Y-54778166D01*
X47983000Y-54811500D01*
X48016333Y-54844833D01*
X48616333Y-55011500D02*
X48616333Y-55478166D01*
X48449666Y-54744833D02*
X48283000Y-55244833D01*
X48716333Y-55244833D01*
X49571333Y-55478166D02*
X49171333Y-55478166D01*
X49371333Y-55478166D02*
X49371333Y-54778166D01*
X49304666Y-54878166D01*
X49238000Y-54944833D01*
X49171333Y-54978166D01*
X50204666Y-54778166D02*
X49871333Y-54778166D01*
X49838000Y-55111500D01*
X49871333Y-55078166D01*
X49938000Y-55044833D01*
X50104666Y-55044833D01*
X50171333Y-55078166D01*
X50204666Y-55111500D01*
X50238000Y-55178166D01*
X50238000Y-55344833D01*
X50204666Y-55411500D01*
X50171333Y-55444833D01*
X50104666Y-55478166D01*
X49938000Y-55478166D01*
X49871333Y-55444833D01*
X49838000Y-55411500D01*
X50671333Y-54778166D02*
X50738000Y-54778166D01*
X50804666Y-54811500D01*
X50838000Y-54844833D01*
X50871333Y-54911500D01*
X50904666Y-55044833D01*
X50904666Y-55211500D01*
X50871333Y-55344833D01*
X50838000Y-55411500D01*
X50804666Y-55444833D01*
X50738000Y-55478166D01*
X50671333Y-55478166D01*
X50604666Y-55444833D01*
X50571333Y-55411500D01*
X50538000Y-55344833D01*
X50504666Y-55211500D01*
X50504666Y-55044833D01*
X50538000Y-54911500D01*
X50571333Y-54844833D01*
X50604666Y-54811500D01*
X50671333Y-54778166D01*
%TO.C,C1*%
X48143333Y-67794000D02*
X48110000Y-67827333D01*
X48010000Y-67860666D01*
X47943333Y-67860666D01*
X47843333Y-67827333D01*
X47776666Y-67760666D01*
X47743333Y-67694000D01*
X47710000Y-67560666D01*
X47710000Y-67460666D01*
X47743333Y-67327333D01*
X47776666Y-67260666D01*
X47843333Y-67194000D01*
X47943333Y-67160666D01*
X48010000Y-67160666D01*
X48110000Y-67194000D01*
X48143333Y-67227333D01*
X48810000Y-67860666D02*
X48410000Y-67860666D01*
X48610000Y-67860666D02*
X48610000Y-67160666D01*
X48543333Y-67260666D01*
X48476666Y-67327333D01*
X48410000Y-67360666D01*
X49631666Y-67160666D02*
X49498333Y-67160666D01*
X49431666Y-67194000D01*
X49398333Y-67227333D01*
X49331666Y-67327333D01*
X49298333Y-67460666D01*
X49298333Y-67727333D01*
X49331666Y-67794000D01*
X49365000Y-67827333D01*
X49431666Y-67860666D01*
X49565000Y-67860666D01*
X49631666Y-67827333D01*
X49665000Y-67794000D01*
X49698333Y-67727333D01*
X49698333Y-67560666D01*
X49665000Y-67494000D01*
X49631666Y-67460666D01*
X49565000Y-67427333D01*
X49431666Y-67427333D01*
X49365000Y-67460666D01*
X49331666Y-67494000D01*
X49298333Y-67560666D01*
X50098333Y-67460666D02*
X50031666Y-67427333D01*
X49998333Y-67394000D01*
X49965000Y-67327333D01*
X49965000Y-67294000D01*
X49998333Y-67227333D01*
X50031666Y-67194000D01*
X50098333Y-67160666D01*
X50231666Y-67160666D01*
X50298333Y-67194000D01*
X50331666Y-67227333D01*
X50365000Y-67294000D01*
X50365000Y-67327333D01*
X50331666Y-67394000D01*
X50298333Y-67427333D01*
X50231666Y-67460666D01*
X50098333Y-67460666D01*
X50031666Y-67494000D01*
X49998333Y-67527333D01*
X49965000Y-67594000D01*
X49965000Y-67727333D01*
X49998333Y-67794000D01*
X50031666Y-67827333D01*
X50098333Y-67860666D01*
X50231666Y-67860666D01*
X50298333Y-67827333D01*
X50331666Y-67794000D01*
X50365000Y-67727333D01*
X50365000Y-67594000D01*
X50331666Y-67527333D01*
X50298333Y-67494000D01*
X50231666Y-67460666D01*
X50798333Y-67160666D02*
X50865000Y-67160666D01*
X50931666Y-67194000D01*
X50965000Y-67227333D01*
X50998333Y-67294000D01*
X51031666Y-67427333D01*
X51031666Y-67594000D01*
X50998333Y-67727333D01*
X50965000Y-67794000D01*
X50931666Y-67827333D01*
X50865000Y-67860666D01*
X50798333Y-67860666D01*
X50731666Y-67827333D01*
X50698333Y-67794000D01*
X50665000Y-67727333D01*
X50631666Y-67594000D01*
X50631666Y-67427333D01*
X50665000Y-67294000D01*
X50698333Y-67227333D01*
X50731666Y-67194000D01*
X50798333Y-67160666D01*
%TO.C,J2*%
X76220666Y-55242666D02*
X76220666Y-55742666D01*
X76187333Y-55842666D01*
X76120666Y-55909333D01*
X76020666Y-55942666D01*
X75954000Y-55942666D01*
X76520666Y-55309333D02*
X76554000Y-55276000D01*
X76620666Y-55242666D01*
X76787333Y-55242666D01*
X76854000Y-55276000D01*
X76887333Y-55309333D01*
X76920666Y-55376000D01*
X76920666Y-55442666D01*
X76887333Y-55542666D01*
X76487333Y-55942666D01*
X76920666Y-55942666D01*
X78040000Y-55242666D02*
X78173333Y-55242666D01*
X78240000Y-55276000D01*
X78306666Y-55342666D01*
X78340000Y-55476000D01*
X78340000Y-55709333D01*
X78306666Y-55842666D01*
X78240000Y-55909333D01*
X78173333Y-55942666D01*
X78040000Y-55942666D01*
X77973333Y-55909333D01*
X77906666Y-55842666D01*
X77873333Y-55709333D01*
X77873333Y-55476000D01*
X77906666Y-55342666D01*
X77973333Y-55276000D01*
X78040000Y-55242666D01*
X78640000Y-55242666D02*
X78640000Y-55809333D01*
X78673333Y-55876000D01*
X78706666Y-55909333D01*
X78773333Y-55942666D01*
X78906666Y-55942666D01*
X78973333Y-55909333D01*
X79006666Y-55876000D01*
X79040000Y-55809333D01*
X79040000Y-55242666D01*
X79273333Y-55242666D02*
X79673333Y-55242666D01*
X79473333Y-55942666D02*
X79473333Y-55242666D01*
%TO.C,L1*%
X62811833Y-60514666D02*
X62478500Y-60514666D01*
X62478500Y-59814666D01*
X63411833Y-60514666D02*
X63011833Y-60514666D01*
X63211833Y-60514666D02*
X63211833Y-59814666D01*
X63145166Y-59914666D01*
X63078500Y-59981333D01*
X63011833Y-60014666D01*
X62196000Y-66355166D02*
X62629333Y-66355166D01*
X62396000Y-66621833D01*
X62496000Y-66621833D01*
X62562666Y-66655166D01*
X62596000Y-66688500D01*
X62629333Y-66755166D01*
X62629333Y-66921833D01*
X62596000Y-66988500D01*
X62562666Y-67021833D01*
X62496000Y-67055166D01*
X62296000Y-67055166D01*
X62229333Y-67021833D01*
X62196000Y-66988500D01*
X62929333Y-66988500D02*
X62962666Y-67021833D01*
X62929333Y-67055166D01*
X62896000Y-67021833D01*
X62929333Y-66988500D01*
X62929333Y-67055166D01*
X63296000Y-67055166D02*
X63429333Y-67055166D01*
X63496000Y-67021833D01*
X63529333Y-66988500D01*
X63596000Y-66888500D01*
X63629333Y-66755166D01*
X63629333Y-66488500D01*
X63596000Y-66421833D01*
X63562666Y-66388500D01*
X63496000Y-66355166D01*
X63362666Y-66355166D01*
X63296000Y-66388500D01*
X63262666Y-66421833D01*
X63229333Y-66488500D01*
X63229333Y-66655166D01*
X63262666Y-66721833D01*
X63296000Y-66755166D01*
X63362666Y-66788500D01*
X63496000Y-66788500D01*
X63562666Y-66755166D01*
X63596000Y-66721833D01*
X63629333Y-66655166D01*
X64229333Y-66588500D02*
X64229333Y-67055166D01*
X63929333Y-66588500D02*
X63929333Y-66955166D01*
X63962666Y-67021833D01*
X64029333Y-67055166D01*
X64129333Y-67055166D01*
X64196000Y-67021833D01*
X64229333Y-66988500D01*
%TO.C,C2*%
X53223333Y-67814000D02*
X53190000Y-67847333D01*
X53090000Y-67880666D01*
X53023333Y-67880666D01*
X52923333Y-67847333D01*
X52856666Y-67780666D01*
X52823333Y-67714000D01*
X52790000Y-67580666D01*
X52790000Y-67480666D01*
X52823333Y-67347333D01*
X52856666Y-67280666D01*
X52923333Y-67214000D01*
X53023333Y-67180666D01*
X53090000Y-67180666D01*
X53190000Y-67214000D01*
X53223333Y-67247333D01*
X53490000Y-67247333D02*
X53523333Y-67214000D01*
X53590000Y-67180666D01*
X53756666Y-67180666D01*
X53823333Y-67214000D01*
X53856666Y-67247333D01*
X53890000Y-67314000D01*
X53890000Y-67380666D01*
X53856666Y-67480666D01*
X53456666Y-67880666D01*
X53890000Y-67880666D01*
X54584666Y-67180666D02*
X54451333Y-67180666D01*
X54384666Y-67214000D01*
X54351333Y-67247333D01*
X54284666Y-67347333D01*
X54251333Y-67480666D01*
X54251333Y-67747333D01*
X54284666Y-67814000D01*
X54318000Y-67847333D01*
X54384666Y-67880666D01*
X54518000Y-67880666D01*
X54584666Y-67847333D01*
X54618000Y-67814000D01*
X54651333Y-67747333D01*
X54651333Y-67580666D01*
X54618000Y-67514000D01*
X54584666Y-67480666D01*
X54518000Y-67447333D01*
X54384666Y-67447333D01*
X54318000Y-67480666D01*
X54284666Y-67514000D01*
X54251333Y-67580666D01*
X55051333Y-67480666D02*
X54984666Y-67447333D01*
X54951333Y-67414000D01*
X54918000Y-67347333D01*
X54918000Y-67314000D01*
X54951333Y-67247333D01*
X54984666Y-67214000D01*
X55051333Y-67180666D01*
X55184666Y-67180666D01*
X55251333Y-67214000D01*
X55284666Y-67247333D01*
X55318000Y-67314000D01*
X55318000Y-67347333D01*
X55284666Y-67414000D01*
X55251333Y-67447333D01*
X55184666Y-67480666D01*
X55051333Y-67480666D01*
X54984666Y-67514000D01*
X54951333Y-67547333D01*
X54918000Y-67614000D01*
X54918000Y-67747333D01*
X54951333Y-67814000D01*
X54984666Y-67847333D01*
X55051333Y-67880666D01*
X55184666Y-67880666D01*
X55251333Y-67847333D01*
X55284666Y-67814000D01*
X55318000Y-67747333D01*
X55318000Y-67614000D01*
X55284666Y-67547333D01*
X55251333Y-67514000D01*
X55184666Y-67480666D01*
X55751333Y-67180666D02*
X55818000Y-67180666D01*
X55884666Y-67214000D01*
X55918000Y-67247333D01*
X55951333Y-67314000D01*
X55984666Y-67447333D01*
X55984666Y-67614000D01*
X55951333Y-67747333D01*
X55918000Y-67814000D01*
X55884666Y-67847333D01*
X55818000Y-67880666D01*
X55751333Y-67880666D01*
X55684666Y-67847333D01*
X55651333Y-67814000D01*
X55618000Y-67747333D01*
X55584666Y-67614000D01*
X55584666Y-67447333D01*
X55618000Y-67314000D01*
X55651333Y-67247333D01*
X55684666Y-67214000D01*
X55751333Y-67180666D01*
D12*
%TO.C,C5*%
X52986000Y-55820000D02*
X55726000Y-55820000D01*
X55726000Y-61060000D02*
X55726000Y-55820000D01*
X52986000Y-61060000D02*
X52986000Y-55820000D01*
X52986000Y-61060000D02*
X55726000Y-61060000D01*
%TO.C,C6*%
X57558000Y-61060000D02*
X60298000Y-61060000D01*
X57558000Y-55820000D02*
X60298000Y-55820000D01*
X57558000Y-61060000D02*
X57558000Y-55820000D01*
X60298000Y-61060000D02*
X60298000Y-55820000D01*
%TO.C,C3*%
X60298000Y-61622000D02*
X57558000Y-61622000D01*
X57558000Y-61622000D02*
X57558000Y-66862000D01*
X60298000Y-61622000D02*
X60298000Y-66862000D01*
X60298000Y-66862000D02*
X57558000Y-66862000D01*
%TO.C,J1*%
X43183500Y-66872000D02*
X45843500Y-66872000D01*
X43183500Y-59192000D02*
X45843500Y-59192000D01*
X43183500Y-57922000D02*
X43183500Y-56592000D01*
X43183500Y-59192000D02*
X43183500Y-66872000D01*
X45843500Y-59192000D02*
X45843500Y-66872000D01*
X43183500Y-56592000D02*
X44513500Y-56592000D01*
%TO.C,C4*%
X50582500Y-61040000D02*
X50582500Y-55800000D01*
X47842500Y-55800000D02*
X50582500Y-55800000D01*
X47842500Y-61040000D02*
X47842500Y-55800000D01*
X47842500Y-61040000D02*
X50582500Y-61040000D01*
%TO.C,C1*%
X50582500Y-66862000D02*
X47842500Y-66862000D01*
X50582500Y-61622000D02*
X47842500Y-61622000D01*
X50582500Y-61622000D02*
X50582500Y-66862000D01*
X47842500Y-61622000D02*
X47842500Y-66862000D01*
%TO.C,J2*%
X76521000Y-59255500D02*
X79181000Y-59255500D01*
X76521000Y-66935500D02*
X79181000Y-66935500D01*
X76521000Y-56655500D02*
X77851000Y-56655500D01*
X76521000Y-59255500D02*
X76521000Y-66935500D01*
X79181000Y-59255500D02*
X79181000Y-66935500D01*
X76521000Y-57985500D02*
X76521000Y-56655500D01*
%TO.C,L1*%
X62126500Y-60816500D02*
X65991500Y-60816500D01*
X68501500Y-60816500D02*
X72366500Y-60816500D01*
X72366500Y-60816500D02*
X72366500Y-66056500D01*
X62126500Y-66056500D02*
X65991500Y-66056500D01*
X62126500Y-60816500D02*
X62126500Y-66056500D01*
X68501500Y-66056500D02*
X72366500Y-66056500D01*
%TO.C,C2*%
X52986000Y-61578500D02*
X52986000Y-66818500D01*
X55726000Y-61578500D02*
X55726000Y-66818500D01*
X55726000Y-66818500D02*
X52986000Y-66818500D01*
X55726000Y-61578500D02*
X52986000Y-61578500D01*
%TD*%
M02*
