%TF.GenerationSoftware,KiCad,Pcbnew,(6.0.7)*%
%TF.CreationDate,2022-11-04T12:42:17-04:00*%
%TF.ProjectId,DCR_MainBoard,4443525f-4d61-4696-9e42-6f6172642e6b,rev?*%
%TF.SameCoordinates,Original*%
%TF.FileFunction,Copper,L2,Bot*%
%TF.FilePolarity,Positive*%
%FSLAX46Y46*%
G04 Gerber Fmt 4.6, Leading zero omitted, Abs format (unit mm)*
G04 Created by KiCad (PCBNEW (6.0.7)) date 2022-11-04 12:42:17*
%MOMM*%
%LPD*%
G01*
G04 APERTURE LIST*
%ADD10C,0.300000*%
%TA.AperFunction,NonConductor*%
%ADD11C,0.300000*%
%TD*%
%TA.AperFunction,NonConductor*%
%ADD12C,0.200000*%
%TD*%
%TA.AperFunction,ComponentPad*%
%ADD13R,1.600000X1.600000*%
%TD*%
%TA.AperFunction,ComponentPad*%
%ADD14C,1.600000*%
%TD*%
%TA.AperFunction,ComponentPad*%
%ADD15O,5.000000X2.500000*%
%TD*%
%TA.AperFunction,ComponentPad*%
%ADD16O,4.500000X2.250000*%
%TD*%
%TA.AperFunction,ComponentPad*%
%ADD17O,2.250000X4.500000*%
%TD*%
%TA.AperFunction,ComponentPad*%
%ADD18C,4.600000*%
%TD*%
%TA.AperFunction,ComponentPad*%
%ADD19C,1.800000*%
%TD*%
%TA.AperFunction,ComponentPad*%
%ADD20O,1.600000X1.600000*%
%TD*%
%TA.AperFunction,ComponentPad*%
%ADD21R,2.000000X1.905000*%
%TD*%
%TA.AperFunction,ComponentPad*%
%ADD22O,2.000000X1.905000*%
%TD*%
%TA.AperFunction,ComponentPad*%
%ADD23R,1.000000X1.000000*%
%TD*%
%TA.AperFunction,ComponentPad*%
%ADD24R,1.398000X1.398000*%
%TD*%
%TA.AperFunction,ComponentPad*%
%ADD25C,1.398000*%
%TD*%
%TA.AperFunction,ComponentPad*%
%ADD26C,3.015000*%
%TD*%
%TA.AperFunction,ComponentPad*%
%ADD27R,3.092000X3.092000*%
%TD*%
%TA.AperFunction,ComponentPad*%
%ADD28C,3.092000*%
%TD*%
%TA.AperFunction,SMDPad,CuDef*%
%ADD29R,1.500000X3.500000*%
%TD*%
%TA.AperFunction,ComponentPad*%
%ADD30R,1.800000X1.800000*%
%TD*%
%TA.AperFunction,ComponentPad*%
%ADD31R,2.200000X2.200000*%
%TD*%
%TA.AperFunction,ComponentPad*%
%ADD32O,2.200000X2.200000*%
%TD*%
%TA.AperFunction,ComponentPad*%
%ADD33R,1.700000X1.700000*%
%TD*%
%TA.AperFunction,ComponentPad*%
%ADD34O,1.700000X1.700000*%
%TD*%
%TA.AperFunction,ViaPad*%
%ADD35C,0.800000*%
%TD*%
%TA.AperFunction,Conductor*%
%ADD36C,0.250000*%
%TD*%
G04 APERTURE END LIST*
D10*
D11*
X63445285Y-18944571D02*
X63731000Y-18944571D01*
X63873857Y-18873142D01*
X63945285Y-18801714D01*
X64088142Y-18587428D01*
X64159571Y-18301714D01*
X64159571Y-17730285D01*
X64088142Y-17587428D01*
X64016714Y-17516000D01*
X63873857Y-17444571D01*
X63588142Y-17444571D01*
X63445285Y-17516000D01*
X63373857Y-17587428D01*
X63302428Y-17730285D01*
X63302428Y-18087428D01*
X63373857Y-18230285D01*
X63445285Y-18301714D01*
X63588142Y-18373142D01*
X63873857Y-18373142D01*
X64016714Y-18301714D01*
X64088142Y-18230285D01*
X64159571Y-18087428D01*
X64659571Y-17444571D02*
X65659571Y-17444571D01*
X65016714Y-18944571D01*
X66231000Y-18801714D02*
X66302428Y-18873142D01*
X66231000Y-18944571D01*
X66159571Y-18873142D01*
X66231000Y-18801714D01*
X66231000Y-18944571D01*
X66802428Y-17444571D02*
X67802428Y-17444571D01*
X67159571Y-18944571D01*
X68445285Y-18944571D02*
X68731000Y-18944571D01*
X68873857Y-18873142D01*
X68945285Y-18801714D01*
X69088142Y-18587428D01*
X69159571Y-18301714D01*
X69159571Y-17730285D01*
X69088142Y-17587428D01*
X69016714Y-17516000D01*
X68873857Y-17444571D01*
X68588142Y-17444571D01*
X68445285Y-17516000D01*
X68373857Y-17587428D01*
X68302428Y-17730285D01*
X68302428Y-18087428D01*
X68373857Y-18230285D01*
X68445285Y-18301714D01*
X68588142Y-18373142D01*
X68873857Y-18373142D01*
X69016714Y-18301714D01*
X69088142Y-18230285D01*
X69159571Y-18087428D01*
X70088142Y-17444571D02*
X70231000Y-17444571D01*
X70373857Y-17516000D01*
X70445285Y-17587428D01*
X70516714Y-17730285D01*
X70588142Y-18016000D01*
X70588142Y-18373142D01*
X70516714Y-18658857D01*
X70445285Y-18801714D01*
X70373857Y-18873142D01*
X70231000Y-18944571D01*
X70088142Y-18944571D01*
X69945285Y-18873142D01*
X69873857Y-18801714D01*
X69802428Y-18658857D01*
X69731000Y-18373142D01*
X69731000Y-18016000D01*
X69802428Y-17730285D01*
X69873857Y-17587428D01*
X69945285Y-17516000D01*
X70088142Y-17444571D01*
X71516714Y-17444571D02*
X71659571Y-17444571D01*
X71802428Y-17516000D01*
X71873857Y-17587428D01*
X71945285Y-17730285D01*
X72016714Y-18016000D01*
X72016714Y-18373142D01*
X71945285Y-18658857D01*
X71873857Y-18801714D01*
X71802428Y-18873142D01*
X71659571Y-18944571D01*
X71516714Y-18944571D01*
X71373857Y-18873142D01*
X71302428Y-18801714D01*
X71231000Y-18658857D01*
X71159571Y-18373142D01*
X71159571Y-18016000D01*
X71231000Y-17730285D01*
X71302428Y-17587428D01*
X71373857Y-17516000D01*
X71516714Y-17444571D01*
X73802428Y-18944571D02*
X73802428Y-17944571D01*
X73802428Y-18087428D02*
X73873857Y-18016000D01*
X74016714Y-17944571D01*
X74231000Y-17944571D01*
X74373857Y-18016000D01*
X74445285Y-18158857D01*
X74445285Y-18944571D01*
X74445285Y-18158857D02*
X74516714Y-18016000D01*
X74659571Y-17944571D01*
X74873857Y-17944571D01*
X75016714Y-18016000D01*
X75088142Y-18158857D01*
X75088142Y-18944571D01*
X75802428Y-18944571D02*
X75802428Y-17944571D01*
X75802428Y-18087428D02*
X75873857Y-18016000D01*
X76016714Y-17944571D01*
X76231000Y-17944571D01*
X76373857Y-18016000D01*
X76445285Y-18158857D01*
X76445285Y-18944571D01*
X76445285Y-18158857D02*
X76516714Y-18016000D01*
X76659571Y-17944571D01*
X76873857Y-17944571D01*
X77016714Y-18016000D01*
X77088142Y-18158857D01*
X77088142Y-18944571D01*
D12*
X21336000Y-22614000D02*
X21336000Y-19479580D01*
X119126000Y-22614000D02*
X119126000Y-19479580D01*
X21336000Y-20066000D02*
X119126000Y-20066000D01*
X21336000Y-20066000D02*
X119126000Y-20066000D01*
X21336000Y-20066000D02*
X22462504Y-20652421D01*
X21336000Y-20066000D02*
X22462504Y-19479579D01*
X119126000Y-20066000D02*
X117999496Y-19479579D01*
X119126000Y-20066000D02*
X117999496Y-20652421D01*
D10*
D11*
X130474571Y-59101857D02*
X130474571Y-59816142D01*
X131188857Y-59887571D01*
X131117428Y-59816142D01*
X131046000Y-59673285D01*
X131046000Y-59316142D01*
X131117428Y-59173285D01*
X131188857Y-59101857D01*
X131331714Y-59030428D01*
X131688857Y-59030428D01*
X131831714Y-59101857D01*
X131903142Y-59173285D01*
X131974571Y-59316142D01*
X131974571Y-59673285D01*
X131903142Y-59816142D01*
X131831714Y-59887571D01*
X131974571Y-58316142D02*
X131974571Y-58030428D01*
X131903142Y-57887571D01*
X131831714Y-57816142D01*
X131617428Y-57673285D01*
X131331714Y-57601857D01*
X130760285Y-57601857D01*
X130617428Y-57673285D01*
X130546000Y-57744714D01*
X130474571Y-57887571D01*
X130474571Y-58173285D01*
X130546000Y-58316142D01*
X130617428Y-58387571D01*
X130760285Y-58459000D01*
X131117428Y-58459000D01*
X131260285Y-58387571D01*
X131331714Y-58316142D01*
X131403142Y-58173285D01*
X131403142Y-57887571D01*
X131331714Y-57744714D01*
X131260285Y-57673285D01*
X131117428Y-57601857D01*
X131831714Y-56959000D02*
X131903142Y-56887571D01*
X131974571Y-56959000D01*
X131903142Y-57030428D01*
X131831714Y-56959000D01*
X131974571Y-56959000D01*
X130474571Y-55601857D02*
X130474571Y-55887571D01*
X130546000Y-56030428D01*
X130617428Y-56101857D01*
X130831714Y-56244714D01*
X131117428Y-56316142D01*
X131688857Y-56316142D01*
X131831714Y-56244714D01*
X131903142Y-56173285D01*
X131974571Y-56030428D01*
X131974571Y-55744714D01*
X131903142Y-55601857D01*
X131831714Y-55530428D01*
X131688857Y-55459000D01*
X131331714Y-55459000D01*
X131188857Y-55530428D01*
X131117428Y-55601857D01*
X131046000Y-55744714D01*
X131046000Y-56030428D01*
X131117428Y-56173285D01*
X131188857Y-56244714D01*
X131331714Y-56316142D01*
X131974571Y-54744714D02*
X131974571Y-54459000D01*
X131903142Y-54316142D01*
X131831714Y-54244714D01*
X131617428Y-54101857D01*
X131331714Y-54030428D01*
X130760285Y-54030428D01*
X130617428Y-54101857D01*
X130546000Y-54173285D01*
X130474571Y-54316142D01*
X130474571Y-54601857D01*
X130546000Y-54744714D01*
X130617428Y-54816142D01*
X130760285Y-54887571D01*
X131117428Y-54887571D01*
X131260285Y-54816142D01*
X131331714Y-54744714D01*
X131403142Y-54601857D01*
X131403142Y-54316142D01*
X131331714Y-54173285D01*
X131260285Y-54101857D01*
X131117428Y-54030428D01*
X130474571Y-53101857D02*
X130474571Y-52959000D01*
X130546000Y-52816142D01*
X130617428Y-52744714D01*
X130760285Y-52673285D01*
X131046000Y-52601857D01*
X131403142Y-52601857D01*
X131688857Y-52673285D01*
X131831714Y-52744714D01*
X131903142Y-52816142D01*
X131974571Y-52959000D01*
X131974571Y-53101857D01*
X131903142Y-53244714D01*
X131831714Y-53316142D01*
X131688857Y-53387571D01*
X131403142Y-53459000D01*
X131046000Y-53459000D01*
X130760285Y-53387571D01*
X130617428Y-53316142D01*
X130546000Y-53244714D01*
X130474571Y-53101857D01*
X130474571Y-51673285D02*
X130474571Y-51530428D01*
X130546000Y-51387571D01*
X130617428Y-51316142D01*
X130760285Y-51244714D01*
X131046000Y-51173285D01*
X131403142Y-51173285D01*
X131688857Y-51244714D01*
X131831714Y-51316142D01*
X131903142Y-51387571D01*
X131974571Y-51530428D01*
X131974571Y-51673285D01*
X131903142Y-51816142D01*
X131831714Y-51887571D01*
X131688857Y-51959000D01*
X131403142Y-52030428D01*
X131046000Y-52030428D01*
X130760285Y-51959000D01*
X130617428Y-51887571D01*
X130546000Y-51816142D01*
X130474571Y-51673285D01*
X131974571Y-49387571D02*
X130974571Y-49387571D01*
X131117428Y-49387571D02*
X131046000Y-49316142D01*
X130974571Y-49173285D01*
X130974571Y-48959000D01*
X131046000Y-48816142D01*
X131188857Y-48744714D01*
X131974571Y-48744714D01*
X131188857Y-48744714D02*
X131046000Y-48673285D01*
X130974571Y-48530428D01*
X130974571Y-48316142D01*
X131046000Y-48173285D01*
X131188857Y-48101857D01*
X131974571Y-48101857D01*
X131974571Y-47387571D02*
X130974571Y-47387571D01*
X131117428Y-47387571D02*
X131046000Y-47316142D01*
X130974571Y-47173285D01*
X130974571Y-46959000D01*
X131046000Y-46816142D01*
X131188857Y-46744714D01*
X131974571Y-46744714D01*
X131188857Y-46744714D02*
X131046000Y-46673285D01*
X130974571Y-46530428D01*
X130974571Y-46316142D01*
X131046000Y-46173285D01*
X131188857Y-46101857D01*
X131974571Y-46101857D01*
D12*
X119880000Y-23114000D02*
X133682420Y-23114000D01*
X119880000Y-82804000D02*
X133682420Y-82804000D01*
X133096000Y-23114000D02*
X133096000Y-82804000D01*
X133096000Y-23114000D02*
X133096000Y-82804000D01*
X133096000Y-23114000D02*
X132509579Y-24240504D01*
X133096000Y-23114000D02*
X133682421Y-24240504D01*
X133096000Y-82804000D02*
X133682421Y-81677496D01*
X133096000Y-82804000D02*
X132509579Y-81677496D01*
D13*
%TO.P,C7,1*%
%TO.N,12V*%
X112435000Y-48601849D03*
D14*
%TO.P,C7,2*%
%TO.N,GND*%
X112435000Y-51101849D03*
%TD*%
D13*
%TO.P,C11,1*%
%TO.N,Net-(C11-Pad1)*%
X84318000Y-58664000D03*
D14*
%TO.P,C11,2*%
%TO.N,GND*%
X86818000Y-58664000D03*
%TD*%
D15*
%TO.P,J4,1*%
%TO.N,Net-(D2-Pad2)*%
X103545000Y-37054500D03*
D16*
%TO.P,J4,2*%
%TO.N,GND*%
X103545000Y-31054500D03*
D17*
%TO.P,J4,3*%
X98845000Y-34054500D03*
%TD*%
D18*
%TO.P,RV1,*%
%TO.N,*%
X54809000Y-74538000D03*
X44809000Y-74538000D03*
D19*
%TO.P,RV1,1,1*%
%TO.N,Net-(C3-Pad2)*%
X47309000Y-77838000D03*
%TO.P,RV1,2,2*%
%TO.N,Net-(R1-Pad1)*%
X49809000Y-77838000D03*
%TO.P,RV1,3,3*%
%TO.N,GND*%
X52309000Y-77838000D03*
%TD*%
D13*
%TO.P,U4,1,GAIN*%
%TO.N,Net-(C12-Pad1)*%
X71882000Y-60960000D03*
D20*
%TO.P,U4,2,-*%
%TO.N,Net-(R7-Pad2)*%
X71882000Y-63500000D03*
%TO.P,U4,3,+*%
%TO.N,Net-(C4-Pad1)*%
X71882000Y-66040000D03*
%TO.P,U4,4,GND*%
%TO.N,GND*%
X71882000Y-68580000D03*
%TO.P,U4,5*%
%TO.N,Net-(C15-Pad1)*%
X79502000Y-68580000D03*
%TO.P,U4,6,V+*%
%TO.N,12V*%
X79502000Y-66040000D03*
%TO.P,U4,7,BYPASS*%
%TO.N,Net-(C11-Pad1)*%
X79502000Y-63500000D03*
%TO.P,U4,8,GAIN*%
%TO.N,Net-(C12-Pad2)*%
X79502000Y-60960000D03*
%TD*%
D21*
%TO.P,U3,1,VI*%
%TO.N,12V*%
X102783000Y-48738500D03*
D22*
%TO.P,U3,2,GND*%
%TO.N,GND*%
X102783000Y-51278500D03*
%TO.P,U3,3,VO*%
%TO.N,RX6V*%
X102783000Y-53818500D03*
%TD*%
D13*
%TO.P,C15,1*%
%TO.N,Net-(C15-Pad1)*%
X85334000Y-73396000D03*
D14*
%TO.P,C15,2*%
%TO.N,Net-(C15-Pad2)*%
X87834000Y-73396000D03*
%TD*%
D23*
%TO.P,TP6,1,1*%
%TO.N,Net-(C15-Pad1)*%
X82600800Y-78613000D03*
%TD*%
D24*
%TO.P,J1,1,1*%
%TO.N,Net-(J1-Pad1)*%
X50215800Y-36450500D03*
D25*
%TO.P,J1,2,2*%
X47675800Y-36450500D03*
D26*
%TO.P,J1,P1,SHIELD*%
%TO.N,GND*%
X45135800Y-31370500D03*
%TO.P,J1,P2,SHIELD*%
X55295800Y-31370500D03*
%TD*%
D27*
%TO.P,J5,1,1*%
%TO.N,Net-(C15-Pad2)*%
X102172000Y-80647000D03*
D28*
%TO.P,J5,2,2*%
%TO.N,GND*%
X102172000Y-73747000D03*
%TO.P,J5,3,3*%
%TO.N,unconnected-(J5-Pad3)*%
X97472000Y-71947000D03*
%TD*%
D23*
%TO.P,TP3,1,1*%
%TO.N,Net-(C1-Pad1)*%
X53975000Y-59156600D03*
%TD*%
D13*
%TO.P,C3,1*%
%TO.N,Net-(C1-Pad1)*%
X48666400Y-61077349D03*
D14*
%TO.P,C3,2*%
%TO.N,Net-(C3-Pad2)*%
X48666400Y-63577349D03*
%TD*%
D13*
%TO.P,U2,1,IN_A*%
%TO.N,Net-(C8-Pad2)*%
X48422400Y-44968000D03*
D20*
%TO.P,U2,2,IN_B*%
%TO.N,Net-(C2-Pad1)*%
X48422400Y-47508000D03*
%TO.P,U2,3,GND*%
%TO.N,GND*%
X48422400Y-50048000D03*
%TO.P,U2,4,OUT_A*%
%TO.N,Net-(C1-Pad1)*%
X48422400Y-52588000D03*
%TO.P,U2,5,OUT_B*%
%TO.N,unconnected-(U2-Pad5)*%
X56042400Y-52588000D03*
%TO.P,U2,6,OSC_B*%
%TO.N,Net-(C6-Pad2)*%
X56042400Y-50048000D03*
%TO.P,U2,7,OSC_E*%
%TO.N,unconnected-(U2-Pad7)*%
X56042400Y-47508000D03*
%TO.P,U2,8,Vcc*%
%TO.N,Net-(C5-Pad1)*%
X56042400Y-44968000D03*
%TD*%
D29*
%TO.P,J3,G3*%
%TO.N,GND*%
X85250000Y-25046500D03*
%TO.P,J3,G4*%
X79850000Y-25046500D03*
%TD*%
D30*
%TO.P,D1,1,K*%
%TO.N,GND*%
X115265200Y-39065200D03*
D19*
%TO.P,D1,2,A*%
%TO.N,Net-(D1-Pad2)*%
X115265200Y-36525200D03*
%TD*%
D31*
%TO.P,D2,1,K*%
%TO.N,12V*%
X111165000Y-42134500D03*
D32*
%TO.P,D2,2,A*%
%TO.N,Net-(D2-Pad2)*%
X101005000Y-42134500D03*
%TD*%
D23*
%TO.P,TP4,1,1*%
%TO.N,Net-(C4-Pad1)*%
X66446400Y-72034400D03*
%TD*%
D13*
%TO.P,C12,1*%
%TO.N,Net-(C12-Pad1)*%
X75428000Y-54600000D03*
D14*
%TO.P,C12,2*%
%TO.N,Net-(C12-Pad2)*%
X77928000Y-54600000D03*
%TD*%
D23*
%TO.P,TP2,1,1*%
%TO.N,Net-(C8-Pad2)*%
X49479200Y-41351200D03*
%TD*%
%TO.P,TP1,1,1*%
%TO.N,Net-(J1-Pad1)*%
X34239200Y-30530800D03*
%TD*%
D33*
%TO.P,U1,1,IN*%
%TO.N,Net-(J1-Pad1)*%
X34361400Y-35306000D03*
D34*
%TO.P,U1,2,IN*%
X31821400Y-35306000D03*
%TO.P,U1,3,GND*%
%TO.N,GND*%
X29281400Y-35306000D03*
%TO.P,U1,4,GND*%
X26741400Y-35306000D03*
%TO.P,U1,5,GND*%
X26695400Y-68326000D03*
%TO.P,U1,6,GND*%
X29235400Y-68326000D03*
%TO.P,U1,7,OUT*%
%TO.N,Net-(C8-Pad1)*%
X31775400Y-68326000D03*
D33*
%TO.P,U1,8,OUT*%
X34315400Y-68326000D03*
%TD*%
D23*
%TO.P,TP5,1,1*%
%TO.N,Net-(C6-Pad2)*%
X60553600Y-49987200D03*
%TD*%
D35*
%TO.N,Net-(C6-Pad2)*%
X70916800Y-32791400D03*
%TD*%
D36*
%TO.N,Net-(C1-Pad1)*%
X48666400Y-52832000D02*
X48422400Y-52588000D01*
X50587149Y-59156600D02*
X48666400Y-61077349D01*
X53975000Y-59156600D02*
X50587149Y-59156600D01*
X48666400Y-61077349D02*
X48666400Y-52832000D01*
%TO.N,Net-(C3-Pad2)*%
X47309000Y-76315800D02*
X47309000Y-77838000D01*
X47244000Y-76250800D02*
X47309000Y-76315800D01*
X48666400Y-63577349D02*
X48666400Y-74828400D01*
X48666400Y-74828400D02*
X47244000Y-76250800D01*
%TO.N,Net-(C4-Pad1)*%
X66446400Y-67233800D02*
X67640200Y-66040000D01*
X66446400Y-72034400D02*
X66446400Y-67233800D01*
X67640200Y-66040000D02*
X71882000Y-66040000D01*
%TO.N,12V*%
X111165000Y-47331849D02*
X112435000Y-48601849D01*
X111165000Y-42134500D02*
X111165000Y-47331849D01*
X112298349Y-48738500D02*
X112435000Y-48601849D01*
X102783000Y-48738500D02*
X112298349Y-48738500D01*
%TO.N,Net-(D2-Pad2)*%
X101005000Y-39594500D02*
X103545000Y-37054500D01*
X101005000Y-42134500D02*
X101005000Y-39594500D01*
%TO.N,Net-(C6-Pad2)*%
X70866000Y-35224400D02*
X56042400Y-50048000D01*
X70866000Y-32842200D02*
X70866000Y-35224400D01*
X70916800Y-32791400D02*
X70866000Y-32842200D01*
X56042400Y-50048000D02*
X60492800Y-50048000D01*
X60492800Y-50048000D02*
X60553600Y-49987200D01*
%TO.N,Net-(J1-Pad1)*%
X50215800Y-36450500D02*
X47675800Y-36450500D01*
X34239200Y-30530800D02*
X34239200Y-35183800D01*
X31821400Y-35306000D02*
X34361400Y-35306000D01*
X34239200Y-35183800D02*
X34361400Y-35306000D01*
X47675800Y-36450500D02*
X35505900Y-36450500D01*
X35505900Y-36450500D02*
X34361400Y-35306000D01*
%TO.N,Net-(C8-Pad1)*%
X31775400Y-68326000D02*
X34315400Y-68326000D01*
%TO.N,Net-(C11-Pad1)*%
X84318000Y-61204000D02*
X84318000Y-58664000D01*
X79502000Y-63500000D02*
X82022000Y-63500000D01*
X82022000Y-63500000D02*
X84318000Y-61204000D01*
%TO.N,Net-(C12-Pad1)*%
X71882000Y-60960000D02*
X71882000Y-58146000D01*
X71882000Y-58146000D02*
X75428000Y-54600000D01*
%TO.N,Net-(C12-Pad2)*%
X77928000Y-59386000D02*
X79502000Y-60960000D01*
X77928000Y-54600000D02*
X77928000Y-59386000D01*
%TO.N,Net-(C15-Pad1)*%
X85334000Y-75067000D02*
X85334000Y-73396000D01*
X85334000Y-73396000D02*
X84318000Y-73396000D01*
X84318000Y-73396000D02*
X79502000Y-68580000D01*
X82600800Y-77800200D02*
X85334000Y-75067000D01*
X82600800Y-78613000D02*
X82600800Y-77800200D01*
%TO.N,Net-(C15-Pad2)*%
X96903000Y-80647000D02*
X89652000Y-73396000D01*
X102172000Y-80647000D02*
X96903000Y-80647000D01*
X89652000Y-73396000D02*
X87834000Y-73396000D01*
%TO.N,Net-(C8-Pad2)*%
X48361600Y-44392404D02*
X48104202Y-44649802D01*
X48422400Y-44968000D02*
X48422400Y-42408000D01*
X48422400Y-42408000D02*
X49479200Y-41351200D01*
%TD*%
%TA.AperFunction,Conductor*%
%TO.N,GND*%
G36*
X78534121Y-23642502D02*
G01*
X78580614Y-23696158D01*
X78592000Y-23748500D01*
X78592000Y-24774385D01*
X78596475Y-24789624D01*
X78597865Y-24790829D01*
X78605548Y-24792500D01*
X81089884Y-24792500D01*
X81105123Y-24788025D01*
X81106328Y-24786635D01*
X81107999Y-24778952D01*
X81107999Y-23748500D01*
X81128001Y-23680379D01*
X81181657Y-23633886D01*
X81233999Y-23622500D01*
X83866000Y-23622500D01*
X83934121Y-23642502D01*
X83980614Y-23696158D01*
X83992000Y-23748500D01*
X83992000Y-24774385D01*
X83996475Y-24789624D01*
X83997865Y-24790829D01*
X84005548Y-24792500D01*
X86489884Y-24792500D01*
X86505123Y-24788025D01*
X86506328Y-24786635D01*
X86507999Y-24778952D01*
X86507999Y-23748500D01*
X86528001Y-23680379D01*
X86581657Y-23633886D01*
X86633999Y-23622500D01*
X118745500Y-23622500D01*
X118813621Y-23642502D01*
X118860114Y-23696158D01*
X118871500Y-23748500D01*
X118871500Y-82169500D01*
X118851498Y-82237621D01*
X118797842Y-82284114D01*
X118745500Y-82295500D01*
X104352500Y-82295500D01*
X104284379Y-82275498D01*
X104237886Y-82221842D01*
X104226500Y-82169500D01*
X104226500Y-79052866D01*
X104219745Y-78990684D01*
X104168615Y-78854295D01*
X104081261Y-78737739D01*
X104057996Y-78720303D01*
X113257543Y-78720303D01*
X113258102Y-78724547D01*
X113258102Y-78724551D01*
X113261980Y-78754005D01*
X113295068Y-79005334D01*
X113370929Y-79282636D01*
X113372613Y-79286584D01*
X113453518Y-79476261D01*
X113483723Y-79547076D01*
X113495493Y-79566742D01*
X113608978Y-79756361D01*
X113631361Y-79793761D01*
X113811113Y-80018128D01*
X113828197Y-80034340D01*
X113985296Y-80183421D01*
X114019651Y-80216023D01*
X114253117Y-80383786D01*
X114256912Y-80385795D01*
X114256913Y-80385796D01*
X114278669Y-80397315D01*
X114507192Y-80518312D01*
X114777173Y-80617111D01*
X115058064Y-80678355D01*
X115086641Y-80680604D01*
X115281082Y-80695907D01*
X115281091Y-80695907D01*
X115283539Y-80696100D01*
X115439071Y-80696100D01*
X115441207Y-80695954D01*
X115441218Y-80695954D01*
X115649348Y-80681765D01*
X115649354Y-80681764D01*
X115653625Y-80681473D01*
X115657820Y-80680604D01*
X115657822Y-80680604D01*
X115794384Y-80652323D01*
X115935142Y-80623174D01*
X116206143Y-80527207D01*
X116461612Y-80395350D01*
X116465113Y-80392889D01*
X116465117Y-80392887D01*
X116579217Y-80312696D01*
X116696823Y-80230041D01*
X116907422Y-80034340D01*
X117089513Y-79811868D01*
X117239727Y-79566742D01*
X117355283Y-79303498D01*
X117378124Y-79223316D01*
X117426401Y-79053838D01*
X117434044Y-79027006D01*
X117473115Y-78752475D01*
X117473946Y-78746636D01*
X117473946Y-78746634D01*
X117474551Y-78742384D01*
X117474576Y-78737739D01*
X117476035Y-78459183D01*
X117476035Y-78459176D01*
X117476057Y-78454897D01*
X117438532Y-78169866D01*
X117362671Y-77892564D01*
X117339397Y-77838000D01*
X117251563Y-77632076D01*
X117251561Y-77632072D01*
X117249877Y-77628124D01*
X117144060Y-77451317D01*
X117104443Y-77385121D01*
X117104440Y-77385117D01*
X117102239Y-77381439D01*
X116922487Y-77157072D01*
X116772362Y-77014609D01*
X116717058Y-76962127D01*
X116717055Y-76962125D01*
X116713949Y-76959177D01*
X116503305Y-76807813D01*
X116483972Y-76793921D01*
X116483971Y-76793920D01*
X116480483Y-76791414D01*
X116461036Y-76781117D01*
X116330428Y-76711964D01*
X116226408Y-76656888D01*
X116012930Y-76578766D01*
X115960458Y-76559564D01*
X115960456Y-76559563D01*
X115956427Y-76558089D01*
X115675536Y-76496845D01*
X115644485Y-76494401D01*
X115452518Y-76479293D01*
X115452509Y-76479293D01*
X115450061Y-76479100D01*
X115294529Y-76479100D01*
X115292393Y-76479246D01*
X115292382Y-76479246D01*
X115084252Y-76493435D01*
X115084246Y-76493436D01*
X115079975Y-76493727D01*
X115075780Y-76494596D01*
X115075778Y-76494596D01*
X115007296Y-76508778D01*
X114798458Y-76552026D01*
X114527457Y-76647993D01*
X114523648Y-76649959D01*
X114375492Y-76726428D01*
X114271988Y-76779850D01*
X114268487Y-76782311D01*
X114268483Y-76782313D01*
X114154382Y-76862505D01*
X114036777Y-76945159D01*
X114021692Y-76959177D01*
X113854516Y-77114527D01*
X113826178Y-77140860D01*
X113644087Y-77363332D01*
X113493873Y-77608458D01*
X113492147Y-77612391D01*
X113492146Y-77612392D01*
X113380043Y-77867770D01*
X113378317Y-77871702D01*
X113299556Y-78148194D01*
X113259049Y-78432816D01*
X113259027Y-78437105D01*
X113259026Y-78437112D01*
X113257565Y-78716017D01*
X113257543Y-78720303D01*
X104057996Y-78720303D01*
X103964705Y-78650385D01*
X103828316Y-78599255D01*
X103766134Y-78592500D01*
X101081944Y-78592500D01*
X101013823Y-78572498D01*
X100967330Y-78518842D01*
X100960237Y-78499111D01*
X100907707Y-78303067D01*
X100907706Y-78303065D01*
X100906284Y-78297757D01*
X100886626Y-78255600D01*
X100811849Y-78095238D01*
X100811846Y-78095233D01*
X100809523Y-78090251D01*
X100736098Y-77985389D01*
X100681357Y-77907211D01*
X100681355Y-77907208D01*
X100678198Y-77902700D01*
X100516300Y-77740802D01*
X100511792Y-77737645D01*
X100511789Y-77737643D01*
X100399806Y-77659232D01*
X100328749Y-77609477D01*
X100323767Y-77607154D01*
X100323762Y-77607151D01*
X100126225Y-77515039D01*
X100126224Y-77515039D01*
X100121243Y-77512716D01*
X100115935Y-77511294D01*
X100115933Y-77511293D01*
X99905402Y-77454881D01*
X99905400Y-77454881D01*
X99900087Y-77453457D01*
X99800520Y-77444746D01*
X99731851Y-77438738D01*
X99731844Y-77438738D01*
X99729127Y-77438500D01*
X99614873Y-77438500D01*
X99612156Y-77438738D01*
X99612149Y-77438738D01*
X99543480Y-77444746D01*
X99443913Y-77453457D01*
X99438600Y-77454881D01*
X99438598Y-77454881D01*
X99228067Y-77511293D01*
X99228065Y-77511294D01*
X99222757Y-77512716D01*
X99217776Y-77515039D01*
X99217775Y-77515039D01*
X99020238Y-77607151D01*
X99020233Y-77607154D01*
X99015251Y-77609477D01*
X98944194Y-77659232D01*
X98832211Y-77737643D01*
X98832208Y-77737645D01*
X98827700Y-77740802D01*
X98665802Y-77902700D01*
X98662645Y-77907208D01*
X98662643Y-77907211D01*
X98607902Y-77985389D01*
X98534477Y-78090251D01*
X98532154Y-78095233D01*
X98532151Y-78095238D01*
X98457374Y-78255600D01*
X98437716Y-78297757D01*
X98436294Y-78303065D01*
X98436293Y-78303067D01*
X98402666Y-78428564D01*
X98378457Y-78518913D01*
X98358502Y-78747000D01*
X98378457Y-78975087D01*
X98379881Y-78980400D01*
X98379881Y-78980402D01*
X98434311Y-79183534D01*
X98437716Y-79196243D01*
X98440039Y-79201224D01*
X98440039Y-79201225D01*
X98532151Y-79398762D01*
X98532154Y-79398767D01*
X98534477Y-79403749D01*
X98607902Y-79508611D01*
X98648624Y-79566767D01*
X98665802Y-79591300D01*
X98827700Y-79753198D01*
X98832210Y-79756356D01*
X98832216Y-79756361D01*
X98872099Y-79784287D01*
X98916428Y-79839744D01*
X98923737Y-79910363D01*
X98891707Y-79973723D01*
X98830505Y-80009709D01*
X98799829Y-80013500D01*
X97217594Y-80013500D01*
X97149473Y-79993498D01*
X97128499Y-79976595D01*
X93656303Y-76504398D01*
X92521216Y-75369311D01*
X100914962Y-75369311D01*
X100922015Y-75379282D01*
X100958579Y-75409854D01*
X100965501Y-75414883D01*
X101195478Y-75559148D01*
X101203024Y-75563194D01*
X101450447Y-75674909D01*
X101458477Y-75677896D01*
X101718774Y-75754999D01*
X101727126Y-75756866D01*
X101995483Y-75797930D01*
X102004016Y-75798646D01*
X102275458Y-75802911D01*
X102284009Y-75802462D01*
X102553517Y-75769849D01*
X102561931Y-75768244D01*
X102824522Y-75699355D01*
X102832637Y-75696624D01*
X103083450Y-75592733D01*
X103091118Y-75588927D01*
X103325514Y-75451957D01*
X103332595Y-75447144D01*
X103419419Y-75379066D01*
X103427890Y-75367206D01*
X103421374Y-75355585D01*
X102184810Y-74119020D01*
X102170869Y-74111408D01*
X102169034Y-74111539D01*
X102162420Y-74115790D01*
X100922254Y-75355957D01*
X100914962Y-75369311D01*
X92521216Y-75369311D01*
X90155652Y-73003747D01*
X90148112Y-72995461D01*
X90144000Y-72988982D01*
X90094348Y-72942356D01*
X90091507Y-72939602D01*
X90071770Y-72919865D01*
X90068573Y-72917385D01*
X90059551Y-72909680D01*
X90033100Y-72884841D01*
X90027321Y-72879414D01*
X90020375Y-72875595D01*
X90020372Y-72875593D01*
X90009566Y-72869652D01*
X89993047Y-72858801D01*
X89988154Y-72855006D01*
X89977041Y-72846386D01*
X89969772Y-72843241D01*
X89969768Y-72843238D01*
X89936463Y-72828826D01*
X89925813Y-72823609D01*
X89887060Y-72802305D01*
X89867437Y-72797267D01*
X89848734Y-72790863D01*
X89837420Y-72785967D01*
X89837419Y-72785967D01*
X89830145Y-72782819D01*
X89822322Y-72781580D01*
X89822312Y-72781577D01*
X89786476Y-72775901D01*
X89774856Y-72773495D01*
X89739711Y-72764472D01*
X89739710Y-72764472D01*
X89732030Y-72762500D01*
X89711776Y-72762500D01*
X89692065Y-72760949D01*
X89679886Y-72759020D01*
X89672057Y-72757780D01*
X89664165Y-72758526D01*
X89628039Y-72761941D01*
X89616181Y-72762500D01*
X89053394Y-72762500D01*
X88985273Y-72742498D01*
X88950181Y-72708771D01*
X88843357Y-72556211D01*
X88843355Y-72556208D01*
X88840198Y-72551700D01*
X88678300Y-72389802D01*
X88673792Y-72386645D01*
X88673789Y-72386643D01*
X88545985Y-72297154D01*
X88490749Y-72258477D01*
X88485767Y-72256154D01*
X88485762Y-72256151D01*
X88288225Y-72164039D01*
X88288224Y-72164039D01*
X88283243Y-72161716D01*
X88277935Y-72160294D01*
X88277933Y-72160293D01*
X88067402Y-72103881D01*
X88067400Y-72103881D01*
X88062087Y-72102457D01*
X87834000Y-72082502D01*
X87605913Y-72102457D01*
X87600600Y-72103881D01*
X87600598Y-72103881D01*
X87390067Y-72160293D01*
X87390065Y-72160294D01*
X87384757Y-72161716D01*
X87379776Y-72164039D01*
X87379775Y-72164039D01*
X87182238Y-72256151D01*
X87182233Y-72256154D01*
X87177251Y-72258477D01*
X87122015Y-72297154D01*
X86994211Y-72386643D01*
X86994208Y-72386645D01*
X86989700Y-72389802D01*
X86844000Y-72535502D01*
X86781688Y-72569528D01*
X86710873Y-72564463D01*
X86654037Y-72521916D01*
X86636868Y-72485263D01*
X86635745Y-72485684D01*
X86587767Y-72357703D01*
X86584615Y-72349295D01*
X86497261Y-72232739D01*
X86380705Y-72145385D01*
X86244316Y-72094255D01*
X86182134Y-72087500D01*
X84485866Y-72087500D01*
X84423684Y-72094255D01*
X84287295Y-72145385D01*
X84265505Y-72161716D01*
X84189507Y-72218673D01*
X84123001Y-72243521D01*
X84053618Y-72228468D01*
X84024847Y-72206942D01*
X83743340Y-71925435D01*
X95412812Y-71925435D01*
X95428937Y-72205099D01*
X95429762Y-72209306D01*
X95429763Y-72209311D01*
X95447460Y-72299512D01*
X95482868Y-72479986D01*
X95484255Y-72484037D01*
X95571377Y-72738500D01*
X95573606Y-72745011D01*
X95607658Y-72812716D01*
X95672187Y-72941016D01*
X95699473Y-72995269D01*
X95858139Y-73226130D01*
X96046669Y-73433322D01*
X96261573Y-73613010D01*
X96498876Y-73761869D01*
X96502778Y-73763631D01*
X96502782Y-73763633D01*
X96750273Y-73875380D01*
X96750277Y-73875382D01*
X96754185Y-73877146D01*
X96758305Y-73878366D01*
X96758304Y-73878366D01*
X97018664Y-73955488D01*
X97018668Y-73955489D01*
X97022777Y-73956706D01*
X97027014Y-73957354D01*
X97027017Y-73957355D01*
X97260518Y-73993086D01*
X97299682Y-73999079D01*
X97441638Y-74001309D01*
X97575484Y-74003412D01*
X97575490Y-74003412D01*
X97579775Y-74003479D01*
X97857875Y-73969825D01*
X98128833Y-73898740D01*
X98188761Y-73873917D01*
X98259351Y-73866328D01*
X98322838Y-73898107D01*
X98359065Y-73959165D01*
X98362499Y-74001309D01*
X98358981Y-74041515D01*
X98358981Y-74041525D01*
X98358502Y-74047000D01*
X98378457Y-74275087D01*
X98379881Y-74280400D01*
X98379881Y-74280402D01*
X98424257Y-74446012D01*
X98437716Y-74496243D01*
X98440039Y-74501224D01*
X98440039Y-74501225D01*
X98532151Y-74698762D01*
X98532154Y-74698767D01*
X98534477Y-74703749D01*
X98580715Y-74769783D01*
X98656666Y-74878252D01*
X98665802Y-74891300D01*
X98827700Y-75053198D01*
X98832208Y-75056355D01*
X98832211Y-75056357D01*
X98880920Y-75090463D01*
X99015251Y-75184523D01*
X99020233Y-75186846D01*
X99020238Y-75186849D01*
X99217775Y-75278961D01*
X99222757Y-75281284D01*
X99228065Y-75282706D01*
X99228067Y-75282707D01*
X99438598Y-75339119D01*
X99438600Y-75339119D01*
X99443913Y-75340543D01*
X99543480Y-75349254D01*
X99612149Y-75355262D01*
X99612156Y-75355262D01*
X99614873Y-75355500D01*
X99729127Y-75355500D01*
X99731844Y-75355262D01*
X99731851Y-75355262D01*
X99800520Y-75349254D01*
X99900087Y-75340543D01*
X99905400Y-75339119D01*
X99905402Y-75339119D01*
X100115933Y-75282707D01*
X100115935Y-75282706D01*
X100121243Y-75281284D01*
X100126225Y-75278961D01*
X100323762Y-75186849D01*
X100323767Y-75186846D01*
X100328749Y-75184523D01*
X100463080Y-75090463D01*
X100511789Y-75056357D01*
X100511792Y-75056355D01*
X100516300Y-75053198D01*
X100678198Y-74891300D01*
X100687335Y-74878252D01*
X100694555Y-74867940D01*
X100708673Y-74851116D01*
X101799980Y-73759810D01*
X101806357Y-73748131D01*
X102536408Y-73748131D01*
X102536539Y-73749966D01*
X102540790Y-73756580D01*
X103780636Y-74996425D01*
X103792846Y-75003093D01*
X103804344Y-74994404D01*
X103907764Y-74853615D01*
X103912348Y-74846392D01*
X104041885Y-74607815D01*
X104045453Y-74600021D01*
X104141413Y-74346071D01*
X104143886Y-74337879D01*
X104204496Y-74073245D01*
X104205834Y-74064794D01*
X104230128Y-73792583D01*
X104230374Y-73787641D01*
X104230774Y-73749484D01*
X104230631Y-73744519D01*
X104212044Y-73471866D01*
X104210883Y-73463392D01*
X104155828Y-73197545D01*
X104153529Y-73189310D01*
X104062904Y-72933393D01*
X104059507Y-72925543D01*
X103934989Y-72684293D01*
X103930561Y-72676981D01*
X103805051Y-72498398D01*
X103794529Y-72490018D01*
X103781141Y-72497070D01*
X102544020Y-73734190D01*
X102536408Y-73748131D01*
X101806357Y-73748131D01*
X101807592Y-73745869D01*
X101807461Y-73744034D01*
X101803210Y-73737420D01*
X100562852Y-72497063D01*
X100550841Y-72490504D01*
X100539103Y-72499471D01*
X100424741Y-72658624D01*
X100420237Y-72665888D01*
X100354734Y-72789602D01*
X100305181Y-72840445D01*
X100236006Y-72856427D01*
X100190129Y-72844838D01*
X100126225Y-72815039D01*
X100126224Y-72815039D01*
X100121243Y-72812716D01*
X100115935Y-72811294D01*
X100115933Y-72811293D01*
X99905402Y-72754881D01*
X99905400Y-72754881D01*
X99900087Y-72753457D01*
X99800520Y-72744746D01*
X99731851Y-72738738D01*
X99731844Y-72738738D01*
X99729127Y-72738500D01*
X99614873Y-72738500D01*
X99612156Y-72738738D01*
X99612149Y-72738738D01*
X99560546Y-72743253D01*
X99490941Y-72729264D01*
X99439948Y-72679864D01*
X99423758Y-72610738D01*
X99431699Y-72573193D01*
X99441891Y-72546222D01*
X99441894Y-72546213D01*
X99443409Y-72542203D01*
X99505948Y-72269146D01*
X99518654Y-72126774D01*
X100915859Y-72126774D01*
X100922255Y-72138044D01*
X102159190Y-73374980D01*
X102173131Y-73382592D01*
X102174966Y-73382461D01*
X102181580Y-73378210D01*
X103421293Y-72138496D01*
X103428485Y-72125326D01*
X103421163Y-72115091D01*
X103367942Y-72071531D01*
X103360970Y-72066576D01*
X103129484Y-71924720D01*
X103121914Y-71920763D01*
X102873323Y-71811640D01*
X102865263Y-71808738D01*
X102604179Y-71734367D01*
X102595801Y-71732585D01*
X102327034Y-71694334D01*
X102318487Y-71693707D01*
X102047014Y-71692285D01*
X102038479Y-71692822D01*
X101769319Y-71728258D01*
X101760921Y-71729951D01*
X101499068Y-71801586D01*
X101490981Y-71804402D01*
X101241276Y-71910910D01*
X101233637Y-71914803D01*
X101000699Y-72054213D01*
X100993667Y-72059100D01*
X100924328Y-72114651D01*
X100915859Y-72126774D01*
X99518654Y-72126774D01*
X99522605Y-72082502D01*
X99530629Y-71992595D01*
X99530629Y-71992589D01*
X99530849Y-71990127D01*
X99531301Y-71947000D01*
X99531132Y-71944520D01*
X99512540Y-71671798D01*
X99512539Y-71671792D01*
X99512248Y-71667521D01*
X99455442Y-71393213D01*
X99361933Y-71129153D01*
X99233452Y-70880226D01*
X99220530Y-70861839D01*
X99074844Y-70654550D01*
X99074843Y-70654549D01*
X99072377Y-70651040D01*
X98881689Y-70445834D01*
X98867550Y-70434261D01*
X98668232Y-70271123D01*
X98664914Y-70268407D01*
X98426066Y-70122040D01*
X98169563Y-70009443D01*
X98150210Y-70003930D01*
X98119881Y-69995291D01*
X97900153Y-69932700D01*
X97895911Y-69932096D01*
X97895905Y-69932095D01*
X97690548Y-69902868D01*
X97622819Y-69893229D01*
X97475708Y-69892459D01*
X97346981Y-69891785D01*
X97346975Y-69891785D01*
X97342695Y-69891763D01*
X97338451Y-69892322D01*
X97338447Y-69892322D01*
X97216326Y-69908400D01*
X97064964Y-69928327D01*
X97060824Y-69929460D01*
X97060822Y-69929460D01*
X96798910Y-70001111D01*
X96794765Y-70002245D01*
X96537097Y-70112149D01*
X96391747Y-70199140D01*
X96300411Y-70253803D01*
X96300407Y-70253806D01*
X96296729Y-70256007D01*
X96293386Y-70258685D01*
X96293382Y-70258688D01*
X96284046Y-70266168D01*
X96078109Y-70431155D01*
X95885281Y-70634352D01*
X95721815Y-70861839D01*
X95590735Y-71109407D01*
X95589263Y-71113430D01*
X95589261Y-71113434D01*
X95495941Y-71368442D01*
X95494466Y-71372473D01*
X95434790Y-71646171D01*
X95412812Y-71925435D01*
X83743340Y-71925435D01*
X80811152Y-68993248D01*
X80777126Y-68930936D01*
X80778541Y-68871541D01*
X80794118Y-68813409D01*
X80794120Y-68813398D01*
X80795543Y-68808087D01*
X80815498Y-68580000D01*
X80795543Y-68351913D01*
X80783911Y-68308503D01*
X80737707Y-68136067D01*
X80737706Y-68136065D01*
X80736284Y-68130757D01*
X80733961Y-68125775D01*
X80641849Y-67928238D01*
X80641846Y-67928233D01*
X80639523Y-67923251D01*
X80508198Y-67735700D01*
X80346300Y-67573802D01*
X80341792Y-67570645D01*
X80341789Y-67570643D01*
X80201499Y-67472411D01*
X80158749Y-67442477D01*
X80153767Y-67440154D01*
X80153762Y-67440151D01*
X80119543Y-67424195D01*
X80066258Y-67377278D01*
X80046797Y-67309001D01*
X80067339Y-67241041D01*
X80119543Y-67195805D01*
X80153762Y-67179849D01*
X80153767Y-67179846D01*
X80158749Y-67177523D01*
X80290690Y-67085137D01*
X80341789Y-67049357D01*
X80341792Y-67049355D01*
X80346300Y-67046198D01*
X80508198Y-66884300D01*
X80521413Y-66865428D01*
X80607978Y-66741800D01*
X80639523Y-66696749D01*
X80641846Y-66691767D01*
X80641849Y-66691762D01*
X80733961Y-66494225D01*
X80733961Y-66494224D01*
X80736284Y-66489243D01*
X80795543Y-66268087D01*
X80815498Y-66040000D01*
X80795543Y-65811913D01*
X80743419Y-65617384D01*
X80737707Y-65596067D01*
X80737706Y-65596065D01*
X80736284Y-65590757D01*
X80723164Y-65562620D01*
X80641849Y-65388238D01*
X80641846Y-65388233D01*
X80639523Y-65383251D01*
X80508198Y-65195700D01*
X80346300Y-65033802D01*
X80341792Y-65030645D01*
X80341789Y-65030643D01*
X80263611Y-64975902D01*
X80158749Y-64902477D01*
X80153767Y-64900154D01*
X80153762Y-64900151D01*
X80119543Y-64884195D01*
X80066258Y-64837278D01*
X80046797Y-64769001D01*
X80067339Y-64701041D01*
X80119543Y-64655805D01*
X80153762Y-64639849D01*
X80153767Y-64639846D01*
X80158749Y-64637523D01*
X80263611Y-64564098D01*
X80341789Y-64509357D01*
X80341792Y-64509355D01*
X80346300Y-64506198D01*
X80508198Y-64344300D01*
X80582206Y-64238606D01*
X80618181Y-64187229D01*
X80673638Y-64142901D01*
X80721394Y-64133500D01*
X81943233Y-64133500D01*
X81954416Y-64134027D01*
X81961909Y-64135702D01*
X81969835Y-64135453D01*
X81969836Y-64135453D01*
X82029986Y-64133562D01*
X82033945Y-64133500D01*
X82061856Y-64133500D01*
X82065791Y-64133003D01*
X82065856Y-64132995D01*
X82077693Y-64132062D01*
X82109951Y-64131048D01*
X82113970Y-64130922D01*
X82121889Y-64130673D01*
X82141343Y-64125021D01*
X82160700Y-64121013D01*
X82172930Y-64119468D01*
X82172931Y-64119468D01*
X82180797Y-64118474D01*
X82188168Y-64115555D01*
X82188170Y-64115555D01*
X82221912Y-64102196D01*
X82233142Y-64098351D01*
X82267983Y-64088229D01*
X82267984Y-64088229D01*
X82275593Y-64086018D01*
X82282412Y-64081985D01*
X82282417Y-64081983D01*
X82293028Y-64075707D01*
X82310776Y-64067012D01*
X82329617Y-64059552D01*
X82365387Y-64033564D01*
X82375307Y-64027048D01*
X82406535Y-64008580D01*
X82406538Y-64008578D01*
X82413362Y-64004542D01*
X82427683Y-63990221D01*
X82442717Y-63977380D01*
X82452694Y-63970131D01*
X82459107Y-63965472D01*
X82487298Y-63931395D01*
X82495288Y-63922616D01*
X84710247Y-61707657D01*
X84718537Y-61700113D01*
X84725018Y-61696000D01*
X84771659Y-61646332D01*
X84774413Y-61643491D01*
X84794134Y-61623770D01*
X84796612Y-61620575D01*
X84804318Y-61611553D01*
X84829158Y-61585101D01*
X84834586Y-61579321D01*
X84844346Y-61561568D01*
X84855199Y-61545045D01*
X84862753Y-61535306D01*
X84867613Y-61529041D01*
X84885176Y-61488457D01*
X84890383Y-61477827D01*
X84911695Y-61439060D01*
X84913666Y-61431383D01*
X84913668Y-61431378D01*
X84916732Y-61419442D01*
X84923138Y-61400730D01*
X84928034Y-61389417D01*
X84931181Y-61382145D01*
X84938097Y-61338481D01*
X84940504Y-61326860D01*
X84949528Y-61291711D01*
X84949528Y-61291710D01*
X84951500Y-61284030D01*
X84951500Y-61263769D01*
X84953051Y-61244058D01*
X84954979Y-61231885D01*
X84956219Y-61224057D01*
X84952059Y-61180046D01*
X84951500Y-61168189D01*
X84951500Y-60098500D01*
X84971502Y-60030379D01*
X85025158Y-59983886D01*
X85077500Y-59972500D01*
X85166134Y-59972500D01*
X85228316Y-59965745D01*
X85364705Y-59914615D01*
X85481261Y-59827261D01*
X85539119Y-59750062D01*
X86096493Y-59750062D01*
X86105789Y-59762077D01*
X86156994Y-59797931D01*
X86166489Y-59803414D01*
X86363947Y-59895490D01*
X86374239Y-59899236D01*
X86584688Y-59955625D01*
X86595481Y-59957528D01*
X86812525Y-59976517D01*
X86823475Y-59976517D01*
X87040519Y-59957528D01*
X87051312Y-59955625D01*
X87261761Y-59899236D01*
X87272053Y-59895490D01*
X87469511Y-59803414D01*
X87479006Y-59797931D01*
X87531048Y-59761491D01*
X87539424Y-59751012D01*
X87532356Y-59737566D01*
X86830812Y-59036022D01*
X86816868Y-59028408D01*
X86815035Y-59028539D01*
X86808420Y-59032790D01*
X86102923Y-59738287D01*
X86096493Y-59750062D01*
X85539119Y-59750062D01*
X85568615Y-59710705D01*
X85619745Y-59574316D01*
X85626500Y-59512134D01*
X85626500Y-59508815D01*
X85650153Y-59441890D01*
X85696156Y-59406196D01*
X85695141Y-59404266D01*
X85706000Y-59398558D01*
X85706245Y-59398368D01*
X85706403Y-59398347D01*
X85744434Y-59378356D01*
X86445978Y-58676812D01*
X86452356Y-58665132D01*
X87182408Y-58665132D01*
X87182539Y-58666965D01*
X87186790Y-58673580D01*
X87892287Y-59379077D01*
X87904062Y-59385507D01*
X87916077Y-59376211D01*
X87951931Y-59325006D01*
X87957414Y-59315511D01*
X88049490Y-59118053D01*
X88053236Y-59107761D01*
X88109625Y-58897312D01*
X88111528Y-58886519D01*
X88130517Y-58669475D01*
X88130517Y-58658525D01*
X88111528Y-58441481D01*
X88109625Y-58430688D01*
X88053236Y-58220239D01*
X88049490Y-58209947D01*
X87957414Y-58012489D01*
X87951931Y-58002994D01*
X87915491Y-57950952D01*
X87905012Y-57942576D01*
X87891566Y-57949644D01*
X87190022Y-58651188D01*
X87182408Y-58665132D01*
X86452356Y-58665132D01*
X86453592Y-58662868D01*
X86453461Y-58661035D01*
X86449210Y-58654420D01*
X85743713Y-57948923D01*
X85701971Y-57926129D01*
X85691971Y-57923953D01*
X85641773Y-57873747D01*
X85626549Y-57820186D01*
X85626500Y-57819281D01*
X85626500Y-57815866D01*
X85625315Y-57804953D01*
X85620598Y-57761540D01*
X85619745Y-57753684D01*
X85568615Y-57617295D01*
X85538407Y-57576988D01*
X86096576Y-57576988D01*
X86103644Y-57590434D01*
X86805188Y-58291978D01*
X86819132Y-58299592D01*
X86820965Y-58299461D01*
X86827580Y-58295210D01*
X87533077Y-57589713D01*
X87539507Y-57577938D01*
X87530211Y-57565923D01*
X87479006Y-57530069D01*
X87469511Y-57524586D01*
X87272053Y-57432510D01*
X87261761Y-57428764D01*
X87051312Y-57372375D01*
X87040519Y-57370472D01*
X86823475Y-57351483D01*
X86812525Y-57351483D01*
X86595481Y-57370472D01*
X86584688Y-57372375D01*
X86374239Y-57428764D01*
X86363947Y-57432510D01*
X86166489Y-57524586D01*
X86156994Y-57530069D01*
X86104952Y-57566509D01*
X86096576Y-57576988D01*
X85538407Y-57576988D01*
X85481261Y-57500739D01*
X85364705Y-57413385D01*
X85228316Y-57362255D01*
X85166134Y-57355500D01*
X83469866Y-57355500D01*
X83407684Y-57362255D01*
X83271295Y-57413385D01*
X83154739Y-57500739D01*
X83067385Y-57617295D01*
X83016255Y-57753684D01*
X83009500Y-57815866D01*
X83009500Y-59512134D01*
X83016255Y-59574316D01*
X83067385Y-59710705D01*
X83154739Y-59827261D01*
X83271295Y-59914615D01*
X83407684Y-59965745D01*
X83469866Y-59972500D01*
X83558500Y-59972500D01*
X83626621Y-59992502D01*
X83673114Y-60046158D01*
X83684500Y-60098500D01*
X83684500Y-60889405D01*
X83664498Y-60957526D01*
X83647595Y-60978500D01*
X81796500Y-62829595D01*
X81734188Y-62863621D01*
X81707405Y-62866500D01*
X80721394Y-62866500D01*
X80653273Y-62846498D01*
X80618181Y-62812771D01*
X80511357Y-62660211D01*
X80511355Y-62660208D01*
X80508198Y-62655700D01*
X80346300Y-62493802D01*
X80341792Y-62490645D01*
X80341789Y-62490643D01*
X80263611Y-62435902D01*
X80158749Y-62362477D01*
X80153767Y-62360154D01*
X80153762Y-62360151D01*
X80119543Y-62344195D01*
X80066258Y-62297278D01*
X80046797Y-62229001D01*
X80067339Y-62161041D01*
X80119543Y-62115805D01*
X80153762Y-62099849D01*
X80153767Y-62099846D01*
X80158749Y-62097523D01*
X80326862Y-61979809D01*
X80341789Y-61969357D01*
X80341792Y-61969355D01*
X80346300Y-61966198D01*
X80508198Y-61804300D01*
X80639523Y-61616749D01*
X80641846Y-61611767D01*
X80641849Y-61611762D01*
X80733961Y-61414225D01*
X80733961Y-61414224D01*
X80736284Y-61409243D01*
X80741597Y-61389417D01*
X80794119Y-61193402D01*
X80794119Y-61193400D01*
X80795543Y-61188087D01*
X80815498Y-60960000D01*
X80795543Y-60731913D01*
X80791532Y-60716943D01*
X80737707Y-60516067D01*
X80737706Y-60516065D01*
X80736284Y-60510757D01*
X80733961Y-60505775D01*
X80641849Y-60308238D01*
X80641846Y-60308233D01*
X80639523Y-60303251D01*
X80544142Y-60167033D01*
X80511357Y-60120211D01*
X80511355Y-60120208D01*
X80508198Y-60115700D01*
X80346300Y-59953802D01*
X80341792Y-59950645D01*
X80341789Y-59950643D01*
X80205306Y-59855077D01*
X80158749Y-59822477D01*
X80153767Y-59820154D01*
X80153762Y-59820151D01*
X79956225Y-59728039D01*
X79956224Y-59728039D01*
X79951243Y-59725716D01*
X79945935Y-59724294D01*
X79945933Y-59724293D01*
X79735402Y-59667881D01*
X79735400Y-59667881D01*
X79730087Y-59666457D01*
X79502000Y-59646502D01*
X79273913Y-59666457D01*
X79268608Y-59667879D01*
X79268594Y-59667881D01*
X79210461Y-59683459D01*
X79139484Y-59681771D01*
X79088752Y-59650848D01*
X78844101Y-59406196D01*
X78598404Y-59160499D01*
X78564379Y-59098187D01*
X78561500Y-59071404D01*
X78561500Y-55819394D01*
X78581502Y-55751273D01*
X78615229Y-55716181D01*
X78767789Y-55609357D01*
X78767792Y-55609355D01*
X78772300Y-55606198D01*
X78934198Y-55444300D01*
X78942525Y-55432409D01*
X78992098Y-55361611D01*
X79065523Y-55256749D01*
X79067846Y-55251767D01*
X79067849Y-55251762D01*
X79159961Y-55054225D01*
X79159961Y-55054224D01*
X79162284Y-55049243D01*
X79187744Y-54954228D01*
X79220119Y-54833402D01*
X79220119Y-54833400D01*
X79221543Y-54828087D01*
X79241498Y-54600000D01*
X79221543Y-54371913D01*
X79162284Y-54150757D01*
X79069276Y-53951299D01*
X79067849Y-53948238D01*
X79067846Y-53948233D01*
X79065523Y-53943251D01*
X79049777Y-53920763D01*
X101273064Y-53920763D01*
X101309404Y-54158244D01*
X101346094Y-54270497D01*
X101382434Y-54381683D01*
X101382437Y-54381689D01*
X101384042Y-54386601D01*
X101494975Y-54599700D01*
X101639223Y-54791820D01*
X101812912Y-54957801D01*
X102011378Y-55093186D01*
X102016061Y-55095360D01*
X102016065Y-55095362D01*
X102224595Y-55192158D01*
X102224599Y-55192159D01*
X102229290Y-55194337D01*
X102460798Y-55258540D01*
X102465935Y-55259089D01*
X102653593Y-55279144D01*
X102653601Y-55279144D01*
X102656928Y-55279500D01*
X102891402Y-55279500D01*
X102893975Y-55279288D01*
X102893986Y-55279288D01*
X102994946Y-55270987D01*
X103069937Y-55264822D01*
X103302944Y-55206294D01*
X103431771Y-55150279D01*
X103518526Y-55112557D01*
X103518529Y-55112555D01*
X103523263Y-55110497D01*
X103724977Y-54980002D01*
X103902670Y-54818314D01*
X103963347Y-54741483D01*
X104048367Y-54633830D01*
X104048370Y-54633825D01*
X104051568Y-54629776D01*
X104065885Y-54603842D01*
X104165177Y-54423974D01*
X104165179Y-54423970D01*
X104167674Y-54419450D01*
X104182568Y-54377393D01*
X104246144Y-54197860D01*
X104246145Y-54197856D01*
X104247870Y-54192985D01*
X104253183Y-54163159D01*
X104289095Y-53961552D01*
X104289096Y-53961546D01*
X104290001Y-53956463D01*
X104291669Y-53819961D01*
X104292873Y-53721407D01*
X104292873Y-53721405D01*
X104292936Y-53716237D01*
X104256596Y-53478756D01*
X104200746Y-53307881D01*
X104183566Y-53255317D01*
X104183563Y-53255311D01*
X104181958Y-53250399D01*
X104071025Y-53037300D01*
X103926777Y-52845180D01*
X103753088Y-52679199D01*
X103715649Y-52653660D01*
X103670648Y-52598749D01*
X103662477Y-52528225D01*
X103693731Y-52464478D01*
X103718210Y-52443784D01*
X103720326Y-52442415D01*
X103728498Y-52436122D01*
X103898480Y-52281450D01*
X103905506Y-52273917D01*
X103973429Y-52187911D01*
X111713493Y-52187911D01*
X111722789Y-52199926D01*
X111773994Y-52235780D01*
X111783489Y-52241263D01*
X111980947Y-52333339D01*
X111991239Y-52337085D01*
X112201688Y-52393474D01*
X112212481Y-52395377D01*
X112429525Y-52414366D01*
X112440475Y-52414366D01*
X112657519Y-52395377D01*
X112668312Y-52393474D01*
X112878761Y-52337085D01*
X112889053Y-52333339D01*
X113086511Y-52241263D01*
X113096006Y-52235780D01*
X113148048Y-52199340D01*
X113156424Y-52188861D01*
X113149356Y-52175415D01*
X112447812Y-51473871D01*
X112433868Y-51466257D01*
X112432035Y-51466388D01*
X112425420Y-51470639D01*
X111719923Y-52176136D01*
X111713493Y-52187911D01*
X103973429Y-52187911D01*
X104047945Y-52093556D01*
X104053650Y-52084969D01*
X104164714Y-51883778D01*
X104168944Y-51874366D01*
X104245659Y-51657732D01*
X104248293Y-51647761D01*
X104265647Y-51550337D01*
X104264187Y-51537040D01*
X104249630Y-51532500D01*
X101314904Y-51532500D01*
X101301560Y-51536418D01*
X101299573Y-51550694D01*
X101309110Y-51613015D01*
X101311499Y-51623043D01*
X101382898Y-51841488D01*
X101386895Y-51850997D01*
X101493011Y-52054844D01*
X101498505Y-52063569D01*
X101636493Y-52247352D01*
X101643336Y-52255059D01*
X101809491Y-52413839D01*
X101817498Y-52420323D01*
X101850356Y-52442737D01*
X101895359Y-52497648D01*
X101903532Y-52568172D01*
X101872278Y-52631920D01*
X101847796Y-52652616D01*
X101846181Y-52653661D01*
X101841023Y-52656998D01*
X101663330Y-52818686D01*
X101639141Y-52849315D01*
X101517633Y-53003170D01*
X101517630Y-53003175D01*
X101514432Y-53007224D01*
X101511939Y-53011740D01*
X101511937Y-53011743D01*
X101495110Y-53042225D01*
X101398326Y-53217550D01*
X101396602Y-53222419D01*
X101396600Y-53222423D01*
X101319856Y-53439140D01*
X101318130Y-53444015D01*
X101317223Y-53449108D01*
X101317222Y-53449111D01*
X101287996Y-53613188D01*
X101275999Y-53680537D01*
X101275936Y-53685701D01*
X101273561Y-53880119D01*
X101273064Y-53920763D01*
X79049777Y-53920763D01*
X78976574Y-53816219D01*
X78937357Y-53760211D01*
X78937355Y-53760208D01*
X78934198Y-53755700D01*
X78772300Y-53593802D01*
X78767792Y-53590645D01*
X78767789Y-53590643D01*
X78689611Y-53535902D01*
X78584749Y-53462477D01*
X78579767Y-53460154D01*
X78579762Y-53460151D01*
X78382225Y-53368039D01*
X78382224Y-53368039D01*
X78377243Y-53365716D01*
X78371935Y-53364294D01*
X78371933Y-53364293D01*
X78161402Y-53307881D01*
X78161400Y-53307881D01*
X78156087Y-53306457D01*
X77928000Y-53286502D01*
X77699913Y-53306457D01*
X77694600Y-53307881D01*
X77694598Y-53307881D01*
X77484067Y-53364293D01*
X77484065Y-53364294D01*
X77478757Y-53365716D01*
X77473776Y-53368039D01*
X77473775Y-53368039D01*
X77276238Y-53460151D01*
X77276233Y-53460154D01*
X77271251Y-53462477D01*
X77166389Y-53535902D01*
X77088211Y-53590643D01*
X77088208Y-53590645D01*
X77083700Y-53593802D01*
X76938000Y-53739502D01*
X76875688Y-53773528D01*
X76804873Y-53768463D01*
X76748037Y-53725916D01*
X76730868Y-53689263D01*
X76729745Y-53689684D01*
X76681767Y-53561703D01*
X76678615Y-53553295D01*
X76591261Y-53436739D01*
X76474705Y-53349385D01*
X76338316Y-53298255D01*
X76276134Y-53291500D01*
X74579866Y-53291500D01*
X74517684Y-53298255D01*
X74381295Y-53349385D01*
X74264739Y-53436739D01*
X74177385Y-53553295D01*
X74126255Y-53689684D01*
X74119500Y-53751866D01*
X74119500Y-54960405D01*
X74099498Y-55028526D01*
X74082595Y-55049500D01*
X71489747Y-57642348D01*
X71481461Y-57649888D01*
X71474982Y-57654000D01*
X71469557Y-57659777D01*
X71428357Y-57703651D01*
X71425602Y-57706493D01*
X71405865Y-57726230D01*
X71403385Y-57729427D01*
X71395682Y-57738447D01*
X71365414Y-57770679D01*
X71361595Y-57777625D01*
X71361593Y-57777628D01*
X71355652Y-57788434D01*
X71344801Y-57804953D01*
X71332386Y-57820959D01*
X71329241Y-57828228D01*
X71329238Y-57828232D01*
X71314826Y-57861537D01*
X71309609Y-57872187D01*
X71288305Y-57910940D01*
X71286334Y-57918615D01*
X71286334Y-57918616D01*
X71283267Y-57930562D01*
X71276863Y-57949266D01*
X71276134Y-57950952D01*
X71268819Y-57967855D01*
X71267580Y-57975678D01*
X71267577Y-57975688D01*
X71261901Y-58011524D01*
X71259495Y-58023144D01*
X71248500Y-58065970D01*
X71248500Y-58086224D01*
X71246949Y-58105934D01*
X71243780Y-58125943D01*
X71244526Y-58133835D01*
X71247941Y-58169961D01*
X71248500Y-58181819D01*
X71248500Y-59525500D01*
X71228498Y-59593621D01*
X71174842Y-59640114D01*
X71122500Y-59651500D01*
X71033866Y-59651500D01*
X70971684Y-59658255D01*
X70835295Y-59709385D01*
X70718739Y-59796739D01*
X70631385Y-59913295D01*
X70580255Y-60049684D01*
X70573500Y-60111866D01*
X70573500Y-61808134D01*
X70580255Y-61870316D01*
X70631385Y-62006705D01*
X70718739Y-62123261D01*
X70835295Y-62210615D01*
X70971684Y-62261745D01*
X70982474Y-62262917D01*
X70984606Y-62263803D01*
X70987222Y-62264425D01*
X70987121Y-62264848D01*
X71048035Y-62290155D01*
X71088463Y-62348517D01*
X71090922Y-62419471D01*
X71054629Y-62480490D01*
X71045969Y-62487489D01*
X71042207Y-62490646D01*
X71037700Y-62493802D01*
X70875802Y-62655700D01*
X70744477Y-62843251D01*
X70742154Y-62848233D01*
X70742151Y-62848238D01*
X70706083Y-62925587D01*
X70647716Y-63050757D01*
X70588457Y-63271913D01*
X70568502Y-63500000D01*
X70588457Y-63728087D01*
X70589881Y-63733400D01*
X70589881Y-63733402D01*
X70642934Y-63931395D01*
X70647716Y-63949243D01*
X70650039Y-63954224D01*
X70650039Y-63954225D01*
X70742151Y-64151762D01*
X70742154Y-64151767D01*
X70744477Y-64156749D01*
X70875802Y-64344300D01*
X71037700Y-64506198D01*
X71042208Y-64509355D01*
X71042211Y-64509357D01*
X71120389Y-64564098D01*
X71225251Y-64637523D01*
X71230233Y-64639846D01*
X71230238Y-64639849D01*
X71264457Y-64655805D01*
X71317742Y-64702722D01*
X71337203Y-64770999D01*
X71316661Y-64838959D01*
X71264457Y-64884195D01*
X71230238Y-64900151D01*
X71230233Y-64900154D01*
X71225251Y-64902477D01*
X71120389Y-64975902D01*
X71042211Y-65030643D01*
X71042208Y-65030645D01*
X71037700Y-65033802D01*
X70875802Y-65195700D01*
X70872645Y-65200208D01*
X70872643Y-65200211D01*
X70765819Y-65352771D01*
X70710362Y-65397099D01*
X70662606Y-65406500D01*
X67718967Y-65406500D01*
X67707784Y-65405973D01*
X67700291Y-65404298D01*
X67692365Y-65404547D01*
X67692364Y-65404547D01*
X67632214Y-65406438D01*
X67628255Y-65406500D01*
X67600344Y-65406500D01*
X67596410Y-65406997D01*
X67596409Y-65406997D01*
X67596344Y-65407005D01*
X67584507Y-65407938D01*
X67552690Y-65408938D01*
X67548229Y-65409078D01*
X67540310Y-65409327D01*
X67522654Y-65414456D01*
X67520858Y-65414978D01*
X67501506Y-65418986D01*
X67494435Y-65419880D01*
X67481403Y-65421526D01*
X67474034Y-65424443D01*
X67474032Y-65424444D01*
X67440297Y-65437800D01*
X67429069Y-65441645D01*
X67386607Y-65453982D01*
X67379784Y-65458017D01*
X67379782Y-65458018D01*
X67369172Y-65464293D01*
X67351424Y-65472988D01*
X67332583Y-65480448D01*
X67326167Y-65485110D01*
X67326166Y-65485110D01*
X67296813Y-65506436D01*
X67286893Y-65512952D01*
X67255665Y-65531420D01*
X67255662Y-65531422D01*
X67248838Y-65535458D01*
X67234517Y-65549779D01*
X67219484Y-65562619D01*
X67203093Y-65574528D01*
X67174902Y-65608605D01*
X67166912Y-65617384D01*
X66054147Y-66730148D01*
X66045861Y-66737688D01*
X66039382Y-66741800D01*
X66033957Y-66747577D01*
X65992757Y-66791451D01*
X65990002Y-66794293D01*
X65970265Y-66814030D01*
X65967785Y-66817227D01*
X65960082Y-66826247D01*
X65929814Y-66858479D01*
X65925995Y-66865425D01*
X65925993Y-66865428D01*
X65920052Y-66876234D01*
X65909201Y-66892753D01*
X65896786Y-66908759D01*
X65893641Y-66916028D01*
X65893638Y-66916032D01*
X65879226Y-66949337D01*
X65874009Y-66959987D01*
X65852705Y-66998740D01*
X65850734Y-67006415D01*
X65850734Y-67006416D01*
X65847667Y-67018362D01*
X65841263Y-67037066D01*
X65833219Y-67055655D01*
X65831980Y-67063478D01*
X65831977Y-67063488D01*
X65826301Y-67099324D01*
X65823895Y-67110944D01*
X65821591Y-67119919D01*
X65812900Y-67153770D01*
X65812900Y-67174024D01*
X65811349Y-67193734D01*
X65808180Y-67213743D01*
X65808926Y-67221635D01*
X65812341Y-67257761D01*
X65812900Y-67269619D01*
X65812900Y-70954018D01*
X65792898Y-71022139D01*
X65739242Y-71068632D01*
X65731131Y-71071999D01*
X65708107Y-71080631D01*
X65708104Y-71080632D01*
X65699695Y-71083785D01*
X65583139Y-71171139D01*
X65495785Y-71287695D01*
X65444655Y-71424084D01*
X65437900Y-71486266D01*
X65437900Y-72582534D01*
X65444655Y-72644716D01*
X65495785Y-72781105D01*
X65583139Y-72897661D01*
X65699695Y-72985015D01*
X65836084Y-73036145D01*
X65898266Y-73042900D01*
X66994534Y-73042900D01*
X67056716Y-73036145D01*
X67193105Y-72985015D01*
X67309661Y-72897661D01*
X67397015Y-72781105D01*
X67448145Y-72644716D01*
X67454900Y-72582534D01*
X67454900Y-71486266D01*
X67448145Y-71424084D01*
X67397015Y-71287695D01*
X67309661Y-71171139D01*
X67193105Y-71083785D01*
X67184696Y-71080632D01*
X67184693Y-71080631D01*
X67161669Y-71071999D01*
X67104905Y-71029357D01*
X67080206Y-70962795D01*
X67079900Y-70954018D01*
X67079900Y-68846522D01*
X70599273Y-68846522D01*
X70646764Y-69023761D01*
X70650510Y-69034053D01*
X70742586Y-69231511D01*
X70748069Y-69241007D01*
X70873028Y-69419467D01*
X70880084Y-69427875D01*
X71034125Y-69581916D01*
X71042533Y-69588972D01*
X71220993Y-69713931D01*
X71230489Y-69719414D01*
X71427947Y-69811490D01*
X71438239Y-69815236D01*
X71610503Y-69861394D01*
X71624599Y-69861058D01*
X71628000Y-69853116D01*
X71628000Y-69847967D01*
X72136000Y-69847967D01*
X72139973Y-69861498D01*
X72148522Y-69862727D01*
X72325761Y-69815236D01*
X72336053Y-69811490D01*
X72533511Y-69719414D01*
X72543007Y-69713931D01*
X72721467Y-69588972D01*
X72729875Y-69581916D01*
X72883916Y-69427875D01*
X72890972Y-69419467D01*
X73015931Y-69241007D01*
X73021414Y-69231511D01*
X73113490Y-69034053D01*
X73117236Y-69023761D01*
X73163394Y-68851497D01*
X73163058Y-68837401D01*
X73155116Y-68834000D01*
X72154115Y-68834000D01*
X72138876Y-68838475D01*
X72137671Y-68839865D01*
X72136000Y-68847548D01*
X72136000Y-69847967D01*
X71628000Y-69847967D01*
X71628000Y-68852115D01*
X71623525Y-68836876D01*
X71622135Y-68835671D01*
X71614452Y-68834000D01*
X70614033Y-68834000D01*
X70600502Y-68837973D01*
X70599273Y-68846522D01*
X67079900Y-68846522D01*
X67079900Y-67548394D01*
X67099902Y-67480273D01*
X67116805Y-67459299D01*
X67865699Y-66710405D01*
X67928011Y-66676379D01*
X67954794Y-66673500D01*
X70662606Y-66673500D01*
X70730727Y-66693502D01*
X70765819Y-66727229D01*
X70870154Y-66876234D01*
X70875802Y-66884300D01*
X71037700Y-67046198D01*
X71042208Y-67049355D01*
X71042211Y-67049357D01*
X71093310Y-67085137D01*
X71225251Y-67177523D01*
X71230233Y-67179846D01*
X71230238Y-67179849D01*
X71265049Y-67196081D01*
X71318334Y-67242998D01*
X71337795Y-67311275D01*
X71317253Y-67379235D01*
X71265049Y-67424471D01*
X71230489Y-67440586D01*
X71220993Y-67446069D01*
X71042533Y-67571028D01*
X71034125Y-67578084D01*
X70880084Y-67732125D01*
X70873028Y-67740533D01*
X70748069Y-67918993D01*
X70742586Y-67928489D01*
X70650510Y-68125947D01*
X70646764Y-68136239D01*
X70600606Y-68308503D01*
X70600942Y-68322599D01*
X70608884Y-68326000D01*
X73149967Y-68326000D01*
X73163498Y-68322027D01*
X73164727Y-68313478D01*
X73117236Y-68136239D01*
X73113490Y-68125947D01*
X73021414Y-67928489D01*
X73015931Y-67918993D01*
X72890972Y-67740533D01*
X72883916Y-67732125D01*
X72729875Y-67578084D01*
X72721467Y-67571028D01*
X72543007Y-67446069D01*
X72533511Y-67440586D01*
X72498951Y-67424471D01*
X72445666Y-67377554D01*
X72426205Y-67309277D01*
X72446747Y-67241317D01*
X72498951Y-67196081D01*
X72533762Y-67179849D01*
X72533767Y-67179846D01*
X72538749Y-67177523D01*
X72670690Y-67085137D01*
X72721789Y-67049357D01*
X72721792Y-67049355D01*
X72726300Y-67046198D01*
X72888198Y-66884300D01*
X72901413Y-66865428D01*
X72987978Y-66741800D01*
X73019523Y-66696749D01*
X73021846Y-66691767D01*
X73021849Y-66691762D01*
X73113961Y-66494225D01*
X73113961Y-66494224D01*
X73116284Y-66489243D01*
X73175543Y-66268087D01*
X73195498Y-66040000D01*
X73175543Y-65811913D01*
X73123419Y-65617384D01*
X73117707Y-65596067D01*
X73117706Y-65596065D01*
X73116284Y-65590757D01*
X73103164Y-65562620D01*
X73021849Y-65388238D01*
X73021846Y-65388233D01*
X73019523Y-65383251D01*
X72888198Y-65195700D01*
X72726300Y-65033802D01*
X72721792Y-65030645D01*
X72721789Y-65030643D01*
X72643611Y-64975902D01*
X72538749Y-64902477D01*
X72533767Y-64900154D01*
X72533762Y-64900151D01*
X72499543Y-64884195D01*
X72446258Y-64837278D01*
X72426797Y-64769001D01*
X72447339Y-64701041D01*
X72499543Y-64655805D01*
X72533762Y-64639849D01*
X72533767Y-64639846D01*
X72538749Y-64637523D01*
X72643611Y-64564098D01*
X72721789Y-64509357D01*
X72721792Y-64509355D01*
X72726300Y-64506198D01*
X72888198Y-64344300D01*
X73019523Y-64156749D01*
X73021846Y-64151767D01*
X73021849Y-64151762D01*
X73113961Y-63954225D01*
X73113961Y-63954224D01*
X73116284Y-63949243D01*
X73121067Y-63931395D01*
X73174119Y-63733402D01*
X73174119Y-63733400D01*
X73175543Y-63728087D01*
X73195498Y-63500000D01*
X73175543Y-63271913D01*
X73116284Y-63050757D01*
X73057917Y-62925587D01*
X73021849Y-62848238D01*
X73021846Y-62848233D01*
X73019523Y-62843251D01*
X72888198Y-62655700D01*
X72726300Y-62493802D01*
X72721789Y-62490643D01*
X72717576Y-62487108D01*
X72718527Y-62485974D01*
X72678529Y-62435929D01*
X72671224Y-62365310D01*
X72703258Y-62301951D01*
X72764462Y-62265970D01*
X72781517Y-62262918D01*
X72792316Y-62261745D01*
X72928705Y-62210615D01*
X73045261Y-62123261D01*
X73132615Y-62006705D01*
X73183745Y-61870316D01*
X73190500Y-61808134D01*
X73190500Y-60111866D01*
X73183745Y-60049684D01*
X73132615Y-59913295D01*
X73045261Y-59796739D01*
X72928705Y-59709385D01*
X72792316Y-59658255D01*
X72730134Y-59651500D01*
X72641500Y-59651500D01*
X72573379Y-59631498D01*
X72526886Y-59577842D01*
X72515500Y-59525500D01*
X72515500Y-58460594D01*
X72535502Y-58392473D01*
X72552405Y-58371499D01*
X74978499Y-55945405D01*
X75040811Y-55911379D01*
X75067594Y-55908500D01*
X76276134Y-55908500D01*
X76338316Y-55901745D01*
X76474705Y-55850615D01*
X76591261Y-55763261D01*
X76678615Y-55646705D01*
X76729745Y-55510316D01*
X76731691Y-55511046D01*
X76761545Y-55458795D01*
X76824503Y-55425979D01*
X76895207Y-55432409D01*
X76938000Y-55460498D01*
X77083700Y-55606198D01*
X77088208Y-55609355D01*
X77088211Y-55609357D01*
X77240771Y-55716181D01*
X77285099Y-55771638D01*
X77294500Y-55819394D01*
X77294500Y-59307233D01*
X77293973Y-59318416D01*
X77292298Y-59325909D01*
X77292547Y-59333835D01*
X77292547Y-59333836D01*
X77294438Y-59393986D01*
X77294500Y-59397945D01*
X77294500Y-59425856D01*
X77294997Y-59429790D01*
X77294997Y-59429791D01*
X77295005Y-59429856D01*
X77295938Y-59441693D01*
X77297327Y-59485889D01*
X77302978Y-59505339D01*
X77306987Y-59524700D01*
X77309526Y-59544797D01*
X77312445Y-59552168D01*
X77312445Y-59552170D01*
X77325804Y-59585912D01*
X77329649Y-59597142D01*
X77341982Y-59639593D01*
X77346015Y-59646412D01*
X77346017Y-59646417D01*
X77352293Y-59657028D01*
X77360988Y-59674776D01*
X77368448Y-59693617D01*
X77373110Y-59700033D01*
X77373110Y-59700034D01*
X77394436Y-59729387D01*
X77400952Y-59739307D01*
X77418642Y-59769218D01*
X77423458Y-59777362D01*
X77437779Y-59791683D01*
X77450619Y-59806716D01*
X77462528Y-59823107D01*
X77468634Y-59828158D01*
X77496605Y-59851298D01*
X77505384Y-59859288D01*
X78192848Y-60546752D01*
X78226874Y-60609064D01*
X78225459Y-60668459D01*
X78209882Y-60726591D01*
X78209881Y-60726598D01*
X78208457Y-60731913D01*
X78188502Y-60960000D01*
X78208457Y-61188087D01*
X78209881Y-61193400D01*
X78209881Y-61193402D01*
X78262404Y-61389417D01*
X78267716Y-61409243D01*
X78270039Y-61414224D01*
X78270039Y-61414225D01*
X78362151Y-61611762D01*
X78362154Y-61611767D01*
X78364477Y-61616749D01*
X78495802Y-61804300D01*
X78657700Y-61966198D01*
X78662208Y-61969355D01*
X78662211Y-61969357D01*
X78677138Y-61979809D01*
X78845251Y-62097523D01*
X78850233Y-62099846D01*
X78850238Y-62099849D01*
X78884457Y-62115805D01*
X78937742Y-62162722D01*
X78957203Y-62230999D01*
X78936661Y-62298959D01*
X78884457Y-62344195D01*
X78850238Y-62360151D01*
X78850233Y-62360154D01*
X78845251Y-62362477D01*
X78740389Y-62435902D01*
X78662211Y-62490643D01*
X78662208Y-62490645D01*
X78657700Y-62493802D01*
X78495802Y-62655700D01*
X78364477Y-62843251D01*
X78362154Y-62848233D01*
X78362151Y-62848238D01*
X78326083Y-62925587D01*
X78267716Y-63050757D01*
X78208457Y-63271913D01*
X78188502Y-63500000D01*
X78208457Y-63728087D01*
X78209881Y-63733400D01*
X78209881Y-63733402D01*
X78262934Y-63931395D01*
X78267716Y-63949243D01*
X78270039Y-63954224D01*
X78270039Y-63954225D01*
X78362151Y-64151762D01*
X78362154Y-64151767D01*
X78364477Y-64156749D01*
X78495802Y-64344300D01*
X78657700Y-64506198D01*
X78662208Y-64509355D01*
X78662211Y-64509357D01*
X78740389Y-64564098D01*
X78845251Y-64637523D01*
X78850233Y-64639846D01*
X78850238Y-64639849D01*
X78884457Y-64655805D01*
X78937742Y-64702722D01*
X78957203Y-64770999D01*
X78936661Y-64838959D01*
X78884457Y-64884195D01*
X78850238Y-64900151D01*
X78850233Y-64900154D01*
X78845251Y-64902477D01*
X78740389Y-64975902D01*
X78662211Y-65030643D01*
X78662208Y-65030645D01*
X78657700Y-65033802D01*
X78495802Y-65195700D01*
X78364477Y-65383251D01*
X78362154Y-65388233D01*
X78362151Y-65388238D01*
X78280836Y-65562620D01*
X78267716Y-65590757D01*
X78266294Y-65596065D01*
X78266293Y-65596067D01*
X78260581Y-65617384D01*
X78208457Y-65811913D01*
X78188502Y-66040000D01*
X78208457Y-66268087D01*
X78267716Y-66489243D01*
X78270039Y-66494224D01*
X78270039Y-66494225D01*
X78362151Y-66691762D01*
X78362154Y-66691767D01*
X78364477Y-66696749D01*
X78396022Y-66741800D01*
X78482588Y-66865428D01*
X78495802Y-66884300D01*
X78657700Y-67046198D01*
X78662208Y-67049355D01*
X78662211Y-67049357D01*
X78713310Y-67085137D01*
X78845251Y-67177523D01*
X78850233Y-67179846D01*
X78850238Y-67179849D01*
X78884457Y-67195805D01*
X78937742Y-67242722D01*
X78957203Y-67310999D01*
X78936661Y-67378959D01*
X78884457Y-67424195D01*
X78850238Y-67440151D01*
X78850233Y-67440154D01*
X78845251Y-67442477D01*
X78802501Y-67472411D01*
X78662211Y-67570643D01*
X78662208Y-67570645D01*
X78657700Y-67573802D01*
X78495802Y-67735700D01*
X78364477Y-67923251D01*
X78362154Y-67928233D01*
X78362151Y-67928238D01*
X78270039Y-68125775D01*
X78267716Y-68130757D01*
X78266294Y-68136065D01*
X78266293Y-68136067D01*
X78220089Y-68308503D01*
X78208457Y-68351913D01*
X78188502Y-68580000D01*
X78208457Y-68808087D01*
X78209881Y-68813400D01*
X78209881Y-68813402D01*
X78241375Y-68930936D01*
X78267716Y-69029243D01*
X78270039Y-69034224D01*
X78270039Y-69034225D01*
X78362151Y-69231762D01*
X78362154Y-69231767D01*
X78364477Y-69236749D01*
X78404365Y-69293715D01*
X78488798Y-69414297D01*
X78495802Y-69424300D01*
X78657700Y-69586198D01*
X78662208Y-69589355D01*
X78662211Y-69589357D01*
X78707729Y-69621229D01*
X78845251Y-69717523D01*
X78850233Y-69719846D01*
X78850238Y-69719849D01*
X79046765Y-69811490D01*
X79052757Y-69814284D01*
X79058065Y-69815706D01*
X79058067Y-69815707D01*
X79268598Y-69872119D01*
X79268600Y-69872119D01*
X79273913Y-69873543D01*
X79502000Y-69893498D01*
X79730087Y-69873543D01*
X79735398Y-69872120D01*
X79735409Y-69872118D01*
X79793541Y-69856541D01*
X79864517Y-69858230D01*
X79915248Y-69889152D01*
X83814343Y-73788247D01*
X83821887Y-73796537D01*
X83826000Y-73803018D01*
X83831777Y-73808443D01*
X83875667Y-73849658D01*
X83878509Y-73852413D01*
X83898231Y-73872135D01*
X83901355Y-73874558D01*
X83901359Y-73874562D01*
X83901424Y-73874612D01*
X83910445Y-73882317D01*
X83942679Y-73912586D01*
X83960200Y-73922218D01*
X84010258Y-73972560D01*
X84025500Y-74032633D01*
X84025500Y-74244134D01*
X84032255Y-74306316D01*
X84083385Y-74442705D01*
X84170739Y-74559261D01*
X84287295Y-74646615D01*
X84423684Y-74697745D01*
X84485866Y-74704500D01*
X84496406Y-74704500D01*
X84564527Y-74724502D01*
X84611020Y-74778158D01*
X84621124Y-74848432D01*
X84591630Y-74913012D01*
X84585501Y-74919595D01*
X82208547Y-77296548D01*
X82200261Y-77304088D01*
X82193782Y-77308200D01*
X82188357Y-77313977D01*
X82147157Y-77357851D01*
X82144402Y-77360693D01*
X82124665Y-77380430D01*
X82122185Y-77383627D01*
X82114482Y-77392647D01*
X82084214Y-77424879D01*
X82080395Y-77431825D01*
X82080393Y-77431828D01*
X82074452Y-77442634D01*
X82063601Y-77459153D01*
X82051186Y-77475159D01*
X82048041Y-77482428D01*
X82048038Y-77482432D01*
X82033626Y-77515737D01*
X82028409Y-77526387D01*
X82007105Y-77565140D01*
X82007105Y-77565141D01*
X82006344Y-77564722D01*
X81966720Y-77615504D01*
X81937472Y-77631128D01*
X81862505Y-77659232D01*
X81862504Y-77659233D01*
X81854095Y-77662385D01*
X81737539Y-77749739D01*
X81650185Y-77866295D01*
X81599055Y-78002684D01*
X81592300Y-78064866D01*
X81592300Y-79161134D01*
X81599055Y-79223316D01*
X81650185Y-79359705D01*
X81737539Y-79476261D01*
X81854095Y-79563615D01*
X81990484Y-79614745D01*
X82052666Y-79621500D01*
X83148934Y-79621500D01*
X83211116Y-79614745D01*
X83347505Y-79563615D01*
X83464061Y-79476261D01*
X83551415Y-79359705D01*
X83602545Y-79223316D01*
X83609300Y-79161134D01*
X83609300Y-78064866D01*
X83602545Y-78002684D01*
X83563602Y-77898803D01*
X83554565Y-77874697D01*
X83554564Y-77874696D01*
X83551415Y-77866295D01*
X83551807Y-77866148D01*
X83537917Y-77802641D01*
X83562653Y-77736093D01*
X83574511Y-77722393D01*
X85726247Y-75570657D01*
X85734537Y-75563113D01*
X85741018Y-75559000D01*
X85787659Y-75509332D01*
X85790413Y-75506491D01*
X85810135Y-75486769D01*
X85812612Y-75483576D01*
X85820317Y-75474555D01*
X85845159Y-75448100D01*
X85850586Y-75442321D01*
X85854407Y-75435371D01*
X85860346Y-75424568D01*
X85871202Y-75408041D01*
X85878757Y-75398302D01*
X85878758Y-75398300D01*
X85883614Y-75392040D01*
X85901174Y-75351460D01*
X85906391Y-75340812D01*
X85923875Y-75309009D01*
X85923876Y-75309007D01*
X85927695Y-75302060D01*
X85932733Y-75282437D01*
X85939137Y-75263734D01*
X85944033Y-75252420D01*
X85944033Y-75252419D01*
X85947181Y-75245145D01*
X85948420Y-75237322D01*
X85948423Y-75237312D01*
X85954099Y-75201476D01*
X85956505Y-75189856D01*
X85965528Y-75154711D01*
X85965528Y-75154710D01*
X85967500Y-75147030D01*
X85967500Y-75126776D01*
X85969051Y-75107065D01*
X85969820Y-75102213D01*
X85972220Y-75087057D01*
X85968059Y-75043038D01*
X85967500Y-75031181D01*
X85967500Y-74830500D01*
X85987502Y-74762379D01*
X86041158Y-74715886D01*
X86093500Y-74704500D01*
X86182134Y-74704500D01*
X86244316Y-74697745D01*
X86380705Y-74646615D01*
X86497261Y-74559261D01*
X86584615Y-74442705D01*
X86635745Y-74306316D01*
X86637691Y-74307046D01*
X86667545Y-74254795D01*
X86730503Y-74221979D01*
X86801207Y-74228409D01*
X86844000Y-74256498D01*
X86989700Y-74402198D01*
X86994208Y-74405355D01*
X86994211Y-74405357D01*
X87035542Y-74434297D01*
X87177251Y-74533523D01*
X87182233Y-74535846D01*
X87182238Y-74535849D01*
X87379775Y-74627961D01*
X87384757Y-74630284D01*
X87390065Y-74631706D01*
X87390067Y-74631707D01*
X87600598Y-74688119D01*
X87600600Y-74688119D01*
X87605913Y-74689543D01*
X87834000Y-74709498D01*
X88062087Y-74689543D01*
X88067400Y-74688119D01*
X88067402Y-74688119D01*
X88277933Y-74631707D01*
X88277935Y-74631706D01*
X88283243Y-74630284D01*
X88288225Y-74627961D01*
X88485762Y-74535849D01*
X88485767Y-74535846D01*
X88490749Y-74533523D01*
X88632458Y-74434297D01*
X88673789Y-74405357D01*
X88673792Y-74405355D01*
X88678300Y-74402198D01*
X88840198Y-74240300D01*
X88843357Y-74235789D01*
X88950181Y-74083229D01*
X89005638Y-74038901D01*
X89053394Y-74029500D01*
X89337406Y-74029500D01*
X89405527Y-74049502D01*
X89426501Y-74066405D01*
X96399343Y-81039247D01*
X96406887Y-81047537D01*
X96411000Y-81054018D01*
X96416777Y-81059443D01*
X96460667Y-81100658D01*
X96463509Y-81103413D01*
X96483231Y-81123135D01*
X96486355Y-81125558D01*
X96486359Y-81125562D01*
X96486424Y-81125612D01*
X96495445Y-81133317D01*
X96527679Y-81163586D01*
X96534627Y-81167405D01*
X96534629Y-81167407D01*
X96545432Y-81173346D01*
X96561959Y-81184202D01*
X96571698Y-81191757D01*
X96571700Y-81191758D01*
X96577960Y-81196614D01*
X96618540Y-81214174D01*
X96629188Y-81219391D01*
X96667940Y-81240695D01*
X96675616Y-81242666D01*
X96675619Y-81242667D01*
X96687562Y-81245733D01*
X96706267Y-81252137D01*
X96724855Y-81260181D01*
X96732678Y-81261420D01*
X96732688Y-81261423D01*
X96768524Y-81267099D01*
X96780144Y-81269505D01*
X96815289Y-81278528D01*
X96822970Y-81280500D01*
X96843224Y-81280500D01*
X96862934Y-81282051D01*
X96882943Y-81285220D01*
X96890835Y-81284474D01*
X96926961Y-81281059D01*
X96938819Y-81280500D01*
X99991500Y-81280500D01*
X100059621Y-81300502D01*
X100106114Y-81354158D01*
X100117500Y-81406500D01*
X100117500Y-82169500D01*
X100097498Y-82237621D01*
X100043842Y-82284114D01*
X99991500Y-82295500D01*
X22351500Y-82295500D01*
X22283379Y-82275498D01*
X22236886Y-82221842D01*
X22225500Y-82169500D01*
X22225500Y-78872703D01*
X23544743Y-78872703D01*
X23545302Y-78876947D01*
X23545302Y-78876951D01*
X23557501Y-78969607D01*
X23582268Y-79157734D01*
X23658129Y-79435036D01*
X23659813Y-79438984D01*
X23733599Y-79611971D01*
X23770923Y-79699476D01*
X23918561Y-79946161D01*
X24098313Y-80170528D01*
X24306851Y-80368423D01*
X24540317Y-80536186D01*
X24544112Y-80538195D01*
X24544113Y-80538196D01*
X24565869Y-80549715D01*
X24794392Y-80670712D01*
X25064373Y-80769511D01*
X25345264Y-80830755D01*
X25373841Y-80833004D01*
X25568282Y-80848307D01*
X25568291Y-80848307D01*
X25570739Y-80848500D01*
X25726271Y-80848500D01*
X25728407Y-80848354D01*
X25728418Y-80848354D01*
X25936548Y-80834165D01*
X25936554Y-80834164D01*
X25940825Y-80833873D01*
X25945020Y-80833004D01*
X25945022Y-80833004D01*
X26081583Y-80804724D01*
X26222342Y-80775574D01*
X26493343Y-80679607D01*
X26748812Y-80547750D01*
X26752313Y-80545289D01*
X26752317Y-80545287D01*
X26965655Y-80395350D01*
X26984023Y-80382441D01*
X27151166Y-80227122D01*
X27191479Y-80189661D01*
X27191481Y-80189658D01*
X27194622Y-80186740D01*
X27376713Y-79964268D01*
X27526927Y-79719142D01*
X27604194Y-79543124D01*
X27640757Y-79459830D01*
X27642483Y-79455898D01*
X27721244Y-79179406D01*
X27761751Y-78894784D01*
X27761845Y-78876951D01*
X27763235Y-78611583D01*
X27763235Y-78611576D01*
X27763257Y-78607297D01*
X27762564Y-78602029D01*
X27726292Y-78326522D01*
X27725732Y-78322266D01*
X27649871Y-78044964D01*
X27591114Y-77907211D01*
X27538763Y-77784476D01*
X27538761Y-77784472D01*
X27537077Y-77780524D01*
X27447665Y-77631128D01*
X27391643Y-77537521D01*
X27391640Y-77537517D01*
X27389439Y-77533839D01*
X27209687Y-77309472D01*
X27066252Y-77173357D01*
X27004258Y-77114527D01*
X27004255Y-77114525D01*
X27001149Y-77111577D01*
X26767683Y-76943814D01*
X26745843Y-76932250D01*
X26645346Y-76879040D01*
X26513608Y-76809288D01*
X26378617Y-76759888D01*
X26247658Y-76711964D01*
X26247656Y-76711963D01*
X26243627Y-76710489D01*
X25962736Y-76649245D01*
X25928645Y-76646562D01*
X25739718Y-76631693D01*
X25739709Y-76631693D01*
X25737261Y-76631500D01*
X25581729Y-76631500D01*
X25579593Y-76631646D01*
X25579582Y-76631646D01*
X25371452Y-76645835D01*
X25371446Y-76645836D01*
X25367175Y-76646127D01*
X25362980Y-76646996D01*
X25362978Y-76646996D01*
X25226417Y-76675276D01*
X25085658Y-76704426D01*
X24814657Y-76800393D01*
X24559188Y-76932250D01*
X24555687Y-76934711D01*
X24555683Y-76934713D01*
X24491241Y-76980004D01*
X24323977Y-77097559D01*
X24259331Y-77157632D01*
X24123241Y-77284095D01*
X24113378Y-77293260D01*
X23931287Y-77515732D01*
X23781073Y-77760858D01*
X23779347Y-77764791D01*
X23779346Y-77764792D01*
X23715456Y-77910338D01*
X23665517Y-78024102D01*
X23586756Y-78300594D01*
X23564796Y-78454897D01*
X23548435Y-78569859D01*
X23546249Y-78585216D01*
X23546227Y-78589505D01*
X23546226Y-78589512D01*
X23544856Y-78851086D01*
X23544743Y-78872703D01*
X22225500Y-78872703D01*
X22225500Y-74449633D01*
X41997128Y-74449633D01*
X41997223Y-74453263D01*
X41997223Y-74453264D01*
X42003933Y-74709498D01*
X42005606Y-74773408D01*
X42051242Y-75094061D01*
X42133431Y-75407345D01*
X42251082Y-75709106D01*
X42402638Y-75995345D01*
X42404695Y-75998338D01*
X42584032Y-76259275D01*
X42584038Y-76259282D01*
X42586089Y-76262267D01*
X42588477Y-76265004D01*
X42787750Y-76493435D01*
X42799003Y-76506335D01*
X43038558Y-76724314D01*
X43041500Y-76726428D01*
X43298629Y-76911194D01*
X43298635Y-76911198D01*
X43301580Y-76913314D01*
X43584582Y-77070831D01*
X43883813Y-77194776D01*
X44195306Y-77283508D01*
X44415450Y-77319558D01*
X44511354Y-77335263D01*
X44511358Y-77335263D01*
X44514934Y-77335849D01*
X44518560Y-77336020D01*
X44834833Y-77350935D01*
X44834834Y-77350935D01*
X44838460Y-77351106D01*
X44854962Y-77349981D01*
X45157964Y-77329325D01*
X45157972Y-77329324D01*
X45161595Y-77329077D01*
X45165170Y-77328414D01*
X45165173Y-77328414D01*
X45476492Y-77270714D01*
X45476496Y-77270713D01*
X45480057Y-77270053D01*
X45789624Y-77174818D01*
X45828775Y-77157632D01*
X45899190Y-77148567D01*
X45963328Y-77179010D01*
X46000826Y-77239296D01*
X45999778Y-77310285D01*
X45993707Y-77326056D01*
X45984776Y-77345296D01*
X45984773Y-77345303D01*
X45982602Y-77349981D01*
X45920707Y-77573169D01*
X45896095Y-77803469D01*
X45896392Y-77808622D01*
X45896392Y-77808625D01*
X45901592Y-77898803D01*
X45909427Y-78034697D01*
X45910564Y-78039743D01*
X45910565Y-78039749D01*
X45931228Y-78131436D01*
X45960346Y-78260642D01*
X45962288Y-78265424D01*
X45962289Y-78265428D01*
X46032003Y-78437112D01*
X46047484Y-78475237D01*
X46168501Y-78672719D01*
X46320147Y-78847784D01*
X46498349Y-78995730D01*
X46698322Y-79112584D01*
X46914694Y-79195209D01*
X46919760Y-79196240D01*
X46919761Y-79196240D01*
X46972846Y-79207040D01*
X47141656Y-79241385D01*
X47272324Y-79246176D01*
X47367949Y-79249683D01*
X47367953Y-79249683D01*
X47373113Y-79249872D01*
X47378233Y-79249216D01*
X47378235Y-79249216D01*
X47451291Y-79239857D01*
X47602847Y-79220442D01*
X47607795Y-79218957D01*
X47607802Y-79218956D01*
X47819747Y-79155369D01*
X47824690Y-79153886D01*
X47906161Y-79113974D01*
X48028049Y-79054262D01*
X48028052Y-79054260D01*
X48032684Y-79051991D01*
X48221243Y-78917494D01*
X48385303Y-78754005D01*
X48454370Y-78657888D01*
X48510365Y-78614240D01*
X48581068Y-78607794D01*
X48644033Y-78640597D01*
X48664128Y-78665584D01*
X48665799Y-78668311D01*
X48665804Y-78668317D01*
X48668501Y-78672719D01*
X48820147Y-78847784D01*
X48998349Y-78995730D01*
X49198322Y-79112584D01*
X49414694Y-79195209D01*
X49419760Y-79196240D01*
X49419761Y-79196240D01*
X49472846Y-79207040D01*
X49641656Y-79241385D01*
X49772324Y-79246176D01*
X49867949Y-79249683D01*
X49867953Y-79249683D01*
X49873113Y-79249872D01*
X49878233Y-79249216D01*
X49878235Y-79249216D01*
X49951291Y-79239857D01*
X50102847Y-79220442D01*
X50107795Y-79218957D01*
X50107802Y-79218956D01*
X50319747Y-79155369D01*
X50324690Y-79153886D01*
X50406161Y-79113974D01*
X50528049Y-79054262D01*
X50528052Y-79054260D01*
X50532684Y-79051991D01*
X50606406Y-78999406D01*
X51512423Y-78999406D01*
X51517704Y-79006461D01*
X51694080Y-79109527D01*
X51703363Y-79113974D01*
X51910003Y-79192883D01*
X51919901Y-79195759D01*
X52136653Y-79239857D01*
X52146883Y-79241076D01*
X52367914Y-79249182D01*
X52378223Y-79248714D01*
X52597623Y-79220608D01*
X52607688Y-79218468D01*
X52819557Y-79154905D01*
X52829152Y-79151144D01*
X53027778Y-79053838D01*
X53036636Y-79048559D01*
X53094097Y-79007572D01*
X53102497Y-78996874D01*
X53095510Y-78983721D01*
X52321811Y-78210021D01*
X52307868Y-78202408D01*
X52306034Y-78202539D01*
X52299420Y-78206790D01*
X51519180Y-78987031D01*
X51512423Y-78999406D01*
X50606406Y-78999406D01*
X50721243Y-78917494D01*
X50885303Y-78754005D01*
X50959714Y-78650451D01*
X51015709Y-78606803D01*
X51086412Y-78600357D01*
X51146572Y-78630543D01*
X51149555Y-78633242D01*
X51158330Y-78629459D01*
X51936979Y-77850811D01*
X51944592Y-77836868D01*
X51944461Y-77835034D01*
X51940210Y-77828420D01*
X51162862Y-77051073D01*
X51151331Y-77044776D01*
X51141877Y-77052183D01*
X51075918Y-77078450D01*
X51006229Y-77064887D01*
X50958377Y-77021440D01*
X50931571Y-76980004D01*
X50928764Y-76975665D01*
X50916446Y-76962127D01*
X50844499Y-76883059D01*
X50772887Y-76804358D01*
X50768836Y-76801159D01*
X50768832Y-76801155D01*
X50613790Y-76678711D01*
X51514508Y-76678711D01*
X51521251Y-76691040D01*
X52309000Y-77478790D01*
X53455304Y-78625093D01*
X53467314Y-78631651D01*
X53479052Y-78622683D01*
X53517010Y-78569859D01*
X53522321Y-78561020D01*
X53620318Y-78362737D01*
X53624117Y-78353142D01*
X53688415Y-78141517D01*
X53690594Y-78131436D01*
X53719702Y-77910338D01*
X53720221Y-77903663D01*
X53721744Y-77841364D01*
X53721550Y-77834646D01*
X53703279Y-77612400D01*
X53701596Y-77602238D01*
X53647710Y-77387708D01*
X53644393Y-77377964D01*
X53619005Y-77319576D01*
X53610185Y-77249129D01*
X53640852Y-77185097D01*
X53701268Y-77147809D01*
X53772253Y-77149105D01*
X53782772Y-77152924D01*
X53883813Y-77194776D01*
X54195306Y-77283508D01*
X54415450Y-77319558D01*
X54511354Y-77335263D01*
X54511358Y-77335263D01*
X54514934Y-77335849D01*
X54518560Y-77336020D01*
X54834833Y-77350935D01*
X54834834Y-77350935D01*
X54838460Y-77351106D01*
X54854962Y-77349981D01*
X55157964Y-77329325D01*
X55157972Y-77329324D01*
X55161595Y-77329077D01*
X55165170Y-77328414D01*
X55165173Y-77328414D01*
X55476492Y-77270714D01*
X55476496Y-77270713D01*
X55480057Y-77270053D01*
X55789624Y-77174818D01*
X56086193Y-77044633D01*
X56095676Y-77039092D01*
X56196792Y-76980004D01*
X56365834Y-76881224D01*
X56368743Y-76879040D01*
X56621933Y-76688940D01*
X56621937Y-76688937D01*
X56624840Y-76686757D01*
X56859778Y-76463809D01*
X57067534Y-76215336D01*
X57210075Y-75998339D01*
X57243368Y-75947656D01*
X57243373Y-75947647D01*
X57245355Y-75944630D01*
X57390882Y-75655280D01*
X57424581Y-75563194D01*
X57500941Y-75354533D01*
X57500942Y-75354529D01*
X57502189Y-75351122D01*
X57577798Y-75036185D01*
X57596910Y-74878252D01*
X57616373Y-74717425D01*
X57616374Y-74717418D01*
X57616709Y-74714646D01*
X57617040Y-74704131D01*
X57621592Y-74559261D01*
X57622260Y-74538000D01*
X57620140Y-74501225D01*
X57603825Y-74218272D01*
X57603824Y-74218267D01*
X57603616Y-74214652D01*
X57566382Y-74001309D01*
X57548555Y-73899163D01*
X57548553Y-73899156D01*
X57547931Y-73895590D01*
X57544000Y-73882317D01*
X57500122Y-73734190D01*
X57455942Y-73585042D01*
X57422145Y-73505806D01*
X57330294Y-73290464D01*
X57330292Y-73290461D01*
X57328870Y-73287126D01*
X57295885Y-73229296D01*
X57170189Y-73008929D01*
X57168398Y-73005789D01*
X57160671Y-72995269D01*
X56978794Y-72747674D01*
X56978792Y-72747672D01*
X56976654Y-72744761D01*
X56866417Y-72626131D01*
X56758638Y-72510147D01*
X56758636Y-72510145D01*
X56756179Y-72507501D01*
X56509895Y-72297154D01*
X56506892Y-72295136D01*
X56506884Y-72295130D01*
X56308341Y-72161716D01*
X56241066Y-72116509D01*
X55953256Y-71967959D01*
X55650279Y-71853474D01*
X55646758Y-71852590D01*
X55646753Y-71852588D01*
X55339668Y-71775454D01*
X55339665Y-71775454D01*
X55336152Y-71774571D01*
X55197388Y-71756302D01*
X55018640Y-71732769D01*
X55018636Y-71732769D01*
X55015038Y-71732295D01*
X54899192Y-71730475D01*
X54694835Y-71727265D01*
X54694831Y-71727265D01*
X54691193Y-71727208D01*
X54687579Y-71727569D01*
X54687573Y-71727569D01*
X54460102Y-71750274D01*
X54368909Y-71759376D01*
X54052459Y-71828373D01*
X54049032Y-71829546D01*
X54049026Y-71829548D01*
X53749467Y-71932110D01*
X53749462Y-71932112D01*
X53746036Y-71933285D01*
X53742768Y-71934844D01*
X53742760Y-71934847D01*
X53632055Y-71987651D01*
X53453702Y-72072721D01*
X53179331Y-72244834D01*
X53176497Y-72247104D01*
X53176492Y-72247108D01*
X53057912Y-72342109D01*
X52926562Y-72447340D01*
X52698743Y-72677558D01*
X52498894Y-72932434D01*
X52329664Y-73208592D01*
X52328139Y-73211877D01*
X52328137Y-73211881D01*
X52225348Y-73433322D01*
X52193297Y-73502370D01*
X52091600Y-73809875D01*
X52090864Y-73813430D01*
X52090863Y-73813433D01*
X52041975Y-74049502D01*
X52025920Y-74127030D01*
X52014517Y-74254795D01*
X52001080Y-74405357D01*
X51997128Y-74449633D01*
X51997223Y-74453263D01*
X51997223Y-74453264D01*
X52003933Y-74709498D01*
X52005606Y-74773408D01*
X52051242Y-75094061D01*
X52133431Y-75407345D01*
X52251082Y-75709106D01*
X52402638Y-75995345D01*
X52404690Y-75998330D01*
X52404695Y-75998339D01*
X52568079Y-76236063D01*
X52590179Y-76303532D01*
X52572294Y-76372239D01*
X52520102Y-76420370D01*
X52452246Y-76432279D01*
X52452193Y-76432837D01*
X52436796Y-76431381D01*
X52215616Y-76428679D01*
X52205332Y-76429399D01*
X51986693Y-76462855D01*
X51976666Y-76465244D01*
X51766426Y-76533961D01*
X51756916Y-76537958D01*
X51560725Y-76640089D01*
X51552007Y-76645578D01*
X51522961Y-76667386D01*
X51514508Y-76678711D01*
X50613790Y-76678711D01*
X50595177Y-76664011D01*
X50595172Y-76664008D01*
X50591123Y-76660810D01*
X50586607Y-76658317D01*
X50586604Y-76658315D01*
X50392879Y-76551373D01*
X50392875Y-76551371D01*
X50388355Y-76548876D01*
X50383486Y-76547152D01*
X50383482Y-76547150D01*
X50174903Y-76473288D01*
X50174899Y-76473287D01*
X50170028Y-76471562D01*
X50164935Y-76470655D01*
X50164932Y-76470654D01*
X49947095Y-76431851D01*
X49947089Y-76431850D01*
X49942006Y-76430945D01*
X49869096Y-76430054D01*
X49715581Y-76428179D01*
X49715579Y-76428179D01*
X49710411Y-76428116D01*
X49481464Y-76463150D01*
X49261314Y-76535106D01*
X49256726Y-76537494D01*
X49256722Y-76537496D01*
X49060461Y-76639663D01*
X49055872Y-76642052D01*
X49051739Y-76645155D01*
X49051736Y-76645157D01*
X48874790Y-76778012D01*
X48870655Y-76781117D01*
X48851506Y-76801155D01*
X48716247Y-76942696D01*
X48710639Y-76948564D01*
X48663836Y-77017174D01*
X48608927Y-77062175D01*
X48538402Y-77070346D01*
X48474655Y-77039092D01*
X48453959Y-77014609D01*
X48431577Y-76980013D01*
X48431576Y-76980012D01*
X48428764Y-76975665D01*
X48416446Y-76962127D01*
X48344499Y-76883059D01*
X48272887Y-76804358D01*
X48268836Y-76801159D01*
X48268832Y-76801155D01*
X48095178Y-76664012D01*
X48095175Y-76664010D01*
X48091123Y-76660810D01*
X48084019Y-76656888D01*
X48007607Y-76614707D01*
X47957636Y-76564274D01*
X47942500Y-76504398D01*
X47942500Y-76500394D01*
X47962502Y-76432273D01*
X47979405Y-76411299D01*
X49058647Y-75332057D01*
X49066937Y-75324513D01*
X49073418Y-75320400D01*
X49120059Y-75270732D01*
X49122813Y-75267891D01*
X49142534Y-75248170D01*
X49145012Y-75244975D01*
X49152718Y-75235953D01*
X49177558Y-75209501D01*
X49182986Y-75203721D01*
X49190608Y-75189856D01*
X49192746Y-75185968D01*
X49203599Y-75169445D01*
X49211153Y-75159706D01*
X49216013Y-75153441D01*
X49233576Y-75112857D01*
X49238783Y-75102227D01*
X49260095Y-75063460D01*
X49262066Y-75055783D01*
X49262068Y-75055778D01*
X49265132Y-75043842D01*
X49271538Y-75025130D01*
X49276434Y-75013817D01*
X49279581Y-75006545D01*
X49286497Y-74962881D01*
X49288904Y-74951260D01*
X49297928Y-74916111D01*
X49297928Y-74916110D01*
X49299900Y-74908430D01*
X49299900Y-74888169D01*
X49301451Y-74868458D01*
X49303379Y-74856285D01*
X49304619Y-74848457D01*
X49300459Y-74804446D01*
X49299900Y-74792589D01*
X49299900Y-64796743D01*
X49319902Y-64728622D01*
X49353629Y-64693530D01*
X49506189Y-64586706D01*
X49506192Y-64586704D01*
X49510700Y-64583547D01*
X49672598Y-64421649D01*
X49803923Y-64234098D01*
X49806246Y-64229116D01*
X49806249Y-64229111D01*
X49898361Y-64031574D01*
X49898361Y-64031573D01*
X49900684Y-64026592D01*
X49905511Y-64008580D01*
X49958519Y-63810751D01*
X49958519Y-63810749D01*
X49959943Y-63805436D01*
X49979898Y-63577349D01*
X49959943Y-63349262D01*
X49900684Y-63128106D01*
X49862293Y-63045775D01*
X49806249Y-62925587D01*
X49806246Y-62925582D01*
X49803923Y-62920600D01*
X49672598Y-62733049D01*
X49526898Y-62587349D01*
X49492872Y-62525037D01*
X49497937Y-62454222D01*
X49540484Y-62397386D01*
X49577137Y-62380217D01*
X49576716Y-62379094D01*
X49704697Y-62331116D01*
X49713105Y-62327964D01*
X49829661Y-62240610D01*
X49917015Y-62124054D01*
X49968145Y-61987665D01*
X49974900Y-61925483D01*
X49974900Y-60716943D01*
X49994902Y-60648822D01*
X50011805Y-60627848D01*
X50812648Y-59827005D01*
X50874960Y-59792979D01*
X50901743Y-59790100D01*
X52894618Y-59790100D01*
X52962739Y-59810102D01*
X53009232Y-59863758D01*
X53012599Y-59871869D01*
X53021231Y-59894893D01*
X53024385Y-59903305D01*
X53111739Y-60019861D01*
X53228295Y-60107215D01*
X53364684Y-60158345D01*
X53426866Y-60165100D01*
X54523134Y-60165100D01*
X54585316Y-60158345D01*
X54721705Y-60107215D01*
X54838261Y-60019861D01*
X54925615Y-59903305D01*
X54976745Y-59766916D01*
X54983500Y-59704734D01*
X54983500Y-58608466D01*
X54976745Y-58546284D01*
X54925615Y-58409895D01*
X54838261Y-58293339D01*
X54721705Y-58205985D01*
X54585316Y-58154855D01*
X54523134Y-58148100D01*
X53426866Y-58148100D01*
X53364684Y-58154855D01*
X53228295Y-58205985D01*
X53111739Y-58293339D01*
X53024385Y-58409895D01*
X53021233Y-58418303D01*
X53021231Y-58418307D01*
X53012599Y-58441331D01*
X52969957Y-58498095D01*
X52903395Y-58522794D01*
X52894618Y-58523100D01*
X50665916Y-58523100D01*
X50654733Y-58522573D01*
X50647240Y-58520898D01*
X50639314Y-58521147D01*
X50639313Y-58521147D01*
X50579163Y-58523038D01*
X50575204Y-58523100D01*
X50547293Y-58523100D01*
X50543359Y-58523597D01*
X50543358Y-58523597D01*
X50543293Y-58523605D01*
X50531456Y-58524538D01*
X50499639Y-58525538D01*
X50495178Y-58525678D01*
X50487259Y-58525927D01*
X50469603Y-58531056D01*
X50467807Y-58531578D01*
X50448455Y-58535586D01*
X50441384Y-58536480D01*
X50428352Y-58538126D01*
X50420983Y-58541043D01*
X50420981Y-58541044D01*
X50387246Y-58554400D01*
X50376018Y-58558245D01*
X50333556Y-58570582D01*
X50326734Y-58574616D01*
X50326728Y-58574619D01*
X50316117Y-58580894D01*
X50298367Y-58589590D01*
X50286905Y-58594128D01*
X50286900Y-58594131D01*
X50279532Y-58597048D01*
X50273117Y-58601709D01*
X50243774Y-58623027D01*
X50233856Y-58629543D01*
X50215168Y-58640595D01*
X50195786Y-58652058D01*
X50181462Y-58666382D01*
X50166430Y-58679221D01*
X50150042Y-58691128D01*
X50121861Y-58725193D01*
X50113871Y-58733973D01*
X49514995Y-59332849D01*
X49452683Y-59366875D01*
X49381868Y-59361810D01*
X49325032Y-59319263D01*
X49300221Y-59252743D01*
X49299900Y-59243754D01*
X49299900Y-53613188D01*
X49319902Y-53545067D01*
X49336805Y-53524093D01*
X49428598Y-53432300D01*
X49559923Y-53244749D01*
X49562246Y-53239767D01*
X49562249Y-53239762D01*
X49654361Y-53042225D01*
X49654361Y-53042224D01*
X49656684Y-53037243D01*
X49708148Y-52845180D01*
X49714519Y-52821402D01*
X49714519Y-52821400D01*
X49715943Y-52816087D01*
X49735898Y-52588000D01*
X54728902Y-52588000D01*
X54748857Y-52816087D01*
X54750281Y-52821400D01*
X54750281Y-52821402D01*
X54756653Y-52845180D01*
X54808116Y-53037243D01*
X54810439Y-53042224D01*
X54810439Y-53042225D01*
X54902551Y-53239762D01*
X54902554Y-53239767D01*
X54904877Y-53244749D01*
X55036202Y-53432300D01*
X55198100Y-53594198D01*
X55202608Y-53597355D01*
X55202611Y-53597357D01*
X55225220Y-53613188D01*
X55385651Y-53725523D01*
X55390633Y-53727846D01*
X55390638Y-53727849D01*
X55580150Y-53816219D01*
X55593157Y-53822284D01*
X55598465Y-53823706D01*
X55598467Y-53823707D01*
X55808998Y-53880119D01*
X55809000Y-53880119D01*
X55814313Y-53881543D01*
X56042400Y-53901498D01*
X56270487Y-53881543D01*
X56275800Y-53880119D01*
X56275802Y-53880119D01*
X56486333Y-53823707D01*
X56486335Y-53823706D01*
X56491643Y-53822284D01*
X56504650Y-53816219D01*
X56694162Y-53727849D01*
X56694167Y-53727846D01*
X56699149Y-53725523D01*
X56859580Y-53613188D01*
X56882189Y-53597357D01*
X56882192Y-53597355D01*
X56886700Y-53594198D01*
X57048598Y-53432300D01*
X57179923Y-53244749D01*
X57182246Y-53239767D01*
X57182249Y-53239762D01*
X57274361Y-53042225D01*
X57274361Y-53042224D01*
X57276684Y-53037243D01*
X57328148Y-52845180D01*
X57334519Y-52821402D01*
X57334519Y-52821400D01*
X57335943Y-52816087D01*
X57355898Y-52588000D01*
X57335943Y-52359913D01*
X57329826Y-52337085D01*
X57278107Y-52144067D01*
X57278106Y-52144065D01*
X57276684Y-52138757D01*
X57255607Y-52093556D01*
X57182249Y-51936238D01*
X57182246Y-51936233D01*
X57179923Y-51931251D01*
X57048598Y-51743700D01*
X56886700Y-51581802D01*
X56882192Y-51578645D01*
X56882189Y-51578643D01*
X56721685Y-51466257D01*
X56699149Y-51450477D01*
X56694167Y-51448154D01*
X56694162Y-51448151D01*
X56659943Y-51432195D01*
X56606658Y-51385278D01*
X56587197Y-51317001D01*
X56607739Y-51249041D01*
X56659943Y-51203805D01*
X56694162Y-51187849D01*
X56694167Y-51187846D01*
X56699149Y-51185523D01*
X56810829Y-51107324D01*
X111122483Y-51107324D01*
X111141472Y-51324368D01*
X111143375Y-51335161D01*
X111199764Y-51545610D01*
X111203510Y-51555902D01*
X111295586Y-51753360D01*
X111301069Y-51762855D01*
X111337509Y-51814897D01*
X111347988Y-51823273D01*
X111361434Y-51816205D01*
X112062978Y-51114661D01*
X112069356Y-51102981D01*
X112799408Y-51102981D01*
X112799539Y-51104814D01*
X112803790Y-51111429D01*
X113509287Y-51816926D01*
X113521062Y-51823356D01*
X113533077Y-51814060D01*
X113568931Y-51762855D01*
X113574414Y-51753360D01*
X113666490Y-51555902D01*
X113670236Y-51545610D01*
X113726625Y-51335161D01*
X113728528Y-51324368D01*
X113747517Y-51107324D01*
X113747517Y-51096374D01*
X113728528Y-50879330D01*
X113726625Y-50868537D01*
X113670236Y-50658088D01*
X113666490Y-50647796D01*
X113574414Y-50450338D01*
X113568931Y-50440843D01*
X113532491Y-50388801D01*
X113522012Y-50380425D01*
X113508566Y-50387493D01*
X112807022Y-51089037D01*
X112799408Y-51102981D01*
X112069356Y-51102981D01*
X112070592Y-51100717D01*
X112070461Y-51098884D01*
X112066210Y-51092269D01*
X111360713Y-50386772D01*
X111348938Y-50380342D01*
X111336923Y-50389638D01*
X111301069Y-50440843D01*
X111295586Y-50450338D01*
X111203510Y-50647796D01*
X111199764Y-50658088D01*
X111143375Y-50868537D01*
X111141472Y-50879330D01*
X111122483Y-51096374D01*
X111122483Y-51107324D01*
X56810829Y-51107324D01*
X56836945Y-51089037D01*
X56882189Y-51057357D01*
X56882192Y-51057355D01*
X56886700Y-51054198D01*
X57048598Y-50892300D01*
X57065237Y-50868537D01*
X57158581Y-50735229D01*
X57214038Y-50690901D01*
X57261794Y-50681500D01*
X59501080Y-50681500D01*
X59569201Y-50701502D01*
X59600879Y-50735483D01*
X59602985Y-50733905D01*
X59690339Y-50850461D01*
X59806895Y-50937815D01*
X59943284Y-50988945D01*
X60005466Y-50995700D01*
X61101734Y-50995700D01*
X61163916Y-50988945D01*
X61300305Y-50937815D01*
X61416861Y-50850461D01*
X61504215Y-50733905D01*
X61555345Y-50597516D01*
X61562100Y-50535334D01*
X61562100Y-49739134D01*
X101274500Y-49739134D01*
X101281255Y-49801316D01*
X101332385Y-49937705D01*
X101419739Y-50054261D01*
X101536295Y-50141615D01*
X101555368Y-50148765D01*
X101556683Y-50149258D01*
X101613447Y-50191901D01*
X101638146Y-50258462D01*
X101622938Y-50327811D01*
X101611334Y-50345332D01*
X101518055Y-50463444D01*
X101512350Y-50472031D01*
X101401286Y-50673222D01*
X101397056Y-50682634D01*
X101320341Y-50899268D01*
X101317707Y-50909239D01*
X101300353Y-51006663D01*
X101301813Y-51019960D01*
X101316370Y-51024500D01*
X104251096Y-51024500D01*
X104264440Y-51020582D01*
X104266427Y-51006306D01*
X104256890Y-50943985D01*
X104254501Y-50933957D01*
X104183102Y-50715512D01*
X104179105Y-50706003D01*
X104072989Y-50502156D01*
X104067500Y-50493439D01*
X103954098Y-50342401D01*
X103929193Y-50275916D01*
X103944186Y-50206520D01*
X103994316Y-50156247D01*
X104010625Y-50148768D01*
X104029705Y-50141615D01*
X104146261Y-50054261D01*
X104233615Y-49937705D01*
X104284745Y-49801316D01*
X104291500Y-49739134D01*
X104291500Y-49498000D01*
X104311502Y-49429879D01*
X104365158Y-49383386D01*
X104417500Y-49372000D01*
X111004975Y-49372000D01*
X111073096Y-49392002D01*
X111119589Y-49445658D01*
X111130238Y-49484393D01*
X111132401Y-49504309D01*
X111132402Y-49504313D01*
X111133255Y-49512165D01*
X111184385Y-49648554D01*
X111271739Y-49765110D01*
X111388295Y-49852464D01*
X111524684Y-49903594D01*
X111568252Y-49908327D01*
X111583486Y-49909982D01*
X111583489Y-49909982D01*
X111586866Y-49910349D01*
X111590185Y-49910349D01*
X111657110Y-49934002D01*
X111692804Y-49980005D01*
X111694734Y-49978990D01*
X111700442Y-49989849D01*
X111700632Y-49990094D01*
X111700653Y-49990252D01*
X111720644Y-50028283D01*
X112422188Y-50729827D01*
X112436132Y-50737441D01*
X112437965Y-50737310D01*
X112444580Y-50733059D01*
X113150077Y-50027562D01*
X113172871Y-49985820D01*
X113175047Y-49975820D01*
X113225253Y-49925622D01*
X113278814Y-49910398D01*
X113279719Y-49910349D01*
X113283134Y-49910349D01*
X113286530Y-49909980D01*
X113286532Y-49909980D01*
X113298879Y-49908639D01*
X113345316Y-49903594D01*
X113481705Y-49852464D01*
X113598261Y-49765110D01*
X113685615Y-49648554D01*
X113736745Y-49512165D01*
X113743500Y-49449983D01*
X113743500Y-47753715D01*
X113736745Y-47691533D01*
X113685615Y-47555144D01*
X113598261Y-47438588D01*
X113481705Y-47351234D01*
X113345316Y-47300104D01*
X113283134Y-47293349D01*
X112074595Y-47293349D01*
X112006474Y-47273347D01*
X111985500Y-47256444D01*
X111835405Y-47106349D01*
X111801379Y-47044037D01*
X111798500Y-47017254D01*
X111798500Y-43869000D01*
X111818502Y-43800879D01*
X111872158Y-43754386D01*
X111924500Y-43743000D01*
X112313134Y-43743000D01*
X112375316Y-43736245D01*
X112511705Y-43685115D01*
X112628261Y-43597761D01*
X112715615Y-43481205D01*
X112766745Y-43344816D01*
X112773500Y-43282634D01*
X112773500Y-40986366D01*
X112766745Y-40924184D01*
X112715615Y-40787795D01*
X112628261Y-40671239D01*
X112511705Y-40583885D01*
X112375316Y-40532755D01*
X112313134Y-40526000D01*
X110016866Y-40526000D01*
X109954684Y-40532755D01*
X109818295Y-40583885D01*
X109701739Y-40671239D01*
X109614385Y-40787795D01*
X109563255Y-40924184D01*
X109556500Y-40986366D01*
X109556500Y-43282634D01*
X109563255Y-43344816D01*
X109614385Y-43481205D01*
X109701739Y-43597761D01*
X109818295Y-43685115D01*
X109954684Y-43736245D01*
X110016866Y-43743000D01*
X110405500Y-43743000D01*
X110473621Y-43763002D01*
X110520114Y-43816658D01*
X110531500Y-43869000D01*
X110531500Y-47253082D01*
X110530973Y-47264265D01*
X110529298Y-47271758D01*
X110529547Y-47279684D01*
X110529547Y-47279685D01*
X110531438Y-47339835D01*
X110531500Y-47343794D01*
X110531500Y-47371705D01*
X110531997Y-47375639D01*
X110531997Y-47375640D01*
X110532005Y-47375705D01*
X110532938Y-47387542D01*
X110534327Y-47431738D01*
X110539978Y-47451188D01*
X110543987Y-47470549D01*
X110546526Y-47490646D01*
X110549445Y-47498017D01*
X110549445Y-47498019D01*
X110562804Y-47531761D01*
X110566649Y-47542991D01*
X110576771Y-47577832D01*
X110578982Y-47585442D01*
X110583015Y-47592261D01*
X110583017Y-47592266D01*
X110589293Y-47602877D01*
X110597988Y-47620625D01*
X110605448Y-47639466D01*
X110610110Y-47645882D01*
X110610110Y-47645883D01*
X110631436Y-47675236D01*
X110637952Y-47685156D01*
X110646370Y-47699389D01*
X110660458Y-47723211D01*
X110674779Y-47737532D01*
X110687619Y-47752565D01*
X110699528Y-47768956D01*
X110705634Y-47774007D01*
X110733605Y-47797147D01*
X110742384Y-47805137D01*
X110827152Y-47889905D01*
X110861178Y-47952217D01*
X110856113Y-48023032D01*
X110813566Y-48079868D01*
X110747046Y-48104679D01*
X110738057Y-48105000D01*
X104417500Y-48105000D01*
X104349379Y-48084998D01*
X104302886Y-48031342D01*
X104291500Y-47979000D01*
X104291500Y-47737866D01*
X104284745Y-47675684D01*
X104233615Y-47539295D01*
X104146261Y-47422739D01*
X104029705Y-47335385D01*
X103893316Y-47284255D01*
X103831134Y-47277500D01*
X101734866Y-47277500D01*
X101672684Y-47284255D01*
X101536295Y-47335385D01*
X101419739Y-47422739D01*
X101332385Y-47539295D01*
X101281255Y-47675684D01*
X101274500Y-47737866D01*
X101274500Y-49739134D01*
X61562100Y-49739134D01*
X61562100Y-49439066D01*
X61555345Y-49376884D01*
X61504215Y-49240495D01*
X61416861Y-49123939D01*
X61300305Y-49036585D01*
X61163916Y-48985455D01*
X61101734Y-48978700D01*
X60005466Y-48978700D01*
X59943284Y-48985455D01*
X59806895Y-49036585D01*
X59690339Y-49123939D01*
X59602985Y-49240495D01*
X59599833Y-49248903D01*
X59599832Y-49248905D01*
X59568408Y-49332729D01*
X59525767Y-49389494D01*
X59459205Y-49414194D01*
X59450426Y-49414500D01*
X57875994Y-49414500D01*
X57807873Y-49394498D01*
X57761380Y-49340842D01*
X57751276Y-49270568D01*
X57780770Y-49205988D01*
X57786899Y-49199405D01*
X64851804Y-42134500D01*
X99391526Y-42134500D01*
X99411391Y-42386903D01*
X99470495Y-42633091D01*
X99472388Y-42637662D01*
X99472389Y-42637664D01*
X99485951Y-42670404D01*
X99567384Y-42867002D01*
X99699672Y-43082876D01*
X99864102Y-43275398D01*
X100056624Y-43439828D01*
X100272498Y-43572116D01*
X100277068Y-43574009D01*
X100277072Y-43574011D01*
X100501836Y-43667111D01*
X100506409Y-43669005D01*
X100573513Y-43685115D01*
X100747784Y-43726954D01*
X100747790Y-43726955D01*
X100752597Y-43728109D01*
X101005000Y-43747974D01*
X101257403Y-43728109D01*
X101262210Y-43726955D01*
X101262216Y-43726954D01*
X101436487Y-43685115D01*
X101503591Y-43669005D01*
X101508164Y-43667111D01*
X101732928Y-43574011D01*
X101732932Y-43574009D01*
X101737502Y-43572116D01*
X101953376Y-43439828D01*
X102145898Y-43275398D01*
X102310328Y-43082876D01*
X102442616Y-42867002D01*
X102524050Y-42670404D01*
X102537611Y-42637664D01*
X102537612Y-42637662D01*
X102539505Y-42633091D01*
X102598609Y-42386903D01*
X102618474Y-42134500D01*
X102598609Y-41882097D01*
X102539505Y-41635909D01*
X102468213Y-41463795D01*
X102444511Y-41406572D01*
X102444509Y-41406568D01*
X102442616Y-41401998D01*
X102310328Y-41186124D01*
X102145898Y-40993602D01*
X101953376Y-40829172D01*
X101737502Y-40696884D01*
X101732925Y-40694988D01*
X101716280Y-40688093D01*
X101661000Y-40643544D01*
X101638500Y-40571685D01*
X101638500Y-40009869D01*
X113857201Y-40009869D01*
X113857571Y-40016690D01*
X113863095Y-40067552D01*
X113866721Y-40082804D01*
X113911876Y-40203254D01*
X113920414Y-40218849D01*
X113996915Y-40320924D01*
X114009476Y-40333485D01*
X114111551Y-40409986D01*
X114127146Y-40418524D01*
X114247594Y-40463678D01*
X114262849Y-40467305D01*
X114313714Y-40472831D01*
X114320528Y-40473200D01*
X114993085Y-40473200D01*
X115008324Y-40468725D01*
X115009529Y-40467335D01*
X115011200Y-40459652D01*
X115011200Y-40455084D01*
X115519200Y-40455084D01*
X115523675Y-40470323D01*
X115525065Y-40471528D01*
X115532748Y-40473199D01*
X116209869Y-40473199D01*
X116216690Y-40472829D01*
X116267552Y-40467305D01*
X116282804Y-40463679D01*
X116403254Y-40418524D01*
X116418849Y-40409986D01*
X116520924Y-40333485D01*
X116533485Y-40320924D01*
X116609986Y-40218849D01*
X116618524Y-40203254D01*
X116663678Y-40082806D01*
X116667305Y-40067551D01*
X116672831Y-40016686D01*
X116673200Y-40009872D01*
X116673200Y-39337315D01*
X116668725Y-39322076D01*
X116667335Y-39320871D01*
X116659652Y-39319200D01*
X115537315Y-39319200D01*
X115522076Y-39323675D01*
X115520871Y-39325065D01*
X115519200Y-39332748D01*
X115519200Y-40455084D01*
X115011200Y-40455084D01*
X115011200Y-39337315D01*
X115006725Y-39322076D01*
X115005335Y-39320871D01*
X114997652Y-39319200D01*
X113875316Y-39319200D01*
X113860077Y-39323675D01*
X113858872Y-39325065D01*
X113857201Y-39332748D01*
X113857201Y-40009869D01*
X101638500Y-40009869D01*
X101638500Y-39909094D01*
X101658502Y-39840973D01*
X101675405Y-39819999D01*
X102645499Y-38849905D01*
X102707811Y-38815879D01*
X102734594Y-38813000D01*
X104861354Y-38813000D01*
X104863679Y-38812827D01*
X104863685Y-38812827D01*
X105051000Y-38798907D01*
X105051004Y-38798906D01*
X105055652Y-38798561D01*
X105060200Y-38797532D01*
X105060206Y-38797531D01*
X105246601Y-38755353D01*
X105310577Y-38740877D01*
X105314931Y-38739184D01*
X105549824Y-38647840D01*
X105549827Y-38647839D01*
X105554177Y-38646147D01*
X105781098Y-38516451D01*
X105986357Y-38354638D01*
X106165443Y-38164263D01*
X106314424Y-37949509D01*
X106334190Y-37909428D01*
X106427960Y-37719281D01*
X106427961Y-37719278D01*
X106430025Y-37715093D01*
X106440321Y-37682930D01*
X106508280Y-37470623D01*
X106509707Y-37466165D01*
X106551721Y-37208193D01*
X106553718Y-37055638D01*
X106555081Y-36951522D01*
X106555081Y-36951519D01*
X106555142Y-36946845D01*
X106519896Y-36687862D01*
X106505473Y-36638377D01*
X106487347Y-36576191D01*
X106462420Y-36490669D01*
X113852295Y-36490669D01*
X113852592Y-36495822D01*
X113852592Y-36495825D01*
X113860878Y-36639534D01*
X113865627Y-36721897D01*
X113866764Y-36726943D01*
X113866765Y-36726949D01*
X113892862Y-36842747D01*
X113916546Y-36947842D01*
X113918488Y-36952624D01*
X113918489Y-36952628D01*
X113973447Y-37087973D01*
X114003684Y-37162437D01*
X114124701Y-37359919D01*
X114128082Y-37363822D01*
X114236853Y-37489391D01*
X114266335Y-37553976D01*
X114256220Y-37624249D01*
X114209719Y-37677897D01*
X114185846Y-37689870D01*
X114127144Y-37711877D01*
X114111551Y-37720414D01*
X114009476Y-37796915D01*
X113996915Y-37809476D01*
X113920414Y-37911551D01*
X113911876Y-37927146D01*
X113866722Y-38047594D01*
X113863095Y-38062849D01*
X113857569Y-38113714D01*
X113857200Y-38120528D01*
X113857200Y-38793085D01*
X113861675Y-38808324D01*
X113863065Y-38809529D01*
X113870748Y-38811200D01*
X116655084Y-38811200D01*
X116670323Y-38806725D01*
X116671528Y-38805335D01*
X116673199Y-38797652D01*
X116673199Y-38120531D01*
X116672829Y-38113710D01*
X116667305Y-38062848D01*
X116663679Y-38047596D01*
X116618524Y-37927146D01*
X116609986Y-37911551D01*
X116533485Y-37809476D01*
X116520924Y-37796915D01*
X116418849Y-37720414D01*
X116403252Y-37711875D01*
X116344615Y-37689893D01*
X116287850Y-37647252D01*
X116263150Y-37580690D01*
X116278357Y-37511341D01*
X116299903Y-37482661D01*
X116337841Y-37444854D01*
X116341503Y-37441205D01*
X116476658Y-37253117D01*
X116486340Y-37233528D01*
X116576984Y-37050122D01*
X116576985Y-37050120D01*
X116579278Y-37045480D01*
X116646608Y-36823871D01*
X116676840Y-36594241D01*
X116678234Y-36537181D01*
X116678445Y-36528565D01*
X116678445Y-36528561D01*
X116678527Y-36525200D01*
X116667733Y-36393907D01*
X116659973Y-36299518D01*
X116659972Y-36299512D01*
X116659549Y-36294367D01*
X116613513Y-36111088D01*
X116604384Y-36074744D01*
X116604383Y-36074740D01*
X116603125Y-36069733D01*
X116601066Y-36064997D01*
X116512830Y-35862068D01*
X116512828Y-35862065D01*
X116510770Y-35857331D01*
X116384964Y-35662865D01*
X116229087Y-35491558D01*
X116225036Y-35488359D01*
X116225032Y-35488355D01*
X116051377Y-35351211D01*
X116051372Y-35351208D01*
X116047323Y-35348010D01*
X116042807Y-35345517D01*
X116042804Y-35345515D01*
X115849079Y-35238573D01*
X115849075Y-35238571D01*
X115844555Y-35236076D01*
X115839686Y-35234352D01*
X115839682Y-35234350D01*
X115631103Y-35160488D01*
X115631099Y-35160487D01*
X115626228Y-35158762D01*
X115621135Y-35157855D01*
X115621132Y-35157854D01*
X115403295Y-35119051D01*
X115403289Y-35119050D01*
X115398206Y-35118145D01*
X115325296Y-35117254D01*
X115171781Y-35115379D01*
X115171779Y-35115379D01*
X115166611Y-35115316D01*
X114937664Y-35150350D01*
X114717514Y-35222306D01*
X114712926Y-35224694D01*
X114712922Y-35224696D01*
X114533958Y-35317859D01*
X114512072Y-35329252D01*
X114507939Y-35332355D01*
X114507936Y-35332357D01*
X114338651Y-35459460D01*
X114326855Y-35468317D01*
X114323283Y-35472055D01*
X114205373Y-35595441D01*
X114166839Y-35635764D01*
X114163925Y-35640036D01*
X114163924Y-35640037D01*
X114123041Y-35699969D01*
X114036319Y-35827099D01*
X113938802Y-36037181D01*
X113876907Y-36260369D01*
X113852295Y-36490669D01*
X106462420Y-36490669D01*
X106446757Y-36436933D01*
X106434291Y-36409891D01*
X106376411Y-36284341D01*
X106337332Y-36199572D01*
X106249101Y-36064997D01*
X106196590Y-35984904D01*
X106196586Y-35984899D01*
X106194024Y-35980991D01*
X106039265Y-35807599D01*
X106023097Y-35789484D01*
X106019982Y-35785994D01*
X105819030Y-35618863D01*
X105726766Y-35562876D01*
X105599578Y-35485696D01*
X105599574Y-35485694D01*
X105595581Y-35483271D01*
X105354545Y-35382197D01*
X105101217Y-35317859D01*
X105096566Y-35317391D01*
X105096562Y-35317390D01*
X104887271Y-35296316D01*
X104884133Y-35296000D01*
X102228646Y-35296000D01*
X102226321Y-35296173D01*
X102226315Y-35296173D01*
X102039000Y-35310093D01*
X102038996Y-35310094D01*
X102034348Y-35310439D01*
X102029800Y-35311468D01*
X102029794Y-35311469D01*
X101879335Y-35345515D01*
X101779423Y-35368123D01*
X101775071Y-35369815D01*
X101775069Y-35369816D01*
X101540176Y-35461160D01*
X101540173Y-35461161D01*
X101535823Y-35462853D01*
X101531769Y-35465170D01*
X101531767Y-35465171D01*
X101473956Y-35498213D01*
X101308902Y-35592549D01*
X101103643Y-35754362D01*
X100924557Y-35944737D01*
X100818884Y-36097063D01*
X100809155Y-36111088D01*
X100775576Y-36159491D01*
X100773510Y-36163681D01*
X100773508Y-36163684D01*
X100683022Y-36347173D01*
X100659975Y-36393907D01*
X100658553Y-36398350D01*
X100658552Y-36398352D01*
X100629001Y-36490669D01*
X100580293Y-36642835D01*
X100538279Y-36900807D01*
X100534858Y-37162155D01*
X100570104Y-37421138D01*
X100571412Y-37425624D01*
X100571412Y-37425626D01*
X100588036Y-37482661D01*
X100643243Y-37672067D01*
X100752668Y-37909428D01*
X100765228Y-37928585D01*
X100893410Y-38124096D01*
X100893414Y-38124101D01*
X100895976Y-38128009D01*
X101070018Y-38323006D01*
X101133389Y-38375711D01*
X101172973Y-38434648D01*
X101174409Y-38505630D01*
X101141915Y-38561680D01*
X100612747Y-39090848D01*
X100604461Y-39098388D01*
X100597982Y-39102500D01*
X100592557Y-39108277D01*
X100551357Y-39152151D01*
X100548602Y-39154993D01*
X100528865Y-39174730D01*
X100526385Y-39177927D01*
X100518682Y-39186947D01*
X100488414Y-39219179D01*
X100484595Y-39226125D01*
X100484593Y-39226128D01*
X100478652Y-39236934D01*
X100467801Y-39253453D01*
X100455386Y-39269459D01*
X100452241Y-39276728D01*
X100452238Y-39276732D01*
X100437826Y-39310037D01*
X100432609Y-39320687D01*
X100411305Y-39359440D01*
X100409334Y-39367115D01*
X100409334Y-39367116D01*
X100406267Y-39379062D01*
X100399863Y-39397766D01*
X100391819Y-39416355D01*
X100390580Y-39424178D01*
X100390577Y-39424188D01*
X100384901Y-39460024D01*
X100382495Y-39471644D01*
X100371500Y-39514470D01*
X100371500Y-39534724D01*
X100369949Y-39554434D01*
X100366780Y-39574443D01*
X100367526Y-39582335D01*
X100370941Y-39618461D01*
X100371500Y-39630319D01*
X100371500Y-40571685D01*
X100351498Y-40639806D01*
X100293720Y-40688093D01*
X100277075Y-40694988D01*
X100272498Y-40696884D01*
X100056624Y-40829172D01*
X99864102Y-40993602D01*
X99699672Y-41186124D01*
X99567384Y-41401998D01*
X99565491Y-41406568D01*
X99565489Y-41406572D01*
X99541787Y-41463795D01*
X99470495Y-41635909D01*
X99411391Y-41882097D01*
X99391526Y-42134500D01*
X64851804Y-42134500D01*
X71258247Y-35728057D01*
X71266537Y-35720513D01*
X71273018Y-35716400D01*
X71319659Y-35666732D01*
X71322413Y-35663891D01*
X71342134Y-35644170D01*
X71344612Y-35640975D01*
X71352318Y-35631953D01*
X71377158Y-35605501D01*
X71382586Y-35599721D01*
X71392346Y-35581968D01*
X71403199Y-35565445D01*
X71406126Y-35561671D01*
X71415613Y-35549441D01*
X71433176Y-35508857D01*
X71438383Y-35498227D01*
X71459695Y-35459460D01*
X71461666Y-35451783D01*
X71461668Y-35451778D01*
X71464732Y-35439842D01*
X71471138Y-35421130D01*
X71476033Y-35409819D01*
X71479181Y-35402545D01*
X71480421Y-35394717D01*
X71480423Y-35394710D01*
X71486099Y-35358876D01*
X71488505Y-35347256D01*
X71497528Y-35312111D01*
X71497528Y-35312110D01*
X71499500Y-35304430D01*
X71499500Y-35284176D01*
X71501051Y-35264465D01*
X71502980Y-35252286D01*
X71504220Y-35244457D01*
X71503912Y-35241198D01*
X97212000Y-35241198D01*
X97212193Y-35246124D01*
X97226729Y-35430813D01*
X97228272Y-35440560D01*
X97285967Y-35680873D01*
X97289016Y-35690258D01*
X97383592Y-35918585D01*
X97388073Y-35927379D01*
X97517208Y-36138108D01*
X97523001Y-36146081D01*
X97683516Y-36334020D01*
X97690480Y-36340984D01*
X97878419Y-36501499D01*
X97886392Y-36507292D01*
X98097121Y-36636427D01*
X98105915Y-36640908D01*
X98334242Y-36735484D01*
X98343627Y-36738533D01*
X98578608Y-36794947D01*
X98588029Y-36792969D01*
X98591000Y-36781502D01*
X98591000Y-36779445D01*
X99099000Y-36779445D01*
X99103344Y-36794238D01*
X99109681Y-36795358D01*
X99346373Y-36738533D01*
X99355758Y-36735484D01*
X99584085Y-36640908D01*
X99592879Y-36636427D01*
X99803608Y-36507292D01*
X99811581Y-36501499D01*
X99999520Y-36340984D01*
X100006484Y-36334020D01*
X100166999Y-36146081D01*
X100172792Y-36138108D01*
X100301927Y-35927379D01*
X100306408Y-35918585D01*
X100400984Y-35690258D01*
X100404033Y-35680873D01*
X100461728Y-35440560D01*
X100463271Y-35430813D01*
X100477807Y-35246124D01*
X100478000Y-35241198D01*
X100478000Y-34326615D01*
X100473525Y-34311376D01*
X100472135Y-34310171D01*
X100464452Y-34308500D01*
X99117115Y-34308500D01*
X99101876Y-34312975D01*
X99100671Y-34314365D01*
X99099000Y-34322048D01*
X99099000Y-36779445D01*
X98591000Y-36779445D01*
X98591000Y-34326615D01*
X98586525Y-34311376D01*
X98585135Y-34310171D01*
X98577452Y-34308500D01*
X97230115Y-34308500D01*
X97214876Y-34312975D01*
X97213671Y-34314365D01*
X97212000Y-34322048D01*
X97212000Y-35241198D01*
X71503912Y-35241198D01*
X71500059Y-35200438D01*
X71499500Y-35188581D01*
X71499500Y-33782385D01*
X97212000Y-33782385D01*
X97216475Y-33797624D01*
X97217865Y-33798829D01*
X97225548Y-33800500D01*
X98572885Y-33800500D01*
X98588124Y-33796025D01*
X98589329Y-33794635D01*
X98591000Y-33786952D01*
X98591000Y-33782385D01*
X99099000Y-33782385D01*
X99103475Y-33797624D01*
X99104865Y-33798829D01*
X99112548Y-33800500D01*
X100459885Y-33800500D01*
X100475124Y-33796025D01*
X100476329Y-33794635D01*
X100478000Y-33786952D01*
X100478000Y-32867803D01*
X100477807Y-32862876D01*
X100463271Y-32678187D01*
X100461728Y-32668440D01*
X100404033Y-32428127D01*
X100400984Y-32418742D01*
X100306408Y-32190415D01*
X100301927Y-32181621D01*
X100172792Y-31970892D01*
X100166999Y-31962919D01*
X100006484Y-31774980D01*
X99999520Y-31768016D01*
X99811581Y-31607501D01*
X99803608Y-31601708D01*
X99592879Y-31472573D01*
X99584085Y-31468092D01*
X99355758Y-31373516D01*
X99346373Y-31370467D01*
X99132752Y-31319181D01*
X100804142Y-31319181D01*
X100860967Y-31555873D01*
X100864016Y-31565258D01*
X100958592Y-31793585D01*
X100963073Y-31802379D01*
X101092208Y-32013108D01*
X101098001Y-32021081D01*
X101258516Y-32209020D01*
X101265480Y-32215984D01*
X101453419Y-32376499D01*
X101461392Y-32382292D01*
X101672121Y-32511427D01*
X101680915Y-32515908D01*
X101909242Y-32610484D01*
X101918627Y-32613533D01*
X102158940Y-32671228D01*
X102168687Y-32672771D01*
X102353376Y-32687307D01*
X102358302Y-32687500D01*
X103272885Y-32687500D01*
X103288124Y-32683025D01*
X103289329Y-32681635D01*
X103291000Y-32673952D01*
X103291000Y-32669385D01*
X103799000Y-32669385D01*
X103803475Y-32684624D01*
X103804865Y-32685829D01*
X103812548Y-32687500D01*
X104731698Y-32687500D01*
X104736624Y-32687307D01*
X104921313Y-32672771D01*
X104931060Y-32671228D01*
X105171373Y-32613533D01*
X105180758Y-32610484D01*
X105409085Y-32515908D01*
X105417879Y-32511427D01*
X105628608Y-32382292D01*
X105636581Y-32376499D01*
X105824520Y-32215984D01*
X105831484Y-32209020D01*
X105991999Y-32021081D01*
X105997792Y-32013108D01*
X106126927Y-31802379D01*
X106131408Y-31793585D01*
X106225984Y-31565258D01*
X106229033Y-31555873D01*
X106285447Y-31320892D01*
X106283469Y-31311471D01*
X106272002Y-31308500D01*
X103817115Y-31308500D01*
X103801876Y-31312975D01*
X103800671Y-31314365D01*
X103799000Y-31322048D01*
X103799000Y-32669385D01*
X103291000Y-32669385D01*
X103291000Y-31326615D01*
X103286525Y-31311376D01*
X103285135Y-31310171D01*
X103277452Y-31308500D01*
X100820055Y-31308500D01*
X100805262Y-31312844D01*
X100804142Y-31319181D01*
X99132752Y-31319181D01*
X99111392Y-31314053D01*
X99101971Y-31316031D01*
X99099000Y-31327498D01*
X99099000Y-33782385D01*
X98591000Y-33782385D01*
X98591000Y-31329555D01*
X98586656Y-31314762D01*
X98580319Y-31313642D01*
X98343627Y-31370467D01*
X98334242Y-31373516D01*
X98105915Y-31468092D01*
X98097121Y-31472573D01*
X97886392Y-31601708D01*
X97878419Y-31607501D01*
X97690480Y-31768016D01*
X97683516Y-31774980D01*
X97523001Y-31962919D01*
X97517208Y-31970892D01*
X97388073Y-32181621D01*
X97383592Y-32190415D01*
X97289016Y-32418742D01*
X97285967Y-32428127D01*
X97228272Y-32668440D01*
X97226729Y-32678187D01*
X97212193Y-32862876D01*
X97212000Y-32867803D01*
X97212000Y-33782385D01*
X71499500Y-33782385D01*
X71499500Y-33550343D01*
X71519502Y-33482222D01*
X71531857Y-33466042D01*
X71655840Y-33328344D01*
X71751327Y-33162956D01*
X71810342Y-32981328D01*
X71812239Y-32963284D01*
X71829614Y-32797965D01*
X71830304Y-32791400D01*
X71819082Y-32684624D01*
X71811032Y-32608035D01*
X71811032Y-32608033D01*
X71810342Y-32601472D01*
X71751327Y-32419844D01*
X71655840Y-32254456D01*
X71528053Y-32112534D01*
X71402179Y-32021081D01*
X71378894Y-32004163D01*
X71378893Y-32004162D01*
X71373552Y-32000282D01*
X71367524Y-31997598D01*
X71367522Y-31997597D01*
X71205119Y-31925291D01*
X71205118Y-31925291D01*
X71199088Y-31922606D01*
X71080617Y-31897424D01*
X71018744Y-31884272D01*
X71018739Y-31884272D01*
X71012287Y-31882900D01*
X70821313Y-31882900D01*
X70814861Y-31884272D01*
X70814856Y-31884272D01*
X70752983Y-31897424D01*
X70634512Y-31922606D01*
X70628482Y-31925291D01*
X70628481Y-31925291D01*
X70466078Y-31997597D01*
X70466076Y-31997598D01*
X70460048Y-32000282D01*
X70454707Y-32004162D01*
X70454706Y-32004163D01*
X70431421Y-32021081D01*
X70305547Y-32112534D01*
X70177760Y-32254456D01*
X70082273Y-32419844D01*
X70023258Y-32601472D01*
X70022568Y-32608033D01*
X70022568Y-32608035D01*
X70014518Y-32684624D01*
X70003296Y-32791400D01*
X70003986Y-32797965D01*
X70021362Y-32963284D01*
X70023258Y-32981328D01*
X70082273Y-33162956D01*
X70177760Y-33328344D01*
X70200137Y-33353196D01*
X70230853Y-33417202D01*
X70232500Y-33437505D01*
X70232500Y-34909805D01*
X70212498Y-34977926D01*
X70195595Y-34998900D01*
X57568989Y-47625506D01*
X57506677Y-47659532D01*
X57435862Y-47654467D01*
X57379026Y-47611920D01*
X57354215Y-47545400D01*
X57354374Y-47525428D01*
X57355419Y-47513485D01*
X57355419Y-47513475D01*
X57355898Y-47508000D01*
X57335943Y-47279913D01*
X57331118Y-47261907D01*
X57278107Y-47064067D01*
X57278106Y-47064065D01*
X57276684Y-47058757D01*
X57257331Y-47017254D01*
X57182249Y-46856238D01*
X57182246Y-46856233D01*
X57179923Y-46851251D01*
X57048598Y-46663700D01*
X56886700Y-46501802D01*
X56882192Y-46498645D01*
X56882189Y-46498643D01*
X56804011Y-46443902D01*
X56699149Y-46370477D01*
X56694167Y-46368154D01*
X56694162Y-46368151D01*
X56659943Y-46352195D01*
X56606658Y-46305278D01*
X56587197Y-46237001D01*
X56607739Y-46169041D01*
X56659943Y-46123805D01*
X56694162Y-46107849D01*
X56694167Y-46107846D01*
X56699149Y-46105523D01*
X56840858Y-46006297D01*
X56882189Y-45977357D01*
X56882192Y-45977355D01*
X56886700Y-45974198D01*
X57048598Y-45812300D01*
X57179923Y-45624749D01*
X57182246Y-45619767D01*
X57182249Y-45619762D01*
X57274361Y-45422225D01*
X57274361Y-45422224D01*
X57276684Y-45417243D01*
X57335943Y-45196087D01*
X57355898Y-44968000D01*
X57335943Y-44739913D01*
X57276684Y-44518757D01*
X57274361Y-44513775D01*
X57182249Y-44316238D01*
X57182246Y-44316233D01*
X57179923Y-44311251D01*
X57048598Y-44123700D01*
X56886700Y-43961802D01*
X56882192Y-43958645D01*
X56882189Y-43958643D01*
X56754165Y-43869000D01*
X56699149Y-43830477D01*
X56694167Y-43828154D01*
X56694162Y-43828151D01*
X56496625Y-43736039D01*
X56496624Y-43736039D01*
X56491643Y-43733716D01*
X56486335Y-43732294D01*
X56486333Y-43732293D01*
X56275802Y-43675881D01*
X56275800Y-43675881D01*
X56270487Y-43674457D01*
X56042400Y-43654502D01*
X55814313Y-43674457D01*
X55809000Y-43675881D01*
X55808998Y-43675881D01*
X55598467Y-43732293D01*
X55598465Y-43732294D01*
X55593157Y-43733716D01*
X55588176Y-43736039D01*
X55588175Y-43736039D01*
X55390638Y-43828151D01*
X55390633Y-43828154D01*
X55385651Y-43830477D01*
X55330635Y-43869000D01*
X55202611Y-43958643D01*
X55202608Y-43958645D01*
X55198100Y-43961802D01*
X55036202Y-44123700D01*
X54904877Y-44311251D01*
X54902554Y-44316233D01*
X54902551Y-44316238D01*
X54810439Y-44513775D01*
X54808116Y-44518757D01*
X54748857Y-44739913D01*
X54728902Y-44968000D01*
X54748857Y-45196087D01*
X54808116Y-45417243D01*
X54810439Y-45422224D01*
X54810439Y-45422225D01*
X54902551Y-45619762D01*
X54902554Y-45619767D01*
X54904877Y-45624749D01*
X55036202Y-45812300D01*
X55198100Y-45974198D01*
X55202608Y-45977355D01*
X55202611Y-45977357D01*
X55243942Y-46006297D01*
X55385651Y-46105523D01*
X55390633Y-46107846D01*
X55390638Y-46107849D01*
X55424857Y-46123805D01*
X55478142Y-46170722D01*
X55497603Y-46238999D01*
X55477061Y-46306959D01*
X55424857Y-46352195D01*
X55390638Y-46368151D01*
X55390633Y-46368154D01*
X55385651Y-46370477D01*
X55280789Y-46443902D01*
X55202611Y-46498643D01*
X55202608Y-46498645D01*
X55198100Y-46501802D01*
X55036202Y-46663700D01*
X54904877Y-46851251D01*
X54902554Y-46856233D01*
X54902551Y-46856238D01*
X54827469Y-47017254D01*
X54808116Y-47058757D01*
X54806694Y-47064065D01*
X54806693Y-47064067D01*
X54753682Y-47261907D01*
X54748857Y-47279913D01*
X54728902Y-47508000D01*
X54748857Y-47736087D01*
X54750281Y-47741400D01*
X54750281Y-47741402D01*
X54753273Y-47752566D01*
X54808116Y-47957243D01*
X54810439Y-47962224D01*
X54810439Y-47962225D01*
X54902551Y-48159762D01*
X54902554Y-48159767D01*
X54904877Y-48164749D01*
X55036202Y-48352300D01*
X55198100Y-48514198D01*
X55202608Y-48517355D01*
X55202611Y-48517357D01*
X55280789Y-48572098D01*
X55385651Y-48645523D01*
X55390633Y-48647846D01*
X55390638Y-48647849D01*
X55424857Y-48663805D01*
X55478142Y-48710722D01*
X55497603Y-48778999D01*
X55477061Y-48846959D01*
X55424857Y-48892195D01*
X55390638Y-48908151D01*
X55390633Y-48908154D01*
X55385651Y-48910477D01*
X55288219Y-48978700D01*
X55202611Y-49038643D01*
X55202608Y-49038645D01*
X55198100Y-49041802D01*
X55036202Y-49203700D01*
X54904877Y-49391251D01*
X54902554Y-49396233D01*
X54902551Y-49396238D01*
X54848494Y-49512165D01*
X54808116Y-49598757D01*
X54806694Y-49604065D01*
X54806693Y-49604067D01*
X54750281Y-49814598D01*
X54748857Y-49819913D01*
X54728902Y-50048000D01*
X54748857Y-50276087D01*
X54750281Y-50281400D01*
X54750281Y-50281402D01*
X54799060Y-50463444D01*
X54808116Y-50497243D01*
X54810439Y-50502224D01*
X54810439Y-50502225D01*
X54902551Y-50699762D01*
X54902554Y-50699767D01*
X54904877Y-50704749D01*
X55036202Y-50892300D01*
X55198100Y-51054198D01*
X55202608Y-51057355D01*
X55202611Y-51057357D01*
X55247855Y-51089037D01*
X55385651Y-51185523D01*
X55390633Y-51187846D01*
X55390638Y-51187849D01*
X55424857Y-51203805D01*
X55478142Y-51250722D01*
X55497603Y-51318999D01*
X55477061Y-51386959D01*
X55424857Y-51432195D01*
X55390638Y-51448151D01*
X55390633Y-51448154D01*
X55385651Y-51450477D01*
X55363115Y-51466257D01*
X55202611Y-51578643D01*
X55202608Y-51578645D01*
X55198100Y-51581802D01*
X55036202Y-51743700D01*
X54904877Y-51931251D01*
X54902554Y-51936233D01*
X54902551Y-51936238D01*
X54829193Y-52093556D01*
X54808116Y-52138757D01*
X54806694Y-52144065D01*
X54806693Y-52144067D01*
X54754974Y-52337085D01*
X54748857Y-52359913D01*
X54728902Y-52588000D01*
X49735898Y-52588000D01*
X49715943Y-52359913D01*
X49709826Y-52337085D01*
X49658107Y-52144067D01*
X49658106Y-52144065D01*
X49656684Y-52138757D01*
X49635607Y-52093556D01*
X49562249Y-51936238D01*
X49562246Y-51936233D01*
X49559923Y-51931251D01*
X49428598Y-51743700D01*
X49266700Y-51581802D01*
X49262192Y-51578645D01*
X49262189Y-51578643D01*
X49101685Y-51466257D01*
X49079149Y-51450477D01*
X49074167Y-51448154D01*
X49074162Y-51448151D01*
X49039351Y-51431919D01*
X48986066Y-51385002D01*
X48966605Y-51316725D01*
X48987147Y-51248765D01*
X49039351Y-51203529D01*
X49073911Y-51187414D01*
X49083407Y-51181931D01*
X49261867Y-51056972D01*
X49270275Y-51049916D01*
X49424316Y-50895875D01*
X49431372Y-50887467D01*
X49556331Y-50709007D01*
X49561814Y-50699511D01*
X49653890Y-50502053D01*
X49657636Y-50491761D01*
X49703794Y-50319497D01*
X49703458Y-50305401D01*
X49695516Y-50302000D01*
X47154433Y-50302000D01*
X47140902Y-50305973D01*
X47139673Y-50314522D01*
X47187164Y-50491761D01*
X47190910Y-50502053D01*
X47282986Y-50699511D01*
X47288469Y-50709007D01*
X47413428Y-50887467D01*
X47420484Y-50895875D01*
X47574525Y-51049916D01*
X47582933Y-51056972D01*
X47761393Y-51181931D01*
X47770889Y-51187414D01*
X47805449Y-51203529D01*
X47858734Y-51250446D01*
X47878195Y-51318723D01*
X47857653Y-51386683D01*
X47805449Y-51431919D01*
X47770638Y-51448151D01*
X47770633Y-51448154D01*
X47765651Y-51450477D01*
X47743115Y-51466257D01*
X47582611Y-51578643D01*
X47582608Y-51578645D01*
X47578100Y-51581802D01*
X47416202Y-51743700D01*
X47284877Y-51931251D01*
X47282554Y-51936233D01*
X47282551Y-51936238D01*
X47209193Y-52093556D01*
X47188116Y-52138757D01*
X47186694Y-52144065D01*
X47186693Y-52144067D01*
X47134974Y-52337085D01*
X47128857Y-52359913D01*
X47108902Y-52588000D01*
X47128857Y-52816087D01*
X47130281Y-52821400D01*
X47130281Y-52821402D01*
X47136653Y-52845180D01*
X47188116Y-53037243D01*
X47190439Y-53042224D01*
X47190439Y-53042225D01*
X47282551Y-53239762D01*
X47282554Y-53239767D01*
X47284877Y-53244749D01*
X47416202Y-53432300D01*
X47578100Y-53594198D01*
X47582608Y-53597355D01*
X47582611Y-53597357D01*
X47605220Y-53613188D01*
X47765651Y-53725523D01*
X47770633Y-53727846D01*
X47770638Y-53727849D01*
X47960150Y-53816219D01*
X48013435Y-53863136D01*
X48032900Y-53930414D01*
X48032900Y-59642849D01*
X48012898Y-59710970D01*
X47959242Y-59757463D01*
X47906900Y-59768849D01*
X47818266Y-59768849D01*
X47756084Y-59775604D01*
X47619695Y-59826734D01*
X47503139Y-59914088D01*
X47415785Y-60030644D01*
X47364655Y-60167033D01*
X47357900Y-60229215D01*
X47357900Y-61925483D01*
X47364655Y-61987665D01*
X47415785Y-62124054D01*
X47503139Y-62240610D01*
X47619695Y-62327964D01*
X47628103Y-62331116D01*
X47756084Y-62379094D01*
X47755354Y-62381040D01*
X47807605Y-62410894D01*
X47840421Y-62473852D01*
X47833991Y-62544556D01*
X47805902Y-62587349D01*
X47660202Y-62733049D01*
X47528877Y-62920600D01*
X47526554Y-62925582D01*
X47526551Y-62925587D01*
X47470507Y-63045775D01*
X47432116Y-63128106D01*
X47372857Y-63349262D01*
X47352902Y-63577349D01*
X47372857Y-63805436D01*
X47374281Y-63810749D01*
X47374281Y-63810751D01*
X47427290Y-64008580D01*
X47432116Y-64026592D01*
X47434439Y-64031573D01*
X47434439Y-64031574D01*
X47526551Y-64229111D01*
X47526554Y-64229116D01*
X47528877Y-64234098D01*
X47660202Y-64421649D01*
X47822100Y-64583547D01*
X47826608Y-64586704D01*
X47826611Y-64586706D01*
X47979171Y-64693530D01*
X48023499Y-64748987D01*
X48032900Y-64796743D01*
X48032900Y-74513805D01*
X48012898Y-74581926D01*
X47995995Y-74602900D01*
X47833057Y-74765838D01*
X47770745Y-74799864D01*
X47699930Y-74794799D01*
X47643094Y-74752252D01*
X47618283Y-74685732D01*
X47618024Y-74672785D01*
X47618748Y-74649767D01*
X47622260Y-74538000D01*
X47620140Y-74501225D01*
X47603825Y-74218272D01*
X47603824Y-74218267D01*
X47603616Y-74214652D01*
X47566382Y-74001309D01*
X47548555Y-73899163D01*
X47548553Y-73899156D01*
X47547931Y-73895590D01*
X47544000Y-73882317D01*
X47500122Y-73734190D01*
X47455942Y-73585042D01*
X47422145Y-73505806D01*
X47330294Y-73290464D01*
X47330292Y-73290461D01*
X47328870Y-73287126D01*
X47295885Y-73229296D01*
X47170189Y-73008929D01*
X47168398Y-73005789D01*
X47160671Y-72995269D01*
X46978794Y-72747674D01*
X46978792Y-72747672D01*
X46976654Y-72744761D01*
X46866417Y-72626131D01*
X46758638Y-72510147D01*
X46758636Y-72510145D01*
X46756179Y-72507501D01*
X46509895Y-72297154D01*
X46506892Y-72295136D01*
X46506884Y-72295130D01*
X46308341Y-72161716D01*
X46241066Y-72116509D01*
X45953256Y-71967959D01*
X45650279Y-71853474D01*
X45646758Y-71852590D01*
X45646753Y-71852588D01*
X45339668Y-71775454D01*
X45339665Y-71775454D01*
X45336152Y-71774571D01*
X45197388Y-71756302D01*
X45018640Y-71732769D01*
X45018636Y-71732769D01*
X45015038Y-71732295D01*
X44899192Y-71730475D01*
X44694835Y-71727265D01*
X44694831Y-71727265D01*
X44691193Y-71727208D01*
X44687579Y-71727569D01*
X44687573Y-71727569D01*
X44460102Y-71750274D01*
X44368909Y-71759376D01*
X44052459Y-71828373D01*
X44049032Y-71829546D01*
X44049026Y-71829548D01*
X43749467Y-71932110D01*
X43749462Y-71932112D01*
X43746036Y-71933285D01*
X43742768Y-71934844D01*
X43742760Y-71934847D01*
X43632055Y-71987651D01*
X43453702Y-72072721D01*
X43179331Y-72244834D01*
X43176497Y-72247104D01*
X43176492Y-72247108D01*
X43057912Y-72342109D01*
X42926562Y-72447340D01*
X42698743Y-72677558D01*
X42498894Y-72932434D01*
X42329664Y-73208592D01*
X42328139Y-73211877D01*
X42328137Y-73211881D01*
X42225348Y-73433322D01*
X42193297Y-73502370D01*
X42091600Y-73809875D01*
X42090864Y-73813430D01*
X42090863Y-73813433D01*
X42041975Y-74049502D01*
X42025920Y-74127030D01*
X42014517Y-74254795D01*
X42001080Y-74405357D01*
X41997128Y-74449633D01*
X22225500Y-74449633D01*
X22225500Y-68593966D01*
X25363657Y-68593966D01*
X25393965Y-68728446D01*
X25397045Y-68738275D01*
X25477170Y-68935603D01*
X25481813Y-68944794D01*
X25593094Y-69126388D01*
X25599177Y-69134699D01*
X25738613Y-69295667D01*
X25745980Y-69302883D01*
X25909834Y-69438916D01*
X25918281Y-69444831D01*
X26102156Y-69552279D01*
X26111442Y-69556729D01*
X26310401Y-69632703D01*
X26320299Y-69635579D01*
X26423650Y-69656606D01*
X26437699Y-69655410D01*
X26441400Y-69645065D01*
X26441400Y-69644517D01*
X26949400Y-69644517D01*
X26953464Y-69658359D01*
X26966878Y-69660393D01*
X26973584Y-69659534D01*
X26983662Y-69657392D01*
X27187655Y-69596191D01*
X27197242Y-69592433D01*
X27388495Y-69498739D01*
X27397345Y-69493464D01*
X27570728Y-69369792D01*
X27578600Y-69363139D01*
X27729452Y-69212812D01*
X27736130Y-69204965D01*
X27863422Y-69027819D01*
X27864547Y-69028627D01*
X27912069Y-68984876D01*
X27982007Y-68972661D01*
X28047446Y-69000197D01*
X28075270Y-69032028D01*
X28133090Y-69126383D01*
X28139177Y-69134699D01*
X28278613Y-69295667D01*
X28285980Y-69302883D01*
X28449834Y-69438916D01*
X28458281Y-69444831D01*
X28642156Y-69552279D01*
X28651442Y-69556729D01*
X28850401Y-69632703D01*
X28860299Y-69635579D01*
X28963650Y-69656606D01*
X28977699Y-69655410D01*
X28981400Y-69645065D01*
X28981400Y-69644517D01*
X29489400Y-69644517D01*
X29493464Y-69658359D01*
X29506878Y-69660393D01*
X29513584Y-69659534D01*
X29523662Y-69657392D01*
X29727655Y-69596191D01*
X29737242Y-69592433D01*
X29928495Y-69498739D01*
X29937345Y-69493464D01*
X30110728Y-69369792D01*
X30118600Y-69363139D01*
X30269452Y-69212812D01*
X30276130Y-69204965D01*
X30403422Y-69027819D01*
X30404679Y-69028722D01*
X30451773Y-68985362D01*
X30521711Y-68973145D01*
X30587151Y-69000678D01*
X30614979Y-69032511D01*
X30675387Y-69131088D01*
X30821650Y-69299938D01*
X30993526Y-69442632D01*
X31186400Y-69555338D01*
X31395092Y-69635030D01*
X31400160Y-69636061D01*
X31400163Y-69636062D01*
X31495262Y-69655410D01*
X31613997Y-69679567D01*
X31619172Y-69679757D01*
X31619174Y-69679757D01*
X31832073Y-69687564D01*
X31832077Y-69687564D01*
X31837237Y-69687753D01*
X31842357Y-69687097D01*
X31842359Y-69687097D01*
X32053688Y-69660025D01*
X32053689Y-69660025D01*
X32058816Y-69659368D01*
X32063766Y-69657883D01*
X32267829Y-69596661D01*
X32267834Y-69596659D01*
X32272784Y-69595174D01*
X32473394Y-69496896D01*
X32655260Y-69367173D01*
X32763491Y-69259319D01*
X32825862Y-69225404D01*
X32896668Y-69230592D01*
X32953430Y-69273238D01*
X32970412Y-69304341D01*
X33014785Y-69422705D01*
X33102139Y-69539261D01*
X33218695Y-69626615D01*
X33355084Y-69677745D01*
X33417266Y-69684500D01*
X35213534Y-69684500D01*
X35275716Y-69677745D01*
X35412105Y-69626615D01*
X35528661Y-69539261D01*
X35616015Y-69422705D01*
X35667145Y-69286316D01*
X35673900Y-69224134D01*
X35673900Y-67427866D01*
X35667145Y-67365684D01*
X35616015Y-67229295D01*
X35528661Y-67112739D01*
X35412105Y-67025385D01*
X35275716Y-66974255D01*
X35213534Y-66967500D01*
X33417266Y-66967500D01*
X33355084Y-66974255D01*
X33218695Y-67025385D01*
X33102139Y-67112739D01*
X33014785Y-67229295D01*
X33011633Y-67237703D01*
X32970319Y-67347907D01*
X32927677Y-67404671D01*
X32861116Y-67429371D01*
X32791767Y-67414163D01*
X32759143Y-67388476D01*
X32708551Y-67332875D01*
X32708542Y-67332866D01*
X32705070Y-67329051D01*
X32701019Y-67325852D01*
X32701015Y-67325848D01*
X32533814Y-67193800D01*
X32533810Y-67193798D01*
X32529759Y-67190598D01*
X32493428Y-67170542D01*
X32449131Y-67146089D01*
X32334189Y-67082638D01*
X32329320Y-67080914D01*
X32329316Y-67080912D01*
X32128487Y-67009795D01*
X32128483Y-67009794D01*
X32123612Y-67008069D01*
X32118519Y-67007162D01*
X32118516Y-67007161D01*
X31908773Y-66969800D01*
X31908767Y-66969799D01*
X31903684Y-66968894D01*
X31829852Y-66967992D01*
X31685481Y-66966228D01*
X31685479Y-66966228D01*
X31680311Y-66966165D01*
X31459491Y-66999955D01*
X31247156Y-67069357D01*
X31049007Y-67172507D01*
X31044874Y-67175610D01*
X31044871Y-67175612D01*
X30874500Y-67303530D01*
X30870365Y-67306635D01*
X30844941Y-67333240D01*
X30776680Y-67404671D01*
X30716029Y-67468138D01*
X30713115Y-67472410D01*
X30713114Y-67472411D01*
X30707751Y-67480273D01*
X30609737Y-67623957D01*
X30608298Y-67626066D01*
X30553387Y-67671069D01*
X30482862Y-67679240D01*
X30419115Y-67647986D01*
X30398418Y-67623502D01*
X30317826Y-67498926D01*
X30311536Y-67490757D01*
X30168206Y-67333240D01*
X30160673Y-67326215D01*
X29993539Y-67194222D01*
X29984952Y-67188517D01*
X29798517Y-67085599D01*
X29789105Y-67081369D01*
X29588359Y-67010280D01*
X29578388Y-67007646D01*
X29507237Y-66994972D01*
X29493940Y-66996432D01*
X29489400Y-67010989D01*
X29489400Y-69644517D01*
X28981400Y-69644517D01*
X28981400Y-68598115D01*
X28976925Y-68582876D01*
X28975535Y-68581671D01*
X28967852Y-68580000D01*
X26967515Y-68580000D01*
X26952276Y-68584475D01*
X26951071Y-68585865D01*
X26949400Y-68593548D01*
X26949400Y-69644517D01*
X26441400Y-69644517D01*
X26441400Y-68598115D01*
X26436925Y-68582876D01*
X26435535Y-68581671D01*
X26427852Y-68580000D01*
X25378625Y-68580000D01*
X25365094Y-68583973D01*
X25363657Y-68593966D01*
X22225500Y-68593966D01*
X22225500Y-68060183D01*
X25359789Y-68060183D01*
X25361312Y-68068607D01*
X25373692Y-68072000D01*
X26423285Y-68072000D01*
X26438524Y-68067525D01*
X26439729Y-68066135D01*
X26441400Y-68058452D01*
X26441400Y-68053885D01*
X26949400Y-68053885D01*
X26953875Y-68069124D01*
X26955265Y-68070329D01*
X26962948Y-68072000D01*
X28963285Y-68072000D01*
X28978524Y-68067525D01*
X28979729Y-68066135D01*
X28981400Y-68058452D01*
X28981400Y-67009102D01*
X28977482Y-66995758D01*
X28963206Y-66993771D01*
X28924724Y-66999660D01*
X28914688Y-67002051D01*
X28712268Y-67068212D01*
X28702759Y-67072209D01*
X28513863Y-67170542D01*
X28505138Y-67176036D01*
X28334833Y-67303905D01*
X28327126Y-67310748D01*
X28179990Y-67464717D01*
X28173504Y-67472727D01*
X28068593Y-67626521D01*
X28013682Y-67671524D01*
X27943157Y-67679695D01*
X27879410Y-67648441D01*
X27858713Y-67623957D01*
X27777827Y-67498926D01*
X27771536Y-67490757D01*
X27628206Y-67333240D01*
X27620673Y-67326215D01*
X27453539Y-67194222D01*
X27444952Y-67188517D01*
X27258517Y-67085599D01*
X27249105Y-67081369D01*
X27048359Y-67010280D01*
X27038388Y-67007646D01*
X26967237Y-66994972D01*
X26953940Y-66996432D01*
X26949400Y-67010989D01*
X26949400Y-68053885D01*
X26441400Y-68053885D01*
X26441400Y-67009102D01*
X26437482Y-66995758D01*
X26423206Y-66993771D01*
X26384724Y-66999660D01*
X26374688Y-67002051D01*
X26172268Y-67068212D01*
X26162759Y-67072209D01*
X25973863Y-67170542D01*
X25965138Y-67176036D01*
X25794833Y-67303905D01*
X25787126Y-67310748D01*
X25639990Y-67464717D01*
X25633504Y-67472727D01*
X25513498Y-67648649D01*
X25508400Y-67657623D01*
X25418738Y-67850783D01*
X25415175Y-67860470D01*
X25359789Y-68060183D01*
X22225500Y-68060183D01*
X22225500Y-47508000D01*
X47108902Y-47508000D01*
X47128857Y-47736087D01*
X47130281Y-47741400D01*
X47130281Y-47741402D01*
X47133273Y-47752566D01*
X47188116Y-47957243D01*
X47190439Y-47962224D01*
X47190439Y-47962225D01*
X47282551Y-48159762D01*
X47282554Y-48159767D01*
X47284877Y-48164749D01*
X47416202Y-48352300D01*
X47578100Y-48514198D01*
X47582608Y-48517355D01*
X47582611Y-48517357D01*
X47660789Y-48572098D01*
X47765651Y-48645523D01*
X47770633Y-48647846D01*
X47770638Y-48647849D01*
X47805449Y-48664081D01*
X47858734Y-48710998D01*
X47878195Y-48779275D01*
X47857653Y-48847235D01*
X47805449Y-48892471D01*
X47770889Y-48908586D01*
X47761393Y-48914069D01*
X47582933Y-49039028D01*
X47574525Y-49046084D01*
X47420484Y-49200125D01*
X47413428Y-49208533D01*
X47288469Y-49386993D01*
X47282986Y-49396489D01*
X47190910Y-49593947D01*
X47187164Y-49604239D01*
X47141006Y-49776503D01*
X47141342Y-49790599D01*
X47149284Y-49794000D01*
X49690367Y-49794000D01*
X49703898Y-49790027D01*
X49705127Y-49781478D01*
X49657636Y-49604239D01*
X49653890Y-49593947D01*
X49561814Y-49396489D01*
X49556331Y-49386993D01*
X49431372Y-49208533D01*
X49424316Y-49200125D01*
X49270275Y-49046084D01*
X49261867Y-49039028D01*
X49083407Y-48914069D01*
X49073911Y-48908586D01*
X49039351Y-48892471D01*
X48986066Y-48845554D01*
X48966605Y-48777277D01*
X48987147Y-48709317D01*
X49039351Y-48664081D01*
X49074162Y-48647849D01*
X49074167Y-48647846D01*
X49079149Y-48645523D01*
X49184011Y-48572098D01*
X49262189Y-48517357D01*
X49262192Y-48517355D01*
X49266700Y-48514198D01*
X49428598Y-48352300D01*
X49559923Y-48164749D01*
X49562246Y-48159767D01*
X49562249Y-48159762D01*
X49654361Y-47962225D01*
X49654361Y-47962224D01*
X49656684Y-47957243D01*
X49711528Y-47752566D01*
X49714519Y-47741402D01*
X49714519Y-47741400D01*
X49715943Y-47736087D01*
X49735898Y-47508000D01*
X49715943Y-47279913D01*
X49711118Y-47261907D01*
X49658107Y-47064067D01*
X49658106Y-47064065D01*
X49656684Y-47058757D01*
X49637331Y-47017254D01*
X49562249Y-46856238D01*
X49562246Y-46856233D01*
X49559923Y-46851251D01*
X49428598Y-46663700D01*
X49266700Y-46501802D01*
X49262189Y-46498643D01*
X49257976Y-46495108D01*
X49258927Y-46493974D01*
X49218929Y-46443929D01*
X49211624Y-46373310D01*
X49243658Y-46309951D01*
X49304862Y-46273970D01*
X49321917Y-46270918D01*
X49332716Y-46269745D01*
X49469105Y-46218615D01*
X49585661Y-46131261D01*
X49673015Y-46014705D01*
X49724145Y-45878316D01*
X49730900Y-45816134D01*
X49730900Y-44119866D01*
X49724145Y-44057684D01*
X49673015Y-43921295D01*
X49585661Y-43804739D01*
X49469105Y-43717385D01*
X49332716Y-43666255D01*
X49270534Y-43659500D01*
X49181900Y-43659500D01*
X49113779Y-43639498D01*
X49067286Y-43585842D01*
X49055900Y-43533500D01*
X49055900Y-42722594D01*
X49075902Y-42654473D01*
X49092805Y-42633499D01*
X49329699Y-42396605D01*
X49392011Y-42362579D01*
X49418794Y-42359700D01*
X50027334Y-42359700D01*
X50089516Y-42352945D01*
X50225905Y-42301815D01*
X50342461Y-42214461D01*
X50429815Y-42097905D01*
X50480945Y-41961516D01*
X50487700Y-41899334D01*
X50487700Y-40803066D01*
X50480945Y-40740884D01*
X50429815Y-40604495D01*
X50342461Y-40487939D01*
X50225905Y-40400585D01*
X50089516Y-40349455D01*
X50027334Y-40342700D01*
X48931066Y-40342700D01*
X48868884Y-40349455D01*
X48732495Y-40400585D01*
X48615939Y-40487939D01*
X48528585Y-40604495D01*
X48477455Y-40740884D01*
X48470700Y-40803066D01*
X48470700Y-41411605D01*
X48450698Y-41479726D01*
X48433795Y-41500700D01*
X48030147Y-41904348D01*
X48021861Y-41911888D01*
X48015382Y-41916000D01*
X48009957Y-41921777D01*
X47968757Y-41965651D01*
X47966002Y-41968493D01*
X47946265Y-41988230D01*
X47943785Y-41991427D01*
X47936082Y-42000447D01*
X47905814Y-42032679D01*
X47901995Y-42039625D01*
X47901993Y-42039628D01*
X47896052Y-42050434D01*
X47885201Y-42066953D01*
X47872786Y-42082959D01*
X47869641Y-42090228D01*
X47869638Y-42090232D01*
X47855226Y-42123537D01*
X47850009Y-42134187D01*
X47828705Y-42172940D01*
X47826734Y-42180615D01*
X47826734Y-42180616D01*
X47823667Y-42192562D01*
X47817263Y-42211266D01*
X47815881Y-42214461D01*
X47809219Y-42229855D01*
X47807980Y-42237678D01*
X47807977Y-42237688D01*
X47802301Y-42273524D01*
X47799895Y-42285144D01*
X47788900Y-42327970D01*
X47788900Y-42348224D01*
X47787349Y-42367934D01*
X47784180Y-42387943D01*
X47784926Y-42395835D01*
X47788341Y-42431961D01*
X47788900Y-42443819D01*
X47788900Y-43533500D01*
X47768898Y-43601621D01*
X47715242Y-43648114D01*
X47662900Y-43659500D01*
X47574266Y-43659500D01*
X47512084Y-43666255D01*
X47375695Y-43717385D01*
X47259139Y-43804739D01*
X47171785Y-43921295D01*
X47120655Y-44057684D01*
X47113900Y-44119866D01*
X47113900Y-45816134D01*
X47120655Y-45878316D01*
X47171785Y-46014705D01*
X47259139Y-46131261D01*
X47375695Y-46218615D01*
X47512084Y-46269745D01*
X47522874Y-46270917D01*
X47525006Y-46271803D01*
X47527622Y-46272425D01*
X47527521Y-46272848D01*
X47588435Y-46298155D01*
X47628863Y-46356517D01*
X47631322Y-46427471D01*
X47595029Y-46488490D01*
X47586369Y-46495489D01*
X47582607Y-46498646D01*
X47578100Y-46501802D01*
X47416202Y-46663700D01*
X47284877Y-46851251D01*
X47282554Y-46856233D01*
X47282551Y-46856238D01*
X47207469Y-47017254D01*
X47188116Y-47058757D01*
X47186694Y-47064065D01*
X47186693Y-47064067D01*
X47133682Y-47261907D01*
X47128857Y-47279913D01*
X47108902Y-47508000D01*
X22225500Y-47508000D01*
X22225500Y-35573966D01*
X25409657Y-35573966D01*
X25439965Y-35708446D01*
X25443045Y-35718275D01*
X25523170Y-35915603D01*
X25527813Y-35924794D01*
X25639094Y-36106388D01*
X25645177Y-36114699D01*
X25784613Y-36275667D01*
X25791980Y-36282883D01*
X25955834Y-36418916D01*
X25964281Y-36424831D01*
X26148156Y-36532279D01*
X26157442Y-36536729D01*
X26356401Y-36612703D01*
X26366299Y-36615579D01*
X26469650Y-36636606D01*
X26483699Y-36635410D01*
X26487400Y-36625065D01*
X26487400Y-36624517D01*
X26995400Y-36624517D01*
X26999464Y-36638359D01*
X27012878Y-36640393D01*
X27019584Y-36639534D01*
X27029662Y-36637392D01*
X27233655Y-36576191D01*
X27243242Y-36572433D01*
X27434495Y-36478739D01*
X27443345Y-36473464D01*
X27616728Y-36349792D01*
X27624600Y-36343139D01*
X27775452Y-36192812D01*
X27782130Y-36184965D01*
X27909422Y-36007819D01*
X27910547Y-36008627D01*
X27958069Y-35964876D01*
X28028007Y-35952661D01*
X28093446Y-35980197D01*
X28121270Y-36012028D01*
X28179090Y-36106383D01*
X28185177Y-36114699D01*
X28324613Y-36275667D01*
X28331980Y-36282883D01*
X28495834Y-36418916D01*
X28504281Y-36424831D01*
X28688156Y-36532279D01*
X28697442Y-36536729D01*
X28896401Y-36612703D01*
X28906299Y-36615579D01*
X29009650Y-36636606D01*
X29023699Y-36635410D01*
X29027400Y-36625065D01*
X29027400Y-36624517D01*
X29535400Y-36624517D01*
X29539464Y-36638359D01*
X29552878Y-36640393D01*
X29559584Y-36639534D01*
X29569662Y-36637392D01*
X29773655Y-36576191D01*
X29783242Y-36572433D01*
X29974495Y-36478739D01*
X29983345Y-36473464D01*
X30156728Y-36349792D01*
X30164600Y-36343139D01*
X30315452Y-36192812D01*
X30322130Y-36184965D01*
X30449422Y-36007819D01*
X30450679Y-36008722D01*
X30497773Y-35965362D01*
X30567711Y-35953145D01*
X30633151Y-35980678D01*
X30660979Y-36012511D01*
X30721387Y-36111088D01*
X30867650Y-36279938D01*
X31039526Y-36422632D01*
X31232400Y-36535338D01*
X31441092Y-36615030D01*
X31446160Y-36616061D01*
X31446163Y-36616062D01*
X31541262Y-36635410D01*
X31659997Y-36659567D01*
X31665172Y-36659757D01*
X31665174Y-36659757D01*
X31878073Y-36667564D01*
X31878077Y-36667564D01*
X31883237Y-36667753D01*
X31888357Y-36667097D01*
X31888359Y-36667097D01*
X32099688Y-36640025D01*
X32099689Y-36640025D01*
X32104816Y-36639368D01*
X32109766Y-36637883D01*
X32313829Y-36576661D01*
X32313834Y-36576659D01*
X32318784Y-36575174D01*
X32519394Y-36476896D01*
X32701260Y-36347173D01*
X32809491Y-36239319D01*
X32871862Y-36205404D01*
X32942668Y-36210592D01*
X32999430Y-36253238D01*
X33016412Y-36284341D01*
X33060785Y-36402705D01*
X33148139Y-36519261D01*
X33264695Y-36606615D01*
X33401084Y-36657745D01*
X33463266Y-36664500D01*
X34771806Y-36664500D01*
X34839927Y-36684502D01*
X34860901Y-36701405D01*
X35002243Y-36842747D01*
X35009787Y-36851037D01*
X35013900Y-36857518D01*
X35059999Y-36900807D01*
X35063567Y-36904158D01*
X35066409Y-36906913D01*
X35086130Y-36926634D01*
X35089325Y-36929112D01*
X35098347Y-36936818D01*
X35130579Y-36967086D01*
X35137528Y-36970906D01*
X35148332Y-36976846D01*
X35164856Y-36987699D01*
X35180859Y-37000113D01*
X35221443Y-37017676D01*
X35232073Y-37022883D01*
X35270840Y-37044195D01*
X35278517Y-37046166D01*
X35278522Y-37046168D01*
X35290458Y-37049232D01*
X35309166Y-37055637D01*
X35327755Y-37063681D01*
X35335580Y-37064920D01*
X35335582Y-37064921D01*
X35371419Y-37070597D01*
X35383040Y-37073004D01*
X35418189Y-37082028D01*
X35425870Y-37084000D01*
X35446131Y-37084000D01*
X35465840Y-37085551D01*
X35485843Y-37088719D01*
X35493735Y-37087973D01*
X35498962Y-37087479D01*
X35529854Y-37084559D01*
X35541711Y-37084000D01*
X46579704Y-37084000D01*
X46647825Y-37104002D01*
X46682917Y-37137729D01*
X46732257Y-37208193D01*
X46747268Y-37229631D01*
X46896669Y-37379032D01*
X47069744Y-37500220D01*
X47074722Y-37502541D01*
X47074725Y-37502543D01*
X47242312Y-37580690D01*
X47261233Y-37589513D01*
X47266541Y-37590935D01*
X47266543Y-37590936D01*
X47390871Y-37624249D01*
X47465319Y-37644197D01*
X47675800Y-37662612D01*
X47886281Y-37644197D01*
X47960729Y-37624249D01*
X48085057Y-37590936D01*
X48085059Y-37590935D01*
X48090367Y-37589513D01*
X48109288Y-37580690D01*
X48276875Y-37502543D01*
X48276878Y-37502541D01*
X48281856Y-37500220D01*
X48454931Y-37379032D01*
X48604332Y-37229631D01*
X48619343Y-37208193D01*
X48668683Y-37137729D01*
X48724140Y-37093401D01*
X48771896Y-37084000D01*
X48882970Y-37084000D01*
X48951091Y-37104002D01*
X48997584Y-37157658D01*
X49007438Y-37197728D01*
X49008300Y-37197634D01*
X49015055Y-37259816D01*
X49066185Y-37396205D01*
X49153539Y-37512761D01*
X49270095Y-37600115D01*
X49406484Y-37651245D01*
X49468666Y-37658000D01*
X50962934Y-37658000D01*
X51025116Y-37651245D01*
X51161505Y-37600115D01*
X51278061Y-37512761D01*
X51365415Y-37396205D01*
X51416545Y-37259816D01*
X51423300Y-37197634D01*
X51423300Y-35703366D01*
X51416545Y-35641184D01*
X51365415Y-35504795D01*
X51278061Y-35388239D01*
X51161505Y-35300885D01*
X51025116Y-35249755D01*
X50962934Y-35243000D01*
X49468666Y-35243000D01*
X49406484Y-35249755D01*
X49270095Y-35300885D01*
X49153539Y-35388239D01*
X49066185Y-35504795D01*
X49015055Y-35641184D01*
X49008300Y-35703366D01*
X49006872Y-35703211D01*
X48985145Y-35764732D01*
X48929062Y-35808267D01*
X48882970Y-35817000D01*
X48771896Y-35817000D01*
X48703775Y-35796998D01*
X48668683Y-35763271D01*
X48607491Y-35675880D01*
X48607489Y-35675877D01*
X48604332Y-35671369D01*
X48454931Y-35521968D01*
X48281856Y-35400780D01*
X48276878Y-35398459D01*
X48276875Y-35398457D01*
X48095349Y-35313810D01*
X48095348Y-35313809D01*
X48090367Y-35311487D01*
X48085059Y-35310065D01*
X48085057Y-35310064D01*
X47891596Y-35258227D01*
X47891595Y-35258227D01*
X47886281Y-35256803D01*
X47675800Y-35238388D01*
X47465319Y-35256803D01*
X47460005Y-35258227D01*
X47460004Y-35258227D01*
X47266543Y-35310064D01*
X47266541Y-35310065D01*
X47261233Y-35311487D01*
X47256252Y-35313809D01*
X47256251Y-35313810D01*
X47074725Y-35398457D01*
X47074722Y-35398459D01*
X47069744Y-35400780D01*
X46896669Y-35521968D01*
X46747268Y-35671369D01*
X46744111Y-35675877D01*
X46744109Y-35675880D01*
X46682917Y-35763271D01*
X46627460Y-35807599D01*
X46579704Y-35817000D01*
X35845900Y-35817000D01*
X35777779Y-35796998D01*
X35731286Y-35743342D01*
X35719900Y-35691000D01*
X35719900Y-34407866D01*
X35713145Y-34345684D01*
X35662015Y-34209295D01*
X35574661Y-34092739D01*
X35458105Y-34005385D01*
X35321716Y-33954255D01*
X35259534Y-33947500D01*
X34998700Y-33947500D01*
X34930579Y-33927498D01*
X34884086Y-33873842D01*
X34872700Y-33821500D01*
X34872700Y-32965480D01*
X43906093Y-32965480D01*
X43913145Y-32975449D01*
X43945066Y-33002138D01*
X43951982Y-33007162D01*
X44177508Y-33148635D01*
X44185059Y-33152684D01*
X44427699Y-33262239D01*
X44435730Y-33265226D01*
X44690992Y-33340839D01*
X44699344Y-33342706D01*
X44962512Y-33382976D01*
X44971045Y-33383692D01*
X45237239Y-33387874D01*
X45245791Y-33387425D01*
X45510093Y-33355442D01*
X45518492Y-33353840D01*
X45776022Y-33286278D01*
X45784124Y-33283551D01*
X46030091Y-33181668D01*
X46037759Y-33177862D01*
X46267623Y-33043540D01*
X46274704Y-33038727D01*
X46355797Y-32975143D01*
X46362699Y-32965480D01*
X54066093Y-32965480D01*
X54073145Y-32975449D01*
X54105066Y-33002138D01*
X54111982Y-33007162D01*
X54337508Y-33148635D01*
X54345059Y-33152684D01*
X54587699Y-33262239D01*
X54595730Y-33265226D01*
X54850992Y-33340839D01*
X54859344Y-33342706D01*
X55122512Y-33382976D01*
X55131045Y-33383692D01*
X55397239Y-33387874D01*
X55405791Y-33387425D01*
X55670093Y-33355442D01*
X55678492Y-33353840D01*
X55936022Y-33286278D01*
X55944124Y-33283551D01*
X56190091Y-33181668D01*
X56197759Y-33177862D01*
X56427623Y-33043540D01*
X56434704Y-33038727D01*
X56515797Y-32975143D01*
X56524267Y-32963284D01*
X56517750Y-32951660D01*
X55308612Y-31742522D01*
X55294668Y-31734908D01*
X55292835Y-31735039D01*
X55286220Y-31739290D01*
X54073385Y-32952125D01*
X54066093Y-32965480D01*
X46362699Y-32965480D01*
X46364267Y-32963284D01*
X46357750Y-32951660D01*
X45148612Y-31742522D01*
X45134668Y-31734908D01*
X45132835Y-31735039D01*
X45126220Y-31739290D01*
X43913385Y-32952125D01*
X43906093Y-32965480D01*
X34872700Y-32965480D01*
X34872700Y-31611182D01*
X34892702Y-31543061D01*
X34946358Y-31496568D01*
X34954469Y-31493201D01*
X34977493Y-31484569D01*
X34977496Y-31484568D01*
X34985905Y-31481415D01*
X35102461Y-31394061D01*
X35132766Y-31353625D01*
X43115948Y-31353625D01*
X43131273Y-31619412D01*
X43132346Y-31627912D01*
X43183602Y-31889162D01*
X43185815Y-31897424D01*
X43272054Y-32149307D01*
X43275370Y-32157194D01*
X43394993Y-32395040D01*
X43399349Y-32402406D01*
X43529753Y-32592144D01*
X43540007Y-32600488D01*
X43553748Y-32593342D01*
X44763778Y-31383312D01*
X44770156Y-31371632D01*
X45500208Y-31371632D01*
X45500339Y-31373465D01*
X45504590Y-31380080D01*
X46716895Y-32592385D01*
X46729105Y-32599052D01*
X46740604Y-32590363D01*
X46838982Y-32456438D01*
X46843566Y-32449215D01*
X46970598Y-32215251D01*
X46974166Y-32207457D01*
X47068270Y-31958417D01*
X47070743Y-31950225D01*
X47130181Y-31690710D01*
X47131519Y-31682256D01*
X47155347Y-31415272D01*
X47155593Y-31410335D01*
X47155984Y-31372985D01*
X47155841Y-31368019D01*
X47154860Y-31353625D01*
X53275948Y-31353625D01*
X53291273Y-31619412D01*
X53292346Y-31627912D01*
X53343602Y-31889162D01*
X53345815Y-31897424D01*
X53432054Y-32149307D01*
X53435370Y-32157194D01*
X53554993Y-32395040D01*
X53559349Y-32402406D01*
X53689753Y-32592144D01*
X53700007Y-32600488D01*
X53713748Y-32593342D01*
X54923778Y-31383312D01*
X54930156Y-31371632D01*
X55660208Y-31371632D01*
X55660339Y-31373465D01*
X55664590Y-31380080D01*
X56876895Y-32592385D01*
X56889105Y-32599052D01*
X56900604Y-32590363D01*
X56998982Y-32456438D01*
X57003566Y-32449215D01*
X57130598Y-32215251D01*
X57134166Y-32207457D01*
X57228270Y-31958417D01*
X57230743Y-31950225D01*
X57290181Y-31690710D01*
X57291519Y-31682256D01*
X57315347Y-31415272D01*
X57315593Y-31410335D01*
X57315984Y-31372985D01*
X57315841Y-31368019D01*
X57297611Y-31100603D01*
X57296450Y-31092129D01*
X57242460Y-30831422D01*
X57240161Y-30823187D01*
X57227739Y-30788108D01*
X100804553Y-30788108D01*
X100806531Y-30797529D01*
X100817998Y-30800500D01*
X103272885Y-30800500D01*
X103288124Y-30796025D01*
X103289329Y-30794635D01*
X103291000Y-30786952D01*
X103291000Y-30782385D01*
X103799000Y-30782385D01*
X103803475Y-30797624D01*
X103804865Y-30798829D01*
X103812548Y-30800500D01*
X106269945Y-30800500D01*
X106284738Y-30796156D01*
X106285858Y-30789819D01*
X106229033Y-30553127D01*
X106225984Y-30543742D01*
X106131408Y-30315415D01*
X106126927Y-30306621D01*
X105997792Y-30095892D01*
X105991999Y-30087919D01*
X105831484Y-29899980D01*
X105824520Y-29893016D01*
X105636581Y-29732501D01*
X105628608Y-29726708D01*
X105417879Y-29597573D01*
X105409085Y-29593092D01*
X105180758Y-29498516D01*
X105171373Y-29495467D01*
X104931060Y-29437772D01*
X104921313Y-29436229D01*
X104736624Y-29421693D01*
X104731697Y-29421500D01*
X103817115Y-29421500D01*
X103801876Y-29425975D01*
X103800671Y-29427365D01*
X103799000Y-29435048D01*
X103799000Y-30782385D01*
X103291000Y-30782385D01*
X103291000Y-29439615D01*
X103286525Y-29424376D01*
X103285135Y-29423171D01*
X103277452Y-29421500D01*
X102358303Y-29421500D01*
X102353376Y-29421693D01*
X102168687Y-29436229D01*
X102158940Y-29437772D01*
X101918627Y-29495467D01*
X101909242Y-29498516D01*
X101680915Y-29593092D01*
X101672121Y-29597573D01*
X101461392Y-29726708D01*
X101453419Y-29732501D01*
X101265480Y-29893016D01*
X101258516Y-29899980D01*
X101098001Y-30087919D01*
X101092208Y-30095892D01*
X100963073Y-30306621D01*
X100958592Y-30315415D01*
X100864016Y-30543742D01*
X100860967Y-30553127D01*
X100804553Y-30788108D01*
X57227739Y-30788108D01*
X57151288Y-30572219D01*
X57147891Y-30564369D01*
X57025783Y-30327790D01*
X57021345Y-30320463D01*
X56901215Y-30149534D01*
X56890693Y-30141153D01*
X56877305Y-30148205D01*
X55667822Y-31357688D01*
X55660208Y-31371632D01*
X54930156Y-31371632D01*
X54931392Y-31369368D01*
X54931261Y-31367535D01*
X54927010Y-31360920D01*
X53714239Y-30148149D01*
X53702229Y-30141590D01*
X53690490Y-30150558D01*
X53581346Y-30302448D01*
X53576824Y-30309743D01*
X53452257Y-30545010D01*
X53448771Y-30552838D01*
X53357280Y-30802848D01*
X53354891Y-30811071D01*
X53298175Y-31071196D01*
X53296926Y-31079652D01*
X53276037Y-31345074D01*
X53275948Y-31353625D01*
X47154860Y-31353625D01*
X47137611Y-31100603D01*
X47136450Y-31092129D01*
X47082460Y-30831422D01*
X47080161Y-30823187D01*
X46991288Y-30572219D01*
X46987891Y-30564369D01*
X46865783Y-30327790D01*
X46861345Y-30320463D01*
X46741215Y-30149534D01*
X46730693Y-30141153D01*
X46717305Y-30148205D01*
X45507822Y-31357688D01*
X45500208Y-31371632D01*
X44770156Y-31371632D01*
X44771392Y-31369368D01*
X44771261Y-31367535D01*
X44767010Y-31360920D01*
X43554239Y-30148149D01*
X43542229Y-30141590D01*
X43530490Y-30150558D01*
X43421346Y-30302448D01*
X43416824Y-30309743D01*
X43292257Y-30545010D01*
X43288771Y-30552838D01*
X43197280Y-30802848D01*
X43194891Y-30811071D01*
X43138175Y-31071196D01*
X43136926Y-31079652D01*
X43116037Y-31345074D01*
X43115948Y-31353625D01*
X35132766Y-31353625D01*
X35189815Y-31277505D01*
X35240945Y-31141116D01*
X35247700Y-31078934D01*
X35247700Y-29982666D01*
X35240945Y-29920484D01*
X35189815Y-29784095D01*
X35184995Y-29777664D01*
X43907048Y-29777664D01*
X43913444Y-29788934D01*
X45122988Y-30998478D01*
X45136932Y-31006092D01*
X45138765Y-31005961D01*
X45145380Y-31001710D01*
X46357734Y-29789356D01*
X46364118Y-29777664D01*
X54067048Y-29777664D01*
X54073444Y-29788934D01*
X55282988Y-30998478D01*
X55296932Y-31006092D01*
X55298765Y-31005961D01*
X55305380Y-31001710D01*
X56517734Y-29789356D01*
X56524925Y-29776187D01*
X56517603Y-29765950D01*
X56469388Y-29726487D01*
X56462416Y-29721532D01*
X56235417Y-29582427D01*
X56227819Y-29578455D01*
X55984050Y-29471447D01*
X55975996Y-29468548D01*
X55719955Y-29395613D01*
X55711577Y-29393831D01*
X55448008Y-29356320D01*
X55439461Y-29355693D01*
X55173236Y-29354298D01*
X55164702Y-29354835D01*
X54900747Y-29389586D01*
X54892349Y-29391279D01*
X54635559Y-29461529D01*
X54627472Y-29464345D01*
X54382597Y-29568794D01*
X54374957Y-29572687D01*
X54146523Y-29709401D01*
X54139491Y-29714288D01*
X54075517Y-29765541D01*
X54067048Y-29777664D01*
X46364118Y-29777664D01*
X46364925Y-29776187D01*
X46357603Y-29765950D01*
X46309388Y-29726487D01*
X46302416Y-29721532D01*
X46075417Y-29582427D01*
X46067819Y-29578455D01*
X45824050Y-29471447D01*
X45815996Y-29468548D01*
X45559955Y-29395613D01*
X45551577Y-29393831D01*
X45288008Y-29356320D01*
X45279461Y-29355693D01*
X45013236Y-29354298D01*
X45004702Y-29354835D01*
X44740747Y-29389586D01*
X44732349Y-29391279D01*
X44475559Y-29461529D01*
X44467472Y-29464345D01*
X44222597Y-29568794D01*
X44214957Y-29572687D01*
X43986523Y-29709401D01*
X43979491Y-29714288D01*
X43915517Y-29765541D01*
X43907048Y-29777664D01*
X35184995Y-29777664D01*
X35102461Y-29667539D01*
X34985905Y-29580185D01*
X34849516Y-29529055D01*
X34787334Y-29522300D01*
X33691066Y-29522300D01*
X33628884Y-29529055D01*
X33492495Y-29580185D01*
X33375939Y-29667539D01*
X33288585Y-29784095D01*
X33237455Y-29920484D01*
X33230700Y-29982666D01*
X33230700Y-31078934D01*
X33237455Y-31141116D01*
X33288585Y-31277505D01*
X33375939Y-31394061D01*
X33492495Y-31481415D01*
X33500904Y-31484568D01*
X33500907Y-31484569D01*
X33523931Y-31493201D01*
X33580695Y-31535843D01*
X33605394Y-31602405D01*
X33605700Y-31611182D01*
X33605700Y-33821500D01*
X33585698Y-33889621D01*
X33532042Y-33936114D01*
X33479700Y-33947500D01*
X33463266Y-33947500D01*
X33401084Y-33954255D01*
X33264695Y-34005385D01*
X33148139Y-34092739D01*
X33060785Y-34209295D01*
X33057633Y-34217703D01*
X33016319Y-34327907D01*
X32973677Y-34384671D01*
X32907116Y-34409371D01*
X32837767Y-34394163D01*
X32805143Y-34368476D01*
X32754551Y-34312875D01*
X32754542Y-34312866D01*
X32751070Y-34309051D01*
X32747019Y-34305852D01*
X32747015Y-34305848D01*
X32579814Y-34173800D01*
X32579810Y-34173798D01*
X32575759Y-34170598D01*
X32539428Y-34150542D01*
X32523536Y-34141769D01*
X32380189Y-34062638D01*
X32375320Y-34060914D01*
X32375316Y-34060912D01*
X32174487Y-33989795D01*
X32174483Y-33989794D01*
X32169612Y-33988069D01*
X32164519Y-33987162D01*
X32164516Y-33987161D01*
X31954773Y-33949800D01*
X31954767Y-33949799D01*
X31949684Y-33948894D01*
X31875852Y-33947992D01*
X31731481Y-33946228D01*
X31731479Y-33946228D01*
X31726311Y-33946165D01*
X31505491Y-33979955D01*
X31293156Y-34049357D01*
X31095007Y-34152507D01*
X31090874Y-34155610D01*
X31090871Y-34155612D01*
X30920500Y-34283530D01*
X30916365Y-34286635D01*
X30891194Y-34312975D01*
X30822680Y-34384671D01*
X30762029Y-34448138D01*
X30759115Y-34452410D01*
X30759114Y-34452411D01*
X30746599Y-34470757D01*
X30655737Y-34603957D01*
X30654298Y-34606066D01*
X30599387Y-34651069D01*
X30528862Y-34659240D01*
X30465115Y-34627986D01*
X30444418Y-34603502D01*
X30363826Y-34478926D01*
X30357536Y-34470757D01*
X30214206Y-34313240D01*
X30206673Y-34306215D01*
X30039539Y-34174222D01*
X30030952Y-34168517D01*
X29844517Y-34065599D01*
X29835105Y-34061369D01*
X29634359Y-33990280D01*
X29624388Y-33987646D01*
X29553237Y-33974972D01*
X29539940Y-33976432D01*
X29535400Y-33990989D01*
X29535400Y-36624517D01*
X29027400Y-36624517D01*
X29027400Y-35578115D01*
X29022925Y-35562876D01*
X29021535Y-35561671D01*
X29013852Y-35560000D01*
X27013515Y-35560000D01*
X26998276Y-35564475D01*
X26997071Y-35565865D01*
X26995400Y-35573548D01*
X26995400Y-36624517D01*
X26487400Y-36624517D01*
X26487400Y-35578115D01*
X26482925Y-35562876D01*
X26481535Y-35561671D01*
X26473852Y-35560000D01*
X25424625Y-35560000D01*
X25411094Y-35563973D01*
X25409657Y-35573966D01*
X22225500Y-35573966D01*
X22225500Y-35040183D01*
X25405789Y-35040183D01*
X25407312Y-35048607D01*
X25419692Y-35052000D01*
X26469285Y-35052000D01*
X26484524Y-35047525D01*
X26485729Y-35046135D01*
X26487400Y-35038452D01*
X26487400Y-35033885D01*
X26995400Y-35033885D01*
X26999875Y-35049124D01*
X27001265Y-35050329D01*
X27008948Y-35052000D01*
X29009285Y-35052000D01*
X29024524Y-35047525D01*
X29025729Y-35046135D01*
X29027400Y-35038452D01*
X29027400Y-33989102D01*
X29023482Y-33975758D01*
X29009206Y-33973771D01*
X28970724Y-33979660D01*
X28960688Y-33982051D01*
X28758268Y-34048212D01*
X28748759Y-34052209D01*
X28559863Y-34150542D01*
X28551138Y-34156036D01*
X28380833Y-34283905D01*
X28373126Y-34290748D01*
X28225990Y-34444717D01*
X28219504Y-34452727D01*
X28114593Y-34606521D01*
X28059682Y-34651524D01*
X27989157Y-34659695D01*
X27925410Y-34628441D01*
X27904713Y-34603957D01*
X27823827Y-34478926D01*
X27817536Y-34470757D01*
X27674206Y-34313240D01*
X27666673Y-34306215D01*
X27499539Y-34174222D01*
X27490952Y-34168517D01*
X27304517Y-34065599D01*
X27295105Y-34061369D01*
X27094359Y-33990280D01*
X27084388Y-33987646D01*
X27013237Y-33974972D01*
X26999940Y-33976432D01*
X26995400Y-33990989D01*
X26995400Y-35033885D01*
X26487400Y-35033885D01*
X26487400Y-33989102D01*
X26483482Y-33975758D01*
X26469206Y-33973771D01*
X26430724Y-33979660D01*
X26420688Y-33982051D01*
X26218268Y-34048212D01*
X26208759Y-34052209D01*
X26019863Y-34150542D01*
X26011138Y-34156036D01*
X25840833Y-34283905D01*
X25833126Y-34290748D01*
X25685990Y-34444717D01*
X25679504Y-34452727D01*
X25559498Y-34628649D01*
X25554400Y-34637623D01*
X25464738Y-34830783D01*
X25461175Y-34840470D01*
X25405789Y-35040183D01*
X22225500Y-35040183D01*
X22225500Y-27183703D01*
X23544743Y-27183703D01*
X23545302Y-27187947D01*
X23545302Y-27187951D01*
X23547650Y-27205784D01*
X23582268Y-27468734D01*
X23658129Y-27746036D01*
X23770923Y-28010476D01*
X23918561Y-28257161D01*
X24098313Y-28481528D01*
X24306851Y-28679423D01*
X24540317Y-28847186D01*
X24544112Y-28849195D01*
X24544113Y-28849196D01*
X24565869Y-28860715D01*
X24794392Y-28981712D01*
X25064373Y-29080511D01*
X25345264Y-29141755D01*
X25373841Y-29144004D01*
X25568282Y-29159307D01*
X25568291Y-29159307D01*
X25570739Y-29159500D01*
X25726271Y-29159500D01*
X25728407Y-29159354D01*
X25728418Y-29159354D01*
X25936548Y-29145165D01*
X25936554Y-29145164D01*
X25940825Y-29144873D01*
X25945020Y-29144004D01*
X25945022Y-29144004D01*
X26081583Y-29115724D01*
X26222342Y-29086574D01*
X26493343Y-28990607D01*
X26748812Y-28858750D01*
X26752313Y-28856289D01*
X26752317Y-28856287D01*
X26869654Y-28773821D01*
X26984023Y-28693441D01*
X27133360Y-28554668D01*
X27191479Y-28500661D01*
X27191481Y-28500658D01*
X27194622Y-28497740D01*
X27376713Y-28275268D01*
X27526927Y-28030142D01*
X27642483Y-27766898D01*
X27649041Y-27743878D01*
X27720068Y-27494534D01*
X27721244Y-27490406D01*
X27725130Y-27463103D01*
X113384543Y-27463103D01*
X113385102Y-27467347D01*
X113385102Y-27467351D01*
X113388681Y-27494534D01*
X113422068Y-27748134D01*
X113497929Y-28025436D01*
X113499613Y-28029384D01*
X113602934Y-28271614D01*
X113610723Y-28289876D01*
X113622493Y-28309542D01*
X113733141Y-28494421D01*
X113758361Y-28536561D01*
X113938113Y-28760928D01*
X114146651Y-28958823D01*
X114380117Y-29126586D01*
X114383912Y-29128595D01*
X114383913Y-29128596D01*
X114405669Y-29140115D01*
X114634192Y-29261112D01*
X114658499Y-29270007D01*
X114892647Y-29355693D01*
X114904173Y-29359911D01*
X115185064Y-29421155D01*
X115210680Y-29423171D01*
X115408082Y-29438707D01*
X115408091Y-29438707D01*
X115410539Y-29438900D01*
X115566071Y-29438900D01*
X115568207Y-29438754D01*
X115568218Y-29438754D01*
X115776348Y-29424565D01*
X115776354Y-29424564D01*
X115780625Y-29424273D01*
X115784820Y-29423404D01*
X115784822Y-29423404D01*
X115948123Y-29389586D01*
X116062142Y-29365974D01*
X116333143Y-29270007D01*
X116575021Y-29145165D01*
X116584805Y-29140115D01*
X116584806Y-29140115D01*
X116588612Y-29138150D01*
X116592113Y-29135689D01*
X116592117Y-29135687D01*
X116796508Y-28992038D01*
X116823823Y-28972841D01*
X117034422Y-28777140D01*
X117216513Y-28554668D01*
X117366727Y-28309542D01*
X117482283Y-28046298D01*
X117485844Y-28033799D01*
X117559868Y-27773934D01*
X117561044Y-27769806D01*
X117601551Y-27485184D01*
X117601616Y-27472876D01*
X117603035Y-27201983D01*
X117603035Y-27201976D01*
X117603057Y-27197697D01*
X117600651Y-27179417D01*
X117581579Y-27034554D01*
X117565532Y-26912666D01*
X117489671Y-26635364D01*
X117376877Y-26370924D01*
X117229239Y-26124239D01*
X117049487Y-25899872D01*
X116840949Y-25701977D01*
X116607483Y-25534214D01*
X116585643Y-25522650D01*
X116562454Y-25510372D01*
X116353408Y-25399688D01*
X116083427Y-25300889D01*
X115802536Y-25239645D01*
X115771485Y-25237201D01*
X115579518Y-25222093D01*
X115579509Y-25222093D01*
X115577061Y-25221900D01*
X115421529Y-25221900D01*
X115419393Y-25222046D01*
X115419382Y-25222046D01*
X115211252Y-25236235D01*
X115211246Y-25236236D01*
X115206975Y-25236527D01*
X115202780Y-25237396D01*
X115202778Y-25237396D01*
X115162617Y-25245713D01*
X114925458Y-25294826D01*
X114654457Y-25390793D01*
X114398988Y-25522650D01*
X114395487Y-25525111D01*
X114395483Y-25525113D01*
X114385394Y-25532204D01*
X114163777Y-25687959D01*
X114148692Y-25701977D01*
X114010508Y-25830386D01*
X113953178Y-25883660D01*
X113771087Y-26106132D01*
X113620873Y-26351258D01*
X113505317Y-26614502D01*
X113504142Y-26618629D01*
X113504141Y-26618630D01*
X113498195Y-26639503D01*
X113426556Y-26890994D01*
X113386049Y-27175616D01*
X113386027Y-27179905D01*
X113386026Y-27179912D01*
X113384565Y-27458817D01*
X113384543Y-27463103D01*
X27725130Y-27463103D01*
X27761751Y-27205784D01*
X27761794Y-27197697D01*
X27763235Y-26922583D01*
X27763235Y-26922576D01*
X27763257Y-26918297D01*
X27761971Y-26908524D01*
X27753103Y-26841169D01*
X78592001Y-26841169D01*
X78592371Y-26847990D01*
X78597895Y-26898852D01*
X78601521Y-26914104D01*
X78646676Y-27034554D01*
X78655214Y-27050149D01*
X78731715Y-27152224D01*
X78744276Y-27164785D01*
X78846351Y-27241286D01*
X78861946Y-27249824D01*
X78982394Y-27294978D01*
X78997649Y-27298605D01*
X79048514Y-27304131D01*
X79055328Y-27304500D01*
X79577885Y-27304500D01*
X79593124Y-27300025D01*
X79594329Y-27298635D01*
X79596000Y-27290952D01*
X79596000Y-27286384D01*
X80104000Y-27286384D01*
X80108475Y-27301623D01*
X80109865Y-27302828D01*
X80117548Y-27304499D01*
X80644669Y-27304499D01*
X80651490Y-27304129D01*
X80702352Y-27298605D01*
X80717604Y-27294979D01*
X80838054Y-27249824D01*
X80853649Y-27241286D01*
X80955724Y-27164785D01*
X80968285Y-27152224D01*
X81044786Y-27050149D01*
X81053324Y-27034554D01*
X81098478Y-26914106D01*
X81102105Y-26898851D01*
X81107631Y-26847986D01*
X81108000Y-26841172D01*
X81108000Y-26841169D01*
X83992001Y-26841169D01*
X83992371Y-26847990D01*
X83997895Y-26898852D01*
X84001521Y-26914104D01*
X84046676Y-27034554D01*
X84055214Y-27050149D01*
X84131715Y-27152224D01*
X84144276Y-27164785D01*
X84246351Y-27241286D01*
X84261946Y-27249824D01*
X84382394Y-27294978D01*
X84397649Y-27298605D01*
X84448514Y-27304131D01*
X84455328Y-27304500D01*
X84977885Y-27304500D01*
X84993124Y-27300025D01*
X84994329Y-27298635D01*
X84996000Y-27290952D01*
X84996000Y-27286384D01*
X85504000Y-27286384D01*
X85508475Y-27301623D01*
X85509865Y-27302828D01*
X85517548Y-27304499D01*
X86044669Y-27304499D01*
X86051490Y-27304129D01*
X86102352Y-27298605D01*
X86117604Y-27294979D01*
X86238054Y-27249824D01*
X86253649Y-27241286D01*
X86355724Y-27164785D01*
X86368285Y-27152224D01*
X86444786Y-27050149D01*
X86453324Y-27034554D01*
X86498478Y-26914106D01*
X86502105Y-26898851D01*
X86507631Y-26847986D01*
X86508000Y-26841172D01*
X86508000Y-25318615D01*
X86503525Y-25303376D01*
X86502135Y-25302171D01*
X86494452Y-25300500D01*
X85522115Y-25300500D01*
X85506876Y-25304975D01*
X85505671Y-25306365D01*
X85504000Y-25314048D01*
X85504000Y-27286384D01*
X84996000Y-27286384D01*
X84996000Y-25318615D01*
X84991525Y-25303376D01*
X84990135Y-25302171D01*
X84982452Y-25300500D01*
X84010116Y-25300500D01*
X83994877Y-25304975D01*
X83993672Y-25306365D01*
X83992001Y-25314048D01*
X83992001Y-26841169D01*
X81108000Y-26841169D01*
X81108000Y-25318615D01*
X81103525Y-25303376D01*
X81102135Y-25302171D01*
X81094452Y-25300500D01*
X80122115Y-25300500D01*
X80106876Y-25304975D01*
X80105671Y-25306365D01*
X80104000Y-25314048D01*
X80104000Y-27286384D01*
X79596000Y-27286384D01*
X79596000Y-25318615D01*
X79591525Y-25303376D01*
X79590135Y-25302171D01*
X79582452Y-25300500D01*
X78610116Y-25300500D01*
X78594877Y-25304975D01*
X78593672Y-25306365D01*
X78592001Y-25314048D01*
X78592001Y-26841169D01*
X27753103Y-26841169D01*
X27726292Y-26637522D01*
X27725732Y-26633266D01*
X27649871Y-26355964D01*
X27552602Y-26127921D01*
X27538763Y-26095476D01*
X27538761Y-26095472D01*
X27537077Y-26091524D01*
X27420612Y-25896925D01*
X27391643Y-25848521D01*
X27391640Y-25848517D01*
X27389439Y-25844839D01*
X27209687Y-25620472D01*
X27001149Y-25422577D01*
X26767683Y-25254814D01*
X26745843Y-25243250D01*
X26705519Y-25221900D01*
X26513608Y-25120288D01*
X26243627Y-25021489D01*
X25962736Y-24960245D01*
X25931685Y-24957801D01*
X25739718Y-24942693D01*
X25739709Y-24942693D01*
X25737261Y-24942500D01*
X25581729Y-24942500D01*
X25579593Y-24942646D01*
X25579582Y-24942646D01*
X25371452Y-24956835D01*
X25371446Y-24956836D01*
X25367175Y-24957127D01*
X25362980Y-24957996D01*
X25362978Y-24957996D01*
X25226417Y-24986276D01*
X25085658Y-25015426D01*
X24814657Y-25111393D01*
X24810848Y-25113359D01*
X24566173Y-25239645D01*
X24559188Y-25243250D01*
X24555687Y-25245711D01*
X24555683Y-25245713D01*
X24545594Y-25252804D01*
X24323977Y-25408559D01*
X24113378Y-25604260D01*
X23931287Y-25826732D01*
X23781073Y-26071858D01*
X23665517Y-26335102D01*
X23664342Y-26339229D01*
X23664341Y-26339230D01*
X23660915Y-26351258D01*
X23586756Y-26611594D01*
X23546249Y-26896216D01*
X23546227Y-26900505D01*
X23546226Y-26900512D01*
X23544785Y-27175616D01*
X23544743Y-27183703D01*
X22225500Y-27183703D01*
X22225500Y-23748500D01*
X22245502Y-23680379D01*
X22299158Y-23633886D01*
X22351500Y-23622500D01*
X78466000Y-23622500D01*
X78534121Y-23642502D01*
G37*
%TD.AperFunction*%
%TD*%
M02*
