%TF.GenerationSoftware,KiCad,Pcbnew,(6.0.7)*%
%TF.CreationDate,2022-11-04T12:42:17-04:00*%
%TF.ProjectId,DCR_MainBoard,4443525f-4d61-4696-9e42-6f6172642e6b,rev?*%
%TF.SameCoordinates,Original*%
%TF.FileFunction,Soldermask,Bot*%
%TF.FilePolarity,Negative*%
%FSLAX46Y46*%
G04 Gerber Fmt 4.6, Leading zero omitted, Abs format (unit mm)*
G04 Created by KiCad (PCBNEW (6.0.7)) date 2022-11-04 12:42:17*
%MOMM*%
%LPD*%
G01*
G04 APERTURE LIST*
%ADD10R,1.600000X1.600000*%
%ADD11C,1.600000*%
%ADD12O,5.000000X2.500000*%
%ADD13O,4.500000X2.250000*%
%ADD14O,2.250000X4.500000*%
%ADD15C,3.200000*%
%ADD16C,4.600000*%
%ADD17C,1.800000*%
%ADD18O,1.600000X1.600000*%
%ADD19R,2.000000X1.905000*%
%ADD20O,2.000000X1.905000*%
%ADD21R,1.000000X1.000000*%
%ADD22R,1.398000X1.398000*%
%ADD23C,1.398000*%
%ADD24C,3.015000*%
%ADD25R,3.092000X3.092000*%
%ADD26C,3.092000*%
%ADD27R,1.500000X3.500000*%
%ADD28R,1.800000X1.800000*%
%ADD29R,2.200000X2.200000*%
%ADD30O,2.200000X2.200000*%
%ADD31R,1.700000X1.700000*%
%ADD32O,1.700000X1.700000*%
G04 APERTURE END LIST*
D10*
%TO.C,C7*%
X112435000Y-48601849D03*
D11*
X112435000Y-51101849D03*
%TD*%
D10*
%TO.C,C11*%
X84318000Y-58664000D03*
D11*
X86818000Y-58664000D03*
%TD*%
D12*
%TO.C,J4*%
X103545000Y-37054500D03*
D13*
X103545000Y-31054500D03*
D14*
X98845000Y-34054500D03*
%TD*%
D15*
%TO.C,H4*%
X115493800Y-27330400D03*
%TD*%
D16*
%TO.C,RV1*%
X54809000Y-74538000D03*
X44809000Y-74538000D03*
D17*
X47309000Y-77838000D03*
X49809000Y-77838000D03*
X52309000Y-77838000D03*
%TD*%
D15*
%TO.C,H3*%
X115366800Y-78587600D03*
%TD*%
D10*
%TO.C,U4*%
X71882000Y-60960000D03*
D18*
X71882000Y-63500000D03*
X71882000Y-66040000D03*
X71882000Y-68580000D03*
X79502000Y-68580000D03*
X79502000Y-66040000D03*
X79502000Y-63500000D03*
X79502000Y-60960000D03*
%TD*%
D15*
%TO.C,H2*%
X25654000Y-78740000D03*
%TD*%
D19*
%TO.C,U3*%
X102783000Y-48738500D03*
D20*
X102783000Y-51278500D03*
X102783000Y-53818500D03*
%TD*%
D10*
%TO.C,C15*%
X85334000Y-73396000D03*
D11*
X87834000Y-73396000D03*
%TD*%
D21*
%TO.C,TP6*%
X82600800Y-78613000D03*
%TD*%
D15*
%TO.C,H1*%
X25654000Y-27051000D03*
%TD*%
D22*
%TO.C,J1*%
X50215800Y-36450500D03*
D23*
X47675800Y-36450500D03*
D24*
X45135800Y-31370500D03*
X55295800Y-31370500D03*
%TD*%
D11*
%TO.C,J5*%
X99672000Y-74047000D03*
X99672000Y-78747000D03*
D25*
X102172000Y-80647000D03*
D26*
X102172000Y-73747000D03*
X97472000Y-71947000D03*
%TD*%
D21*
%TO.C,TP3*%
X53975000Y-59156600D03*
%TD*%
D10*
%TO.C,C3*%
X48666400Y-61077349D03*
D11*
X48666400Y-63577349D03*
%TD*%
D10*
%TO.C,U2*%
X48422400Y-44968000D03*
D18*
X48422400Y-47508000D03*
X48422400Y-50048000D03*
X48422400Y-52588000D03*
X56042400Y-52588000D03*
X56042400Y-50048000D03*
X56042400Y-47508000D03*
X56042400Y-44968000D03*
%TD*%
D27*
%TO.C,J3*%
X85250000Y-25046500D03*
X79850000Y-25046500D03*
%TD*%
D28*
%TO.C,D1*%
X115265200Y-39065200D03*
D17*
X115265200Y-36525200D03*
%TD*%
D29*
%TO.C,D2*%
X111165000Y-42134500D03*
D30*
X101005000Y-42134500D03*
%TD*%
D21*
%TO.C,TP4*%
X66446400Y-72034400D03*
%TD*%
D10*
%TO.C,C12*%
X75428000Y-54600000D03*
D11*
X77928000Y-54600000D03*
%TD*%
D21*
%TO.C,TP2*%
X49479200Y-41351200D03*
%TD*%
%TO.C,TP1*%
X34239200Y-30530800D03*
%TD*%
D31*
%TO.C,U1*%
X34361400Y-35306000D03*
D32*
X31821400Y-35306000D03*
X29281400Y-35306000D03*
X26741400Y-35306000D03*
X26695400Y-68326000D03*
X29235400Y-68326000D03*
X31775400Y-68326000D03*
D31*
X34315400Y-68326000D03*
%TD*%
D21*
%TO.C,TP5*%
X60553600Y-49987200D03*
%TD*%
M02*
