%TF.GenerationSoftware,KiCad,Pcbnew,(6.0.7)*%
%TF.CreationDate,2022-11-04T12:42:10-04:00*%
%TF.ProjectId,DCR_MainBoard,4443525f-4d61-4696-9e42-6f6172642e6b,rev?*%
%TF.SameCoordinates,Original*%
%TF.FileFunction,Drillmap*%
%TF.FilePolarity,Positive*%
%FSLAX45Y45*%
G04 Gerber Fmt 4.5, Leading zero omitted, Abs format (unit mm)*
G04 Created by KiCad (PCBNEW (6.0.7)) date 2022-11-04 12:42:10*
%MOMM*%
%LPD*%
G01*
G04 APERTURE LIST*
%ADD10C,0.100000*%
%ADD11C,0.200000*%
%ADD12C,0.040000*%
%ADD13C,0.050000*%
%ADD14C,0.080000*%
%ADD15C,0.089000*%
%ADD16C,0.090000*%
%ADD17C,0.110000*%
%ADD18C,0.201000*%
%ADD19C,0.206160*%
%ADD20C,0.230000*%
%ADD21C,0.160000*%
%ADD22C,0.320000*%
G04 APERTURE END LIST*
D10*
X11938000Y-8280400D02*
X2171700Y-8280400D01*
X2171700Y-8280400D02*
X2171700Y-2311400D01*
X2171700Y-2311400D02*
X11938000Y-2311400D01*
X11938000Y-2311400D02*
X11938000Y-8280400D01*
D11*
D12*
X7071680Y-3259140D02*
X7111680Y-3299140D01*
X7111680Y-3259140D02*
X7071680Y-3299140D01*
D13*
X3448920Y-3053080D02*
G75*
G03*
X3448920Y-3053080I-25000J0D01*
G01*
X4972920Y-4135120D02*
G75*
G03*
X4972920Y-4135120I-25000J0D01*
G01*
X5422500Y-5915660D02*
G75*
G03*
X5422500Y-5915660I-25000J0D01*
G01*
X6080360Y-4998720D02*
G75*
G03*
X6080360Y-4998720I-25000J0D01*
G01*
X6669640Y-7203440D02*
G75*
G03*
X6669640Y-7203440I-25000J0D01*
G01*
X8285080Y-7861300D02*
G75*
G03*
X8285080Y-7861300I-25000J0D01*
G01*
D14*
X4842240Y-4456800D02*
X4842240Y-4536800D01*
X4802240Y-4496800D02*
X4882240Y-4496800D01*
X4842240Y-4710800D02*
X4842240Y-4790800D01*
X4802240Y-4750800D02*
X4882240Y-4750800D01*
X4842240Y-4964800D02*
X4842240Y-5044800D01*
X4802240Y-5004800D02*
X4882240Y-5004800D01*
X4842240Y-5218800D02*
X4842240Y-5298800D01*
X4802240Y-5258800D02*
X4882240Y-5258800D01*
X4866640Y-6067735D02*
X4866640Y-6147735D01*
X4826640Y-6107735D02*
X4906640Y-6107735D01*
X4866640Y-6317735D02*
X4866640Y-6397735D01*
X4826640Y-6357735D02*
X4906640Y-6357735D01*
X5604240Y-4456800D02*
X5604240Y-4536800D01*
X5564240Y-4496800D02*
X5644240Y-4496800D01*
X5604240Y-4710800D02*
X5604240Y-4790800D01*
X5564240Y-4750800D02*
X5644240Y-4750800D01*
X5604240Y-4964800D02*
X5604240Y-5044800D01*
X5564240Y-5004800D02*
X5644240Y-5004800D01*
X5604240Y-5218800D02*
X5604240Y-5298800D01*
X5564240Y-5258800D02*
X5644240Y-5258800D01*
X7188200Y-6056000D02*
X7188200Y-6136000D01*
X7148200Y-6096000D02*
X7228200Y-6096000D01*
X7188200Y-6310000D02*
X7188200Y-6390000D01*
X7148200Y-6350000D02*
X7228200Y-6350000D01*
X7188200Y-6564000D02*
X7188200Y-6644000D01*
X7148200Y-6604000D02*
X7228200Y-6604000D01*
X7188200Y-6818000D02*
X7188200Y-6898000D01*
X7148200Y-6858000D02*
X7228200Y-6858000D01*
X7542800Y-5420000D02*
X7542800Y-5500000D01*
X7502800Y-5460000D02*
X7582800Y-5460000D01*
X7792800Y-5420000D02*
X7792800Y-5500000D01*
X7752800Y-5460000D02*
X7832800Y-5460000D01*
X7950200Y-6056000D02*
X7950200Y-6136000D01*
X7910200Y-6096000D02*
X7990200Y-6096000D01*
X7950200Y-6310000D02*
X7950200Y-6390000D01*
X7910200Y-6350000D02*
X7990200Y-6350000D01*
X7950200Y-6564000D02*
X7950200Y-6644000D01*
X7910200Y-6604000D02*
X7990200Y-6604000D01*
X7950200Y-6818000D02*
X7950200Y-6898000D01*
X7910200Y-6858000D02*
X7990200Y-6858000D01*
X8431800Y-5826400D02*
X8431800Y-5906400D01*
X8391800Y-5866400D02*
X8471800Y-5866400D01*
X8533400Y-7299600D02*
X8533400Y-7379600D01*
X8493400Y-7339600D02*
X8573400Y-7339600D01*
X8681800Y-5826400D02*
X8681800Y-5906400D01*
X8641800Y-5866400D02*
X8721800Y-5866400D01*
X8783400Y-7299600D02*
X8783400Y-7379600D01*
X8743400Y-7339600D02*
X8823400Y-7339600D01*
X11243500Y-4820185D02*
X11243500Y-4900185D01*
X11203500Y-4860185D02*
X11283500Y-4860185D01*
X11243500Y-5070185D02*
X11243500Y-5150185D01*
X11203500Y-5110185D02*
X11283500Y-5110185D01*
D15*
X4799047Y-3676517D02*
X4799047Y-3613583D01*
X4736113Y-3613583D01*
X4736113Y-3676517D01*
X4799047Y-3676517D01*
X5053047Y-3676517D02*
X5053047Y-3613583D01*
X4990113Y-3613583D01*
X4990113Y-3676517D01*
X5053047Y-3676517D01*
D16*
X11526520Y-3697520D02*
X11571520Y-3652520D01*
X11526520Y-3607520D01*
X11481520Y-3652520D01*
X11526520Y-3697520D01*
X11526520Y-3951520D02*
X11571520Y-3906520D01*
X11526520Y-3861520D01*
X11481520Y-3906520D01*
X11526520Y-3951520D01*
D10*
X2619540Y-6782600D02*
X2719540Y-6882600D01*
X2719540Y-6782600D02*
X2619540Y-6882600D01*
X2719540Y-6832600D02*
G75*
G03*
X2719540Y-6832600I-50000J0D01*
G01*
X2624140Y-3480600D02*
X2724140Y-3580600D01*
X2724140Y-3480600D02*
X2624140Y-3580600D01*
X2724140Y-3530600D02*
G75*
G03*
X2724140Y-3530600I-50000J0D01*
G01*
X2873540Y-6782600D02*
X2973540Y-6882600D01*
X2973540Y-6782600D02*
X2873540Y-6882600D01*
X2973540Y-6832600D02*
G75*
G03*
X2973540Y-6832600I-50000J0D01*
G01*
X2878140Y-3480600D02*
X2978140Y-3580600D01*
X2978140Y-3480600D02*
X2878140Y-3580600D01*
X2978140Y-3530600D02*
G75*
G03*
X2978140Y-3530600I-50000J0D01*
G01*
X3127540Y-6782600D02*
X3227540Y-6882600D01*
X3227540Y-6782600D02*
X3127540Y-6882600D01*
X3227540Y-6832600D02*
G75*
G03*
X3227540Y-6832600I-50000J0D01*
G01*
X3132140Y-3480600D02*
X3232140Y-3580600D01*
X3232140Y-3480600D02*
X3132140Y-3580600D01*
X3232140Y-3530600D02*
G75*
G03*
X3232140Y-3530600I-50000J0D01*
G01*
X3381540Y-6782600D02*
X3481540Y-6882600D01*
X3481540Y-6782600D02*
X3381540Y-6882600D01*
X3481540Y-6832600D02*
G75*
G03*
X3481540Y-6832600I-50000J0D01*
G01*
X3386140Y-3480600D02*
X3486140Y-3580600D01*
X3486140Y-3480600D02*
X3386140Y-3580600D01*
X3486140Y-3530600D02*
G75*
G03*
X3486140Y-3530600I-50000J0D01*
G01*
X4680900Y-7733800D02*
X4780900Y-7833800D01*
X4780900Y-7733800D02*
X4680900Y-7833800D01*
X4780900Y-7783800D02*
G75*
G03*
X4780900Y-7783800I-50000J0D01*
G01*
X4930900Y-7733800D02*
X5030900Y-7833800D01*
X5030900Y-7733800D02*
X4930900Y-7833800D01*
X5030900Y-7783800D02*
G75*
G03*
X5030900Y-7783800I-50000J0D01*
G01*
X5180900Y-7733800D02*
X5280900Y-7833800D01*
X5280900Y-7733800D02*
X5180900Y-7833800D01*
X5280900Y-7783800D02*
G75*
G03*
X5280900Y-7783800I-50000J0D01*
G01*
X9834500Y-3355450D02*
X9934500Y-3455450D01*
X9934500Y-3355450D02*
X9834500Y-3455450D01*
X9934500Y-3405450D02*
G75*
G03*
X9934500Y-3405450I-50000J0D01*
G01*
D11*
X9934500Y-3505450D02*
X9934500Y-3305450D01*
X9834500Y-3505450D02*
X9834500Y-3305450D01*
X9934500Y-3305450D02*
G75*
G03*
X9834500Y-3305450I-50000J0D01*
G01*
X9834500Y-3505450D02*
G75*
G03*
X9934500Y-3505450I50000J0D01*
G01*
D10*
X10304500Y-3055450D02*
X10404500Y-3155450D01*
X10404500Y-3055450D02*
X10304500Y-3155450D01*
X10404500Y-3105450D02*
G75*
G03*
X10404500Y-3105450I-50000J0D01*
G01*
D11*
X10254500Y-3155450D02*
X10454500Y-3155450D01*
X10254500Y-3055450D02*
X10454500Y-3055450D01*
X10454500Y-3155450D02*
G75*
G03*
X10454500Y-3055450I0J50000D01*
G01*
X10254500Y-3055450D02*
G75*
G03*
X10254500Y-3155450I0J-50000D01*
G01*
D10*
X10304500Y-3655450D02*
X10404500Y-3755450D01*
X10404500Y-3655450D02*
X10304500Y-3755450D01*
X10404500Y-3705450D02*
G75*
G03*
X10404500Y-3705450I-50000J0D01*
G01*
D11*
X10229500Y-3755450D02*
X10479500Y-3755450D01*
X10229500Y-3655450D02*
X10479500Y-3655450D01*
X10479500Y-3755450D02*
G75*
G03*
X10479500Y-3655450I0J50000D01*
G01*
X10229500Y-3655450D02*
G75*
G03*
X10229500Y-3755450I0J-50000D01*
G01*
D17*
X10045500Y-4158450D02*
X10155500Y-4268450D01*
X10155500Y-4158450D02*
X10045500Y-4268450D01*
X10100500Y-4158450D02*
X10100500Y-4268450D01*
X10045500Y-4213450D02*
X10155500Y-4213450D01*
X10223300Y-4818850D02*
X10333300Y-4928850D01*
X10333300Y-4818850D02*
X10223300Y-4928850D01*
X10278300Y-4818850D02*
X10278300Y-4928850D01*
X10223300Y-4873850D02*
X10333300Y-4873850D01*
X10223300Y-5072850D02*
X10333300Y-5182850D01*
X10333300Y-5072850D02*
X10223300Y-5182850D01*
X10278300Y-5072850D02*
X10278300Y-5182850D01*
X10223300Y-5127850D02*
X10333300Y-5127850D01*
X10223300Y-5326850D02*
X10333300Y-5436850D01*
X10333300Y-5326850D02*
X10223300Y-5436850D01*
X10278300Y-5326850D02*
X10278300Y-5436850D01*
X10223300Y-5381850D02*
X10333300Y-5381850D01*
X11061500Y-4158450D02*
X11171500Y-4268450D01*
X11171500Y-4158450D02*
X11061500Y-4268450D01*
X11116500Y-4158450D02*
X11116500Y-4268450D01*
X11061500Y-4213450D02*
X11171500Y-4213450D01*
D18*
X4413080Y-3036550D02*
X4614080Y-3237550D01*
X4614080Y-3036550D02*
X4413080Y-3237550D01*
X4584645Y-3208115D02*
X4584645Y-3065985D01*
X4442515Y-3065985D01*
X4442515Y-3208115D01*
X4584645Y-3208115D01*
X5429080Y-3036550D02*
X5630080Y-3237550D01*
X5630080Y-3036550D02*
X5429080Y-3237550D01*
X5600645Y-3208115D02*
X5600645Y-3065985D01*
X5458515Y-3065985D01*
X5458515Y-3208115D01*
X5600645Y-3208115D01*
D19*
X9644120Y-7091620D02*
X9850280Y-7297780D01*
X9850280Y-7091620D02*
X9644120Y-7297780D01*
X9747200Y-7297780D02*
X9850280Y-7194700D01*
X9747200Y-7091620D01*
X9644120Y-7194700D01*
X9747200Y-7297780D01*
X10114120Y-7271620D02*
X10320280Y-7477780D01*
X10320280Y-7271620D02*
X10114120Y-7477780D01*
X10217200Y-7477780D02*
X10320280Y-7374700D01*
X10217200Y-7271620D01*
X10114120Y-7374700D01*
X10217200Y-7477780D01*
X10114120Y-7961620D02*
X10320280Y-8167780D01*
X10320280Y-7961620D02*
X10114120Y-8167780D01*
X10217200Y-8167780D02*
X10320280Y-8064700D01*
X10217200Y-7961620D01*
X10114120Y-8064700D01*
X10217200Y-8167780D01*
D20*
X4480900Y-7338800D02*
X4480900Y-7568800D01*
X4365900Y-7453800D02*
X4595900Y-7453800D01*
X4595900Y-7453800D02*
G75*
G03*
X4595900Y-7453800I-115000J0D01*
G01*
X5480900Y-7338800D02*
X5480900Y-7568800D01*
X5365900Y-7453800D02*
X5595900Y-7453800D01*
X5595900Y-7453800D02*
G75*
G03*
X5595900Y-7453800I-115000J0D01*
G01*
D21*
X10023769Y-7461269D02*
X10023769Y-7348131D01*
X9910631Y-7348131D01*
X9910631Y-7461269D01*
X10023769Y-7461269D01*
X10047200Y-7404700D02*
G75*
G03*
X10047200Y-7404700I-80000J0D01*
G01*
X10023769Y-7931269D02*
X10023769Y-7818131D01*
X9910631Y-7818131D01*
X9910631Y-7931269D01*
X10023769Y-7931269D01*
X10047200Y-7874700D02*
G75*
G03*
X10047200Y-7874700I-80000J0D01*
G01*
D22*
X2565400Y-2865100D02*
X2725400Y-2705100D01*
X2565400Y-2545100D01*
X2405400Y-2705100D01*
X2565400Y-2865100D01*
X2725400Y-2705100D02*
G75*
G03*
X2725400Y-2705100I-160000J0D01*
G01*
X2565400Y-8034000D02*
X2725400Y-7874000D01*
X2565400Y-7714000D01*
X2405400Y-7874000D01*
X2565400Y-8034000D01*
X2725400Y-7874000D02*
G75*
G03*
X2725400Y-7874000I-160000J0D01*
G01*
X11536680Y-8018760D02*
X11696680Y-7858760D01*
X11536680Y-7698760D01*
X11376680Y-7858760D01*
X11536680Y-8018760D01*
X11696680Y-7858760D02*
G75*
G03*
X11696680Y-7858760I-160000J0D01*
G01*
X11549380Y-2893040D02*
X11709380Y-2733040D01*
X11549380Y-2573040D01*
X11389380Y-2733040D01*
X11549380Y-2893040D01*
X11709380Y-2733040D02*
G75*
G03*
X11709380Y-2733040I-160000J0D01*
G01*
D11*
X2424319Y-8595876D02*
X2424319Y-8395876D01*
X2471938Y-8395876D01*
X2500510Y-8405400D01*
X2519557Y-8424448D01*
X2529081Y-8443495D01*
X2538605Y-8481590D01*
X2538605Y-8510162D01*
X2529081Y-8548257D01*
X2519557Y-8567305D01*
X2500510Y-8586352D01*
X2471938Y-8595876D01*
X2424319Y-8595876D01*
X2624319Y-8595876D02*
X2624319Y-8462543D01*
X2624319Y-8500638D02*
X2633843Y-8481590D01*
X2643367Y-8472067D01*
X2662414Y-8462543D01*
X2681462Y-8462543D01*
X2748129Y-8595876D02*
X2748129Y-8462543D01*
X2748129Y-8395876D02*
X2738605Y-8405400D01*
X2748129Y-8414924D01*
X2757652Y-8405400D01*
X2748129Y-8395876D01*
X2748129Y-8414924D01*
X2871938Y-8595876D02*
X2852890Y-8586352D01*
X2843367Y-8567305D01*
X2843367Y-8395876D01*
X2976700Y-8595876D02*
X2957652Y-8586352D01*
X2948128Y-8567305D01*
X2948128Y-8395876D01*
X3205271Y-8595876D02*
X3205271Y-8395876D01*
X3271938Y-8538733D01*
X3338605Y-8395876D01*
X3338605Y-8595876D01*
X3519557Y-8595876D02*
X3519557Y-8491114D01*
X3510033Y-8472067D01*
X3490986Y-8462543D01*
X3452890Y-8462543D01*
X3433843Y-8472067D01*
X3519557Y-8586352D02*
X3500509Y-8595876D01*
X3452890Y-8595876D01*
X3433843Y-8586352D01*
X3424319Y-8567305D01*
X3424319Y-8548257D01*
X3433843Y-8529210D01*
X3452890Y-8519686D01*
X3500509Y-8519686D01*
X3519557Y-8510162D01*
X3614795Y-8462543D02*
X3614795Y-8662543D01*
X3614795Y-8472067D02*
X3633843Y-8462543D01*
X3671938Y-8462543D01*
X3690986Y-8472067D01*
X3700509Y-8481590D01*
X3710033Y-8500638D01*
X3710033Y-8557781D01*
X3700509Y-8576829D01*
X3690986Y-8586352D01*
X3671938Y-8595876D01*
X3633843Y-8595876D01*
X3614795Y-8586352D01*
X3795748Y-8576829D02*
X3805271Y-8586352D01*
X3795748Y-8595876D01*
X3786224Y-8586352D01*
X3795748Y-8576829D01*
X3795748Y-8595876D01*
X3795748Y-8472067D02*
X3805271Y-8481590D01*
X3795748Y-8491114D01*
X3786224Y-8481590D01*
X3795748Y-8472067D01*
X3795748Y-8491114D01*
D12*
X2126700Y-8905400D02*
X2166700Y-8945400D01*
X2166700Y-8905400D02*
X2126700Y-8945400D01*
D11*
X2462414Y-8815876D02*
X2481462Y-8815876D01*
X2500510Y-8825400D01*
X2510033Y-8834924D01*
X2519557Y-8853971D01*
X2529081Y-8892067D01*
X2529081Y-8939686D01*
X2519557Y-8977781D01*
X2510033Y-8996829D01*
X2500510Y-9006352D01*
X2481462Y-9015876D01*
X2462414Y-9015876D01*
X2443367Y-9006352D01*
X2433843Y-8996829D01*
X2424319Y-8977781D01*
X2414795Y-8939686D01*
X2414795Y-8892067D01*
X2424319Y-8853971D01*
X2433843Y-8834924D01*
X2443367Y-8825400D01*
X2462414Y-8815876D01*
X2614795Y-8996829D02*
X2624319Y-9006352D01*
X2614795Y-9015876D01*
X2605271Y-9006352D01*
X2614795Y-8996829D01*
X2614795Y-9015876D01*
X2795748Y-8882543D02*
X2795748Y-9015876D01*
X2748129Y-8806352D02*
X2700510Y-8949210D01*
X2824319Y-8949210D01*
X2938605Y-8815876D02*
X2957652Y-8815876D01*
X2976700Y-8825400D01*
X2986224Y-8834924D01*
X2995748Y-8853971D01*
X3005271Y-8892067D01*
X3005271Y-8939686D01*
X2995748Y-8977781D01*
X2986224Y-8996829D01*
X2976700Y-9006352D01*
X2957652Y-9015876D01*
X2938605Y-9015876D01*
X2919557Y-9006352D01*
X2910033Y-8996829D01*
X2900509Y-8977781D01*
X2890986Y-8939686D01*
X2890986Y-8892067D01*
X2900509Y-8853971D01*
X2910033Y-8834924D01*
X2919557Y-8825400D01*
X2938605Y-8815876D01*
X3129081Y-8815876D02*
X3148128Y-8815876D01*
X3167176Y-8825400D01*
X3176700Y-8834924D01*
X3186224Y-8853971D01*
X3195748Y-8892067D01*
X3195748Y-8939686D01*
X3186224Y-8977781D01*
X3176700Y-8996829D01*
X3167176Y-9006352D01*
X3148128Y-9015876D01*
X3129081Y-9015876D01*
X3110033Y-9006352D01*
X3100509Y-8996829D01*
X3090986Y-8977781D01*
X3081462Y-8939686D01*
X3081462Y-8892067D01*
X3090986Y-8853971D01*
X3100509Y-8834924D01*
X3110033Y-8825400D01*
X3129081Y-8815876D01*
X3281462Y-9015876D02*
X3281462Y-8882543D01*
X3281462Y-8901590D02*
X3290986Y-8892067D01*
X3310033Y-8882543D01*
X3338605Y-8882543D01*
X3357652Y-8892067D01*
X3367176Y-8911114D01*
X3367176Y-9015876D01*
X3367176Y-8911114D02*
X3376700Y-8892067D01*
X3395748Y-8882543D01*
X3424319Y-8882543D01*
X3443367Y-8892067D01*
X3452890Y-8911114D01*
X3452890Y-9015876D01*
X3548128Y-9015876D02*
X3548128Y-8882543D01*
X3548128Y-8901590D02*
X3557652Y-8892067D01*
X3576700Y-8882543D01*
X3605271Y-8882543D01*
X3624319Y-8892067D01*
X3633843Y-8911114D01*
X3633843Y-9015876D01*
X3633843Y-8911114D02*
X3643367Y-8892067D01*
X3662414Y-8882543D01*
X3690986Y-8882543D01*
X3710033Y-8892067D01*
X3719557Y-8911114D01*
X3719557Y-9015876D01*
X4110033Y-8806352D02*
X3938605Y-9063495D01*
X4367176Y-8815876D02*
X4386224Y-8815876D01*
X4405271Y-8825400D01*
X4414795Y-8834924D01*
X4424319Y-8853971D01*
X4433843Y-8892067D01*
X4433843Y-8939686D01*
X4424319Y-8977781D01*
X4414795Y-8996829D01*
X4405271Y-9006352D01*
X4386224Y-9015876D01*
X4367176Y-9015876D01*
X4348129Y-9006352D01*
X4338605Y-8996829D01*
X4329081Y-8977781D01*
X4319557Y-8939686D01*
X4319557Y-8892067D01*
X4329081Y-8853971D01*
X4338605Y-8834924D01*
X4348129Y-8825400D01*
X4367176Y-8815876D01*
X4519557Y-8996829D02*
X4529081Y-9006352D01*
X4519557Y-9015876D01*
X4510033Y-9006352D01*
X4519557Y-8996829D01*
X4519557Y-9015876D01*
X4652890Y-8815876D02*
X4671938Y-8815876D01*
X4690986Y-8825400D01*
X4700510Y-8834924D01*
X4710033Y-8853971D01*
X4719557Y-8892067D01*
X4719557Y-8939686D01*
X4710033Y-8977781D01*
X4700510Y-8996829D01*
X4690986Y-9006352D01*
X4671938Y-9015876D01*
X4652890Y-9015876D01*
X4633843Y-9006352D01*
X4624319Y-8996829D01*
X4614795Y-8977781D01*
X4605271Y-8939686D01*
X4605271Y-8892067D01*
X4614795Y-8853971D01*
X4624319Y-8834924D01*
X4633843Y-8825400D01*
X4652890Y-8815876D01*
X4910033Y-9015876D02*
X4795748Y-9015876D01*
X4852890Y-9015876D02*
X4852890Y-8815876D01*
X4833843Y-8844448D01*
X4814795Y-8863495D01*
X4795748Y-8873019D01*
X5090986Y-8815876D02*
X4995748Y-8815876D01*
X4986224Y-8911114D01*
X4995748Y-8901590D01*
X5014795Y-8892067D01*
X5062414Y-8892067D01*
X5081462Y-8901590D01*
X5090986Y-8911114D01*
X5100510Y-8930162D01*
X5100510Y-8977781D01*
X5090986Y-8996829D01*
X5081462Y-9006352D01*
X5062414Y-9015876D01*
X5014795Y-9015876D01*
X4995748Y-9006352D01*
X4986224Y-8996829D01*
X5167176Y-8815876D02*
X5300510Y-8815876D01*
X5214795Y-9015876D01*
X5367176Y-8815876D02*
X5367176Y-8853971D01*
X5443367Y-8815876D02*
X5443367Y-8853971D01*
X5738605Y-9092067D02*
X5729081Y-9082543D01*
X5710033Y-9053971D01*
X5700509Y-9034924D01*
X5690986Y-9006352D01*
X5681462Y-8958733D01*
X5681462Y-8920638D01*
X5690986Y-8873019D01*
X5700509Y-8844448D01*
X5710033Y-8825400D01*
X5729081Y-8796829D01*
X5738605Y-8787305D01*
X5919557Y-9015876D02*
X5805271Y-9015876D01*
X5862414Y-9015876D02*
X5862414Y-8815876D01*
X5843367Y-8844448D01*
X5824319Y-8863495D01*
X5805271Y-8873019D01*
X6157652Y-9015876D02*
X6157652Y-8815876D01*
X6243367Y-9015876D02*
X6243367Y-8911114D01*
X6233843Y-8892067D01*
X6214795Y-8882543D01*
X6186224Y-8882543D01*
X6167176Y-8892067D01*
X6157652Y-8901590D01*
X6367176Y-9015876D02*
X6348128Y-9006352D01*
X6338605Y-8996829D01*
X6329081Y-8977781D01*
X6329081Y-8920638D01*
X6338605Y-8901590D01*
X6348128Y-8892067D01*
X6367176Y-8882543D01*
X6395748Y-8882543D01*
X6414795Y-8892067D01*
X6424319Y-8901590D01*
X6433843Y-8920638D01*
X6433843Y-8977781D01*
X6424319Y-8996829D01*
X6414795Y-9006352D01*
X6395748Y-9015876D01*
X6367176Y-9015876D01*
X6548128Y-9015876D02*
X6529081Y-9006352D01*
X6519557Y-8987305D01*
X6519557Y-8815876D01*
X6700509Y-9006352D02*
X6681462Y-9015876D01*
X6643367Y-9015876D01*
X6624319Y-9006352D01*
X6614795Y-8987305D01*
X6614795Y-8911114D01*
X6624319Y-8892067D01*
X6643367Y-8882543D01*
X6681462Y-8882543D01*
X6700509Y-8892067D01*
X6710033Y-8911114D01*
X6710033Y-8930162D01*
X6614795Y-8949210D01*
X6776700Y-9092067D02*
X6786224Y-9082543D01*
X6805271Y-9053971D01*
X6814795Y-9034924D01*
X6824319Y-9006352D01*
X6833843Y-8958733D01*
X6833843Y-8920638D01*
X6824319Y-8873019D01*
X6814795Y-8844448D01*
X6805271Y-8825400D01*
X6786224Y-8796829D01*
X6776700Y-8787305D01*
D13*
X2166700Y-9189400D02*
G75*
G03*
X2166700Y-9189400I-25000J0D01*
G01*
D11*
X2462414Y-9079876D02*
X2481462Y-9079876D01*
X2500510Y-9089400D01*
X2510033Y-9098924D01*
X2519557Y-9117971D01*
X2529081Y-9156067D01*
X2529081Y-9203686D01*
X2519557Y-9241781D01*
X2510033Y-9260829D01*
X2500510Y-9270352D01*
X2481462Y-9279876D01*
X2462414Y-9279876D01*
X2443367Y-9270352D01*
X2433843Y-9260829D01*
X2424319Y-9241781D01*
X2414795Y-9203686D01*
X2414795Y-9156067D01*
X2424319Y-9117971D01*
X2433843Y-9098924D01*
X2443367Y-9089400D01*
X2462414Y-9079876D01*
X2614795Y-9260829D02*
X2624319Y-9270352D01*
X2614795Y-9279876D01*
X2605271Y-9270352D01*
X2614795Y-9260829D01*
X2614795Y-9279876D01*
X2805271Y-9079876D02*
X2710033Y-9079876D01*
X2700510Y-9175114D01*
X2710033Y-9165590D01*
X2729081Y-9156067D01*
X2776700Y-9156067D01*
X2795748Y-9165590D01*
X2805271Y-9175114D01*
X2814795Y-9194162D01*
X2814795Y-9241781D01*
X2805271Y-9260829D01*
X2795748Y-9270352D01*
X2776700Y-9279876D01*
X2729081Y-9279876D01*
X2710033Y-9270352D01*
X2700510Y-9260829D01*
X2938605Y-9079876D02*
X2957652Y-9079876D01*
X2976700Y-9089400D01*
X2986224Y-9098924D01*
X2995748Y-9117971D01*
X3005271Y-9156067D01*
X3005271Y-9203686D01*
X2995748Y-9241781D01*
X2986224Y-9260829D01*
X2976700Y-9270352D01*
X2957652Y-9279876D01*
X2938605Y-9279876D01*
X2919557Y-9270352D01*
X2910033Y-9260829D01*
X2900509Y-9241781D01*
X2890986Y-9203686D01*
X2890986Y-9156067D01*
X2900509Y-9117971D01*
X2910033Y-9098924D01*
X2919557Y-9089400D01*
X2938605Y-9079876D01*
X3129081Y-9079876D02*
X3148128Y-9079876D01*
X3167176Y-9089400D01*
X3176700Y-9098924D01*
X3186224Y-9117971D01*
X3195748Y-9156067D01*
X3195748Y-9203686D01*
X3186224Y-9241781D01*
X3176700Y-9260829D01*
X3167176Y-9270352D01*
X3148128Y-9279876D01*
X3129081Y-9279876D01*
X3110033Y-9270352D01*
X3100509Y-9260829D01*
X3090986Y-9241781D01*
X3081462Y-9203686D01*
X3081462Y-9156067D01*
X3090986Y-9117971D01*
X3100509Y-9098924D01*
X3110033Y-9089400D01*
X3129081Y-9079876D01*
X3281462Y-9279876D02*
X3281462Y-9146543D01*
X3281462Y-9165590D02*
X3290986Y-9156067D01*
X3310033Y-9146543D01*
X3338605Y-9146543D01*
X3357652Y-9156067D01*
X3367176Y-9175114D01*
X3367176Y-9279876D01*
X3367176Y-9175114D02*
X3376700Y-9156067D01*
X3395748Y-9146543D01*
X3424319Y-9146543D01*
X3443367Y-9156067D01*
X3452890Y-9175114D01*
X3452890Y-9279876D01*
X3548128Y-9279876D02*
X3548128Y-9146543D01*
X3548128Y-9165590D02*
X3557652Y-9156067D01*
X3576700Y-9146543D01*
X3605271Y-9146543D01*
X3624319Y-9156067D01*
X3633843Y-9175114D01*
X3633843Y-9279876D01*
X3633843Y-9175114D02*
X3643367Y-9156067D01*
X3662414Y-9146543D01*
X3690986Y-9146543D01*
X3710033Y-9156067D01*
X3719557Y-9175114D01*
X3719557Y-9279876D01*
X4110033Y-9070352D02*
X3938605Y-9327495D01*
X4367176Y-9079876D02*
X4386224Y-9079876D01*
X4405271Y-9089400D01*
X4414795Y-9098924D01*
X4424319Y-9117971D01*
X4433843Y-9156067D01*
X4433843Y-9203686D01*
X4424319Y-9241781D01*
X4414795Y-9260829D01*
X4405271Y-9270352D01*
X4386224Y-9279876D01*
X4367176Y-9279876D01*
X4348129Y-9270352D01*
X4338605Y-9260829D01*
X4329081Y-9241781D01*
X4319557Y-9203686D01*
X4319557Y-9156067D01*
X4329081Y-9117971D01*
X4338605Y-9098924D01*
X4348129Y-9089400D01*
X4367176Y-9079876D01*
X4519557Y-9260829D02*
X4529081Y-9270352D01*
X4519557Y-9279876D01*
X4510033Y-9270352D01*
X4519557Y-9260829D01*
X4519557Y-9279876D01*
X4652890Y-9079876D02*
X4671938Y-9079876D01*
X4690986Y-9089400D01*
X4700510Y-9098924D01*
X4710033Y-9117971D01*
X4719557Y-9156067D01*
X4719557Y-9203686D01*
X4710033Y-9241781D01*
X4700510Y-9260829D01*
X4690986Y-9270352D01*
X4671938Y-9279876D01*
X4652890Y-9279876D01*
X4633843Y-9270352D01*
X4624319Y-9260829D01*
X4614795Y-9241781D01*
X4605271Y-9203686D01*
X4605271Y-9156067D01*
X4614795Y-9117971D01*
X4624319Y-9098924D01*
X4633843Y-9089400D01*
X4652890Y-9079876D01*
X4910033Y-9279876D02*
X4795748Y-9279876D01*
X4852890Y-9279876D02*
X4852890Y-9079876D01*
X4833843Y-9108448D01*
X4814795Y-9127495D01*
X4795748Y-9137019D01*
X5005271Y-9279876D02*
X5043367Y-9279876D01*
X5062414Y-9270352D01*
X5071938Y-9260829D01*
X5090986Y-9232257D01*
X5100510Y-9194162D01*
X5100510Y-9117971D01*
X5090986Y-9098924D01*
X5081462Y-9089400D01*
X5062414Y-9079876D01*
X5024319Y-9079876D01*
X5005271Y-9089400D01*
X4995748Y-9098924D01*
X4986224Y-9117971D01*
X4986224Y-9165590D01*
X4995748Y-9184638D01*
X5005271Y-9194162D01*
X5024319Y-9203686D01*
X5062414Y-9203686D01*
X5081462Y-9194162D01*
X5090986Y-9184638D01*
X5100510Y-9165590D01*
X5167176Y-9079876D02*
X5300510Y-9079876D01*
X5214795Y-9279876D01*
X5367176Y-9079876D02*
X5367176Y-9117971D01*
X5443367Y-9079876D02*
X5443367Y-9117971D01*
X5738605Y-9356067D02*
X5729081Y-9346543D01*
X5710033Y-9317971D01*
X5700509Y-9298924D01*
X5690986Y-9270352D01*
X5681462Y-9222733D01*
X5681462Y-9184638D01*
X5690986Y-9137019D01*
X5700509Y-9108448D01*
X5710033Y-9089400D01*
X5729081Y-9060829D01*
X5738605Y-9051305D01*
X5900509Y-9079876D02*
X5862414Y-9079876D01*
X5843367Y-9089400D01*
X5833843Y-9098924D01*
X5814795Y-9127495D01*
X5805271Y-9165590D01*
X5805271Y-9241781D01*
X5814795Y-9260829D01*
X5824319Y-9270352D01*
X5843367Y-9279876D01*
X5881462Y-9279876D01*
X5900509Y-9270352D01*
X5910033Y-9260829D01*
X5919557Y-9241781D01*
X5919557Y-9194162D01*
X5910033Y-9175114D01*
X5900509Y-9165590D01*
X5881462Y-9156067D01*
X5843367Y-9156067D01*
X5824319Y-9165590D01*
X5814795Y-9175114D01*
X5805271Y-9194162D01*
X6157652Y-9279876D02*
X6157652Y-9079876D01*
X6243367Y-9279876D02*
X6243367Y-9175114D01*
X6233843Y-9156067D01*
X6214795Y-9146543D01*
X6186224Y-9146543D01*
X6167176Y-9156067D01*
X6157652Y-9165590D01*
X6367176Y-9279876D02*
X6348128Y-9270352D01*
X6338605Y-9260829D01*
X6329081Y-9241781D01*
X6329081Y-9184638D01*
X6338605Y-9165590D01*
X6348128Y-9156067D01*
X6367176Y-9146543D01*
X6395748Y-9146543D01*
X6414795Y-9156067D01*
X6424319Y-9165590D01*
X6433843Y-9184638D01*
X6433843Y-9241781D01*
X6424319Y-9260829D01*
X6414795Y-9270352D01*
X6395748Y-9279876D01*
X6367176Y-9279876D01*
X6548128Y-9279876D02*
X6529081Y-9270352D01*
X6519557Y-9251305D01*
X6519557Y-9079876D01*
X6700509Y-9270352D02*
X6681462Y-9279876D01*
X6643367Y-9279876D01*
X6624319Y-9270352D01*
X6614795Y-9251305D01*
X6614795Y-9175114D01*
X6624319Y-9156067D01*
X6643367Y-9146543D01*
X6681462Y-9146543D01*
X6700509Y-9156067D01*
X6710033Y-9175114D01*
X6710033Y-9194162D01*
X6614795Y-9213210D01*
X6786224Y-9270352D02*
X6805271Y-9279876D01*
X6843367Y-9279876D01*
X6862414Y-9270352D01*
X6871938Y-9251305D01*
X6871938Y-9241781D01*
X6862414Y-9222733D01*
X6843367Y-9213210D01*
X6814795Y-9213210D01*
X6795748Y-9203686D01*
X6786224Y-9184638D01*
X6786224Y-9175114D01*
X6795748Y-9156067D01*
X6814795Y-9146543D01*
X6843367Y-9146543D01*
X6862414Y-9156067D01*
X6938605Y-9356067D02*
X6948128Y-9346543D01*
X6967176Y-9317971D01*
X6976700Y-9298924D01*
X6986224Y-9270352D01*
X6995748Y-9222733D01*
X6995748Y-9184638D01*
X6986224Y-9137019D01*
X6976700Y-9108448D01*
X6967176Y-9089400D01*
X6948128Y-9060829D01*
X6938605Y-9051305D01*
D14*
X2126700Y-9413400D02*
X2126700Y-9493400D01*
X2086700Y-9453400D02*
X2166700Y-9453400D01*
D11*
X2462414Y-9343876D02*
X2481462Y-9343876D01*
X2500510Y-9353400D01*
X2510033Y-9362924D01*
X2519557Y-9381971D01*
X2529081Y-9420067D01*
X2529081Y-9467686D01*
X2519557Y-9505781D01*
X2510033Y-9524829D01*
X2500510Y-9534352D01*
X2481462Y-9543876D01*
X2462414Y-9543876D01*
X2443367Y-9534352D01*
X2433843Y-9524829D01*
X2424319Y-9505781D01*
X2414795Y-9467686D01*
X2414795Y-9420067D01*
X2424319Y-9381971D01*
X2433843Y-9362924D01*
X2443367Y-9353400D01*
X2462414Y-9343876D01*
X2614795Y-9524829D02*
X2624319Y-9534352D01*
X2614795Y-9543876D01*
X2605271Y-9534352D01*
X2614795Y-9524829D01*
X2614795Y-9543876D01*
X2738605Y-9429590D02*
X2719557Y-9420067D01*
X2710033Y-9410543D01*
X2700510Y-9391495D01*
X2700510Y-9381971D01*
X2710033Y-9362924D01*
X2719557Y-9353400D01*
X2738605Y-9343876D01*
X2776700Y-9343876D01*
X2795748Y-9353400D01*
X2805271Y-9362924D01*
X2814795Y-9381971D01*
X2814795Y-9391495D01*
X2805271Y-9410543D01*
X2795748Y-9420067D01*
X2776700Y-9429590D01*
X2738605Y-9429590D01*
X2719557Y-9439114D01*
X2710033Y-9448638D01*
X2700510Y-9467686D01*
X2700510Y-9505781D01*
X2710033Y-9524829D01*
X2719557Y-9534352D01*
X2738605Y-9543876D01*
X2776700Y-9543876D01*
X2795748Y-9534352D01*
X2805271Y-9524829D01*
X2814795Y-9505781D01*
X2814795Y-9467686D01*
X2805271Y-9448638D01*
X2795748Y-9439114D01*
X2776700Y-9429590D01*
X2938605Y-9343876D02*
X2957652Y-9343876D01*
X2976700Y-9353400D01*
X2986224Y-9362924D01*
X2995748Y-9381971D01*
X3005271Y-9420067D01*
X3005271Y-9467686D01*
X2995748Y-9505781D01*
X2986224Y-9524829D01*
X2976700Y-9534352D01*
X2957652Y-9543876D01*
X2938605Y-9543876D01*
X2919557Y-9534352D01*
X2910033Y-9524829D01*
X2900509Y-9505781D01*
X2890986Y-9467686D01*
X2890986Y-9420067D01*
X2900509Y-9381971D01*
X2910033Y-9362924D01*
X2919557Y-9353400D01*
X2938605Y-9343876D01*
X3129081Y-9343876D02*
X3148128Y-9343876D01*
X3167176Y-9353400D01*
X3176700Y-9362924D01*
X3186224Y-9381971D01*
X3195748Y-9420067D01*
X3195748Y-9467686D01*
X3186224Y-9505781D01*
X3176700Y-9524829D01*
X3167176Y-9534352D01*
X3148128Y-9543876D01*
X3129081Y-9543876D01*
X3110033Y-9534352D01*
X3100509Y-9524829D01*
X3090986Y-9505781D01*
X3081462Y-9467686D01*
X3081462Y-9420067D01*
X3090986Y-9381971D01*
X3100509Y-9362924D01*
X3110033Y-9353400D01*
X3129081Y-9343876D01*
X3281462Y-9543876D02*
X3281462Y-9410543D01*
X3281462Y-9429590D02*
X3290986Y-9420067D01*
X3310033Y-9410543D01*
X3338605Y-9410543D01*
X3357652Y-9420067D01*
X3367176Y-9439114D01*
X3367176Y-9543876D01*
X3367176Y-9439114D02*
X3376700Y-9420067D01*
X3395748Y-9410543D01*
X3424319Y-9410543D01*
X3443367Y-9420067D01*
X3452890Y-9439114D01*
X3452890Y-9543876D01*
X3548128Y-9543876D02*
X3548128Y-9410543D01*
X3548128Y-9429590D02*
X3557652Y-9420067D01*
X3576700Y-9410543D01*
X3605271Y-9410543D01*
X3624319Y-9420067D01*
X3633843Y-9439114D01*
X3633843Y-9543876D01*
X3633843Y-9439114D02*
X3643367Y-9420067D01*
X3662414Y-9410543D01*
X3690986Y-9410543D01*
X3710033Y-9420067D01*
X3719557Y-9439114D01*
X3719557Y-9543876D01*
X4110033Y-9334352D02*
X3938605Y-9591495D01*
X4367176Y-9343876D02*
X4386224Y-9343876D01*
X4405271Y-9353400D01*
X4414795Y-9362924D01*
X4424319Y-9381971D01*
X4433843Y-9420067D01*
X4433843Y-9467686D01*
X4424319Y-9505781D01*
X4414795Y-9524829D01*
X4405271Y-9534352D01*
X4386224Y-9543876D01*
X4367176Y-9543876D01*
X4348129Y-9534352D01*
X4338605Y-9524829D01*
X4329081Y-9505781D01*
X4319557Y-9467686D01*
X4319557Y-9420067D01*
X4329081Y-9381971D01*
X4338605Y-9362924D01*
X4348129Y-9353400D01*
X4367176Y-9343876D01*
X4519557Y-9524829D02*
X4529081Y-9534352D01*
X4519557Y-9543876D01*
X4510033Y-9534352D01*
X4519557Y-9524829D01*
X4519557Y-9543876D01*
X4652890Y-9343876D02*
X4671938Y-9343876D01*
X4690986Y-9353400D01*
X4700510Y-9362924D01*
X4710033Y-9381971D01*
X4719557Y-9420067D01*
X4719557Y-9467686D01*
X4710033Y-9505781D01*
X4700510Y-9524829D01*
X4690986Y-9534352D01*
X4671938Y-9543876D01*
X4652890Y-9543876D01*
X4633843Y-9534352D01*
X4624319Y-9524829D01*
X4614795Y-9505781D01*
X4605271Y-9467686D01*
X4605271Y-9420067D01*
X4614795Y-9381971D01*
X4624319Y-9362924D01*
X4633843Y-9353400D01*
X4652890Y-9343876D01*
X4786224Y-9343876D02*
X4910033Y-9343876D01*
X4843367Y-9420067D01*
X4871938Y-9420067D01*
X4890986Y-9429590D01*
X4900510Y-9439114D01*
X4910033Y-9458162D01*
X4910033Y-9505781D01*
X4900510Y-9524829D01*
X4890986Y-9534352D01*
X4871938Y-9543876D01*
X4814795Y-9543876D01*
X4795748Y-9534352D01*
X4786224Y-9524829D01*
X5100510Y-9543876D02*
X4986224Y-9543876D01*
X5043367Y-9543876D02*
X5043367Y-9343876D01*
X5024319Y-9372448D01*
X5005271Y-9391495D01*
X4986224Y-9401019D01*
X5281462Y-9343876D02*
X5186224Y-9343876D01*
X5176700Y-9439114D01*
X5186224Y-9429590D01*
X5205271Y-9420067D01*
X5252890Y-9420067D01*
X5271938Y-9429590D01*
X5281462Y-9439114D01*
X5290986Y-9458162D01*
X5290986Y-9505781D01*
X5281462Y-9524829D01*
X5271938Y-9534352D01*
X5252890Y-9543876D01*
X5205271Y-9543876D01*
X5186224Y-9534352D01*
X5176700Y-9524829D01*
X5367176Y-9343876D02*
X5367176Y-9381971D01*
X5443367Y-9343876D02*
X5443367Y-9381971D01*
X5738605Y-9620067D02*
X5729081Y-9610543D01*
X5710033Y-9581971D01*
X5700509Y-9562924D01*
X5690986Y-9534352D01*
X5681462Y-9486733D01*
X5681462Y-9448638D01*
X5690986Y-9401019D01*
X5700509Y-9372448D01*
X5710033Y-9353400D01*
X5729081Y-9324829D01*
X5738605Y-9315305D01*
X5805271Y-9362924D02*
X5814795Y-9353400D01*
X5833843Y-9343876D01*
X5881462Y-9343876D01*
X5900509Y-9353400D01*
X5910033Y-9362924D01*
X5919557Y-9381971D01*
X5919557Y-9401019D01*
X5910033Y-9429590D01*
X5795748Y-9543876D01*
X5919557Y-9543876D01*
X6090986Y-9343876D02*
X6052890Y-9343876D01*
X6033843Y-9353400D01*
X6024319Y-9362924D01*
X6005271Y-9391495D01*
X5995748Y-9429590D01*
X5995748Y-9505781D01*
X6005271Y-9524829D01*
X6014795Y-9534352D01*
X6033843Y-9543876D01*
X6071938Y-9543876D01*
X6090986Y-9534352D01*
X6100509Y-9524829D01*
X6110033Y-9505781D01*
X6110033Y-9458162D01*
X6100509Y-9439114D01*
X6090986Y-9429590D01*
X6071938Y-9420067D01*
X6033843Y-9420067D01*
X6014795Y-9429590D01*
X6005271Y-9439114D01*
X5995748Y-9458162D01*
X6348128Y-9543876D02*
X6348128Y-9343876D01*
X6433843Y-9543876D02*
X6433843Y-9439114D01*
X6424319Y-9420067D01*
X6405271Y-9410543D01*
X6376700Y-9410543D01*
X6357652Y-9420067D01*
X6348128Y-9429590D01*
X6557652Y-9543876D02*
X6538605Y-9534352D01*
X6529081Y-9524829D01*
X6519557Y-9505781D01*
X6519557Y-9448638D01*
X6529081Y-9429590D01*
X6538605Y-9420067D01*
X6557652Y-9410543D01*
X6586224Y-9410543D01*
X6605271Y-9420067D01*
X6614795Y-9429590D01*
X6624319Y-9448638D01*
X6624319Y-9505781D01*
X6614795Y-9524829D01*
X6605271Y-9534352D01*
X6586224Y-9543876D01*
X6557652Y-9543876D01*
X6738605Y-9543876D02*
X6719557Y-9534352D01*
X6710033Y-9515305D01*
X6710033Y-9343876D01*
X6890986Y-9534352D02*
X6871938Y-9543876D01*
X6833843Y-9543876D01*
X6814795Y-9534352D01*
X6805271Y-9515305D01*
X6805271Y-9439114D01*
X6814795Y-9420067D01*
X6833843Y-9410543D01*
X6871938Y-9410543D01*
X6890986Y-9420067D01*
X6900509Y-9439114D01*
X6900509Y-9458162D01*
X6805271Y-9477210D01*
X6976700Y-9534352D02*
X6995748Y-9543876D01*
X7033843Y-9543876D01*
X7052890Y-9534352D01*
X7062414Y-9515305D01*
X7062414Y-9505781D01*
X7052890Y-9486733D01*
X7033843Y-9477210D01*
X7005271Y-9477210D01*
X6986224Y-9467686D01*
X6976700Y-9448638D01*
X6976700Y-9439114D01*
X6986224Y-9420067D01*
X7005271Y-9410543D01*
X7033843Y-9410543D01*
X7052890Y-9420067D01*
X7129081Y-9620067D02*
X7138605Y-9610543D01*
X7157652Y-9581971D01*
X7167176Y-9562924D01*
X7176700Y-9534352D01*
X7186224Y-9486733D01*
X7186224Y-9448638D01*
X7176700Y-9401019D01*
X7167176Y-9372448D01*
X7157652Y-9353400D01*
X7138605Y-9324829D01*
X7129081Y-9315305D01*
D15*
X2153667Y-9748867D02*
X2153667Y-9685933D01*
X2090733Y-9685933D01*
X2090733Y-9748867D01*
X2153667Y-9748867D01*
D11*
X2462414Y-9607876D02*
X2481462Y-9607876D01*
X2500510Y-9617400D01*
X2510033Y-9626924D01*
X2519557Y-9645971D01*
X2529081Y-9684067D01*
X2529081Y-9731686D01*
X2519557Y-9769781D01*
X2510033Y-9788829D01*
X2500510Y-9798352D01*
X2481462Y-9807876D01*
X2462414Y-9807876D01*
X2443367Y-9798352D01*
X2433843Y-9788829D01*
X2424319Y-9769781D01*
X2414795Y-9731686D01*
X2414795Y-9684067D01*
X2424319Y-9645971D01*
X2433843Y-9626924D01*
X2443367Y-9617400D01*
X2462414Y-9607876D01*
X2614795Y-9788829D02*
X2624319Y-9798352D01*
X2614795Y-9807876D01*
X2605271Y-9798352D01*
X2614795Y-9788829D01*
X2614795Y-9807876D01*
X2738605Y-9693590D02*
X2719557Y-9684067D01*
X2710033Y-9674543D01*
X2700510Y-9655495D01*
X2700510Y-9645971D01*
X2710033Y-9626924D01*
X2719557Y-9617400D01*
X2738605Y-9607876D01*
X2776700Y-9607876D01*
X2795748Y-9617400D01*
X2805271Y-9626924D01*
X2814795Y-9645971D01*
X2814795Y-9655495D01*
X2805271Y-9674543D01*
X2795748Y-9684067D01*
X2776700Y-9693590D01*
X2738605Y-9693590D01*
X2719557Y-9703114D01*
X2710033Y-9712638D01*
X2700510Y-9731686D01*
X2700510Y-9769781D01*
X2710033Y-9788829D01*
X2719557Y-9798352D01*
X2738605Y-9807876D01*
X2776700Y-9807876D01*
X2795748Y-9798352D01*
X2805271Y-9788829D01*
X2814795Y-9769781D01*
X2814795Y-9731686D01*
X2805271Y-9712638D01*
X2795748Y-9703114D01*
X2776700Y-9693590D01*
X2910033Y-9807876D02*
X2948128Y-9807876D01*
X2967176Y-9798352D01*
X2976700Y-9788829D01*
X2995748Y-9760257D01*
X3005271Y-9722162D01*
X3005271Y-9645971D01*
X2995748Y-9626924D01*
X2986224Y-9617400D01*
X2967176Y-9607876D01*
X2929081Y-9607876D01*
X2910033Y-9617400D01*
X2900509Y-9626924D01*
X2890986Y-9645971D01*
X2890986Y-9693590D01*
X2900509Y-9712638D01*
X2910033Y-9722162D01*
X2929081Y-9731686D01*
X2967176Y-9731686D01*
X2986224Y-9722162D01*
X2995748Y-9712638D01*
X3005271Y-9693590D01*
X3129081Y-9607876D02*
X3148128Y-9607876D01*
X3167176Y-9617400D01*
X3176700Y-9626924D01*
X3186224Y-9645971D01*
X3195748Y-9684067D01*
X3195748Y-9731686D01*
X3186224Y-9769781D01*
X3176700Y-9788829D01*
X3167176Y-9798352D01*
X3148128Y-9807876D01*
X3129081Y-9807876D01*
X3110033Y-9798352D01*
X3100509Y-9788829D01*
X3090986Y-9769781D01*
X3081462Y-9731686D01*
X3081462Y-9684067D01*
X3090986Y-9645971D01*
X3100509Y-9626924D01*
X3110033Y-9617400D01*
X3129081Y-9607876D01*
X3281462Y-9807876D02*
X3281462Y-9674543D01*
X3281462Y-9693590D02*
X3290986Y-9684067D01*
X3310033Y-9674543D01*
X3338605Y-9674543D01*
X3357652Y-9684067D01*
X3367176Y-9703114D01*
X3367176Y-9807876D01*
X3367176Y-9703114D02*
X3376700Y-9684067D01*
X3395748Y-9674543D01*
X3424319Y-9674543D01*
X3443367Y-9684067D01*
X3452890Y-9703114D01*
X3452890Y-9807876D01*
X3548128Y-9807876D02*
X3548128Y-9674543D01*
X3548128Y-9693590D02*
X3557652Y-9684067D01*
X3576700Y-9674543D01*
X3605271Y-9674543D01*
X3624319Y-9684067D01*
X3633843Y-9703114D01*
X3633843Y-9807876D01*
X3633843Y-9703114D02*
X3643367Y-9684067D01*
X3662414Y-9674543D01*
X3690986Y-9674543D01*
X3710033Y-9684067D01*
X3719557Y-9703114D01*
X3719557Y-9807876D01*
X4110033Y-9598352D02*
X3938605Y-9855495D01*
X4367176Y-9607876D02*
X4386224Y-9607876D01*
X4405271Y-9617400D01*
X4414795Y-9626924D01*
X4424319Y-9645971D01*
X4433843Y-9684067D01*
X4433843Y-9731686D01*
X4424319Y-9769781D01*
X4414795Y-9788829D01*
X4405271Y-9798352D01*
X4386224Y-9807876D01*
X4367176Y-9807876D01*
X4348129Y-9798352D01*
X4338605Y-9788829D01*
X4329081Y-9769781D01*
X4319557Y-9731686D01*
X4319557Y-9684067D01*
X4329081Y-9645971D01*
X4338605Y-9626924D01*
X4348129Y-9617400D01*
X4367176Y-9607876D01*
X4519557Y-9788829D02*
X4529081Y-9798352D01*
X4519557Y-9807876D01*
X4510033Y-9798352D01*
X4519557Y-9788829D01*
X4519557Y-9807876D01*
X4652890Y-9607876D02*
X4671938Y-9607876D01*
X4690986Y-9617400D01*
X4700510Y-9626924D01*
X4710033Y-9645971D01*
X4719557Y-9684067D01*
X4719557Y-9731686D01*
X4710033Y-9769781D01*
X4700510Y-9788829D01*
X4690986Y-9798352D01*
X4671938Y-9807876D01*
X4652890Y-9807876D01*
X4633843Y-9798352D01*
X4624319Y-9788829D01*
X4614795Y-9769781D01*
X4605271Y-9731686D01*
X4605271Y-9684067D01*
X4614795Y-9645971D01*
X4624319Y-9626924D01*
X4633843Y-9617400D01*
X4652890Y-9607876D01*
X4786224Y-9607876D02*
X4910033Y-9607876D01*
X4843367Y-9684067D01*
X4871938Y-9684067D01*
X4890986Y-9693590D01*
X4900510Y-9703114D01*
X4910033Y-9722162D01*
X4910033Y-9769781D01*
X4900510Y-9788829D01*
X4890986Y-9798352D01*
X4871938Y-9807876D01*
X4814795Y-9807876D01*
X4795748Y-9798352D01*
X4786224Y-9788829D01*
X5090986Y-9607876D02*
X4995748Y-9607876D01*
X4986224Y-9703114D01*
X4995748Y-9693590D01*
X5014795Y-9684067D01*
X5062414Y-9684067D01*
X5081462Y-9693590D01*
X5090986Y-9703114D01*
X5100510Y-9722162D01*
X5100510Y-9769781D01*
X5090986Y-9788829D01*
X5081462Y-9798352D01*
X5062414Y-9807876D01*
X5014795Y-9807876D01*
X4995748Y-9798352D01*
X4986224Y-9788829D01*
X5224319Y-9607876D02*
X5243367Y-9607876D01*
X5262414Y-9617400D01*
X5271938Y-9626924D01*
X5281462Y-9645971D01*
X5290986Y-9684067D01*
X5290986Y-9731686D01*
X5281462Y-9769781D01*
X5271938Y-9788829D01*
X5262414Y-9798352D01*
X5243367Y-9807876D01*
X5224319Y-9807876D01*
X5205271Y-9798352D01*
X5195748Y-9788829D01*
X5186224Y-9769781D01*
X5176700Y-9731686D01*
X5176700Y-9684067D01*
X5186224Y-9645971D01*
X5195748Y-9626924D01*
X5205271Y-9617400D01*
X5224319Y-9607876D01*
X5367176Y-9607876D02*
X5367176Y-9645971D01*
X5443367Y-9607876D02*
X5443367Y-9645971D01*
X5738605Y-9884067D02*
X5729081Y-9874543D01*
X5710033Y-9845971D01*
X5700509Y-9826924D01*
X5690986Y-9798352D01*
X5681462Y-9750733D01*
X5681462Y-9712638D01*
X5690986Y-9665019D01*
X5700509Y-9636448D01*
X5710033Y-9617400D01*
X5729081Y-9588829D01*
X5738605Y-9579305D01*
X5805271Y-9626924D02*
X5814795Y-9617400D01*
X5833843Y-9607876D01*
X5881462Y-9607876D01*
X5900509Y-9617400D01*
X5910033Y-9626924D01*
X5919557Y-9645971D01*
X5919557Y-9665019D01*
X5910033Y-9693590D01*
X5795748Y-9807876D01*
X5919557Y-9807876D01*
X6157652Y-9807876D02*
X6157652Y-9607876D01*
X6243367Y-9807876D02*
X6243367Y-9703114D01*
X6233843Y-9684067D01*
X6214795Y-9674543D01*
X6186224Y-9674543D01*
X6167176Y-9684067D01*
X6157652Y-9693590D01*
X6367176Y-9807876D02*
X6348128Y-9798352D01*
X6338605Y-9788829D01*
X6329081Y-9769781D01*
X6329081Y-9712638D01*
X6338605Y-9693590D01*
X6348128Y-9684067D01*
X6367176Y-9674543D01*
X6395748Y-9674543D01*
X6414795Y-9684067D01*
X6424319Y-9693590D01*
X6433843Y-9712638D01*
X6433843Y-9769781D01*
X6424319Y-9788829D01*
X6414795Y-9798352D01*
X6395748Y-9807876D01*
X6367176Y-9807876D01*
X6548128Y-9807876D02*
X6529081Y-9798352D01*
X6519557Y-9779305D01*
X6519557Y-9607876D01*
X6700509Y-9798352D02*
X6681462Y-9807876D01*
X6643367Y-9807876D01*
X6624319Y-9798352D01*
X6614795Y-9779305D01*
X6614795Y-9703114D01*
X6624319Y-9684067D01*
X6643367Y-9674543D01*
X6681462Y-9674543D01*
X6700509Y-9684067D01*
X6710033Y-9703114D01*
X6710033Y-9722162D01*
X6614795Y-9741210D01*
X6786224Y-9798352D02*
X6805271Y-9807876D01*
X6843367Y-9807876D01*
X6862414Y-9798352D01*
X6871938Y-9779305D01*
X6871938Y-9769781D01*
X6862414Y-9750733D01*
X6843367Y-9741210D01*
X6814795Y-9741210D01*
X6795748Y-9731686D01*
X6786224Y-9712638D01*
X6786224Y-9703114D01*
X6795748Y-9684067D01*
X6814795Y-9674543D01*
X6843367Y-9674543D01*
X6862414Y-9684067D01*
X6938605Y-9884067D02*
X6948128Y-9874543D01*
X6967176Y-9845971D01*
X6976700Y-9826924D01*
X6986224Y-9798352D01*
X6995748Y-9750733D01*
X6995748Y-9712638D01*
X6986224Y-9665019D01*
X6976700Y-9636448D01*
X6967176Y-9617400D01*
X6948128Y-9588829D01*
X6938605Y-9579305D01*
D16*
X2121700Y-10026400D02*
X2166700Y-9981400D01*
X2121700Y-9936400D01*
X2076700Y-9981400D01*
X2121700Y-10026400D01*
D11*
X2462414Y-9871876D02*
X2481462Y-9871876D01*
X2500510Y-9881400D01*
X2510033Y-9890924D01*
X2519557Y-9909971D01*
X2529081Y-9948067D01*
X2529081Y-9995686D01*
X2519557Y-10033781D01*
X2510033Y-10052829D01*
X2500510Y-10062352D01*
X2481462Y-10071876D01*
X2462414Y-10071876D01*
X2443367Y-10062352D01*
X2433843Y-10052829D01*
X2424319Y-10033781D01*
X2414795Y-9995686D01*
X2414795Y-9948067D01*
X2424319Y-9909971D01*
X2433843Y-9890924D01*
X2443367Y-9881400D01*
X2462414Y-9871876D01*
X2614795Y-10052829D02*
X2624319Y-10062352D01*
X2614795Y-10071876D01*
X2605271Y-10062352D01*
X2614795Y-10052829D01*
X2614795Y-10071876D01*
X2719557Y-10071876D02*
X2757652Y-10071876D01*
X2776700Y-10062352D01*
X2786224Y-10052829D01*
X2805271Y-10024257D01*
X2814795Y-9986162D01*
X2814795Y-9909971D01*
X2805271Y-9890924D01*
X2795748Y-9881400D01*
X2776700Y-9871876D01*
X2738605Y-9871876D01*
X2719557Y-9881400D01*
X2710033Y-9890924D01*
X2700510Y-9909971D01*
X2700510Y-9957590D01*
X2710033Y-9976638D01*
X2719557Y-9986162D01*
X2738605Y-9995686D01*
X2776700Y-9995686D01*
X2795748Y-9986162D01*
X2805271Y-9976638D01*
X2814795Y-9957590D01*
X2938605Y-9871876D02*
X2957652Y-9871876D01*
X2976700Y-9881400D01*
X2986224Y-9890924D01*
X2995748Y-9909971D01*
X3005271Y-9948067D01*
X3005271Y-9995686D01*
X2995748Y-10033781D01*
X2986224Y-10052829D01*
X2976700Y-10062352D01*
X2957652Y-10071876D01*
X2938605Y-10071876D01*
X2919557Y-10062352D01*
X2910033Y-10052829D01*
X2900509Y-10033781D01*
X2890986Y-9995686D01*
X2890986Y-9948067D01*
X2900509Y-9909971D01*
X2910033Y-9890924D01*
X2919557Y-9881400D01*
X2938605Y-9871876D01*
X3129081Y-9871876D02*
X3148128Y-9871876D01*
X3167176Y-9881400D01*
X3176700Y-9890924D01*
X3186224Y-9909971D01*
X3195748Y-9948067D01*
X3195748Y-9995686D01*
X3186224Y-10033781D01*
X3176700Y-10052829D01*
X3167176Y-10062352D01*
X3148128Y-10071876D01*
X3129081Y-10071876D01*
X3110033Y-10062352D01*
X3100509Y-10052829D01*
X3090986Y-10033781D01*
X3081462Y-9995686D01*
X3081462Y-9948067D01*
X3090986Y-9909971D01*
X3100509Y-9890924D01*
X3110033Y-9881400D01*
X3129081Y-9871876D01*
X3281462Y-10071876D02*
X3281462Y-9938543D01*
X3281462Y-9957590D02*
X3290986Y-9948067D01*
X3310033Y-9938543D01*
X3338605Y-9938543D01*
X3357652Y-9948067D01*
X3367176Y-9967114D01*
X3367176Y-10071876D01*
X3367176Y-9967114D02*
X3376700Y-9948067D01*
X3395748Y-9938543D01*
X3424319Y-9938543D01*
X3443367Y-9948067D01*
X3452890Y-9967114D01*
X3452890Y-10071876D01*
X3548128Y-10071876D02*
X3548128Y-9938543D01*
X3548128Y-9957590D02*
X3557652Y-9948067D01*
X3576700Y-9938543D01*
X3605271Y-9938543D01*
X3624319Y-9948067D01*
X3633843Y-9967114D01*
X3633843Y-10071876D01*
X3633843Y-9967114D02*
X3643367Y-9948067D01*
X3662414Y-9938543D01*
X3690986Y-9938543D01*
X3710033Y-9948067D01*
X3719557Y-9967114D01*
X3719557Y-10071876D01*
X4110033Y-9862352D02*
X3938605Y-10119495D01*
X4367176Y-9871876D02*
X4386224Y-9871876D01*
X4405271Y-9881400D01*
X4414795Y-9890924D01*
X4424319Y-9909971D01*
X4433843Y-9948067D01*
X4433843Y-9995686D01*
X4424319Y-10033781D01*
X4414795Y-10052829D01*
X4405271Y-10062352D01*
X4386224Y-10071876D01*
X4367176Y-10071876D01*
X4348129Y-10062352D01*
X4338605Y-10052829D01*
X4329081Y-10033781D01*
X4319557Y-9995686D01*
X4319557Y-9948067D01*
X4329081Y-9909971D01*
X4338605Y-9890924D01*
X4348129Y-9881400D01*
X4367176Y-9871876D01*
X4519557Y-10052829D02*
X4529081Y-10062352D01*
X4519557Y-10071876D01*
X4510033Y-10062352D01*
X4519557Y-10052829D01*
X4519557Y-10071876D01*
X4652890Y-9871876D02*
X4671938Y-9871876D01*
X4690986Y-9881400D01*
X4700510Y-9890924D01*
X4710033Y-9909971D01*
X4719557Y-9948067D01*
X4719557Y-9995686D01*
X4710033Y-10033781D01*
X4700510Y-10052829D01*
X4690986Y-10062352D01*
X4671938Y-10071876D01*
X4652890Y-10071876D01*
X4633843Y-10062352D01*
X4624319Y-10052829D01*
X4614795Y-10033781D01*
X4605271Y-9995686D01*
X4605271Y-9948067D01*
X4614795Y-9909971D01*
X4624319Y-9890924D01*
X4633843Y-9881400D01*
X4652890Y-9871876D01*
X4786224Y-9871876D02*
X4910033Y-9871876D01*
X4843367Y-9948067D01*
X4871938Y-9948067D01*
X4890986Y-9957590D01*
X4900510Y-9967114D01*
X4910033Y-9986162D01*
X4910033Y-10033781D01*
X4900510Y-10052829D01*
X4890986Y-10062352D01*
X4871938Y-10071876D01*
X4814795Y-10071876D01*
X4795748Y-10062352D01*
X4786224Y-10052829D01*
X5090986Y-9871876D02*
X4995748Y-9871876D01*
X4986224Y-9967114D01*
X4995748Y-9957590D01*
X5014795Y-9948067D01*
X5062414Y-9948067D01*
X5081462Y-9957590D01*
X5090986Y-9967114D01*
X5100510Y-9986162D01*
X5100510Y-10033781D01*
X5090986Y-10052829D01*
X5081462Y-10062352D01*
X5062414Y-10071876D01*
X5014795Y-10071876D01*
X4995748Y-10062352D01*
X4986224Y-10052829D01*
X5271938Y-9938543D02*
X5271938Y-10071876D01*
X5224319Y-9862352D02*
X5176700Y-10005210D01*
X5300510Y-10005210D01*
X5367176Y-9871876D02*
X5367176Y-9909971D01*
X5443367Y-9871876D02*
X5443367Y-9909971D01*
X5738605Y-10148067D02*
X5729081Y-10138543D01*
X5710033Y-10109971D01*
X5700509Y-10090924D01*
X5690986Y-10062352D01*
X5681462Y-10014733D01*
X5681462Y-9976638D01*
X5690986Y-9929019D01*
X5700509Y-9900448D01*
X5710033Y-9881400D01*
X5729081Y-9852829D01*
X5738605Y-9843305D01*
X5805271Y-9890924D02*
X5814795Y-9881400D01*
X5833843Y-9871876D01*
X5881462Y-9871876D01*
X5900509Y-9881400D01*
X5910033Y-9890924D01*
X5919557Y-9909971D01*
X5919557Y-9929019D01*
X5910033Y-9957590D01*
X5795748Y-10071876D01*
X5919557Y-10071876D01*
X6157652Y-10071876D02*
X6157652Y-9871876D01*
X6243367Y-10071876D02*
X6243367Y-9967114D01*
X6233843Y-9948067D01*
X6214795Y-9938543D01*
X6186224Y-9938543D01*
X6167176Y-9948067D01*
X6157652Y-9957590D01*
X6367176Y-10071876D02*
X6348128Y-10062352D01*
X6338605Y-10052829D01*
X6329081Y-10033781D01*
X6329081Y-9976638D01*
X6338605Y-9957590D01*
X6348128Y-9948067D01*
X6367176Y-9938543D01*
X6395748Y-9938543D01*
X6414795Y-9948067D01*
X6424319Y-9957590D01*
X6433843Y-9976638D01*
X6433843Y-10033781D01*
X6424319Y-10052829D01*
X6414795Y-10062352D01*
X6395748Y-10071876D01*
X6367176Y-10071876D01*
X6548128Y-10071876D02*
X6529081Y-10062352D01*
X6519557Y-10043305D01*
X6519557Y-9871876D01*
X6700509Y-10062352D02*
X6681462Y-10071876D01*
X6643367Y-10071876D01*
X6624319Y-10062352D01*
X6614795Y-10043305D01*
X6614795Y-9967114D01*
X6624319Y-9948067D01*
X6643367Y-9938543D01*
X6681462Y-9938543D01*
X6700509Y-9948067D01*
X6710033Y-9967114D01*
X6710033Y-9986162D01*
X6614795Y-10005210D01*
X6786224Y-10062352D02*
X6805271Y-10071876D01*
X6843367Y-10071876D01*
X6862414Y-10062352D01*
X6871938Y-10043305D01*
X6871938Y-10033781D01*
X6862414Y-10014733D01*
X6843367Y-10005210D01*
X6814795Y-10005210D01*
X6795748Y-9995686D01*
X6786224Y-9976638D01*
X6786224Y-9967114D01*
X6795748Y-9948067D01*
X6814795Y-9938543D01*
X6843367Y-9938543D01*
X6862414Y-9948067D01*
X6938605Y-10148067D02*
X6948128Y-10138543D01*
X6967176Y-10109971D01*
X6976700Y-10090924D01*
X6986224Y-10062352D01*
X6995748Y-10014733D01*
X6995748Y-9976638D01*
X6986224Y-9929019D01*
X6976700Y-9900448D01*
X6967176Y-9881400D01*
X6948128Y-9852829D01*
X6938605Y-9843305D01*
D10*
X2066700Y-10195400D02*
X2166700Y-10295400D01*
X2166700Y-10195400D02*
X2066700Y-10295400D01*
X2166700Y-10245400D02*
G75*
G03*
X2166700Y-10245400I-50000J0D01*
G01*
D11*
X2529081Y-10335876D02*
X2414795Y-10335876D01*
X2471938Y-10335876D02*
X2471938Y-10135876D01*
X2452890Y-10164448D01*
X2433843Y-10183495D01*
X2414795Y-10193019D01*
X2614795Y-10316829D02*
X2624319Y-10326352D01*
X2614795Y-10335876D01*
X2605271Y-10326352D01*
X2614795Y-10316829D01*
X2614795Y-10335876D01*
X2748129Y-10135876D02*
X2767176Y-10135876D01*
X2786224Y-10145400D01*
X2795748Y-10154924D01*
X2805271Y-10173971D01*
X2814795Y-10212067D01*
X2814795Y-10259686D01*
X2805271Y-10297781D01*
X2795748Y-10316829D01*
X2786224Y-10326352D01*
X2767176Y-10335876D01*
X2748129Y-10335876D01*
X2729081Y-10326352D01*
X2719557Y-10316829D01*
X2710033Y-10297781D01*
X2700510Y-10259686D01*
X2700510Y-10212067D01*
X2710033Y-10173971D01*
X2719557Y-10154924D01*
X2729081Y-10145400D01*
X2748129Y-10135876D01*
X2938605Y-10135876D02*
X2957652Y-10135876D01*
X2976700Y-10145400D01*
X2986224Y-10154924D01*
X2995748Y-10173971D01*
X3005271Y-10212067D01*
X3005271Y-10259686D01*
X2995748Y-10297781D01*
X2986224Y-10316829D01*
X2976700Y-10326352D01*
X2957652Y-10335876D01*
X2938605Y-10335876D01*
X2919557Y-10326352D01*
X2910033Y-10316829D01*
X2900509Y-10297781D01*
X2890986Y-10259686D01*
X2890986Y-10212067D01*
X2900509Y-10173971D01*
X2910033Y-10154924D01*
X2919557Y-10145400D01*
X2938605Y-10135876D01*
X3129081Y-10135876D02*
X3148128Y-10135876D01*
X3167176Y-10145400D01*
X3176700Y-10154924D01*
X3186224Y-10173971D01*
X3195748Y-10212067D01*
X3195748Y-10259686D01*
X3186224Y-10297781D01*
X3176700Y-10316829D01*
X3167176Y-10326352D01*
X3148128Y-10335876D01*
X3129081Y-10335876D01*
X3110033Y-10326352D01*
X3100509Y-10316829D01*
X3090986Y-10297781D01*
X3081462Y-10259686D01*
X3081462Y-10212067D01*
X3090986Y-10173971D01*
X3100509Y-10154924D01*
X3110033Y-10145400D01*
X3129081Y-10135876D01*
X3281462Y-10335876D02*
X3281462Y-10202543D01*
X3281462Y-10221590D02*
X3290986Y-10212067D01*
X3310033Y-10202543D01*
X3338605Y-10202543D01*
X3357652Y-10212067D01*
X3367176Y-10231114D01*
X3367176Y-10335876D01*
X3367176Y-10231114D02*
X3376700Y-10212067D01*
X3395748Y-10202543D01*
X3424319Y-10202543D01*
X3443367Y-10212067D01*
X3452890Y-10231114D01*
X3452890Y-10335876D01*
X3548128Y-10335876D02*
X3548128Y-10202543D01*
X3548128Y-10221590D02*
X3557652Y-10212067D01*
X3576700Y-10202543D01*
X3605271Y-10202543D01*
X3624319Y-10212067D01*
X3633843Y-10231114D01*
X3633843Y-10335876D01*
X3633843Y-10231114D02*
X3643367Y-10212067D01*
X3662414Y-10202543D01*
X3690986Y-10202543D01*
X3710033Y-10212067D01*
X3719557Y-10231114D01*
X3719557Y-10335876D01*
X4110033Y-10126352D02*
X3938605Y-10383495D01*
X4367176Y-10135876D02*
X4386224Y-10135876D01*
X4405271Y-10145400D01*
X4414795Y-10154924D01*
X4424319Y-10173971D01*
X4433843Y-10212067D01*
X4433843Y-10259686D01*
X4424319Y-10297781D01*
X4414795Y-10316829D01*
X4405271Y-10326352D01*
X4386224Y-10335876D01*
X4367176Y-10335876D01*
X4348129Y-10326352D01*
X4338605Y-10316829D01*
X4329081Y-10297781D01*
X4319557Y-10259686D01*
X4319557Y-10212067D01*
X4329081Y-10173971D01*
X4338605Y-10154924D01*
X4348129Y-10145400D01*
X4367176Y-10135876D01*
X4519557Y-10316829D02*
X4529081Y-10326352D01*
X4519557Y-10335876D01*
X4510033Y-10326352D01*
X4519557Y-10316829D01*
X4519557Y-10335876D01*
X4652890Y-10135876D02*
X4671938Y-10135876D01*
X4690986Y-10145400D01*
X4700510Y-10154924D01*
X4710033Y-10173971D01*
X4719557Y-10212067D01*
X4719557Y-10259686D01*
X4710033Y-10297781D01*
X4700510Y-10316829D01*
X4690986Y-10326352D01*
X4671938Y-10335876D01*
X4652890Y-10335876D01*
X4633843Y-10326352D01*
X4624319Y-10316829D01*
X4614795Y-10297781D01*
X4605271Y-10259686D01*
X4605271Y-10212067D01*
X4614795Y-10173971D01*
X4624319Y-10154924D01*
X4633843Y-10145400D01*
X4652890Y-10135876D01*
X4786224Y-10135876D02*
X4910033Y-10135876D01*
X4843367Y-10212067D01*
X4871938Y-10212067D01*
X4890986Y-10221590D01*
X4900510Y-10231114D01*
X4910033Y-10250162D01*
X4910033Y-10297781D01*
X4900510Y-10316829D01*
X4890986Y-10326352D01*
X4871938Y-10335876D01*
X4814795Y-10335876D01*
X4795748Y-10326352D01*
X4786224Y-10316829D01*
X5005271Y-10335876D02*
X5043367Y-10335876D01*
X5062414Y-10326352D01*
X5071938Y-10316829D01*
X5090986Y-10288257D01*
X5100510Y-10250162D01*
X5100510Y-10173971D01*
X5090986Y-10154924D01*
X5081462Y-10145400D01*
X5062414Y-10135876D01*
X5024319Y-10135876D01*
X5005271Y-10145400D01*
X4995748Y-10154924D01*
X4986224Y-10173971D01*
X4986224Y-10221590D01*
X4995748Y-10240638D01*
X5005271Y-10250162D01*
X5024319Y-10259686D01*
X5062414Y-10259686D01*
X5081462Y-10250162D01*
X5090986Y-10240638D01*
X5100510Y-10221590D01*
X5271938Y-10202543D02*
X5271938Y-10335876D01*
X5224319Y-10126352D02*
X5176700Y-10269210D01*
X5300510Y-10269210D01*
X5367176Y-10135876D02*
X5367176Y-10173971D01*
X5443367Y-10135876D02*
X5443367Y-10173971D01*
X5738605Y-10412067D02*
X5729081Y-10402543D01*
X5710033Y-10373971D01*
X5700509Y-10354924D01*
X5690986Y-10326352D01*
X5681462Y-10278733D01*
X5681462Y-10240638D01*
X5690986Y-10193019D01*
X5700509Y-10164448D01*
X5710033Y-10145400D01*
X5729081Y-10116829D01*
X5738605Y-10107305D01*
X5919557Y-10335876D02*
X5805271Y-10335876D01*
X5862414Y-10335876D02*
X5862414Y-10135876D01*
X5843367Y-10164448D01*
X5824319Y-10183495D01*
X5805271Y-10193019D01*
X6110033Y-10335876D02*
X5995748Y-10335876D01*
X6052890Y-10335876D02*
X6052890Y-10135876D01*
X6033843Y-10164448D01*
X6014795Y-10183495D01*
X5995748Y-10193019D01*
X6348128Y-10335876D02*
X6348128Y-10135876D01*
X6433843Y-10335876D02*
X6433843Y-10231114D01*
X6424319Y-10212067D01*
X6405271Y-10202543D01*
X6376700Y-10202543D01*
X6357652Y-10212067D01*
X6348128Y-10221590D01*
X6557652Y-10335876D02*
X6538605Y-10326352D01*
X6529081Y-10316829D01*
X6519557Y-10297781D01*
X6519557Y-10240638D01*
X6529081Y-10221590D01*
X6538605Y-10212067D01*
X6557652Y-10202543D01*
X6586224Y-10202543D01*
X6605271Y-10212067D01*
X6614795Y-10221590D01*
X6624319Y-10240638D01*
X6624319Y-10297781D01*
X6614795Y-10316829D01*
X6605271Y-10326352D01*
X6586224Y-10335876D01*
X6557652Y-10335876D01*
X6738605Y-10335876D02*
X6719557Y-10326352D01*
X6710033Y-10307305D01*
X6710033Y-10135876D01*
X6890986Y-10326352D02*
X6871938Y-10335876D01*
X6833843Y-10335876D01*
X6814795Y-10326352D01*
X6805271Y-10307305D01*
X6805271Y-10231114D01*
X6814795Y-10212067D01*
X6833843Y-10202543D01*
X6871938Y-10202543D01*
X6890986Y-10212067D01*
X6900509Y-10231114D01*
X6900509Y-10250162D01*
X6805271Y-10269210D01*
X6976700Y-10326352D02*
X6995748Y-10335876D01*
X7033843Y-10335876D01*
X7052890Y-10326352D01*
X7062414Y-10307305D01*
X7062414Y-10297781D01*
X7052890Y-10278733D01*
X7033843Y-10269210D01*
X7005271Y-10269210D01*
X6986224Y-10259686D01*
X6976700Y-10240638D01*
X6976700Y-10231114D01*
X6986224Y-10212067D01*
X7005271Y-10202543D01*
X7033843Y-10202543D01*
X7052890Y-10212067D01*
X7300509Y-10259686D02*
X7452890Y-10259686D01*
X7376700Y-10335876D02*
X7376700Y-10183495D01*
X7681462Y-10135876D02*
X7805271Y-10135876D01*
X7738605Y-10212067D01*
X7767176Y-10212067D01*
X7786224Y-10221590D01*
X7795748Y-10231114D01*
X7805271Y-10250162D01*
X7805271Y-10297781D01*
X7795748Y-10316829D01*
X7786224Y-10326352D01*
X7767176Y-10335876D01*
X7710033Y-10335876D01*
X7690986Y-10326352D01*
X7681462Y-10316829D01*
X8033843Y-10326352D02*
X8052890Y-10335876D01*
X8090986Y-10335876D01*
X8110033Y-10326352D01*
X8119557Y-10307305D01*
X8119557Y-10297781D01*
X8110033Y-10278733D01*
X8090986Y-10269210D01*
X8062414Y-10269210D01*
X8043367Y-10259686D01*
X8033843Y-10240638D01*
X8033843Y-10231114D01*
X8043367Y-10212067D01*
X8062414Y-10202543D01*
X8090986Y-10202543D01*
X8110033Y-10212067D01*
X8233843Y-10335876D02*
X8214795Y-10326352D01*
X8205271Y-10307305D01*
X8205271Y-10135876D01*
X8338605Y-10335876D02*
X8319557Y-10326352D01*
X8310033Y-10316829D01*
X8300509Y-10297781D01*
X8300509Y-10240638D01*
X8310033Y-10221590D01*
X8319557Y-10212067D01*
X8338605Y-10202543D01*
X8367176Y-10202543D01*
X8386224Y-10212067D01*
X8395748Y-10221590D01*
X8405271Y-10240638D01*
X8405271Y-10297781D01*
X8395748Y-10316829D01*
X8386224Y-10326352D01*
X8367176Y-10335876D01*
X8338605Y-10335876D01*
X8462414Y-10202543D02*
X8538605Y-10202543D01*
X8490986Y-10135876D02*
X8490986Y-10307305D01*
X8500510Y-10326352D01*
X8519557Y-10335876D01*
X8538605Y-10335876D01*
X8595748Y-10326352D02*
X8614795Y-10335876D01*
X8652890Y-10335876D01*
X8671938Y-10326352D01*
X8681462Y-10307305D01*
X8681462Y-10297781D01*
X8671938Y-10278733D01*
X8652890Y-10269210D01*
X8624319Y-10269210D01*
X8605271Y-10259686D01*
X8595748Y-10240638D01*
X8595748Y-10231114D01*
X8605271Y-10212067D01*
X8624319Y-10202543D01*
X8652890Y-10202543D01*
X8671938Y-10212067D01*
X8748129Y-10412067D02*
X8757652Y-10402543D01*
X8776700Y-10373971D01*
X8786224Y-10354924D01*
X8795748Y-10326352D01*
X8805271Y-10278733D01*
X8805271Y-10240638D01*
X8795748Y-10193019D01*
X8786224Y-10164448D01*
X8776700Y-10145400D01*
X8757652Y-10116829D01*
X8748129Y-10107305D01*
D17*
X2056700Y-10454400D02*
X2166700Y-10564400D01*
X2166700Y-10454400D02*
X2056700Y-10564400D01*
X2111700Y-10454400D02*
X2111700Y-10564400D01*
X2056700Y-10509400D02*
X2166700Y-10509400D01*
D11*
X2529081Y-10599876D02*
X2414795Y-10599876D01*
X2471938Y-10599876D02*
X2471938Y-10399876D01*
X2452890Y-10428448D01*
X2433843Y-10447495D01*
X2414795Y-10457019D01*
X2614795Y-10580829D02*
X2624319Y-10590352D01*
X2614795Y-10599876D01*
X2605271Y-10590352D01*
X2614795Y-10580829D01*
X2614795Y-10599876D01*
X2814795Y-10599876D02*
X2700510Y-10599876D01*
X2757652Y-10599876D02*
X2757652Y-10399876D01*
X2738605Y-10428448D01*
X2719557Y-10447495D01*
X2700510Y-10457019D01*
X2938605Y-10399876D02*
X2957652Y-10399876D01*
X2976700Y-10409400D01*
X2986224Y-10418924D01*
X2995748Y-10437971D01*
X3005271Y-10476067D01*
X3005271Y-10523686D01*
X2995748Y-10561781D01*
X2986224Y-10580829D01*
X2976700Y-10590352D01*
X2957652Y-10599876D01*
X2938605Y-10599876D01*
X2919557Y-10590352D01*
X2910033Y-10580829D01*
X2900509Y-10561781D01*
X2890986Y-10523686D01*
X2890986Y-10476067D01*
X2900509Y-10437971D01*
X2910033Y-10418924D01*
X2919557Y-10409400D01*
X2938605Y-10399876D01*
X3129081Y-10399876D02*
X3148128Y-10399876D01*
X3167176Y-10409400D01*
X3176700Y-10418924D01*
X3186224Y-10437971D01*
X3195748Y-10476067D01*
X3195748Y-10523686D01*
X3186224Y-10561781D01*
X3176700Y-10580829D01*
X3167176Y-10590352D01*
X3148128Y-10599876D01*
X3129081Y-10599876D01*
X3110033Y-10590352D01*
X3100509Y-10580829D01*
X3090986Y-10561781D01*
X3081462Y-10523686D01*
X3081462Y-10476067D01*
X3090986Y-10437971D01*
X3100509Y-10418924D01*
X3110033Y-10409400D01*
X3129081Y-10399876D01*
X3281462Y-10599876D02*
X3281462Y-10466543D01*
X3281462Y-10485590D02*
X3290986Y-10476067D01*
X3310033Y-10466543D01*
X3338605Y-10466543D01*
X3357652Y-10476067D01*
X3367176Y-10495114D01*
X3367176Y-10599876D01*
X3367176Y-10495114D02*
X3376700Y-10476067D01*
X3395748Y-10466543D01*
X3424319Y-10466543D01*
X3443367Y-10476067D01*
X3452890Y-10495114D01*
X3452890Y-10599876D01*
X3548128Y-10599876D02*
X3548128Y-10466543D01*
X3548128Y-10485590D02*
X3557652Y-10476067D01*
X3576700Y-10466543D01*
X3605271Y-10466543D01*
X3624319Y-10476067D01*
X3633843Y-10495114D01*
X3633843Y-10599876D01*
X3633843Y-10495114D02*
X3643367Y-10476067D01*
X3662414Y-10466543D01*
X3690986Y-10466543D01*
X3710033Y-10476067D01*
X3719557Y-10495114D01*
X3719557Y-10599876D01*
X4110033Y-10390352D02*
X3938605Y-10647495D01*
X4367176Y-10399876D02*
X4386224Y-10399876D01*
X4405271Y-10409400D01*
X4414795Y-10418924D01*
X4424319Y-10437971D01*
X4433843Y-10476067D01*
X4433843Y-10523686D01*
X4424319Y-10561781D01*
X4414795Y-10580829D01*
X4405271Y-10590352D01*
X4386224Y-10599876D01*
X4367176Y-10599876D01*
X4348129Y-10590352D01*
X4338605Y-10580829D01*
X4329081Y-10561781D01*
X4319557Y-10523686D01*
X4319557Y-10476067D01*
X4329081Y-10437971D01*
X4338605Y-10418924D01*
X4348129Y-10409400D01*
X4367176Y-10399876D01*
X4519557Y-10580829D02*
X4529081Y-10590352D01*
X4519557Y-10599876D01*
X4510033Y-10590352D01*
X4519557Y-10580829D01*
X4519557Y-10599876D01*
X4652890Y-10399876D02*
X4671938Y-10399876D01*
X4690986Y-10409400D01*
X4700510Y-10418924D01*
X4710033Y-10437971D01*
X4719557Y-10476067D01*
X4719557Y-10523686D01*
X4710033Y-10561781D01*
X4700510Y-10580829D01*
X4690986Y-10590352D01*
X4671938Y-10599876D01*
X4652890Y-10599876D01*
X4633843Y-10590352D01*
X4624319Y-10580829D01*
X4614795Y-10561781D01*
X4605271Y-10523686D01*
X4605271Y-10476067D01*
X4614795Y-10437971D01*
X4624319Y-10418924D01*
X4633843Y-10409400D01*
X4652890Y-10399876D01*
X4890986Y-10466543D02*
X4890986Y-10599876D01*
X4843367Y-10390352D02*
X4795748Y-10533210D01*
X4919557Y-10533210D01*
X4976700Y-10399876D02*
X5100510Y-10399876D01*
X5033843Y-10476067D01*
X5062414Y-10476067D01*
X5081462Y-10485590D01*
X5090986Y-10495114D01*
X5100510Y-10514162D01*
X5100510Y-10561781D01*
X5090986Y-10580829D01*
X5081462Y-10590352D01*
X5062414Y-10599876D01*
X5005271Y-10599876D01*
X4986224Y-10590352D01*
X4976700Y-10580829D01*
X5167176Y-10399876D02*
X5290986Y-10399876D01*
X5224319Y-10476067D01*
X5252890Y-10476067D01*
X5271938Y-10485590D01*
X5281462Y-10495114D01*
X5290986Y-10514162D01*
X5290986Y-10561781D01*
X5281462Y-10580829D01*
X5271938Y-10590352D01*
X5252890Y-10599876D01*
X5195748Y-10599876D01*
X5176700Y-10590352D01*
X5167176Y-10580829D01*
X5367176Y-10399876D02*
X5367176Y-10437971D01*
X5443367Y-10399876D02*
X5443367Y-10437971D01*
X5738605Y-10676067D02*
X5729081Y-10666543D01*
X5710033Y-10637971D01*
X5700509Y-10618924D01*
X5690986Y-10590352D01*
X5681462Y-10542733D01*
X5681462Y-10504638D01*
X5690986Y-10457019D01*
X5700509Y-10428448D01*
X5710033Y-10409400D01*
X5729081Y-10380829D01*
X5738605Y-10371305D01*
X5910033Y-10399876D02*
X5814795Y-10399876D01*
X5805271Y-10495114D01*
X5814795Y-10485590D01*
X5833843Y-10476067D01*
X5881462Y-10476067D01*
X5900509Y-10485590D01*
X5910033Y-10495114D01*
X5919557Y-10514162D01*
X5919557Y-10561781D01*
X5910033Y-10580829D01*
X5900509Y-10590352D01*
X5881462Y-10599876D01*
X5833843Y-10599876D01*
X5814795Y-10590352D01*
X5805271Y-10580829D01*
X6157652Y-10599876D02*
X6157652Y-10399876D01*
X6243367Y-10599876D02*
X6243367Y-10495114D01*
X6233843Y-10476067D01*
X6214795Y-10466543D01*
X6186224Y-10466543D01*
X6167176Y-10476067D01*
X6157652Y-10485590D01*
X6367176Y-10599876D02*
X6348128Y-10590352D01*
X6338605Y-10580829D01*
X6329081Y-10561781D01*
X6329081Y-10504638D01*
X6338605Y-10485590D01*
X6348128Y-10476067D01*
X6367176Y-10466543D01*
X6395748Y-10466543D01*
X6414795Y-10476067D01*
X6424319Y-10485590D01*
X6433843Y-10504638D01*
X6433843Y-10561781D01*
X6424319Y-10580829D01*
X6414795Y-10590352D01*
X6395748Y-10599876D01*
X6367176Y-10599876D01*
X6548128Y-10599876D02*
X6529081Y-10590352D01*
X6519557Y-10571305D01*
X6519557Y-10399876D01*
X6700509Y-10590352D02*
X6681462Y-10599876D01*
X6643367Y-10599876D01*
X6624319Y-10590352D01*
X6614795Y-10571305D01*
X6614795Y-10495114D01*
X6624319Y-10476067D01*
X6643367Y-10466543D01*
X6681462Y-10466543D01*
X6700509Y-10476067D01*
X6710033Y-10495114D01*
X6710033Y-10514162D01*
X6614795Y-10533210D01*
X6786224Y-10590352D02*
X6805271Y-10599876D01*
X6843367Y-10599876D01*
X6862414Y-10590352D01*
X6871938Y-10571305D01*
X6871938Y-10561781D01*
X6862414Y-10542733D01*
X6843367Y-10533210D01*
X6814795Y-10533210D01*
X6795748Y-10523686D01*
X6786224Y-10504638D01*
X6786224Y-10495114D01*
X6795748Y-10476067D01*
X6814795Y-10466543D01*
X6843367Y-10466543D01*
X6862414Y-10476067D01*
X6938605Y-10676067D02*
X6948128Y-10666543D01*
X6967176Y-10637971D01*
X6976700Y-10618924D01*
X6986224Y-10590352D01*
X6995748Y-10542733D01*
X6995748Y-10504638D01*
X6986224Y-10457019D01*
X6976700Y-10428448D01*
X6967176Y-10409400D01*
X6948128Y-10380829D01*
X6938605Y-10371305D01*
X1966700Y-10673400D02*
X2166700Y-10873400D01*
X2166700Y-10673400D02*
X1966700Y-10873400D01*
X2137411Y-10844111D02*
X2137411Y-10702689D01*
X1995989Y-10702689D01*
X1995989Y-10844111D01*
X2137411Y-10844111D01*
X2414795Y-10682924D02*
X2424319Y-10673400D01*
X2443367Y-10663876D01*
X2490986Y-10663876D01*
X2510033Y-10673400D01*
X2519557Y-10682924D01*
X2529081Y-10701971D01*
X2529081Y-10721019D01*
X2519557Y-10749590D01*
X2405271Y-10863876D01*
X2529081Y-10863876D01*
X2614795Y-10844829D02*
X2624319Y-10854352D01*
X2614795Y-10863876D01*
X2605271Y-10854352D01*
X2614795Y-10844829D01*
X2614795Y-10863876D01*
X2748129Y-10663876D02*
X2767176Y-10663876D01*
X2786224Y-10673400D01*
X2795748Y-10682924D01*
X2805271Y-10701971D01*
X2814795Y-10740067D01*
X2814795Y-10787686D01*
X2805271Y-10825781D01*
X2795748Y-10844829D01*
X2786224Y-10854352D01*
X2767176Y-10863876D01*
X2748129Y-10863876D01*
X2729081Y-10854352D01*
X2719557Y-10844829D01*
X2710033Y-10825781D01*
X2700510Y-10787686D01*
X2700510Y-10740067D01*
X2710033Y-10701971D01*
X2719557Y-10682924D01*
X2729081Y-10673400D01*
X2748129Y-10663876D01*
X3005271Y-10863876D02*
X2890986Y-10863876D01*
X2948128Y-10863876D02*
X2948128Y-10663876D01*
X2929081Y-10692448D01*
X2910033Y-10711495D01*
X2890986Y-10721019D01*
X3129081Y-10663876D02*
X3148128Y-10663876D01*
X3167176Y-10673400D01*
X3176700Y-10682924D01*
X3186224Y-10701971D01*
X3195748Y-10740067D01*
X3195748Y-10787686D01*
X3186224Y-10825781D01*
X3176700Y-10844829D01*
X3167176Y-10854352D01*
X3148128Y-10863876D01*
X3129081Y-10863876D01*
X3110033Y-10854352D01*
X3100509Y-10844829D01*
X3090986Y-10825781D01*
X3081462Y-10787686D01*
X3081462Y-10740067D01*
X3090986Y-10701971D01*
X3100509Y-10682924D01*
X3110033Y-10673400D01*
X3129081Y-10663876D01*
X3281462Y-10863876D02*
X3281462Y-10730543D01*
X3281462Y-10749590D02*
X3290986Y-10740067D01*
X3310033Y-10730543D01*
X3338605Y-10730543D01*
X3357652Y-10740067D01*
X3367176Y-10759114D01*
X3367176Y-10863876D01*
X3367176Y-10759114D02*
X3376700Y-10740067D01*
X3395748Y-10730543D01*
X3424319Y-10730543D01*
X3443367Y-10740067D01*
X3452890Y-10759114D01*
X3452890Y-10863876D01*
X3548128Y-10863876D02*
X3548128Y-10730543D01*
X3548128Y-10749590D02*
X3557652Y-10740067D01*
X3576700Y-10730543D01*
X3605271Y-10730543D01*
X3624319Y-10740067D01*
X3633843Y-10759114D01*
X3633843Y-10863876D01*
X3633843Y-10759114D02*
X3643367Y-10740067D01*
X3662414Y-10730543D01*
X3690986Y-10730543D01*
X3710033Y-10740067D01*
X3719557Y-10759114D01*
X3719557Y-10863876D01*
X4110033Y-10654352D02*
X3938605Y-10911495D01*
X4367176Y-10663876D02*
X4386224Y-10663876D01*
X4405271Y-10673400D01*
X4414795Y-10682924D01*
X4424319Y-10701971D01*
X4433843Y-10740067D01*
X4433843Y-10787686D01*
X4424319Y-10825781D01*
X4414795Y-10844829D01*
X4405271Y-10854352D01*
X4386224Y-10863876D01*
X4367176Y-10863876D01*
X4348129Y-10854352D01*
X4338605Y-10844829D01*
X4329081Y-10825781D01*
X4319557Y-10787686D01*
X4319557Y-10740067D01*
X4329081Y-10701971D01*
X4338605Y-10682924D01*
X4348129Y-10673400D01*
X4367176Y-10663876D01*
X4519557Y-10844829D02*
X4529081Y-10854352D01*
X4519557Y-10863876D01*
X4510033Y-10854352D01*
X4519557Y-10844829D01*
X4519557Y-10863876D01*
X4652890Y-10663876D02*
X4671938Y-10663876D01*
X4690986Y-10673400D01*
X4700510Y-10682924D01*
X4710033Y-10701971D01*
X4719557Y-10740067D01*
X4719557Y-10787686D01*
X4710033Y-10825781D01*
X4700510Y-10844829D01*
X4690986Y-10854352D01*
X4671938Y-10863876D01*
X4652890Y-10863876D01*
X4633843Y-10854352D01*
X4624319Y-10844829D01*
X4614795Y-10825781D01*
X4605271Y-10787686D01*
X4605271Y-10740067D01*
X4614795Y-10701971D01*
X4624319Y-10682924D01*
X4633843Y-10673400D01*
X4652890Y-10663876D01*
X4786224Y-10663876D02*
X4919557Y-10663876D01*
X4833843Y-10863876D01*
X5005271Y-10863876D02*
X5043367Y-10863876D01*
X5062414Y-10854352D01*
X5071938Y-10844829D01*
X5090986Y-10816257D01*
X5100510Y-10778162D01*
X5100510Y-10701971D01*
X5090986Y-10682924D01*
X5081462Y-10673400D01*
X5062414Y-10663876D01*
X5024319Y-10663876D01*
X5005271Y-10673400D01*
X4995748Y-10682924D01*
X4986224Y-10701971D01*
X4986224Y-10749590D01*
X4995748Y-10768638D01*
X5005271Y-10778162D01*
X5024319Y-10787686D01*
X5062414Y-10787686D01*
X5081462Y-10778162D01*
X5090986Y-10768638D01*
X5100510Y-10749590D01*
X5290986Y-10863876D02*
X5176700Y-10863876D01*
X5233843Y-10863876D02*
X5233843Y-10663876D01*
X5214795Y-10692448D01*
X5195748Y-10711495D01*
X5176700Y-10721019D01*
X5367176Y-10663876D02*
X5367176Y-10701971D01*
X5443367Y-10663876D02*
X5443367Y-10701971D01*
X5738605Y-10940067D02*
X5729081Y-10930543D01*
X5710033Y-10901971D01*
X5700509Y-10882924D01*
X5690986Y-10854352D01*
X5681462Y-10806733D01*
X5681462Y-10768638D01*
X5690986Y-10721019D01*
X5700509Y-10692448D01*
X5710033Y-10673400D01*
X5729081Y-10644829D01*
X5738605Y-10635305D01*
X5805271Y-10682924D02*
X5814795Y-10673400D01*
X5833843Y-10663876D01*
X5881462Y-10663876D01*
X5900509Y-10673400D01*
X5910033Y-10682924D01*
X5919557Y-10701971D01*
X5919557Y-10721019D01*
X5910033Y-10749590D01*
X5795748Y-10863876D01*
X5919557Y-10863876D01*
X6157652Y-10863876D02*
X6157652Y-10663876D01*
X6243367Y-10863876D02*
X6243367Y-10759114D01*
X6233843Y-10740067D01*
X6214795Y-10730543D01*
X6186224Y-10730543D01*
X6167176Y-10740067D01*
X6157652Y-10749590D01*
X6367176Y-10863876D02*
X6348128Y-10854352D01*
X6338605Y-10844829D01*
X6329081Y-10825781D01*
X6329081Y-10768638D01*
X6338605Y-10749590D01*
X6348128Y-10740067D01*
X6367176Y-10730543D01*
X6395748Y-10730543D01*
X6414795Y-10740067D01*
X6424319Y-10749590D01*
X6433843Y-10768638D01*
X6433843Y-10825781D01*
X6424319Y-10844829D01*
X6414795Y-10854352D01*
X6395748Y-10863876D01*
X6367176Y-10863876D01*
X6548128Y-10863876D02*
X6529081Y-10854352D01*
X6519557Y-10835305D01*
X6519557Y-10663876D01*
X6700509Y-10854352D02*
X6681462Y-10863876D01*
X6643367Y-10863876D01*
X6624319Y-10854352D01*
X6614795Y-10835305D01*
X6614795Y-10759114D01*
X6624319Y-10740067D01*
X6643367Y-10730543D01*
X6681462Y-10730543D01*
X6700509Y-10740067D01*
X6710033Y-10759114D01*
X6710033Y-10778162D01*
X6614795Y-10797210D01*
X6786224Y-10854352D02*
X6805271Y-10863876D01*
X6843367Y-10863876D01*
X6862414Y-10854352D01*
X6871938Y-10835305D01*
X6871938Y-10825781D01*
X6862414Y-10806733D01*
X6843367Y-10797210D01*
X6814795Y-10797210D01*
X6795748Y-10787686D01*
X6786224Y-10768638D01*
X6786224Y-10759114D01*
X6795748Y-10740067D01*
X6814795Y-10730543D01*
X6843367Y-10730543D01*
X6862414Y-10740067D01*
X6938605Y-10940067D02*
X6948128Y-10930543D01*
X6967176Y-10901971D01*
X6976700Y-10882924D01*
X6986224Y-10854352D01*
X6995748Y-10806733D01*
X6995748Y-10768638D01*
X6986224Y-10721019D01*
X6976700Y-10692448D01*
X6967176Y-10673400D01*
X6948128Y-10644829D01*
X6938605Y-10635305D01*
X1966700Y-10993400D02*
X2166700Y-11193400D01*
X2166700Y-10993400D02*
X1966700Y-11193400D01*
X2066700Y-11193400D02*
X2166700Y-11093400D01*
X2066700Y-10993400D01*
X1966700Y-11093400D01*
X2066700Y-11193400D01*
X2414795Y-11002924D02*
X2424319Y-10993400D01*
X2443367Y-10983876D01*
X2490986Y-10983876D01*
X2510033Y-10993400D01*
X2519557Y-11002924D01*
X2529081Y-11021971D01*
X2529081Y-11041019D01*
X2519557Y-11069590D01*
X2405271Y-11183876D01*
X2529081Y-11183876D01*
X2614795Y-11164829D02*
X2624319Y-11174352D01*
X2614795Y-11183876D01*
X2605271Y-11174352D01*
X2614795Y-11164829D01*
X2614795Y-11183876D01*
X2748129Y-10983876D02*
X2767176Y-10983876D01*
X2786224Y-10993400D01*
X2795748Y-11002924D01*
X2805271Y-11021971D01*
X2814795Y-11060067D01*
X2814795Y-11107686D01*
X2805271Y-11145781D01*
X2795748Y-11164829D01*
X2786224Y-11174352D01*
X2767176Y-11183876D01*
X2748129Y-11183876D01*
X2729081Y-11174352D01*
X2719557Y-11164829D01*
X2710033Y-11145781D01*
X2700510Y-11107686D01*
X2700510Y-11060067D01*
X2710033Y-11021971D01*
X2719557Y-11002924D01*
X2729081Y-10993400D01*
X2748129Y-10983876D01*
X2986224Y-10983876D02*
X2948128Y-10983876D01*
X2929081Y-10993400D01*
X2919557Y-11002924D01*
X2900509Y-11031495D01*
X2890986Y-11069590D01*
X2890986Y-11145781D01*
X2900509Y-11164829D01*
X2910033Y-11174352D01*
X2929081Y-11183876D01*
X2967176Y-11183876D01*
X2986224Y-11174352D01*
X2995748Y-11164829D01*
X3005271Y-11145781D01*
X3005271Y-11098162D01*
X2995748Y-11079114D01*
X2986224Y-11069590D01*
X2967176Y-11060067D01*
X2929081Y-11060067D01*
X2910033Y-11069590D01*
X2900509Y-11079114D01*
X2890986Y-11098162D01*
X3081462Y-11002924D02*
X3090986Y-10993400D01*
X3110033Y-10983876D01*
X3157652Y-10983876D01*
X3176700Y-10993400D01*
X3186224Y-11002924D01*
X3195748Y-11021971D01*
X3195748Y-11041019D01*
X3186224Y-11069590D01*
X3071938Y-11183876D01*
X3195748Y-11183876D01*
X3281462Y-11183876D02*
X3281462Y-11050543D01*
X3281462Y-11069590D02*
X3290986Y-11060067D01*
X3310033Y-11050543D01*
X3338605Y-11050543D01*
X3357652Y-11060067D01*
X3367176Y-11079114D01*
X3367176Y-11183876D01*
X3367176Y-11079114D02*
X3376700Y-11060067D01*
X3395748Y-11050543D01*
X3424319Y-11050543D01*
X3443367Y-11060067D01*
X3452890Y-11079114D01*
X3452890Y-11183876D01*
X3548128Y-11183876D02*
X3548128Y-11050543D01*
X3548128Y-11069590D02*
X3557652Y-11060067D01*
X3576700Y-11050543D01*
X3605271Y-11050543D01*
X3624319Y-11060067D01*
X3633843Y-11079114D01*
X3633843Y-11183876D01*
X3633843Y-11079114D02*
X3643367Y-11060067D01*
X3662414Y-11050543D01*
X3690986Y-11050543D01*
X3710033Y-11060067D01*
X3719557Y-11079114D01*
X3719557Y-11183876D01*
X4110033Y-10974352D02*
X3938605Y-11231495D01*
X4367176Y-10983876D02*
X4386224Y-10983876D01*
X4405271Y-10993400D01*
X4414795Y-11002924D01*
X4424319Y-11021971D01*
X4433843Y-11060067D01*
X4433843Y-11107686D01*
X4424319Y-11145781D01*
X4414795Y-11164829D01*
X4405271Y-11174352D01*
X4386224Y-11183876D01*
X4367176Y-11183876D01*
X4348129Y-11174352D01*
X4338605Y-11164829D01*
X4329081Y-11145781D01*
X4319557Y-11107686D01*
X4319557Y-11060067D01*
X4329081Y-11021971D01*
X4338605Y-11002924D01*
X4348129Y-10993400D01*
X4367176Y-10983876D01*
X4519557Y-11164829D02*
X4529081Y-11174352D01*
X4519557Y-11183876D01*
X4510033Y-11174352D01*
X4519557Y-11164829D01*
X4519557Y-11183876D01*
X4652890Y-10983876D02*
X4671938Y-10983876D01*
X4690986Y-10993400D01*
X4700510Y-11002924D01*
X4710033Y-11021971D01*
X4719557Y-11060067D01*
X4719557Y-11107686D01*
X4710033Y-11145781D01*
X4700510Y-11164829D01*
X4690986Y-11174352D01*
X4671938Y-11183876D01*
X4652890Y-11183876D01*
X4633843Y-11174352D01*
X4624319Y-11164829D01*
X4614795Y-11145781D01*
X4605271Y-11107686D01*
X4605271Y-11060067D01*
X4614795Y-11021971D01*
X4624319Y-11002924D01*
X4633843Y-10993400D01*
X4652890Y-10983876D01*
X4833843Y-11069590D02*
X4814795Y-11060067D01*
X4805271Y-11050543D01*
X4795748Y-11031495D01*
X4795748Y-11021971D01*
X4805271Y-11002924D01*
X4814795Y-10993400D01*
X4833843Y-10983876D01*
X4871938Y-10983876D01*
X4890986Y-10993400D01*
X4900510Y-11002924D01*
X4910033Y-11021971D01*
X4910033Y-11031495D01*
X4900510Y-11050543D01*
X4890986Y-11060067D01*
X4871938Y-11069590D01*
X4833843Y-11069590D01*
X4814795Y-11079114D01*
X4805271Y-11088638D01*
X4795748Y-11107686D01*
X4795748Y-11145781D01*
X4805271Y-11164829D01*
X4814795Y-11174352D01*
X4833843Y-11183876D01*
X4871938Y-11183876D01*
X4890986Y-11174352D01*
X4900510Y-11164829D01*
X4910033Y-11145781D01*
X4910033Y-11107686D01*
X4900510Y-11088638D01*
X4890986Y-11079114D01*
X4871938Y-11069590D01*
X5100510Y-11183876D02*
X4986224Y-11183876D01*
X5043367Y-11183876D02*
X5043367Y-10983876D01*
X5024319Y-11012448D01*
X5005271Y-11031495D01*
X4986224Y-11041019D01*
X5176700Y-11002924D02*
X5186224Y-10993400D01*
X5205271Y-10983876D01*
X5252890Y-10983876D01*
X5271938Y-10993400D01*
X5281462Y-11002924D01*
X5290986Y-11021971D01*
X5290986Y-11041019D01*
X5281462Y-11069590D01*
X5167176Y-11183876D01*
X5290986Y-11183876D01*
X5367176Y-10983876D02*
X5367176Y-11021971D01*
X5443367Y-10983876D02*
X5443367Y-11021971D01*
X5738605Y-11260067D02*
X5729081Y-11250543D01*
X5710033Y-11221971D01*
X5700509Y-11202924D01*
X5690986Y-11174352D01*
X5681462Y-11126733D01*
X5681462Y-11088638D01*
X5690986Y-11041019D01*
X5700509Y-11012448D01*
X5710033Y-10993400D01*
X5729081Y-10964829D01*
X5738605Y-10955305D01*
X5795748Y-10983876D02*
X5919557Y-10983876D01*
X5852890Y-11060067D01*
X5881462Y-11060067D01*
X5900509Y-11069590D01*
X5910033Y-11079114D01*
X5919557Y-11098162D01*
X5919557Y-11145781D01*
X5910033Y-11164829D01*
X5900509Y-11174352D01*
X5881462Y-11183876D01*
X5824319Y-11183876D01*
X5805271Y-11174352D01*
X5795748Y-11164829D01*
X6157652Y-11183876D02*
X6157652Y-10983876D01*
X6243367Y-11183876D02*
X6243367Y-11079114D01*
X6233843Y-11060067D01*
X6214795Y-11050543D01*
X6186224Y-11050543D01*
X6167176Y-11060067D01*
X6157652Y-11069590D01*
X6367176Y-11183876D02*
X6348128Y-11174352D01*
X6338605Y-11164829D01*
X6329081Y-11145781D01*
X6329081Y-11088638D01*
X6338605Y-11069590D01*
X6348128Y-11060067D01*
X6367176Y-11050543D01*
X6395748Y-11050543D01*
X6414795Y-11060067D01*
X6424319Y-11069590D01*
X6433843Y-11088638D01*
X6433843Y-11145781D01*
X6424319Y-11164829D01*
X6414795Y-11174352D01*
X6395748Y-11183876D01*
X6367176Y-11183876D01*
X6548128Y-11183876D02*
X6529081Y-11174352D01*
X6519557Y-11155305D01*
X6519557Y-10983876D01*
X6700509Y-11174352D02*
X6681462Y-11183876D01*
X6643367Y-11183876D01*
X6624319Y-11174352D01*
X6614795Y-11155305D01*
X6614795Y-11079114D01*
X6624319Y-11060067D01*
X6643367Y-11050543D01*
X6681462Y-11050543D01*
X6700509Y-11060067D01*
X6710033Y-11079114D01*
X6710033Y-11098162D01*
X6614795Y-11117210D01*
X6786224Y-11174352D02*
X6805271Y-11183876D01*
X6843367Y-11183876D01*
X6862414Y-11174352D01*
X6871938Y-11155305D01*
X6871938Y-11145781D01*
X6862414Y-11126733D01*
X6843367Y-11117210D01*
X6814795Y-11117210D01*
X6795748Y-11107686D01*
X6786224Y-11088638D01*
X6786224Y-11079114D01*
X6795748Y-11060067D01*
X6814795Y-11050543D01*
X6843367Y-11050543D01*
X6862414Y-11060067D01*
X6938605Y-11260067D02*
X6948128Y-11250543D01*
X6967176Y-11221971D01*
X6976700Y-11202924D01*
X6986224Y-11174352D01*
X6995748Y-11126733D01*
X6995748Y-11088638D01*
X6986224Y-11041019D01*
X6976700Y-11012448D01*
X6967176Y-10993400D01*
X6948128Y-10964829D01*
X6938605Y-10955305D01*
X2066700Y-11313400D02*
X2066700Y-11513400D01*
X1966700Y-11413400D02*
X2166700Y-11413400D01*
X2166700Y-11413400D02*
G75*
G03*
X2166700Y-11413400I-100000J0D01*
G01*
X2414795Y-11322924D02*
X2424319Y-11313400D01*
X2443367Y-11303876D01*
X2490986Y-11303876D01*
X2510033Y-11313400D01*
X2519557Y-11322924D01*
X2529081Y-11341971D01*
X2529081Y-11361019D01*
X2519557Y-11389590D01*
X2405271Y-11503876D01*
X2529081Y-11503876D01*
X2614795Y-11484828D02*
X2624319Y-11494352D01*
X2614795Y-11503876D01*
X2605271Y-11494352D01*
X2614795Y-11484828D01*
X2614795Y-11503876D01*
X2690986Y-11303876D02*
X2814795Y-11303876D01*
X2748129Y-11380067D01*
X2776700Y-11380067D01*
X2795748Y-11389590D01*
X2805271Y-11399114D01*
X2814795Y-11418162D01*
X2814795Y-11465781D01*
X2805271Y-11484828D01*
X2795748Y-11494352D01*
X2776700Y-11503876D01*
X2719557Y-11503876D01*
X2700510Y-11494352D01*
X2690986Y-11484828D01*
X2938605Y-11303876D02*
X2957652Y-11303876D01*
X2976700Y-11313400D01*
X2986224Y-11322924D01*
X2995748Y-11341971D01*
X3005271Y-11380067D01*
X3005271Y-11427686D01*
X2995748Y-11465781D01*
X2986224Y-11484828D01*
X2976700Y-11494352D01*
X2957652Y-11503876D01*
X2938605Y-11503876D01*
X2919557Y-11494352D01*
X2910033Y-11484828D01*
X2900509Y-11465781D01*
X2890986Y-11427686D01*
X2890986Y-11380067D01*
X2900509Y-11341971D01*
X2910033Y-11322924D01*
X2919557Y-11313400D01*
X2938605Y-11303876D01*
X3129081Y-11303876D02*
X3148128Y-11303876D01*
X3167176Y-11313400D01*
X3176700Y-11322924D01*
X3186224Y-11341971D01*
X3195748Y-11380067D01*
X3195748Y-11427686D01*
X3186224Y-11465781D01*
X3176700Y-11484828D01*
X3167176Y-11494352D01*
X3148128Y-11503876D01*
X3129081Y-11503876D01*
X3110033Y-11494352D01*
X3100509Y-11484828D01*
X3090986Y-11465781D01*
X3081462Y-11427686D01*
X3081462Y-11380067D01*
X3090986Y-11341971D01*
X3100509Y-11322924D01*
X3110033Y-11313400D01*
X3129081Y-11303876D01*
X3281462Y-11503876D02*
X3281462Y-11370543D01*
X3281462Y-11389590D02*
X3290986Y-11380067D01*
X3310033Y-11370543D01*
X3338605Y-11370543D01*
X3357652Y-11380067D01*
X3367176Y-11399114D01*
X3367176Y-11503876D01*
X3367176Y-11399114D02*
X3376700Y-11380067D01*
X3395748Y-11370543D01*
X3424319Y-11370543D01*
X3443367Y-11380067D01*
X3452890Y-11399114D01*
X3452890Y-11503876D01*
X3548128Y-11503876D02*
X3548128Y-11370543D01*
X3548128Y-11389590D02*
X3557652Y-11380067D01*
X3576700Y-11370543D01*
X3605271Y-11370543D01*
X3624319Y-11380067D01*
X3633843Y-11399114D01*
X3633843Y-11503876D01*
X3633843Y-11399114D02*
X3643367Y-11380067D01*
X3662414Y-11370543D01*
X3690986Y-11370543D01*
X3710033Y-11380067D01*
X3719557Y-11399114D01*
X3719557Y-11503876D01*
X4110033Y-11294352D02*
X3938605Y-11551495D01*
X4367176Y-11303876D02*
X4386224Y-11303876D01*
X4405271Y-11313400D01*
X4414795Y-11322924D01*
X4424319Y-11341971D01*
X4433843Y-11380067D01*
X4433843Y-11427686D01*
X4424319Y-11465781D01*
X4414795Y-11484828D01*
X4405271Y-11494352D01*
X4386224Y-11503876D01*
X4367176Y-11503876D01*
X4348129Y-11494352D01*
X4338605Y-11484828D01*
X4329081Y-11465781D01*
X4319557Y-11427686D01*
X4319557Y-11380067D01*
X4329081Y-11341971D01*
X4338605Y-11322924D01*
X4348129Y-11313400D01*
X4367176Y-11303876D01*
X4519557Y-11484828D02*
X4529081Y-11494352D01*
X4519557Y-11503876D01*
X4510033Y-11494352D01*
X4519557Y-11484828D01*
X4519557Y-11503876D01*
X4652890Y-11303876D02*
X4671938Y-11303876D01*
X4690986Y-11313400D01*
X4700510Y-11322924D01*
X4710033Y-11341971D01*
X4719557Y-11380067D01*
X4719557Y-11427686D01*
X4710033Y-11465781D01*
X4700510Y-11484828D01*
X4690986Y-11494352D01*
X4671938Y-11503876D01*
X4652890Y-11503876D01*
X4633843Y-11494352D01*
X4624319Y-11484828D01*
X4614795Y-11465781D01*
X4605271Y-11427686D01*
X4605271Y-11380067D01*
X4614795Y-11341971D01*
X4624319Y-11322924D01*
X4633843Y-11313400D01*
X4652890Y-11303876D01*
X4814795Y-11503876D02*
X4852890Y-11503876D01*
X4871938Y-11494352D01*
X4881462Y-11484828D01*
X4900510Y-11456257D01*
X4910033Y-11418162D01*
X4910033Y-11341971D01*
X4900510Y-11322924D01*
X4890986Y-11313400D01*
X4871938Y-11303876D01*
X4833843Y-11303876D01*
X4814795Y-11313400D01*
X4805271Y-11322924D01*
X4795748Y-11341971D01*
X4795748Y-11389590D01*
X4805271Y-11408638D01*
X4814795Y-11418162D01*
X4833843Y-11427686D01*
X4871938Y-11427686D01*
X4890986Y-11418162D01*
X4900510Y-11408638D01*
X4910033Y-11389590D01*
X5033843Y-11303876D02*
X5052890Y-11303876D01*
X5071938Y-11313400D01*
X5081462Y-11322924D01*
X5090986Y-11341971D01*
X5100510Y-11380067D01*
X5100510Y-11427686D01*
X5090986Y-11465781D01*
X5081462Y-11484828D01*
X5071938Y-11494352D01*
X5052890Y-11503876D01*
X5033843Y-11503876D01*
X5014795Y-11494352D01*
X5005271Y-11484828D01*
X4995748Y-11465781D01*
X4986224Y-11427686D01*
X4986224Y-11380067D01*
X4995748Y-11341971D01*
X5005271Y-11322924D01*
X5014795Y-11313400D01*
X5033843Y-11303876D01*
X5271938Y-11303876D02*
X5233843Y-11303876D01*
X5214795Y-11313400D01*
X5205271Y-11322924D01*
X5186224Y-11351495D01*
X5176700Y-11389590D01*
X5176700Y-11465781D01*
X5186224Y-11484828D01*
X5195748Y-11494352D01*
X5214795Y-11503876D01*
X5252890Y-11503876D01*
X5271938Y-11494352D01*
X5281462Y-11484828D01*
X5290986Y-11465781D01*
X5290986Y-11418162D01*
X5281462Y-11399114D01*
X5271938Y-11389590D01*
X5252890Y-11380067D01*
X5214795Y-11380067D01*
X5195748Y-11389590D01*
X5186224Y-11399114D01*
X5176700Y-11418162D01*
X5367176Y-11303876D02*
X5367176Y-11341971D01*
X5443367Y-11303876D02*
X5443367Y-11341971D01*
X5738605Y-11580067D02*
X5729081Y-11570543D01*
X5710033Y-11541971D01*
X5700509Y-11522924D01*
X5690986Y-11494352D01*
X5681462Y-11446733D01*
X5681462Y-11408638D01*
X5690986Y-11361019D01*
X5700509Y-11332448D01*
X5710033Y-11313400D01*
X5729081Y-11284828D01*
X5738605Y-11275305D01*
X5805271Y-11322924D02*
X5814795Y-11313400D01*
X5833843Y-11303876D01*
X5881462Y-11303876D01*
X5900509Y-11313400D01*
X5910033Y-11322924D01*
X5919557Y-11341971D01*
X5919557Y-11361019D01*
X5910033Y-11389590D01*
X5795748Y-11503876D01*
X5919557Y-11503876D01*
X6157652Y-11503876D02*
X6157652Y-11303876D01*
X6243367Y-11503876D02*
X6243367Y-11399114D01*
X6233843Y-11380067D01*
X6214795Y-11370543D01*
X6186224Y-11370543D01*
X6167176Y-11380067D01*
X6157652Y-11389590D01*
X6367176Y-11503876D02*
X6348128Y-11494352D01*
X6338605Y-11484828D01*
X6329081Y-11465781D01*
X6329081Y-11408638D01*
X6338605Y-11389590D01*
X6348128Y-11380067D01*
X6367176Y-11370543D01*
X6395748Y-11370543D01*
X6414795Y-11380067D01*
X6424319Y-11389590D01*
X6433843Y-11408638D01*
X6433843Y-11465781D01*
X6424319Y-11484828D01*
X6414795Y-11494352D01*
X6395748Y-11503876D01*
X6367176Y-11503876D01*
X6548128Y-11503876D02*
X6529081Y-11494352D01*
X6519557Y-11475305D01*
X6519557Y-11303876D01*
X6700509Y-11494352D02*
X6681462Y-11503876D01*
X6643367Y-11503876D01*
X6624319Y-11494352D01*
X6614795Y-11475305D01*
X6614795Y-11399114D01*
X6624319Y-11380067D01*
X6643367Y-11370543D01*
X6681462Y-11370543D01*
X6700509Y-11380067D01*
X6710033Y-11399114D01*
X6710033Y-11418162D01*
X6614795Y-11437209D01*
X6786224Y-11494352D02*
X6805271Y-11503876D01*
X6843367Y-11503876D01*
X6862414Y-11494352D01*
X6871938Y-11475305D01*
X6871938Y-11465781D01*
X6862414Y-11446733D01*
X6843367Y-11437209D01*
X6814795Y-11437209D01*
X6795748Y-11427686D01*
X6786224Y-11408638D01*
X6786224Y-11399114D01*
X6795748Y-11380067D01*
X6814795Y-11370543D01*
X6843367Y-11370543D01*
X6862414Y-11380067D01*
X6938605Y-11580067D02*
X6948128Y-11570543D01*
X6967176Y-11541971D01*
X6976700Y-11522924D01*
X6986224Y-11494352D01*
X6995748Y-11446733D01*
X6995748Y-11408638D01*
X6986224Y-11361019D01*
X6976700Y-11332448D01*
X6967176Y-11313400D01*
X6948128Y-11284828D01*
X6938605Y-11275305D01*
D21*
X2143269Y-11789969D02*
X2143269Y-11676831D01*
X2030131Y-11676831D01*
X2030131Y-11789969D01*
X2143269Y-11789969D01*
X2166700Y-11733400D02*
G75*
G03*
X2166700Y-11733400I-80000J0D01*
G01*
D11*
X2529081Y-11823876D02*
X2414795Y-11823876D01*
X2471938Y-11823876D02*
X2471938Y-11623876D01*
X2452890Y-11652448D01*
X2433843Y-11671495D01*
X2414795Y-11681019D01*
X2614795Y-11804828D02*
X2624319Y-11814352D01*
X2614795Y-11823876D01*
X2605271Y-11814352D01*
X2614795Y-11804828D01*
X2614795Y-11823876D01*
X2795748Y-11623876D02*
X2757652Y-11623876D01*
X2738605Y-11633400D01*
X2729081Y-11642924D01*
X2710033Y-11671495D01*
X2700510Y-11709590D01*
X2700510Y-11785781D01*
X2710033Y-11804828D01*
X2719557Y-11814352D01*
X2738605Y-11823876D01*
X2776700Y-11823876D01*
X2795748Y-11814352D01*
X2805271Y-11804828D01*
X2814795Y-11785781D01*
X2814795Y-11738162D01*
X2805271Y-11719114D01*
X2795748Y-11709590D01*
X2776700Y-11700067D01*
X2738605Y-11700067D01*
X2719557Y-11709590D01*
X2710033Y-11719114D01*
X2700510Y-11738162D01*
X2938605Y-11623876D02*
X2957652Y-11623876D01*
X2976700Y-11633400D01*
X2986224Y-11642924D01*
X2995748Y-11661971D01*
X3005271Y-11700067D01*
X3005271Y-11747686D01*
X2995748Y-11785781D01*
X2986224Y-11804828D01*
X2976700Y-11814352D01*
X2957652Y-11823876D01*
X2938605Y-11823876D01*
X2919557Y-11814352D01*
X2910033Y-11804828D01*
X2900509Y-11785781D01*
X2890986Y-11747686D01*
X2890986Y-11700067D01*
X2900509Y-11661971D01*
X2910033Y-11642924D01*
X2919557Y-11633400D01*
X2938605Y-11623876D01*
X3129081Y-11623876D02*
X3148128Y-11623876D01*
X3167176Y-11633400D01*
X3176700Y-11642924D01*
X3186224Y-11661971D01*
X3195748Y-11700067D01*
X3195748Y-11747686D01*
X3186224Y-11785781D01*
X3176700Y-11804828D01*
X3167176Y-11814352D01*
X3148128Y-11823876D01*
X3129081Y-11823876D01*
X3110033Y-11814352D01*
X3100509Y-11804828D01*
X3090986Y-11785781D01*
X3081462Y-11747686D01*
X3081462Y-11700067D01*
X3090986Y-11661971D01*
X3100509Y-11642924D01*
X3110033Y-11633400D01*
X3129081Y-11623876D01*
X3281462Y-11823876D02*
X3281462Y-11690543D01*
X3281462Y-11709590D02*
X3290986Y-11700067D01*
X3310033Y-11690543D01*
X3338605Y-11690543D01*
X3357652Y-11700067D01*
X3367176Y-11719114D01*
X3367176Y-11823876D01*
X3367176Y-11719114D02*
X3376700Y-11700067D01*
X3395748Y-11690543D01*
X3424319Y-11690543D01*
X3443367Y-11700067D01*
X3452890Y-11719114D01*
X3452890Y-11823876D01*
X3548128Y-11823876D02*
X3548128Y-11690543D01*
X3548128Y-11709590D02*
X3557652Y-11700067D01*
X3576700Y-11690543D01*
X3605271Y-11690543D01*
X3624319Y-11700067D01*
X3633843Y-11719114D01*
X3633843Y-11823876D01*
X3633843Y-11719114D02*
X3643367Y-11700067D01*
X3662414Y-11690543D01*
X3690986Y-11690543D01*
X3710033Y-11700067D01*
X3719557Y-11719114D01*
X3719557Y-11823876D01*
X4110033Y-11614352D02*
X3938605Y-11871495D01*
X4367176Y-11623876D02*
X4386224Y-11623876D01*
X4405271Y-11633400D01*
X4414795Y-11642924D01*
X4424319Y-11661971D01*
X4433843Y-11700067D01*
X4433843Y-11747686D01*
X4424319Y-11785781D01*
X4414795Y-11804828D01*
X4405271Y-11814352D01*
X4386224Y-11823876D01*
X4367176Y-11823876D01*
X4348129Y-11814352D01*
X4338605Y-11804828D01*
X4329081Y-11785781D01*
X4319557Y-11747686D01*
X4319557Y-11700067D01*
X4329081Y-11661971D01*
X4338605Y-11642924D01*
X4348129Y-11633400D01*
X4367176Y-11623876D01*
X4519557Y-11804828D02*
X4529081Y-11814352D01*
X4519557Y-11823876D01*
X4510033Y-11814352D01*
X4519557Y-11804828D01*
X4519557Y-11823876D01*
X4652890Y-11623876D02*
X4671938Y-11623876D01*
X4690986Y-11633400D01*
X4700510Y-11642924D01*
X4710033Y-11661971D01*
X4719557Y-11700067D01*
X4719557Y-11747686D01*
X4710033Y-11785781D01*
X4700510Y-11804828D01*
X4690986Y-11814352D01*
X4671938Y-11823876D01*
X4652890Y-11823876D01*
X4633843Y-11814352D01*
X4624319Y-11804828D01*
X4614795Y-11785781D01*
X4605271Y-11747686D01*
X4605271Y-11700067D01*
X4614795Y-11661971D01*
X4624319Y-11642924D01*
X4633843Y-11633400D01*
X4652890Y-11623876D01*
X4890986Y-11623876D02*
X4852890Y-11623876D01*
X4833843Y-11633400D01*
X4824319Y-11642924D01*
X4805271Y-11671495D01*
X4795748Y-11709590D01*
X4795748Y-11785781D01*
X4805271Y-11804828D01*
X4814795Y-11814352D01*
X4833843Y-11823876D01*
X4871938Y-11823876D01*
X4890986Y-11814352D01*
X4900510Y-11804828D01*
X4910033Y-11785781D01*
X4910033Y-11738162D01*
X4900510Y-11719114D01*
X4890986Y-11709590D01*
X4871938Y-11700067D01*
X4833843Y-11700067D01*
X4814795Y-11709590D01*
X4805271Y-11719114D01*
X4795748Y-11738162D01*
X4976700Y-11623876D02*
X5100510Y-11623876D01*
X5033843Y-11700067D01*
X5062414Y-11700067D01*
X5081462Y-11709590D01*
X5090986Y-11719114D01*
X5100510Y-11738162D01*
X5100510Y-11785781D01*
X5090986Y-11804828D01*
X5081462Y-11814352D01*
X5062414Y-11823876D01*
X5005271Y-11823876D01*
X4986224Y-11814352D01*
X4976700Y-11804828D01*
X5224319Y-11623876D02*
X5243367Y-11623876D01*
X5262414Y-11633400D01*
X5271938Y-11642924D01*
X5281462Y-11661971D01*
X5290986Y-11700067D01*
X5290986Y-11747686D01*
X5281462Y-11785781D01*
X5271938Y-11804828D01*
X5262414Y-11814352D01*
X5243367Y-11823876D01*
X5224319Y-11823876D01*
X5205271Y-11814352D01*
X5195748Y-11804828D01*
X5186224Y-11785781D01*
X5176700Y-11747686D01*
X5176700Y-11700067D01*
X5186224Y-11661971D01*
X5195748Y-11642924D01*
X5205271Y-11633400D01*
X5224319Y-11623876D01*
X5367176Y-11623876D02*
X5367176Y-11661971D01*
X5443367Y-11623876D02*
X5443367Y-11661971D01*
X5738605Y-11900067D02*
X5729081Y-11890543D01*
X5710033Y-11861971D01*
X5700509Y-11842924D01*
X5690986Y-11814352D01*
X5681462Y-11766733D01*
X5681462Y-11728638D01*
X5690986Y-11681019D01*
X5700509Y-11652448D01*
X5710033Y-11633400D01*
X5729081Y-11604828D01*
X5738605Y-11595305D01*
X5805271Y-11642924D02*
X5814795Y-11633400D01*
X5833843Y-11623876D01*
X5881462Y-11623876D01*
X5900509Y-11633400D01*
X5910033Y-11642924D01*
X5919557Y-11661971D01*
X5919557Y-11681019D01*
X5910033Y-11709590D01*
X5795748Y-11823876D01*
X5919557Y-11823876D01*
X6157652Y-11823876D02*
X6157652Y-11623876D01*
X6243367Y-11823876D02*
X6243367Y-11719114D01*
X6233843Y-11700067D01*
X6214795Y-11690543D01*
X6186224Y-11690543D01*
X6167176Y-11700067D01*
X6157652Y-11709590D01*
X6367176Y-11823876D02*
X6348128Y-11814352D01*
X6338605Y-11804828D01*
X6329081Y-11785781D01*
X6329081Y-11728638D01*
X6338605Y-11709590D01*
X6348128Y-11700067D01*
X6367176Y-11690543D01*
X6395748Y-11690543D01*
X6414795Y-11700067D01*
X6424319Y-11709590D01*
X6433843Y-11728638D01*
X6433843Y-11785781D01*
X6424319Y-11804828D01*
X6414795Y-11814352D01*
X6395748Y-11823876D01*
X6367176Y-11823876D01*
X6548128Y-11823876D02*
X6529081Y-11814352D01*
X6519557Y-11795305D01*
X6519557Y-11623876D01*
X6700509Y-11814352D02*
X6681462Y-11823876D01*
X6643367Y-11823876D01*
X6624319Y-11814352D01*
X6614795Y-11795305D01*
X6614795Y-11719114D01*
X6624319Y-11700067D01*
X6643367Y-11690543D01*
X6681462Y-11690543D01*
X6700509Y-11700067D01*
X6710033Y-11719114D01*
X6710033Y-11738162D01*
X6614795Y-11757209D01*
X6786224Y-11814352D02*
X6805271Y-11823876D01*
X6843367Y-11823876D01*
X6862414Y-11814352D01*
X6871938Y-11795305D01*
X6871938Y-11785781D01*
X6862414Y-11766733D01*
X6843367Y-11757209D01*
X6814795Y-11757209D01*
X6795748Y-11747686D01*
X6786224Y-11728638D01*
X6786224Y-11719114D01*
X6795748Y-11700067D01*
X6814795Y-11690543D01*
X6843367Y-11690543D01*
X6862414Y-11700067D01*
X6938605Y-11900067D02*
X6948128Y-11890543D01*
X6967176Y-11861971D01*
X6976700Y-11842924D01*
X6986224Y-11814352D01*
X6995748Y-11766733D01*
X6995748Y-11728638D01*
X6986224Y-11681019D01*
X6976700Y-11652448D01*
X6967176Y-11633400D01*
X6948128Y-11604828D01*
X6938605Y-11595305D01*
X7300509Y-11900067D02*
X7290986Y-11890543D01*
X7271938Y-11861971D01*
X7262414Y-11842924D01*
X7252890Y-11814352D01*
X7243367Y-11766733D01*
X7243367Y-11728638D01*
X7252890Y-11681019D01*
X7262414Y-11652448D01*
X7271938Y-11633400D01*
X7290986Y-11604828D01*
X7300509Y-11595305D01*
X7376700Y-11690543D02*
X7376700Y-11823876D01*
X7376700Y-11709590D02*
X7386224Y-11700067D01*
X7405271Y-11690543D01*
X7433843Y-11690543D01*
X7452890Y-11700067D01*
X7462414Y-11719114D01*
X7462414Y-11823876D01*
X7586224Y-11823876D02*
X7567176Y-11814352D01*
X7557652Y-11804828D01*
X7548128Y-11785781D01*
X7548128Y-11728638D01*
X7557652Y-11709590D01*
X7567176Y-11700067D01*
X7586224Y-11690543D01*
X7614795Y-11690543D01*
X7633843Y-11700067D01*
X7643367Y-11709590D01*
X7652890Y-11728638D01*
X7652890Y-11785781D01*
X7643367Y-11804828D01*
X7633843Y-11814352D01*
X7614795Y-11823876D01*
X7586224Y-11823876D01*
X7710033Y-11690543D02*
X7786224Y-11690543D01*
X7738605Y-11623876D02*
X7738605Y-11795305D01*
X7748128Y-11814352D01*
X7767176Y-11823876D01*
X7786224Y-11823876D01*
X8005271Y-11690543D02*
X8005271Y-11890543D01*
X8005271Y-11700067D02*
X8024319Y-11690543D01*
X8062414Y-11690543D01*
X8081462Y-11700067D01*
X8090986Y-11709590D01*
X8100509Y-11728638D01*
X8100509Y-11785781D01*
X8090986Y-11804828D01*
X8081462Y-11814352D01*
X8062414Y-11823876D01*
X8024319Y-11823876D01*
X8005271Y-11814352D01*
X8214795Y-11823876D02*
X8195748Y-11814352D01*
X8186224Y-11795305D01*
X8186224Y-11623876D01*
X8376700Y-11823876D02*
X8376700Y-11719114D01*
X8367176Y-11700067D01*
X8348128Y-11690543D01*
X8310033Y-11690543D01*
X8290986Y-11700067D01*
X8376700Y-11814352D02*
X8357652Y-11823876D01*
X8310033Y-11823876D01*
X8290986Y-11814352D01*
X8281462Y-11795305D01*
X8281462Y-11776257D01*
X8290986Y-11757209D01*
X8310033Y-11747686D01*
X8357652Y-11747686D01*
X8376700Y-11738162D01*
X8443367Y-11690543D02*
X8519557Y-11690543D01*
X8471938Y-11623876D02*
X8471938Y-11795305D01*
X8481462Y-11814352D01*
X8500510Y-11823876D01*
X8519557Y-11823876D01*
X8662414Y-11814352D02*
X8643367Y-11823876D01*
X8605271Y-11823876D01*
X8586224Y-11814352D01*
X8576700Y-11795305D01*
X8576700Y-11719114D01*
X8586224Y-11700067D01*
X8605271Y-11690543D01*
X8643367Y-11690543D01*
X8662414Y-11700067D01*
X8671938Y-11719114D01*
X8671938Y-11738162D01*
X8576700Y-11757209D01*
X8843367Y-11823876D02*
X8843367Y-11623876D01*
X8843367Y-11814352D02*
X8824319Y-11823876D01*
X8786224Y-11823876D01*
X8767176Y-11814352D01*
X8757652Y-11804828D01*
X8748129Y-11785781D01*
X8748129Y-11728638D01*
X8757652Y-11709590D01*
X8767176Y-11700067D01*
X8786224Y-11690543D01*
X8824319Y-11690543D01*
X8843367Y-11700067D01*
X8919557Y-11900067D02*
X8929081Y-11890543D01*
X8948129Y-11861971D01*
X8957652Y-11842924D01*
X8967176Y-11814352D01*
X8976700Y-11766733D01*
X8976700Y-11728638D01*
X8967176Y-11681019D01*
X8957652Y-11652448D01*
X8948129Y-11633400D01*
X8929081Y-11604828D01*
X8919557Y-11595305D01*
X2066700Y-12113400D02*
X2166700Y-12013400D01*
X2066700Y-11913400D01*
X1966700Y-12013400D01*
X2066700Y-12113400D01*
X2166700Y-12013400D02*
G75*
G03*
X2166700Y-12013400I-100000J0D01*
G01*
X2405271Y-11903876D02*
X2529081Y-11903876D01*
X2462414Y-11980067D01*
X2490986Y-11980067D01*
X2510033Y-11989590D01*
X2519557Y-11999114D01*
X2529081Y-12018162D01*
X2529081Y-12065781D01*
X2519557Y-12084828D01*
X2510033Y-12094352D01*
X2490986Y-12103876D01*
X2433843Y-12103876D01*
X2414795Y-12094352D01*
X2405271Y-12084828D01*
X2614795Y-12084828D02*
X2624319Y-12094352D01*
X2614795Y-12103876D01*
X2605271Y-12094352D01*
X2614795Y-12084828D01*
X2614795Y-12103876D01*
X2700510Y-11922924D02*
X2710033Y-11913400D01*
X2729081Y-11903876D01*
X2776700Y-11903876D01*
X2795748Y-11913400D01*
X2805271Y-11922924D01*
X2814795Y-11941971D01*
X2814795Y-11961019D01*
X2805271Y-11989590D01*
X2690986Y-12103876D01*
X2814795Y-12103876D01*
X2938605Y-11903876D02*
X2957652Y-11903876D01*
X2976700Y-11913400D01*
X2986224Y-11922924D01*
X2995748Y-11941971D01*
X3005271Y-11980067D01*
X3005271Y-12027686D01*
X2995748Y-12065781D01*
X2986224Y-12084828D01*
X2976700Y-12094352D01*
X2957652Y-12103876D01*
X2938605Y-12103876D01*
X2919557Y-12094352D01*
X2910033Y-12084828D01*
X2900509Y-12065781D01*
X2890986Y-12027686D01*
X2890986Y-11980067D01*
X2900509Y-11941971D01*
X2910033Y-11922924D01*
X2919557Y-11913400D01*
X2938605Y-11903876D01*
X3129081Y-11903876D02*
X3148128Y-11903876D01*
X3167176Y-11913400D01*
X3176700Y-11922924D01*
X3186224Y-11941971D01*
X3195748Y-11980067D01*
X3195748Y-12027686D01*
X3186224Y-12065781D01*
X3176700Y-12084828D01*
X3167176Y-12094352D01*
X3148128Y-12103876D01*
X3129081Y-12103876D01*
X3110033Y-12094352D01*
X3100509Y-12084828D01*
X3090986Y-12065781D01*
X3081462Y-12027686D01*
X3081462Y-11980067D01*
X3090986Y-11941971D01*
X3100509Y-11922924D01*
X3110033Y-11913400D01*
X3129081Y-11903876D01*
X3281462Y-12103876D02*
X3281462Y-11970543D01*
X3281462Y-11989590D02*
X3290986Y-11980067D01*
X3310033Y-11970543D01*
X3338605Y-11970543D01*
X3357652Y-11980067D01*
X3367176Y-11999114D01*
X3367176Y-12103876D01*
X3367176Y-11999114D02*
X3376700Y-11980067D01*
X3395748Y-11970543D01*
X3424319Y-11970543D01*
X3443367Y-11980067D01*
X3452890Y-11999114D01*
X3452890Y-12103876D01*
X3548128Y-12103876D02*
X3548128Y-11970543D01*
X3548128Y-11989590D02*
X3557652Y-11980067D01*
X3576700Y-11970543D01*
X3605271Y-11970543D01*
X3624319Y-11980067D01*
X3633843Y-11999114D01*
X3633843Y-12103876D01*
X3633843Y-11999114D02*
X3643367Y-11980067D01*
X3662414Y-11970543D01*
X3690986Y-11970543D01*
X3710033Y-11980067D01*
X3719557Y-11999114D01*
X3719557Y-12103876D01*
X4110033Y-11894352D02*
X3938605Y-12151495D01*
X4367176Y-11903876D02*
X4386224Y-11903876D01*
X4405271Y-11913400D01*
X4414795Y-11922924D01*
X4424319Y-11941971D01*
X4433843Y-11980067D01*
X4433843Y-12027686D01*
X4424319Y-12065781D01*
X4414795Y-12084828D01*
X4405271Y-12094352D01*
X4386224Y-12103876D01*
X4367176Y-12103876D01*
X4348129Y-12094352D01*
X4338605Y-12084828D01*
X4329081Y-12065781D01*
X4319557Y-12027686D01*
X4319557Y-11980067D01*
X4329081Y-11941971D01*
X4338605Y-11922924D01*
X4348129Y-11913400D01*
X4367176Y-11903876D01*
X4519557Y-12084828D02*
X4529081Y-12094352D01*
X4519557Y-12103876D01*
X4510033Y-12094352D01*
X4519557Y-12084828D01*
X4519557Y-12103876D01*
X4719557Y-12103876D02*
X4605271Y-12103876D01*
X4662414Y-12103876D02*
X4662414Y-11903876D01*
X4643367Y-11932448D01*
X4624319Y-11951495D01*
X4605271Y-11961019D01*
X4795748Y-11922924D02*
X4805271Y-11913400D01*
X4824319Y-11903876D01*
X4871938Y-11903876D01*
X4890986Y-11913400D01*
X4900510Y-11922924D01*
X4910033Y-11941971D01*
X4910033Y-11961019D01*
X4900510Y-11989590D01*
X4786224Y-12103876D01*
X4910033Y-12103876D01*
X5081462Y-11903876D02*
X5043367Y-11903876D01*
X5024319Y-11913400D01*
X5014795Y-11922924D01*
X4995748Y-11951495D01*
X4986224Y-11989590D01*
X4986224Y-12065781D01*
X4995748Y-12084828D01*
X5005271Y-12094352D01*
X5024319Y-12103876D01*
X5062414Y-12103876D01*
X5081462Y-12094352D01*
X5090986Y-12084828D01*
X5100510Y-12065781D01*
X5100510Y-12018162D01*
X5090986Y-11999114D01*
X5081462Y-11989590D01*
X5062414Y-11980067D01*
X5024319Y-11980067D01*
X5005271Y-11989590D01*
X4995748Y-11999114D01*
X4986224Y-12018162D01*
X5224319Y-11903876D02*
X5243367Y-11903876D01*
X5262414Y-11913400D01*
X5271938Y-11922924D01*
X5281462Y-11941971D01*
X5290986Y-11980067D01*
X5290986Y-12027686D01*
X5281462Y-12065781D01*
X5271938Y-12084828D01*
X5262414Y-12094352D01*
X5243367Y-12103876D01*
X5224319Y-12103876D01*
X5205271Y-12094352D01*
X5195748Y-12084828D01*
X5186224Y-12065781D01*
X5176700Y-12027686D01*
X5176700Y-11980067D01*
X5186224Y-11941971D01*
X5195748Y-11922924D01*
X5205271Y-11913400D01*
X5224319Y-11903876D01*
X5367176Y-11903876D02*
X5367176Y-11941971D01*
X5443367Y-11903876D02*
X5443367Y-11941971D01*
X5738605Y-12180067D02*
X5729081Y-12170543D01*
X5710033Y-12141971D01*
X5700509Y-12122924D01*
X5690986Y-12094352D01*
X5681462Y-12046733D01*
X5681462Y-12008638D01*
X5690986Y-11961019D01*
X5700509Y-11932448D01*
X5710033Y-11913400D01*
X5729081Y-11884828D01*
X5738605Y-11875305D01*
X5900509Y-11970543D02*
X5900509Y-12103876D01*
X5852890Y-11894352D02*
X5805271Y-12037209D01*
X5929081Y-12037209D01*
X6157652Y-12103876D02*
X6157652Y-11903876D01*
X6243367Y-12103876D02*
X6243367Y-11999114D01*
X6233843Y-11980067D01*
X6214795Y-11970543D01*
X6186224Y-11970543D01*
X6167176Y-11980067D01*
X6157652Y-11989590D01*
X6367176Y-12103876D02*
X6348128Y-12094352D01*
X6338605Y-12084828D01*
X6329081Y-12065781D01*
X6329081Y-12008638D01*
X6338605Y-11989590D01*
X6348128Y-11980067D01*
X6367176Y-11970543D01*
X6395748Y-11970543D01*
X6414795Y-11980067D01*
X6424319Y-11989590D01*
X6433843Y-12008638D01*
X6433843Y-12065781D01*
X6424319Y-12084828D01*
X6414795Y-12094352D01*
X6395748Y-12103876D01*
X6367176Y-12103876D01*
X6548128Y-12103876D02*
X6529081Y-12094352D01*
X6519557Y-12075305D01*
X6519557Y-11903876D01*
X6700509Y-12094352D02*
X6681462Y-12103876D01*
X6643367Y-12103876D01*
X6624319Y-12094352D01*
X6614795Y-12075305D01*
X6614795Y-11999114D01*
X6624319Y-11980067D01*
X6643367Y-11970543D01*
X6681462Y-11970543D01*
X6700509Y-11980067D01*
X6710033Y-11999114D01*
X6710033Y-12018162D01*
X6614795Y-12037209D01*
X6786224Y-12094352D02*
X6805271Y-12103876D01*
X6843367Y-12103876D01*
X6862414Y-12094352D01*
X6871938Y-12075305D01*
X6871938Y-12065781D01*
X6862414Y-12046733D01*
X6843367Y-12037209D01*
X6814795Y-12037209D01*
X6795748Y-12027686D01*
X6786224Y-12008638D01*
X6786224Y-11999114D01*
X6795748Y-11980067D01*
X6814795Y-11970543D01*
X6843367Y-11970543D01*
X6862414Y-11980067D01*
X6938605Y-12180067D02*
X6948128Y-12170543D01*
X6967176Y-12141971D01*
X6976700Y-12122924D01*
X6986224Y-12094352D01*
X6995748Y-12046733D01*
X6995748Y-12008638D01*
X6986224Y-11961019D01*
X6976700Y-11932448D01*
X6967176Y-11913400D01*
X6948128Y-11884828D01*
X6938605Y-11875305D01*
X7300509Y-12180067D02*
X7290986Y-12170543D01*
X7271938Y-12141971D01*
X7262414Y-12122924D01*
X7252890Y-12094352D01*
X7243367Y-12046733D01*
X7243367Y-12008638D01*
X7252890Y-11961019D01*
X7262414Y-11932448D01*
X7271938Y-11913400D01*
X7290986Y-11884828D01*
X7300509Y-11875305D01*
X7376700Y-11970543D02*
X7376700Y-12103876D01*
X7376700Y-11989590D02*
X7386224Y-11980067D01*
X7405271Y-11970543D01*
X7433843Y-11970543D01*
X7452890Y-11980067D01*
X7462414Y-11999114D01*
X7462414Y-12103876D01*
X7586224Y-12103876D02*
X7567176Y-12094352D01*
X7557652Y-12084828D01*
X7548128Y-12065781D01*
X7548128Y-12008638D01*
X7557652Y-11989590D01*
X7567176Y-11980067D01*
X7586224Y-11970543D01*
X7614795Y-11970543D01*
X7633843Y-11980067D01*
X7643367Y-11989590D01*
X7652890Y-12008638D01*
X7652890Y-12065781D01*
X7643367Y-12084828D01*
X7633843Y-12094352D01*
X7614795Y-12103876D01*
X7586224Y-12103876D01*
X7710033Y-11970543D02*
X7786224Y-11970543D01*
X7738605Y-11903876D02*
X7738605Y-12075305D01*
X7748128Y-12094352D01*
X7767176Y-12103876D01*
X7786224Y-12103876D01*
X8005271Y-11970543D02*
X8005271Y-12170543D01*
X8005271Y-11980067D02*
X8024319Y-11970543D01*
X8062414Y-11970543D01*
X8081462Y-11980067D01*
X8090986Y-11989590D01*
X8100509Y-12008638D01*
X8100509Y-12065781D01*
X8090986Y-12084828D01*
X8081462Y-12094352D01*
X8062414Y-12103876D01*
X8024319Y-12103876D01*
X8005271Y-12094352D01*
X8214795Y-12103876D02*
X8195748Y-12094352D01*
X8186224Y-12075305D01*
X8186224Y-11903876D01*
X8376700Y-12103876D02*
X8376700Y-11999114D01*
X8367176Y-11980067D01*
X8348128Y-11970543D01*
X8310033Y-11970543D01*
X8290986Y-11980067D01*
X8376700Y-12094352D02*
X8357652Y-12103876D01*
X8310033Y-12103876D01*
X8290986Y-12094352D01*
X8281462Y-12075305D01*
X8281462Y-12056257D01*
X8290986Y-12037209D01*
X8310033Y-12027686D01*
X8357652Y-12027686D01*
X8376700Y-12018162D01*
X8443367Y-11970543D02*
X8519557Y-11970543D01*
X8471938Y-11903876D02*
X8471938Y-12075305D01*
X8481462Y-12094352D01*
X8500510Y-12103876D01*
X8519557Y-12103876D01*
X8662414Y-12094352D02*
X8643367Y-12103876D01*
X8605271Y-12103876D01*
X8586224Y-12094352D01*
X8576700Y-12075305D01*
X8576700Y-11999114D01*
X8586224Y-11980067D01*
X8605271Y-11970543D01*
X8643367Y-11970543D01*
X8662414Y-11980067D01*
X8671938Y-11999114D01*
X8671938Y-12018162D01*
X8576700Y-12037209D01*
X8843367Y-12103876D02*
X8843367Y-11903876D01*
X8843367Y-12094352D02*
X8824319Y-12103876D01*
X8786224Y-12103876D01*
X8767176Y-12094352D01*
X8757652Y-12084828D01*
X8748129Y-12065781D01*
X8748129Y-12008638D01*
X8757652Y-11989590D01*
X8767176Y-11980067D01*
X8786224Y-11970543D01*
X8824319Y-11970543D01*
X8843367Y-11980067D01*
X8919557Y-12180067D02*
X8929081Y-12170543D01*
X8948129Y-12141971D01*
X8957652Y-12122924D01*
X8967176Y-12094352D01*
X8976700Y-12046733D01*
X8976700Y-12008638D01*
X8967176Y-11961019D01*
X8957652Y-11932448D01*
X8948129Y-11913400D01*
X8929081Y-11884828D01*
X8919557Y-11875305D01*
M02*
